%TF.GenerationSoftware,KiCad,Pcbnew,9.0.1*%
%TF.CreationDate,2025-04-26T23:34:38+03:00*%
%TF.ProjectId,Ricardo-Hermes,52696361-7264-46f2-9d48-65726d65732e,rev?*%
%TF.SameCoordinates,Original*%
%TF.FileFunction,Legend,Top*%
%TF.FilePolarity,Positive*%
%FSLAX46Y46*%
G04 Gerber Fmt 4.6, Leading zero omitted, Abs format (unit mm)*
G04 Created by KiCad (PCBNEW 9.0.1) date 2025-04-26 23:34:38*
%MOMM*%
%LPD*%
G01*
G04 APERTURE LIST*
G04 Aperture macros list*
%AMRoundRect*
0 Rectangle with rounded corners*
0 $1 Rounding radius*
0 $2 $3 $4 $5 $6 $7 $8 $9 X,Y pos of 4 corners*
0 Add a 4 corners polygon primitive as box body*
4,1,4,$2,$3,$4,$5,$6,$7,$8,$9,$2,$3,0*
0 Add four circle primitives for the rounded corners*
1,1,$1+$1,$2,$3*
1,1,$1+$1,$4,$5*
1,1,$1+$1,$6,$7*
1,1,$1+$1,$8,$9*
0 Add four rect primitives between the rounded corners*
20,1,$1+$1,$2,$3,$4,$5,0*
20,1,$1+$1,$4,$5,$6,$7,0*
20,1,$1+$1,$6,$7,$8,$9,0*
20,1,$1+$1,$8,$9,$2,$3,0*%
%AMRotRect*
0 Rectangle, with rotation*
0 The origin of the aperture is its center*
0 $1 length*
0 $2 width*
0 $3 Rotation angle, in degrees counterclockwise*
0 Add horizontal line*
21,1,$1,$2,0,0,$3*%
%AMFreePoly0*
4,1,23,0.500000,-0.750000,0.000000,-0.750000,0.000000,-0.745722,-0.065263,-0.745722,-0.191342,-0.711940,-0.304381,-0.646677,-0.396677,-0.554381,-0.461940,-0.441342,-0.495722,-0.315263,-0.495722,-0.250000,-0.500000,-0.250000,-0.500000,0.250000,-0.495722,0.250000,-0.495722,0.315263,-0.461940,0.441342,-0.396677,0.554381,-0.304381,0.646677,-0.191342,0.711940,-0.065263,0.745722,0.000000,0.745722,
0.000000,0.750000,0.500000,0.750000,0.500000,-0.750000,0.500000,-0.750000,$1*%
%AMFreePoly1*
4,1,23,0.000000,0.745722,0.065263,0.745722,0.191342,0.711940,0.304381,0.646677,0.396677,0.554381,0.461940,0.441342,0.495722,0.315263,0.495722,0.250000,0.500000,0.250000,0.500000,-0.250000,0.495722,-0.250000,0.495722,-0.315263,0.461940,-0.441342,0.396677,-0.554381,0.304381,-0.646677,0.191342,-0.711940,0.065263,-0.745722,0.000000,-0.745722,0.000000,-0.750000,-0.500000,-0.750000,
-0.500000,0.750000,0.000000,0.750000,0.000000,0.745722,0.000000,0.745722,$1*%
G04 Aperture macros list end*
%ADD10C,0.150000*%
%ADD11C,0.160000*%
%ADD12C,0.200000*%
%ADD13C,0.100000*%
%ADD14C,0.120000*%
%ADD15C,0.127000*%
%ADD16C,0.000000*%
%ADD17C,0.010000*%
%ADD18RoundRect,0.135000X0.185000X-0.135000X0.185000X0.135000X-0.185000X0.135000X-0.185000X-0.135000X0*%
%ADD19RoundRect,0.135000X-0.185000X0.135000X-0.185000X-0.135000X0.185000X-0.135000X0.185000X0.135000X0*%
%ADD20C,1.000000*%
%ADD21RoundRect,0.135000X-0.135000X-0.185000X0.135000X-0.185000X0.135000X0.185000X-0.135000X0.185000X0*%
%ADD22RoundRect,0.250001X1.399999X-1.099999X1.399999X1.099999X-1.399999X1.099999X-1.399999X-1.099999X0*%
%ADD23O,3.300000X2.700000*%
%ADD24RoundRect,0.140000X0.140000X0.170000X-0.140000X0.170000X-0.140000X-0.170000X0.140000X-0.170000X0*%
%ADD25RoundRect,0.140000X-0.140000X-0.170000X0.140000X-0.170000X0.140000X0.170000X-0.140000X0.170000X0*%
%ADD26RoundRect,0.147500X0.147500X0.172500X-0.147500X0.172500X-0.147500X-0.172500X0.147500X-0.172500X0*%
%ADD27RoundRect,0.147500X-0.147500X-0.172500X0.147500X-0.172500X0.147500X0.172500X-0.147500X0.172500X0*%
%ADD28C,1.500000*%
%ADD29RoundRect,0.218750X-0.218750X-0.256250X0.218750X-0.256250X0.218750X0.256250X-0.218750X0.256250X0*%
%ADD30RoundRect,0.147500X-0.172500X0.147500X-0.172500X-0.147500X0.172500X-0.147500X0.172500X0.147500X0*%
%ADD31RoundRect,0.218750X0.218750X0.256250X-0.218750X0.256250X-0.218750X-0.256250X0.218750X-0.256250X0*%
%ADD32R,1.700000X1.700000*%
%ADD33RoundRect,0.135000X0.135000X0.185000X-0.135000X0.185000X-0.135000X-0.185000X0.135000X-0.185000X0*%
%ADD34RoundRect,0.218750X-0.256250X0.218750X-0.256250X-0.218750X0.256250X-0.218750X0.256250X0.218750X0*%
%ADD35RoundRect,0.147500X0.172500X-0.147500X0.172500X0.147500X-0.172500X0.147500X-0.172500X-0.147500X0*%
%ADD36RoundRect,0.140000X0.170000X-0.140000X0.170000X0.140000X-0.170000X0.140000X-0.170000X-0.140000X0*%
%ADD37RoundRect,0.175000X-0.175000X-0.325000X0.175000X-0.325000X0.175000X0.325000X-0.175000X0.325000X0*%
%ADD38RoundRect,0.150000X-0.200000X-0.150000X0.200000X-0.150000X0.200000X0.150000X-0.200000X0.150000X0*%
%ADD39RoundRect,0.225000X-0.225000X-0.250000X0.225000X-0.250000X0.225000X0.250000X-0.225000X0.250000X0*%
%ADD40RoundRect,0.200000X0.275000X-0.200000X0.275000X0.200000X-0.275000X0.200000X-0.275000X-0.200000X0*%
%ADD41C,0.600000*%
%ADD42R,1.160000X0.600000*%
%ADD43R,1.160000X0.300000*%
%ADD44O,2.000000X0.900000*%
%ADD45O,1.700000X0.900000*%
%ADD46R,0.790000X0.260000*%
%ADD47R,0.260000X0.790000*%
%ADD48R,0.475000X0.300000*%
%ADD49RoundRect,0.140000X-0.170000X0.140000X-0.170000X-0.140000X0.170000X-0.140000X0.170000X0.140000X0*%
%ADD50R,0.304800X0.304800*%
%ADD51R,0.990600X0.838200*%
%ADD52RoundRect,0.140000X-0.021213X0.219203X-0.219203X0.021213X0.021213X-0.219203X0.219203X-0.021213X0*%
%ADD53R,2.290000X5.080000*%
%ADD54R,2.420000X5.080000*%
%ADD55FreePoly0,270.000000*%
%ADD56FreePoly1,270.000000*%
%ADD57R,0.800000X0.900000*%
%ADD58RoundRect,0.140000X0.219203X0.021213X0.021213X0.219203X-0.219203X-0.021213X-0.021213X-0.219203X0*%
%ADD59RotRect,0.900000X0.800000X225.000000*%
%ADD60C,1.700000*%
%ADD61C,5.600000*%
%ADD62RoundRect,0.250000X0.850000X0.600000X-0.850000X0.600000X-0.850000X-0.600000X0.850000X-0.600000X0*%
%ADD63O,2.200000X1.700000*%
%ADD64RoundRect,0.042000X-0.258000X0.943000X-0.258000X-0.943000X0.258000X-0.943000X0.258000X0.943000X0*%
%ADD65R,2.150000X2.150000*%
%ADD66RoundRect,0.150000X-0.150000X0.825000X-0.150000X-0.825000X0.150000X-0.825000X0.150000X0.825000X0*%
%ADD67O,1.700000X1.700000*%
%ADD68RoundRect,0.218750X0.381250X-0.218750X0.381250X0.218750X-0.381250X0.218750X-0.381250X-0.218750X0*%
%ADD69RoundRect,0.250000X0.275000X0.250000X-0.275000X0.250000X-0.275000X-0.250000X0.275000X-0.250000X0*%
%ADD70RoundRect,0.250000X0.850000X0.275000X-0.850000X0.275000X-0.850000X-0.275000X0.850000X-0.275000X0*%
%ADD71RoundRect,0.150000X0.150000X-0.587500X0.150000X0.587500X-0.150000X0.587500X-0.150000X-0.587500X0*%
%ADD72RoundRect,0.006600X0.103400X-0.398400X0.103400X0.398400X-0.103400X0.398400X-0.103400X-0.398400X0*%
%ADD73RoundRect,0.022000X0.383000X-0.088000X0.383000X0.088000X-0.383000X0.088000X-0.383000X-0.088000X0*%
%ADD74R,4.000000X4.000000*%
%ADD75RoundRect,0.200000X-0.275000X0.200000X-0.275000X-0.200000X0.275000X-0.200000X0.275000X0.200000X0*%
G04 APERTURE END LIST*
D10*
X121409000Y-83986000D02*
X121663000Y-83605000D01*
X121282000Y-83097000D02*
X121409000Y-83097000D01*
X124050600Y-84849600D02*
X123161600Y-84849600D01*
X121409000Y-83097000D02*
X121409000Y-83986000D01*
X121409000Y-83986000D02*
X121155000Y-83605000D01*
X123161600Y-84849600D02*
X123415600Y-84595600D01*
X123161600Y-84849600D02*
X123415600Y-85103600D01*
X121028000Y-83097000D02*
X121282000Y-83097000D01*
D11*
G36*
X145047608Y-75005140D02*
G01*
X145089576Y-75003592D01*
X145129000Y-74999014D01*
X145164744Y-74991758D01*
X145197893Y-74981821D01*
X145227391Y-74969743D01*
X145254283Y-74955318D01*
X145277746Y-74939197D01*
X145298607Y-74921024D01*
X145316360Y-74901405D01*
X145331494Y-74879971D01*
X145343790Y-74857102D01*
X145353393Y-74832593D01*
X145364250Y-74778805D01*
X145365368Y-74753570D01*
X145363791Y-74724181D01*
X145359003Y-74696995D01*
X145351708Y-74673920D01*
X145341572Y-74652592D01*
X145313767Y-74616208D01*
X145274046Y-74585346D01*
X145218828Y-74558873D01*
X145142469Y-74536716D01*
X145125815Y-74533214D01*
X145042674Y-74516263D01*
X145003515Y-74506862D01*
X144971836Y-74495686D01*
X144951031Y-74485005D01*
X144934847Y-74472922D01*
X144924293Y-74461116D01*
X144916969Y-74448110D01*
X144911418Y-74418908D01*
X144912956Y-74402434D01*
X144917468Y-74387201D01*
X144934823Y-74360865D01*
X144963517Y-74340123D01*
X145004249Y-74326553D01*
X145047071Y-74322628D01*
X145075562Y-74324223D01*
X145101760Y-74329136D01*
X145122855Y-74336379D01*
X145141958Y-74346485D01*
X145157784Y-74358508D01*
X145171744Y-74373202D01*
X145192004Y-74406891D01*
X145203736Y-74424953D01*
X145216992Y-74438639D01*
X145229563Y-74446862D01*
X145243798Y-74452306D01*
X145270748Y-74455545D01*
X145287519Y-74454020D01*
X145302456Y-74449601D01*
X145315084Y-74442685D01*
X145325495Y-74433428D01*
X145333348Y-74422262D01*
X145338625Y-74409252D01*
X145341286Y-74389355D01*
X145339790Y-74370284D01*
X145335574Y-74353582D01*
X145335277Y-74352718D01*
X145313294Y-74307202D01*
X145280689Y-74267992D01*
X145237391Y-74235436D01*
X145183182Y-74210459D01*
X145118111Y-74194498D01*
X145047071Y-74189222D01*
X145009050Y-74190766D01*
X144972839Y-74195324D01*
X144938975Y-74202686D01*
X144907238Y-74212777D01*
X144878389Y-74225200D01*
X144851918Y-74240031D01*
X144828628Y-74256654D01*
X144807895Y-74275361D01*
X144790379Y-74295398D01*
X144775549Y-74317218D01*
X144763820Y-74340101D01*
X144754900Y-74364513D01*
X144748990Y-74389950D01*
X144746048Y-74416715D01*
X144745724Y-74429313D01*
X144747289Y-74457449D01*
X144751991Y-74483870D01*
X144759369Y-74507362D01*
X144769594Y-74529296D01*
X144797921Y-74567735D01*
X144837918Y-74600534D01*
X144891850Y-74628082D01*
X144962985Y-74649834D01*
X144980344Y-74653528D01*
X145064021Y-74669892D01*
X145105902Y-74680098D01*
X145139335Y-74691951D01*
X145160283Y-74702766D01*
X145176512Y-74714968D01*
X145186994Y-74726806D01*
X145194313Y-74739905D01*
X145200190Y-74769528D01*
X145200211Y-74771644D01*
X145198673Y-74787398D01*
X145194163Y-74802227D01*
X145176401Y-74829042D01*
X145146561Y-74851241D01*
X145104248Y-74866639D01*
X145051418Y-74872272D01*
X145021011Y-74870694D01*
X144992520Y-74865904D01*
X144968419Y-74858628D01*
X144946492Y-74848521D01*
X144928535Y-74836713D01*
X144912842Y-74822420D01*
X144900342Y-74806673D01*
X144890200Y-74788643D01*
X144888459Y-74784735D01*
X144876282Y-74766342D01*
X144863036Y-74752747D01*
X144850642Y-74744666D01*
X144836923Y-74739490D01*
X144812451Y-74736619D01*
X144796026Y-74738148D01*
X144781206Y-74742596D01*
X144768422Y-74749633D01*
X144757685Y-74759106D01*
X144749320Y-74770671D01*
X144743425Y-74784233D01*
X144739715Y-74809355D01*
X144745422Y-74844928D01*
X144748459Y-74853660D01*
X144770224Y-74894741D01*
X144804068Y-74931470D01*
X144850271Y-74962572D01*
X144909054Y-74986417D01*
X144943276Y-74995068D01*
X144980382Y-75001160D01*
X145047608Y-75005140D01*
G37*
G36*
X145534335Y-74333032D02*
G01*
X145566541Y-74327151D01*
X145593639Y-74310291D01*
X145604242Y-74298311D01*
X145612311Y-74284454D01*
X145617472Y-74269312D01*
X145619588Y-74252973D01*
X145619625Y-74250478D01*
X145613720Y-74219535D01*
X145596721Y-74193433D01*
X145584508Y-74183116D01*
X145570308Y-74175224D01*
X145554541Y-74170084D01*
X145537416Y-74167925D01*
X145534335Y-74167875D01*
X145501883Y-74173771D01*
X145474773Y-74190627D01*
X145464239Y-74202571D01*
X145456231Y-74216420D01*
X145451121Y-74231584D01*
X145449032Y-74248011D01*
X145448997Y-74250478D01*
X145454902Y-74281172D01*
X145471987Y-74307356D01*
X145484262Y-74317739D01*
X145498537Y-74325689D01*
X145514306Y-74330838D01*
X145531428Y-74332988D01*
X145534335Y-74333032D01*
G37*
G36*
X145534335Y-75003528D02*
G01*
X145552446Y-75001987D01*
X145568541Y-74997456D01*
X145581839Y-74990495D01*
X145593038Y-74981068D01*
X145608413Y-74955804D01*
X145614150Y-74921359D01*
X145614154Y-74920387D01*
X145614154Y-74477429D01*
X145612617Y-74458151D01*
X145608115Y-74441095D01*
X145601230Y-74427077D01*
X145591948Y-74415335D01*
X145567520Y-74399502D01*
X145535002Y-74393753D01*
X145534335Y-74393751D01*
X145516183Y-74395290D01*
X145500105Y-74399811D01*
X145486846Y-74406752D01*
X145475698Y-74416138D01*
X145460332Y-74441352D01*
X145454477Y-74475862D01*
X145454468Y-74477429D01*
X145454468Y-74920387D01*
X145456007Y-74939787D01*
X145460531Y-74956890D01*
X145467400Y-74970784D01*
X145476676Y-74982389D01*
X145501098Y-74997931D01*
X145534335Y-75003528D01*
G37*
G36*
X145799681Y-75003528D02*
G01*
X145817764Y-75001974D01*
X145834052Y-74997350D01*
X145847436Y-74990288D01*
X145858788Y-74980630D01*
X145867575Y-74968950D01*
X145874087Y-74954958D01*
X145879499Y-74920387D01*
X145879499Y-74638189D01*
X145881032Y-74616797D01*
X145885507Y-74597127D01*
X145892621Y-74579639D01*
X145902241Y-74564263D01*
X145913916Y-74551463D01*
X145927657Y-74541097D01*
X145943002Y-74533482D01*
X145960025Y-74528602D01*
X145981202Y-74526619D01*
X146001171Y-74528163D01*
X146019040Y-74532718D01*
X146033939Y-74539717D01*
X146046742Y-74549222D01*
X146065355Y-74574724D01*
X146074884Y-74609616D01*
X146075822Y-74626710D01*
X146075822Y-74920387D01*
X146077356Y-74940610D01*
X146081848Y-74958122D01*
X146088581Y-74972008D01*
X146097616Y-74983425D01*
X146121258Y-74998394D01*
X146152416Y-75003528D01*
X146170542Y-75001974D01*
X146186556Y-74997350D01*
X146199345Y-74990389D01*
X146210054Y-74980894D01*
X146224435Y-74955344D01*
X146229499Y-74920387D01*
X146229499Y-74635991D01*
X146231034Y-74614536D01*
X146235524Y-74594917D01*
X146242603Y-74577721D01*
X146252183Y-74562677D01*
X146263777Y-74550271D01*
X146277447Y-74540279D01*
X146292808Y-74532973D01*
X146309901Y-74528365D01*
X146330127Y-74526619D01*
X146350879Y-74528171D01*
X146369228Y-74532784D01*
X146384022Y-74539724D01*
X146396658Y-74549178D01*
X146414882Y-74574575D01*
X146424588Y-74610302D01*
X146425822Y-74631644D01*
X146425822Y-74920387D01*
X146427349Y-74939791D01*
X146431787Y-74956714D01*
X146438568Y-74970558D01*
X146447634Y-74982040D01*
X146471626Y-74997660D01*
X146503707Y-75003519D01*
X146505152Y-75003528D01*
X146523438Y-75001974D01*
X146539871Y-74997350D01*
X146553318Y-74990307D01*
X146564709Y-74980679D01*
X146573513Y-74969046D01*
X146580039Y-74955115D01*
X146585508Y-74920387D01*
X146585508Y-74591734D01*
X146583966Y-74563410D01*
X146579430Y-74536816D01*
X146572147Y-74512402D01*
X146562202Y-74489925D01*
X146549888Y-74469746D01*
X146535220Y-74451702D01*
X146518447Y-74436019D01*
X146499594Y-74422678D01*
X146478770Y-74411797D01*
X146456101Y-74403498D01*
X146405305Y-74395104D01*
X146393582Y-74394826D01*
X146366878Y-74396366D01*
X146341440Y-74400896D01*
X146317433Y-74408292D01*
X146295094Y-74418412D01*
X146274730Y-74431042D01*
X146256409Y-74446095D01*
X146240501Y-74463221D01*
X146226968Y-74482452D01*
X146211474Y-74515140D01*
X146208152Y-74515140D01*
X146200574Y-74491898D01*
X146190435Y-74470947D01*
X146178235Y-74452877D01*
X146163803Y-74437113D01*
X146129059Y-74413017D01*
X146086142Y-74398675D01*
X146044656Y-74394826D01*
X146019903Y-74396362D01*
X145996438Y-74400865D01*
X145974252Y-74408241D01*
X145953685Y-74418302D01*
X145917746Y-74446116D01*
X145890144Y-74483158D01*
X145877301Y-74511867D01*
X145874028Y-74511867D01*
X145874028Y-74475230D01*
X145872503Y-74455892D01*
X145868079Y-74439116D01*
X145861337Y-74425476D01*
X145852345Y-74414236D01*
X145828574Y-74399110D01*
X145796945Y-74393751D01*
X145779133Y-74395309D01*
X145763134Y-74399959D01*
X145750142Y-74407018D01*
X145739171Y-74416689D01*
X145730753Y-74428396D01*
X145724593Y-74442459D01*
X145719813Y-74475230D01*
X145719813Y-74920387D01*
X145721341Y-74939791D01*
X145725787Y-74956714D01*
X145732573Y-74970533D01*
X145741652Y-74982000D01*
X145765702Y-74997609D01*
X145797982Y-75003515D01*
X145799681Y-75003528D01*
G37*
G36*
X147002628Y-74396109D02*
G01*
X147063007Y-74409753D01*
X147115284Y-74433669D01*
X147159503Y-74467247D01*
X147178589Y-74487641D01*
X147195480Y-74510318D01*
X147210274Y-74535567D01*
X147222640Y-74563034D01*
X147232658Y-74593262D01*
X147239966Y-74625661D01*
X147244540Y-74660953D01*
X147246087Y-74698371D01*
X147243164Y-74750345D01*
X147229692Y-74815394D01*
X147206407Y-74870621D01*
X147174111Y-74916532D01*
X147154642Y-74936133D01*
X147133089Y-74953377D01*
X147109147Y-74968424D01*
X147083211Y-74980937D01*
X147054645Y-74991073D01*
X147024154Y-74998433D01*
X146990847Y-75003050D01*
X146955682Y-75004602D01*
X146907967Y-75001681D01*
X146847466Y-74988095D01*
X146795370Y-74964361D01*
X146751439Y-74931036D01*
X146732481Y-74910747D01*
X146715714Y-74888163D01*
X146700995Y-74862913D01*
X146688697Y-74835404D01*
X146678699Y-74804962D01*
X146671407Y-74772273D01*
X146666825Y-74736441D01*
X146665299Y-74698908D01*
X146827161Y-74698908D01*
X146828998Y-74736390D01*
X146840048Y-74790471D01*
X146859081Y-74830763D01*
X146884662Y-74859050D01*
X146899870Y-74869131D01*
X146916602Y-74876457D01*
X146935414Y-74881075D01*
X146955682Y-74882628D01*
X146972244Y-74881589D01*
X147007519Y-74871039D01*
X147023239Y-74861409D01*
X147037339Y-74848983D01*
X147050297Y-74833005D01*
X147061281Y-74814082D01*
X147070662Y-74790869D01*
X147077596Y-74764499D01*
X147082125Y-74733366D01*
X147083665Y-74698908D01*
X147081836Y-74661952D01*
X147070699Y-74607832D01*
X147051489Y-74567264D01*
X147025793Y-74538762D01*
X147010648Y-74528648D01*
X146994029Y-74521294D01*
X146975538Y-74516691D01*
X146955682Y-74515140D01*
X146938933Y-74516232D01*
X146903716Y-74527019D01*
X146887912Y-74536841D01*
X146873711Y-74549484D01*
X146860662Y-74565673D01*
X146849589Y-74584792D01*
X146840175Y-74608038D01*
X146833215Y-74634353D01*
X146828700Y-74665061D01*
X146827161Y-74698908D01*
X146665299Y-74698908D01*
X146665277Y-74698371D01*
X146668180Y-74647668D01*
X146681753Y-74583147D01*
X146705324Y-74527911D01*
X146738046Y-74481747D01*
X146757728Y-74462011D01*
X146779492Y-74444627D01*
X146803551Y-74429495D01*
X146829569Y-74416901D01*
X146858016Y-74406746D01*
X146888316Y-74399367D01*
X146921127Y-74394764D01*
X146955682Y-74393214D01*
X147002628Y-74396109D01*
G37*
G36*
X147407385Y-75003528D02*
G01*
X147425630Y-75001970D01*
X147442043Y-74997321D01*
X147455404Y-74990262D01*
X147466724Y-74980592D01*
X147475436Y-74968926D01*
X147481882Y-74954920D01*
X147487203Y-74920387D01*
X147487203Y-74655677D01*
X147488743Y-74632088D01*
X147493268Y-74610333D01*
X147500406Y-74591119D01*
X147510109Y-74574043D01*
X147521837Y-74559721D01*
X147535733Y-74547771D01*
X147551307Y-74538552D01*
X147568730Y-74531942D01*
X147604244Y-74527157D01*
X147626416Y-74528705D01*
X147646046Y-74533295D01*
X147662036Y-74540227D01*
X147675815Y-74549652D01*
X147696331Y-74574977D01*
X147708664Y-74610467D01*
X147711956Y-74647471D01*
X147711956Y-74920387D01*
X147713481Y-74939796D01*
X147717910Y-74956684D01*
X147724677Y-74970484D01*
X147733711Y-74981917D01*
X147757672Y-74997534D01*
X147789815Y-75003510D01*
X147791823Y-75003528D01*
X147809905Y-75001970D01*
X147826249Y-74997321D01*
X147839654Y-74990232D01*
X147851043Y-74980514D01*
X147859815Y-74968803D01*
X147866313Y-74954742D01*
X147871642Y-74920387D01*
X147871642Y-74614156D01*
X147870088Y-74580624D01*
X147865468Y-74549544D01*
X147858286Y-74522362D01*
X147848437Y-74497565D01*
X147836575Y-74476170D01*
X147822367Y-74457102D01*
X147806355Y-74440873D01*
X147788209Y-74426977D01*
X147745903Y-74406526D01*
X147694601Y-74396012D01*
X147668236Y-74394826D01*
X147638523Y-74396378D01*
X147611218Y-74400994D01*
X147587485Y-74408158D01*
X147565875Y-74417975D01*
X147546817Y-74430056D01*
X147529735Y-74444561D01*
X147501153Y-74481060D01*
X147487741Y-74507471D01*
X147484468Y-74507471D01*
X147484468Y-74474693D01*
X147482937Y-74456336D01*
X147478473Y-74440058D01*
X147471562Y-74426447D01*
X147462273Y-74415027D01*
X147437575Y-74399381D01*
X147404649Y-74393751D01*
X147386804Y-74395289D01*
X147371049Y-74399800D01*
X147358107Y-74406719D01*
X147347291Y-74416064D01*
X147332599Y-74441162D01*
X147327517Y-74474156D01*
X147327517Y-74920387D01*
X147329041Y-74939649D01*
X147333454Y-74956431D01*
X147340227Y-74970242D01*
X147349255Y-74981697D01*
X147373229Y-74997441D01*
X147405218Y-75003507D01*
X147407385Y-75003528D01*
G37*
G36*
X148280735Y-74395838D02*
G01*
X148341682Y-74408797D01*
X148391620Y-74430955D01*
X148430612Y-74460765D01*
X148458898Y-74497236D01*
X148469040Y-74517846D01*
X148476430Y-74539978D01*
X148480996Y-74563798D01*
X148482542Y-74588999D01*
X148482542Y-74923123D01*
X148477890Y-74954928D01*
X148471737Y-74968920D01*
X148463299Y-74980569D01*
X148452220Y-74990249D01*
X148439095Y-74997310D01*
X148422910Y-75001969D01*
X148404921Y-75003528D01*
X148379721Y-75000398D01*
X148354144Y-74987725D01*
X148344311Y-74977837D01*
X148336632Y-74965584D01*
X148331103Y-74950269D01*
X148328327Y-74932404D01*
X148328327Y-74902314D01*
X148325054Y-74902314D01*
X148319288Y-74912353D01*
X148305302Y-74931492D01*
X148288740Y-74948522D01*
X148268891Y-74964078D01*
X148246979Y-74977080D01*
X148222915Y-74987599D01*
X148197563Y-74995225D01*
X148145682Y-75001330D01*
X148138379Y-75001226D01*
X148110915Y-74998905D01*
X148084878Y-74993642D01*
X148038439Y-74975139D01*
X148000713Y-74947439D01*
X147972779Y-74912182D01*
X147955389Y-74870620D01*
X147950895Y-74847766D01*
X147949360Y-74823570D01*
X147949362Y-74822616D01*
X147950374Y-74814826D01*
X148108508Y-74814826D01*
X148113339Y-74840694D01*
X148120188Y-74853196D01*
X148129750Y-74863866D01*
X148142685Y-74873079D01*
X148158209Y-74879927D01*
X148177055Y-74884415D01*
X148198194Y-74885949D01*
X148236859Y-74881105D01*
X148274327Y-74865258D01*
X148302367Y-74841099D01*
X148319649Y-74811214D01*
X148325591Y-74777115D01*
X148325591Y-74734470D01*
X148202004Y-74742090D01*
X148160778Y-74749956D01*
X148131843Y-74765365D01*
X148114636Y-74786749D01*
X148110056Y-74800062D01*
X148108508Y-74814826D01*
X147950374Y-74814826D01*
X147955306Y-74776876D01*
X147962428Y-74756595D01*
X147972255Y-74737936D01*
X147985129Y-74720467D01*
X148000764Y-74704760D01*
X148020275Y-74690073D01*
X148042765Y-74677415D01*
X148070198Y-74666103D01*
X148100932Y-74657203D01*
X148137605Y-74650361D01*
X148177922Y-74646396D01*
X148325591Y-74637652D01*
X148325591Y-74598817D01*
X148325284Y-74590490D01*
X148317176Y-74558942D01*
X148309107Y-74545842D01*
X148298565Y-74534787D01*
X148284908Y-74525418D01*
X148268824Y-74518508D01*
X148249176Y-74513949D01*
X148227161Y-74512404D01*
X148187532Y-74517161D01*
X148170144Y-74523648D01*
X148153835Y-74533280D01*
X148133740Y-74550614D01*
X148113393Y-74574198D01*
X148108103Y-74579769D01*
X148082213Y-74597503D01*
X148066867Y-74602189D01*
X148049988Y-74603751D01*
X148031343Y-74601670D01*
X148005693Y-74589717D01*
X147989167Y-74569355D01*
X147984780Y-74556647D01*
X147983261Y-74542495D01*
X147983274Y-74540944D01*
X147985485Y-74523492D01*
X147991467Y-74506396D01*
X148010793Y-74473366D01*
X148026412Y-74456808D01*
X148045132Y-74441966D01*
X148068366Y-74428078D01*
X148094660Y-74416360D01*
X148125253Y-74406514D01*
X148158640Y-74399293D01*
X148195319Y-74394755D01*
X148234293Y-74393214D01*
X148280735Y-74395838D01*
G37*
G36*
X148824042Y-75004602D02*
G01*
X148861555Y-75003059D01*
X148896796Y-74998508D01*
X148928864Y-74991267D01*
X148958410Y-74981377D01*
X148984385Y-74969417D01*
X149007689Y-74955189D01*
X149027393Y-74939500D01*
X149044356Y-74921903D01*
X149057967Y-74903246D01*
X149068788Y-74882982D01*
X149076540Y-74861733D01*
X149081404Y-74839102D01*
X149083281Y-74812628D01*
X149081696Y-74787441D01*
X149076850Y-74764649D01*
X149069637Y-74746171D01*
X149059609Y-74729407D01*
X149031693Y-74701360D01*
X148989781Y-74677726D01*
X148927133Y-74657468D01*
X148907182Y-74652942D01*
X148810413Y-74632181D01*
X148781249Y-74624301D01*
X148759034Y-74614715D01*
X148745741Y-74605577D01*
X148736465Y-74595179D01*
X148729047Y-74573082D01*
X148728885Y-74568727D01*
X148730414Y-74555957D01*
X148734860Y-74544314D01*
X148752185Y-74524563D01*
X148781353Y-74510547D01*
X148820769Y-74505321D01*
X148843159Y-74506834D01*
X148862949Y-74511172D01*
X148896386Y-74527304D01*
X148926395Y-74554447D01*
X148937810Y-74568189D01*
X148958701Y-74584344D01*
X148987619Y-74592419D01*
X148995794Y-74592809D01*
X149013094Y-74591290D01*
X149027517Y-74586912D01*
X149038469Y-74580418D01*
X149046888Y-74571850D01*
X149056152Y-74549404D01*
X149057050Y-74538099D01*
X149053191Y-74514602D01*
X149037262Y-74481604D01*
X149008149Y-74450339D01*
X148965315Y-74423174D01*
X148938857Y-74412080D01*
X148909714Y-74403308D01*
X148877945Y-74397092D01*
X148843909Y-74393742D01*
X148823505Y-74393214D01*
X148785970Y-74394757D01*
X148750981Y-74399308D01*
X148719601Y-74406490D01*
X148690902Y-74416284D01*
X148665967Y-74428066D01*
X148643765Y-74442067D01*
X148625151Y-74457496D01*
X148609277Y-74474793D01*
X148596635Y-74493222D01*
X148586759Y-74513244D01*
X148579835Y-74534435D01*
X148575784Y-74557021D01*
X148574670Y-74577471D01*
X148576232Y-74601438D01*
X148580915Y-74623841D01*
X148588287Y-74643731D01*
X148598488Y-74662148D01*
X148627054Y-74694203D01*
X148668035Y-74720875D01*
X148724157Y-74741879D01*
X148747496Y-74747561D01*
X148845926Y-74768371D01*
X148876877Y-74776793D01*
X148899218Y-74786884D01*
X148910585Y-74795598D01*
X148918204Y-74805697D01*
X148923586Y-74828405D01*
X148923595Y-74829578D01*
X148922061Y-74842638D01*
X148917571Y-74854385D01*
X148900375Y-74873606D01*
X148871119Y-74887124D01*
X148827901Y-74892495D01*
X148799398Y-74890914D01*
X148774477Y-74886101D01*
X148755045Y-74879097D01*
X148737586Y-74869428D01*
X148707236Y-74841997D01*
X148699918Y-74832900D01*
X148683823Y-74817184D01*
X148667395Y-74806029D01*
X148652713Y-74799962D01*
X148637322Y-74797082D01*
X148630455Y-74796801D01*
X148614909Y-74798325D01*
X148600933Y-74802743D01*
X148588979Y-74809725D01*
X148579190Y-74819083D01*
X148572018Y-74830296D01*
X148567500Y-74843351D01*
X148565926Y-74858057D01*
X148571935Y-74887561D01*
X148592747Y-74922408D01*
X148625849Y-74953034D01*
X148672125Y-74978237D01*
X148732254Y-74996095D01*
X148806224Y-75004315D01*
X148824042Y-75004602D01*
G37*
G36*
X144579394Y-76336000D02*
G01*
X145039841Y-76336000D01*
X145058057Y-76334462D01*
X145074211Y-76329949D01*
X145087378Y-76323064D01*
X145098229Y-76313774D01*
X145106238Y-76302746D01*
X145111719Y-76289745D01*
X145114775Y-76267660D01*
X145113244Y-76251590D01*
X145108779Y-76237436D01*
X145101841Y-76225670D01*
X145092508Y-76215928D01*
X145067047Y-76202873D01*
X145039841Y-76199321D01*
X144694775Y-76199321D01*
X144694775Y-76194925D01*
X145068857Y-75687974D01*
X145086968Y-75658659D01*
X145092158Y-75643152D01*
X145094014Y-75625644D01*
X145092479Y-75608317D01*
X145087989Y-75592813D01*
X145080975Y-75579671D01*
X145071498Y-75568536D01*
X145045876Y-75552891D01*
X145011268Y-75546909D01*
X145009750Y-75546900D01*
X144570064Y-75546900D01*
X144551881Y-75548438D01*
X144535809Y-75552950D01*
X144522774Y-75559818D01*
X144512055Y-75569084D01*
X144504138Y-75580112D01*
X144498729Y-75593118D01*
X144495717Y-75615239D01*
X144497244Y-75631173D01*
X144501679Y-75645227D01*
X144508617Y-75657033D01*
X144517924Y-75666816D01*
X144543297Y-75680003D01*
X144570064Y-75683578D01*
X144896568Y-75683578D01*
X144896568Y-75687437D01*
X144519750Y-76196000D01*
X144506314Y-76217080D01*
X144498497Y-76237046D01*
X144495717Y-76259991D01*
X144497248Y-76276451D01*
X144501713Y-76291253D01*
X144508777Y-76304029D01*
X144518308Y-76314886D01*
X144544291Y-76330305D01*
X144579394Y-76336000D01*
G37*
G36*
X145513952Y-75739838D02*
G01*
X145574898Y-75752797D01*
X145624836Y-75774955D01*
X145663829Y-75804765D01*
X145692114Y-75841236D01*
X145702257Y-75861846D01*
X145709647Y-75883978D01*
X145714213Y-75907798D01*
X145715759Y-75932999D01*
X145715759Y-76267123D01*
X145711106Y-76298928D01*
X145704954Y-76312920D01*
X145696516Y-76324569D01*
X145685437Y-76334249D01*
X145672311Y-76341310D01*
X145656126Y-76345969D01*
X145638138Y-76347528D01*
X145612938Y-76344398D01*
X145587361Y-76331725D01*
X145577528Y-76321837D01*
X145569849Y-76309584D01*
X145564320Y-76294269D01*
X145561544Y-76276404D01*
X145561544Y-76246314D01*
X145558271Y-76246314D01*
X145552505Y-76256353D01*
X145538518Y-76275492D01*
X145521957Y-76292522D01*
X145502107Y-76308078D01*
X145480196Y-76321080D01*
X145456132Y-76331599D01*
X145430780Y-76339225D01*
X145378899Y-76345330D01*
X145371596Y-76345226D01*
X145344132Y-76342905D01*
X145318094Y-76337642D01*
X145271655Y-76319139D01*
X145233930Y-76291439D01*
X145205995Y-76256182D01*
X145188606Y-76214620D01*
X145184112Y-76191766D01*
X145182576Y-76167570D01*
X145182579Y-76166616D01*
X145183591Y-76158826D01*
X145341725Y-76158826D01*
X145346555Y-76184694D01*
X145353405Y-76197196D01*
X145362967Y-76207866D01*
X145375902Y-76217079D01*
X145391425Y-76223927D01*
X145410272Y-76228415D01*
X145431411Y-76229949D01*
X145470076Y-76225105D01*
X145507544Y-76209258D01*
X145535583Y-76185099D01*
X145552865Y-76155214D01*
X145558808Y-76121115D01*
X145558808Y-76078470D01*
X145435221Y-76086090D01*
X145393995Y-76093956D01*
X145365060Y-76109365D01*
X145347853Y-76130749D01*
X145343273Y-76144062D01*
X145341725Y-76158826D01*
X145183591Y-76158826D01*
X145188523Y-76120876D01*
X145195645Y-76100595D01*
X145205472Y-76081936D01*
X145218346Y-76064467D01*
X145233981Y-76048760D01*
X145253491Y-76034073D01*
X145275982Y-76021415D01*
X145303415Y-76010103D01*
X145334149Y-76001203D01*
X145370822Y-75994361D01*
X145411139Y-75990396D01*
X145558808Y-75981652D01*
X145558808Y-75942817D01*
X145558501Y-75934490D01*
X145550393Y-75902942D01*
X145542324Y-75889842D01*
X145531782Y-75878787D01*
X145518125Y-75869418D01*
X145502041Y-75862508D01*
X145482392Y-75857949D01*
X145460378Y-75856404D01*
X145420749Y-75861161D01*
X145403361Y-75867648D01*
X145387052Y-75877280D01*
X145366957Y-75894614D01*
X145346610Y-75918198D01*
X145341319Y-75923769D01*
X145315430Y-75941503D01*
X145300084Y-75946189D01*
X145283204Y-75947751D01*
X145264559Y-75945670D01*
X145238909Y-75933717D01*
X145222384Y-75913355D01*
X145217997Y-75900647D01*
X145216477Y-75886495D01*
X145216491Y-75884944D01*
X145218701Y-75867492D01*
X145224684Y-75850396D01*
X145244009Y-75817366D01*
X145259629Y-75800808D01*
X145278349Y-75785966D01*
X145301583Y-75772078D01*
X145327876Y-75760360D01*
X145358470Y-75750514D01*
X145391857Y-75743293D01*
X145428536Y-75738755D01*
X145467510Y-75737214D01*
X145513952Y-75739838D01*
G37*
G36*
X145901969Y-76347528D02*
G01*
X145920229Y-76345970D01*
X145936649Y-76341321D01*
X145950006Y-76334264D01*
X145961320Y-76324599D01*
X145970026Y-76312937D01*
X145976467Y-76298936D01*
X145981788Y-76264387D01*
X145981788Y-75618512D01*
X145980262Y-75599066D01*
X145975832Y-75582107D01*
X145969053Y-75568201D01*
X145960000Y-75556661D01*
X145936025Y-75540887D01*
X145904014Y-75534853D01*
X145901969Y-75534834D01*
X145884031Y-75536389D01*
X145867800Y-75541022D01*
X145854393Y-75548117D01*
X145842986Y-75557835D01*
X145834146Y-75569580D01*
X145827577Y-75583664D01*
X145822102Y-75618512D01*
X145822102Y-76264387D01*
X145823626Y-76283649D01*
X145828039Y-76300431D01*
X145834811Y-76314242D01*
X145843839Y-76325697D01*
X145867814Y-76341441D01*
X145899802Y-76347507D01*
X145901969Y-76347528D01*
G37*
G36*
X146397915Y-75739838D02*
G01*
X146458862Y-75752797D01*
X146508800Y-75774955D01*
X146547793Y-75804765D01*
X146576078Y-75841236D01*
X146586221Y-75861846D01*
X146593611Y-75883978D01*
X146598177Y-75907798D01*
X146599722Y-75932999D01*
X146599722Y-76267123D01*
X146595070Y-76298928D01*
X146588918Y-76312920D01*
X146580480Y-76324569D01*
X146569401Y-76334249D01*
X146556275Y-76341310D01*
X146540090Y-76345969D01*
X146522102Y-76347528D01*
X146496901Y-76344398D01*
X146471325Y-76331725D01*
X146461491Y-76321837D01*
X146453812Y-76309584D01*
X146448283Y-76294269D01*
X146445507Y-76276404D01*
X146445507Y-76246314D01*
X146442234Y-76246314D01*
X146436469Y-76256353D01*
X146422482Y-76275492D01*
X146405921Y-76292522D01*
X146386071Y-76308078D01*
X146364160Y-76321080D01*
X146340095Y-76331599D01*
X146314743Y-76339225D01*
X146262863Y-76345330D01*
X146255560Y-76345226D01*
X146228095Y-76342905D01*
X146202058Y-76337642D01*
X146155619Y-76319139D01*
X146117893Y-76291439D01*
X146089959Y-76256182D01*
X146072569Y-76214620D01*
X146068075Y-76191766D01*
X146066540Y-76167570D01*
X146066542Y-76166616D01*
X146067554Y-76158826D01*
X146225689Y-76158826D01*
X146230519Y-76184694D01*
X146237368Y-76197196D01*
X146246931Y-76207866D01*
X146259865Y-76217079D01*
X146275389Y-76223927D01*
X146294236Y-76228415D01*
X146315375Y-76229949D01*
X146354040Y-76225105D01*
X146391508Y-76209258D01*
X146419547Y-76185099D01*
X146436829Y-76155214D01*
X146442772Y-76121115D01*
X146442772Y-76078470D01*
X146319185Y-76086090D01*
X146277959Y-76093956D01*
X146249024Y-76109365D01*
X146231816Y-76130749D01*
X146227236Y-76144062D01*
X146225689Y-76158826D01*
X146067554Y-76158826D01*
X146072487Y-76120876D01*
X146079608Y-76100595D01*
X146089435Y-76081936D01*
X146102310Y-76064467D01*
X146117944Y-76048760D01*
X146137455Y-76034073D01*
X146159946Y-76021415D01*
X146187379Y-76010103D01*
X146218113Y-76001203D01*
X146254786Y-75994361D01*
X146295103Y-75990396D01*
X146442772Y-75981652D01*
X146442772Y-75942817D01*
X146442465Y-75934490D01*
X146434356Y-75902942D01*
X146426287Y-75889842D01*
X146415745Y-75878787D01*
X146402089Y-75869418D01*
X146386005Y-75862508D01*
X146366356Y-75857949D01*
X146344342Y-75856404D01*
X146304713Y-75861161D01*
X146287325Y-75867648D01*
X146271015Y-75877280D01*
X146250921Y-75894614D01*
X146230574Y-75918198D01*
X146225283Y-75923769D01*
X146199393Y-75941503D01*
X146184048Y-75946189D01*
X146167168Y-75947751D01*
X146148523Y-75945670D01*
X146122873Y-75933717D01*
X146106347Y-75913355D01*
X146101961Y-75900647D01*
X146100441Y-75886495D01*
X146100455Y-75884944D01*
X146102665Y-75867492D01*
X146108648Y-75850396D01*
X146127973Y-75817366D01*
X146143593Y-75800808D01*
X146162313Y-75785966D01*
X146185547Y-75772078D01*
X146211840Y-75760360D01*
X146242433Y-75750514D01*
X146275821Y-75743293D01*
X146312499Y-75738755D01*
X146351474Y-75737214D01*
X146397915Y-75739838D01*
G37*
G36*
X146744900Y-76186181D02*
G01*
X146746462Y-76215138D01*
X146751140Y-76241176D01*
X146758144Y-76262433D01*
X146767742Y-76281220D01*
X146779180Y-76296682D01*
X146792918Y-76309922D01*
X146826943Y-76329567D01*
X146871904Y-76340607D01*
X146905710Y-76342594D01*
X146911181Y-76342594D01*
X146939399Y-76341034D01*
X146964377Y-76336370D01*
X146983523Y-76329615D01*
X146999392Y-76320428D01*
X147010323Y-76310410D01*
X147018272Y-76298553D01*
X147022763Y-76286012D01*
X147024361Y-76271927D01*
X147024363Y-76271471D01*
X147022812Y-76255534D01*
X147018212Y-76242440D01*
X147011524Y-76232917D01*
X147002481Y-76225391D01*
X146975884Y-76215401D01*
X146963644Y-76213536D01*
X146953288Y-76212413D01*
X146936704Y-76209479D01*
X146923798Y-76203397D01*
X146915943Y-76196002D01*
X146910228Y-76186195D01*
X146904716Y-76157253D01*
X146904586Y-76150619D01*
X146904586Y-75870082D01*
X146960909Y-75870082D01*
X146976798Y-75868553D01*
X146990607Y-75864103D01*
X147001706Y-75857298D01*
X147010570Y-75848185D01*
X147020901Y-75824050D01*
X147022165Y-75809949D01*
X147020632Y-75794487D01*
X147016156Y-75780975D01*
X147009289Y-75770064D01*
X147000056Y-75761307D01*
X146975415Y-75751032D01*
X146960909Y-75749768D01*
X146904586Y-75749768D01*
X146904586Y-75684702D01*
X146903047Y-75665448D01*
X146898522Y-75648403D01*
X146891627Y-75634471D01*
X146882309Y-75622803D01*
X146871080Y-75613787D01*
X146857796Y-75607156D01*
X146824768Y-75601561D01*
X146806629Y-75603099D01*
X146790560Y-75607610D01*
X146777277Y-75614547D01*
X146766112Y-75623919D01*
X146750724Y-75649075D01*
X146744907Y-75683371D01*
X146744900Y-75684702D01*
X146744900Y-75749768D01*
X146714272Y-75749768D01*
X146698192Y-75751301D01*
X146684183Y-75755783D01*
X146672994Y-75762603D01*
X146664047Y-75771766D01*
X146653721Y-75795936D01*
X146652479Y-75809949D01*
X146654009Y-75825403D01*
X146658465Y-75838844D01*
X146665306Y-75849692D01*
X146674481Y-75858388D01*
X146699101Y-75868726D01*
X146714272Y-75870082D01*
X146744900Y-75870082D01*
X146744900Y-76186181D01*
G37*
G36*
X147407484Y-75740109D02*
G01*
X147467863Y-75753753D01*
X147520141Y-75777669D01*
X147564360Y-75811247D01*
X147583445Y-75831641D01*
X147600337Y-75854318D01*
X147615131Y-75879567D01*
X147627496Y-75907034D01*
X147637514Y-75937262D01*
X147644823Y-75969661D01*
X147649397Y-76004953D01*
X147650943Y-76042371D01*
X147648020Y-76094345D01*
X147634549Y-76159394D01*
X147611264Y-76214621D01*
X147578968Y-76260532D01*
X147559499Y-76280133D01*
X147537946Y-76297377D01*
X147514003Y-76312424D01*
X147488067Y-76324937D01*
X147459502Y-76335073D01*
X147429011Y-76342433D01*
X147395704Y-76347050D01*
X147360539Y-76348602D01*
X147312824Y-76345681D01*
X147252323Y-76332095D01*
X147200226Y-76308361D01*
X147156296Y-76275036D01*
X147137338Y-76254747D01*
X147120570Y-76232163D01*
X147105852Y-76206913D01*
X147093554Y-76179404D01*
X147083556Y-76148962D01*
X147076264Y-76116273D01*
X147071682Y-76080441D01*
X147070156Y-76042908D01*
X147232018Y-76042908D01*
X147233855Y-76080390D01*
X147244905Y-76134471D01*
X147263938Y-76174763D01*
X147289519Y-76203050D01*
X147304727Y-76213131D01*
X147321459Y-76220457D01*
X147340271Y-76225075D01*
X147360539Y-76226628D01*
X147377101Y-76225589D01*
X147412376Y-76215039D01*
X147428096Y-76205409D01*
X147442196Y-76192983D01*
X147455154Y-76177005D01*
X147466137Y-76158082D01*
X147475519Y-76134869D01*
X147482452Y-76108499D01*
X147486982Y-76077366D01*
X147488522Y-76042908D01*
X147486693Y-76005952D01*
X147475556Y-75951832D01*
X147456346Y-75911264D01*
X147430650Y-75882762D01*
X147415504Y-75872648D01*
X147398886Y-75865294D01*
X147380395Y-75860691D01*
X147360539Y-75859140D01*
X147343789Y-75860232D01*
X147308572Y-75871019D01*
X147292769Y-75880841D01*
X147278568Y-75893484D01*
X147265519Y-75909673D01*
X147254445Y-75928792D01*
X147245032Y-75952038D01*
X147238071Y-75978353D01*
X147233556Y-76009061D01*
X147232018Y-76042908D01*
X147070156Y-76042908D01*
X147070134Y-76042371D01*
X147073037Y-75991668D01*
X147086609Y-75927147D01*
X147110181Y-75871911D01*
X147142903Y-75825747D01*
X147162585Y-75806011D01*
X147184349Y-75788627D01*
X147208408Y-75773495D01*
X147234426Y-75760901D01*
X147262873Y-75750746D01*
X147293173Y-75743367D01*
X147325984Y-75738764D01*
X147360539Y-75737214D01*
X147407484Y-75740109D01*
G37*
G36*
X147812241Y-76347528D02*
G01*
X147830509Y-76345981D01*
X147846772Y-76341405D01*
X147860072Y-76334425D01*
X147871279Y-76324932D01*
X147886496Y-76299574D01*
X147892060Y-76264387D01*
X147892060Y-76004073D01*
X147893685Y-75976161D01*
X147898806Y-75951908D01*
X147905705Y-75935205D01*
X147915292Y-75921098D01*
X147926246Y-75910805D01*
X147939619Y-75902725D01*
X147973945Y-75893520D01*
X147990490Y-75892503D01*
X148014613Y-75890538D01*
X148035005Y-75885593D01*
X148059953Y-75871743D01*
X148069424Y-75861571D01*
X148076386Y-75849440D01*
X148082819Y-75819026D01*
X148082911Y-75814297D01*
X148081346Y-75794411D01*
X148076645Y-75777671D01*
X148069976Y-75765641D01*
X148060907Y-75756004D01*
X148059953Y-75755239D01*
X148036970Y-75743675D01*
X148010176Y-75740487D01*
X147991297Y-75742032D01*
X147973350Y-75746595D01*
X147940899Y-75764392D01*
X147914006Y-75793500D01*
X147894374Y-75833741D01*
X147888250Y-75856404D01*
X147884977Y-75856404D01*
X147884977Y-75818156D01*
X147883450Y-75799349D01*
X147879016Y-75782834D01*
X147872194Y-75769186D01*
X147863070Y-75757865D01*
X147839038Y-75742711D01*
X147809506Y-75737751D01*
X147792003Y-75739295D01*
X147776299Y-75743851D01*
X147763232Y-75750882D01*
X147752202Y-75760440D01*
X147743601Y-75772095D01*
X147737309Y-75785967D01*
X147732374Y-75818156D01*
X147732374Y-76264387D01*
X147733905Y-76283643D01*
X147738370Y-76300545D01*
X147745200Y-76314414D01*
X147754366Y-76325972D01*
X147778606Y-76341678D01*
X147811011Y-76347521D01*
X147812241Y-76347528D01*
G37*
G36*
X148222179Y-75677032D02*
G01*
X148254384Y-75671151D01*
X148281482Y-75654291D01*
X148292086Y-75642311D01*
X148300154Y-75628454D01*
X148305315Y-75613312D01*
X148307432Y-75596973D01*
X148307468Y-75594478D01*
X148301564Y-75563535D01*
X148284565Y-75537433D01*
X148272352Y-75527116D01*
X148258151Y-75519224D01*
X148242385Y-75514084D01*
X148225259Y-75511925D01*
X148222179Y-75511875D01*
X148189726Y-75517771D01*
X148162617Y-75534627D01*
X148152083Y-75546571D01*
X148144075Y-75560420D01*
X148138965Y-75575584D01*
X148136875Y-75592011D01*
X148136840Y-75594478D01*
X148142745Y-75625172D01*
X148159830Y-75651356D01*
X148172106Y-75661739D01*
X148186381Y-75669689D01*
X148202149Y-75674838D01*
X148219272Y-75676988D01*
X148222179Y-75677032D01*
G37*
G36*
X148222179Y-76347528D02*
G01*
X148240289Y-76345987D01*
X148256385Y-76341456D01*
X148269683Y-76334495D01*
X148280881Y-76325068D01*
X148296256Y-76299804D01*
X148301994Y-76265359D01*
X148301997Y-76264387D01*
X148301997Y-75821429D01*
X148300461Y-75802151D01*
X148295959Y-75785095D01*
X148289074Y-75771077D01*
X148279791Y-75759335D01*
X148255363Y-75743502D01*
X148222845Y-75737753D01*
X148222179Y-75737751D01*
X148204027Y-75739290D01*
X148187948Y-75743811D01*
X148174690Y-75750752D01*
X148163542Y-75760138D01*
X148148175Y-75785352D01*
X148142320Y-75819862D01*
X148142311Y-75821429D01*
X148142311Y-76264387D01*
X148143851Y-76283787D01*
X148148374Y-76300890D01*
X148155244Y-76314784D01*
X148164520Y-76326389D01*
X148188941Y-76341931D01*
X148222179Y-76347528D01*
G37*
G36*
X148615996Y-76346942D02*
G01*
X148644260Y-76345394D01*
X148670291Y-76340813D01*
X148693228Y-76333635D01*
X148714124Y-76323821D01*
X148749389Y-76297076D01*
X148777274Y-76260330D01*
X148791558Y-76230487D01*
X148794830Y-76230487D01*
X148794830Y-76266586D01*
X148796358Y-76285896D01*
X148800800Y-76302648D01*
X148807549Y-76316196D01*
X148816568Y-76327358D01*
X148840420Y-76342304D01*
X148871962Y-76347528D01*
X148889921Y-76345972D01*
X148905975Y-76341331D01*
X148918944Y-76334306D01*
X148929857Y-76324696D01*
X148938222Y-76313055D01*
X148944324Y-76299088D01*
X148949045Y-76266586D01*
X148949045Y-75821429D01*
X148947519Y-75801969D01*
X148943090Y-75785003D01*
X148936313Y-75771100D01*
X148927263Y-75759565D01*
X148903298Y-75743803D01*
X148871284Y-75737770D01*
X148869227Y-75737751D01*
X148851274Y-75739306D01*
X148835031Y-75743941D01*
X148821627Y-75751036D01*
X148810222Y-75760755D01*
X148801389Y-75772499D01*
X148794826Y-75786584D01*
X148789359Y-75821429D01*
X148789359Y-76085553D01*
X148787818Y-76109858D01*
X148783284Y-76132083D01*
X148776210Y-76151358D01*
X148766601Y-76168368D01*
X148755053Y-76182463D01*
X148741368Y-76194154D01*
X148725987Y-76203137D01*
X148708758Y-76209530D01*
X148673979Y-76214073D01*
X148651490Y-76212517D01*
X148631445Y-76207876D01*
X148615170Y-76200894D01*
X148601074Y-76191353D01*
X148580225Y-76165864D01*
X148567813Y-76130339D01*
X148564607Y-76094297D01*
X148564607Y-75821429D01*
X148563081Y-75801982D01*
X148558653Y-75785027D01*
X148551876Y-75771122D01*
X148542826Y-75759585D01*
X148518860Y-75743811D01*
X148486861Y-75737770D01*
X148484789Y-75737751D01*
X148466835Y-75739306D01*
X148450593Y-75743941D01*
X148437189Y-75751036D01*
X148425784Y-75760755D01*
X148416951Y-75772499D01*
X148410388Y-75786584D01*
X148404921Y-75821429D01*
X148404921Y-76127660D01*
X148406464Y-76158905D01*
X148411012Y-76188056D01*
X148418241Y-76214435D01*
X148428109Y-76238658D01*
X148440252Y-76260265D01*
X148454722Y-76279647D01*
X148471262Y-76296598D01*
X148489880Y-76311220D01*
X148533160Y-76333272D01*
X148584484Y-76345157D01*
X148615996Y-76346942D01*
G37*
G36*
X149291425Y-76348602D02*
G01*
X149328938Y-76347059D01*
X149364179Y-76342508D01*
X149396247Y-76335267D01*
X149425793Y-76325377D01*
X149451768Y-76313417D01*
X149475072Y-76299189D01*
X149494775Y-76283500D01*
X149511739Y-76265903D01*
X149525350Y-76247246D01*
X149536171Y-76226982D01*
X149543923Y-76205733D01*
X149548787Y-76183102D01*
X149550664Y-76156628D01*
X149549079Y-76131441D01*
X149544233Y-76108649D01*
X149537020Y-76090171D01*
X149526992Y-76073407D01*
X149499075Y-76045360D01*
X149457164Y-76021726D01*
X149394515Y-76001468D01*
X149374565Y-75996942D01*
X149277796Y-75976181D01*
X149248632Y-75968301D01*
X149226417Y-75958715D01*
X149213124Y-75949577D01*
X149203848Y-75939179D01*
X149196430Y-75917082D01*
X149196268Y-75912727D01*
X149197796Y-75899957D01*
X149202243Y-75888314D01*
X149219568Y-75868563D01*
X149248735Y-75854547D01*
X149288152Y-75849321D01*
X149310542Y-75850834D01*
X149330332Y-75855172D01*
X149363769Y-75871304D01*
X149393778Y-75898447D01*
X149405193Y-75912189D01*
X149426084Y-75928344D01*
X149455002Y-75936419D01*
X149463177Y-75936809D01*
X149480477Y-75935290D01*
X149494900Y-75930912D01*
X149505852Y-75924418D01*
X149514271Y-75915850D01*
X149523535Y-75893404D01*
X149524433Y-75882099D01*
X149520574Y-75858602D01*
X149504645Y-75825604D01*
X149475532Y-75794339D01*
X149432698Y-75767174D01*
X149406240Y-75756080D01*
X149377097Y-75747308D01*
X149345328Y-75741092D01*
X149311292Y-75737742D01*
X149290888Y-75737214D01*
X149253353Y-75738757D01*
X149218364Y-75743308D01*
X149186984Y-75750490D01*
X149158285Y-75760284D01*
X149133350Y-75772066D01*
X149111148Y-75786067D01*
X149092534Y-75801496D01*
X149076660Y-75818793D01*
X149064018Y-75837222D01*
X149054142Y-75857244D01*
X149047218Y-75878435D01*
X149043167Y-75901021D01*
X149042053Y-75921471D01*
X149043615Y-75945438D01*
X149048298Y-75967841D01*
X149055669Y-75987731D01*
X149065871Y-76006148D01*
X149094437Y-76038203D01*
X149135418Y-76064875D01*
X149191540Y-76085879D01*
X149214879Y-76091561D01*
X149313309Y-76112371D01*
X149344260Y-76120793D01*
X149366601Y-76130884D01*
X149377968Y-76139598D01*
X149385587Y-76149697D01*
X149390969Y-76172405D01*
X149390978Y-76173578D01*
X149389444Y-76186638D01*
X149384954Y-76198385D01*
X149367758Y-76217606D01*
X149338502Y-76231124D01*
X149295284Y-76236495D01*
X149266781Y-76234914D01*
X149241860Y-76230101D01*
X149222428Y-76223097D01*
X149204969Y-76213428D01*
X149174619Y-76185997D01*
X149167301Y-76176900D01*
X149151206Y-76161184D01*
X149134778Y-76150029D01*
X149120096Y-76143962D01*
X149104705Y-76141082D01*
X149097838Y-76140801D01*
X149082292Y-76142325D01*
X149068316Y-76146743D01*
X149056362Y-76153725D01*
X149046572Y-76163083D01*
X149039401Y-76174296D01*
X149034883Y-76187351D01*
X149033309Y-76202057D01*
X149039318Y-76231561D01*
X149060130Y-76266408D01*
X149093232Y-76297034D01*
X149139508Y-76322237D01*
X149199637Y-76340095D01*
X149273607Y-76348315D01*
X149291425Y-76348602D01*
G37*
G36*
X144447503Y-77690404D02*
G01*
X144466421Y-77688861D01*
X144483116Y-77684308D01*
X144496673Y-77677394D01*
X144508066Y-77668024D01*
X144523736Y-77642950D01*
X144530056Y-77608337D01*
X144530106Y-77604577D01*
X144530106Y-76966371D01*
X144528564Y-76946156D01*
X144524018Y-76928406D01*
X144517175Y-76914165D01*
X144507925Y-76902264D01*
X144483616Y-76886259D01*
X144450645Y-76879997D01*
X144447503Y-76879958D01*
X144428602Y-76881502D01*
X144411919Y-76886064D01*
X144398395Y-76892984D01*
X144387022Y-76902369D01*
X144371367Y-76927513D01*
X144365006Y-76962337D01*
X144364949Y-76966371D01*
X144364949Y-77604577D01*
X144366492Y-77624591D01*
X144371036Y-77642192D01*
X144377892Y-77656359D01*
X144387162Y-77668208D01*
X144411555Y-77684166D01*
X144444628Y-77690371D01*
X144447503Y-77690404D01*
G37*
G36*
X145012828Y-77693140D02*
G01*
X145051482Y-77691594D01*
X145088513Y-77687024D01*
X145123517Y-77679600D01*
X145156626Y-77669399D01*
X145187304Y-77656706D01*
X145215853Y-77641503D01*
X145241698Y-77624210D01*
X145265216Y-77604678D01*
X145285901Y-77583425D01*
X145304091Y-77560191D01*
X145328878Y-77516503D01*
X145337272Y-77492625D01*
X145341207Y-77469263D01*
X145341481Y-77461256D01*
X145339950Y-77444906D01*
X145335490Y-77430206D01*
X145328448Y-77417575D01*
X145318955Y-77406928D01*
X145293398Y-77392373D01*
X145264349Y-77387983D01*
X145246062Y-77389597D01*
X145230367Y-77394645D01*
X145208442Y-77412012D01*
X145191613Y-77439958D01*
X145178671Y-77465052D01*
X145163757Y-77487049D01*
X145147642Y-77505272D01*
X145129805Y-77520702D01*
X145089774Y-77543050D01*
X145042680Y-77554985D01*
X145010630Y-77556999D01*
X144984517Y-77555450D01*
X144959887Y-77550858D01*
X144937235Y-77543481D01*
X144916140Y-77533336D01*
X144878943Y-77505126D01*
X144848263Y-77466079D01*
X144824745Y-77415507D01*
X144809727Y-77352653D01*
X144804977Y-77284619D01*
X144806521Y-77245697D01*
X144811079Y-77209312D01*
X144818288Y-77176510D01*
X144828132Y-77146351D01*
X144840030Y-77119873D01*
X144854192Y-77096081D01*
X144869893Y-77075798D01*
X144887525Y-77058208D01*
X144906407Y-77043805D01*
X144926953Y-77032122D01*
X144948749Y-77023360D01*
X144972014Y-77017411D01*
X145010092Y-77013949D01*
X145036335Y-77015512D01*
X145061353Y-77020196D01*
X145084228Y-77027676D01*
X145105734Y-77038057D01*
X145125386Y-77051052D01*
X145143509Y-77066830D01*
X145174746Y-77106726D01*
X145189464Y-77134801D01*
X145200459Y-77154380D01*
X145213000Y-77169400D01*
X145224967Y-77178648D01*
X145238471Y-77184981D01*
X145268208Y-77189462D01*
X145285274Y-77187931D01*
X145300472Y-77183467D01*
X145313212Y-77176525D01*
X145323792Y-77167186D01*
X145331891Y-77155846D01*
X145337525Y-77142529D01*
X145340944Y-77118387D01*
X145334691Y-77080566D01*
X145324530Y-77056594D01*
X145309762Y-77029166D01*
X145292579Y-77003806D01*
X145251403Y-76959582D01*
X145201395Y-76924151D01*
X145142766Y-76898030D01*
X145075704Y-76882049D01*
X145008431Y-76877222D01*
X144969633Y-76878775D01*
X144932578Y-76883391D01*
X144898062Y-76890817D01*
X144865357Y-76901060D01*
X144835048Y-76913814D01*
X144806622Y-76929176D01*
X144780416Y-76946888D01*
X144756183Y-76967044D01*
X144713972Y-77014368D01*
X144680192Y-77071204D01*
X144655401Y-77137834D01*
X144640517Y-77214600D01*
X144636547Y-77285157D01*
X144638099Y-77330306D01*
X144642711Y-77373152D01*
X144650066Y-77412545D01*
X144660190Y-77449631D01*
X144672644Y-77483450D01*
X144687604Y-77514965D01*
X144704592Y-77543481D01*
X144723867Y-77569688D01*
X144745028Y-77593183D01*
X144768305Y-77614336D01*
X144820692Y-77649240D01*
X144881188Y-77674370D01*
X144950197Y-77689240D01*
X145012828Y-77693140D01*
G37*
G36*
X145540930Y-77680000D02*
G01*
X145903533Y-77680000D01*
X145921917Y-77678462D01*
X145938138Y-77673949D01*
X145951251Y-77667096D01*
X145962025Y-77657854D01*
X145969972Y-77646867D01*
X145975407Y-77633914D01*
X145978466Y-77611660D01*
X145976938Y-77595726D01*
X145972493Y-77581672D01*
X145965550Y-77569892D01*
X145956226Y-77560124D01*
X145930766Y-77546942D01*
X145903533Y-77543321D01*
X145623533Y-77543321D01*
X145623533Y-76966371D01*
X145621990Y-76946156D01*
X145617445Y-76928406D01*
X145610602Y-76914165D01*
X145601351Y-76902264D01*
X145577042Y-76886259D01*
X145544071Y-76879997D01*
X145540930Y-76879958D01*
X145522028Y-76881502D01*
X145505346Y-76886064D01*
X145491821Y-76892984D01*
X145480449Y-76902369D01*
X145464794Y-76927513D01*
X145458432Y-76962337D01*
X145458376Y-76966371D01*
X145458376Y-77593635D01*
X145459918Y-77613833D01*
X145464463Y-77631570D01*
X145471306Y-77645808D01*
X145480557Y-77657705D01*
X145504869Y-77673707D01*
X145537833Y-77679961D01*
X145540930Y-77680000D01*
G37*
G36*
X146414122Y-76891501D02*
G01*
X146483012Y-76900671D01*
X146540352Y-76919645D01*
X146587113Y-76947256D01*
X146624075Y-76983005D01*
X146639054Y-77004057D01*
X146651502Y-77027042D01*
X146661590Y-77052553D01*
X146668918Y-77079961D01*
X146673542Y-77110272D01*
X146675096Y-77142470D01*
X146675038Y-77148330D01*
X146667889Y-77206102D01*
X146649651Y-77257492D01*
X146621561Y-77301207D01*
X146584632Y-77336382D01*
X146563115Y-77350513D01*
X146539492Y-77362288D01*
X146653260Y-77559148D01*
X146662150Y-77576172D01*
X146668892Y-77596239D01*
X146670748Y-77616057D01*
X146665310Y-77644444D01*
X146658153Y-77657699D01*
X146648381Y-77669112D01*
X146636079Y-77678556D01*
X146621644Y-77685608D01*
X146605409Y-77690006D01*
X146587608Y-77691528D01*
X146565168Y-77689425D01*
X146551722Y-77684962D01*
X146539703Y-77677566D01*
X146521809Y-77658517D01*
X146503393Y-77629148D01*
X146372137Y-77391256D01*
X146231600Y-77391256D01*
X146231600Y-77605652D01*
X146231548Y-77609453D01*
X146225216Y-77644068D01*
X146209536Y-77669147D01*
X146198141Y-77678518D01*
X146184585Y-77685433D01*
X146167900Y-77689984D01*
X146148997Y-77691528D01*
X146145932Y-77691490D01*
X146113033Y-77685184D01*
X146088630Y-77669074D01*
X146079367Y-77657186D01*
X146072506Y-77642991D01*
X146067982Y-77625505D01*
X146066442Y-77605652D01*
X146066442Y-77271528D01*
X146231600Y-77271528D01*
X146373798Y-77271528D01*
X146376966Y-77271504D01*
X146421846Y-77265281D01*
X146456786Y-77249305D01*
X146470883Y-77237935D01*
X146482691Y-77224411D01*
X146492370Y-77208347D01*
X146499465Y-77190196D01*
X146504044Y-77169009D01*
X146505591Y-77145743D01*
X146505567Y-77142857D01*
X146499101Y-77101694D01*
X146482152Y-77068264D01*
X146469922Y-77054414D01*
X146455371Y-77042727D01*
X146438143Y-77033107D01*
X146418715Y-77026020D01*
X146396466Y-77021497D01*
X146372137Y-77019958D01*
X146231600Y-77019958D01*
X146231600Y-77271528D01*
X146066442Y-77271528D01*
X146066442Y-76976727D01*
X146066492Y-76972990D01*
X146072807Y-76938366D01*
X146088473Y-76913283D01*
X146099862Y-76903912D01*
X146113413Y-76896996D01*
X146130095Y-76892443D01*
X146148997Y-76890900D01*
X146389625Y-76890900D01*
X146414122Y-76891501D01*
G37*
G36*
X147071062Y-77680000D02*
G01*
X147508013Y-77680000D01*
X147524848Y-77678476D01*
X147539561Y-77674066D01*
X147551673Y-77667256D01*
X147561523Y-77658172D01*
X147573887Y-77634178D01*
X147576352Y-77614396D01*
X147574814Y-77598244D01*
X147570301Y-77584021D01*
X147563378Y-77572452D01*
X147554026Y-77562984D01*
X147528941Y-77551126D01*
X147508013Y-77548792D01*
X147210525Y-77548792D01*
X147210525Y-77545471D01*
X147381153Y-77381437D01*
X147452952Y-77310796D01*
X147504342Y-77251353D01*
X147523804Y-77222762D01*
X147538524Y-77194849D01*
X147547712Y-77170444D01*
X147553720Y-77145384D01*
X147557203Y-77103049D01*
X147555658Y-77075974D01*
X147551096Y-77050150D01*
X147543650Y-77025738D01*
X147533419Y-77002769D01*
X147504815Y-76961297D01*
X147465586Y-76926406D01*
X147415924Y-76899163D01*
X147356199Y-76880989D01*
X147287163Y-76873475D01*
X147277203Y-76873363D01*
X147242377Y-76874888D01*
X147209546Y-76879307D01*
X147148897Y-76896387D01*
X147096250Y-76923406D01*
X147053002Y-76958846D01*
X147035383Y-76979132D01*
X147020816Y-77000553D01*
X147002137Y-77042379D01*
X146997704Y-77059733D01*
X146996128Y-77077892D01*
X146997669Y-77094327D01*
X147002198Y-77108806D01*
X147009128Y-77120552D01*
X147018503Y-77130203D01*
X147043687Y-77142461D01*
X147066666Y-77145157D01*
X147084782Y-77143579D01*
X147100139Y-77138791D01*
X147122648Y-77121908D01*
X147139939Y-77097041D01*
X147152734Y-77072395D01*
X147167376Y-77051433D01*
X147182280Y-77035639D01*
X147198810Y-77022865D01*
X147216107Y-77013511D01*
X147234974Y-77006898D01*
X147275591Y-77001884D01*
X147297275Y-77003414D01*
X147317385Y-77007871D01*
X147335695Y-77015051D01*
X147352007Y-77024758D01*
X147365994Y-77036679D01*
X147377599Y-77050696D01*
X147386508Y-77066387D01*
X147392696Y-77083742D01*
X147396442Y-77113454D01*
X147394739Y-77137070D01*
X147389068Y-77159699D01*
X147368271Y-77199160D01*
X147325095Y-77250967D01*
X147273930Y-77302156D01*
X147038773Y-77526908D01*
X147016259Y-77549928D01*
X147001958Y-77571028D01*
X146996306Y-77585718D01*
X146993682Y-77601413D01*
X146993393Y-77609462D01*
X146994958Y-77626407D01*
X146999659Y-77641536D01*
X147006724Y-77653553D01*
X147016435Y-77663592D01*
X147028280Y-77671178D01*
X147042588Y-77676538D01*
X147071062Y-77680000D01*
G37*
G36*
X148006749Y-76873916D02*
G01*
X148068463Y-76884734D01*
X148096801Y-76894313D01*
X148123505Y-76906599D01*
X148148714Y-76921658D01*
X148172165Y-76939344D01*
X148194223Y-76960027D01*
X148214349Y-76983312D01*
X148232987Y-77009925D01*
X148249465Y-77039156D01*
X148264163Y-77072039D01*
X148276429Y-77107564D01*
X148286479Y-77146959D01*
X148293795Y-77189004D01*
X148298395Y-77234964D01*
X148299946Y-77283545D01*
X148298029Y-77337694D01*
X148286010Y-77423103D01*
X148264304Y-77496043D01*
X148234278Y-77556975D01*
X148196931Y-77606551D01*
X148152788Y-77645371D01*
X148128187Y-77660861D01*
X148101895Y-77673721D01*
X148073725Y-77683954D01*
X148043928Y-77691379D01*
X148011949Y-77695985D01*
X147978376Y-77697536D01*
X147949250Y-77696383D01*
X147887679Y-77685419D01*
X147859387Y-77675758D01*
X147832736Y-77663389D01*
X147807548Y-77648224D01*
X147784124Y-77630432D01*
X147762064Y-77609607D01*
X147741943Y-77586176D01*
X147723289Y-77559374D01*
X147706803Y-77529954D01*
X147692086Y-77496836D01*
X147679809Y-77461081D01*
X147669745Y-77421421D01*
X147662423Y-77379124D01*
X147657819Y-77332902D01*
X147656268Y-77284082D01*
X147824161Y-77284082D01*
X147825463Y-77329862D01*
X147835537Y-77409166D01*
X147853412Y-77468819D01*
X147877063Y-77511884D01*
X147905459Y-77541277D01*
X147938800Y-77558961D01*
X147957936Y-77563601D01*
X147978376Y-77565157D01*
X147986014Y-77564947D01*
X148023548Y-77556914D01*
X148040784Y-77548367D01*
X148056640Y-77536874D01*
X148071960Y-77521456D01*
X148085639Y-77502799D01*
X148098573Y-77478966D01*
X148109478Y-77451450D01*
X148118950Y-77417525D01*
X148125909Y-77379429D01*
X148130504Y-77334054D01*
X148132053Y-77284082D01*
X148130849Y-77240307D01*
X148120943Y-77161107D01*
X148103179Y-77101497D01*
X148079597Y-77058441D01*
X148051241Y-77029044D01*
X148017925Y-77011354D01*
X147998799Y-77006713D01*
X147978376Y-77005157D01*
X147970539Y-77005381D01*
X147933078Y-77013537D01*
X147915791Y-77022184D01*
X147899851Y-77033800D01*
X147884451Y-77049337D01*
X147870674Y-77068117D01*
X147857689Y-77091965D01*
X147846723Y-77119462D01*
X147837250Y-77153078D01*
X147830280Y-77190766D01*
X147825707Y-77235220D01*
X147824161Y-77284082D01*
X147656268Y-77284082D01*
X147658077Y-77231797D01*
X147669933Y-77146762D01*
X147691528Y-77074108D01*
X147721513Y-77013352D01*
X147758906Y-76963852D01*
X147803190Y-76925041D01*
X147827905Y-76909534D01*
X147854308Y-76896668D01*
X147882621Y-76886420D01*
X147912552Y-76878989D01*
X147944677Y-76874378D01*
X147978376Y-76872826D01*
X148006749Y-76873916D01*
G37*
G36*
X148471648Y-77680000D02*
G01*
X148908599Y-77680000D01*
X148925434Y-77678476D01*
X148940147Y-77674066D01*
X148952259Y-77667256D01*
X148962109Y-77658172D01*
X148974473Y-77634178D01*
X148976938Y-77614396D01*
X148975400Y-77598244D01*
X148970887Y-77584021D01*
X148963964Y-77572452D01*
X148954612Y-77562984D01*
X148929528Y-77551126D01*
X148908599Y-77548792D01*
X148611111Y-77548792D01*
X148611111Y-77545471D01*
X148781739Y-77381437D01*
X148853538Y-77310796D01*
X148904929Y-77251353D01*
X148924391Y-77222762D01*
X148939111Y-77194849D01*
X148948299Y-77170444D01*
X148954306Y-77145384D01*
X148957789Y-77103049D01*
X148956244Y-77075974D01*
X148951683Y-77050150D01*
X148944236Y-77025738D01*
X148934005Y-77002769D01*
X148905401Y-76961297D01*
X148866172Y-76926406D01*
X148816510Y-76899163D01*
X148756785Y-76880989D01*
X148687749Y-76873475D01*
X148677789Y-76873363D01*
X148642963Y-76874888D01*
X148610132Y-76879307D01*
X148549483Y-76896387D01*
X148496836Y-76923406D01*
X148453588Y-76958846D01*
X148435969Y-76979132D01*
X148421402Y-77000553D01*
X148402723Y-77042379D01*
X148398290Y-77059733D01*
X148396715Y-77077892D01*
X148398255Y-77094327D01*
X148402785Y-77108806D01*
X148409714Y-77120552D01*
X148419090Y-77130203D01*
X148444273Y-77142461D01*
X148467252Y-77145157D01*
X148485368Y-77143579D01*
X148500726Y-77138791D01*
X148523235Y-77121908D01*
X148540525Y-77097041D01*
X148553320Y-77072395D01*
X148567962Y-77051433D01*
X148582866Y-77035639D01*
X148599396Y-77022865D01*
X148616694Y-77013511D01*
X148635560Y-77006898D01*
X148676177Y-77001884D01*
X148697861Y-77003414D01*
X148717971Y-77007871D01*
X148736282Y-77015051D01*
X148752593Y-77024758D01*
X148766580Y-77036679D01*
X148778185Y-77050696D01*
X148787094Y-77066387D01*
X148793283Y-77083742D01*
X148797029Y-77113454D01*
X148795325Y-77137070D01*
X148789654Y-77159699D01*
X148768857Y-77199160D01*
X148725681Y-77250967D01*
X148674516Y-77302156D01*
X148439359Y-77526908D01*
X148416845Y-77549928D01*
X148402544Y-77571028D01*
X148396892Y-77585718D01*
X148394268Y-77601413D01*
X148393979Y-77609462D01*
X148395544Y-77626407D01*
X148400245Y-77641536D01*
X148407310Y-77653553D01*
X148417021Y-77663592D01*
X148428866Y-77671178D01*
X148443174Y-77676538D01*
X148471648Y-77680000D01*
G37*
G36*
X149456733Y-76878860D02*
G01*
X149503460Y-76885159D01*
X149539872Y-76901095D01*
X149566505Y-76925290D01*
X149576256Y-76940444D01*
X149583415Y-76957473D01*
X149587957Y-76976878D01*
X149589499Y-76998073D01*
X149589499Y-77403321D01*
X149634342Y-77403321D01*
X149654253Y-77405456D01*
X149667986Y-77410135D01*
X149679495Y-77417215D01*
X149689014Y-77426852D01*
X149696004Y-77438583D01*
X149700595Y-77453124D01*
X149702144Y-77469462D01*
X149699702Y-77489507D01*
X149687595Y-77513411D01*
X149677939Y-77522420D01*
X149665998Y-77529183D01*
X149651301Y-77533592D01*
X149634342Y-77535115D01*
X149589499Y-77535115D01*
X149589499Y-77611123D01*
X149584637Y-77642904D01*
X149578271Y-77656873D01*
X149569582Y-77668535D01*
X149558226Y-77678249D01*
X149544840Y-77685342D01*
X149528635Y-77689973D01*
X149510755Y-77691528D01*
X149478403Y-77685983D01*
X149454309Y-77670698D01*
X149445265Y-77659542D01*
X149438477Y-77646077D01*
X149434071Y-77629792D01*
X149432549Y-77611123D01*
X149432549Y-77535115D01*
X149138334Y-77535115D01*
X149122818Y-77534235D01*
X149087869Y-77524344D01*
X149061596Y-77504986D01*
X149051932Y-77492176D01*
X149044792Y-77477490D01*
X149040313Y-77460882D01*
X149038780Y-77442693D01*
X149040238Y-77420817D01*
X149043888Y-77403321D01*
X149183177Y-77403321D01*
X149183177Y-77407669D01*
X149435821Y-77407669D01*
X149435821Y-77010628D01*
X149432549Y-77010628D01*
X149397153Y-77061901D01*
X149271700Y-77251477D01*
X149183177Y-77403321D01*
X149043888Y-77403321D01*
X149044813Y-77398886D01*
X149055835Y-77368848D01*
X149073218Y-77334933D01*
X149170726Y-77173684D01*
X149292011Y-76989867D01*
X149331723Y-76936265D01*
X149366745Y-76903940D01*
X149384599Y-76893238D01*
X149403309Y-76885696D01*
X149427105Y-76880473D01*
X149453309Y-76878834D01*
X149456733Y-76878860D01*
G37*
G36*
X144325577Y-79024000D02*
G01*
X144700734Y-79024000D01*
X144719134Y-79022462D01*
X144735361Y-79017949D01*
X144748470Y-79011098D01*
X144759236Y-79001861D01*
X144767177Y-78990878D01*
X144772608Y-78977929D01*
X144775668Y-78955660D01*
X144774140Y-78939726D01*
X144769695Y-78925672D01*
X144762751Y-78913892D01*
X144753427Y-78904124D01*
X144727968Y-78890942D01*
X144700734Y-78887321D01*
X144408180Y-78887321D01*
X144408180Y-78688263D01*
X144686519Y-78688263D01*
X144703899Y-78686728D01*
X144719182Y-78682235D01*
X144731505Y-78675397D01*
X144741506Y-78666195D01*
X144748743Y-78655232D01*
X144753437Y-78642337D01*
X144755445Y-78624809D01*
X144753919Y-78609545D01*
X144749493Y-78596129D01*
X144742568Y-78584914D01*
X144733292Y-78575727D01*
X144708009Y-78563810D01*
X144686519Y-78561355D01*
X144408180Y-78561355D01*
X144408180Y-78371578D01*
X144700734Y-78371578D01*
X144718950Y-78370040D01*
X144735105Y-78365527D01*
X144748271Y-78358643D01*
X144759122Y-78349352D01*
X144767131Y-78338324D01*
X144772613Y-78325323D01*
X144775668Y-78303239D01*
X144774137Y-78287156D01*
X144769670Y-78272992D01*
X144762733Y-78261228D01*
X144753399Y-78251489D01*
X144727937Y-78238445D01*
X144700734Y-78234900D01*
X144325577Y-78234900D01*
X144306676Y-78236443D01*
X144289993Y-78240996D01*
X144276443Y-78247912D01*
X144265054Y-78257283D01*
X144249388Y-78282366D01*
X144243073Y-78316990D01*
X144243023Y-78320727D01*
X144243023Y-78937635D01*
X144244566Y-78957833D01*
X144249110Y-78975570D01*
X144255954Y-78989808D01*
X144265205Y-79001705D01*
X144289516Y-79017707D01*
X144322480Y-79023961D01*
X144325577Y-79024000D01*
G37*
G36*
X144954698Y-79035528D02*
G01*
X144972958Y-79033970D01*
X144989377Y-79029321D01*
X145002735Y-79022264D01*
X145014048Y-79012599D01*
X145022754Y-79000937D01*
X145029196Y-78986936D01*
X145034516Y-78952387D01*
X145034516Y-78306512D01*
X145032990Y-78287066D01*
X145028561Y-78270107D01*
X145021782Y-78256201D01*
X145012728Y-78244661D01*
X144988754Y-78228887D01*
X144956742Y-78222853D01*
X144954698Y-78222834D01*
X144936759Y-78224389D01*
X144920528Y-78229022D01*
X144907122Y-78236117D01*
X144895714Y-78245835D01*
X144886874Y-78257580D01*
X144880306Y-78271664D01*
X144874831Y-78306512D01*
X144874831Y-78952387D01*
X144876354Y-78971649D01*
X144880767Y-78988431D01*
X144887540Y-79002242D01*
X144896568Y-79013697D01*
X144920542Y-79029441D01*
X144952531Y-79035507D01*
X144954698Y-79035528D01*
G37*
G36*
X145430274Y-78426170D02*
G01*
X145461860Y-78430056D01*
X145491771Y-78436814D01*
X145519853Y-78446301D01*
X145546058Y-78458401D01*
X145570286Y-78472992D01*
X145592429Y-78489948D01*
X145612426Y-78509193D01*
X145630119Y-78530563D01*
X145645458Y-78554032D01*
X145658262Y-78579390D01*
X145668467Y-78606643D01*
X145675897Y-78635546D01*
X145680459Y-78666112D01*
X145682004Y-78698082D01*
X145679347Y-78721118D01*
X145667433Y-78745515D01*
X145657804Y-78754665D01*
X145645897Y-78761435D01*
X145630463Y-78765999D01*
X145612542Y-78767545D01*
X145277831Y-78767545D01*
X145277831Y-78774628D01*
X145278264Y-78788103D01*
X145286974Y-78832849D01*
X145305555Y-78868692D01*
X145332785Y-78895404D01*
X145349513Y-78905216D01*
X145368107Y-78912422D01*
X145388852Y-78916947D01*
X145411286Y-78918487D01*
X145423221Y-78918197D01*
X145466706Y-78910654D01*
X145486794Y-78902410D01*
X145505897Y-78890923D01*
X145528552Y-78872204D01*
X145551286Y-78847949D01*
X145571448Y-78831785D01*
X145586354Y-78826108D01*
X145603260Y-78824404D01*
X145619072Y-78826028D01*
X145643797Y-78837024D01*
X145659775Y-78856333D01*
X145664083Y-78868748D01*
X145665591Y-78882925D01*
X145665330Y-78888692D01*
X145661894Y-78905099D01*
X145654649Y-78921759D01*
X145633545Y-78952471D01*
X145615922Y-78970454D01*
X145595611Y-78986453D01*
X145571695Y-79000971D01*
X145545239Y-79013144D01*
X145515410Y-79023172D01*
X145483307Y-79030491D01*
X145448508Y-79035057D01*
X145411823Y-79036602D01*
X145364722Y-79033938D01*
X145303125Y-79020850D01*
X145250721Y-78997825D01*
X145206861Y-78965382D01*
X145187958Y-78945524D01*
X145171292Y-78923406D01*
X145156599Y-78898480D01*
X145144356Y-78871303D01*
X145134337Y-78840927D01*
X145127046Y-78808279D01*
X145122433Y-78772109D01*
X145120881Y-78733644D01*
X145123713Y-78682678D01*
X145126379Y-78669652D01*
X145279492Y-78669652D01*
X145528327Y-78669652D01*
X145521870Y-78629792D01*
X145504952Y-78593576D01*
X145479284Y-78566527D01*
X145463498Y-78556642D01*
X145445962Y-78549385D01*
X145426621Y-78544868D01*
X145405814Y-78543330D01*
X145372018Y-78547618D01*
X145353591Y-78554122D01*
X145336802Y-78563358D01*
X145321615Y-78575336D01*
X145308457Y-78589759D01*
X145297381Y-78606664D01*
X145288745Y-78625694D01*
X145282700Y-78646792D01*
X145279492Y-78669652D01*
X145126379Y-78669652D01*
X145137171Y-78616928D01*
X145160522Y-78560744D01*
X145192774Y-78513995D01*
X145233354Y-78476620D01*
X145256754Y-78461472D01*
X145282078Y-78448851D01*
X145309627Y-78438721D01*
X145339000Y-78431350D01*
X145370734Y-78426762D01*
X145404202Y-78425214D01*
X145430274Y-78426170D01*
G37*
G36*
X146031027Y-79036602D02*
G01*
X146094301Y-79030579D01*
X146154011Y-79012841D01*
X146181221Y-78999986D01*
X146206165Y-78984741D01*
X146228041Y-78967724D01*
X146247166Y-78948782D01*
X146262573Y-78929085D01*
X146274959Y-78907947D01*
X146278201Y-78900999D01*
X146285783Y-78880044D01*
X146288579Y-78861402D01*
X146288606Y-78859429D01*
X146287095Y-78844675D01*
X146282773Y-78831588D01*
X146266609Y-78810674D01*
X146241631Y-78798042D01*
X146221341Y-78795437D01*
X146203193Y-78797045D01*
X146187903Y-78802047D01*
X146165467Y-78819591D01*
X146148606Y-78842478D01*
X146134106Y-78863673D01*
X146117230Y-78881571D01*
X146101374Y-78893424D01*
X146083429Y-78902491D01*
X146064863Y-78908152D01*
X146044157Y-78911025D01*
X146033763Y-78911355D01*
X146013140Y-78909803D01*
X145994035Y-78905192D01*
X145977087Y-78897889D01*
X145961710Y-78887851D01*
X145935961Y-78859787D01*
X145916905Y-78819980D01*
X145905910Y-78766724D01*
X145904119Y-78730371D01*
X145905662Y-78697098D01*
X145910212Y-78666876D01*
X145917193Y-78641161D01*
X145926666Y-78618415D01*
X145937784Y-78599796D01*
X145950939Y-78584005D01*
X145965298Y-78571671D01*
X145981357Y-78562070D01*
X146017563Y-78551478D01*
X146034838Y-78550413D01*
X146056545Y-78551990D01*
X146076395Y-78556778D01*
X146093230Y-78564130D01*
X146108761Y-78574361D01*
X146136811Y-78604229D01*
X146150218Y-78625346D01*
X146161733Y-78642347D01*
X146174723Y-78654702D01*
X146186718Y-78661453D01*
X146200443Y-78665478D01*
X146217482Y-78666916D01*
X146233982Y-78665376D01*
X146249028Y-78660843D01*
X146261670Y-78653793D01*
X146272096Y-78644223D01*
X146279470Y-78633088D01*
X146284178Y-78619947D01*
X146285870Y-78604586D01*
X146280200Y-78573784D01*
X146277078Y-78565214D01*
X146255227Y-78525003D01*
X146221620Y-78489022D01*
X146176504Y-78459035D01*
X146121056Y-78437361D01*
X146090129Y-78430370D01*
X146057627Y-78426282D01*
X146029904Y-78425214D01*
X145995683Y-78426763D01*
X145963253Y-78431352D01*
X145933295Y-78438716D01*
X145905214Y-78448836D01*
X145879477Y-78461413D01*
X145855708Y-78476507D01*
X145834133Y-78493903D01*
X145814643Y-78513628D01*
X145782129Y-78559905D01*
X145758650Y-78615375D01*
X145745118Y-78680193D01*
X145742235Y-78730908D01*
X145743783Y-78768679D01*
X145748367Y-78804310D01*
X145755677Y-78836929D01*
X145765707Y-78867362D01*
X145778054Y-78894918D01*
X145792839Y-78920246D01*
X145809674Y-78942906D01*
X145828715Y-78963280D01*
X145872762Y-78996696D01*
X145924849Y-79020403D01*
X145985130Y-79033842D01*
X146031027Y-79036602D01*
G37*
G36*
X146415856Y-78874181D02*
G01*
X146417418Y-78903138D01*
X146422096Y-78929176D01*
X146429100Y-78950433D01*
X146438698Y-78969220D01*
X146450136Y-78984682D01*
X146463874Y-78997922D01*
X146497900Y-79017567D01*
X146542860Y-79028607D01*
X146576666Y-79030594D01*
X146582137Y-79030594D01*
X146610355Y-79029034D01*
X146635334Y-79024370D01*
X146654479Y-79017615D01*
X146670348Y-79008428D01*
X146681279Y-78998410D01*
X146689228Y-78986553D01*
X146693719Y-78974012D01*
X146695318Y-78959927D01*
X146695319Y-78959471D01*
X146693769Y-78943534D01*
X146689168Y-78930440D01*
X146682480Y-78920917D01*
X146673437Y-78913391D01*
X146646840Y-78903401D01*
X146634600Y-78901536D01*
X146624244Y-78900413D01*
X146607660Y-78897479D01*
X146594754Y-78891397D01*
X146586899Y-78884002D01*
X146581184Y-78874195D01*
X146575672Y-78845253D01*
X146575542Y-78838619D01*
X146575542Y-78558082D01*
X146631865Y-78558082D01*
X146647754Y-78556553D01*
X146661563Y-78552103D01*
X146672662Y-78545298D01*
X146681526Y-78536185D01*
X146691858Y-78512050D01*
X146693121Y-78497949D01*
X146691588Y-78482487D01*
X146687112Y-78468975D01*
X146680245Y-78458064D01*
X146671012Y-78449307D01*
X146646371Y-78439032D01*
X146631865Y-78437768D01*
X146575542Y-78437768D01*
X146575542Y-78372702D01*
X146574003Y-78353448D01*
X146569478Y-78336403D01*
X146562583Y-78322471D01*
X146553265Y-78310803D01*
X146542036Y-78301787D01*
X146528752Y-78295156D01*
X146495724Y-78289561D01*
X146477585Y-78291099D01*
X146461516Y-78295610D01*
X146448233Y-78302547D01*
X146437068Y-78311919D01*
X146421680Y-78337075D01*
X146415863Y-78371371D01*
X146415856Y-78372702D01*
X146415856Y-78437768D01*
X146385228Y-78437768D01*
X146369149Y-78439301D01*
X146355139Y-78443783D01*
X146343950Y-78450603D01*
X146335003Y-78459766D01*
X146324677Y-78483936D01*
X146323435Y-78497949D01*
X146324965Y-78513403D01*
X146329421Y-78526844D01*
X146336262Y-78537692D01*
X146345437Y-78546388D01*
X146370057Y-78556726D01*
X146385228Y-78558082D01*
X146415856Y-78558082D01*
X146415856Y-78874181D01*
G37*
G36*
X146850902Y-79035528D02*
G01*
X146869169Y-79033981D01*
X146885432Y-79029405D01*
X146898733Y-79022425D01*
X146909939Y-79012932D01*
X146925156Y-78987574D01*
X146930720Y-78952387D01*
X146930720Y-78692073D01*
X146932345Y-78664161D01*
X146937466Y-78639908D01*
X146944365Y-78623205D01*
X146953952Y-78609098D01*
X146964907Y-78598805D01*
X146978280Y-78590725D01*
X147012605Y-78581520D01*
X147029150Y-78580503D01*
X147053273Y-78578538D01*
X147073666Y-78573593D01*
X147098613Y-78559743D01*
X147108084Y-78549571D01*
X147115046Y-78537440D01*
X147121479Y-78507026D01*
X147121572Y-78502297D01*
X147120007Y-78482411D01*
X147115305Y-78465671D01*
X147108636Y-78453641D01*
X147099567Y-78444004D01*
X147098613Y-78443239D01*
X147075630Y-78431675D01*
X147048836Y-78428487D01*
X147029958Y-78430032D01*
X147012011Y-78434595D01*
X146979559Y-78452392D01*
X146952666Y-78481500D01*
X146933034Y-78521741D01*
X146926910Y-78544404D01*
X146923637Y-78544404D01*
X146923637Y-78506156D01*
X146922110Y-78487349D01*
X146917676Y-78470834D01*
X146910854Y-78457186D01*
X146901730Y-78445865D01*
X146877698Y-78430711D01*
X146848166Y-78425751D01*
X146830663Y-78427295D01*
X146814959Y-78431851D01*
X146801892Y-78438882D01*
X146790862Y-78448440D01*
X146782262Y-78460095D01*
X146775970Y-78473967D01*
X146771034Y-78506156D01*
X146771034Y-78952387D01*
X146772565Y-78971643D01*
X146777030Y-78988545D01*
X146783860Y-79002414D01*
X146793026Y-79013972D01*
X146817267Y-79029678D01*
X146849671Y-79035521D01*
X146850902Y-79035528D01*
G37*
G36*
X147474700Y-78428109D02*
G01*
X147535079Y-78441753D01*
X147587357Y-78465669D01*
X147631575Y-78499247D01*
X147650661Y-78519641D01*
X147667552Y-78542318D01*
X147682346Y-78567567D01*
X147694712Y-78595034D01*
X147704730Y-78625262D01*
X147712039Y-78657661D01*
X147716613Y-78692953D01*
X147718159Y-78730371D01*
X147715236Y-78782345D01*
X147701765Y-78847394D01*
X147678479Y-78902621D01*
X147646183Y-78948532D01*
X147626715Y-78968133D01*
X147605162Y-78985377D01*
X147581219Y-79000424D01*
X147555283Y-79012937D01*
X147526718Y-79023073D01*
X147496227Y-79030433D01*
X147462920Y-79035050D01*
X147427754Y-79036602D01*
X147380040Y-79033681D01*
X147319539Y-79020095D01*
X147267442Y-78996361D01*
X147223511Y-78963036D01*
X147204553Y-78942747D01*
X147187786Y-78920163D01*
X147173067Y-78894913D01*
X147160770Y-78867404D01*
X147150772Y-78836962D01*
X147143479Y-78804273D01*
X147138897Y-78768441D01*
X147137372Y-78730908D01*
X147299234Y-78730908D01*
X147301071Y-78768390D01*
X147312121Y-78822471D01*
X147331154Y-78862763D01*
X147356735Y-78891050D01*
X147371943Y-78901131D01*
X147388675Y-78908457D01*
X147407486Y-78913075D01*
X147427754Y-78914628D01*
X147444316Y-78913589D01*
X147479592Y-78903039D01*
X147495312Y-78893409D01*
X147509412Y-78880983D01*
X147522370Y-78865005D01*
X147533353Y-78846082D01*
X147542735Y-78822869D01*
X147549668Y-78796499D01*
X147554197Y-78765366D01*
X147555738Y-78730908D01*
X147553909Y-78693952D01*
X147542772Y-78639832D01*
X147523562Y-78599264D01*
X147497865Y-78570762D01*
X147482720Y-78560648D01*
X147466102Y-78553294D01*
X147447611Y-78548691D01*
X147427754Y-78547140D01*
X147411005Y-78548232D01*
X147375788Y-78559019D01*
X147359985Y-78568841D01*
X147345784Y-78581484D01*
X147332734Y-78597673D01*
X147321661Y-78616792D01*
X147312248Y-78640038D01*
X147305287Y-78666353D01*
X147300772Y-78697061D01*
X147299234Y-78730908D01*
X147137372Y-78730908D01*
X147137350Y-78730371D01*
X147140253Y-78679668D01*
X147153825Y-78615147D01*
X147177396Y-78559911D01*
X147210118Y-78513747D01*
X147229800Y-78494011D01*
X147251565Y-78476627D01*
X147275623Y-78461495D01*
X147301642Y-78448901D01*
X147330089Y-78438746D01*
X147360389Y-78431367D01*
X147393200Y-78426764D01*
X147427754Y-78425214D01*
X147474700Y-78428109D01*
G37*
G36*
X147879457Y-79035528D02*
G01*
X147897702Y-79033970D01*
X147914116Y-79029321D01*
X147927477Y-79022262D01*
X147938797Y-79012592D01*
X147947508Y-79000926D01*
X147953954Y-78986920D01*
X147959276Y-78952387D01*
X147959276Y-78687677D01*
X147960815Y-78664088D01*
X147965340Y-78642333D01*
X147972478Y-78623119D01*
X147982182Y-78606043D01*
X147993909Y-78591721D01*
X148007806Y-78579771D01*
X148023379Y-78570552D01*
X148040803Y-78563942D01*
X148076317Y-78559157D01*
X148098488Y-78560705D01*
X148118119Y-78565295D01*
X148134109Y-78572227D01*
X148147888Y-78581652D01*
X148168404Y-78606977D01*
X148180736Y-78642467D01*
X148184028Y-78679471D01*
X148184028Y-78952387D01*
X148185554Y-78971796D01*
X148189983Y-78988684D01*
X148196750Y-79002484D01*
X148205784Y-79013917D01*
X148229744Y-79029534D01*
X148261887Y-79035510D01*
X148263895Y-79035528D01*
X148281978Y-79033970D01*
X148298322Y-79029321D01*
X148311726Y-79022232D01*
X148323115Y-79012514D01*
X148331887Y-79000803D01*
X148338385Y-78986742D01*
X148343714Y-78952387D01*
X148343714Y-78646156D01*
X148342161Y-78612624D01*
X148337540Y-78581544D01*
X148330358Y-78554362D01*
X148320509Y-78529565D01*
X148308648Y-78508170D01*
X148294440Y-78489102D01*
X148278428Y-78472873D01*
X148260282Y-78458977D01*
X148217976Y-78438526D01*
X148166673Y-78428012D01*
X148140309Y-78426826D01*
X148110595Y-78428378D01*
X148083291Y-78432994D01*
X148059557Y-78440158D01*
X148037948Y-78449975D01*
X148018890Y-78462056D01*
X148001807Y-78476561D01*
X147973225Y-78513060D01*
X147959813Y-78539471D01*
X147956540Y-78539471D01*
X147956540Y-78506693D01*
X147955009Y-78488336D01*
X147950545Y-78472058D01*
X147943635Y-78458447D01*
X147934345Y-78447027D01*
X147909647Y-78431381D01*
X147876722Y-78425751D01*
X147858877Y-78427289D01*
X147843121Y-78431800D01*
X147830180Y-78438719D01*
X147819364Y-78448064D01*
X147804671Y-78473162D01*
X147799590Y-78506156D01*
X147799590Y-78952387D01*
X147801113Y-78971649D01*
X147805527Y-78988431D01*
X147812299Y-79002242D01*
X147821327Y-79013697D01*
X147845302Y-79029441D01*
X147877290Y-79035507D01*
X147879457Y-79035528D01*
G37*
G36*
X148526994Y-78365032D02*
G01*
X148559199Y-78359151D01*
X148586297Y-78342291D01*
X148596901Y-78330311D01*
X148604969Y-78316454D01*
X148610130Y-78301312D01*
X148612247Y-78284973D01*
X148612283Y-78282478D01*
X148606379Y-78251535D01*
X148589380Y-78225433D01*
X148577167Y-78215116D01*
X148562966Y-78207224D01*
X148547200Y-78202084D01*
X148530075Y-78199925D01*
X148526994Y-78199875D01*
X148494541Y-78205771D01*
X148467432Y-78222627D01*
X148456898Y-78234571D01*
X148448890Y-78248420D01*
X148443780Y-78263584D01*
X148441690Y-78280011D01*
X148441655Y-78282478D01*
X148447560Y-78313172D01*
X148464645Y-78339356D01*
X148476921Y-78349739D01*
X148491196Y-78357689D01*
X148506964Y-78362838D01*
X148524087Y-78364988D01*
X148526994Y-78365032D01*
G37*
G36*
X148526994Y-79035528D02*
G01*
X148545105Y-79033987D01*
X148561200Y-79029456D01*
X148574498Y-79022495D01*
X148585697Y-79013068D01*
X148601071Y-78987804D01*
X148606809Y-78953359D01*
X148606812Y-78952387D01*
X148606812Y-78509429D01*
X148605276Y-78490151D01*
X148600774Y-78473095D01*
X148593889Y-78459077D01*
X148584606Y-78447335D01*
X148560178Y-78431502D01*
X148527660Y-78425753D01*
X148526994Y-78425751D01*
X148508842Y-78427290D01*
X148492763Y-78431811D01*
X148479505Y-78438752D01*
X148468357Y-78448138D01*
X148452990Y-78473352D01*
X148447136Y-78507862D01*
X148447126Y-78509429D01*
X148447126Y-78952387D01*
X148448666Y-78971787D01*
X148453189Y-78988890D01*
X148460059Y-79002784D01*
X148469335Y-79014389D01*
X148493757Y-79029931D01*
X148526994Y-79035528D01*
G37*
G36*
X148979918Y-79036602D02*
G01*
X149043191Y-79030579D01*
X149102902Y-79012841D01*
X149130111Y-78999986D01*
X149155055Y-78984741D01*
X149176932Y-78967724D01*
X149196056Y-78948782D01*
X149211463Y-78929085D01*
X149223849Y-78907947D01*
X149227092Y-78900999D01*
X149234674Y-78880044D01*
X149237469Y-78861402D01*
X149237496Y-78859429D01*
X149235986Y-78844675D01*
X149231663Y-78831588D01*
X149215499Y-78810674D01*
X149190521Y-78798042D01*
X149170232Y-78795437D01*
X149152083Y-78797045D01*
X149136794Y-78802047D01*
X149114358Y-78819591D01*
X149097496Y-78842478D01*
X149082996Y-78863673D01*
X149066120Y-78881571D01*
X149050265Y-78893424D01*
X149032319Y-78902491D01*
X149013753Y-78908152D01*
X148993047Y-78911025D01*
X148982653Y-78911355D01*
X148962031Y-78909803D01*
X148942926Y-78905192D01*
X148925977Y-78897889D01*
X148910601Y-78887851D01*
X148884851Y-78859787D01*
X148865796Y-78819980D01*
X148854801Y-78766724D01*
X148853009Y-78730371D01*
X148854552Y-78697098D01*
X148859102Y-78666876D01*
X148866083Y-78641161D01*
X148875557Y-78618415D01*
X148886674Y-78599796D01*
X148899830Y-78584005D01*
X148914188Y-78571671D01*
X148930247Y-78562070D01*
X148966453Y-78551478D01*
X148983728Y-78550413D01*
X149005436Y-78551990D01*
X149025285Y-78556778D01*
X149042120Y-78564130D01*
X149057651Y-78574361D01*
X149085702Y-78604229D01*
X149099108Y-78625346D01*
X149110623Y-78642347D01*
X149123613Y-78654702D01*
X149135609Y-78661453D01*
X149149334Y-78665478D01*
X149166373Y-78666916D01*
X149182872Y-78665376D01*
X149197919Y-78660843D01*
X149210560Y-78653793D01*
X149220987Y-78644223D01*
X149228361Y-78633088D01*
X149233069Y-78619947D01*
X149234761Y-78604586D01*
X149229091Y-78573784D01*
X149225968Y-78565214D01*
X149204118Y-78525003D01*
X149170511Y-78489022D01*
X149125395Y-78459035D01*
X149069947Y-78437361D01*
X149039019Y-78430370D01*
X149006518Y-78426282D01*
X148978794Y-78425214D01*
X148944574Y-78426763D01*
X148912143Y-78431352D01*
X148882186Y-78438716D01*
X148854104Y-78448836D01*
X148828367Y-78461413D01*
X148804598Y-78476507D01*
X148783023Y-78493903D01*
X148763533Y-78513628D01*
X148731020Y-78559905D01*
X148707541Y-78615375D01*
X148694008Y-78680193D01*
X148691125Y-78730908D01*
X148692673Y-78768679D01*
X148697257Y-78804310D01*
X148704568Y-78836929D01*
X148714597Y-78867362D01*
X148726944Y-78894918D01*
X148741729Y-78920246D01*
X148758564Y-78942906D01*
X148777606Y-78963280D01*
X148821652Y-78996696D01*
X148873740Y-79020403D01*
X148934021Y-79033842D01*
X148979918Y-79036602D01*
G37*
G36*
X149561069Y-79036602D02*
G01*
X149598582Y-79035059D01*
X149633823Y-79030508D01*
X149665892Y-79023267D01*
X149695438Y-79013377D01*
X149721412Y-79001417D01*
X149744716Y-78987189D01*
X149764420Y-78971500D01*
X149781383Y-78953903D01*
X149794994Y-78935246D01*
X149805815Y-78914982D01*
X149813568Y-78893733D01*
X149818431Y-78871102D01*
X149820309Y-78844628D01*
X149818723Y-78819441D01*
X149813877Y-78796649D01*
X149806664Y-78778171D01*
X149796636Y-78761407D01*
X149768720Y-78733360D01*
X149726808Y-78709726D01*
X149664160Y-78689468D01*
X149644209Y-78684942D01*
X149547440Y-78664181D01*
X149518276Y-78656301D01*
X149496061Y-78646715D01*
X149482768Y-78637577D01*
X149473492Y-78627179D01*
X149466074Y-78605082D01*
X149465912Y-78600727D01*
X149467441Y-78587957D01*
X149471887Y-78576314D01*
X149489212Y-78556563D01*
X149518380Y-78542547D01*
X149557796Y-78537321D01*
X149580187Y-78538834D01*
X149599976Y-78543172D01*
X149633414Y-78559304D01*
X149663422Y-78586447D01*
X149674838Y-78600189D01*
X149695728Y-78616344D01*
X149724646Y-78624419D01*
X149732821Y-78624809D01*
X149750122Y-78623290D01*
X149764544Y-78618912D01*
X149775497Y-78612418D01*
X149783916Y-78603850D01*
X149793179Y-78581404D01*
X149794077Y-78570099D01*
X149790218Y-78546602D01*
X149774289Y-78513604D01*
X149745176Y-78482339D01*
X149702343Y-78455174D01*
X149675884Y-78444080D01*
X149646741Y-78435308D01*
X149614972Y-78429092D01*
X149580936Y-78425742D01*
X149560532Y-78425214D01*
X149522997Y-78426757D01*
X149488008Y-78431308D01*
X149456628Y-78438490D01*
X149427929Y-78448284D01*
X149402994Y-78460066D01*
X149380792Y-78474067D01*
X149362178Y-78489496D01*
X149346305Y-78506793D01*
X149333662Y-78525222D01*
X149323786Y-78545244D01*
X149316862Y-78566435D01*
X149312811Y-78589021D01*
X149311697Y-78609471D01*
X149313259Y-78633438D01*
X149317942Y-78655841D01*
X149325314Y-78675731D01*
X149335516Y-78694148D01*
X149364081Y-78726203D01*
X149405062Y-78752875D01*
X149461184Y-78773879D01*
X149484523Y-78779561D01*
X149582953Y-78800371D01*
X149613904Y-78808793D01*
X149636245Y-78818884D01*
X149647612Y-78827598D01*
X149655231Y-78837697D01*
X149660613Y-78860405D01*
X149660623Y-78861578D01*
X149659088Y-78874638D01*
X149654598Y-78886385D01*
X149637403Y-78905606D01*
X149608147Y-78919124D01*
X149564928Y-78924495D01*
X149536425Y-78922914D01*
X149511504Y-78918101D01*
X149492072Y-78911097D01*
X149474613Y-78901428D01*
X149444263Y-78873997D01*
X149436945Y-78864900D01*
X149420850Y-78849184D01*
X149404422Y-78838029D01*
X149389740Y-78831962D01*
X149374349Y-78829082D01*
X149367482Y-78828801D01*
X149351936Y-78830325D01*
X149337960Y-78834743D01*
X149326006Y-78841725D01*
X149316217Y-78851083D01*
X149309045Y-78862296D01*
X149304527Y-78875351D01*
X149302953Y-78890057D01*
X149308962Y-78919561D01*
X149329775Y-78954408D01*
X149362876Y-78985034D01*
X149409152Y-79010237D01*
X149469281Y-79028095D01*
X149543251Y-79036315D01*
X149561069Y-79036602D01*
G37*
D10*
X122294988Y-123619638D02*
X122199750Y-123572019D01*
X122199750Y-123572019D02*
X122056893Y-123572019D01*
X122056893Y-123572019D02*
X121914036Y-123619638D01*
X121914036Y-123619638D02*
X121818798Y-123714876D01*
X121818798Y-123714876D02*
X121771179Y-123810114D01*
X121771179Y-123810114D02*
X121723560Y-124000590D01*
X121723560Y-124000590D02*
X121723560Y-124143447D01*
X121723560Y-124143447D02*
X121771179Y-124333923D01*
X121771179Y-124333923D02*
X121818798Y-124429161D01*
X121818798Y-124429161D02*
X121914036Y-124524400D01*
X121914036Y-124524400D02*
X122056893Y-124572019D01*
X122056893Y-124572019D02*
X122152131Y-124572019D01*
X122152131Y-124572019D02*
X122294988Y-124524400D01*
X122294988Y-124524400D02*
X122342607Y-124476780D01*
X122342607Y-124476780D02*
X122342607Y-124143447D01*
X122342607Y-124143447D02*
X122152131Y-124143447D01*
X122771179Y-124572019D02*
X122771179Y-123572019D01*
X122771179Y-123572019D02*
X123342607Y-124572019D01*
X123342607Y-124572019D02*
X123342607Y-123572019D01*
X123818798Y-124572019D02*
X123818798Y-123572019D01*
X123818798Y-123572019D02*
X124056893Y-123572019D01*
X124056893Y-123572019D02*
X124199750Y-123619638D01*
X124199750Y-123619638D02*
X124294988Y-123714876D01*
X124294988Y-123714876D02*
X124342607Y-123810114D01*
X124342607Y-123810114D02*
X124390226Y-124000590D01*
X124390226Y-124000590D02*
X124390226Y-124143447D01*
X124390226Y-124143447D02*
X124342607Y-124333923D01*
X124342607Y-124333923D02*
X124294988Y-124429161D01*
X124294988Y-124429161D02*
X124199750Y-124524400D01*
X124199750Y-124524400D02*
X124056893Y-124572019D01*
X124056893Y-124572019D02*
X123818798Y-124572019D01*
X123485607Y-119212619D02*
X123152274Y-118736428D01*
X122914179Y-119212619D02*
X122914179Y-118212619D01*
X122914179Y-118212619D02*
X123295131Y-118212619D01*
X123295131Y-118212619D02*
X123390369Y-118260238D01*
X123390369Y-118260238D02*
X123437988Y-118307857D01*
X123437988Y-118307857D02*
X123485607Y-118403095D01*
X123485607Y-118403095D02*
X123485607Y-118545952D01*
X123485607Y-118545952D02*
X123437988Y-118641190D01*
X123437988Y-118641190D02*
X123390369Y-118688809D01*
X123390369Y-118688809D02*
X123295131Y-118736428D01*
X123295131Y-118736428D02*
X122914179Y-118736428D01*
X123818941Y-118212619D02*
X124485607Y-119212619D01*
X124485607Y-118212619D02*
X123818941Y-119212619D01*
X122923722Y-121032019D02*
X123495150Y-121032019D01*
X123209436Y-122032019D02*
X123209436Y-121032019D01*
X123733246Y-121032019D02*
X124399912Y-122032019D01*
X124399912Y-121032019D02*
X123733246Y-122032019D01*
X138430199Y-114405633D02*
X138196866Y-114072300D01*
X138030199Y-114405633D02*
X138030199Y-113705633D01*
X138030199Y-113705633D02*
X138296866Y-113705633D01*
X138296866Y-113705633D02*
X138363533Y-113738966D01*
X138363533Y-113738966D02*
X138396866Y-113772300D01*
X138396866Y-113772300D02*
X138430199Y-113838966D01*
X138430199Y-113838966D02*
X138430199Y-113938966D01*
X138430199Y-113938966D02*
X138396866Y-114005633D01*
X138396866Y-114005633D02*
X138363533Y-114038966D01*
X138363533Y-114038966D02*
X138296866Y-114072300D01*
X138296866Y-114072300D02*
X138030199Y-114072300D01*
X138663533Y-113705633D02*
X139096866Y-113705633D01*
X139096866Y-113705633D02*
X138863533Y-113972300D01*
X138863533Y-113972300D02*
X138963533Y-113972300D01*
X138963533Y-113972300D02*
X139030199Y-114005633D01*
X139030199Y-114005633D02*
X139063533Y-114038966D01*
X139063533Y-114038966D02*
X139096866Y-114105633D01*
X139096866Y-114105633D02*
X139096866Y-114272300D01*
X139096866Y-114272300D02*
X139063533Y-114338966D01*
X139063533Y-114338966D02*
X139030199Y-114372300D01*
X139030199Y-114372300D02*
X138963533Y-114405633D01*
X138963533Y-114405633D02*
X138763533Y-114405633D01*
X138763533Y-114405633D02*
X138696866Y-114372300D01*
X138696866Y-114372300D02*
X138663533Y-114338966D01*
X139763533Y-114405633D02*
X139363533Y-114405633D01*
X139563533Y-114405633D02*
X139563533Y-113705633D01*
X139563533Y-113705633D02*
X139496866Y-113805633D01*
X139496866Y-113805633D02*
X139430200Y-113872300D01*
X139430200Y-113872300D02*
X139363533Y-113905633D01*
X120847066Y-101754219D02*
X120847066Y-102468504D01*
X120847066Y-102468504D02*
X120799447Y-102611361D01*
X120799447Y-102611361D02*
X120704209Y-102706600D01*
X120704209Y-102706600D02*
X120561352Y-102754219D01*
X120561352Y-102754219D02*
X120466114Y-102754219D01*
X121847066Y-102754219D02*
X121275638Y-102754219D01*
X121561352Y-102754219D02*
X121561352Y-101754219D01*
X121561352Y-101754219D02*
X121466114Y-101897076D01*
X121466114Y-101897076D02*
X121370876Y-101992314D01*
X121370876Y-101992314D02*
X121275638Y-102039933D01*
X153349800Y-102906033D02*
X153749800Y-102906033D01*
X153549800Y-103606033D02*
X153549800Y-102906033D01*
X153916467Y-102906033D02*
X154383133Y-103606033D01*
X154383133Y-102906033D02*
X153916467Y-103606033D01*
X154649800Y-103606033D02*
X154649800Y-102906033D01*
X154649800Y-102906033D02*
X154816467Y-102906033D01*
X154816467Y-102906033D02*
X154916467Y-102939366D01*
X154916467Y-102939366D02*
X154983134Y-103006033D01*
X154983134Y-103006033D02*
X155016467Y-103072700D01*
X155016467Y-103072700D02*
X155049800Y-103206033D01*
X155049800Y-103206033D02*
X155049800Y-103306033D01*
X155049800Y-103306033D02*
X155016467Y-103439366D01*
X155016467Y-103439366D02*
X154983134Y-103506033D01*
X154983134Y-103506033D02*
X154916467Y-103572700D01*
X154916467Y-103572700D02*
X154816467Y-103606033D01*
X154816467Y-103606033D02*
X154649800Y-103606033D01*
X155183134Y-103672700D02*
X155716467Y-103672700D01*
X156249800Y-103606033D02*
X155849800Y-103606033D01*
X156049800Y-103606033D02*
X156049800Y-102906033D01*
X156049800Y-102906033D02*
X155983133Y-103006033D01*
X155983133Y-103006033D02*
X155916467Y-103072700D01*
X155916467Y-103072700D02*
X155849800Y-103106033D01*
X156383134Y-103672700D02*
X156916467Y-103672700D01*
X157483133Y-103606033D02*
X157249800Y-103272700D01*
X157083133Y-103606033D02*
X157083133Y-102906033D01*
X157083133Y-102906033D02*
X157349800Y-102906033D01*
X157349800Y-102906033D02*
X157416467Y-102939366D01*
X157416467Y-102939366D02*
X157449800Y-102972700D01*
X157449800Y-102972700D02*
X157483133Y-103039366D01*
X157483133Y-103039366D02*
X157483133Y-103139366D01*
X157483133Y-103139366D02*
X157449800Y-103206033D01*
X157449800Y-103206033D02*
X157416467Y-103239366D01*
X157416467Y-103239366D02*
X157349800Y-103272700D01*
X157349800Y-103272700D02*
X157083133Y-103272700D01*
X158016467Y-103239366D02*
X157783133Y-103239366D01*
X157783133Y-103606033D02*
X157783133Y-102906033D01*
X157783133Y-102906033D02*
X158116467Y-102906033D01*
X132353399Y-121792433D02*
X132120066Y-121459100D01*
X131953399Y-121792433D02*
X131953399Y-121092433D01*
X131953399Y-121092433D02*
X132220066Y-121092433D01*
X132220066Y-121092433D02*
X132286733Y-121125766D01*
X132286733Y-121125766D02*
X132320066Y-121159100D01*
X132320066Y-121159100D02*
X132353399Y-121225766D01*
X132353399Y-121225766D02*
X132353399Y-121325766D01*
X132353399Y-121325766D02*
X132320066Y-121392433D01*
X132320066Y-121392433D02*
X132286733Y-121425766D01*
X132286733Y-121425766D02*
X132220066Y-121459100D01*
X132220066Y-121459100D02*
X131953399Y-121459100D01*
X132586733Y-121092433D02*
X133053399Y-121792433D01*
X133053399Y-121092433D02*
X132586733Y-121792433D01*
X133653400Y-121792433D02*
X133320066Y-121792433D01*
X133320066Y-121792433D02*
X133320066Y-121092433D01*
X133886733Y-121425766D02*
X134120067Y-121425766D01*
X134220067Y-121792433D02*
X133886733Y-121792433D01*
X133886733Y-121792433D02*
X133886733Y-121092433D01*
X133886733Y-121092433D02*
X134220067Y-121092433D01*
X134520066Y-121792433D02*
X134520066Y-121092433D01*
X134520066Y-121092433D02*
X134686733Y-121092433D01*
X134686733Y-121092433D02*
X134786733Y-121125766D01*
X134786733Y-121125766D02*
X134853400Y-121192433D01*
X134853400Y-121192433D02*
X134886733Y-121259100D01*
X134886733Y-121259100D02*
X134920066Y-121392433D01*
X134920066Y-121392433D02*
X134920066Y-121492433D01*
X134920066Y-121492433D02*
X134886733Y-121625766D01*
X134886733Y-121625766D02*
X134853400Y-121692433D01*
X134853400Y-121692433D02*
X134786733Y-121759100D01*
X134786733Y-121759100D02*
X134686733Y-121792433D01*
X134686733Y-121792433D02*
X134520066Y-121792433D01*
X135186733Y-121159100D02*
X135220066Y-121125766D01*
X135220066Y-121125766D02*
X135286733Y-121092433D01*
X135286733Y-121092433D02*
X135453400Y-121092433D01*
X135453400Y-121092433D02*
X135520066Y-121125766D01*
X135520066Y-121125766D02*
X135553400Y-121159100D01*
X135553400Y-121159100D02*
X135586733Y-121225766D01*
X135586733Y-121225766D02*
X135586733Y-121292433D01*
X135586733Y-121292433D02*
X135553400Y-121392433D01*
X135553400Y-121392433D02*
X135153400Y-121792433D01*
X135153400Y-121792433D02*
X135586733Y-121792433D01*
X129032324Y-116029019D02*
X129651371Y-116029019D01*
X129651371Y-116029019D02*
X129318038Y-116409971D01*
X129318038Y-116409971D02*
X129460895Y-116409971D01*
X129460895Y-116409971D02*
X129556133Y-116457590D01*
X129556133Y-116457590D02*
X129603752Y-116505209D01*
X129603752Y-116505209D02*
X129651371Y-116600447D01*
X129651371Y-116600447D02*
X129651371Y-116838542D01*
X129651371Y-116838542D02*
X129603752Y-116933780D01*
X129603752Y-116933780D02*
X129556133Y-116981400D01*
X129556133Y-116981400D02*
X129460895Y-117029019D01*
X129460895Y-117029019D02*
X129175181Y-117029019D01*
X129175181Y-117029019D02*
X129079943Y-116981400D01*
X129079943Y-116981400D02*
X129032324Y-116933780D01*
X129984705Y-116362352D02*
X130222800Y-117029019D01*
X130222800Y-117029019D02*
X130460895Y-116362352D01*
X130746610Y-116029019D02*
X131365657Y-116029019D01*
X131365657Y-116029019D02*
X131032324Y-116409971D01*
X131032324Y-116409971D02*
X131175181Y-116409971D01*
X131175181Y-116409971D02*
X131270419Y-116457590D01*
X131270419Y-116457590D02*
X131318038Y-116505209D01*
X131318038Y-116505209D02*
X131365657Y-116600447D01*
X131365657Y-116600447D02*
X131365657Y-116838542D01*
X131365657Y-116838542D02*
X131318038Y-116933780D01*
X131318038Y-116933780D02*
X131270419Y-116981400D01*
X131270419Y-116981400D02*
X131175181Y-117029019D01*
X131175181Y-117029019D02*
X130889467Y-117029019D01*
X130889467Y-117029019D02*
X130794229Y-116981400D01*
X130794229Y-116981400D02*
X130746610Y-116933780D01*
X148599733Y-88247247D02*
X148333067Y-88247247D01*
X148333067Y-88666295D02*
X148333067Y-87866295D01*
X148333067Y-87866295D02*
X148714019Y-87866295D01*
X149437828Y-88666295D02*
X148980685Y-88666295D01*
X149209257Y-88666295D02*
X149209257Y-87866295D01*
X149209257Y-87866295D02*
X149133066Y-87980580D01*
X149133066Y-87980580D02*
X149056876Y-88056771D01*
X149056876Y-88056771D02*
X148980685Y-88094866D01*
X120616966Y-86117000D02*
X120650300Y-86150333D01*
X120650300Y-86150333D02*
X120683633Y-86250333D01*
X120683633Y-86250333D02*
X120683633Y-86317000D01*
X120683633Y-86317000D02*
X120650300Y-86417000D01*
X120650300Y-86417000D02*
X120583633Y-86483667D01*
X120583633Y-86483667D02*
X120516966Y-86517000D01*
X120516966Y-86517000D02*
X120383633Y-86550333D01*
X120383633Y-86550333D02*
X120283633Y-86550333D01*
X120283633Y-86550333D02*
X120150300Y-86517000D01*
X120150300Y-86517000D02*
X120083633Y-86483667D01*
X120083633Y-86483667D02*
X120016966Y-86417000D01*
X120016966Y-86417000D02*
X119983633Y-86317000D01*
X119983633Y-86317000D02*
X119983633Y-86250333D01*
X119983633Y-86250333D02*
X120016966Y-86150333D01*
X120016966Y-86150333D02*
X120050300Y-86117000D01*
X120683633Y-85417000D02*
X120350300Y-85650333D01*
X120683633Y-85817000D02*
X119983633Y-85817000D01*
X119983633Y-85817000D02*
X119983633Y-85550333D01*
X119983633Y-85550333D02*
X120016966Y-85483667D01*
X120016966Y-85483667D02*
X120050300Y-85450333D01*
X120050300Y-85450333D02*
X120116966Y-85417000D01*
X120116966Y-85417000D02*
X120216966Y-85417000D01*
X120216966Y-85417000D02*
X120283633Y-85450333D01*
X120283633Y-85450333D02*
X120316966Y-85483667D01*
X120316966Y-85483667D02*
X120350300Y-85550333D01*
X120350300Y-85550333D02*
X120350300Y-85817000D01*
X119983633Y-85183667D02*
X120683633Y-84717000D01*
X119983633Y-84717000D02*
X120683633Y-85183667D01*
X120683633Y-84117000D02*
X120683633Y-84450333D01*
X120683633Y-84450333D02*
X119983633Y-84450333D01*
X120316966Y-83883666D02*
X120316966Y-83650333D01*
X120683633Y-83550333D02*
X120683633Y-83883666D01*
X120683633Y-83883666D02*
X119983633Y-83883666D01*
X119983633Y-83883666D02*
X119983633Y-83550333D01*
X120683633Y-83250333D02*
X119983633Y-83250333D01*
X119983633Y-83250333D02*
X119983633Y-83083666D01*
X119983633Y-83083666D02*
X120016966Y-82983666D01*
X120016966Y-82983666D02*
X120083633Y-82917000D01*
X120083633Y-82917000D02*
X120150300Y-82883666D01*
X120150300Y-82883666D02*
X120283633Y-82850333D01*
X120283633Y-82850333D02*
X120383633Y-82850333D01*
X120383633Y-82850333D02*
X120516966Y-82883666D01*
X120516966Y-82883666D02*
X120583633Y-82917000D01*
X120583633Y-82917000D02*
X120650300Y-82983666D01*
X120650300Y-82983666D02*
X120683633Y-83083666D01*
X120683633Y-83083666D02*
X120683633Y-83250333D01*
X120683633Y-82183666D02*
X120683633Y-82583666D01*
X120683633Y-82383666D02*
X119983633Y-82383666D01*
X119983633Y-82383666D02*
X120083633Y-82450333D01*
X120083633Y-82450333D02*
X120150300Y-82517000D01*
X120150300Y-82517000D02*
X120183633Y-82583666D01*
X153227533Y-93939833D02*
X153227533Y-94506500D01*
X153227533Y-94506500D02*
X153260867Y-94573166D01*
X153260867Y-94573166D02*
X153294200Y-94606500D01*
X153294200Y-94606500D02*
X153360867Y-94639833D01*
X153360867Y-94639833D02*
X153494200Y-94639833D01*
X153494200Y-94639833D02*
X153560867Y-94606500D01*
X153560867Y-94606500D02*
X153594200Y-94573166D01*
X153594200Y-94573166D02*
X153627533Y-94506500D01*
X153627533Y-94506500D02*
X153627533Y-93939833D01*
X153927533Y-94606500D02*
X154027533Y-94639833D01*
X154027533Y-94639833D02*
X154194200Y-94639833D01*
X154194200Y-94639833D02*
X154260866Y-94606500D01*
X154260866Y-94606500D02*
X154294200Y-94573166D01*
X154294200Y-94573166D02*
X154327533Y-94506500D01*
X154327533Y-94506500D02*
X154327533Y-94439833D01*
X154327533Y-94439833D02*
X154294200Y-94373166D01*
X154294200Y-94373166D02*
X154260866Y-94339833D01*
X154260866Y-94339833D02*
X154194200Y-94306500D01*
X154194200Y-94306500D02*
X154060866Y-94273166D01*
X154060866Y-94273166D02*
X153994200Y-94239833D01*
X153994200Y-94239833D02*
X153960866Y-94206500D01*
X153960866Y-94206500D02*
X153927533Y-94139833D01*
X153927533Y-94139833D02*
X153927533Y-94073166D01*
X153927533Y-94073166D02*
X153960866Y-94006500D01*
X153960866Y-94006500D02*
X153994200Y-93973166D01*
X153994200Y-93973166D02*
X154060866Y-93939833D01*
X154060866Y-93939833D02*
X154227533Y-93939833D01*
X154227533Y-93939833D02*
X154327533Y-93973166D01*
X154860867Y-94273166D02*
X154960867Y-94306500D01*
X154960867Y-94306500D02*
X154994200Y-94339833D01*
X154994200Y-94339833D02*
X155027533Y-94406500D01*
X155027533Y-94406500D02*
X155027533Y-94506500D01*
X155027533Y-94506500D02*
X154994200Y-94573166D01*
X154994200Y-94573166D02*
X154960867Y-94606500D01*
X154960867Y-94606500D02*
X154894200Y-94639833D01*
X154894200Y-94639833D02*
X154627533Y-94639833D01*
X154627533Y-94639833D02*
X154627533Y-93939833D01*
X154627533Y-93939833D02*
X154860867Y-93939833D01*
X154860867Y-93939833D02*
X154927533Y-93973166D01*
X154927533Y-93973166D02*
X154960867Y-94006500D01*
X154960867Y-94006500D02*
X154994200Y-94073166D01*
X154994200Y-94073166D02*
X154994200Y-94139833D01*
X154994200Y-94139833D02*
X154960867Y-94206500D01*
X154960867Y-94206500D02*
X154927533Y-94239833D01*
X154927533Y-94239833D02*
X154860867Y-94273166D01*
X154860867Y-94273166D02*
X154627533Y-94273166D01*
X155660867Y-94639833D02*
X155327533Y-94639833D01*
X155327533Y-94639833D02*
X155327533Y-93939833D01*
X155894200Y-94273166D02*
X156127534Y-94273166D01*
X156227534Y-94639833D02*
X155894200Y-94639833D01*
X155894200Y-94639833D02*
X155894200Y-93939833D01*
X155894200Y-93939833D02*
X156227534Y-93939833D01*
X156527533Y-94639833D02*
X156527533Y-93939833D01*
X156527533Y-93939833D02*
X156694200Y-93939833D01*
X156694200Y-93939833D02*
X156794200Y-93973166D01*
X156794200Y-93973166D02*
X156860867Y-94039833D01*
X156860867Y-94039833D02*
X156894200Y-94106500D01*
X156894200Y-94106500D02*
X156927533Y-94239833D01*
X156927533Y-94239833D02*
X156927533Y-94339833D01*
X156927533Y-94339833D02*
X156894200Y-94473166D01*
X156894200Y-94473166D02*
X156860867Y-94539833D01*
X156860867Y-94539833D02*
X156794200Y-94606500D01*
X156794200Y-94606500D02*
X156694200Y-94639833D01*
X156694200Y-94639833D02*
X156527533Y-94639833D01*
X157594200Y-94639833D02*
X157194200Y-94639833D01*
X157394200Y-94639833D02*
X157394200Y-93939833D01*
X157394200Y-93939833D02*
X157327533Y-94039833D01*
X157327533Y-94039833D02*
X157260867Y-94106500D01*
X157260867Y-94106500D02*
X157194200Y-94139833D01*
X151044524Y-85262695D02*
X151044524Y-84462695D01*
X151044524Y-84462695D02*
X151235000Y-84462695D01*
X151235000Y-84462695D02*
X151349286Y-84500790D01*
X151349286Y-84500790D02*
X151425476Y-84576980D01*
X151425476Y-84576980D02*
X151463571Y-84653171D01*
X151463571Y-84653171D02*
X151501667Y-84805552D01*
X151501667Y-84805552D02*
X151501667Y-84919838D01*
X151501667Y-84919838D02*
X151463571Y-85072219D01*
X151463571Y-85072219D02*
X151425476Y-85148409D01*
X151425476Y-85148409D02*
X151349286Y-85224600D01*
X151349286Y-85224600D02*
X151235000Y-85262695D01*
X151235000Y-85262695D02*
X151044524Y-85262695D01*
X151806428Y-84538885D02*
X151844524Y-84500790D01*
X151844524Y-84500790D02*
X151920714Y-84462695D01*
X151920714Y-84462695D02*
X152111190Y-84462695D01*
X152111190Y-84462695D02*
X152187381Y-84500790D01*
X152187381Y-84500790D02*
X152225476Y-84538885D01*
X152225476Y-84538885D02*
X152263571Y-84615076D01*
X152263571Y-84615076D02*
X152263571Y-84691266D01*
X152263571Y-84691266D02*
X152225476Y-84805552D01*
X152225476Y-84805552D02*
X151768333Y-85262695D01*
X151768333Y-85262695D02*
X152263571Y-85262695D01*
X123373800Y-83576633D02*
X123807133Y-83576633D01*
X123807133Y-83576633D02*
X123573800Y-83843300D01*
X123573800Y-83843300D02*
X123673800Y-83843300D01*
X123673800Y-83843300D02*
X123740466Y-83876633D01*
X123740466Y-83876633D02*
X123773800Y-83909966D01*
X123773800Y-83909966D02*
X123807133Y-83976633D01*
X123807133Y-83976633D02*
X123807133Y-84143300D01*
X123807133Y-84143300D02*
X123773800Y-84209966D01*
X123773800Y-84209966D02*
X123740466Y-84243300D01*
X123740466Y-84243300D02*
X123673800Y-84276633D01*
X123673800Y-84276633D02*
X123473800Y-84276633D01*
X123473800Y-84276633D02*
X123407133Y-84243300D01*
X123407133Y-84243300D02*
X123373800Y-84209966D01*
X124007133Y-83576633D02*
X124240467Y-84276633D01*
X124240467Y-84276633D02*
X124473800Y-83576633D01*
X124640467Y-83576633D02*
X125073800Y-83576633D01*
X125073800Y-83576633D02*
X124840467Y-83843300D01*
X124840467Y-83843300D02*
X124940467Y-83843300D01*
X124940467Y-83843300D02*
X125007133Y-83876633D01*
X125007133Y-83876633D02*
X125040467Y-83909966D01*
X125040467Y-83909966D02*
X125073800Y-83976633D01*
X125073800Y-83976633D02*
X125073800Y-84143300D01*
X125073800Y-84143300D02*
X125040467Y-84209966D01*
X125040467Y-84209966D02*
X125007133Y-84243300D01*
X125007133Y-84243300D02*
X124940467Y-84276633D01*
X124940467Y-84276633D02*
X124740467Y-84276633D01*
X124740467Y-84276633D02*
X124673800Y-84243300D01*
X124673800Y-84243300D02*
X124640467Y-84209966D01*
X125707134Y-84276633D02*
X125373800Y-84276633D01*
X125373800Y-84276633D02*
X125373800Y-83576633D01*
X125940467Y-83909966D02*
X126173801Y-83909966D01*
X126273801Y-84276633D02*
X125940467Y-84276633D01*
X125940467Y-84276633D02*
X125940467Y-83576633D01*
X125940467Y-83576633D02*
X126273801Y-83576633D01*
X126573800Y-84276633D02*
X126573800Y-83576633D01*
X126573800Y-83576633D02*
X126740467Y-83576633D01*
X126740467Y-83576633D02*
X126840467Y-83609966D01*
X126840467Y-83609966D02*
X126907134Y-83676633D01*
X126907134Y-83676633D02*
X126940467Y-83743300D01*
X126940467Y-83743300D02*
X126973800Y-83876633D01*
X126973800Y-83876633D02*
X126973800Y-83976633D01*
X126973800Y-83976633D02*
X126940467Y-84109966D01*
X126940467Y-84109966D02*
X126907134Y-84176633D01*
X126907134Y-84176633D02*
X126840467Y-84243300D01*
X126840467Y-84243300D02*
X126740467Y-84276633D01*
X126740467Y-84276633D02*
X126573800Y-84276633D01*
X127640467Y-84276633D02*
X127240467Y-84276633D01*
X127440467Y-84276633D02*
X127440467Y-83576633D01*
X127440467Y-83576633D02*
X127373800Y-83676633D01*
X127373800Y-83676633D02*
X127307134Y-83743300D01*
X127307134Y-83743300D02*
X127240467Y-83776633D01*
X157296066Y-84304419D02*
X157296066Y-85018704D01*
X157296066Y-85018704D02*
X157248447Y-85161561D01*
X157248447Y-85161561D02*
X157153209Y-85256800D01*
X157153209Y-85256800D02*
X157010352Y-85304419D01*
X157010352Y-85304419D02*
X156915114Y-85304419D01*
X157724638Y-84399657D02*
X157772257Y-84352038D01*
X157772257Y-84352038D02*
X157867495Y-84304419D01*
X157867495Y-84304419D02*
X158105590Y-84304419D01*
X158105590Y-84304419D02*
X158200828Y-84352038D01*
X158200828Y-84352038D02*
X158248447Y-84399657D01*
X158248447Y-84399657D02*
X158296066Y-84494895D01*
X158296066Y-84494895D02*
X158296066Y-84590133D01*
X158296066Y-84590133D02*
X158248447Y-84732990D01*
X158248447Y-84732990D02*
X157677019Y-85304419D01*
X157677019Y-85304419D02*
X158296066Y-85304419D01*
X148263248Y-115036095D02*
X148263248Y-114236095D01*
X149101343Y-114959904D02*
X149063247Y-114998000D01*
X149063247Y-114998000D02*
X148948962Y-115036095D01*
X148948962Y-115036095D02*
X148872771Y-115036095D01*
X148872771Y-115036095D02*
X148758485Y-114998000D01*
X148758485Y-114998000D02*
X148682295Y-114921809D01*
X148682295Y-114921809D02*
X148644200Y-114845619D01*
X148644200Y-114845619D02*
X148606104Y-114693238D01*
X148606104Y-114693238D02*
X148606104Y-114578952D01*
X148606104Y-114578952D02*
X148644200Y-114426571D01*
X148644200Y-114426571D02*
X148682295Y-114350380D01*
X148682295Y-114350380D02*
X148758485Y-114274190D01*
X148758485Y-114274190D02*
X148872771Y-114236095D01*
X148872771Y-114236095D02*
X148948962Y-114236095D01*
X148948962Y-114236095D02*
X149063247Y-114274190D01*
X149063247Y-114274190D02*
X149101343Y-114312285D01*
X149406104Y-114312285D02*
X149444200Y-114274190D01*
X149444200Y-114274190D02*
X149520390Y-114236095D01*
X149520390Y-114236095D02*
X149710866Y-114236095D01*
X149710866Y-114236095D02*
X149787057Y-114274190D01*
X149787057Y-114274190D02*
X149825152Y-114312285D01*
X149825152Y-114312285D02*
X149863247Y-114388476D01*
X149863247Y-114388476D02*
X149863247Y-114464666D01*
X149863247Y-114464666D02*
X149825152Y-114578952D01*
X149825152Y-114578952D02*
X149368009Y-115036095D01*
X149368009Y-115036095D02*
X149863247Y-115036095D01*
X127948933Y-121067033D02*
X128348933Y-121067033D01*
X128148933Y-121767033D02*
X128148933Y-121067033D01*
X128515600Y-121067033D02*
X128982266Y-121767033D01*
X128982266Y-121067033D02*
X128515600Y-121767033D01*
X129582267Y-121767033D02*
X129248933Y-121767033D01*
X129248933Y-121767033D02*
X129248933Y-121067033D01*
X129815600Y-121400366D02*
X130048934Y-121400366D01*
X130148934Y-121767033D02*
X129815600Y-121767033D01*
X129815600Y-121767033D02*
X129815600Y-121067033D01*
X129815600Y-121067033D02*
X130148934Y-121067033D01*
X130448933Y-121767033D02*
X130448933Y-121067033D01*
X130448933Y-121067033D02*
X130615600Y-121067033D01*
X130615600Y-121067033D02*
X130715600Y-121100366D01*
X130715600Y-121100366D02*
X130782267Y-121167033D01*
X130782267Y-121167033D02*
X130815600Y-121233700D01*
X130815600Y-121233700D02*
X130848933Y-121367033D01*
X130848933Y-121367033D02*
X130848933Y-121467033D01*
X130848933Y-121467033D02*
X130815600Y-121600366D01*
X130815600Y-121600366D02*
X130782267Y-121667033D01*
X130782267Y-121667033D02*
X130715600Y-121733700D01*
X130715600Y-121733700D02*
X130615600Y-121767033D01*
X130615600Y-121767033D02*
X130448933Y-121767033D01*
X131515600Y-121767033D02*
X131115600Y-121767033D01*
X131315600Y-121767033D02*
X131315600Y-121067033D01*
X131315600Y-121067033D02*
X131248933Y-121167033D01*
X131248933Y-121167033D02*
X131182267Y-121233700D01*
X131182267Y-121233700D02*
X131115600Y-121267033D01*
D12*
X129359276Y-83088495D02*
X129359276Y-83736114D01*
X129359276Y-83736114D02*
X129397371Y-83812304D01*
X129397371Y-83812304D02*
X129435466Y-83850400D01*
X129435466Y-83850400D02*
X129511657Y-83888495D01*
X129511657Y-83888495D02*
X129664038Y-83888495D01*
X129664038Y-83888495D02*
X129740228Y-83850400D01*
X129740228Y-83850400D02*
X129778323Y-83812304D01*
X129778323Y-83812304D02*
X129816419Y-83736114D01*
X129816419Y-83736114D02*
X129816419Y-83088495D01*
X130121180Y-83088495D02*
X130616418Y-83088495D01*
X130616418Y-83088495D02*
X130349752Y-83393257D01*
X130349752Y-83393257D02*
X130464037Y-83393257D01*
X130464037Y-83393257D02*
X130540228Y-83431352D01*
X130540228Y-83431352D02*
X130578323Y-83469447D01*
X130578323Y-83469447D02*
X130616418Y-83545638D01*
X130616418Y-83545638D02*
X130616418Y-83736114D01*
X130616418Y-83736114D02*
X130578323Y-83812304D01*
X130578323Y-83812304D02*
X130540228Y-83850400D01*
X130540228Y-83850400D02*
X130464037Y-83888495D01*
X130464037Y-83888495D02*
X130235466Y-83888495D01*
X130235466Y-83888495D02*
X130159275Y-83850400D01*
X130159275Y-83850400D02*
X130121180Y-83812304D01*
D10*
X142414924Y-119006695D02*
X142414924Y-119654314D01*
X142414924Y-119654314D02*
X142453019Y-119730504D01*
X142453019Y-119730504D02*
X142491114Y-119768600D01*
X142491114Y-119768600D02*
X142567305Y-119806695D01*
X142567305Y-119806695D02*
X142719686Y-119806695D01*
X142719686Y-119806695D02*
X142795876Y-119768600D01*
X142795876Y-119768600D02*
X142833971Y-119730504D01*
X142833971Y-119730504D02*
X142872067Y-119654314D01*
X142872067Y-119654314D02*
X142872067Y-119006695D01*
X143672066Y-119806695D02*
X143214923Y-119806695D01*
X143443495Y-119806695D02*
X143443495Y-119006695D01*
X143443495Y-119006695D02*
X143367304Y-119120980D01*
X143367304Y-119120980D02*
X143291114Y-119197171D01*
X143291114Y-119197171D02*
X143214923Y-119235266D01*
X143976828Y-119082885D02*
X144014924Y-119044790D01*
X144014924Y-119044790D02*
X144091114Y-119006695D01*
X144091114Y-119006695D02*
X144281590Y-119006695D01*
X144281590Y-119006695D02*
X144357781Y-119044790D01*
X144357781Y-119044790D02*
X144395876Y-119082885D01*
X144395876Y-119082885D02*
X144433971Y-119159076D01*
X144433971Y-119159076D02*
X144433971Y-119235266D01*
X144433971Y-119235266D02*
X144395876Y-119349552D01*
X144395876Y-119349552D02*
X143938733Y-119806695D01*
X143938733Y-119806695D02*
X144433971Y-119806695D01*
X144534999Y-120240019D02*
X144534999Y-120478114D01*
X144296904Y-120382876D02*
X144534999Y-120478114D01*
X144534999Y-120478114D02*
X144773094Y-120382876D01*
X144392142Y-120668590D02*
X144534999Y-120478114D01*
X144534999Y-120478114D02*
X144677856Y-120668590D01*
X144534999Y-120240019D02*
X144534999Y-120478114D01*
X144296904Y-120382876D02*
X144534999Y-120478114D01*
X144534999Y-120478114D02*
X144773094Y-120382876D01*
X144392142Y-120668590D02*
X144534999Y-120478114D01*
X144534999Y-120478114D02*
X144677856Y-120668590D01*
X141430800Y-103961633D02*
X141430800Y-103261633D01*
X141430800Y-103261633D02*
X141597467Y-103261633D01*
X141597467Y-103261633D02*
X141697467Y-103294966D01*
X141697467Y-103294966D02*
X141764134Y-103361633D01*
X141764134Y-103361633D02*
X141797467Y-103428300D01*
X141797467Y-103428300D02*
X141830800Y-103561633D01*
X141830800Y-103561633D02*
X141830800Y-103661633D01*
X141830800Y-103661633D02*
X141797467Y-103794966D01*
X141797467Y-103794966D02*
X141764134Y-103861633D01*
X141764134Y-103861633D02*
X141697467Y-103928300D01*
X141697467Y-103928300D02*
X141597467Y-103961633D01*
X141597467Y-103961633D02*
X141430800Y-103961633D01*
X142130800Y-103961633D02*
X142130800Y-103261633D01*
X142597467Y-103261633D02*
X142730800Y-103261633D01*
X142730800Y-103261633D02*
X142797467Y-103294966D01*
X142797467Y-103294966D02*
X142864133Y-103361633D01*
X142864133Y-103361633D02*
X142897467Y-103494966D01*
X142897467Y-103494966D02*
X142897467Y-103728300D01*
X142897467Y-103728300D02*
X142864133Y-103861633D01*
X142864133Y-103861633D02*
X142797467Y-103928300D01*
X142797467Y-103928300D02*
X142730800Y-103961633D01*
X142730800Y-103961633D02*
X142597467Y-103961633D01*
X142597467Y-103961633D02*
X142530800Y-103928300D01*
X142530800Y-103928300D02*
X142464133Y-103861633D01*
X142464133Y-103861633D02*
X142430800Y-103728300D01*
X142430800Y-103728300D02*
X142430800Y-103494966D01*
X142430800Y-103494966D02*
X142464133Y-103361633D01*
X142464133Y-103361633D02*
X142530800Y-103294966D01*
X142530800Y-103294966D02*
X142597467Y-103261633D01*
X143130800Y-103261633D02*
X143564133Y-103261633D01*
X143564133Y-103261633D02*
X143330800Y-103528300D01*
X143330800Y-103528300D02*
X143430800Y-103528300D01*
X143430800Y-103528300D02*
X143497466Y-103561633D01*
X143497466Y-103561633D02*
X143530800Y-103594966D01*
X143530800Y-103594966D02*
X143564133Y-103661633D01*
X143564133Y-103661633D02*
X143564133Y-103828300D01*
X143564133Y-103828300D02*
X143530800Y-103894966D01*
X143530800Y-103894966D02*
X143497466Y-103928300D01*
X143497466Y-103928300D02*
X143430800Y-103961633D01*
X143430800Y-103961633D02*
X143230800Y-103961633D01*
X143230800Y-103961633D02*
X143164133Y-103928300D01*
X143164133Y-103928300D02*
X143130800Y-103894966D01*
X143697467Y-104028300D02*
X144230800Y-104028300D01*
X144397466Y-103961633D02*
X144397466Y-103261633D01*
X144397466Y-103261633D02*
X144564133Y-103261633D01*
X144564133Y-103261633D02*
X144664133Y-103294966D01*
X144664133Y-103294966D02*
X144730800Y-103361633D01*
X144730800Y-103361633D02*
X144764133Y-103428300D01*
X144764133Y-103428300D02*
X144797466Y-103561633D01*
X144797466Y-103561633D02*
X144797466Y-103661633D01*
X144797466Y-103661633D02*
X144764133Y-103794966D01*
X144764133Y-103794966D02*
X144730800Y-103861633D01*
X144730800Y-103861633D02*
X144664133Y-103928300D01*
X144664133Y-103928300D02*
X144564133Y-103961633D01*
X144564133Y-103961633D02*
X144397466Y-103961633D01*
X145464133Y-103961633D02*
X145064133Y-103961633D01*
X145264133Y-103961633D02*
X145264133Y-103261633D01*
X145264133Y-103261633D02*
X145197466Y-103361633D01*
X145197466Y-103361633D02*
X145130800Y-103428300D01*
X145130800Y-103428300D02*
X145064133Y-103461633D01*
X148031809Y-129214704D02*
X148507999Y-129214704D01*
X147936571Y-129500419D02*
X148269904Y-128500419D01*
X148269904Y-128500419D02*
X148603237Y-129500419D01*
X148936571Y-129500419D02*
X148936571Y-128500419D01*
X148936571Y-128500419D02*
X149507999Y-129500419D01*
X149507999Y-129500419D02*
X149507999Y-128500419D01*
X149841333Y-128500419D02*
X150412761Y-128500419D01*
X150127047Y-129500419D02*
X150127047Y-128500419D01*
X150508000Y-129595657D02*
X151269904Y-129595657D01*
X151460381Y-129452800D02*
X151603238Y-129500419D01*
X151603238Y-129500419D02*
X151841333Y-129500419D01*
X151841333Y-129500419D02*
X151936571Y-129452800D01*
X151936571Y-129452800D02*
X151984190Y-129405180D01*
X151984190Y-129405180D02*
X152031809Y-129309942D01*
X152031809Y-129309942D02*
X152031809Y-129214704D01*
X152031809Y-129214704D02*
X151984190Y-129119466D01*
X151984190Y-129119466D02*
X151936571Y-129071847D01*
X151936571Y-129071847D02*
X151841333Y-129024228D01*
X151841333Y-129024228D02*
X151650857Y-128976609D01*
X151650857Y-128976609D02*
X151555619Y-128928990D01*
X151555619Y-128928990D02*
X151508000Y-128881371D01*
X151508000Y-128881371D02*
X151460381Y-128786133D01*
X151460381Y-128786133D02*
X151460381Y-128690895D01*
X151460381Y-128690895D02*
X151508000Y-128595657D01*
X151508000Y-128595657D02*
X151555619Y-128548038D01*
X151555619Y-128548038D02*
X151650857Y-128500419D01*
X151650857Y-128500419D02*
X151888952Y-128500419D01*
X151888952Y-128500419D02*
X152031809Y-128548038D01*
X152460381Y-129500419D02*
X152460381Y-128500419D01*
X152460381Y-128500419D02*
X152793714Y-129214704D01*
X152793714Y-129214704D02*
X153127047Y-128500419D01*
X153127047Y-128500419D02*
X153127047Y-129500419D01*
X153555619Y-129214704D02*
X154031809Y-129214704D01*
X153460381Y-129500419D02*
X153793714Y-128500419D01*
X153793714Y-128500419D02*
X154127047Y-129500419D01*
X154984190Y-129500419D02*
X154412762Y-129500419D01*
X154698476Y-129500419D02*
X154698476Y-128500419D01*
X154698476Y-128500419D02*
X154603238Y-128643276D01*
X154603238Y-128643276D02*
X154508000Y-128738514D01*
X154508000Y-128738514D02*
X154412762Y-128786133D01*
X138404799Y-111357633D02*
X138171466Y-111024300D01*
X138004799Y-111357633D02*
X138004799Y-110657633D01*
X138004799Y-110657633D02*
X138271466Y-110657633D01*
X138271466Y-110657633D02*
X138338133Y-110690966D01*
X138338133Y-110690966D02*
X138371466Y-110724300D01*
X138371466Y-110724300D02*
X138404799Y-110790966D01*
X138404799Y-110790966D02*
X138404799Y-110890966D01*
X138404799Y-110890966D02*
X138371466Y-110957633D01*
X138371466Y-110957633D02*
X138338133Y-110990966D01*
X138338133Y-110990966D02*
X138271466Y-111024300D01*
X138271466Y-111024300D02*
X138004799Y-111024300D01*
X138638133Y-110657633D02*
X139071466Y-110657633D01*
X139071466Y-110657633D02*
X138838133Y-110924300D01*
X138838133Y-110924300D02*
X138938133Y-110924300D01*
X138938133Y-110924300D02*
X139004799Y-110957633D01*
X139004799Y-110957633D02*
X139038133Y-110990966D01*
X139038133Y-110990966D02*
X139071466Y-111057633D01*
X139071466Y-111057633D02*
X139071466Y-111224300D01*
X139071466Y-111224300D02*
X139038133Y-111290966D01*
X139038133Y-111290966D02*
X139004799Y-111324300D01*
X139004799Y-111324300D02*
X138938133Y-111357633D01*
X138938133Y-111357633D02*
X138738133Y-111357633D01*
X138738133Y-111357633D02*
X138671466Y-111324300D01*
X138671466Y-111324300D02*
X138638133Y-111290966D01*
X139671466Y-110890966D02*
X139671466Y-111357633D01*
X139504800Y-110624300D02*
X139338133Y-111124300D01*
X139338133Y-111124300D02*
X139771466Y-111124300D01*
X119281295Y-92526666D02*
X119852723Y-92526666D01*
X119852723Y-92526666D02*
X119967009Y-92564761D01*
X119967009Y-92564761D02*
X120043200Y-92640952D01*
X120043200Y-92640952D02*
X120081295Y-92755237D01*
X120081295Y-92755237D02*
X120081295Y-92831428D01*
X120081295Y-92145713D02*
X119281295Y-92145713D01*
X119281295Y-92145713D02*
X119281295Y-91840951D01*
X119281295Y-91840951D02*
X119319390Y-91764761D01*
X119319390Y-91764761D02*
X119357485Y-91726666D01*
X119357485Y-91726666D02*
X119433676Y-91688570D01*
X119433676Y-91688570D02*
X119547961Y-91688570D01*
X119547961Y-91688570D02*
X119624152Y-91726666D01*
X119624152Y-91726666D02*
X119662247Y-91764761D01*
X119662247Y-91764761D02*
X119700342Y-91840951D01*
X119700342Y-91840951D02*
X119700342Y-92145713D01*
X120081295Y-90926666D02*
X120081295Y-91383809D01*
X120081295Y-91155237D02*
X119281295Y-91155237D01*
X119281295Y-91155237D02*
X119395580Y-91231428D01*
X119395580Y-91231428D02*
X119471771Y-91307618D01*
X119471771Y-91307618D02*
X119509866Y-91383809D01*
X136572848Y-95930742D02*
X136572848Y-96311695D01*
X136306181Y-95511695D02*
X136572848Y-95930742D01*
X136572848Y-95930742D02*
X136839514Y-95511695D01*
X137525228Y-96311695D02*
X137068085Y-96311695D01*
X137296657Y-96311695D02*
X137296657Y-95511695D01*
X137296657Y-95511695D02*
X137220466Y-95625980D01*
X137220466Y-95625980D02*
X137144276Y-95702171D01*
X137144276Y-95702171D02*
X137068085Y-95740266D01*
X128293600Y-124803966D02*
X128526934Y-124803966D01*
X128626934Y-125170633D02*
X128293600Y-125170633D01*
X128293600Y-125170633D02*
X128293600Y-124470633D01*
X128293600Y-124470633D02*
X128626934Y-124470633D01*
X128893600Y-125137300D02*
X128993600Y-125170633D01*
X128993600Y-125170633D02*
X129160267Y-125170633D01*
X129160267Y-125170633D02*
X129226933Y-125137300D01*
X129226933Y-125137300D02*
X129260267Y-125103966D01*
X129260267Y-125103966D02*
X129293600Y-125037300D01*
X129293600Y-125037300D02*
X129293600Y-124970633D01*
X129293600Y-124970633D02*
X129260267Y-124903966D01*
X129260267Y-124903966D02*
X129226933Y-124870633D01*
X129226933Y-124870633D02*
X129160267Y-124837300D01*
X129160267Y-124837300D02*
X129026933Y-124803966D01*
X129026933Y-124803966D02*
X128960267Y-124770633D01*
X128960267Y-124770633D02*
X128926933Y-124737300D01*
X128926933Y-124737300D02*
X128893600Y-124670633D01*
X128893600Y-124670633D02*
X128893600Y-124603966D01*
X128893600Y-124603966D02*
X128926933Y-124537300D01*
X128926933Y-124537300D02*
X128960267Y-124503966D01*
X128960267Y-124503966D02*
X129026933Y-124470633D01*
X129026933Y-124470633D02*
X129193600Y-124470633D01*
X129193600Y-124470633D02*
X129293600Y-124503966D01*
X129593600Y-125170633D02*
X129593600Y-124470633D01*
X129593600Y-124470633D02*
X129860267Y-124470633D01*
X129860267Y-124470633D02*
X129926934Y-124503966D01*
X129926934Y-124503966D02*
X129960267Y-124537300D01*
X129960267Y-124537300D02*
X129993600Y-124603966D01*
X129993600Y-124603966D02*
X129993600Y-124703966D01*
X129993600Y-124703966D02*
X129960267Y-124770633D01*
X129960267Y-124770633D02*
X129926934Y-124803966D01*
X129926934Y-124803966D02*
X129860267Y-124837300D01*
X129860267Y-124837300D02*
X129593600Y-124837300D01*
X130126934Y-125237300D02*
X130660267Y-125237300D01*
X130726933Y-124470633D02*
X131126933Y-124470633D01*
X130926933Y-125170633D02*
X130926933Y-124470633D01*
X131293600Y-124470633D02*
X131760266Y-125170633D01*
X131760266Y-124470633D02*
X131293600Y-125170633D01*
X131860267Y-125237300D02*
X132393600Y-125237300D01*
X132893600Y-125170633D02*
X132560266Y-125170633D01*
X132560266Y-125170633D02*
X132560266Y-124470633D01*
X133126933Y-124803966D02*
X133360267Y-124803966D01*
X133460267Y-125170633D02*
X133126933Y-125170633D01*
X133126933Y-125170633D02*
X133126933Y-124470633D01*
X133126933Y-124470633D02*
X133460267Y-124470633D01*
X133760266Y-125170633D02*
X133760266Y-124470633D01*
X133760266Y-124470633D02*
X133926933Y-124470633D01*
X133926933Y-124470633D02*
X134026933Y-124503966D01*
X134026933Y-124503966D02*
X134093600Y-124570633D01*
X134093600Y-124570633D02*
X134126933Y-124637300D01*
X134126933Y-124637300D02*
X134160266Y-124770633D01*
X134160266Y-124770633D02*
X134160266Y-124870633D01*
X134160266Y-124870633D02*
X134126933Y-125003966D01*
X134126933Y-125003966D02*
X134093600Y-125070633D01*
X134093600Y-125070633D02*
X134026933Y-125137300D01*
X134026933Y-125137300D02*
X133926933Y-125170633D01*
X133926933Y-125170633D02*
X133760266Y-125170633D01*
X134826933Y-125170633D02*
X134426933Y-125170633D01*
X134626933Y-125170633D02*
X134626933Y-124470633D01*
X134626933Y-124470633D02*
X134560266Y-124570633D01*
X134560266Y-124570633D02*
X134493600Y-124637300D01*
X134493600Y-124637300D02*
X134426933Y-124670633D01*
X154598939Y-108959217D02*
X154598939Y-109340170D01*
X154332272Y-108540170D02*
X154598939Y-108959217D01*
X154598939Y-108959217D02*
X154865605Y-108540170D01*
X155056081Y-108540170D02*
X155551319Y-108540170D01*
X155551319Y-108540170D02*
X155284653Y-108844932D01*
X155284653Y-108844932D02*
X155398938Y-108844932D01*
X155398938Y-108844932D02*
X155475129Y-108883027D01*
X155475129Y-108883027D02*
X155513224Y-108921122D01*
X155513224Y-108921122D02*
X155551319Y-108997313D01*
X155551319Y-108997313D02*
X155551319Y-109187789D01*
X155551319Y-109187789D02*
X155513224Y-109263979D01*
X155513224Y-109263979D02*
X155475129Y-109302075D01*
X155475129Y-109302075D02*
X155398938Y-109340170D01*
X155398938Y-109340170D02*
X155170367Y-109340170D01*
X155170367Y-109340170D02*
X155094176Y-109302075D01*
X155094176Y-109302075D02*
X155056081Y-109263979D01*
X124552638Y-129954095D02*
X124552638Y-130601714D01*
X124552638Y-130601714D02*
X124590733Y-130677904D01*
X124590733Y-130677904D02*
X124628828Y-130716000D01*
X124628828Y-130716000D02*
X124705019Y-130754095D01*
X124705019Y-130754095D02*
X124857400Y-130754095D01*
X124857400Y-130754095D02*
X124933590Y-130716000D01*
X124933590Y-130716000D02*
X124971685Y-130677904D01*
X124971685Y-130677904D02*
X125009781Y-130601714D01*
X125009781Y-130601714D02*
X125009781Y-129954095D01*
X125352637Y-130525523D02*
X125733590Y-130525523D01*
X125276447Y-130754095D02*
X125543114Y-129954095D01*
X125543114Y-129954095D02*
X125809780Y-130754095D01*
X126533590Y-130754095D02*
X126266923Y-130373142D01*
X126076447Y-130754095D02*
X126076447Y-129954095D01*
X126076447Y-129954095D02*
X126381209Y-129954095D01*
X126381209Y-129954095D02*
X126457399Y-129992190D01*
X126457399Y-129992190D02*
X126495494Y-130030285D01*
X126495494Y-130030285D02*
X126533590Y-130106476D01*
X126533590Y-130106476D02*
X126533590Y-130220761D01*
X126533590Y-130220761D02*
X126495494Y-130296952D01*
X126495494Y-130296952D02*
X126457399Y-130335047D01*
X126457399Y-130335047D02*
X126381209Y-130373142D01*
X126381209Y-130373142D02*
X126076447Y-130373142D01*
X126762161Y-129954095D02*
X127219304Y-129954095D01*
X126990732Y-130754095D02*
X126990732Y-129954095D01*
X127295495Y-130830285D02*
X127905018Y-130830285D01*
X128095495Y-130335047D02*
X128362161Y-130335047D01*
X128476447Y-130754095D02*
X128095495Y-130754095D01*
X128095495Y-130754095D02*
X128095495Y-129954095D01*
X128095495Y-129954095D02*
X128476447Y-129954095D01*
X128781209Y-130716000D02*
X128895495Y-130754095D01*
X128895495Y-130754095D02*
X129085971Y-130754095D01*
X129085971Y-130754095D02*
X129162162Y-130716000D01*
X129162162Y-130716000D02*
X129200257Y-130677904D01*
X129200257Y-130677904D02*
X129238352Y-130601714D01*
X129238352Y-130601714D02*
X129238352Y-130525523D01*
X129238352Y-130525523D02*
X129200257Y-130449333D01*
X129200257Y-130449333D02*
X129162162Y-130411238D01*
X129162162Y-130411238D02*
X129085971Y-130373142D01*
X129085971Y-130373142D02*
X128933590Y-130335047D01*
X128933590Y-130335047D02*
X128857400Y-130296952D01*
X128857400Y-130296952D02*
X128819305Y-130258857D01*
X128819305Y-130258857D02*
X128781209Y-130182666D01*
X128781209Y-130182666D02*
X128781209Y-130106476D01*
X128781209Y-130106476D02*
X128819305Y-130030285D01*
X128819305Y-130030285D02*
X128857400Y-129992190D01*
X128857400Y-129992190D02*
X128933590Y-129954095D01*
X128933590Y-129954095D02*
X129124067Y-129954095D01*
X129124067Y-129954095D02*
X129238352Y-129992190D01*
X129581210Y-130754095D02*
X129581210Y-129954095D01*
X129581210Y-129954095D02*
X129885972Y-129954095D01*
X129885972Y-129954095D02*
X129962162Y-129992190D01*
X129962162Y-129992190D02*
X130000257Y-130030285D01*
X130000257Y-130030285D02*
X130038353Y-130106476D01*
X130038353Y-130106476D02*
X130038353Y-130220761D01*
X130038353Y-130220761D02*
X130000257Y-130296952D01*
X130000257Y-130296952D02*
X129962162Y-130335047D01*
X129962162Y-130335047D02*
X129885972Y-130373142D01*
X129885972Y-130373142D02*
X129581210Y-130373142D01*
X130800257Y-130754095D02*
X130343114Y-130754095D01*
X130571686Y-130754095D02*
X130571686Y-129954095D01*
X130571686Y-129954095D02*
X130495495Y-130068380D01*
X130495495Y-130068380D02*
X130419305Y-130144571D01*
X130419305Y-130144571D02*
X130343114Y-130182666D01*
X153868066Y-104774433D02*
X153634733Y-104441100D01*
X153468066Y-104774433D02*
X153468066Y-104074433D01*
X153468066Y-104074433D02*
X153734733Y-104074433D01*
X153734733Y-104074433D02*
X153801400Y-104107766D01*
X153801400Y-104107766D02*
X153834733Y-104141100D01*
X153834733Y-104141100D02*
X153868066Y-104207766D01*
X153868066Y-104207766D02*
X153868066Y-104307766D01*
X153868066Y-104307766D02*
X153834733Y-104374433D01*
X153834733Y-104374433D02*
X153801400Y-104407766D01*
X153801400Y-104407766D02*
X153734733Y-104441100D01*
X153734733Y-104441100D02*
X153468066Y-104441100D01*
X154101400Y-104074433D02*
X154568066Y-104774433D01*
X154568066Y-104074433D02*
X154101400Y-104774433D01*
X154834733Y-104774433D02*
X154834733Y-104074433D01*
X154834733Y-104074433D02*
X155001400Y-104074433D01*
X155001400Y-104074433D02*
X155101400Y-104107766D01*
X155101400Y-104107766D02*
X155168067Y-104174433D01*
X155168067Y-104174433D02*
X155201400Y-104241100D01*
X155201400Y-104241100D02*
X155234733Y-104374433D01*
X155234733Y-104374433D02*
X155234733Y-104474433D01*
X155234733Y-104474433D02*
X155201400Y-104607766D01*
X155201400Y-104607766D02*
X155168067Y-104674433D01*
X155168067Y-104674433D02*
X155101400Y-104741100D01*
X155101400Y-104741100D02*
X155001400Y-104774433D01*
X155001400Y-104774433D02*
X154834733Y-104774433D01*
X155368067Y-104841100D02*
X155901400Y-104841100D01*
X156434733Y-104774433D02*
X156034733Y-104774433D01*
X156234733Y-104774433D02*
X156234733Y-104074433D01*
X156234733Y-104074433D02*
X156168066Y-104174433D01*
X156168066Y-104174433D02*
X156101400Y-104241100D01*
X156101400Y-104241100D02*
X156034733Y-104274433D01*
X156568067Y-104841100D02*
X157101400Y-104841100D01*
X157668066Y-104774433D02*
X157434733Y-104441100D01*
X157268066Y-104774433D02*
X157268066Y-104074433D01*
X157268066Y-104074433D02*
X157534733Y-104074433D01*
X157534733Y-104074433D02*
X157601400Y-104107766D01*
X157601400Y-104107766D02*
X157634733Y-104141100D01*
X157634733Y-104141100D02*
X157668066Y-104207766D01*
X157668066Y-104207766D02*
X157668066Y-104307766D01*
X157668066Y-104307766D02*
X157634733Y-104374433D01*
X157634733Y-104374433D02*
X157601400Y-104407766D01*
X157601400Y-104407766D02*
X157534733Y-104441100D01*
X157534733Y-104441100D02*
X157268066Y-104441100D01*
X158201400Y-104407766D02*
X157968066Y-104407766D01*
X157968066Y-104774433D02*
X157968066Y-104074433D01*
X157968066Y-104074433D02*
X158301400Y-104074433D01*
X120889219Y-122277828D02*
X121698742Y-122277828D01*
X121698742Y-122277828D02*
X121793980Y-122230209D01*
X121793980Y-122230209D02*
X121841600Y-122182590D01*
X121841600Y-122182590D02*
X121889219Y-122087352D01*
X121889219Y-122087352D02*
X121889219Y-121896876D01*
X121889219Y-121896876D02*
X121841600Y-121801638D01*
X121841600Y-121801638D02*
X121793980Y-121754019D01*
X121793980Y-121754019D02*
X121698742Y-121706400D01*
X121698742Y-121706400D02*
X120889219Y-121706400D01*
X121603504Y-121277828D02*
X121603504Y-120801638D01*
X121889219Y-121373066D02*
X120889219Y-121039733D01*
X120889219Y-121039733D02*
X121889219Y-120706400D01*
X121889219Y-119801638D02*
X121413028Y-120134971D01*
X121889219Y-120373066D02*
X120889219Y-120373066D01*
X120889219Y-120373066D02*
X120889219Y-119992114D01*
X120889219Y-119992114D02*
X120936838Y-119896876D01*
X120936838Y-119896876D02*
X120984457Y-119849257D01*
X120984457Y-119849257D02*
X121079695Y-119801638D01*
X121079695Y-119801638D02*
X121222552Y-119801638D01*
X121222552Y-119801638D02*
X121317790Y-119849257D01*
X121317790Y-119849257D02*
X121365409Y-119896876D01*
X121365409Y-119896876D02*
X121413028Y-119992114D01*
X121413028Y-119992114D02*
X121413028Y-120373066D01*
X120889219Y-119515923D02*
X120889219Y-118944495D01*
X121889219Y-119230209D02*
X120889219Y-119230209D01*
X121889219Y-118087352D02*
X121889219Y-118658780D01*
X121889219Y-118373066D02*
X120889219Y-118373066D01*
X120889219Y-118373066D02*
X121032076Y-118468304D01*
X121032076Y-118468304D02*
X121127314Y-118563542D01*
X121127314Y-118563542D02*
X121174933Y-118658780D01*
X141332441Y-80500906D02*
X141332441Y-81341913D01*
X141332441Y-81341913D02*
X141381912Y-81440855D01*
X141381912Y-81440855D02*
X141431383Y-81490326D01*
X141431383Y-81490326D02*
X141530325Y-81539796D01*
X141530325Y-81539796D02*
X141728209Y-81539796D01*
X141728209Y-81539796D02*
X141827151Y-81490326D01*
X141827151Y-81490326D02*
X141876622Y-81440855D01*
X141876622Y-81440855D02*
X141926093Y-81341913D01*
X141926093Y-81341913D02*
X141926093Y-80500906D01*
X142915512Y-80500906D02*
X142420802Y-80500906D01*
X142420802Y-80500906D02*
X142371331Y-80995616D01*
X142371331Y-80995616D02*
X142420802Y-80946145D01*
X142420802Y-80946145D02*
X142519744Y-80896674D01*
X142519744Y-80896674D02*
X142767099Y-80896674D01*
X142767099Y-80896674D02*
X142866041Y-80946145D01*
X142866041Y-80946145D02*
X142915512Y-80995616D01*
X142915512Y-80995616D02*
X142964983Y-81094558D01*
X142964983Y-81094558D02*
X142964983Y-81341913D01*
X142964983Y-81341913D02*
X142915512Y-81440855D01*
X142915512Y-81440855D02*
X142866041Y-81490326D01*
X142866041Y-81490326D02*
X142767099Y-81539796D01*
X142767099Y-81539796D02*
X142519744Y-81539796D01*
X142519744Y-81539796D02*
X142420802Y-81490326D01*
X142420802Y-81490326D02*
X142371331Y-81440855D01*
X138437181Y-113448765D02*
X138203848Y-113115432D01*
X138037181Y-113448765D02*
X138037181Y-112748765D01*
X138037181Y-112748765D02*
X138303848Y-112748765D01*
X138303848Y-112748765D02*
X138370515Y-112782098D01*
X138370515Y-112782098D02*
X138403848Y-112815432D01*
X138403848Y-112815432D02*
X138437181Y-112882098D01*
X138437181Y-112882098D02*
X138437181Y-112982098D01*
X138437181Y-112982098D02*
X138403848Y-113048765D01*
X138403848Y-113048765D02*
X138370515Y-113082098D01*
X138370515Y-113082098D02*
X138303848Y-113115432D01*
X138303848Y-113115432D02*
X138037181Y-113115432D01*
X138670515Y-112748765D02*
X139103848Y-112748765D01*
X139103848Y-112748765D02*
X138870515Y-113015432D01*
X138870515Y-113015432D02*
X138970515Y-113015432D01*
X138970515Y-113015432D02*
X139037181Y-113048765D01*
X139037181Y-113048765D02*
X139070515Y-113082098D01*
X139070515Y-113082098D02*
X139103848Y-113148765D01*
X139103848Y-113148765D02*
X139103848Y-113315432D01*
X139103848Y-113315432D02*
X139070515Y-113382098D01*
X139070515Y-113382098D02*
X139037181Y-113415432D01*
X139037181Y-113415432D02*
X138970515Y-113448765D01*
X138970515Y-113448765D02*
X138770515Y-113448765D01*
X138770515Y-113448765D02*
X138703848Y-113415432D01*
X138703848Y-113415432D02*
X138670515Y-113382098D01*
X139370515Y-112815432D02*
X139403848Y-112782098D01*
X139403848Y-112782098D02*
X139470515Y-112748765D01*
X139470515Y-112748765D02*
X139637182Y-112748765D01*
X139637182Y-112748765D02*
X139703848Y-112782098D01*
X139703848Y-112782098D02*
X139737182Y-112815432D01*
X139737182Y-112815432D02*
X139770515Y-112882098D01*
X139770515Y-112882098D02*
X139770515Y-112948765D01*
X139770515Y-112948765D02*
X139737182Y-113048765D01*
X139737182Y-113048765D02*
X139337182Y-113448765D01*
X139337182Y-113448765D02*
X139770515Y-113448765D01*
X138404799Y-112424433D02*
X138171466Y-112091100D01*
X138004799Y-112424433D02*
X138004799Y-111724433D01*
X138004799Y-111724433D02*
X138271466Y-111724433D01*
X138271466Y-111724433D02*
X138338133Y-111757766D01*
X138338133Y-111757766D02*
X138371466Y-111791100D01*
X138371466Y-111791100D02*
X138404799Y-111857766D01*
X138404799Y-111857766D02*
X138404799Y-111957766D01*
X138404799Y-111957766D02*
X138371466Y-112024433D01*
X138371466Y-112024433D02*
X138338133Y-112057766D01*
X138338133Y-112057766D02*
X138271466Y-112091100D01*
X138271466Y-112091100D02*
X138004799Y-112091100D01*
X138638133Y-111724433D02*
X139071466Y-111724433D01*
X139071466Y-111724433D02*
X138838133Y-111991100D01*
X138838133Y-111991100D02*
X138938133Y-111991100D01*
X138938133Y-111991100D02*
X139004799Y-112024433D01*
X139004799Y-112024433D02*
X139038133Y-112057766D01*
X139038133Y-112057766D02*
X139071466Y-112124433D01*
X139071466Y-112124433D02*
X139071466Y-112291100D01*
X139071466Y-112291100D02*
X139038133Y-112357766D01*
X139038133Y-112357766D02*
X139004799Y-112391100D01*
X139004799Y-112391100D02*
X138938133Y-112424433D01*
X138938133Y-112424433D02*
X138738133Y-112424433D01*
X138738133Y-112424433D02*
X138671466Y-112391100D01*
X138671466Y-112391100D02*
X138638133Y-112357766D01*
X139304800Y-111724433D02*
X139738133Y-111724433D01*
X139738133Y-111724433D02*
X139504800Y-111991100D01*
X139504800Y-111991100D02*
X139604800Y-111991100D01*
X139604800Y-111991100D02*
X139671466Y-112024433D01*
X139671466Y-112024433D02*
X139704800Y-112057766D01*
X139704800Y-112057766D02*
X139738133Y-112124433D01*
X139738133Y-112124433D02*
X139738133Y-112291100D01*
X139738133Y-112291100D02*
X139704800Y-112357766D01*
X139704800Y-112357766D02*
X139671466Y-112391100D01*
X139671466Y-112391100D02*
X139604800Y-112424433D01*
X139604800Y-112424433D02*
X139404800Y-112424433D01*
X139404800Y-112424433D02*
X139338133Y-112391100D01*
X139338133Y-112391100D02*
X139304800Y-112357766D01*
X131344276Y-76091619D02*
X131862371Y-76091619D01*
X131862371Y-76091619D02*
X131923323Y-76061142D01*
X131923323Y-76061142D02*
X131953800Y-76030666D01*
X131953800Y-76030666D02*
X131984276Y-75969714D01*
X131984276Y-75969714D02*
X131984276Y-75847809D01*
X131984276Y-75847809D02*
X131953800Y-75786857D01*
X131953800Y-75786857D02*
X131923323Y-75756380D01*
X131923323Y-75756380D02*
X131862371Y-75725904D01*
X131862371Y-75725904D02*
X131344276Y-75725904D01*
X131557609Y-75146857D02*
X131984276Y-75146857D01*
X131313800Y-75299238D02*
X131770942Y-75451619D01*
X131770942Y-75451619D02*
X131770942Y-75055428D01*
X125129695Y-89790819D02*
X125129695Y-90600342D01*
X125129695Y-90600342D02*
X125177314Y-90695580D01*
X125177314Y-90695580D02*
X125224933Y-90743200D01*
X125224933Y-90743200D02*
X125320171Y-90790819D01*
X125320171Y-90790819D02*
X125510647Y-90790819D01*
X125510647Y-90790819D02*
X125605885Y-90743200D01*
X125605885Y-90743200D02*
X125653504Y-90695580D01*
X125653504Y-90695580D02*
X125701123Y-90600342D01*
X125701123Y-90600342D02*
X125701123Y-89790819D01*
X126129695Y-89886057D02*
X126177314Y-89838438D01*
X126177314Y-89838438D02*
X126272552Y-89790819D01*
X126272552Y-89790819D02*
X126510647Y-89790819D01*
X126510647Y-89790819D02*
X126605885Y-89838438D01*
X126605885Y-89838438D02*
X126653504Y-89886057D01*
X126653504Y-89886057D02*
X126701123Y-89981295D01*
X126701123Y-89981295D02*
X126701123Y-90076533D01*
X126701123Y-90076533D02*
X126653504Y-90219390D01*
X126653504Y-90219390D02*
X126082076Y-90790819D01*
X126082076Y-90790819D02*
X126701123Y-90790819D01*
X129318133Y-86648366D02*
X129284800Y-86681700D01*
X129284800Y-86681700D02*
X129184800Y-86715033D01*
X129184800Y-86715033D02*
X129118133Y-86715033D01*
X129118133Y-86715033D02*
X129018133Y-86681700D01*
X129018133Y-86681700D02*
X128951467Y-86615033D01*
X128951467Y-86615033D02*
X128918133Y-86548366D01*
X128918133Y-86548366D02*
X128884800Y-86415033D01*
X128884800Y-86415033D02*
X128884800Y-86315033D01*
X128884800Y-86315033D02*
X128918133Y-86181700D01*
X128918133Y-86181700D02*
X128951467Y-86115033D01*
X128951467Y-86115033D02*
X129018133Y-86048366D01*
X129018133Y-86048366D02*
X129118133Y-86015033D01*
X129118133Y-86015033D02*
X129184800Y-86015033D01*
X129184800Y-86015033D02*
X129284800Y-86048366D01*
X129284800Y-86048366D02*
X129318133Y-86081700D01*
X129518133Y-86015033D02*
X129918133Y-86015033D01*
X129718133Y-86715033D02*
X129718133Y-86015033D01*
X130084800Y-86015033D02*
X130551466Y-86715033D01*
X130551466Y-86015033D02*
X130084800Y-86715033D01*
X131151467Y-86715033D02*
X130818133Y-86715033D01*
X130818133Y-86715033D02*
X130818133Y-86015033D01*
X131384800Y-86348366D02*
X131618134Y-86348366D01*
X131718134Y-86715033D02*
X131384800Y-86715033D01*
X131384800Y-86715033D02*
X131384800Y-86015033D01*
X131384800Y-86015033D02*
X131718134Y-86015033D01*
X132018133Y-86715033D02*
X132018133Y-86015033D01*
X132018133Y-86015033D02*
X132184800Y-86015033D01*
X132184800Y-86015033D02*
X132284800Y-86048366D01*
X132284800Y-86048366D02*
X132351467Y-86115033D01*
X132351467Y-86115033D02*
X132384800Y-86181700D01*
X132384800Y-86181700D02*
X132418133Y-86315033D01*
X132418133Y-86315033D02*
X132418133Y-86415033D01*
X132418133Y-86415033D02*
X132384800Y-86548366D01*
X132384800Y-86548366D02*
X132351467Y-86615033D01*
X132351467Y-86615033D02*
X132284800Y-86681700D01*
X132284800Y-86681700D02*
X132184800Y-86715033D01*
X132184800Y-86715033D02*
X132018133Y-86715033D01*
X133084800Y-86715033D02*
X132684800Y-86715033D01*
X132884800Y-86715033D02*
X132884800Y-86015033D01*
X132884800Y-86015033D02*
X132818133Y-86115033D01*
X132818133Y-86115033D02*
X132751467Y-86181700D01*
X132751467Y-86181700D02*
X132684800Y-86215033D01*
X119453366Y-100855999D02*
X119453366Y-100622666D01*
X119820033Y-100522666D02*
X119820033Y-100855999D01*
X119820033Y-100855999D02*
X119120033Y-100855999D01*
X119120033Y-100855999D02*
X119120033Y-100522666D01*
X119820033Y-100222666D02*
X119120033Y-100222666D01*
X119120033Y-100222666D02*
X119820033Y-99822666D01*
X119820033Y-99822666D02*
X119120033Y-99822666D01*
X119120033Y-99289333D02*
X119620033Y-99289333D01*
X119620033Y-99289333D02*
X119720033Y-99322666D01*
X119720033Y-99322666D02*
X119786700Y-99389333D01*
X119786700Y-99389333D02*
X119820033Y-99489333D01*
X119820033Y-99489333D02*
X119820033Y-99556000D01*
X119120033Y-98956000D02*
X119686700Y-98956000D01*
X119686700Y-98956000D02*
X119753366Y-98922667D01*
X119753366Y-98922667D02*
X119786700Y-98889333D01*
X119786700Y-98889333D02*
X119820033Y-98822667D01*
X119820033Y-98822667D02*
X119820033Y-98689333D01*
X119820033Y-98689333D02*
X119786700Y-98622667D01*
X119786700Y-98622667D02*
X119753366Y-98589333D01*
X119753366Y-98589333D02*
X119686700Y-98556000D01*
X119686700Y-98556000D02*
X119120033Y-98556000D01*
X119820033Y-98222667D02*
X119120033Y-98222667D01*
X119120033Y-98222667D02*
X119620033Y-97989334D01*
X119620033Y-97989334D02*
X119120033Y-97756000D01*
X119120033Y-97756000D02*
X119820033Y-97756000D01*
X119820033Y-97422667D02*
X119120033Y-97422667D01*
X119120033Y-97422667D02*
X119120033Y-97156000D01*
X119120033Y-97156000D02*
X119153366Y-97089334D01*
X119153366Y-97089334D02*
X119186700Y-97056000D01*
X119186700Y-97056000D02*
X119253366Y-97022667D01*
X119253366Y-97022667D02*
X119353366Y-97022667D01*
X119353366Y-97022667D02*
X119420033Y-97056000D01*
X119420033Y-97056000D02*
X119453366Y-97089334D01*
X119453366Y-97089334D02*
X119486700Y-97156000D01*
X119486700Y-97156000D02*
X119486700Y-97422667D01*
X119453366Y-96722667D02*
X119453366Y-96489334D01*
X119820033Y-96389334D02*
X119820033Y-96722667D01*
X119820033Y-96722667D02*
X119120033Y-96722667D01*
X119120033Y-96722667D02*
X119120033Y-96389334D01*
X119820033Y-95689334D02*
X119486700Y-95922667D01*
X119820033Y-96089334D02*
X119120033Y-96089334D01*
X119120033Y-96089334D02*
X119120033Y-95822667D01*
X119120033Y-95822667D02*
X119153366Y-95756001D01*
X119153366Y-95756001D02*
X119186700Y-95722667D01*
X119186700Y-95722667D02*
X119253366Y-95689334D01*
X119253366Y-95689334D02*
X119353366Y-95689334D01*
X119353366Y-95689334D02*
X119420033Y-95722667D01*
X119420033Y-95722667D02*
X119453366Y-95756001D01*
X119453366Y-95756001D02*
X119486700Y-95822667D01*
X119486700Y-95822667D02*
X119486700Y-96089334D01*
X119820033Y-95022667D02*
X119820033Y-95422667D01*
X119820033Y-95222667D02*
X119120033Y-95222667D01*
X119120033Y-95222667D02*
X119220033Y-95289334D01*
X119220033Y-95289334D02*
X119286700Y-95356001D01*
X119286700Y-95356001D02*
X119320033Y-95422667D01*
X131975566Y-101263932D02*
X132008900Y-101163932D01*
X132008900Y-101163932D02*
X132042233Y-101130598D01*
X132042233Y-101130598D02*
X132108900Y-101097265D01*
X132108900Y-101097265D02*
X132208900Y-101097265D01*
X132208900Y-101097265D02*
X132275566Y-101130598D01*
X132275566Y-101130598D02*
X132308900Y-101163932D01*
X132308900Y-101163932D02*
X132342233Y-101230598D01*
X132342233Y-101230598D02*
X132342233Y-101497265D01*
X132342233Y-101497265D02*
X131642233Y-101497265D01*
X131642233Y-101497265D02*
X131642233Y-101263932D01*
X131642233Y-101263932D02*
X131675566Y-101197265D01*
X131675566Y-101197265D02*
X131708900Y-101163932D01*
X131708900Y-101163932D02*
X131775566Y-101130598D01*
X131775566Y-101130598D02*
X131842233Y-101130598D01*
X131842233Y-101130598D02*
X131908900Y-101163932D01*
X131908900Y-101163932D02*
X131942233Y-101197265D01*
X131942233Y-101197265D02*
X131975566Y-101263932D01*
X131975566Y-101263932D02*
X131975566Y-101497265D01*
X131642233Y-100663932D02*
X131642233Y-100530598D01*
X131642233Y-100530598D02*
X131675566Y-100463932D01*
X131675566Y-100463932D02*
X131742233Y-100397265D01*
X131742233Y-100397265D02*
X131875566Y-100363932D01*
X131875566Y-100363932D02*
X132108900Y-100363932D01*
X132108900Y-100363932D02*
X132242233Y-100397265D01*
X132242233Y-100397265D02*
X132308900Y-100463932D01*
X132308900Y-100463932D02*
X132342233Y-100530598D01*
X132342233Y-100530598D02*
X132342233Y-100663932D01*
X132342233Y-100663932D02*
X132308900Y-100730598D01*
X132308900Y-100730598D02*
X132242233Y-100797265D01*
X132242233Y-100797265D02*
X132108900Y-100830598D01*
X132108900Y-100830598D02*
X131875566Y-100830598D01*
X131875566Y-100830598D02*
X131742233Y-100797265D01*
X131742233Y-100797265D02*
X131675566Y-100730598D01*
X131675566Y-100730598D02*
X131642233Y-100663932D01*
X131642233Y-99930599D02*
X131642233Y-99797265D01*
X131642233Y-99797265D02*
X131675566Y-99730599D01*
X131675566Y-99730599D02*
X131742233Y-99663932D01*
X131742233Y-99663932D02*
X131875566Y-99630599D01*
X131875566Y-99630599D02*
X132108900Y-99630599D01*
X132108900Y-99630599D02*
X132242233Y-99663932D01*
X132242233Y-99663932D02*
X132308900Y-99730599D01*
X132308900Y-99730599D02*
X132342233Y-99797265D01*
X132342233Y-99797265D02*
X132342233Y-99930599D01*
X132342233Y-99930599D02*
X132308900Y-99997265D01*
X132308900Y-99997265D02*
X132242233Y-100063932D01*
X132242233Y-100063932D02*
X132108900Y-100097265D01*
X132108900Y-100097265D02*
X131875566Y-100097265D01*
X131875566Y-100097265D02*
X131742233Y-100063932D01*
X131742233Y-100063932D02*
X131675566Y-99997265D01*
X131675566Y-99997265D02*
X131642233Y-99930599D01*
X131642233Y-99430599D02*
X131642233Y-99030599D01*
X132342233Y-99230599D02*
X131642233Y-99230599D01*
X131642233Y-98597266D02*
X132142233Y-98597266D01*
X132142233Y-98597266D02*
X132242233Y-98630599D01*
X132242233Y-98630599D02*
X132308900Y-98697266D01*
X132308900Y-98697266D02*
X132342233Y-98797266D01*
X132342233Y-98797266D02*
X132342233Y-98863933D01*
X131642233Y-98263933D02*
X132208900Y-98263933D01*
X132208900Y-98263933D02*
X132275566Y-98230600D01*
X132275566Y-98230600D02*
X132308900Y-98197266D01*
X132308900Y-98197266D02*
X132342233Y-98130600D01*
X132342233Y-98130600D02*
X132342233Y-97997266D01*
X132342233Y-97997266D02*
X132308900Y-97930600D01*
X132308900Y-97930600D02*
X132275566Y-97897266D01*
X132275566Y-97897266D02*
X132208900Y-97863933D01*
X132208900Y-97863933D02*
X131642233Y-97863933D01*
X132342233Y-97530600D02*
X131642233Y-97530600D01*
X131642233Y-97530600D02*
X132142233Y-97297267D01*
X132142233Y-97297267D02*
X131642233Y-97063933D01*
X131642233Y-97063933D02*
X132342233Y-97063933D01*
X132342233Y-96730600D02*
X131642233Y-96730600D01*
X131642233Y-96730600D02*
X131642233Y-96463933D01*
X131642233Y-96463933D02*
X131675566Y-96397267D01*
X131675566Y-96397267D02*
X131708900Y-96363933D01*
X131708900Y-96363933D02*
X131775566Y-96330600D01*
X131775566Y-96330600D02*
X131875566Y-96330600D01*
X131875566Y-96330600D02*
X131942233Y-96363933D01*
X131942233Y-96363933D02*
X131975566Y-96397267D01*
X131975566Y-96397267D02*
X132008900Y-96463933D01*
X132008900Y-96463933D02*
X132008900Y-96730600D01*
X131975566Y-96030600D02*
X131975566Y-95797267D01*
X132342233Y-95697267D02*
X132342233Y-96030600D01*
X132342233Y-96030600D02*
X131642233Y-96030600D01*
X131642233Y-96030600D02*
X131642233Y-95697267D01*
X132342233Y-94997267D02*
X132008900Y-95230600D01*
X132342233Y-95397267D02*
X131642233Y-95397267D01*
X131642233Y-95397267D02*
X131642233Y-95130600D01*
X131642233Y-95130600D02*
X131675566Y-95063934D01*
X131675566Y-95063934D02*
X131708900Y-95030600D01*
X131708900Y-95030600D02*
X131775566Y-94997267D01*
X131775566Y-94997267D02*
X131875566Y-94997267D01*
X131875566Y-94997267D02*
X131942233Y-95030600D01*
X131942233Y-95030600D02*
X131975566Y-95063934D01*
X131975566Y-95063934D02*
X132008900Y-95130600D01*
X132008900Y-95130600D02*
X132008900Y-95397267D01*
X132342233Y-94330600D02*
X132342233Y-94730600D01*
X132342233Y-94530600D02*
X131642233Y-94530600D01*
X131642233Y-94530600D02*
X131742233Y-94597267D01*
X131742233Y-94597267D02*
X131808900Y-94663934D01*
X131808900Y-94663934D02*
X131842233Y-94730600D01*
X135131685Y-119908323D02*
X135512638Y-119908323D01*
X135055495Y-120136895D02*
X135322162Y-119336895D01*
X135322162Y-119336895D02*
X135588828Y-120136895D01*
X135855495Y-120136895D02*
X135855495Y-119336895D01*
X135855495Y-119336895D02*
X136312638Y-120136895D01*
X136312638Y-120136895D02*
X136312638Y-119336895D01*
X136579304Y-119336895D02*
X137036447Y-119336895D01*
X136807875Y-120136895D02*
X136807875Y-119336895D01*
X137112638Y-120213085D02*
X137722161Y-120213085D01*
X137912638Y-119336895D02*
X137912638Y-119984514D01*
X137912638Y-119984514D02*
X137950733Y-120060704D01*
X137950733Y-120060704D02*
X137988828Y-120098800D01*
X137988828Y-120098800D02*
X138065019Y-120136895D01*
X138065019Y-120136895D02*
X138217400Y-120136895D01*
X138217400Y-120136895D02*
X138293590Y-120098800D01*
X138293590Y-120098800D02*
X138331685Y-120060704D01*
X138331685Y-120060704D02*
X138369781Y-119984514D01*
X138369781Y-119984514D02*
X138369781Y-119336895D01*
X139017399Y-119717847D02*
X138750733Y-119717847D01*
X138750733Y-120136895D02*
X138750733Y-119336895D01*
X138750733Y-119336895D02*
X139131685Y-119336895D01*
X139817399Y-120136895D02*
X139436447Y-120136895D01*
X139436447Y-120136895D02*
X139436447Y-119336895D01*
X140503113Y-120136895D02*
X140045970Y-120136895D01*
X140274542Y-120136895D02*
X140274542Y-119336895D01*
X140274542Y-119336895D02*
X140198351Y-119451180D01*
X140198351Y-119451180D02*
X140122161Y-119527371D01*
X140122161Y-119527371D02*
X140045970Y-119565466D01*
X136801476Y-93098695D02*
X136801476Y-93746314D01*
X136801476Y-93746314D02*
X136839571Y-93822504D01*
X136839571Y-93822504D02*
X136877666Y-93860600D01*
X136877666Y-93860600D02*
X136953857Y-93898695D01*
X136953857Y-93898695D02*
X137106238Y-93898695D01*
X137106238Y-93898695D02*
X137182428Y-93860600D01*
X137182428Y-93860600D02*
X137220523Y-93822504D01*
X137220523Y-93822504D02*
X137258619Y-93746314D01*
X137258619Y-93746314D02*
X137258619Y-93098695D01*
X138058618Y-93898695D02*
X137601475Y-93898695D01*
X137830047Y-93898695D02*
X137830047Y-93098695D01*
X137830047Y-93098695D02*
X137753856Y-93212980D01*
X137753856Y-93212980D02*
X137677666Y-93289171D01*
X137677666Y-93289171D02*
X137601475Y-93327266D01*
D13*
%TO.C,REF\u002A\u002A*%
X137879000Y-132790200D02*
X132879000Y-132790200D01*
X132879000Y-127790200D01*
X137879000Y-127790200D01*
X137879000Y-132790200D01*
G36*
X137879000Y-132790200D02*
G01*
X132879000Y-132790200D01*
X132879000Y-127790200D01*
X137879000Y-127790200D01*
X137879000Y-132790200D01*
G37*
D14*
%TO.C,R29*%
X142695200Y-101464441D02*
X142695200Y-101157159D01*
X143455200Y-101464441D02*
X143455200Y-101157159D01*
%TO.C,R38*%
X146784600Y-103641652D02*
X146784600Y-103948934D01*
X147544600Y-103641652D02*
X147544600Y-103948934D01*
%TO.C,RF_RST1*%
X152335000Y-100953200D02*
G75*
G02*
X150935000Y-100953200I-700000J0D01*
G01*
X150935000Y-100953200D02*
G75*
G02*
X152335000Y-100953200I700000J0D01*
G01*
%TO.C,R17*%
X139733136Y-81779186D02*
X140040418Y-81779186D01*
X139733136Y-82539186D02*
X140040418Y-82539186D01*
%TO.C,R31*%
X141088759Y-113658800D02*
X141396041Y-113658800D01*
X141088759Y-114418800D02*
X141396041Y-114418800D01*
%TO.C,J1*%
X119968000Y-112897000D02*
X119968000Y-115747000D01*
X119968000Y-115747000D02*
X122818000Y-115747000D01*
X120208000Y-101487000D02*
X130028000Y-101487000D01*
X120208000Y-108497000D02*
X120208000Y-101487000D01*
X120208000Y-108497000D02*
X120208000Y-115507000D01*
X120208000Y-115507000D02*
X130028000Y-115507000D01*
X130028000Y-101487000D02*
X130028000Y-106687000D01*
X130028000Y-106687000D02*
X131428000Y-106687000D01*
X130028000Y-110307000D02*
X131428000Y-110307000D01*
X130028000Y-115507000D02*
X130028000Y-110307000D01*
X131428000Y-106687000D02*
X131428000Y-108497000D01*
X131428000Y-110307000D02*
X131428000Y-108497000D01*
%TO.C,C80*%
X145951636Y-119414600D02*
X145735964Y-119414600D01*
X145951636Y-120134600D02*
X145735964Y-120134600D01*
%TO.C,C6*%
X139236164Y-100517000D02*
X139451836Y-100517000D01*
X139236164Y-101237000D02*
X139451836Y-101237000D01*
%TO.C,R4*%
X122095800Y-87335559D02*
X122095800Y-87642841D01*
X122855800Y-87335559D02*
X122855800Y-87642841D01*
D13*
%TO.C,TXD_1_RF*%
X153154000Y-103290000D02*
G75*
G02*
X153054000Y-103290000I-50000J0D01*
G01*
X153054000Y-103290000D02*
G75*
G02*
X153154000Y-103290000I50000J0D01*
G01*
%TO.C,RXLED2*%
X130621100Y-122517800D02*
G75*
G02*
X130521100Y-122517800I-50000J0D01*
G01*
X130521100Y-122517800D02*
G75*
G02*
X130621100Y-122517800I50000J0D01*
G01*
D14*
%TO.C,BBIN_TP1*%
X127032600Y-81750800D02*
G75*
G02*
X125132600Y-81750800I-950000J0D01*
G01*
X125132600Y-81750800D02*
G75*
G02*
X127032600Y-81750800I950000J0D01*
G01*
%TO.C,R30*%
X143711200Y-101464441D02*
X143711200Y-101157159D01*
X144471200Y-101464441D02*
X144471200Y-101157159D01*
%TO.C,D-_TP1*%
X152843000Y-88177000D02*
G75*
G02*
X151443000Y-88177000I-700000J0D01*
G01*
X151443000Y-88177000D02*
G75*
G02*
X152843000Y-88177000I700000J0D01*
G01*
%TO.C,L4*%
X142743021Y-106620000D02*
X143068579Y-106620000D01*
X142743021Y-107640000D02*
X143068579Y-107640000D01*
%TO.C,FB_R2*%
X153423279Y-121068000D02*
X153097721Y-121068000D01*
X153423279Y-122088000D02*
X153097721Y-122088000D01*
%TO.C,3v3*%
X128715800Y-117124600D02*
X128715800Y-119884600D01*
X128825800Y-117124600D02*
X128715800Y-117124600D01*
X128825800Y-117124600D02*
X128825800Y-119884600D01*
X128825800Y-119884600D02*
X128715800Y-119884600D01*
X130095800Y-117124600D02*
X131475800Y-117124600D01*
X131475800Y-117124600D02*
X131475800Y-118504600D01*
%TO.C,R20*%
X131445241Y-125516000D02*
X131137959Y-125516000D01*
X131445241Y-126276000D02*
X131137959Y-126276000D01*
%TO.C,C5*%
X135509636Y-101533000D02*
X135293964Y-101533000D01*
X135509636Y-102253000D02*
X135293964Y-102253000D01*
%TO.C,C13*%
X134541164Y-94300000D02*
X134756836Y-94300000D01*
X134541164Y-95020000D02*
X134756836Y-95020000D01*
%TO.C,F1*%
X149885000Y-88174721D02*
X149885000Y-88500279D01*
X150905000Y-88174721D02*
X150905000Y-88500279D01*
D13*
%TO.C,CRXLED1*%
X121509800Y-84468800D02*
G75*
G02*
X121409800Y-84468800I-50000J0D01*
G01*
X121409800Y-84468800D02*
G75*
G02*
X121509800Y-84468800I50000J0D01*
G01*
%TO.C,USBLED1*%
X154775000Y-93330000D02*
G75*
G02*
X154675000Y-93330000I-50000J0D01*
G01*
X154675000Y-93330000D02*
G75*
G02*
X154775000Y-93330000I50000J0D01*
G01*
D14*
%TO.C,C79*%
X146982400Y-118409236D02*
X146982400Y-118193564D01*
X147702400Y-118409236D02*
X147702400Y-118193564D01*
%TO.C,D2*%
X150800400Y-86421000D02*
X152100400Y-86421000D01*
X152100400Y-83301000D02*
X150830400Y-83301000D01*
X150450400Y-83351000D02*
X150210400Y-83021000D01*
X150690400Y-83021000D01*
X150450400Y-83351000D01*
G36*
X150450400Y-83351000D02*
G01*
X150210400Y-83021000D01*
X150690400Y-83021000D01*
X150450400Y-83351000D01*
G37*
%TO.C,C74*%
X151896019Y-123331201D02*
X152177179Y-123331201D01*
X151896019Y-124351201D02*
X152177179Y-124351201D01*
%TO.C,R5*%
X129817400Y-88199159D02*
X129817400Y-88506441D01*
X130577400Y-88199159D02*
X130577400Y-88506441D01*
D13*
%TO.C,3V3LED1*%
X122525800Y-84470800D02*
G75*
G02*
X122425800Y-84470800I-50000J0D01*
G01*
X122425800Y-84470800D02*
G75*
G02*
X122525800Y-84470800I50000J0D01*
G01*
D14*
%TO.C,CRX1*%
X141013200Y-88862800D02*
G75*
G02*
X139613200Y-88862800I-700000J0D01*
G01*
X139613200Y-88862800D02*
G75*
G02*
X141013200Y-88862800I700000J0D01*
G01*
%TO.C,R9*%
X126931700Y-95844258D02*
X126931700Y-95369742D01*
X127976700Y-95844258D02*
X127976700Y-95369742D01*
%TO.C,FB_R3*%
X156395279Y-115099000D02*
X156069721Y-115099000D01*
X156395279Y-116119000D02*
X156069721Y-116119000D01*
%TO.C,CSD1*%
X138930400Y-88862800D02*
G75*
G02*
X137530400Y-88862800I-700000J0D01*
G01*
X137530400Y-88862800D02*
G75*
G02*
X138930400Y-88862800I700000J0D01*
G01*
%TO.C,R1*%
X132789200Y-91270559D02*
X132789200Y-91577841D01*
X133549200Y-91270559D02*
X133549200Y-91577841D01*
%TO.C,J2*%
X156084400Y-80379600D02*
X157884400Y-80379600D01*
X156084400Y-89319600D02*
X157884400Y-89319600D01*
X161594400Y-80379600D02*
X160134400Y-80379600D01*
X161594400Y-80379600D02*
X161594400Y-89319600D01*
X161594400Y-89319600D02*
X160134400Y-89319600D01*
D15*
%TO.C,IC2*%
X144020600Y-108727200D02*
X144470600Y-108727200D01*
X144020600Y-109177200D02*
X144020600Y-108727200D01*
X144020600Y-112827200D02*
X144020600Y-112377200D01*
X144020600Y-112827200D02*
X144470600Y-112827200D01*
X147670600Y-108727200D02*
X148120600Y-108727200D01*
X147670600Y-112827200D02*
X148120600Y-112827200D01*
X148120600Y-109177200D02*
X148120600Y-108727200D01*
X148120600Y-112827200D02*
X148120600Y-112377200D01*
D12*
X148040600Y-113247200D02*
G75*
G02*
X147840600Y-113247200I-100000J0D01*
G01*
X147840600Y-113247200D02*
G75*
G02*
X148040600Y-113247200I100000J0D01*
G01*
D14*
%TO.C,C14*%
X134736836Y-98200000D02*
X134521164Y-98200000D01*
X134736836Y-98920000D02*
X134521164Y-98920000D01*
%TO.C,CANRX1*%
X134809000Y-88862800D02*
G75*
G02*
X133409000Y-88862800I-700000J0D01*
G01*
X133409000Y-88862800D02*
G75*
G02*
X134809000Y-88862800I700000J0D01*
G01*
%TO.C,C25*%
X137078213Y-73417186D02*
X136862541Y-73417186D01*
X137078213Y-74137186D02*
X136862541Y-74137186D01*
D13*
%TO.C,TXLED1*%
X128258900Y-122467000D02*
G75*
G02*
X128158900Y-122467000I-50000J0D01*
G01*
X128158900Y-122467000D02*
G75*
G02*
X128258900Y-122467000I50000J0D01*
G01*
D14*
%TO.C,R18*%
X121079800Y-87646841D02*
X121079800Y-87339559D01*
X121839800Y-87646841D02*
X121839800Y-87339559D01*
D12*
%TO.C,U3*%
X128347200Y-80516200D02*
X128822200Y-80516200D01*
X129172200Y-80616200D02*
X129672200Y-80616200D01*
X129172200Y-82716200D02*
X129172200Y-80616200D01*
X129672200Y-80616200D02*
X129672200Y-82716200D01*
X129672200Y-82716200D02*
X129172200Y-82716200D01*
D14*
%TO.C,DIO3*%
X147280400Y-100978600D02*
G75*
G02*
X145880400Y-100978600I-700000J0D01*
G01*
X145880400Y-100978600D02*
G75*
G02*
X147280400Y-100978600I700000J0D01*
G01*
%TO.C,R3*%
X133779800Y-91272559D02*
X133779800Y-91579841D01*
X134539800Y-91272559D02*
X134539800Y-91579841D01*
%TO.C,C9*%
X137435269Y-99215099D02*
X137219597Y-99215099D01*
X137435269Y-99935099D02*
X137219597Y-99935099D01*
%TO.C,C70*%
X148601599Y-124013365D02*
X148601599Y-124229037D01*
X149321599Y-124013365D02*
X149321599Y-124229037D01*
%TO.C,VAA_TP1*%
X141540000Y-108116000D02*
G75*
G02*
X140140000Y-108116000I-700000J0D01*
G01*
X140140000Y-108116000D02*
G75*
G02*
X141540000Y-108116000I700000J0D01*
G01*
%TO.C,C27*%
X135268564Y-82838600D02*
X135484236Y-82838600D01*
X135268564Y-83558600D02*
X135484236Y-83558600D01*
%TO.C,R13*%
X153245000Y-92393641D02*
X153245000Y-92086359D01*
X154005000Y-92393641D02*
X154005000Y-92086359D01*
%TO.C,R2*%
X129152759Y-123128400D02*
X129460041Y-123128400D01*
X129152759Y-123888400D02*
X129460041Y-123888400D01*
%TO.C,CTX1*%
X152335000Y-98921200D02*
G75*
G02*
X150935000Y-98921200I-700000J0D01*
G01*
X150935000Y-98921200D02*
G75*
G02*
X152335000Y-98921200I700000J0D01*
G01*
D16*
%TO.C,U12*%
G36*
X148471999Y-123606701D02*
G01*
X148217999Y-123606701D01*
X148217999Y-123225701D01*
X148471999Y-123225701D01*
X148471999Y-123606701D01*
G37*
D14*
%TO.C,R12*%
X151788641Y-79669000D02*
X151481359Y-79669000D01*
X151788641Y-80429000D02*
X151481359Y-80429000D01*
%TO.C,C23*%
X130439620Y-73721200D02*
X130720780Y-73721200D01*
X130439620Y-74741200D02*
X130720780Y-74741200D01*
%TO.C,C53*%
X148910600Y-112399364D02*
X148910600Y-112615036D01*
X149630600Y-112399364D02*
X149630600Y-112615036D01*
%TO.C,C78*%
X145954236Y-116468200D02*
X145738564Y-116468200D01*
X145954236Y-117188200D02*
X145738564Y-117188200D01*
%TO.C,C66*%
X149333763Y-121181201D02*
X149549435Y-121181201D01*
X149333763Y-121901201D02*
X149549435Y-121901201D01*
%TO.C,R25*%
X140688600Y-101464441D02*
X140688600Y-101157159D01*
X141448600Y-101464441D02*
X141448600Y-101157159D01*
%TO.C,R6*%
X133043200Y-106620641D02*
X133043200Y-106313359D01*
X133803200Y-106620641D02*
X133803200Y-106313359D01*
%TO.C,C57*%
X144590800Y-107011836D02*
X144590800Y-106796164D01*
X145310800Y-107011836D02*
X145310800Y-106796164D01*
D13*
%TO.C,DIO3_D1*%
X146224000Y-102705293D02*
G75*
G02*
X146124000Y-102705293I-50000J0D01*
G01*
X146124000Y-102705293D02*
G75*
G02*
X146224000Y-102705293I50000J0D01*
G01*
D14*
%TO.C,R14*%
X131725841Y-80506200D02*
X131418559Y-80506200D01*
X131725841Y-81266200D02*
X131418559Y-81266200D01*
%TO.C,C68*%
X150333763Y-120181201D02*
X150549435Y-120181201D01*
X150333763Y-120901201D02*
X150549435Y-120901201D01*
%TO.C,C15*%
X124846836Y-85734200D02*
X124631164Y-85734200D01*
X124846836Y-86454200D02*
X124631164Y-86454200D01*
%TO.C,C50*%
X153227195Y-110018054D02*
X153074692Y-110170557D01*
X153736312Y-110527171D02*
X153583809Y-110679674D01*
%TO.C,C20*%
X128098036Y-79586200D02*
X127882364Y-79586200D01*
X128098036Y-80306200D02*
X127882364Y-80306200D01*
%TO.C,ANT_SMA1*%
X145564400Y-128988400D02*
X146064400Y-128988400D01*
X145814400Y-129488400D02*
X145564400Y-128988400D01*
X146064400Y-128988400D02*
X145814400Y-129488400D01*
%TO.C,R34*%
X141086759Y-110661600D02*
X141394041Y-110661600D01*
X141086759Y-111421600D02*
X141394041Y-111421600D01*
%TO.C,C10*%
X137406600Y-91640236D02*
X137406600Y-91424564D01*
X138126600Y-91640236D02*
X138126600Y-91424564D01*
%TO.C,JP1*%
X120815400Y-92722800D02*
X120815400Y-91322800D01*
X121515400Y-90622800D02*
X122115400Y-90622800D01*
X122115400Y-93422800D02*
X121515400Y-93422800D01*
X122815400Y-91322800D02*
X122815400Y-92722800D01*
X120815400Y-91322800D02*
G75*
G02*
X121515400Y-90622800I699999J1D01*
G01*
X121515400Y-93422800D02*
G75*
G02*
X120815400Y-92722800I0J700000D01*
G01*
X122115400Y-90622800D02*
G75*
G02*
X122815400Y-91322800I1J-699999D01*
G01*
X122815400Y-92722800D02*
G75*
G02*
X122115400Y-93422800I-700000J0D01*
G01*
%TO.C,C52*%
X150229600Y-113095364D02*
X150229600Y-113311036D01*
X150949600Y-113095364D02*
X150949600Y-113311036D01*
%TO.C,R26*%
X141704600Y-101464441D02*
X141704600Y-101157159D01*
X142464600Y-101464441D02*
X142464600Y-101157159D01*
%TO.C,Y1*%
X133449000Y-97960000D02*
X135749000Y-97960000D01*
X135749000Y-97960000D02*
X135749000Y-95260000D01*
%TO.C,R16*%
X137873136Y-81779186D02*
X138180418Y-81779186D01*
X137873136Y-82539186D02*
X138180418Y-82539186D01*
%TO.C,R36*%
X149451359Y-102910000D02*
X149758641Y-102910000D01*
X149451359Y-103670000D02*
X149758641Y-103670000D01*
%TO.C,C11*%
X148021964Y-96072000D02*
X148237636Y-96072000D01*
X148021964Y-96792000D02*
X148237636Y-96792000D01*
%TO.C,R15*%
X126750200Y-76792559D02*
X126750200Y-77099841D01*
X127510200Y-76792559D02*
X127510200Y-77099841D01*
%TO.C,CPS1*%
X152335000Y-94806400D02*
G75*
G02*
X150935000Y-94806400I-700000J0D01*
G01*
X150935000Y-94806400D02*
G75*
G02*
X152335000Y-94806400I700000J0D01*
G01*
%TO.C,C61*%
X149433763Y-126281201D02*
X149649435Y-126281201D01*
X149433763Y-127001201D02*
X149649435Y-127001201D01*
%TO.C,3V3_TP1*%
X145473000Y-84367000D02*
G75*
G02*
X143573000Y-84367000I-950000J0D01*
G01*
X143573000Y-84367000D02*
G75*
G02*
X145473000Y-84367000I950000J0D01*
G01*
%TO.C,R19*%
X131493559Y-123179200D02*
X131800841Y-123179200D01*
X131493559Y-123939200D02*
X131800841Y-123939200D01*
%TO.C,C51*%
X153327195Y-107908496D02*
X153174692Y-107755993D01*
X153836312Y-107399379D02*
X153683809Y-107246876D01*
D13*
%TO.C,ESP_TX_LED1*%
X128291400Y-125896000D02*
G75*
G02*
X128191400Y-125896000I-50000J0D01*
G01*
X128191400Y-125896000D02*
G75*
G02*
X128291400Y-125896000I50000J0D01*
G01*
D14*
%TO.C,Y3*%
X152301446Y-107204391D02*
X150392258Y-109113579D01*
X153927792Y-108830737D02*
X152301446Y-107204391D01*
%TO.C,FB_P1*%
X139178721Y-83857000D02*
X139504279Y-83857000D01*
X139178721Y-84877000D02*
X139504279Y-84877000D01*
%TO.C,UART_ESP1*%
X123635800Y-129409600D02*
X123635800Y-128029600D01*
X125015800Y-129409600D02*
X123635800Y-129409600D01*
X126285800Y-126649600D02*
X131475800Y-126649600D01*
X126285800Y-129409600D02*
X126285800Y-126649600D01*
X126285800Y-129409600D02*
X131475800Y-129409600D01*
X131475800Y-129409600D02*
X131475800Y-126649600D01*
D13*
%TO.C,RXD_1_RF*%
X153154000Y-104306000D02*
G75*
G02*
X153054000Y-104306000I-50000J0D01*
G01*
X153054000Y-104306000D02*
G75*
G02*
X153154000Y-104306000I50000J0D01*
G01*
D14*
%TO.C,C24*%
X139071164Y-73453000D02*
X139286836Y-73453000D01*
X139071164Y-74173000D02*
X139286836Y-74173000D01*
%TO.C,RBUS_VCC_TP1*%
X124441800Y-81750800D02*
G75*
G02*
X122541800Y-81750800I-950000J0D01*
G01*
X122541800Y-81750800D02*
G75*
G02*
X124441800Y-81750800I950000J0D01*
G01*
%TO.C,BBOUT_TP1*%
X127337400Y-74156200D02*
G75*
G02*
X125437400Y-74156200I-950000J0D01*
G01*
X125437400Y-74156200D02*
G75*
G02*
X127337400Y-74156200I950000J0D01*
G01*
%TO.C,R37*%
X149451359Y-103926000D02*
X149758641Y-103926000D01*
X149451359Y-104686000D02*
X149758641Y-104686000D01*
%TO.C,UART1*%
X116143200Y-117121000D02*
X116143200Y-125781000D01*
X116143200Y-125781000D02*
X124823200Y-125781000D01*
X124823200Y-117121000D02*
X116143200Y-117121000D01*
X124823200Y-118801000D02*
X124823200Y-119101000D01*
X124823200Y-119101000D02*
X125273200Y-119101000D01*
X124823200Y-121301000D02*
X124823200Y-121601000D01*
X124823200Y-121601000D02*
X125273200Y-121601000D01*
X124823200Y-123801000D02*
X124823200Y-124101000D01*
X124823200Y-124101000D02*
X125273200Y-124101000D01*
X124823200Y-125781000D02*
X124823200Y-117121000D01*
X125273200Y-118801000D02*
X124823200Y-118801000D01*
X125273200Y-119101000D02*
X125273200Y-118801000D01*
X125273200Y-121301000D02*
X124823200Y-121301000D01*
X125273200Y-121601000D02*
X125273200Y-121301000D01*
X125273200Y-123801000D02*
X124823200Y-123801000D01*
X125273200Y-124101000D02*
X125273200Y-123801000D01*
X126333200Y-125485264D02*
X126933200Y-125485264D01*
X126633200Y-125061000D02*
X126333200Y-125485264D01*
X126933200Y-125485264D02*
X126633200Y-125061000D01*
%TO.C,C7*%
X136500236Y-100237600D02*
X136284564Y-100237600D01*
X136500236Y-100957600D02*
X136284564Y-100957600D01*
D15*
%TO.C,U5*%
X135549000Y-75978000D02*
X135549000Y-79978000D01*
X140549000Y-75978000D02*
X140549000Y-79978000D01*
D12*
X140654000Y-73713000D02*
G75*
G02*
X140454000Y-73713000I-100000J0D01*
G01*
X140454000Y-73713000D02*
G75*
G02*
X140654000Y-73713000I100000J0D01*
G01*
D14*
%TO.C,C2*%
X131818600Y-91529436D02*
X131818600Y-91313764D01*
X132538600Y-91529436D02*
X132538600Y-91313764D01*
%TO.C,R11*%
X151957159Y-89307000D02*
X152264441Y-89307000D01*
X151957159Y-90067000D02*
X152264441Y-90067000D01*
%TO.C,CHL1*%
X152335000Y-96838400D02*
G75*
G02*
X150935000Y-96838400I-700000J0D01*
G01*
X150935000Y-96838400D02*
G75*
G02*
X152335000Y-96838400I700000J0D01*
G01*
%TO.C,C77*%
X145954236Y-113572600D02*
X145738564Y-113572600D01*
X145954236Y-114292600D02*
X145738564Y-114292600D01*
%TO.C,C73*%
X149601599Y-124013365D02*
X149601599Y-124229037D01*
X150321599Y-124013365D02*
X150321599Y-124229037D01*
%TO.C,C26*%
X136071656Y-81789186D02*
X136287328Y-81789186D01*
X136071656Y-82509186D02*
X136287328Y-82509186D01*
%TO.C,R32*%
X141095741Y-112651132D02*
X141403023Y-112651132D01*
X141095741Y-113411132D02*
X141403023Y-113411132D01*
%TO.C,R33*%
X141086759Y-111652200D02*
X141394041Y-111652200D01*
X141086759Y-112412200D02*
X141394041Y-112412200D01*
%TO.C,C4*%
X135484236Y-102549000D02*
X135268564Y-102549000D01*
X135484236Y-103269000D02*
X135268564Y-103269000D01*
D15*
%TO.C,U4*%
X127900200Y-75263274D02*
X127900200Y-75543274D01*
X127900200Y-75263274D02*
X128180200Y-75263274D01*
X127900200Y-78263274D02*
X127900200Y-77983274D01*
X127900200Y-78263274D02*
X128180200Y-78263274D01*
X130900200Y-75263274D02*
X130620200Y-75263274D01*
X130900200Y-75263274D02*
X130900200Y-75543274D01*
X130900200Y-78263274D02*
X130620200Y-78263274D01*
X130900200Y-78263274D02*
X130900200Y-77983274D01*
D12*
X127722200Y-75774274D02*
G75*
G02*
X127522200Y-75774274I-100000J0D01*
G01*
X127522200Y-75774274D02*
G75*
G02*
X127722200Y-75774274I100000J0D01*
G01*
D14*
%TO.C,U2*%
X123268600Y-90336000D02*
X123268600Y-88386000D01*
X123268600Y-90336000D02*
X123268600Y-92286000D01*
X128388600Y-90336000D02*
X128388600Y-88386000D01*
X128388600Y-90336000D02*
X128388600Y-92286000D01*
X128623600Y-87876000D02*
X128293600Y-87636000D01*
X128623600Y-87396000D01*
X128623600Y-87876000D01*
G36*
X128623600Y-87876000D02*
G01*
X128293600Y-87636000D01*
X128623600Y-87396000D01*
X128623600Y-87876000D01*
G37*
%TO.C,C54*%
X145606800Y-106503836D02*
X145606800Y-106288164D01*
X146326800Y-106503836D02*
X146326800Y-106288164D01*
%TO.C,C17*%
X125468600Y-96047364D02*
X125468600Y-96263036D01*
X126188600Y-96047364D02*
X126188600Y-96263036D01*
%TO.C,C21*%
X130627476Y-78791823D02*
X130908636Y-78791823D01*
X130627476Y-79811823D02*
X130908636Y-79811823D01*
%TO.C,C22*%
X128098036Y-78666200D02*
X127882364Y-78666200D01*
X128098036Y-79386200D02*
X127882364Y-79386200D01*
%TO.C,C71*%
X151796019Y-118731201D02*
X152077179Y-118731201D01*
X151796019Y-119751201D02*
X152077179Y-119751201D01*
%TO.C,DIO1*%
X154240000Y-100953907D02*
G75*
G02*
X152840000Y-100953907I-700000J0D01*
G01*
X152840000Y-100953907D02*
G75*
G02*
X154240000Y-100953907I700000J0D01*
G01*
%TO.C,C8*%
X130366364Y-93887600D02*
X130582036Y-93887600D01*
X130366364Y-94607600D02*
X130582036Y-94607600D01*
%TO.C,C16*%
X126505564Y-85734200D02*
X126721236Y-85734200D01*
X126505564Y-86454200D02*
X126721236Y-86454200D01*
D13*
%TO.C,CTXLED1*%
X129231400Y-87264800D02*
G75*
G02*
X129131400Y-87264800I-50000J0D01*
G01*
X129131400Y-87264800D02*
G75*
G02*
X129231400Y-87264800I50000J0D01*
G01*
D14*
%TO.C,ENJUMPER1*%
X120282200Y-95305200D02*
X121612200Y-95305200D01*
X120282200Y-96635200D02*
X120282200Y-95305200D01*
X120282200Y-97905200D02*
X120282200Y-100505200D01*
X120282200Y-97905200D02*
X122942200Y-97905200D01*
X120282200Y-100505200D02*
X122942200Y-100505200D01*
X122942200Y-97905200D02*
X122942200Y-100505200D01*
%TO.C,L3*%
X132588161Y-77158256D02*
X132588161Y-76359012D01*
X133708161Y-77158256D02*
X133708161Y-76359012D01*
%TO.C,BUSY1*%
X150531600Y-100953200D02*
G75*
G02*
X149131600Y-100953200I-700000J0D01*
G01*
X149131600Y-100953200D02*
G75*
G02*
X150531600Y-100953200I700000J0D01*
G01*
%TO.C,C65*%
X148573763Y-125281201D02*
X148789435Y-125281201D01*
X148573763Y-126001201D02*
X148789435Y-126001201D01*
%TO.C,R8*%
X129065300Y-92339058D02*
X129065300Y-91864542D01*
X130110300Y-92339058D02*
X130110300Y-91864542D01*
%TO.C,BOOTJUMPER1*%
X128664200Y-95254400D02*
X129994200Y-95254400D01*
X128664200Y-96584400D02*
X128664200Y-95254400D01*
X128664200Y-97854400D02*
X128664200Y-100454400D01*
X128664200Y-97854400D02*
X131324200Y-97854400D01*
X128664200Y-100454400D02*
X131324200Y-100454400D01*
X131324200Y-97854400D02*
X131324200Y-100454400D01*
%TO.C,C3*%
X122052836Y-93938400D02*
X121837164Y-93938400D01*
X122052836Y-94658400D02*
X121837164Y-94658400D01*
%TO.C,ANT_UFL1*%
X136431000Y-124782200D02*
X136431000Y-122082200D01*
X139151000Y-122032200D02*
X139151000Y-122672200D01*
X139151000Y-124192200D02*
X139781000Y-124192200D01*
X139151000Y-124832200D02*
X139151000Y-124192200D01*
%TO.C,ANT_S1*%
X136891800Y-88862800D02*
G75*
G02*
X135491800Y-88862800I-700000J0D01*
G01*
X135491800Y-88862800D02*
G75*
G02*
X136891800Y-88862800I700000J0D01*
G01*
%TO.C,D+_TP1*%
X152760000Y-81954000D02*
G75*
G02*
X151360000Y-81954000I-700000J0D01*
G01*
X151360000Y-81954000D02*
G75*
G02*
X152760000Y-81954000I700000J0D01*
G01*
%TO.C,DIO2*%
X148855200Y-100978600D02*
G75*
G02*
X147455200Y-100978600I-700000J0D01*
G01*
X147455200Y-100978600D02*
G75*
G02*
X148855200Y-100978600I700000J0D01*
G01*
%TO.C,D1*%
X124268600Y-99073600D02*
X124268600Y-98423600D01*
X124268600Y-99073600D02*
X124268600Y-99723600D01*
X127388600Y-99073600D02*
X127388600Y-98423600D01*
X127388600Y-99073600D02*
X127388600Y-99723600D01*
X124318600Y-100236100D02*
X123988600Y-100476100D01*
X123988600Y-99996100D01*
X124318600Y-100236100D01*
G36*
X124318600Y-100236100D02*
G01*
X123988600Y-100476100D01*
X123988600Y-99996100D01*
X124318600Y-100236100D01*
G37*
%TO.C,C58*%
X141048036Y-109081400D02*
X140832364Y-109081400D01*
X141048036Y-109801400D02*
X140832364Y-109801400D01*
%TO.C,R7*%
X131925600Y-106620641D02*
X131925600Y-106313359D01*
X132685600Y-106620641D02*
X132685600Y-106313359D01*
%TO.C,CANTX1*%
X132777000Y-88862800D02*
G75*
G02*
X131377000Y-88862800I-700000J0D01*
G01*
X131377000Y-88862800D02*
G75*
G02*
X132777000Y-88862800I700000J0D01*
G01*
D15*
%TO.C,U1*%
X138950000Y-92460000D02*
X138950000Y-92930000D01*
X138950000Y-92460000D02*
X139420000Y-92460000D01*
X138950000Y-99460000D02*
X138950000Y-98990000D01*
X138950000Y-99460000D02*
X139420000Y-99460000D01*
X145950000Y-92460000D02*
X145480000Y-92460000D01*
X145950000Y-92460000D02*
X145950000Y-92930000D01*
X145950000Y-99460000D02*
X145480000Y-99460000D01*
X145950000Y-99460000D02*
X145950000Y-98990000D01*
D12*
X138720000Y-99750000D02*
G75*
G02*
X138520000Y-99750000I-100000J0D01*
G01*
X138520000Y-99750000D02*
G75*
G02*
X138720000Y-99750000I100000J0D01*
G01*
D14*
%TO.C,C1*%
X137150764Y-102549000D02*
X137366436Y-102549000D01*
X137150764Y-103269000D02*
X137366436Y-103269000D01*
%TO.C,R10*%
X123731300Y-95369742D02*
X123731300Y-95844258D01*
X124776300Y-95369742D02*
X124776300Y-95844258D01*
%TD*%
%LPC*%
D17*
%TO.C,U4*%
X128525200Y-76963274D02*
X127800200Y-76963274D01*
X127800200Y-76563274D01*
X128525200Y-76563274D01*
X128525200Y-76963274D01*
G36*
X128525200Y-76963274D02*
G01*
X127800200Y-76963274D01*
X127800200Y-76563274D01*
X128525200Y-76563274D01*
X128525200Y-76963274D01*
G37*
X128525200Y-77463274D02*
X127800200Y-77463274D01*
X127800200Y-77063274D01*
X128525200Y-77063274D01*
X128525200Y-77463274D01*
G36*
X128525200Y-77463274D02*
G01*
X127800200Y-77463274D01*
X127800200Y-77063274D01*
X128525200Y-77063274D01*
X128525200Y-77463274D01*
G37*
X128850200Y-75888274D02*
X128450200Y-75888274D01*
X128450200Y-75163274D01*
X128850200Y-75163274D01*
X128850200Y-75888274D01*
G36*
X128850200Y-75888274D02*
G01*
X128450200Y-75888274D01*
X128450200Y-75163274D01*
X128850200Y-75163274D01*
X128850200Y-75888274D01*
G37*
X128850200Y-78363274D02*
X128450200Y-78363274D01*
X128450200Y-77638274D01*
X128850200Y-77638274D01*
X128850200Y-78363274D01*
G36*
X128850200Y-78363274D02*
G01*
X128450200Y-78363274D01*
X128450200Y-77638274D01*
X128850200Y-77638274D01*
X128850200Y-78363274D01*
G37*
X129350200Y-75888274D02*
X128950200Y-75888274D01*
X128950200Y-75163274D01*
X129350200Y-75163274D01*
X129350200Y-75888274D01*
G36*
X129350200Y-75888274D02*
G01*
X128950200Y-75888274D01*
X128950200Y-75163274D01*
X129350200Y-75163274D01*
X129350200Y-75888274D01*
G37*
X129350200Y-78363274D02*
X128950200Y-78363274D01*
X128950200Y-77638274D01*
X129350200Y-77638274D01*
X129350200Y-78363274D01*
G36*
X129350200Y-78363274D02*
G01*
X128950200Y-78363274D01*
X128950200Y-77638274D01*
X129350200Y-77638274D01*
X129350200Y-78363274D01*
G37*
X131000200Y-76988274D02*
X130275200Y-76988274D01*
X130275200Y-76538274D01*
X131000200Y-76538274D01*
X131000200Y-76988274D01*
G36*
X131000200Y-76988274D02*
G01*
X130275200Y-76988274D01*
X130275200Y-76538274D01*
X131000200Y-76538274D01*
X131000200Y-76988274D01*
G37*
X128525200Y-76198274D02*
X128525200Y-76463274D01*
X127800200Y-76463274D01*
X127800200Y-76063274D01*
X128390200Y-76063274D01*
X128525200Y-76198274D01*
G36*
X128525200Y-76198274D02*
G01*
X128525200Y-76463274D01*
X127800200Y-76463274D01*
X127800200Y-76063274D01*
X128390200Y-76063274D01*
X128525200Y-76198274D01*
G37*
X130350200Y-75830274D02*
X130249200Y-75888274D01*
X129450200Y-75888274D01*
X129450200Y-75163274D01*
X130350200Y-75163274D01*
X130350200Y-75830274D01*
G36*
X130350200Y-75830274D02*
G01*
X130249200Y-75888274D01*
X129450200Y-75888274D01*
X129450200Y-75163274D01*
X130350200Y-75163274D01*
X130350200Y-75830274D01*
G37*
X130350200Y-77696274D02*
X130350200Y-78363274D01*
X129450200Y-78363274D01*
X129450200Y-77638274D01*
X130249200Y-77638274D01*
X130350200Y-77696274D01*
G36*
X130350200Y-77696274D02*
G01*
X130350200Y-78363274D01*
X129450200Y-78363274D01*
X129450200Y-77638274D01*
X130249200Y-77638274D01*
X130350200Y-77696274D01*
G37*
X131000200Y-76338274D02*
X130275200Y-76338274D01*
X130275200Y-75946274D01*
X130376200Y-75888274D01*
X131000200Y-75888274D01*
X131000200Y-76338274D01*
G36*
X131000200Y-76338274D02*
G01*
X130275200Y-76338274D01*
X130275200Y-75946274D01*
X130376200Y-75888274D01*
X131000200Y-75888274D01*
X131000200Y-76338274D01*
G37*
X131000200Y-77638274D02*
X130376200Y-77638274D01*
X130275200Y-77580274D01*
X130275200Y-77188274D01*
X131000200Y-77188274D01*
X131000200Y-77638274D01*
G36*
X131000200Y-77638274D02*
G01*
X130376200Y-77638274D01*
X130275200Y-77580274D01*
X130275200Y-77188274D01*
X131000200Y-77188274D01*
X131000200Y-77638274D01*
G37*
%TO.C,ANT_UFL1*%
G36*
X138781000Y-124372200D02*
G01*
X136691000Y-124372200D01*
X136691000Y-122492200D01*
X138781000Y-122492200D01*
X138781000Y-124372200D01*
G37*
%TD*%
D18*
%TO.C,R29*%
X143075200Y-101820800D03*
X143075200Y-100800800D03*
%TD*%
D19*
%TO.C,R38*%
X147164600Y-103285293D03*
X147164600Y-104305293D03*
%TD*%
D20*
%TO.C,RF_RST1*%
X151635000Y-100953200D03*
%TD*%
D21*
%TO.C,R17*%
X139376777Y-82159186D03*
X140396777Y-82159186D03*
%TD*%
%TO.C,R31*%
X140732400Y-114038800D03*
X141752400Y-114038800D03*
%TD*%
D22*
%TO.C,J1*%
X122568000Y-112697000D03*
D23*
X122568000Y-108497000D03*
X122568000Y-104297000D03*
X128068000Y-112697000D03*
X128068000Y-108497000D03*
X128068000Y-104297000D03*
%TD*%
D24*
%TO.C,C80*%
X146323800Y-119774600D03*
X145363800Y-119774600D03*
%TD*%
D25*
%TO.C,C6*%
X138864000Y-100877000D03*
X139824000Y-100877000D03*
%TD*%
D19*
%TO.C,R4*%
X122475800Y-86979200D03*
X122475800Y-87999200D03*
%TD*%
D26*
%TO.C,TXD_1_RF*%
X152499000Y-103290000D03*
X151529000Y-103290000D03*
%TD*%
D27*
%TO.C,RXLED2*%
X131176100Y-122517800D03*
X132146100Y-122517800D03*
%TD*%
D28*
%TO.C,BBIN_TP1*%
X126082600Y-81750800D03*
%TD*%
D18*
%TO.C,R30*%
X144091200Y-101820800D03*
X144091200Y-100800800D03*
%TD*%
D20*
%TO.C,D-_TP1*%
X152143000Y-88177000D03*
%TD*%
D29*
%TO.C,L4*%
X142118300Y-107130000D03*
X143693300Y-107130000D03*
%TD*%
D30*
%TO.C,L8*%
X146326400Y-117816400D03*
X146326400Y-118786400D03*
%TD*%
D31*
%TO.C,FB_R2*%
X154048000Y-121578000D03*
X152473000Y-121578000D03*
%TD*%
D32*
%TO.C,3v3*%
X130095800Y-118504600D03*
%TD*%
D33*
%TO.C,R20*%
X131801600Y-125896000D03*
X130781600Y-125896000D03*
%TD*%
D24*
%TO.C,C5*%
X135881800Y-101893000D03*
X134921800Y-101893000D03*
%TD*%
D25*
%TO.C,C13*%
X134169000Y-94660000D03*
X135129000Y-94660000D03*
%TD*%
D34*
%TO.C,F1*%
X150395000Y-87550000D03*
X150395000Y-89125000D03*
%TD*%
D30*
%TO.C,CRXLED1*%
X121459800Y-85073800D03*
X121459800Y-86043800D03*
%TD*%
D35*
%TO.C,USBLED1*%
X154725000Y-92725000D03*
X154725000Y-91755000D03*
%TD*%
D36*
%TO.C,C79*%
X147342400Y-118781400D03*
X147342400Y-117821400D03*
%TD*%
D30*
%TO.C,L7*%
X146331600Y-114893000D03*
X146331600Y-115863000D03*
%TD*%
D37*
%TO.C,D2*%
X150450400Y-84111000D03*
D38*
X150450400Y-85811000D03*
X152450400Y-85811000D03*
X152450400Y-83911000D03*
%TD*%
D39*
%TO.C,C74*%
X151261599Y-123841201D03*
X152811599Y-123841201D03*
%TD*%
D19*
%TO.C,R5*%
X130197400Y-87842800D03*
X130197400Y-88862800D03*
%TD*%
D30*
%TO.C,3V3LED1*%
X122475800Y-85075800D03*
X122475800Y-86045800D03*
%TD*%
D20*
%TO.C,CRX1*%
X140313200Y-88862800D03*
%TD*%
D26*
%TO.C,L2*%
X137390400Y-97549600D03*
X136420400Y-97549600D03*
%TD*%
D40*
%TO.C,R9*%
X127454200Y-96432000D03*
X127454200Y-94782000D03*
%TD*%
D31*
%TO.C,FB_R3*%
X157020000Y-115609000D03*
X155445000Y-115609000D03*
%TD*%
D20*
%TO.C,CSD1*%
X138230400Y-88862800D03*
%TD*%
D19*
%TO.C,R1*%
X133169200Y-90914200D03*
X133169200Y-91934200D03*
%TD*%
D41*
%TO.C,J2*%
X155304400Y-87739600D03*
X155304400Y-81959600D03*
D42*
X154244400Y-88049600D03*
X154244400Y-87249600D03*
D43*
X154244400Y-86099600D03*
X154244400Y-85099600D03*
X154244400Y-84599600D03*
X154244400Y-83599600D03*
D42*
X154244400Y-82449600D03*
X154244400Y-81649600D03*
X154244400Y-81649600D03*
X154244400Y-82449600D03*
D43*
X154244400Y-83099600D03*
X154244400Y-84099600D03*
X154244400Y-85599600D03*
X154244400Y-86599600D03*
D42*
X154244400Y-87249600D03*
X154244400Y-88049600D03*
D44*
X154824400Y-89169600D03*
D45*
X158994400Y-89169600D03*
D44*
X154824400Y-80529600D03*
D45*
X158994400Y-80529600D03*
%TD*%
D46*
%TO.C,IC2*%
X148040600Y-112027200D03*
X148040600Y-111527200D03*
X148040600Y-111027200D03*
X148040600Y-110527200D03*
X148040600Y-110027200D03*
X148040600Y-109527200D03*
D47*
X147320600Y-108807200D03*
X146820600Y-108807200D03*
X146320600Y-108807200D03*
X145820600Y-108807200D03*
X145320600Y-108807200D03*
X144820600Y-108807200D03*
D46*
X144100600Y-109527200D03*
X144100600Y-110027200D03*
X144100600Y-110527200D03*
X144100600Y-111027200D03*
X144100600Y-111527200D03*
X144100600Y-112027200D03*
D47*
X144820600Y-112747200D03*
X145320600Y-112747200D03*
X145820600Y-112747200D03*
X146320600Y-112747200D03*
X146820600Y-112747200D03*
X147320600Y-112747200D03*
%TD*%
D24*
%TO.C,C14*%
X135109000Y-98560000D03*
X134149000Y-98560000D03*
%TD*%
D20*
%TO.C,CANRX1*%
X134109000Y-88862800D03*
%TD*%
D24*
%TO.C,C25*%
X137450377Y-73777186D03*
X136490377Y-73777186D03*
%TD*%
D27*
%TO.C,TXLED1*%
X128813900Y-122467000D03*
X129783900Y-122467000D03*
%TD*%
D18*
%TO.C,R18*%
X121459800Y-88003200D03*
X121459800Y-86983200D03*
%TD*%
D48*
%TO.C,U3*%
X128584200Y-80916200D03*
X128584200Y-81416200D03*
X128584200Y-81916200D03*
X128584200Y-82416200D03*
X130260200Y-82416200D03*
X130260200Y-81916200D03*
X130260200Y-81416200D03*
X130260200Y-80916200D03*
%TD*%
D20*
%TO.C,DIO3*%
X146580400Y-100978600D03*
%TD*%
D19*
%TO.C,R3*%
X134159800Y-90916200D03*
X134159800Y-91936200D03*
%TD*%
D24*
%TO.C,C9*%
X137807433Y-99575099D03*
X136847433Y-99575099D03*
%TD*%
D49*
%TO.C,C70*%
X148961599Y-123641201D03*
X148961599Y-124601201D03*
%TD*%
D20*
%TO.C,VAA_TP1*%
X140840000Y-108116000D03*
%TD*%
D25*
%TO.C,C27*%
X134896400Y-83198600D03*
X135856400Y-83198600D03*
%TD*%
D18*
%TO.C,R13*%
X153625000Y-92750000D03*
X153625000Y-91730000D03*
%TD*%
D21*
%TO.C,R2*%
X128796400Y-123508400D03*
X129816400Y-123508400D03*
%TD*%
D20*
%TO.C,CTX1*%
X151635000Y-98921200D03*
%TD*%
D50*
%TO.C,U12*%
X145316999Y-120916200D03*
X145322399Y-121416199D03*
X145322399Y-121916201D03*
X145322399Y-122416200D03*
X145322399Y-122916199D03*
X145322399Y-123416201D03*
X145316999Y-123916200D03*
X145816998Y-123914800D03*
X146316999Y-123914800D03*
X146816999Y-123914800D03*
X147317000Y-123914800D03*
X147816999Y-123916200D03*
X147811599Y-123416201D03*
X147811599Y-122916199D03*
X147811599Y-122416200D03*
X147811599Y-121916201D03*
X147811599Y-121416199D03*
X147816999Y-120916200D03*
X147317000Y-120917600D03*
X146816999Y-120917600D03*
X146316999Y-120917600D03*
X145816998Y-120917600D03*
D51*
X146566999Y-121841200D03*
X146566999Y-122991200D03*
%TD*%
D33*
%TO.C,R12*%
X152145000Y-80049000D03*
X151125000Y-80049000D03*
%TD*%
D39*
%TO.C,C23*%
X129805200Y-74231200D03*
X131355200Y-74231200D03*
%TD*%
D49*
%TO.C,C53*%
X149270600Y-112027200D03*
X149270600Y-112987200D03*
%TD*%
D24*
%TO.C,C78*%
X146326400Y-116828200D03*
X145366400Y-116828200D03*
%TD*%
D25*
%TO.C,C66*%
X148961599Y-121541201D03*
X149921599Y-121541201D03*
%TD*%
D18*
%TO.C,R25*%
X141068600Y-101820800D03*
X141068600Y-100800800D03*
%TD*%
%TO.C,R6*%
X133423200Y-106977000D03*
X133423200Y-105957000D03*
%TD*%
D36*
%TO.C,C57*%
X144950800Y-107384000D03*
X144950800Y-106424000D03*
%TD*%
D30*
%TO.C,DIO3_D1*%
X146174000Y-103310293D03*
X146174000Y-104280293D03*
%TD*%
D33*
%TO.C,R14*%
X132082200Y-80886200D03*
X131062200Y-80886200D03*
%TD*%
D25*
%TO.C,C68*%
X149961599Y-120541201D03*
X150921599Y-120541201D03*
%TD*%
D24*
%TO.C,C15*%
X125219000Y-86094200D03*
X124259000Y-86094200D03*
%TD*%
D52*
%TO.C,C50*%
X153744913Y-110009453D03*
X153066091Y-110688275D03*
%TD*%
D24*
%TO.C,C20*%
X128470200Y-79946200D03*
X127510200Y-79946200D03*
%TD*%
D53*
%TO.C,ANT_SMA1*%
X145814400Y-133208400D03*
D54*
X141434400Y-133208400D03*
X150194400Y-133208400D03*
%TD*%
D21*
%TO.C,R34*%
X140730400Y-111041600D03*
X141750400Y-111041600D03*
%TD*%
D36*
%TO.C,C10*%
X137766600Y-92012400D03*
X137766600Y-91052400D03*
%TD*%
D55*
%TO.C,JP1*%
X121815400Y-91372800D03*
D56*
X121815400Y-92672800D03*
%TD*%
D49*
%TO.C,C52*%
X150589600Y-112723200D03*
X150589600Y-113683200D03*
%TD*%
D18*
%TO.C,R26*%
X142084600Y-101820800D03*
X142084600Y-100800800D03*
%TD*%
D57*
%TO.C,Y1*%
X135149000Y-97310000D03*
X135149000Y-95910000D03*
X134049000Y-95910000D03*
X134049000Y-97310000D03*
%TD*%
D21*
%TO.C,R16*%
X137516777Y-82159186D03*
X138536777Y-82159186D03*
%TD*%
%TO.C,R36*%
X149095000Y-103290000D03*
X150115000Y-103290000D03*
%TD*%
D25*
%TO.C,C11*%
X147649800Y-96432000D03*
X148609800Y-96432000D03*
%TD*%
D19*
%TO.C,R15*%
X127130200Y-76436200D03*
X127130200Y-77456200D03*
%TD*%
D20*
%TO.C,CPS1*%
X151635000Y-94806400D03*
%TD*%
D25*
%TO.C,C61*%
X149061599Y-126641201D03*
X150021599Y-126641201D03*
%TD*%
D28*
%TO.C,3V3_TP1*%
X144523000Y-84367000D03*
%TD*%
D21*
%TO.C,R19*%
X131137200Y-123559200D03*
X132157200Y-123559200D03*
%TD*%
D58*
%TO.C,C51*%
X153844913Y-107917097D03*
X153166091Y-107238275D03*
%TD*%
D27*
%TO.C,ESP_TX_LED1*%
X128846400Y-125896000D03*
X129816400Y-125896000D03*
%TD*%
D59*
%TO.C,Y3*%
X152266091Y-108088275D03*
X151276142Y-109078224D03*
X152053959Y-109856041D03*
X153043908Y-108866092D03*
%TD*%
D29*
%TO.C,FB_P1*%
X138554000Y-84367000D03*
X140129000Y-84367000D03*
%TD*%
D32*
%TO.C,UART_ESP1*%
X125015800Y-128029600D03*
D60*
X127555800Y-128029600D03*
X130095800Y-128029600D03*
%TD*%
D26*
%TO.C,RXD_1_RF*%
X152499000Y-104306000D03*
X151529000Y-104306000D03*
%TD*%
D61*
%TO.C,H3*%
X121705000Y-132590000D03*
%TD*%
D25*
%TO.C,C24*%
X138699000Y-73813000D03*
X139659000Y-73813000D03*
%TD*%
D28*
%TO.C,RBUS_VCC_TP1*%
X123491800Y-81750800D03*
%TD*%
%TO.C,BBOUT_TP1*%
X126387400Y-74156200D03*
%TD*%
D21*
%TO.C,R37*%
X149095000Y-104306000D03*
X150115000Y-104306000D03*
%TD*%
D60*
%TO.C,UART1*%
X119453200Y-123951000D03*
X119453200Y-118951000D03*
D62*
X126633200Y-123951000D03*
D63*
X126633200Y-121451000D03*
X126633200Y-118951000D03*
%TD*%
D24*
%TO.C,C7*%
X136872400Y-100597600D03*
X135912400Y-100597600D03*
%TD*%
D64*
%TO.C,U5*%
X139954000Y-75508000D03*
X138684000Y-75508000D03*
X137414000Y-75508000D03*
X136144000Y-75508000D03*
X136144000Y-80448000D03*
X137414000Y-80448000D03*
X138684000Y-80448000D03*
X139954000Y-80448000D03*
D65*
X138049000Y-77978000D03*
%TD*%
D36*
%TO.C,C2*%
X132178600Y-91901600D03*
X132178600Y-90941600D03*
%TD*%
D21*
%TO.C,R11*%
X151600800Y-89687000D03*
X152620800Y-89687000D03*
%TD*%
D20*
%TO.C,CHL1*%
X151635000Y-96838400D03*
%TD*%
D24*
%TO.C,C77*%
X146326400Y-113932600D03*
X145366400Y-113932600D03*
%TD*%
D49*
%TO.C,C73*%
X149961599Y-123641201D03*
X149961599Y-124601201D03*
%TD*%
D25*
%TO.C,C26*%
X135699492Y-82149186D03*
X136659492Y-82149186D03*
%TD*%
D21*
%TO.C,R32*%
X140739382Y-113031132D03*
X141759382Y-113031132D03*
%TD*%
D61*
%TO.C,H1*%
X121705000Y-74589600D03*
%TD*%
D21*
%TO.C,R33*%
X140730400Y-112032200D03*
X141750400Y-112032200D03*
%TD*%
D24*
%TO.C,C4*%
X135856400Y-102909000D03*
X134896400Y-102909000D03*
%TD*%
D66*
%TO.C,U2*%
X127733600Y-87861000D03*
X126463600Y-87861000D03*
X125193600Y-87861000D03*
X123923600Y-87861000D03*
X123923600Y-92811000D03*
X125193600Y-92811000D03*
X126463600Y-92811000D03*
X127733600Y-92811000D03*
%TD*%
D36*
%TO.C,C54*%
X145966800Y-106876000D03*
X145966800Y-105916000D03*
%TD*%
D61*
%TO.C,H4*%
X157705400Y-132590000D03*
%TD*%
D49*
%TO.C,C17*%
X125828600Y-95675200D03*
X125828600Y-96635200D03*
%TD*%
D39*
%TO.C,C21*%
X129993056Y-79301823D03*
X131543056Y-79301823D03*
%TD*%
D27*
%TO.C,L1*%
X136822000Y-101893000D03*
X137792000Y-101893000D03*
%TD*%
D24*
%TO.C,C22*%
X128470200Y-79026200D03*
X127510200Y-79026200D03*
%TD*%
D39*
%TO.C,C71*%
X151161599Y-119241201D03*
X152711599Y-119241201D03*
%TD*%
D20*
%TO.C,DIO1*%
X153540000Y-100953907D03*
%TD*%
D25*
%TO.C,C8*%
X129994200Y-94247600D03*
X130954200Y-94247600D03*
%TD*%
%TO.C,C16*%
X126133400Y-86094200D03*
X127093400Y-86094200D03*
%TD*%
D30*
%TO.C,CTXLED1*%
X129181400Y-87869800D03*
X129181400Y-88839800D03*
%TD*%
D32*
%TO.C,ENJUMPER1*%
X121612200Y-96635200D03*
D67*
X121612200Y-99175200D03*
%TD*%
D68*
%TO.C,L3*%
X133148161Y-77821134D03*
X133148161Y-75696134D03*
%TD*%
D20*
%TO.C,BUSY1*%
X149831600Y-100953200D03*
%TD*%
D25*
%TO.C,C65*%
X148201599Y-125641201D03*
X149161599Y-125641201D03*
%TD*%
D40*
%TO.C,R8*%
X129587800Y-92926800D03*
X129587800Y-91276800D03*
%TD*%
D32*
%TO.C,BOOTJUMPER1*%
X129994200Y-96584400D03*
D67*
X129994200Y-99124400D03*
%TD*%
D24*
%TO.C,C3*%
X122425000Y-94298400D03*
X121465000Y-94298400D03*
%TD*%
D69*
%TO.C,ANT_UFL1*%
X139316000Y-123432200D03*
D70*
X137791000Y-124907200D03*
X137791000Y-121957200D03*
%TD*%
D20*
%TO.C,ANT_S1*%
X136191800Y-88862800D03*
%TD*%
%TO.C,D+_TP1*%
X152060000Y-81954000D03*
%TD*%
%TO.C,DIO2*%
X148155200Y-100978600D03*
%TD*%
D71*
%TO.C,D1*%
X124878600Y-100011100D03*
X126778600Y-100011100D03*
X125828600Y-98136100D03*
%TD*%
D24*
%TO.C,C58*%
X141420200Y-109441400D03*
X140460200Y-109441400D03*
%TD*%
D18*
%TO.C,R7*%
X132305600Y-106977000D03*
X132305600Y-105957000D03*
%TD*%
D20*
%TO.C,CANTX1*%
X132077000Y-88862800D03*
%TD*%
D72*
%TO.C,U1*%
X139850000Y-99405000D03*
X140250000Y-99405000D03*
X140650000Y-99405000D03*
X141050000Y-99405000D03*
X141450000Y-99405000D03*
X141850000Y-99405000D03*
X142250000Y-99405000D03*
X142650000Y-99405000D03*
X143050000Y-99405000D03*
X143450000Y-99405000D03*
X143850000Y-99405000D03*
X144250000Y-99405000D03*
X144650000Y-99405000D03*
X145050000Y-99405000D03*
D73*
X145895000Y-98560000D03*
X145895000Y-98160000D03*
X145895000Y-97760000D03*
X145895000Y-97360000D03*
X145895000Y-96960000D03*
X145895000Y-96560000D03*
X145895000Y-96160000D03*
X145895000Y-95760000D03*
X145895000Y-95360000D03*
X145895000Y-94960000D03*
X145895000Y-94560000D03*
X145895000Y-94160000D03*
X145895000Y-93760000D03*
X145895000Y-93360000D03*
D72*
X145050000Y-92515000D03*
X144650000Y-92515000D03*
X144250000Y-92515000D03*
X143850000Y-92515000D03*
X143450000Y-92515000D03*
X143050000Y-92515000D03*
X142650000Y-92515000D03*
X142250000Y-92515000D03*
X141850000Y-92515000D03*
X141450000Y-92515000D03*
X141050000Y-92515000D03*
X140650000Y-92515000D03*
X140250000Y-92515000D03*
X139850000Y-92515000D03*
D73*
X139005000Y-93360000D03*
X139005000Y-93760000D03*
X139005000Y-94160000D03*
X139005000Y-94560000D03*
X139005000Y-94960000D03*
X139005000Y-95360000D03*
X139005000Y-95760000D03*
X139005000Y-96160000D03*
X139005000Y-96560000D03*
X139005000Y-96960000D03*
X139005000Y-97360000D03*
X139005000Y-97760000D03*
X139005000Y-98160000D03*
X139005000Y-98560000D03*
D74*
X142450000Y-95960000D03*
%TD*%
D25*
%TO.C,C1*%
X136778600Y-102909000D03*
X137738600Y-102909000D03*
%TD*%
D61*
%TO.C,H2*%
X157705400Y-74589600D03*
%TD*%
D75*
%TO.C,R10*%
X124253800Y-94782000D03*
X124253800Y-96432000D03*
%TD*%
%LPD*%
M02*
