%TF.GenerationSoftware,KiCad,Pcbnew,9.0.1*%
%TF.CreationDate,2025-04-26T23:34:38+03:00*%
%TF.ProjectId,Ricardo-Hermes,52696361-7264-46f2-9d48-65726d65732e,rev?*%
%TF.SameCoordinates,Original*%
%TF.FileFunction,Copper,L2,Inr*%
%TF.FilePolarity,Positive*%
%FSLAX46Y46*%
G04 Gerber Fmt 4.6, Leading zero omitted, Abs format (unit mm)*
G04 Created by KiCad (PCBNEW 9.0.1) date 2025-04-26 23:34:38*
%MOMM*%
%LPD*%
G01*
G04 APERTURE LIST*
G04 Aperture macros list*
%AMRoundRect*
0 Rectangle with rounded corners*
0 $1 Rounding radius*
0 $2 $3 $4 $5 $6 $7 $8 $9 X,Y pos of 4 corners*
0 Add a 4 corners polygon primitive as box body*
4,1,4,$2,$3,$4,$5,$6,$7,$8,$9,$2,$3,0*
0 Add four circle primitives for the rounded corners*
1,1,$1+$1,$2,$3*
1,1,$1+$1,$4,$5*
1,1,$1+$1,$6,$7*
1,1,$1+$1,$8,$9*
0 Add four rect primitives between the rounded corners*
20,1,$1+$1,$2,$3,$4,$5,0*
20,1,$1+$1,$4,$5,$6,$7,0*
20,1,$1+$1,$6,$7,$8,$9,0*
20,1,$1+$1,$8,$9,$2,$3,0*%
G04 Aperture macros list end*
%TA.AperFunction,ComponentPad*%
%ADD10RoundRect,0.250001X1.399999X-1.099999X1.399999X1.099999X-1.399999X1.099999X-1.399999X-1.099999X0*%
%TD*%
%TA.AperFunction,ComponentPad*%
%ADD11O,3.300000X2.700000*%
%TD*%
%TA.AperFunction,ComponentPad*%
%ADD12R,1.700000X1.700000*%
%TD*%
%TA.AperFunction,ComponentPad*%
%ADD13O,2.000000X0.900000*%
%TD*%
%TA.AperFunction,ComponentPad*%
%ADD14O,1.700000X0.900000*%
%TD*%
%TA.AperFunction,ComponentPad*%
%ADD15C,0.970000*%
%TD*%
%TA.AperFunction,ComponentPad*%
%ADD16C,1.700000*%
%TD*%
%TA.AperFunction,ComponentPad*%
%ADD17C,5.600000*%
%TD*%
%TA.AperFunction,ComponentPad*%
%ADD18RoundRect,0.250000X0.850000X0.600000X-0.850000X0.600000X-0.850000X-0.600000X0.850000X-0.600000X0*%
%TD*%
%TA.AperFunction,ComponentPad*%
%ADD19O,2.200000X1.700000*%
%TD*%
%TA.AperFunction,ComponentPad*%
%ADD20O,1.700000X1.700000*%
%TD*%
%TA.AperFunction,ViaPad*%
%ADD21C,0.600000*%
%TD*%
%TA.AperFunction,ViaPad*%
%ADD22C,0.800000*%
%TD*%
%TA.AperFunction,ViaPad*%
%ADD23C,0.450000*%
%TD*%
G04 APERTURE END LIST*
D10*
%TO.N,GND*%
%TO.C,J1*%
X122568000Y-112697000D03*
D11*
X122568000Y-108497000D03*
%TO.N,RBUS_uC_V*%
X122568000Y-104297000D03*
%TO.N,+16.8V*%
X128068000Y-112697000D03*
%TO.N,/CAN+*%
X128068000Y-108497000D03*
%TO.N,/CAN-*%
X128068000Y-104297000D03*
%TD*%
D12*
%TO.N,+3V3*%
%TO.C,3v3*%
X130095800Y-118504600D03*
%TD*%
D13*
%TO.N,GND*%
%TO.C,J2*%
X154824400Y-89169600D03*
D14*
X158994400Y-89169600D03*
D13*
X154824400Y-80529600D03*
D14*
X158994400Y-80529600D03*
%TD*%
D15*
%TO.N,GND*%
%TO.C,ANT_SMA1*%
X141434400Y-129768400D03*
X150194400Y-129768400D03*
%TD*%
D12*
%TO.N,GND*%
%TO.C,UART_ESP1*%
X125015800Y-128029600D03*
D16*
%TO.N,/RXD_ESP*%
X127555800Y-128029600D03*
%TO.N,/TXD_ESP*%
X130095800Y-128029600D03*
%TD*%
D17*
%TO.N,GND*%
%TO.C,H3*%
X121705000Y-132590000D03*
%TD*%
D18*
%TO.N,GND*%
%TO.C,UART1*%
X126633200Y-123951000D03*
D19*
%TO.N,/TXD*%
X126633200Y-121451000D03*
%TO.N,/RXD*%
X126633200Y-118951000D03*
%TD*%
D17*
%TO.N,GND*%
%TO.C,H1*%
X121705000Y-74589600D03*
%TD*%
%TO.N,GND*%
%TO.C,H4*%
X157705400Y-132590000D03*
%TD*%
D12*
%TO.N,/CHIP_PU*%
%TO.C,ENJUMPER1*%
X121612200Y-96635200D03*
D20*
%TO.N,GND*%
X121612200Y-99175200D03*
%TD*%
D12*
%TO.N,/BOOT*%
%TO.C,BOOTJUMPER1*%
X129994200Y-96584400D03*
D20*
%TO.N,GND*%
X129994200Y-99124400D03*
%TD*%
D17*
%TO.N,GND*%
%TO.C,H2*%
X157705400Y-74589600D03*
%TD*%
D21*
%TO.N,GND*%
X146910600Y-124880000D03*
D22*
X119505000Y-110631026D03*
X135760000Y-134790000D03*
D23*
X132331000Y-99734000D03*
D21*
X127219200Y-78254200D03*
X139392200Y-121527200D03*
X144048800Y-133640000D03*
D22*
X153540000Y-134790000D03*
D23*
X132712000Y-94146000D03*
D21*
X145234200Y-117869600D03*
D22*
X154419999Y-119306001D03*
D23*
X133220000Y-99734000D03*
D22*
X126571500Y-72055800D03*
X126514400Y-90082000D03*
D21*
X136090200Y-121730400D03*
X137004600Y-104204400D03*
D22*
X157705000Y-72389600D03*
X159905400Y-114622740D03*
X159905400Y-94664170D03*
X119504000Y-126378600D03*
D21*
X147658800Y-135160000D03*
D23*
X154196491Y-106484075D03*
D21*
X136090200Y-124168800D03*
D22*
X119504000Y-117006000D03*
X159905400Y-90672456D03*
D21*
X146566999Y-122991200D03*
D23*
X154958491Y-107119075D03*
D21*
X141779800Y-124524400D03*
X147418600Y-116142400D03*
D23*
X156101491Y-109405075D03*
D22*
X150365000Y-92622000D03*
D21*
X146566999Y-121841200D03*
D22*
X159261035Y-73033965D03*
X153256500Y-72055800D03*
D23*
X151254000Y-111037000D03*
X149222000Y-108370000D03*
X142364000Y-97575000D03*
D21*
X147418600Y-114516800D03*
X145234200Y-118834800D03*
X146910600Y-128893200D03*
X147658800Y-131360000D03*
X147658800Y-134400000D03*
D22*
X119504000Y-121527200D03*
D21*
X140154200Y-124524400D03*
X146910600Y-127267600D03*
X137969800Y-125946800D03*
D22*
X120149365Y-73033965D03*
X159905400Y-78697314D03*
D23*
X134490000Y-93638000D03*
X138884200Y-92012400D03*
D22*
X159905400Y-98655884D03*
D23*
X135379000Y-93638000D03*
D22*
X121705000Y-72389600D03*
D21*
X144048800Y-131360000D03*
X125828600Y-97321000D03*
D23*
X144015000Y-94400000D03*
X146820600Y-111575000D03*
D22*
X119505000Y-94664170D03*
D21*
X137207800Y-120866800D03*
D23*
X132331000Y-96813000D03*
D21*
X145234200Y-115888400D03*
D23*
X156101491Y-108516075D03*
D22*
X119505000Y-132590000D03*
D23*
X154704491Y-110802075D03*
D21*
X144048800Y-132120000D03*
X144726200Y-128080400D03*
X147418600Y-116955200D03*
X138782600Y-125946800D03*
D22*
X119505000Y-98655884D03*
D21*
X146910600Y-128080400D03*
D22*
X119505000Y-113932600D03*
D23*
X144167400Y-124473600D03*
X144827800Y-124829200D03*
D21*
X147418600Y-115329600D03*
X140967000Y-122340000D03*
D23*
X153413000Y-111926000D03*
D22*
X135467500Y-72074200D03*
X150961599Y-121541201D03*
D21*
X146910600Y-129706000D03*
X136293400Y-125845200D03*
X136090200Y-123356000D03*
X136090200Y-122543200D03*
D23*
X155466491Y-110167075D03*
D21*
X138833400Y-120917600D03*
X144726200Y-127267600D03*
D22*
X159905400Y-102647598D03*
D23*
X150619000Y-110783000D03*
D21*
X140967000Y-124524400D03*
X147658800Y-133640000D03*
D22*
X139507777Y-78679386D03*
X139915000Y-72074200D03*
D21*
X146910600Y-125642000D03*
X144726200Y-128893200D03*
X144726200Y-126454800D03*
X144726200Y-129706000D03*
D23*
X151656491Y-106357075D03*
X154069491Y-111437075D03*
D21*
X144048800Y-132880000D03*
D22*
X139519000Y-77423000D03*
D23*
X135937800Y-94501600D03*
D22*
X159905400Y-106639312D03*
X136141000Y-110402000D03*
D23*
X144472200Y-120206400D03*
D22*
X133220000Y-134790000D03*
X150253800Y-134820000D03*
X131019000Y-72055800D03*
D23*
X133118400Y-97854400D03*
D21*
X141779800Y-122340000D03*
D22*
X120149365Y-134145635D03*
D21*
X147658800Y-132120000D03*
D23*
X145357200Y-110101800D03*
X136064800Y-95238200D03*
D22*
X119505000Y-90672456D03*
X119505000Y-78697314D03*
X159905400Y-82689028D03*
X136559000Y-78613000D03*
D21*
X139392200Y-125337200D03*
D22*
X119505000Y-128597882D03*
X159905400Y-128597882D03*
X130680000Y-134790000D03*
X141358800Y-134820000D03*
X119505000Y-82689028D03*
D21*
X147658800Y-132880000D03*
D22*
X159905400Y-125515000D03*
X159905400Y-118614454D03*
X159905400Y-132590000D03*
D21*
X139392200Y-122340000D03*
D22*
X119505000Y-86680742D03*
D21*
X142592600Y-122340000D03*
D23*
X132331000Y-94908000D03*
X133474000Y-93638000D03*
D21*
X139493800Y-101842200D03*
D22*
X159905400Y-122606168D03*
D23*
X155009291Y-108998675D03*
X155593491Y-107754075D03*
D21*
X139392200Y-124524400D03*
D22*
X148809000Y-72075800D03*
D23*
X136115600Y-98591000D03*
D22*
X121705000Y-134790000D03*
D21*
X144167400Y-130417200D03*
D23*
X134109000Y-99734000D03*
X132331000Y-97702000D03*
D21*
X136090200Y-124981600D03*
D23*
X153434491Y-105976075D03*
X154679091Y-108338275D03*
D22*
X159905400Y-86680742D03*
D23*
X128005200Y-80916200D03*
D22*
X159905400Y-74589600D03*
D21*
X143405400Y-124524400D03*
D23*
X152545491Y-106103075D03*
X148714000Y-108878000D03*
D22*
X119505000Y-106639312D03*
D23*
X133143800Y-97041600D03*
D21*
X143405400Y-122340000D03*
D23*
X132331000Y-98718000D03*
D22*
X157705000Y-134790000D03*
X159261035Y-134145635D03*
D21*
X145234200Y-114923200D03*
D22*
X152510999Y-125889201D03*
D23*
X142364000Y-94400000D03*
D21*
X147520200Y-130468000D03*
D23*
X136141000Y-95949400D03*
X133321600Y-98591000D03*
D21*
X138020600Y-120866800D03*
D22*
X138300000Y-134790000D03*
D21*
X137157000Y-125946800D03*
D23*
X151372200Y-84099000D03*
D21*
X136395000Y-120968400D03*
X147418600Y-113704000D03*
X144048800Y-135160000D03*
D22*
X119505000Y-102647598D03*
D21*
X142592600Y-124524400D03*
D23*
X134998000Y-99734000D03*
X154577491Y-109557475D03*
D21*
X148307600Y-120358800D03*
D23*
X150238000Y-107227000D03*
D22*
X125600000Y-134790000D03*
D23*
X144015000Y-97575000D03*
D22*
X143380000Y-89955000D03*
D23*
X149730000Y-107862000D03*
D21*
X144218200Y-122340000D03*
D23*
X135887000Y-99480000D03*
D22*
X159905400Y-110631026D03*
D23*
X132331000Y-95924000D03*
D22*
X144650000Y-104941000D03*
D21*
X140154200Y-122340000D03*
X144048800Y-134400000D03*
D23*
X145320600Y-111575000D03*
D21*
X146910600Y-126454800D03*
D22*
X119505000Y-74589600D03*
D23*
X151957296Y-111392742D03*
D22*
X144361500Y-72075800D03*
D21*
X144726200Y-125642000D03*
D22*
X133855000Y-110402000D03*
D23*
X152651000Y-111672000D03*
D22*
X141856000Y-105068000D03*
X128140000Y-134790000D03*
D23*
X149857000Y-110529000D03*
X136268000Y-93638000D03*
X150894491Y-106738075D03*
D22*
X143380000Y-108624000D03*
X136586777Y-77409386D03*
D23*
%TO.N,+3V3*%
X126158800Y-85154400D03*
D21*
X156257800Y-121578000D03*
X134388400Y-103975800D03*
X141348000Y-85510000D03*
X136522000Y-91479000D03*
X141348000Y-83351000D03*
X149476000Y-95670000D03*
D23*
X147012200Y-106109400D03*
D21*
X142364000Y-84367000D03*
X137842800Y-100597600D03*
X141348000Y-84367000D03*
D23*
X129994200Y-86780000D03*
D21*
X129460800Y-124676800D03*
X133651800Y-90234400D03*
X157019800Y-114262800D03*
D23*
X132077000Y-83935200D03*
X151427800Y-113226000D03*
D21*
X157019800Y-116853600D03*
X155343400Y-121578000D03*
%TO.N,VBUS*%
X152295000Y-92110000D03*
D23*
X127955033Y-81674116D03*
X133093000Y-81522200D03*
%TO.N,RBUS_uC_V*%
X122526600Y-82716000D03*
X131365800Y-82208000D03*
%TO.N,/Power/LX1*%
X132945444Y-77286610D03*
X130935938Y-77791523D03*
X132966936Y-78440239D03*
X130095478Y-77279386D03*
X133523158Y-78439650D03*
%TO.N,/Power/LX2*%
X130030200Y-76301200D03*
X130910200Y-75726200D03*
X133523178Y-75081023D03*
X132930200Y-75081023D03*
X132930200Y-76227413D03*
%TO.N,/BOOT*%
X135252000Y-91606000D03*
D21*
X139925600Y-97321000D03*
D23*
%TO.N,/CHIP_PU*%
X124203000Y-98489400D03*
X132339932Y-93342132D03*
D21*
X139859999Y-98515744D03*
D23*
%TO.N,Net-(JP1-B)*%
X123009200Y-92698200D03*
X128673400Y-94781000D03*
X125828600Y-94755600D03*
%TO.N,CRX*%
X136903000Y-115101000D03*
X140313200Y-89751800D03*
%TO.N,CSD*%
X138947700Y-89967700D03*
X135887000Y-114847000D03*
D22*
%TO.N,VAA*%
X152307799Y-120428201D03*
D21*
X151139399Y-127438601D03*
D22*
X151901399Y-123069801D03*
D23*
%TO.N,ANT_SEL*%
X136141000Y-115863000D03*
X137372900Y-90043900D03*
%TO.N,CPS*%
X148861599Y-122641201D03*
X149450600Y-97397200D03*
%TO.N,CHL*%
X149450600Y-98737403D03*
X149349000Y-119038000D03*
%TO.N,CTX*%
X149095000Y-120123401D03*
X150365000Y-98108400D03*
D21*
%TO.N,/CAN_RX*%
X147113800Y-95568400D03*
X134109000Y-88862800D03*
%TO.N,/CAN_TX*%
X132077000Y-88862800D03*
X148079000Y-94908000D03*
D23*
%TO.N,SX_BUSY*%
X150365000Y-105322000D03*
X149831600Y-100953200D03*
%TO.N,Net-(U1-U0TXD{slash}PROG{slash}GPIO43)*%
X133423200Y-105322000D03*
X137842800Y-95574397D03*
%TO.N,RF_RST*%
X150390400Y-99441900D03*
X153383600Y-112616400D03*
%TO.N,/TXD*%
X132381800Y-107836600D03*
%TO.N,/RXD*%
X137030000Y-94628600D03*
%TO.N,/RXD_ESP*%
X137842800Y-96203400D03*
%TO.N,/TXD_ESP*%
X133448600Y-107811200D03*
%TO.N,+5V*%
X152744400Y-82899600D03*
X152744400Y-86899600D03*
D22*
X151296000Y-86435800D03*
D23*
%TO.N,Net-(U1-MTDI{slash}JTAG{slash}GPIO41)*%
X137157000Y-93561800D03*
X132305600Y-105296600D03*
D21*
%TO.N,VPP*%
X140988400Y-108298400D03*
X149522800Y-113886400D03*
%TD*%
%TA.AperFunction,Conductor*%
%TO.N,GND*%
G36*
X157608243Y-71442869D02*
G01*
X157948213Y-71460687D01*
X157961121Y-71462044D01*
X158294151Y-71514790D01*
X158306834Y-71517485D01*
X158632546Y-71604760D01*
X158644878Y-71608767D01*
X158959680Y-71729609D01*
X158971516Y-71734878D01*
X159271977Y-71887970D01*
X159283191Y-71894446D01*
X159565982Y-72078092D01*
X159576483Y-72085721D01*
X159838529Y-72297922D01*
X159848174Y-72306607D01*
X160086592Y-72545025D01*
X160095277Y-72554670D01*
X160307478Y-72816716D01*
X160315107Y-72827217D01*
X160498750Y-73110002D01*
X160505232Y-73121229D01*
X160658316Y-73421673D01*
X160663595Y-73433530D01*
X160784430Y-73748315D01*
X160788441Y-73760659D01*
X160875712Y-74086359D01*
X160878410Y-74099055D01*
X160931156Y-74432078D01*
X160932513Y-74444987D01*
X160950328Y-74784951D01*
X160950498Y-74791440D01*
X160950316Y-130537592D01*
X160950316Y-132584968D01*
X160950146Y-132591458D01*
X160932327Y-132931426D01*
X160930970Y-132944334D01*
X160878223Y-133277358D01*
X160875525Y-133290054D01*
X160788253Y-133615754D01*
X160784242Y-133628098D01*
X160663407Y-133942882D01*
X160658128Y-133954739D01*
X160505047Y-134255176D01*
X160498557Y-134266416D01*
X160314919Y-134549193D01*
X160307290Y-134559694D01*
X160095088Y-134821741D01*
X160086403Y-134831386D01*
X159847986Y-135069803D01*
X159838341Y-135078488D01*
X159576294Y-135290690D01*
X159565793Y-135298319D01*
X159283016Y-135481957D01*
X159271776Y-135488447D01*
X158971339Y-135641528D01*
X158959482Y-135646807D01*
X158644698Y-135767642D01*
X158632354Y-135771653D01*
X158306654Y-135858925D01*
X158293958Y-135861623D01*
X157960934Y-135914370D01*
X157948026Y-135915727D01*
X157608059Y-135933546D01*
X157601569Y-135933716D01*
X121808231Y-135933716D01*
X121801741Y-135933546D01*
X121461773Y-135915727D01*
X121448865Y-135914370D01*
X121115841Y-135861623D01*
X121103145Y-135858925D01*
X120777445Y-135771653D01*
X120765101Y-135767642D01*
X120450317Y-135646807D01*
X120438460Y-135641528D01*
X120138017Y-135488443D01*
X120126790Y-135481961D01*
X119844006Y-135298319D01*
X119833505Y-135290690D01*
X119571458Y-135078488D01*
X119561813Y-135069803D01*
X119323396Y-134831386D01*
X119314711Y-134821741D01*
X119102509Y-134559694D01*
X119094880Y-134549193D01*
X118911235Y-134266404D01*
X118904759Y-134255188D01*
X118751666Y-133954728D01*
X118746397Y-133942893D01*
X118625555Y-133628092D01*
X118621546Y-133615754D01*
X118534274Y-133290054D01*
X118531577Y-133277368D01*
X118478825Y-132944315D01*
X118477472Y-132931443D01*
X118459654Y-132591476D01*
X118459484Y-132584986D01*
X118459484Y-130632755D01*
X118459497Y-128916228D01*
X118459503Y-128128143D01*
X126555299Y-128128143D01*
X126593747Y-128321429D01*
X126593750Y-128321439D01*
X126669164Y-128503507D01*
X126669171Y-128503520D01*
X126778660Y-128667381D01*
X126778663Y-128667385D01*
X126918014Y-128806736D01*
X126918018Y-128806739D01*
X127081879Y-128916228D01*
X127081892Y-128916235D01*
X127263960Y-128991649D01*
X127263965Y-128991651D01*
X127263969Y-128991651D01*
X127263970Y-128991652D01*
X127457256Y-129030100D01*
X127457259Y-129030100D01*
X127654343Y-129030100D01*
X127784382Y-129004232D01*
X127847635Y-128991651D01*
X128029714Y-128916232D01*
X128193582Y-128806739D01*
X128332939Y-128667382D01*
X128442432Y-128503514D01*
X128517851Y-128321435D01*
X128556300Y-128128143D01*
X129095299Y-128128143D01*
X129133747Y-128321429D01*
X129133750Y-128321439D01*
X129209164Y-128503507D01*
X129209171Y-128503520D01*
X129318660Y-128667381D01*
X129318663Y-128667385D01*
X129458014Y-128806736D01*
X129458018Y-128806739D01*
X129621879Y-128916228D01*
X129621892Y-128916235D01*
X129803960Y-128991649D01*
X129803965Y-128991651D01*
X129803969Y-128991651D01*
X129803970Y-128991652D01*
X129997256Y-129030100D01*
X129997259Y-129030100D01*
X130194343Y-129030100D01*
X130324382Y-129004232D01*
X130387635Y-128991651D01*
X130569714Y-128916232D01*
X130733582Y-128806739D01*
X130872939Y-128667382D01*
X130982432Y-128503514D01*
X131057851Y-128321435D01*
X131096300Y-128128141D01*
X131096300Y-127931059D01*
X131096300Y-127931056D01*
X131057852Y-127737770D01*
X131057851Y-127737769D01*
X131057851Y-127737765D01*
X131005960Y-127612487D01*
X130982435Y-127555692D01*
X130982428Y-127555679D01*
X130905171Y-127440056D01*
X130872939Y-127391818D01*
X130872936Y-127391814D01*
X130860414Y-127379292D01*
X150688899Y-127379292D01*
X150688899Y-127497910D01*
X150719600Y-127612487D01*
X150778910Y-127715214D01*
X150862786Y-127799090D01*
X150965513Y-127858400D01*
X151080090Y-127889101D01*
X151080093Y-127889101D01*
X151198705Y-127889101D01*
X151198708Y-127889101D01*
X151313285Y-127858400D01*
X151416012Y-127799090D01*
X151499888Y-127715214D01*
X151559198Y-127612487D01*
X151589899Y-127497910D01*
X151589899Y-127379292D01*
X151559198Y-127264715D01*
X151499888Y-127161988D01*
X151416012Y-127078112D01*
X151313285Y-127018802D01*
X151198708Y-126988101D01*
X151080090Y-126988101D01*
X150965513Y-127018802D01*
X150965511Y-127018802D01*
X150965511Y-127018803D01*
X150862786Y-127078112D01*
X150862783Y-127078114D01*
X150778912Y-127161985D01*
X150778910Y-127161988D01*
X150719600Y-127264715D01*
X150688899Y-127379292D01*
X130860414Y-127379292D01*
X130733585Y-127252463D01*
X130733581Y-127252460D01*
X130569720Y-127142971D01*
X130569707Y-127142964D01*
X130387639Y-127067550D01*
X130387629Y-127067547D01*
X130194343Y-127029100D01*
X130194341Y-127029100D01*
X129997259Y-127029100D01*
X129997257Y-127029100D01*
X129803970Y-127067547D01*
X129803960Y-127067550D01*
X129621892Y-127142964D01*
X129621879Y-127142971D01*
X129458018Y-127252460D01*
X129458014Y-127252463D01*
X129318663Y-127391814D01*
X129318660Y-127391818D01*
X129209171Y-127555679D01*
X129209164Y-127555692D01*
X129133750Y-127737760D01*
X129133747Y-127737770D01*
X129095300Y-127931056D01*
X129095300Y-127931059D01*
X129095300Y-128128141D01*
X129095300Y-128128143D01*
X129095299Y-128128143D01*
X128556300Y-128128143D01*
X128556300Y-128128141D01*
X128556300Y-127931059D01*
X128556300Y-127931056D01*
X128517852Y-127737770D01*
X128517851Y-127737769D01*
X128517851Y-127737765D01*
X128465960Y-127612487D01*
X128442435Y-127555692D01*
X128442428Y-127555679D01*
X128332939Y-127391818D01*
X128332936Y-127391814D01*
X128193585Y-127252463D01*
X128193581Y-127252460D01*
X128029720Y-127142971D01*
X128029707Y-127142964D01*
X127847639Y-127067550D01*
X127847629Y-127067547D01*
X127654343Y-127029100D01*
X127654341Y-127029100D01*
X127457259Y-127029100D01*
X127457257Y-127029100D01*
X127263970Y-127067547D01*
X127263960Y-127067550D01*
X127081892Y-127142964D01*
X127081879Y-127142971D01*
X126918018Y-127252460D01*
X126918014Y-127252463D01*
X126778663Y-127391814D01*
X126778660Y-127391818D01*
X126669171Y-127555679D01*
X126669164Y-127555692D01*
X126593750Y-127737760D01*
X126593747Y-127737770D01*
X126555300Y-127931056D01*
X126555300Y-127931059D01*
X126555300Y-128128141D01*
X126555300Y-128128143D01*
X126555299Y-128128143D01*
X118459503Y-128128143D01*
X118459527Y-124818685D01*
X118479212Y-124751647D01*
X118532016Y-124705892D01*
X118601175Y-124695949D01*
X118664730Y-124724975D01*
X118671208Y-124731006D01*
X118733667Y-124793465D01*
X118874316Y-124895653D01*
X119029219Y-124974580D01*
X119029221Y-124974581D01*
X119194558Y-125028302D01*
X119194559Y-125028302D01*
X119194562Y-125028303D01*
X119366274Y-125055500D01*
X119366275Y-125055500D01*
X119540125Y-125055500D01*
X119540126Y-125055500D01*
X119711838Y-125028303D01*
X119711841Y-125028302D01*
X119711842Y-125028302D01*
X119877178Y-124974581D01*
X119877178Y-124974580D01*
X119877181Y-124974580D01*
X120032084Y-124895653D01*
X120172733Y-124793465D01*
X120295665Y-124670533D01*
X120334202Y-124617491D01*
X129010300Y-124617491D01*
X129010300Y-124736109D01*
X129041001Y-124850686D01*
X129100311Y-124953413D01*
X129184187Y-125037289D01*
X129286914Y-125096599D01*
X129401491Y-125127300D01*
X129401494Y-125127300D01*
X129520106Y-125127300D01*
X129520109Y-125127300D01*
X129634686Y-125096599D01*
X129737413Y-125037289D01*
X129821289Y-124953413D01*
X129880599Y-124850686D01*
X129911300Y-124736109D01*
X129911300Y-124617491D01*
X129880599Y-124502914D01*
X129821289Y-124400187D01*
X129803302Y-124382200D01*
X136691000Y-124382200D01*
X138781000Y-124382200D01*
X138781000Y-122587948D01*
X148457099Y-122587948D01*
X148457099Y-122694454D01*
X148484665Y-122797332D01*
X148537919Y-122889570D01*
X148613230Y-122964881D01*
X148705468Y-123018135D01*
X148808346Y-123045701D01*
X148808348Y-123045701D01*
X148914850Y-123045701D01*
X148914852Y-123045701D01*
X149017730Y-123018135D01*
X149053772Y-122997326D01*
X151350899Y-122997326D01*
X151350899Y-123142276D01*
X151374798Y-123231467D01*
X151388416Y-123282289D01*
X151460887Y-123407812D01*
X151460889Y-123407814D01*
X151460890Y-123407816D01*
X151563384Y-123510310D01*
X151563385Y-123510311D01*
X151563387Y-123510312D01*
X151688910Y-123582783D01*
X151688911Y-123582783D01*
X151688914Y-123582785D01*
X151828924Y-123620301D01*
X151828927Y-123620301D01*
X151973871Y-123620301D01*
X151973874Y-123620301D01*
X152113884Y-123582785D01*
X152239414Y-123510310D01*
X152341908Y-123407816D01*
X152414383Y-123282286D01*
X152451899Y-123142276D01*
X152451899Y-122997326D01*
X152414383Y-122857316D01*
X152408138Y-122846500D01*
X152341910Y-122731789D01*
X152341905Y-122731783D01*
X152239416Y-122629294D01*
X152239410Y-122629289D01*
X152113887Y-122556818D01*
X152113888Y-122556818D01*
X152102405Y-122553741D01*
X151973874Y-122519301D01*
X151828924Y-122519301D01*
X151700392Y-122553741D01*
X151688910Y-122556818D01*
X151563387Y-122629289D01*
X151563381Y-122629294D01*
X151460892Y-122731783D01*
X151460887Y-122731789D01*
X151388416Y-122857312D01*
X151388415Y-122857316D01*
X151350899Y-122997326D01*
X149053772Y-122997326D01*
X149109968Y-122964881D01*
X149185279Y-122889570D01*
X149238533Y-122797332D01*
X149266099Y-122694454D01*
X149266099Y-122587948D01*
X149238533Y-122485070D01*
X149185279Y-122392832D01*
X149109968Y-122317521D01*
X149017730Y-122264267D01*
X148914852Y-122236701D01*
X148808346Y-122236701D01*
X148705467Y-122264267D01*
X148613230Y-122317521D01*
X148613227Y-122317523D01*
X148537921Y-122392829D01*
X148537919Y-122392832D01*
X148484665Y-122485069D01*
X148465440Y-122556818D01*
X148457099Y-122587948D01*
X138781000Y-122587948D01*
X138781000Y-122482200D01*
X136691000Y-122482200D01*
X136691000Y-124382200D01*
X129803302Y-124382200D01*
X129737413Y-124316311D01*
X129634686Y-124257001D01*
X129520109Y-124226300D01*
X129401491Y-124226300D01*
X129286914Y-124257001D01*
X129286912Y-124257001D01*
X129286912Y-124257002D01*
X129184187Y-124316311D01*
X129184184Y-124316313D01*
X129100313Y-124400184D01*
X129100311Y-124400187D01*
X129041001Y-124502914D01*
X129010300Y-124617491D01*
X120334202Y-124617491D01*
X120397853Y-124529884D01*
X120476780Y-124374981D01*
X120530503Y-124209638D01*
X120557700Y-124037926D01*
X120557700Y-123864074D01*
X120530503Y-123692362D01*
X120530502Y-123692358D01*
X120530502Y-123692357D01*
X120476781Y-123527021D01*
X120397852Y-123372115D01*
X120295665Y-123231467D01*
X120172733Y-123108535D01*
X120032084Y-123006347D01*
X120014379Y-122997326D01*
X119877178Y-122927418D01*
X119711841Y-122873697D01*
X119583054Y-122853299D01*
X119540126Y-122846500D01*
X119366274Y-122846500D01*
X119309036Y-122855565D01*
X119194560Y-122873697D01*
X119194557Y-122873697D01*
X119029221Y-122927418D01*
X118874315Y-123006347D01*
X118733668Y-123108534D01*
X118671220Y-123170982D01*
X118609896Y-123204466D01*
X118540205Y-123199481D01*
X118484271Y-123157610D01*
X118459855Y-123092145D01*
X118459539Y-123083323D01*
X118459551Y-121549543D01*
X125382699Y-121549543D01*
X125421147Y-121742829D01*
X125421150Y-121742839D01*
X125496564Y-121924907D01*
X125496571Y-121924920D01*
X125606060Y-122088781D01*
X125606063Y-122088785D01*
X125745414Y-122228136D01*
X125745418Y-122228139D01*
X125909279Y-122337628D01*
X125909292Y-122337635D01*
X126091360Y-122413049D01*
X126091365Y-122413051D01*
X126091369Y-122413051D01*
X126091370Y-122413052D01*
X126284656Y-122451500D01*
X126284659Y-122451500D01*
X126981743Y-122451500D01*
X127111782Y-122425632D01*
X127175035Y-122413051D01*
X127357114Y-122337632D01*
X127520982Y-122228139D01*
X127660339Y-122088782D01*
X127769832Y-121924914D01*
X127845251Y-121742835D01*
X127883700Y-121549541D01*
X127883700Y-121518691D01*
X154892900Y-121518691D01*
X154892900Y-121637309D01*
X154923601Y-121751886D01*
X154982911Y-121854613D01*
X155066787Y-121938489D01*
X155169514Y-121997799D01*
X155284091Y-122028500D01*
X155284094Y-122028500D01*
X155402706Y-122028500D01*
X155402709Y-122028500D01*
X155517286Y-121997799D01*
X155620013Y-121938489D01*
X155703889Y-121854613D01*
X155703889Y-121854612D01*
X155709636Y-121848866D01*
X155711083Y-121850313D01*
X155758645Y-121815581D01*
X155828391Y-121811422D01*
X155889313Y-121845631D01*
X155895701Y-121853003D01*
X155897310Y-121854612D01*
X155897311Y-121854613D01*
X155981187Y-121938489D01*
X156083914Y-121997799D01*
X156198491Y-122028500D01*
X156198494Y-122028500D01*
X156317106Y-122028500D01*
X156317109Y-122028500D01*
X156431686Y-121997799D01*
X156534413Y-121938489D01*
X156618289Y-121854613D01*
X156677599Y-121751886D01*
X156708300Y-121637309D01*
X156708300Y-121518691D01*
X156677599Y-121404114D01*
X156618289Y-121301387D01*
X156534413Y-121217511D01*
X156431686Y-121158201D01*
X156317109Y-121127500D01*
X156198491Y-121127500D01*
X156083914Y-121158201D01*
X156083912Y-121158201D01*
X156083912Y-121158202D01*
X155981187Y-121217511D01*
X155981184Y-121217513D01*
X155891564Y-121307134D01*
X155890117Y-121305687D01*
X155842542Y-121340423D01*
X155772795Y-121344573D01*
X155711877Y-121310358D01*
X155705494Y-121302992D01*
X155620015Y-121217513D01*
X155620013Y-121217511D01*
X155517286Y-121158201D01*
X155402709Y-121127500D01*
X155284091Y-121127500D01*
X155169514Y-121158201D01*
X155169512Y-121158201D01*
X155169512Y-121158202D01*
X155066787Y-121217511D01*
X155066784Y-121217513D01*
X154982913Y-121301384D01*
X154982911Y-121301387D01*
X154923601Y-121404114D01*
X154892900Y-121518691D01*
X127883700Y-121518691D01*
X127883700Y-121352459D01*
X127883700Y-121352456D01*
X127845252Y-121159170D01*
X127845251Y-121159169D01*
X127845251Y-121159165D01*
X127770501Y-120978701D01*
X127769835Y-120977092D01*
X127769828Y-120977079D01*
X127660339Y-120813218D01*
X127660336Y-120813214D01*
X127520985Y-120673863D01*
X127520981Y-120673860D01*
X127357120Y-120564371D01*
X127357107Y-120564364D01*
X127175039Y-120488950D01*
X127175029Y-120488947D01*
X126981743Y-120450500D01*
X126981741Y-120450500D01*
X126284659Y-120450500D01*
X126284657Y-120450500D01*
X126091370Y-120488947D01*
X126091360Y-120488950D01*
X125909292Y-120564364D01*
X125909279Y-120564371D01*
X125745418Y-120673860D01*
X125745414Y-120673863D01*
X125606063Y-120813214D01*
X125606060Y-120813218D01*
X125496571Y-120977079D01*
X125496564Y-120977092D01*
X125421150Y-121159160D01*
X125421147Y-121159170D01*
X125382700Y-121352456D01*
X125382700Y-121352459D01*
X125382700Y-121549541D01*
X125382700Y-121549543D01*
X125382699Y-121549543D01*
X118459551Y-121549543D01*
X118459562Y-120070148D01*
X148690500Y-120070148D01*
X148690500Y-120176654D01*
X148718066Y-120279532D01*
X148771320Y-120371770D01*
X148846631Y-120447081D01*
X148938869Y-120500335D01*
X149041747Y-120527901D01*
X149041749Y-120527901D01*
X149148251Y-120527901D01*
X149148253Y-120527901D01*
X149251131Y-120500335D01*
X149343369Y-120447081D01*
X149418680Y-120371770D01*
X149427943Y-120355726D01*
X151757299Y-120355726D01*
X151757299Y-120500676D01*
X151794815Y-120640686D01*
X151794816Y-120640689D01*
X151867287Y-120766212D01*
X151867289Y-120766214D01*
X151867290Y-120766216D01*
X151969784Y-120868710D01*
X151969785Y-120868711D01*
X151969787Y-120868712D01*
X152095310Y-120941183D01*
X152095311Y-120941183D01*
X152095314Y-120941185D01*
X152235324Y-120978701D01*
X152235327Y-120978701D01*
X152380271Y-120978701D01*
X152380274Y-120978701D01*
X152520284Y-120941185D01*
X152645814Y-120868710D01*
X152748308Y-120766216D01*
X152820783Y-120640686D01*
X152858299Y-120500676D01*
X152858299Y-120355726D01*
X152820783Y-120215716D01*
X152798230Y-120176654D01*
X152748310Y-120090189D01*
X152748305Y-120090183D01*
X152645816Y-119987694D01*
X152645810Y-119987689D01*
X152520287Y-119915218D01*
X152520288Y-119915218D01*
X152508805Y-119912141D01*
X152380274Y-119877701D01*
X152235324Y-119877701D01*
X152106792Y-119912141D01*
X152095310Y-119915218D01*
X151969787Y-119987689D01*
X151969781Y-119987694D01*
X151867292Y-120090183D01*
X151867287Y-120090189D01*
X151794816Y-120215712D01*
X151794815Y-120215716D01*
X151757299Y-120355726D01*
X149427943Y-120355726D01*
X149471934Y-120279532D01*
X149499500Y-120176654D01*
X149499500Y-120070148D01*
X149471934Y-119967270D01*
X149418680Y-119875032D01*
X149343369Y-119799721D01*
X149251131Y-119746467D01*
X149148253Y-119718901D01*
X149041747Y-119718901D01*
X148938868Y-119746467D01*
X148846631Y-119799721D01*
X148846628Y-119799723D01*
X148771322Y-119875029D01*
X148771320Y-119875032D01*
X148718066Y-119967269D01*
X148701712Y-120028303D01*
X148690500Y-120070148D01*
X118459562Y-120070148D01*
X118459564Y-119818722D01*
X118479249Y-119751684D01*
X118532053Y-119705929D01*
X118601212Y-119695986D01*
X118664767Y-119725012D01*
X118671245Y-119731043D01*
X118733667Y-119793465D01*
X118874316Y-119895653D01*
X118962145Y-119940404D01*
X119029221Y-119974581D01*
X119194558Y-120028302D01*
X119194559Y-120028302D01*
X119194562Y-120028303D01*
X119366274Y-120055500D01*
X119366275Y-120055500D01*
X119540125Y-120055500D01*
X119540126Y-120055500D01*
X119711838Y-120028303D01*
X119711841Y-120028302D01*
X119711842Y-120028302D01*
X119877178Y-119974581D01*
X119877178Y-119974580D01*
X119877181Y-119974580D01*
X120032084Y-119895653D01*
X120172733Y-119793465D01*
X120295665Y-119670533D01*
X120397853Y-119529884D01*
X120476780Y-119374981D01*
X120505572Y-119286368D01*
X120530502Y-119209642D01*
X120530502Y-119209641D01*
X120530503Y-119209638D01*
X120555860Y-119049543D01*
X125382699Y-119049543D01*
X125421147Y-119242829D01*
X125421150Y-119242839D01*
X125496564Y-119424907D01*
X125496571Y-119424920D01*
X125606060Y-119588781D01*
X125606063Y-119588785D01*
X125745414Y-119728136D01*
X125745418Y-119728139D01*
X125909279Y-119837628D01*
X125909292Y-119837635D01*
X126049362Y-119895653D01*
X126091365Y-119913051D01*
X126091369Y-119913051D01*
X126091370Y-119913052D01*
X126284656Y-119951500D01*
X126284659Y-119951500D01*
X126981743Y-119951500D01*
X127037526Y-119940404D01*
X127133769Y-119921259D01*
X127175035Y-119913051D01*
X127357114Y-119837632D01*
X127520982Y-119728139D01*
X127660339Y-119588782D01*
X127769832Y-119424914D01*
X127792817Y-119369422D01*
X129095299Y-119369422D01*
X129104031Y-119413317D01*
X129104034Y-119413324D01*
X129111778Y-119424914D01*
X129137296Y-119463104D01*
X129187078Y-119496367D01*
X129187081Y-119496367D01*
X129187082Y-119496368D01*
X129230977Y-119505100D01*
X129230980Y-119505100D01*
X130960622Y-119505100D01*
X131004517Y-119496368D01*
X131004517Y-119496367D01*
X131004522Y-119496367D01*
X131054304Y-119463104D01*
X131087567Y-119413322D01*
X131095194Y-119374981D01*
X131096300Y-119369422D01*
X131096300Y-118984747D01*
X148944500Y-118984747D01*
X148944500Y-119091253D01*
X148972066Y-119194131D01*
X149025320Y-119286369D01*
X149100631Y-119361680D01*
X149192869Y-119414934D01*
X149295747Y-119442500D01*
X149295749Y-119442500D01*
X149402251Y-119442500D01*
X149402253Y-119442500D01*
X149505131Y-119414934D01*
X149597369Y-119361680D01*
X149672680Y-119286369D01*
X149725934Y-119194131D01*
X149753500Y-119091253D01*
X149753500Y-118984747D01*
X149725934Y-118881869D01*
X149672680Y-118789631D01*
X149597369Y-118714320D01*
X149505131Y-118661066D01*
X149402253Y-118633500D01*
X149295747Y-118633500D01*
X149192868Y-118661066D01*
X149100631Y-118714320D01*
X149100628Y-118714322D01*
X149025322Y-118789628D01*
X149025320Y-118789631D01*
X148972066Y-118881868D01*
X148972066Y-118881869D01*
X148944500Y-118984747D01*
X131096300Y-118984747D01*
X131096300Y-117639777D01*
X131087568Y-117595882D01*
X131087567Y-117595881D01*
X131087567Y-117595878D01*
X131054304Y-117546096D01*
X131054303Y-117546095D01*
X131004524Y-117512834D01*
X131004517Y-117512831D01*
X130960622Y-117504100D01*
X130960620Y-117504100D01*
X129230980Y-117504100D01*
X129230978Y-117504100D01*
X129187082Y-117512831D01*
X129187075Y-117512834D01*
X129137296Y-117546095D01*
X129137295Y-117546096D01*
X129104034Y-117595875D01*
X129104031Y-117595882D01*
X129095300Y-117639777D01*
X129095300Y-117639780D01*
X129095300Y-119369420D01*
X129095300Y-119369422D01*
X129095299Y-119369422D01*
X127792817Y-119369422D01*
X127845251Y-119242835D01*
X127875403Y-119091252D01*
X127883700Y-119049543D01*
X127883700Y-118852456D01*
X127845252Y-118659170D01*
X127845251Y-118659169D01*
X127845251Y-118659165D01*
X127790515Y-118527019D01*
X127769835Y-118477092D01*
X127769828Y-118477079D01*
X127660339Y-118313218D01*
X127660336Y-118313214D01*
X127520985Y-118173863D01*
X127520981Y-118173860D01*
X127357120Y-118064371D01*
X127357107Y-118064364D01*
X127175039Y-117988950D01*
X127175029Y-117988947D01*
X126981743Y-117950500D01*
X126981741Y-117950500D01*
X126284659Y-117950500D01*
X126284657Y-117950500D01*
X126091370Y-117988947D01*
X126091360Y-117988950D01*
X125909292Y-118064364D01*
X125909279Y-118064371D01*
X125745418Y-118173860D01*
X125745414Y-118173863D01*
X125606063Y-118313214D01*
X125606060Y-118313218D01*
X125496571Y-118477079D01*
X125496564Y-118477092D01*
X125421150Y-118659160D01*
X125421147Y-118659170D01*
X125382700Y-118852456D01*
X125382700Y-118852459D01*
X125382700Y-119049541D01*
X125382700Y-119049543D01*
X125382699Y-119049543D01*
X120555860Y-119049543D01*
X120557700Y-119037926D01*
X120557700Y-118864074D01*
X120530503Y-118692362D01*
X120530502Y-118692358D01*
X120530502Y-118692357D01*
X120476781Y-118527021D01*
X120397852Y-118372115D01*
X120295665Y-118231467D01*
X120172733Y-118108535D01*
X120032084Y-118006347D01*
X119877178Y-117927418D01*
X119711841Y-117873697D01*
X119583054Y-117853299D01*
X119540126Y-117846500D01*
X119366274Y-117846500D01*
X119309036Y-117855565D01*
X119194560Y-117873697D01*
X119194557Y-117873697D01*
X119029221Y-117927418D01*
X118874315Y-118006347D01*
X118733668Y-118108534D01*
X118671257Y-118170945D01*
X118609933Y-118204429D01*
X118540242Y-118199444D01*
X118484308Y-118157573D01*
X118459892Y-118092108D01*
X118459576Y-118083286D01*
X118459586Y-116794291D01*
X156569300Y-116794291D01*
X156569300Y-116912909D01*
X156600001Y-117027486D01*
X156659311Y-117130213D01*
X156743187Y-117214089D01*
X156845914Y-117273399D01*
X156960491Y-117304100D01*
X156960494Y-117304100D01*
X157079106Y-117304100D01*
X157079109Y-117304100D01*
X157193686Y-117273399D01*
X157296413Y-117214089D01*
X157380289Y-117130213D01*
X157439599Y-117027486D01*
X157470300Y-116912909D01*
X157470300Y-116794291D01*
X157439599Y-116679714D01*
X157380289Y-116576987D01*
X157296413Y-116493111D01*
X157193686Y-116433801D01*
X157079109Y-116403100D01*
X156960491Y-116403100D01*
X156845914Y-116433801D01*
X156845912Y-116433801D01*
X156845912Y-116433802D01*
X156743187Y-116493111D01*
X156743184Y-116493113D01*
X156659313Y-116576984D01*
X156659311Y-116576987D01*
X156600001Y-116679714D01*
X156569300Y-116794291D01*
X118459586Y-116794291D01*
X118459593Y-115809747D01*
X135736500Y-115809747D01*
X135736500Y-115916253D01*
X135764066Y-116019131D01*
X135817320Y-116111369D01*
X135892631Y-116186680D01*
X135984869Y-116239934D01*
X136087747Y-116267500D01*
X136087749Y-116267500D01*
X136194251Y-116267500D01*
X136194253Y-116267500D01*
X136297131Y-116239934D01*
X136389369Y-116186680D01*
X136464680Y-116111369D01*
X136517934Y-116019131D01*
X136545500Y-115916253D01*
X136545500Y-115809747D01*
X136517934Y-115706869D01*
X136464680Y-115614631D01*
X136389369Y-115539320D01*
X136297131Y-115486066D01*
X136194253Y-115458500D01*
X136087747Y-115458500D01*
X135984869Y-115486066D01*
X135974774Y-115491894D01*
X135974771Y-115491895D01*
X135892631Y-115539320D01*
X135892628Y-115539322D01*
X135817322Y-115614628D01*
X135817320Y-115614631D01*
X135764066Y-115706868D01*
X135764066Y-115706869D01*
X135736500Y-115809747D01*
X118459593Y-115809747D01*
X118459601Y-114793747D01*
X135482500Y-114793747D01*
X135482500Y-114900253D01*
X135510066Y-115003131D01*
X135563320Y-115095369D01*
X135638631Y-115170680D01*
X135730869Y-115223934D01*
X135833747Y-115251500D01*
X135833749Y-115251500D01*
X135913738Y-115251500D01*
X135940253Y-115251500D01*
X136043131Y-115223934D01*
X136135369Y-115170680D01*
X136210680Y-115095369D01*
X136238175Y-115047747D01*
X136498500Y-115047747D01*
X136498500Y-115154253D01*
X136526066Y-115257131D01*
X136579320Y-115349369D01*
X136654631Y-115424680D01*
X136746869Y-115477934D01*
X136849747Y-115505500D01*
X136849749Y-115505500D01*
X136956251Y-115505500D01*
X136956253Y-115505500D01*
X137059131Y-115477934D01*
X137151369Y-115424680D01*
X137226680Y-115349369D01*
X137279934Y-115257131D01*
X137307500Y-115154253D01*
X137307500Y-115047747D01*
X137279934Y-114944869D01*
X137226680Y-114852631D01*
X137151369Y-114777320D01*
X137059131Y-114724066D01*
X136956253Y-114696500D01*
X136849747Y-114696500D01*
X136746868Y-114724066D01*
X136654631Y-114777320D01*
X136654628Y-114777322D01*
X136579322Y-114852628D01*
X136579320Y-114852631D01*
X136531895Y-114934771D01*
X136531894Y-114934774D01*
X136526066Y-114944869D01*
X136498500Y-115047747D01*
X136238175Y-115047747D01*
X136263934Y-115003131D01*
X136291500Y-114900253D01*
X136291500Y-114793747D01*
X136263934Y-114690869D01*
X136210680Y-114598631D01*
X136135369Y-114523320D01*
X136043131Y-114470066D01*
X135940253Y-114442500D01*
X135833747Y-114442500D01*
X135730868Y-114470066D01*
X135638631Y-114523320D01*
X135638628Y-114523322D01*
X135563322Y-114598628D01*
X135563320Y-114598631D01*
X135510066Y-114690868D01*
X135501171Y-114724066D01*
X135482500Y-114793747D01*
X118459601Y-114793747D01*
X118459617Y-112578902D01*
X126267500Y-112578902D01*
X126267500Y-112815097D01*
X126304446Y-113048368D01*
X126377433Y-113272996D01*
X126433041Y-113382131D01*
X126484657Y-113483433D01*
X126623483Y-113674510D01*
X126790490Y-113841517D01*
X126981567Y-113980343D01*
X126993031Y-113986184D01*
X127192003Y-114087566D01*
X127192005Y-114087566D01*
X127192008Y-114087568D01*
X127312412Y-114126689D01*
X127416631Y-114160553D01*
X127649903Y-114197500D01*
X127649908Y-114197500D01*
X128486097Y-114197500D01*
X128719368Y-114160553D01*
X128943992Y-114087568D01*
X129154433Y-113980343D01*
X129345510Y-113841517D01*
X129359936Y-113827091D01*
X149072300Y-113827091D01*
X149072300Y-113945709D01*
X149103001Y-114060286D01*
X149162311Y-114163013D01*
X149246187Y-114246889D01*
X149348914Y-114306199D01*
X149463491Y-114336900D01*
X149463494Y-114336900D01*
X149582106Y-114336900D01*
X149582109Y-114336900D01*
X149696686Y-114306199D01*
X149799413Y-114246889D01*
X149842811Y-114203491D01*
X156569300Y-114203491D01*
X156569300Y-114322109D01*
X156600001Y-114436686D01*
X156659311Y-114539413D01*
X156743187Y-114623289D01*
X156845914Y-114682599D01*
X156960491Y-114713300D01*
X156960494Y-114713300D01*
X157079106Y-114713300D01*
X157079109Y-114713300D01*
X157193686Y-114682599D01*
X157296413Y-114623289D01*
X157380289Y-114539413D01*
X157439599Y-114436686D01*
X157470300Y-114322109D01*
X157470300Y-114203491D01*
X157439599Y-114088914D01*
X157380289Y-113986187D01*
X157296413Y-113902311D01*
X157193686Y-113843001D01*
X157079109Y-113812300D01*
X156960491Y-113812300D01*
X156845914Y-113843001D01*
X156845912Y-113843001D01*
X156845912Y-113843002D01*
X156743187Y-113902311D01*
X156743184Y-113902313D01*
X156659313Y-113986184D01*
X156659311Y-113986187D01*
X156616530Y-114060286D01*
X156600001Y-114088914D01*
X156569300Y-114203491D01*
X149842811Y-114203491D01*
X149883289Y-114163013D01*
X149942599Y-114060286D01*
X149973300Y-113945709D01*
X149973300Y-113827091D01*
X149942599Y-113712514D01*
X149883289Y-113609787D01*
X149799413Y-113525911D01*
X149696686Y-113466601D01*
X149582109Y-113435900D01*
X149463491Y-113435900D01*
X149348914Y-113466601D01*
X149348912Y-113466601D01*
X149348912Y-113466602D01*
X149246187Y-113525911D01*
X149246184Y-113525913D01*
X149162313Y-113609784D01*
X149162311Y-113609787D01*
X149103001Y-113712514D01*
X149072300Y-113827091D01*
X129359936Y-113827091D01*
X129512517Y-113674510D01*
X129651343Y-113483433D01*
X129758568Y-113272992D01*
X129791140Y-113172747D01*
X151023300Y-113172747D01*
X151023300Y-113279253D01*
X151050866Y-113382131D01*
X151104120Y-113474369D01*
X151179431Y-113549680D01*
X151271669Y-113602934D01*
X151374547Y-113630500D01*
X151374549Y-113630500D01*
X151481051Y-113630500D01*
X151481053Y-113630500D01*
X151583931Y-113602934D01*
X151676169Y-113549680D01*
X151751480Y-113474369D01*
X151804734Y-113382131D01*
X151832300Y-113279253D01*
X151832300Y-113172747D01*
X151804734Y-113069869D01*
X151751480Y-112977631D01*
X151676169Y-112902320D01*
X151583931Y-112849066D01*
X151481053Y-112821500D01*
X151374547Y-112821500D01*
X151271668Y-112849066D01*
X151179431Y-112902320D01*
X151179428Y-112902322D01*
X151104122Y-112977628D01*
X151104120Y-112977631D01*
X151050866Y-113069868D01*
X151050866Y-113069869D01*
X151023300Y-113172747D01*
X129791140Y-113172747D01*
X129831553Y-113048368D01*
X129868500Y-112815097D01*
X129868500Y-112578903D01*
X129867789Y-112574414D01*
X129867789Y-112574412D01*
X129866005Y-112563147D01*
X152979100Y-112563147D01*
X152979100Y-112669653D01*
X153006666Y-112772531D01*
X153059920Y-112864769D01*
X153135231Y-112940080D01*
X153227469Y-112993334D01*
X153330347Y-113020900D01*
X153330349Y-113020900D01*
X153436851Y-113020900D01*
X153436853Y-113020900D01*
X153539731Y-112993334D01*
X153631969Y-112940080D01*
X153707280Y-112864769D01*
X153760534Y-112772531D01*
X153788100Y-112669653D01*
X153788100Y-112563147D01*
X153760534Y-112460269D01*
X153707280Y-112368031D01*
X153631969Y-112292720D01*
X153539731Y-112239466D01*
X153436853Y-112211900D01*
X153330347Y-112211900D01*
X153227468Y-112239466D01*
X153135231Y-112292720D01*
X153135228Y-112292722D01*
X153059922Y-112368028D01*
X153059920Y-112368031D01*
X153006666Y-112460268D01*
X153006666Y-112460269D01*
X152979100Y-112563147D01*
X129866005Y-112563147D01*
X129831553Y-112345631D01*
X129758566Y-112121003D01*
X129651342Y-111910566D01*
X129512517Y-111719490D01*
X129345510Y-111552483D01*
X129154433Y-111413657D01*
X128943996Y-111306433D01*
X128719368Y-111233446D01*
X128486097Y-111196500D01*
X128486092Y-111196500D01*
X127649908Y-111196500D01*
X127649903Y-111196500D01*
X127416631Y-111233446D01*
X127192003Y-111306433D01*
X126981566Y-111413657D01*
X126872550Y-111492862D01*
X126790490Y-111552483D01*
X126790488Y-111552485D01*
X126790487Y-111552485D01*
X126623485Y-111719487D01*
X126623485Y-111719488D01*
X126623483Y-111719490D01*
X126563862Y-111801550D01*
X126484657Y-111910566D01*
X126377433Y-112121003D01*
X126304446Y-112345631D01*
X126267500Y-112578902D01*
X118459617Y-112578902D01*
X118459648Y-108378902D01*
X126267500Y-108378902D01*
X126267500Y-108615097D01*
X126304446Y-108848368D01*
X126377433Y-109072996D01*
X126484657Y-109283433D01*
X126623483Y-109474510D01*
X126790490Y-109641517D01*
X126981567Y-109780343D01*
X127080991Y-109831002D01*
X127192003Y-109887566D01*
X127192005Y-109887566D01*
X127192008Y-109887568D01*
X127312412Y-109926689D01*
X127416631Y-109960553D01*
X127649903Y-109997500D01*
X127649908Y-109997500D01*
X128486097Y-109997500D01*
X128719368Y-109960553D01*
X128943992Y-109887568D01*
X129154433Y-109780343D01*
X129345510Y-109641517D01*
X129512517Y-109474510D01*
X129651343Y-109283433D01*
X129758568Y-109072992D01*
X129831553Y-108848368D01*
X129852170Y-108718197D01*
X129868500Y-108615097D01*
X129868500Y-108378902D01*
X129831553Y-108145631D01*
X129773619Y-107967331D01*
X129758568Y-107921008D01*
X129758566Y-107921005D01*
X129758566Y-107921003D01*
X129712969Y-107831515D01*
X129688426Y-107783347D01*
X131977300Y-107783347D01*
X131977300Y-107889853D01*
X132004866Y-107992731D01*
X132058120Y-108084969D01*
X132133431Y-108160280D01*
X132225669Y-108213534D01*
X132328547Y-108241100D01*
X132328549Y-108241100D01*
X132435051Y-108241100D01*
X132435053Y-108241100D01*
X132442551Y-108239091D01*
X140537900Y-108239091D01*
X140537900Y-108357709D01*
X140568601Y-108472286D01*
X140627911Y-108575013D01*
X140711787Y-108658889D01*
X140814514Y-108718199D01*
X140929091Y-108748900D01*
X140929094Y-108748900D01*
X141047706Y-108748900D01*
X141047709Y-108748900D01*
X141162286Y-108718199D01*
X141265013Y-108658889D01*
X141348889Y-108575013D01*
X141408199Y-108472286D01*
X141438900Y-108357709D01*
X141438900Y-108239091D01*
X141408199Y-108124514D01*
X141348889Y-108021787D01*
X141265013Y-107937911D01*
X141162286Y-107878601D01*
X141047709Y-107847900D01*
X140929091Y-107847900D01*
X140814514Y-107878601D01*
X140814512Y-107878601D01*
X140814512Y-107878602D01*
X140711787Y-107937911D01*
X140711784Y-107937913D01*
X140627913Y-108021784D01*
X140627911Y-108021787D01*
X140591433Y-108084969D01*
X140568601Y-108124514D01*
X140537900Y-108239091D01*
X132442551Y-108239091D01*
X132537931Y-108213534D01*
X132630169Y-108160280D01*
X132705480Y-108084969D01*
X132758734Y-107992731D01*
X132786300Y-107889853D01*
X132786300Y-107783347D01*
X132779494Y-107757947D01*
X133044100Y-107757947D01*
X133044100Y-107864453D01*
X133071666Y-107967331D01*
X133124920Y-108059569D01*
X133200231Y-108134880D01*
X133292469Y-108188134D01*
X133395347Y-108215700D01*
X133395349Y-108215700D01*
X133501851Y-108215700D01*
X133501853Y-108215700D01*
X133604731Y-108188134D01*
X133696969Y-108134880D01*
X133772280Y-108059569D01*
X133825534Y-107967331D01*
X133853100Y-107864453D01*
X133853100Y-107757947D01*
X133825534Y-107655069D01*
X133772280Y-107562831D01*
X133696969Y-107487520D01*
X133604731Y-107434266D01*
X133501853Y-107406700D01*
X133395347Y-107406700D01*
X133292468Y-107434266D01*
X133200231Y-107487520D01*
X133200228Y-107487522D01*
X133124922Y-107562828D01*
X133124920Y-107562831D01*
X133071666Y-107655068D01*
X133064860Y-107680468D01*
X133044100Y-107757947D01*
X132779494Y-107757947D01*
X132758734Y-107680469D01*
X132705480Y-107588231D01*
X132630169Y-107512920D01*
X132537931Y-107459666D01*
X132435053Y-107432100D01*
X132328547Y-107432100D01*
X132225668Y-107459666D01*
X132133431Y-107512920D01*
X132133428Y-107512922D01*
X132058122Y-107588228D01*
X132058120Y-107588231D01*
X132004866Y-107680468D01*
X131996801Y-107710567D01*
X131977300Y-107783347D01*
X129688426Y-107783347D01*
X129687698Y-107781918D01*
X129651343Y-107710567D01*
X129512517Y-107519490D01*
X129345510Y-107352483D01*
X129154433Y-107213657D01*
X128943996Y-107106433D01*
X128719368Y-107033446D01*
X128486097Y-106996500D01*
X128486092Y-106996500D01*
X127649908Y-106996500D01*
X127649903Y-106996500D01*
X127416631Y-107033446D01*
X127192003Y-107106433D01*
X126981566Y-107213657D01*
X126872550Y-107292862D01*
X126790490Y-107352483D01*
X126790488Y-107352485D01*
X126790487Y-107352485D01*
X126623485Y-107519487D01*
X126623485Y-107519488D01*
X126623483Y-107519490D01*
X126591996Y-107562828D01*
X126484657Y-107710566D01*
X126377433Y-107921003D01*
X126304446Y-108145631D01*
X126267500Y-108378902D01*
X118459648Y-108378902D01*
X118459665Y-106056147D01*
X146607700Y-106056147D01*
X146607700Y-106162653D01*
X146635266Y-106265531D01*
X146688520Y-106357769D01*
X146763831Y-106433080D01*
X146856069Y-106486334D01*
X146958947Y-106513900D01*
X146958949Y-106513900D01*
X147065451Y-106513900D01*
X147065453Y-106513900D01*
X147168331Y-106486334D01*
X147260569Y-106433080D01*
X147335880Y-106357769D01*
X147389134Y-106265531D01*
X147416700Y-106162653D01*
X147416700Y-106056147D01*
X147389134Y-105953269D01*
X147335880Y-105861031D01*
X147260569Y-105785720D01*
X147168331Y-105732466D01*
X147065453Y-105704900D01*
X146958947Y-105704900D01*
X146856068Y-105732466D01*
X146763831Y-105785720D01*
X146763828Y-105785722D01*
X146688522Y-105861028D01*
X146688520Y-105861031D01*
X146635266Y-105953268D01*
X146635266Y-105953269D01*
X146607700Y-106056147D01*
X118459665Y-106056147D01*
X118459679Y-104178902D01*
X120767500Y-104178902D01*
X120767500Y-104415097D01*
X120804446Y-104648368D01*
X120877433Y-104872996D01*
X120966719Y-105048228D01*
X120984657Y-105083433D01*
X121123483Y-105274510D01*
X121290490Y-105441517D01*
X121481567Y-105580343D01*
X121559942Y-105620277D01*
X121692003Y-105687566D01*
X121692005Y-105687566D01*
X121692008Y-105687568D01*
X121811825Y-105726499D01*
X121916631Y-105760553D01*
X122149903Y-105797500D01*
X122149908Y-105797500D01*
X122986097Y-105797500D01*
X123219368Y-105760553D01*
X123443992Y-105687568D01*
X123654433Y-105580343D01*
X123845510Y-105441517D01*
X124012517Y-105274510D01*
X124151343Y-105083433D01*
X124258568Y-104872992D01*
X124331553Y-104648368D01*
X124368500Y-104415097D01*
X124368500Y-104178902D01*
X126267500Y-104178902D01*
X126267500Y-104415097D01*
X126304446Y-104648368D01*
X126377433Y-104872996D01*
X126466719Y-105048228D01*
X126484657Y-105083433D01*
X126623483Y-105274510D01*
X126790490Y-105441517D01*
X126981567Y-105580343D01*
X127059942Y-105620277D01*
X127192003Y-105687566D01*
X127192005Y-105687566D01*
X127192008Y-105687568D01*
X127311825Y-105726499D01*
X127416631Y-105760553D01*
X127649903Y-105797500D01*
X127649908Y-105797500D01*
X128486097Y-105797500D01*
X128719368Y-105760553D01*
X128943992Y-105687568D01*
X129154433Y-105580343D01*
X129345510Y-105441517D01*
X129512517Y-105274510D01*
X129535158Y-105243347D01*
X131901100Y-105243347D01*
X131901100Y-105349853D01*
X131928666Y-105452731D01*
X131981920Y-105544969D01*
X132057231Y-105620280D01*
X132149469Y-105673534D01*
X132252347Y-105701100D01*
X132252349Y-105701100D01*
X132358851Y-105701100D01*
X132358853Y-105701100D01*
X132461731Y-105673534D01*
X132553969Y-105620280D01*
X132629280Y-105544969D01*
X132682534Y-105452731D01*
X132710100Y-105349853D01*
X132710100Y-105268747D01*
X133018700Y-105268747D01*
X133018700Y-105375253D01*
X133046266Y-105478131D01*
X133099520Y-105570369D01*
X133174831Y-105645680D01*
X133267069Y-105698934D01*
X133369947Y-105726500D01*
X133369949Y-105726500D01*
X133476451Y-105726500D01*
X133476453Y-105726500D01*
X133579331Y-105698934D01*
X133671569Y-105645680D01*
X133746880Y-105570369D01*
X133800134Y-105478131D01*
X133827700Y-105375253D01*
X133827700Y-105268747D01*
X149960500Y-105268747D01*
X149960500Y-105375253D01*
X149988066Y-105478131D01*
X150041320Y-105570369D01*
X150116631Y-105645680D01*
X150208869Y-105698934D01*
X150311747Y-105726500D01*
X150311749Y-105726500D01*
X150418251Y-105726500D01*
X150418253Y-105726500D01*
X150521131Y-105698934D01*
X150613369Y-105645680D01*
X150688680Y-105570369D01*
X150741934Y-105478131D01*
X150769500Y-105375253D01*
X150769500Y-105268747D01*
X150741934Y-105165869D01*
X150688680Y-105073631D01*
X150613369Y-104998320D01*
X150521131Y-104945066D01*
X150418253Y-104917500D01*
X150311747Y-104917500D01*
X150208868Y-104945066D01*
X150116631Y-104998320D01*
X150116628Y-104998322D01*
X150041322Y-105073628D01*
X150041320Y-105073631D01*
X149988066Y-105165868D01*
X149988066Y-105165869D01*
X149960500Y-105268747D01*
X133827700Y-105268747D01*
X133800134Y-105165869D01*
X133746880Y-105073631D01*
X133671569Y-104998320D01*
X133579331Y-104945066D01*
X133476453Y-104917500D01*
X133369947Y-104917500D01*
X133267068Y-104945066D01*
X133174831Y-104998320D01*
X133174828Y-104998322D01*
X133099522Y-105073628D01*
X133099520Y-105073631D01*
X133046266Y-105165868D01*
X133046266Y-105165869D01*
X133018700Y-105268747D01*
X132710100Y-105268747D01*
X132710100Y-105243347D01*
X132682534Y-105140469D01*
X132629280Y-105048231D01*
X132553969Y-104972920D01*
X132461731Y-104919666D01*
X132358853Y-104892100D01*
X132252347Y-104892100D01*
X132149468Y-104919666D01*
X132057231Y-104972920D01*
X132057228Y-104972922D01*
X131981922Y-105048228D01*
X131981920Y-105048231D01*
X131928666Y-105140468D01*
X131928666Y-105140469D01*
X131901100Y-105243347D01*
X129535158Y-105243347D01*
X129651343Y-105083433D01*
X129758568Y-104872992D01*
X129831553Y-104648368D01*
X129868500Y-104415097D01*
X129868500Y-104178902D01*
X129845724Y-104035106D01*
X129831553Y-103945632D01*
X129822084Y-103916491D01*
X133937900Y-103916491D01*
X133937900Y-104035109D01*
X133968601Y-104149686D01*
X134027911Y-104252413D01*
X134111787Y-104336289D01*
X134214514Y-104395599D01*
X134329091Y-104426300D01*
X134329094Y-104426300D01*
X134447706Y-104426300D01*
X134447709Y-104426300D01*
X134562286Y-104395599D01*
X134665013Y-104336289D01*
X134748889Y-104252413D01*
X134808199Y-104149686D01*
X134838900Y-104035109D01*
X134838900Y-103916491D01*
X134808199Y-103801914D01*
X134748889Y-103699187D01*
X134665013Y-103615311D01*
X134562286Y-103556001D01*
X134447709Y-103525300D01*
X134329091Y-103525300D01*
X134214514Y-103556001D01*
X134214512Y-103556001D01*
X134214512Y-103556002D01*
X134111787Y-103615311D01*
X134111784Y-103615313D01*
X134027913Y-103699184D01*
X134027911Y-103699187D01*
X134015313Y-103721008D01*
X133968601Y-103801914D01*
X133937900Y-103916491D01*
X129822084Y-103916491D01*
X129758568Y-103721008D01*
X129758566Y-103721005D01*
X129758566Y-103721003D01*
X129674493Y-103556001D01*
X129651343Y-103510567D01*
X129512517Y-103319490D01*
X129345510Y-103152483D01*
X129154433Y-103013657D01*
X128943996Y-102906433D01*
X128719368Y-102833446D01*
X128486097Y-102796500D01*
X128486092Y-102796500D01*
X127649908Y-102796500D01*
X127649903Y-102796500D01*
X127416631Y-102833446D01*
X127192003Y-102906433D01*
X126981566Y-103013657D01*
X126872550Y-103092862D01*
X126790490Y-103152483D01*
X126790488Y-103152485D01*
X126790487Y-103152485D01*
X126623485Y-103319487D01*
X126623485Y-103319488D01*
X126623483Y-103319490D01*
X126563862Y-103401550D01*
X126484657Y-103510566D01*
X126377433Y-103721003D01*
X126304446Y-103945631D01*
X126267500Y-104178902D01*
X124368500Y-104178902D01*
X124331553Y-103945631D01*
X124258566Y-103721003D01*
X124174493Y-103556001D01*
X124151343Y-103510567D01*
X124012517Y-103319490D01*
X123845510Y-103152483D01*
X123654433Y-103013657D01*
X123443996Y-102906433D01*
X123219368Y-102833446D01*
X122986097Y-102796500D01*
X122986092Y-102796500D01*
X122149908Y-102796500D01*
X122149903Y-102796500D01*
X121916631Y-102833446D01*
X121692003Y-102906433D01*
X121481566Y-103013657D01*
X121372550Y-103092862D01*
X121290490Y-103152483D01*
X121290488Y-103152485D01*
X121290487Y-103152485D01*
X121123485Y-103319487D01*
X121123485Y-103319488D01*
X121123483Y-103319490D01*
X121063862Y-103401550D01*
X120984657Y-103510566D01*
X120877433Y-103721003D01*
X120804446Y-103945631D01*
X120767500Y-104178902D01*
X118459679Y-104178902D01*
X118459706Y-100538291D01*
X137392300Y-100538291D01*
X137392300Y-100656909D01*
X137423001Y-100771486D01*
X137482311Y-100874213D01*
X137566187Y-100958089D01*
X137668914Y-101017399D01*
X137783491Y-101048100D01*
X137783494Y-101048100D01*
X137902106Y-101048100D01*
X137902109Y-101048100D01*
X138016686Y-101017399D01*
X138119413Y-100958089D01*
X138177555Y-100899947D01*
X149427100Y-100899947D01*
X149427100Y-101006453D01*
X149454666Y-101109331D01*
X149507920Y-101201569D01*
X149583231Y-101276880D01*
X149675469Y-101330134D01*
X149778347Y-101357700D01*
X149778349Y-101357700D01*
X149884851Y-101357700D01*
X149884853Y-101357700D01*
X149987731Y-101330134D01*
X150079969Y-101276880D01*
X150155280Y-101201569D01*
X150208534Y-101109331D01*
X150236100Y-101006453D01*
X150236100Y-100899947D01*
X150208534Y-100797069D01*
X150155280Y-100704831D01*
X150079969Y-100629520D01*
X149987731Y-100576266D01*
X149884853Y-100548700D01*
X149778347Y-100548700D01*
X149675468Y-100576266D01*
X149583231Y-100629520D01*
X149583228Y-100629522D01*
X149507922Y-100704828D01*
X149507920Y-100704831D01*
X149454666Y-100797068D01*
X149433997Y-100874206D01*
X149427100Y-100899947D01*
X138177555Y-100899947D01*
X138203289Y-100874213D01*
X138262599Y-100771486D01*
X138293300Y-100656909D01*
X138293300Y-100538291D01*
X138262599Y-100423714D01*
X138203289Y-100320987D01*
X138119413Y-100237111D01*
X138016686Y-100177801D01*
X137902109Y-100147100D01*
X137783491Y-100147100D01*
X137668914Y-100177801D01*
X137668912Y-100177801D01*
X137668912Y-100177802D01*
X137566187Y-100237111D01*
X137566184Y-100237113D01*
X137482313Y-100320984D01*
X137482311Y-100320987D01*
X137423001Y-100423714D01*
X137392300Y-100538291D01*
X118459706Y-100538291D01*
X118459715Y-99388647D01*
X149985900Y-99388647D01*
X149985900Y-99495153D01*
X150013466Y-99598031D01*
X150066720Y-99690269D01*
X150142031Y-99765580D01*
X150234269Y-99818834D01*
X150337147Y-99846400D01*
X150337149Y-99846400D01*
X150443651Y-99846400D01*
X150443653Y-99846400D01*
X150546531Y-99818834D01*
X150638769Y-99765580D01*
X150714080Y-99690269D01*
X150767334Y-99598031D01*
X150794900Y-99495153D01*
X150794900Y-99388647D01*
X150767334Y-99285769D01*
X150714080Y-99193531D01*
X150638769Y-99118220D01*
X150546531Y-99064966D01*
X150443653Y-99037400D01*
X150337147Y-99037400D01*
X150234268Y-99064966D01*
X150142031Y-99118220D01*
X150142028Y-99118222D01*
X150066722Y-99193528D01*
X150066720Y-99193531D01*
X150013466Y-99285768D01*
X150013466Y-99285769D01*
X149985900Y-99388647D01*
X118459715Y-99388647D01*
X118459722Y-98436147D01*
X123798500Y-98436147D01*
X123798500Y-98542653D01*
X123826066Y-98645531D01*
X123879320Y-98737769D01*
X123954631Y-98813080D01*
X124046869Y-98866334D01*
X124149747Y-98893900D01*
X124149749Y-98893900D01*
X124256251Y-98893900D01*
X124256253Y-98893900D01*
X124359131Y-98866334D01*
X124451369Y-98813080D01*
X124526680Y-98737769D01*
X124579934Y-98645531D01*
X124607500Y-98542653D01*
X124607500Y-98456435D01*
X139409499Y-98456435D01*
X139409499Y-98575053D01*
X139440200Y-98689630D01*
X139499510Y-98792357D01*
X139583386Y-98876233D01*
X139686113Y-98935543D01*
X139800690Y-98966244D01*
X139800693Y-98966244D01*
X139919305Y-98966244D01*
X139919308Y-98966244D01*
X140033885Y-98935543D01*
X140136612Y-98876233D01*
X140220488Y-98792357D01*
X140279798Y-98689630D01*
X140281266Y-98684150D01*
X149046100Y-98684150D01*
X149046100Y-98790656D01*
X149073666Y-98893534D01*
X149126920Y-98985772D01*
X149202231Y-99061083D01*
X149294469Y-99114337D01*
X149397347Y-99141903D01*
X149397349Y-99141903D01*
X149503851Y-99141903D01*
X149503853Y-99141903D01*
X149606731Y-99114337D01*
X149698969Y-99061083D01*
X149774280Y-98985772D01*
X149827534Y-98893534D01*
X149855100Y-98790656D01*
X149855100Y-98684150D01*
X149827534Y-98581272D01*
X149774280Y-98489034D01*
X149698969Y-98413723D01*
X149606731Y-98360469D01*
X149503853Y-98332903D01*
X149397347Y-98332903D01*
X149294468Y-98360469D01*
X149202231Y-98413723D01*
X149202228Y-98413725D01*
X149126922Y-98489031D01*
X149126920Y-98489034D01*
X149073666Y-98581271D01*
X149073666Y-98581272D01*
X149046100Y-98684150D01*
X140281266Y-98684150D01*
X140310499Y-98575053D01*
X140310499Y-98456435D01*
X140279798Y-98341858D01*
X140220488Y-98239131D01*
X140136612Y-98155255D01*
X140033885Y-98095945D01*
X139919308Y-98065244D01*
X139800690Y-98065244D01*
X139686113Y-98095945D01*
X139686111Y-98095945D01*
X139686111Y-98095946D01*
X139583386Y-98155255D01*
X139583383Y-98155257D01*
X139499512Y-98239128D01*
X139499510Y-98239131D01*
X139440200Y-98341858D01*
X139409499Y-98456435D01*
X124607500Y-98456435D01*
X124607500Y-98436147D01*
X124579934Y-98333269D01*
X124526680Y-98241031D01*
X124451369Y-98165720D01*
X124359131Y-98112466D01*
X124256253Y-98084900D01*
X124149747Y-98084900D01*
X124046868Y-98112466D01*
X123954631Y-98165720D01*
X123954628Y-98165722D01*
X123879322Y-98241028D01*
X123879320Y-98241031D01*
X123826066Y-98333268D01*
X123818778Y-98360469D01*
X123798500Y-98436147D01*
X118459722Y-98436147D01*
X118459725Y-98055147D01*
X149960500Y-98055147D01*
X149960500Y-98161653D01*
X149988066Y-98264531D01*
X150041320Y-98356769D01*
X150116631Y-98432080D01*
X150208869Y-98485334D01*
X150311747Y-98512900D01*
X150311749Y-98512900D01*
X150418251Y-98512900D01*
X150418253Y-98512900D01*
X150521131Y-98485334D01*
X150613369Y-98432080D01*
X150688680Y-98356769D01*
X150741934Y-98264531D01*
X150769500Y-98161653D01*
X150769500Y-98055147D01*
X150741934Y-97952269D01*
X150688680Y-97860031D01*
X150613369Y-97784720D01*
X150521131Y-97731466D01*
X150418253Y-97703900D01*
X150311747Y-97703900D01*
X150208868Y-97731466D01*
X150116631Y-97784720D01*
X150116628Y-97784722D01*
X150041322Y-97860028D01*
X150041320Y-97860031D01*
X149988066Y-97952268D01*
X149988066Y-97952269D01*
X149960500Y-98055147D01*
X118459725Y-98055147D01*
X118459729Y-97500022D01*
X120611699Y-97500022D01*
X120620431Y-97543917D01*
X120620432Y-97543921D01*
X120620433Y-97543922D01*
X120653696Y-97593704D01*
X120703478Y-97626967D01*
X120703481Y-97626967D01*
X120703482Y-97626968D01*
X120747377Y-97635700D01*
X120747380Y-97635700D01*
X122477022Y-97635700D01*
X122520917Y-97626968D01*
X122520917Y-97626967D01*
X122520922Y-97626967D01*
X122570704Y-97593704D01*
X122603967Y-97543922D01*
X122612700Y-97500020D01*
X122612700Y-97449222D01*
X128993699Y-97449222D01*
X129002431Y-97493117D01*
X129002434Y-97493124D01*
X129003612Y-97494887D01*
X129035696Y-97542904D01*
X129085478Y-97576167D01*
X129085481Y-97576167D01*
X129085482Y-97576168D01*
X129129377Y-97584900D01*
X129129380Y-97584900D01*
X130859022Y-97584900D01*
X130902917Y-97576168D01*
X130902917Y-97576167D01*
X130902922Y-97576167D01*
X130952704Y-97542904D01*
X130985967Y-97493122D01*
X130994455Y-97450452D01*
X130994700Y-97449222D01*
X130994700Y-97261691D01*
X139475100Y-97261691D01*
X139475100Y-97380309D01*
X139505801Y-97494886D01*
X139565111Y-97597613D01*
X139648987Y-97681489D01*
X139751714Y-97740799D01*
X139866291Y-97771500D01*
X139866294Y-97771500D01*
X139984906Y-97771500D01*
X139984909Y-97771500D01*
X140099486Y-97740799D01*
X140202213Y-97681489D01*
X140286089Y-97597613D01*
X140345399Y-97494886D01*
X140376100Y-97380309D01*
X140376100Y-97343947D01*
X149046100Y-97343947D01*
X149046100Y-97450453D01*
X149073666Y-97553331D01*
X149126920Y-97645569D01*
X149202231Y-97720880D01*
X149294469Y-97774134D01*
X149397347Y-97801700D01*
X149397349Y-97801700D01*
X149503851Y-97801700D01*
X149503853Y-97801700D01*
X149606731Y-97774134D01*
X149698969Y-97720880D01*
X149774280Y-97645569D01*
X149827534Y-97553331D01*
X149855100Y-97450453D01*
X149855100Y-97343947D01*
X149827534Y-97241069D01*
X149774280Y-97148831D01*
X149698969Y-97073520D01*
X149606731Y-97020266D01*
X149503853Y-96992700D01*
X149397347Y-96992700D01*
X149294468Y-97020266D01*
X149202231Y-97073520D01*
X149202228Y-97073522D01*
X149126922Y-97148828D01*
X149126920Y-97148831D01*
X149073666Y-97241068D01*
X149073666Y-97241069D01*
X149046100Y-97343947D01*
X140376100Y-97343947D01*
X140376100Y-97261691D01*
X140345399Y-97147114D01*
X140286089Y-97044387D01*
X140202213Y-96960511D01*
X140099486Y-96901201D01*
X139984909Y-96870500D01*
X139866291Y-96870500D01*
X139751714Y-96901201D01*
X139751712Y-96901201D01*
X139751712Y-96901202D01*
X139648987Y-96960511D01*
X139648984Y-96960513D01*
X139565113Y-97044384D01*
X139565111Y-97044387D01*
X139505801Y-97147114D01*
X139475100Y-97261691D01*
X130994700Y-97261691D01*
X130994700Y-95719577D01*
X130985968Y-95675682D01*
X130985967Y-95675681D01*
X130985967Y-95675678D01*
X130985965Y-95675675D01*
X130952705Y-95625897D01*
X130952704Y-95625896D01*
X130938071Y-95616118D01*
X130938070Y-95616117D01*
X130902924Y-95592634D01*
X130902917Y-95592631D01*
X130859022Y-95583900D01*
X130859020Y-95583900D01*
X129129380Y-95583900D01*
X129129378Y-95583900D01*
X129085482Y-95592631D01*
X129085475Y-95592634D01*
X129035696Y-95625895D01*
X129035695Y-95625896D01*
X129002434Y-95675675D01*
X129002431Y-95675682D01*
X128993700Y-95719577D01*
X128993700Y-95719580D01*
X128993700Y-97449220D01*
X128993700Y-97449222D01*
X128993699Y-97449222D01*
X122612700Y-97449222D01*
X122612700Y-95770380D01*
X122612700Y-95770377D01*
X122612699Y-95770375D01*
X122606196Y-95737679D01*
X122603968Y-95726482D01*
X122603967Y-95726481D01*
X122603967Y-95726478D01*
X122570704Y-95676696D01*
X122570703Y-95676695D01*
X122520924Y-95643434D01*
X122520917Y-95643431D01*
X122477022Y-95634700D01*
X122477020Y-95634700D01*
X120747380Y-95634700D01*
X120747378Y-95634700D01*
X120703482Y-95643431D01*
X120703475Y-95643434D01*
X120653696Y-95676695D01*
X120653695Y-95676696D01*
X120620434Y-95726475D01*
X120620431Y-95726482D01*
X120611700Y-95770377D01*
X120611700Y-95770380D01*
X120611700Y-97500020D01*
X120611700Y-97500022D01*
X120611699Y-97500022D01*
X118459729Y-97500022D01*
X118459744Y-95521144D01*
X137438300Y-95521144D01*
X137438300Y-95627650D01*
X137465539Y-95729309D01*
X137465867Y-95730530D01*
X137465867Y-95730531D01*
X137521505Y-95826898D01*
X137537978Y-95894798D01*
X137521505Y-95950898D01*
X137465867Y-96047265D01*
X137465867Y-96047266D01*
X137465867Y-96047267D01*
X137465866Y-96047269D01*
X137438300Y-96150147D01*
X137438300Y-96256653D01*
X137465866Y-96359531D01*
X137519120Y-96451769D01*
X137594431Y-96527080D01*
X137686669Y-96580334D01*
X137789547Y-96607900D01*
X137789549Y-96607900D01*
X137896051Y-96607900D01*
X137896053Y-96607900D01*
X137998931Y-96580334D01*
X138091169Y-96527080D01*
X138166480Y-96451769D01*
X138219734Y-96359531D01*
X138247300Y-96256653D01*
X138247300Y-96150147D01*
X138219734Y-96047269D01*
X138166480Y-95955031D01*
X138166479Y-95955030D01*
X138164094Y-95950899D01*
X138147621Y-95882999D01*
X138164094Y-95826897D01*
X138166477Y-95822768D01*
X138166480Y-95822766D01*
X138219734Y-95730528D01*
X138247300Y-95627650D01*
X138247300Y-95521144D01*
X138244070Y-95509091D01*
X146663300Y-95509091D01*
X146663300Y-95627709D01*
X146694001Y-95742286D01*
X146753311Y-95845013D01*
X146837187Y-95928889D01*
X146939914Y-95988199D01*
X147054491Y-96018900D01*
X147054494Y-96018900D01*
X147173106Y-96018900D01*
X147173109Y-96018900D01*
X147287686Y-95988199D01*
X147390413Y-95928889D01*
X147474289Y-95845013D01*
X147533599Y-95742286D01*
X147564300Y-95627709D01*
X147564300Y-95610691D01*
X149025500Y-95610691D01*
X149025500Y-95729309D01*
X149056201Y-95843886D01*
X149115511Y-95946613D01*
X149199387Y-96030489D01*
X149302114Y-96089799D01*
X149416691Y-96120500D01*
X149416694Y-96120500D01*
X149535306Y-96120500D01*
X149535309Y-96120500D01*
X149649886Y-96089799D01*
X149752613Y-96030489D01*
X149836489Y-95946613D01*
X149895799Y-95843886D01*
X149926500Y-95729309D01*
X149926500Y-95610691D01*
X149895799Y-95496114D01*
X149836489Y-95393387D01*
X149752613Y-95309511D01*
X149649886Y-95250201D01*
X149535309Y-95219500D01*
X149416691Y-95219500D01*
X149302114Y-95250201D01*
X149302112Y-95250201D01*
X149302112Y-95250202D01*
X149199387Y-95309511D01*
X149199384Y-95309513D01*
X149115513Y-95393384D01*
X149115511Y-95393387D01*
X149056201Y-95496114D01*
X149025500Y-95610691D01*
X147564300Y-95610691D01*
X147564300Y-95509091D01*
X147533599Y-95394514D01*
X147474289Y-95291787D01*
X147390413Y-95207911D01*
X147287686Y-95148601D01*
X147173109Y-95117900D01*
X147054491Y-95117900D01*
X146939914Y-95148601D01*
X146939912Y-95148601D01*
X146939912Y-95148602D01*
X146837187Y-95207911D01*
X146837184Y-95207913D01*
X146753313Y-95291784D01*
X146753311Y-95291787D01*
X146733544Y-95326025D01*
X146694001Y-95394514D01*
X146663300Y-95509091D01*
X138244070Y-95509091D01*
X138219734Y-95418266D01*
X138166480Y-95326028D01*
X138091169Y-95250717D01*
X137998931Y-95197463D01*
X137896053Y-95169897D01*
X137789547Y-95169897D01*
X137686668Y-95197463D01*
X137594431Y-95250717D01*
X137594428Y-95250719D01*
X137519122Y-95326025D01*
X137519120Y-95326028D01*
X137465866Y-95418265D01*
X137465866Y-95418266D01*
X137438300Y-95521144D01*
X118459744Y-95521144D01*
X118459750Y-94702347D01*
X125424100Y-94702347D01*
X125424100Y-94808853D01*
X125451666Y-94911731D01*
X125504920Y-95003969D01*
X125580231Y-95079280D01*
X125672469Y-95132534D01*
X125775347Y-95160100D01*
X125775349Y-95160100D01*
X125881851Y-95160100D01*
X125881853Y-95160100D01*
X125984731Y-95132534D01*
X126076969Y-95079280D01*
X126152280Y-95003969D01*
X126205534Y-94911731D01*
X126233100Y-94808853D01*
X126233100Y-94727747D01*
X128268900Y-94727747D01*
X128268900Y-94834253D01*
X128296466Y-94937131D01*
X128349720Y-95029369D01*
X128425031Y-95104680D01*
X128517269Y-95157934D01*
X128620147Y-95185500D01*
X128620149Y-95185500D01*
X128726651Y-95185500D01*
X128726653Y-95185500D01*
X128829531Y-95157934D01*
X128921769Y-95104680D01*
X128997080Y-95029369D01*
X129050334Y-94937131D01*
X129077900Y-94834253D01*
X129077900Y-94727747D01*
X129050334Y-94624869D01*
X129050333Y-94624868D01*
X129050333Y-94624866D01*
X129021742Y-94575347D01*
X136625500Y-94575347D01*
X136625500Y-94681853D01*
X136653066Y-94784731D01*
X136706320Y-94876969D01*
X136781631Y-94952280D01*
X136873869Y-95005534D01*
X136976747Y-95033100D01*
X136976749Y-95033100D01*
X137083251Y-95033100D01*
X137083253Y-95033100D01*
X137186131Y-95005534D01*
X137278369Y-94952280D01*
X137353680Y-94876969D01*
X137370006Y-94848691D01*
X147628500Y-94848691D01*
X147628500Y-94967309D01*
X147659201Y-95081886D01*
X147718511Y-95184613D01*
X147802387Y-95268489D01*
X147905114Y-95327799D01*
X148019691Y-95358500D01*
X148019694Y-95358500D01*
X148138306Y-95358500D01*
X148138309Y-95358500D01*
X148252886Y-95327799D01*
X148355613Y-95268489D01*
X148439489Y-95184613D01*
X148498799Y-95081886D01*
X148529500Y-94967309D01*
X148529500Y-94848691D01*
X148498799Y-94734114D01*
X148439489Y-94631387D01*
X148355613Y-94547511D01*
X148252886Y-94488201D01*
X148138309Y-94457500D01*
X148019691Y-94457500D01*
X147905114Y-94488201D01*
X147905112Y-94488201D01*
X147905112Y-94488202D01*
X147802387Y-94547511D01*
X147802384Y-94547513D01*
X147718513Y-94631384D01*
X147718511Y-94631387D01*
X147659201Y-94734114D01*
X147628500Y-94848691D01*
X137370006Y-94848691D01*
X137406934Y-94784731D01*
X137434500Y-94681853D01*
X137434500Y-94575347D01*
X137406934Y-94472469D01*
X137353680Y-94380231D01*
X137278369Y-94304920D01*
X137186131Y-94251666D01*
X137083253Y-94224100D01*
X136976747Y-94224100D01*
X136873868Y-94251666D01*
X136781631Y-94304920D01*
X136781628Y-94304922D01*
X136706322Y-94380228D01*
X136706320Y-94380231D01*
X136653066Y-94472468D01*
X136636946Y-94532628D01*
X136625500Y-94575347D01*
X129021742Y-94575347D01*
X128997080Y-94532631D01*
X128921769Y-94457320D01*
X128829531Y-94404066D01*
X128726653Y-94376500D01*
X128620147Y-94376500D01*
X128517268Y-94404066D01*
X128425031Y-94457320D01*
X128425028Y-94457322D01*
X128349722Y-94532628D01*
X128349720Y-94532631D01*
X128296466Y-94624868D01*
X128281198Y-94681851D01*
X128268900Y-94727747D01*
X126233100Y-94727747D01*
X126233100Y-94702347D01*
X126205534Y-94599469D01*
X126152280Y-94507231D01*
X126076969Y-94431920D01*
X125984731Y-94378666D01*
X125881853Y-94351100D01*
X125775347Y-94351100D01*
X125672468Y-94378666D01*
X125580231Y-94431920D01*
X125580228Y-94431922D01*
X125504922Y-94507228D01*
X125504920Y-94507231D01*
X125451666Y-94599468D01*
X125429592Y-94681851D01*
X125424100Y-94702347D01*
X118459750Y-94702347D01*
X118459760Y-93288879D01*
X131935432Y-93288879D01*
X131935432Y-93395385D01*
X131962998Y-93498263D01*
X132016252Y-93590501D01*
X132091563Y-93665812D01*
X132183801Y-93719066D01*
X132286679Y-93746632D01*
X132286681Y-93746632D01*
X132393183Y-93746632D01*
X132393185Y-93746632D01*
X132496063Y-93719066D01*
X132588301Y-93665812D01*
X132663612Y-93590501D01*
X132710928Y-93508547D01*
X136752500Y-93508547D01*
X136752500Y-93615053D01*
X136780066Y-93717931D01*
X136833320Y-93810169D01*
X136908631Y-93885480D01*
X137000869Y-93938734D01*
X137103747Y-93966300D01*
X137103749Y-93966300D01*
X137210251Y-93966300D01*
X137210253Y-93966300D01*
X137313131Y-93938734D01*
X137405369Y-93885480D01*
X137480680Y-93810169D01*
X137533934Y-93717931D01*
X137561500Y-93615053D01*
X137561500Y-93508547D01*
X137533934Y-93405669D01*
X137480680Y-93313431D01*
X137405369Y-93238120D01*
X137313131Y-93184866D01*
X137210253Y-93157300D01*
X137103747Y-93157300D01*
X137000868Y-93184866D01*
X136908631Y-93238120D01*
X136908628Y-93238122D01*
X136833322Y-93313428D01*
X136833320Y-93313431D01*
X136780066Y-93405668D01*
X136780066Y-93405669D01*
X136752500Y-93508547D01*
X132710928Y-93508547D01*
X132716866Y-93498263D01*
X132744432Y-93395385D01*
X132744432Y-93288879D01*
X132716866Y-93186001D01*
X132663612Y-93093763D01*
X132588301Y-93018452D01*
X132496063Y-92965198D01*
X132393185Y-92937632D01*
X132286679Y-92937632D01*
X132183800Y-92965198D01*
X132091563Y-93018452D01*
X132091560Y-93018454D01*
X132016254Y-93093760D01*
X132016252Y-93093763D01*
X131962998Y-93186000D01*
X131962998Y-93186001D01*
X131935432Y-93288879D01*
X118459760Y-93288879D01*
X118459765Y-92644947D01*
X122604700Y-92644947D01*
X122604700Y-92751453D01*
X122632266Y-92854331D01*
X122685520Y-92946569D01*
X122760831Y-93021880D01*
X122853069Y-93075134D01*
X122955947Y-93102700D01*
X122955949Y-93102700D01*
X123062451Y-93102700D01*
X123062453Y-93102700D01*
X123165331Y-93075134D01*
X123257569Y-93021880D01*
X123332880Y-92946569D01*
X123386134Y-92854331D01*
X123413700Y-92751453D01*
X123413700Y-92644947D01*
X123386134Y-92542069D01*
X123332880Y-92449831D01*
X123257569Y-92374520D01*
X123165331Y-92321266D01*
X123062453Y-92293700D01*
X122955947Y-92293700D01*
X122853068Y-92321266D01*
X122760831Y-92374520D01*
X122760828Y-92374522D01*
X122685522Y-92449828D01*
X122685520Y-92449831D01*
X122632266Y-92542068D01*
X122632266Y-92542069D01*
X122604700Y-92644947D01*
X118459765Y-92644947D01*
X118459769Y-92050691D01*
X151844500Y-92050691D01*
X151844500Y-92169309D01*
X151875201Y-92283886D01*
X151934511Y-92386613D01*
X152018387Y-92470489D01*
X152121114Y-92529799D01*
X152235691Y-92560500D01*
X152235694Y-92560500D01*
X152354306Y-92560500D01*
X152354309Y-92560500D01*
X152468886Y-92529799D01*
X152571613Y-92470489D01*
X152655489Y-92386613D01*
X152714799Y-92283886D01*
X152745500Y-92169309D01*
X152745500Y-92050691D01*
X152714799Y-91936114D01*
X152655489Y-91833387D01*
X152571613Y-91749511D01*
X152468886Y-91690201D01*
X152354309Y-91659500D01*
X152235691Y-91659500D01*
X152121114Y-91690201D01*
X152121112Y-91690201D01*
X152121112Y-91690202D01*
X152018387Y-91749511D01*
X152018384Y-91749513D01*
X151934513Y-91833384D01*
X151934511Y-91833387D01*
X151879020Y-91929500D01*
X151875201Y-91936114D01*
X151844500Y-92050691D01*
X118459769Y-92050691D01*
X118459773Y-91552747D01*
X134847500Y-91552747D01*
X134847500Y-91659253D01*
X134875066Y-91762131D01*
X134928320Y-91854369D01*
X135003631Y-91929680D01*
X135095869Y-91982934D01*
X135198747Y-92010500D01*
X135198749Y-92010500D01*
X135305251Y-92010500D01*
X135305253Y-92010500D01*
X135408131Y-91982934D01*
X135500369Y-91929680D01*
X135575680Y-91854369D01*
X135628934Y-91762131D01*
X135656500Y-91659253D01*
X135656500Y-91552747D01*
X135628934Y-91449869D01*
X135611511Y-91419691D01*
X136071500Y-91419691D01*
X136071500Y-91538309D01*
X136102201Y-91652886D01*
X136161511Y-91755613D01*
X136245387Y-91839489D01*
X136348114Y-91898799D01*
X136462691Y-91929500D01*
X136462694Y-91929500D01*
X136581306Y-91929500D01*
X136581309Y-91929500D01*
X136695886Y-91898799D01*
X136798613Y-91839489D01*
X136882489Y-91755613D01*
X136941799Y-91652886D01*
X136972500Y-91538309D01*
X136972500Y-91419691D01*
X136941799Y-91305114D01*
X136882489Y-91202387D01*
X136798613Y-91118511D01*
X136695886Y-91059201D01*
X136581309Y-91028500D01*
X136462691Y-91028500D01*
X136348114Y-91059201D01*
X136348112Y-91059201D01*
X136348112Y-91059202D01*
X136245387Y-91118511D01*
X136245384Y-91118513D01*
X136161513Y-91202384D01*
X136161511Y-91202387D01*
X136102201Y-91305114D01*
X136071500Y-91419691D01*
X135611511Y-91419691D01*
X135575680Y-91357631D01*
X135500369Y-91282320D01*
X135408131Y-91229066D01*
X135305253Y-91201500D01*
X135198747Y-91201500D01*
X135095868Y-91229066D01*
X135003631Y-91282320D01*
X135003628Y-91282322D01*
X134928322Y-91357628D01*
X134928320Y-91357631D01*
X134875066Y-91449868D01*
X134875066Y-91449869D01*
X134847500Y-91552747D01*
X118459773Y-91552747D01*
X118459784Y-90175091D01*
X133201300Y-90175091D01*
X133201300Y-90293709D01*
X133232001Y-90408286D01*
X133291311Y-90511013D01*
X133375187Y-90594889D01*
X133477914Y-90654199D01*
X133592491Y-90684900D01*
X133592494Y-90684900D01*
X133711106Y-90684900D01*
X133711109Y-90684900D01*
X133825686Y-90654199D01*
X133928413Y-90594889D01*
X134012289Y-90511013D01*
X134071599Y-90408286D01*
X134102300Y-90293709D01*
X134102300Y-90175091D01*
X134071599Y-90060514D01*
X134031261Y-89990647D01*
X136968400Y-89990647D01*
X136968400Y-90097153D01*
X136995966Y-90200031D01*
X137049220Y-90292269D01*
X137124531Y-90367580D01*
X137216769Y-90420834D01*
X137319647Y-90448400D01*
X137319649Y-90448400D01*
X137426151Y-90448400D01*
X137426153Y-90448400D01*
X137529031Y-90420834D01*
X137621269Y-90367580D01*
X137696580Y-90292269D01*
X137749834Y-90200031D01*
X137777400Y-90097153D01*
X137777400Y-89990647D01*
X137756982Y-89914447D01*
X138543200Y-89914447D01*
X138543200Y-90020953D01*
X138570766Y-90123831D01*
X138624020Y-90216069D01*
X138699331Y-90291380D01*
X138791569Y-90344634D01*
X138894447Y-90372200D01*
X138894449Y-90372200D01*
X139000951Y-90372200D01*
X139000953Y-90372200D01*
X139103831Y-90344634D01*
X139196069Y-90291380D01*
X139271380Y-90216069D01*
X139324634Y-90123831D01*
X139352200Y-90020953D01*
X139352200Y-89914447D01*
X139324634Y-89811569D01*
X139271380Y-89719331D01*
X139250596Y-89698547D01*
X139908700Y-89698547D01*
X139908700Y-89805053D01*
X139936266Y-89907931D01*
X139989520Y-90000169D01*
X140064831Y-90075480D01*
X140157069Y-90128734D01*
X140259947Y-90156300D01*
X140259949Y-90156300D01*
X140366451Y-90156300D01*
X140366453Y-90156300D01*
X140469331Y-90128734D01*
X140561569Y-90075480D01*
X140636880Y-90000169D01*
X140690134Y-89907931D01*
X140717700Y-89805053D01*
X140717700Y-89698547D01*
X140690134Y-89595669D01*
X140636880Y-89503431D01*
X140561569Y-89428120D01*
X140469331Y-89374866D01*
X140366453Y-89347300D01*
X140259947Y-89347300D01*
X140157068Y-89374866D01*
X140064831Y-89428120D01*
X140064828Y-89428122D01*
X139989522Y-89503428D01*
X139989520Y-89503431D01*
X139936266Y-89595668D01*
X139936266Y-89595669D01*
X139908700Y-89698547D01*
X139250596Y-89698547D01*
X139196069Y-89644020D01*
X139103831Y-89590766D01*
X139000953Y-89563200D01*
X138894447Y-89563200D01*
X138791568Y-89590766D01*
X138699331Y-89644020D01*
X138699328Y-89644022D01*
X138624022Y-89719328D01*
X138624020Y-89719331D01*
X138570766Y-89811568D01*
X138554061Y-89873913D01*
X138543200Y-89914447D01*
X137756982Y-89914447D01*
X137749834Y-89887769D01*
X137696580Y-89795531D01*
X137621269Y-89720220D01*
X137529031Y-89666966D01*
X137426153Y-89639400D01*
X137319647Y-89639400D01*
X137216768Y-89666966D01*
X137124531Y-89720220D01*
X137124528Y-89720222D01*
X137049222Y-89795528D01*
X137049220Y-89795531D01*
X136995966Y-89887768D01*
X136988817Y-89914449D01*
X136968400Y-89990647D01*
X134031261Y-89990647D01*
X134012289Y-89957787D01*
X133928413Y-89873911D01*
X133825686Y-89814601D01*
X133711109Y-89783900D01*
X133592491Y-89783900D01*
X133477914Y-89814601D01*
X133477912Y-89814601D01*
X133477912Y-89814602D01*
X133375187Y-89873911D01*
X133375184Y-89873913D01*
X133291313Y-89957784D01*
X133291311Y-89957787D01*
X133266842Y-90000169D01*
X133232001Y-90060514D01*
X133201300Y-90175091D01*
X118459784Y-90175091D01*
X118459794Y-88803491D01*
X131626500Y-88803491D01*
X131626500Y-88922109D01*
X131657201Y-89036686D01*
X131716511Y-89139413D01*
X131800387Y-89223289D01*
X131903114Y-89282599D01*
X132017691Y-89313300D01*
X132017694Y-89313300D01*
X132136306Y-89313300D01*
X132136309Y-89313300D01*
X132250886Y-89282599D01*
X132353613Y-89223289D01*
X132437489Y-89139413D01*
X132496799Y-89036686D01*
X132527500Y-88922109D01*
X132527500Y-88803491D01*
X133658500Y-88803491D01*
X133658500Y-88922109D01*
X133689201Y-89036686D01*
X133748511Y-89139413D01*
X133832387Y-89223289D01*
X133935114Y-89282599D01*
X134049691Y-89313300D01*
X134049694Y-89313300D01*
X134168306Y-89313300D01*
X134168309Y-89313300D01*
X134282886Y-89282599D01*
X134385613Y-89223289D01*
X134469489Y-89139413D01*
X134528799Y-89036686D01*
X134559500Y-88922109D01*
X134559500Y-88803491D01*
X134528799Y-88688914D01*
X134469489Y-88586187D01*
X134385613Y-88502311D01*
X134282886Y-88443001D01*
X134168309Y-88412300D01*
X134049691Y-88412300D01*
X133935114Y-88443001D01*
X133935112Y-88443001D01*
X133935112Y-88443002D01*
X133832387Y-88502311D01*
X133832384Y-88502313D01*
X133748513Y-88586184D01*
X133748511Y-88586187D01*
X133689201Y-88688914D01*
X133658500Y-88803491D01*
X132527500Y-88803491D01*
X132496799Y-88688914D01*
X132437489Y-88586187D01*
X132353613Y-88502311D01*
X132250886Y-88443001D01*
X132136309Y-88412300D01*
X132017691Y-88412300D01*
X131903114Y-88443001D01*
X131903112Y-88443001D01*
X131903112Y-88443002D01*
X131800387Y-88502311D01*
X131800384Y-88502313D01*
X131716513Y-88586184D01*
X131716511Y-88586187D01*
X131657201Y-88688914D01*
X131626500Y-88803491D01*
X118459794Y-88803491D01*
X118459803Y-87666599D01*
X154749900Y-87666599D01*
X154749900Y-87812600D01*
X154787688Y-87953628D01*
X154787689Y-87953631D01*
X154860686Y-88080067D01*
X154860688Y-88080070D01*
X154860689Y-88080071D01*
X154963929Y-88183311D01*
X155090371Y-88256312D01*
X155231399Y-88294100D01*
X155231401Y-88294100D01*
X155377399Y-88294100D01*
X155377401Y-88294100D01*
X155518429Y-88256312D01*
X155644871Y-88183311D01*
X155748111Y-88080071D01*
X155821112Y-87953629D01*
X155858900Y-87812601D01*
X155858900Y-87666599D01*
X155821112Y-87525571D01*
X155748111Y-87399129D01*
X155644871Y-87295889D01*
X155644870Y-87295888D01*
X155644867Y-87295886D01*
X155518431Y-87222889D01*
X155518430Y-87222888D01*
X155518429Y-87222888D01*
X155377401Y-87185100D01*
X155231399Y-87185100D01*
X155090371Y-87222888D01*
X155090368Y-87222889D01*
X154963932Y-87295886D01*
X154963927Y-87295890D01*
X154860690Y-87399127D01*
X154860686Y-87399132D01*
X154787689Y-87525568D01*
X154787688Y-87525571D01*
X154749900Y-87666599D01*
X118459803Y-87666599D01*
X118459810Y-86726747D01*
X129589700Y-86726747D01*
X129589700Y-86833253D01*
X129617266Y-86936131D01*
X129670520Y-87028369D01*
X129745831Y-87103680D01*
X129838069Y-87156934D01*
X129940947Y-87184500D01*
X129940949Y-87184500D01*
X130047451Y-87184500D01*
X130047453Y-87184500D01*
X130150331Y-87156934D01*
X130242569Y-87103680D01*
X130317880Y-87028369D01*
X130371134Y-86936131D01*
X130398700Y-86833253D01*
X130398700Y-86726747D01*
X130371134Y-86623869D01*
X130317880Y-86531631D01*
X130242569Y-86456320D01*
X130150331Y-86403066D01*
X130047453Y-86375500D01*
X129940947Y-86375500D01*
X129838068Y-86403066D01*
X129745831Y-86456320D01*
X129745828Y-86456322D01*
X129670522Y-86531628D01*
X129670520Y-86531631D01*
X129617266Y-86623868D01*
X129610723Y-86648288D01*
X129589700Y-86726747D01*
X118459810Y-86726747D01*
X118459813Y-86363325D01*
X150745500Y-86363325D01*
X150745500Y-86508275D01*
X150776474Y-86623869D01*
X150783017Y-86648288D01*
X150855488Y-86773811D01*
X150855490Y-86773813D01*
X150855491Y-86773815D01*
X150957985Y-86876309D01*
X150957986Y-86876310D01*
X150957988Y-86876311D01*
X151083511Y-86948782D01*
X151083512Y-86948782D01*
X151083515Y-86948784D01*
X151223525Y-86986300D01*
X151223528Y-86986300D01*
X151368472Y-86986300D01*
X151368475Y-86986300D01*
X151508485Y-86948784D01*
X151634015Y-86876309D01*
X151663977Y-86846347D01*
X152339900Y-86846347D01*
X152339900Y-86952853D01*
X152367466Y-87055731D01*
X152420720Y-87147969D01*
X152496031Y-87223280D01*
X152588269Y-87276534D01*
X152691147Y-87304100D01*
X152691149Y-87304100D01*
X152797651Y-87304100D01*
X152797653Y-87304100D01*
X152900531Y-87276534D01*
X152992769Y-87223280D01*
X153068080Y-87147969D01*
X153121334Y-87055731D01*
X153148900Y-86952853D01*
X153148900Y-86846347D01*
X153121334Y-86743469D01*
X153068080Y-86651231D01*
X152992769Y-86575920D01*
X152900531Y-86522666D01*
X152797653Y-86495100D01*
X152691147Y-86495100D01*
X152588268Y-86522666D01*
X152496031Y-86575920D01*
X152496028Y-86575922D01*
X152420722Y-86651228D01*
X152420720Y-86651231D01*
X152367466Y-86743468D01*
X152339900Y-86846347D01*
X151663977Y-86846347D01*
X151736509Y-86773815D01*
X151808984Y-86648285D01*
X151846500Y-86508275D01*
X151846500Y-86363325D01*
X151808984Y-86223315D01*
X151736509Y-86097785D01*
X151634015Y-85995291D01*
X151634013Y-85995290D01*
X151634011Y-85995288D01*
X151508488Y-85922817D01*
X151508489Y-85922817D01*
X151497006Y-85919740D01*
X151368475Y-85885300D01*
X151223525Y-85885300D01*
X151094993Y-85919740D01*
X151083511Y-85922817D01*
X150957988Y-85995288D01*
X150957982Y-85995293D01*
X150855493Y-86097782D01*
X150855488Y-86097788D01*
X150783017Y-86223311D01*
X150783016Y-86223315D01*
X150745500Y-86363325D01*
X118459813Y-86363325D01*
X118459822Y-85101147D01*
X125754300Y-85101147D01*
X125754300Y-85207653D01*
X125781866Y-85310531D01*
X125835120Y-85402769D01*
X125910431Y-85478080D01*
X126002669Y-85531334D01*
X126105547Y-85558900D01*
X126105549Y-85558900D01*
X126212051Y-85558900D01*
X126212053Y-85558900D01*
X126314931Y-85531334D01*
X126407169Y-85478080D01*
X126434558Y-85450691D01*
X140897500Y-85450691D01*
X140897500Y-85569309D01*
X140928201Y-85683886D01*
X140987511Y-85786613D01*
X141071387Y-85870489D01*
X141174114Y-85929799D01*
X141288691Y-85960500D01*
X141288694Y-85960500D01*
X141407306Y-85960500D01*
X141407309Y-85960500D01*
X141521886Y-85929799D01*
X141624613Y-85870489D01*
X141708489Y-85786613D01*
X141767799Y-85683886D01*
X141798500Y-85569309D01*
X141798500Y-85450691D01*
X141767799Y-85336114D01*
X141708489Y-85233387D01*
X141624613Y-85149511D01*
X141521886Y-85090201D01*
X141407309Y-85059500D01*
X141288691Y-85059500D01*
X141174114Y-85090201D01*
X141174112Y-85090201D01*
X141174112Y-85090202D01*
X141071387Y-85149511D01*
X141071384Y-85149513D01*
X140987513Y-85233384D01*
X140987511Y-85233387D01*
X140928201Y-85336114D01*
X140897500Y-85450691D01*
X126434558Y-85450691D01*
X126482480Y-85402769D01*
X126535734Y-85310531D01*
X126563300Y-85207653D01*
X126563300Y-85101147D01*
X126535734Y-84998269D01*
X126482480Y-84906031D01*
X126407169Y-84830720D01*
X126314931Y-84777466D01*
X126212053Y-84749900D01*
X126105547Y-84749900D01*
X126002668Y-84777466D01*
X125910431Y-84830720D01*
X125910428Y-84830722D01*
X125835122Y-84906028D01*
X125835120Y-84906031D01*
X125781866Y-84998268D01*
X125781866Y-84998269D01*
X125754300Y-85101147D01*
X118459822Y-85101147D01*
X118459831Y-83881947D01*
X131672500Y-83881947D01*
X131672500Y-83988453D01*
X131700066Y-84091331D01*
X131753320Y-84183569D01*
X131828631Y-84258880D01*
X131920869Y-84312134D01*
X132023747Y-84339700D01*
X132023749Y-84339700D01*
X132130251Y-84339700D01*
X132130253Y-84339700D01*
X132233131Y-84312134D01*
X132325369Y-84258880D01*
X132400680Y-84183569D01*
X132453934Y-84091331D01*
X132481500Y-83988453D01*
X132481500Y-83881947D01*
X132453934Y-83779069D01*
X132400680Y-83686831D01*
X132325369Y-83611520D01*
X132233131Y-83558266D01*
X132130253Y-83530700D01*
X132023747Y-83530700D01*
X131920868Y-83558266D01*
X131828631Y-83611520D01*
X131828628Y-83611522D01*
X131753322Y-83686828D01*
X131753320Y-83686831D01*
X131700066Y-83779068D01*
X131693873Y-83802181D01*
X131672500Y-83881947D01*
X118459831Y-83881947D01*
X118459835Y-83291691D01*
X140897500Y-83291691D01*
X140897500Y-83410309D01*
X140928201Y-83524886D01*
X140987511Y-83627613D01*
X141071387Y-83711489D01*
X141091998Y-83723389D01*
X141140883Y-83751614D01*
X141189098Y-83802181D01*
X141202320Y-83870788D01*
X141176352Y-83935653D01*
X141140883Y-83966386D01*
X141071393Y-84006507D01*
X141071384Y-84006513D01*
X140987513Y-84090384D01*
X140987511Y-84090387D01*
X140928201Y-84193114D01*
X140897500Y-84307691D01*
X140897500Y-84426309D01*
X140928201Y-84540886D01*
X140987511Y-84643613D01*
X141071387Y-84727489D01*
X141174114Y-84786799D01*
X141288691Y-84817500D01*
X141407309Y-84817500D01*
X141521886Y-84786799D01*
X141624613Y-84727489D01*
X141708489Y-84643613D01*
X141748614Y-84574114D01*
X141799180Y-84525901D01*
X141867788Y-84512679D01*
X141932652Y-84538647D01*
X141963385Y-84574114D01*
X142003511Y-84643613D01*
X142087387Y-84727489D01*
X142190114Y-84786799D01*
X142304691Y-84817500D01*
X142304694Y-84817500D01*
X142423306Y-84817500D01*
X142423309Y-84817500D01*
X142537886Y-84786799D01*
X142640613Y-84727489D01*
X142724489Y-84643613D01*
X142783799Y-84540886D01*
X142814500Y-84426309D01*
X142814500Y-84307691D01*
X142783799Y-84193114D01*
X142724489Y-84090387D01*
X142640613Y-84006511D01*
X142537886Y-83947201D01*
X142423309Y-83916500D01*
X142304691Y-83916500D01*
X142190114Y-83947201D01*
X142190112Y-83947201D01*
X142190112Y-83947202D01*
X142087387Y-84006511D01*
X142087384Y-84006513D01*
X142003513Y-84090384D01*
X142003507Y-84090393D01*
X141963386Y-84159883D01*
X141912819Y-84208098D01*
X141844212Y-84221320D01*
X141779347Y-84195352D01*
X141748614Y-84159883D01*
X141708492Y-84090393D01*
X141708489Y-84090387D01*
X141624613Y-84006511D01*
X141555114Y-83966385D01*
X141506901Y-83915820D01*
X141493679Y-83847212D01*
X141519647Y-83782348D01*
X141555114Y-83751614D01*
X141624613Y-83711489D01*
X141708489Y-83627613D01*
X141767799Y-83524886D01*
X141798500Y-83410309D01*
X141798500Y-83291691D01*
X141767799Y-83177114D01*
X141708489Y-83074387D01*
X141624613Y-82990511D01*
X141546836Y-82945606D01*
X141546834Y-82945604D01*
X141521891Y-82931203D01*
X141521890Y-82931202D01*
X141512494Y-82928684D01*
X141407309Y-82900500D01*
X141288691Y-82900500D01*
X141174114Y-82931201D01*
X141174112Y-82931201D01*
X141174112Y-82931202D01*
X141071387Y-82990511D01*
X141071384Y-82990513D01*
X140987513Y-83074384D01*
X140987511Y-83074387D01*
X140945029Y-83147968D01*
X140928201Y-83177114D01*
X140897500Y-83291691D01*
X118459835Y-83291691D01*
X118459840Y-82662747D01*
X122122100Y-82662747D01*
X122122100Y-82769253D01*
X122149666Y-82872131D01*
X122202920Y-82964369D01*
X122278231Y-83039680D01*
X122370469Y-83092934D01*
X122473347Y-83120500D01*
X122473349Y-83120500D01*
X122579851Y-83120500D01*
X122579853Y-83120500D01*
X122682731Y-83092934D01*
X122774969Y-83039680D01*
X122850280Y-82964369D01*
X122903534Y-82872131D01*
X122910443Y-82846347D01*
X152339900Y-82846347D01*
X152339900Y-82952853D01*
X152367466Y-83055731D01*
X152420720Y-83147969D01*
X152496031Y-83223280D01*
X152588269Y-83276534D01*
X152691147Y-83304100D01*
X152691149Y-83304100D01*
X152797651Y-83304100D01*
X152797653Y-83304100D01*
X152900531Y-83276534D01*
X152992769Y-83223280D01*
X153068080Y-83147969D01*
X153121334Y-83055731D01*
X153148900Y-82952853D01*
X153148900Y-82846347D01*
X153121334Y-82743469D01*
X153068080Y-82651231D01*
X152992769Y-82575920D01*
X152900531Y-82522666D01*
X152797653Y-82495100D01*
X152691147Y-82495100D01*
X152588268Y-82522666D01*
X152496031Y-82575920D01*
X152496028Y-82575922D01*
X152420722Y-82651228D01*
X152420720Y-82651231D01*
X152367466Y-82743468D01*
X152367466Y-82743469D01*
X152339900Y-82846347D01*
X122910443Y-82846347D01*
X122931100Y-82769253D01*
X122931100Y-82662747D01*
X122903534Y-82559869D01*
X122850280Y-82467631D01*
X122774969Y-82392320D01*
X122682731Y-82339066D01*
X122579853Y-82311500D01*
X122473347Y-82311500D01*
X122370468Y-82339066D01*
X122278231Y-82392320D01*
X122278228Y-82392322D01*
X122202922Y-82467628D01*
X122202920Y-82467631D01*
X122149666Y-82559868D01*
X122125186Y-82651228D01*
X122122100Y-82662747D01*
X118459840Y-82662747D01*
X118459844Y-82154747D01*
X130961300Y-82154747D01*
X130961300Y-82261253D01*
X130988866Y-82364131D01*
X131042120Y-82456369D01*
X131117431Y-82531680D01*
X131209669Y-82584934D01*
X131312547Y-82612500D01*
X131312549Y-82612500D01*
X131419051Y-82612500D01*
X131419053Y-82612500D01*
X131521931Y-82584934D01*
X131614169Y-82531680D01*
X131689480Y-82456369D01*
X131742734Y-82364131D01*
X131770300Y-82261253D01*
X131770300Y-82154747D01*
X131742734Y-82051869D01*
X131689480Y-81959631D01*
X131614169Y-81884320D01*
X131521931Y-81831066D01*
X131419053Y-81803500D01*
X131312547Y-81803500D01*
X131209668Y-81831066D01*
X131117431Y-81884320D01*
X131117428Y-81884322D01*
X131042122Y-81959628D01*
X131042120Y-81959631D01*
X130988866Y-82051868D01*
X130988866Y-82051869D01*
X130961300Y-82154747D01*
X118459844Y-82154747D01*
X118459848Y-81620863D01*
X127550533Y-81620863D01*
X127550533Y-81727369D01*
X127578099Y-81830247D01*
X127631353Y-81922485D01*
X127706664Y-81997796D01*
X127798902Y-82051050D01*
X127901780Y-82078616D01*
X127901782Y-82078616D01*
X128008284Y-82078616D01*
X128008286Y-82078616D01*
X128111164Y-82051050D01*
X128203402Y-81997796D01*
X128278713Y-81922485D01*
X128331967Y-81830247D01*
X128359533Y-81727369D01*
X128359533Y-81620863D01*
X128331967Y-81517985D01*
X128303655Y-81468947D01*
X132688500Y-81468947D01*
X132688500Y-81575453D01*
X132716066Y-81678331D01*
X132769320Y-81770569D01*
X132844631Y-81845880D01*
X132936869Y-81899134D01*
X133039747Y-81926700D01*
X133039749Y-81926700D01*
X133146251Y-81926700D01*
X133146253Y-81926700D01*
X133249131Y-81899134D01*
X133270842Y-81886599D01*
X154749900Y-81886599D01*
X154749900Y-82032601D01*
X154762230Y-82078615D01*
X154787688Y-82173628D01*
X154787689Y-82173631D01*
X154860686Y-82300067D01*
X154860688Y-82300070D01*
X154860689Y-82300071D01*
X154963929Y-82403311D01*
X155090371Y-82476312D01*
X155231399Y-82514100D01*
X155231401Y-82514100D01*
X155377399Y-82514100D01*
X155377401Y-82514100D01*
X155518429Y-82476312D01*
X155644871Y-82403311D01*
X155748111Y-82300071D01*
X155821112Y-82173629D01*
X155858900Y-82032601D01*
X155858900Y-81886599D01*
X155821112Y-81745571D01*
X155782291Y-81678331D01*
X155748113Y-81619132D01*
X155748109Y-81619127D01*
X155644872Y-81515890D01*
X155644867Y-81515886D01*
X155518431Y-81442889D01*
X155518430Y-81442888D01*
X155518429Y-81442888D01*
X155377401Y-81405100D01*
X155231399Y-81405100D01*
X155090371Y-81442888D01*
X155090368Y-81442889D01*
X154963932Y-81515886D01*
X154963927Y-81515890D01*
X154860690Y-81619127D01*
X154860686Y-81619132D01*
X154787689Y-81745568D01*
X154787688Y-81745571D01*
X154749900Y-81886599D01*
X133270842Y-81886599D01*
X133341369Y-81845880D01*
X133416680Y-81770569D01*
X133469934Y-81678331D01*
X133497500Y-81575453D01*
X133497500Y-81468947D01*
X133469934Y-81366069D01*
X133416680Y-81273831D01*
X133341369Y-81198520D01*
X133249131Y-81145266D01*
X133146253Y-81117700D01*
X133039747Y-81117700D01*
X132936868Y-81145266D01*
X132844631Y-81198520D01*
X132844628Y-81198522D01*
X132769322Y-81273828D01*
X132769320Y-81273831D01*
X132716066Y-81366068D01*
X132716066Y-81366069D01*
X132688500Y-81468947D01*
X128303655Y-81468947D01*
X128278713Y-81425747D01*
X128203402Y-81350436D01*
X128111164Y-81297182D01*
X128008286Y-81269616D01*
X127901780Y-81269616D01*
X127798901Y-81297182D01*
X127706664Y-81350436D01*
X127706661Y-81350438D01*
X127631355Y-81425744D01*
X127631353Y-81425747D01*
X127578099Y-81517984D01*
X127552711Y-81612735D01*
X127550533Y-81620863D01*
X118459848Y-81620863D01*
X118459872Y-78386986D01*
X132562436Y-78386986D01*
X132562436Y-78493492D01*
X132590002Y-78596370D01*
X132643256Y-78688608D01*
X132718567Y-78763919D01*
X132810805Y-78817173D01*
X132913683Y-78844739D01*
X132913685Y-78844739D01*
X133020187Y-78844739D01*
X133020189Y-78844739D01*
X133123067Y-78817173D01*
X133183557Y-78782248D01*
X133251456Y-78765776D01*
X133307556Y-78782248D01*
X133367027Y-78816584D01*
X133469905Y-78844150D01*
X133469907Y-78844150D01*
X133576409Y-78844150D01*
X133576411Y-78844150D01*
X133679289Y-78816584D01*
X133771527Y-78763330D01*
X133846838Y-78688019D01*
X133900092Y-78595781D01*
X133927658Y-78492903D01*
X133927658Y-78386397D01*
X133900092Y-78283519D01*
X133846838Y-78191281D01*
X133771527Y-78115970D01*
X133679289Y-78062716D01*
X133576411Y-78035150D01*
X133469905Y-78035150D01*
X133367024Y-78062716D01*
X133306535Y-78097640D01*
X133238635Y-78114111D01*
X133182536Y-78097639D01*
X133123070Y-78063306D01*
X133123067Y-78063305D01*
X133020189Y-78035739D01*
X132913683Y-78035739D01*
X132810804Y-78063305D01*
X132718567Y-78116559D01*
X132718564Y-78116561D01*
X132643258Y-78191867D01*
X132643256Y-78191870D01*
X132590002Y-78284107D01*
X132590002Y-78284108D01*
X132562436Y-78386986D01*
X118459872Y-78386986D01*
X118459888Y-76247947D01*
X129625700Y-76247947D01*
X129625700Y-76354453D01*
X129653266Y-76457331D01*
X129706520Y-76549569D01*
X129781831Y-76624880D01*
X129874069Y-76678134D01*
X129894863Y-76683705D01*
X129954523Y-76720069D01*
X129985053Y-76782915D01*
X129976759Y-76852291D01*
X129932274Y-76906170D01*
X129924771Y-76910866D01*
X129847115Y-76955701D01*
X129847106Y-76955708D01*
X129771800Y-77031014D01*
X129771798Y-77031017D01*
X129718544Y-77123254D01*
X129716608Y-77130479D01*
X129690978Y-77226133D01*
X129690978Y-77332639D01*
X129718544Y-77435517D01*
X129771798Y-77527755D01*
X129847109Y-77603066D01*
X129939347Y-77656320D01*
X130042225Y-77683886D01*
X130042227Y-77683886D01*
X130148729Y-77683886D01*
X130148731Y-77683886D01*
X130251609Y-77656320D01*
X130343847Y-77603066D01*
X130343849Y-77603063D01*
X130349370Y-77599876D01*
X130417270Y-77583402D01*
X130483298Y-77606253D01*
X130526489Y-77661174D01*
X130533132Y-77730727D01*
X130531493Y-77737850D01*
X130531438Y-77738268D01*
X130531438Y-77738270D01*
X130531438Y-77844776D01*
X130559004Y-77947654D01*
X130612258Y-78039892D01*
X130687569Y-78115203D01*
X130779807Y-78168457D01*
X130882685Y-78196023D01*
X130882687Y-78196023D01*
X130989189Y-78196023D01*
X130989191Y-78196023D01*
X131092069Y-78168457D01*
X131184307Y-78115203D01*
X131259618Y-78039892D01*
X131312872Y-77947654D01*
X131340438Y-77844776D01*
X131340438Y-77738270D01*
X131312872Y-77635392D01*
X131259618Y-77543154D01*
X131184307Y-77467843D01*
X131092069Y-77414589D01*
X130989191Y-77387023D01*
X130882685Y-77387023D01*
X130779807Y-77414589D01*
X130779806Y-77414589D01*
X130779804Y-77414590D01*
X130779803Y-77414590D01*
X130682043Y-77471033D01*
X130614143Y-77487506D01*
X130548116Y-77464654D01*
X130504926Y-77409733D01*
X130496093Y-77360122D01*
X130496505Y-77345597D01*
X130499978Y-77332639D01*
X130499978Y-77233357D01*
X132540944Y-77233357D01*
X132540944Y-77339863D01*
X132568510Y-77442741D01*
X132621764Y-77534979D01*
X132697075Y-77610290D01*
X132789313Y-77663544D01*
X132892191Y-77691110D01*
X132892193Y-77691110D01*
X132998695Y-77691110D01*
X132998697Y-77691110D01*
X133101575Y-77663544D01*
X133193813Y-77610290D01*
X133269124Y-77534979D01*
X133322378Y-77442741D01*
X133349944Y-77339863D01*
X133349944Y-77233357D01*
X133322378Y-77130479D01*
X133269124Y-77038241D01*
X133193813Y-76962930D01*
X133101575Y-76909676D01*
X132998697Y-76882110D01*
X132892191Y-76882110D01*
X132789312Y-76909676D01*
X132697075Y-76962930D01*
X132697072Y-76962932D01*
X132621766Y-77038238D01*
X132621764Y-77038241D01*
X132568510Y-77130478D01*
X132568510Y-77130479D01*
X132540944Y-77233357D01*
X130499978Y-77233357D01*
X130499978Y-77226133D01*
X130472412Y-77123255D01*
X130419158Y-77031017D01*
X130343847Y-76955706D01*
X130290592Y-76924959D01*
X130251608Y-76902451D01*
X130230812Y-76896879D01*
X130171152Y-76860514D01*
X130140624Y-76797667D01*
X130148919Y-76728291D01*
X130193405Y-76674414D01*
X130200897Y-76669724D01*
X130278569Y-76624880D01*
X130353880Y-76549569D01*
X130407134Y-76457331D01*
X130434700Y-76354453D01*
X130434700Y-76247947D01*
X130414929Y-76174160D01*
X132525700Y-76174160D01*
X132525700Y-76280666D01*
X132553266Y-76383544D01*
X132606520Y-76475782D01*
X132681831Y-76551093D01*
X132774069Y-76604347D01*
X132876947Y-76631913D01*
X132876949Y-76631913D01*
X132983451Y-76631913D01*
X132983453Y-76631913D01*
X133086331Y-76604347D01*
X133178569Y-76551093D01*
X133253880Y-76475782D01*
X133307134Y-76383544D01*
X133334700Y-76280666D01*
X133334700Y-76174160D01*
X133307134Y-76071282D01*
X133253880Y-75979044D01*
X133178569Y-75903733D01*
X133086331Y-75850479D01*
X132983453Y-75822913D01*
X132876947Y-75822913D01*
X132774068Y-75850479D01*
X132681831Y-75903733D01*
X132681828Y-75903735D01*
X132606522Y-75979041D01*
X132606520Y-75979044D01*
X132553266Y-76071281D01*
X132544731Y-76103134D01*
X132525700Y-76174160D01*
X130414929Y-76174160D01*
X130407134Y-76145069D01*
X130353880Y-76052831D01*
X130278569Y-75977520D01*
X130186331Y-75924266D01*
X130083453Y-75896700D01*
X129976947Y-75896700D01*
X129874068Y-75924266D01*
X129781831Y-75977520D01*
X129781828Y-75977522D01*
X129706522Y-76052828D01*
X129706520Y-76052831D01*
X129653266Y-76145068D01*
X129627878Y-76239819D01*
X129625700Y-76247947D01*
X118459888Y-76247947D01*
X118459892Y-75672947D01*
X130505700Y-75672947D01*
X130505700Y-75779453D01*
X130524731Y-75850479D01*
X130533267Y-75882333D01*
X130533267Y-75882334D01*
X130538598Y-75891567D01*
X130586520Y-75974569D01*
X130661831Y-76049880D01*
X130754069Y-76103134D01*
X130856947Y-76130700D01*
X130856949Y-76130700D01*
X130963451Y-76130700D01*
X130963453Y-76130700D01*
X131066331Y-76103134D01*
X131158569Y-76049880D01*
X131233880Y-75974569D01*
X131287134Y-75882331D01*
X131314700Y-75779453D01*
X131314700Y-75672947D01*
X131287134Y-75570069D01*
X131233880Y-75477831D01*
X131158569Y-75402520D01*
X131066331Y-75349266D01*
X130963453Y-75321700D01*
X130856947Y-75321700D01*
X130754068Y-75349266D01*
X130661831Y-75402520D01*
X130661828Y-75402522D01*
X130586522Y-75477828D01*
X130586520Y-75477831D01*
X130533266Y-75570068D01*
X130533266Y-75570069D01*
X130505700Y-75672947D01*
X118459892Y-75672947D01*
X118459897Y-75027770D01*
X132525700Y-75027770D01*
X132525700Y-75134276D01*
X132553266Y-75237154D01*
X132606520Y-75329392D01*
X132681831Y-75404703D01*
X132774069Y-75457957D01*
X132876947Y-75485523D01*
X132876949Y-75485523D01*
X132983451Y-75485523D01*
X132983453Y-75485523D01*
X133086331Y-75457957D01*
X133164689Y-75412716D01*
X133232587Y-75396243D01*
X133288688Y-75412716D01*
X133330359Y-75436775D01*
X133367044Y-75457956D01*
X133367046Y-75457956D01*
X133367047Y-75457957D01*
X133469925Y-75485523D01*
X133469927Y-75485523D01*
X133576429Y-75485523D01*
X133576431Y-75485523D01*
X133679309Y-75457957D01*
X133771547Y-75404703D01*
X133846858Y-75329392D01*
X133900112Y-75237154D01*
X133927678Y-75134276D01*
X133927678Y-75027770D01*
X133900112Y-74924892D01*
X133846858Y-74832654D01*
X133771547Y-74757343D01*
X133679309Y-74704089D01*
X133576431Y-74676523D01*
X133469925Y-74676523D01*
X133367045Y-74704089D01*
X133288690Y-74749329D01*
X133220789Y-74765802D01*
X133164688Y-74749329D01*
X133086332Y-74704089D01*
X133034892Y-74690306D01*
X132983453Y-74676523D01*
X132876947Y-74676523D01*
X132774068Y-74704089D01*
X132681831Y-74757343D01*
X132681828Y-74757345D01*
X132606522Y-74832651D01*
X132606520Y-74832654D01*
X132553266Y-74924891D01*
X132553266Y-74924892D01*
X132525700Y-75027770D01*
X118459897Y-75027770D01*
X118459898Y-74857738D01*
X118459900Y-74857734D01*
X118459900Y-74791446D01*
X118460070Y-74784956D01*
X118477887Y-74444986D01*
X118479244Y-74432078D01*
X118531991Y-74099044D01*
X118534684Y-74086369D01*
X118621961Y-73760648D01*
X118625965Y-73748326D01*
X118746811Y-73433512D01*
X118752075Y-73421690D01*
X118905174Y-73121214D01*
X118911640Y-73110016D01*
X119095299Y-72827206D01*
X119102914Y-72816725D01*
X119315130Y-72554660D01*
X119323797Y-72545035D01*
X119562235Y-72306597D01*
X119571860Y-72297930D01*
X119833925Y-72085714D01*
X119844406Y-72078099D01*
X120127216Y-71894440D01*
X120138414Y-71887974D01*
X120438890Y-71734875D01*
X120450712Y-71729611D01*
X120765526Y-71608765D01*
X120777848Y-71604761D01*
X121103569Y-71517484D01*
X121116244Y-71514791D01*
X121449280Y-71462043D01*
X121462184Y-71460687D01*
X121802156Y-71442869D01*
X121808646Y-71442700D01*
X121850275Y-71442700D01*
X157560125Y-71442700D01*
X157601754Y-71442700D01*
X157608243Y-71442869D01*
G37*
%TD.AperFunction*%
%TD*%
M02*
