%TF.GenerationSoftware,KiCad,Pcbnew,9.0.1*%
%TF.CreationDate,2025-04-25T18:34:11+03:00*%
%TF.ProjectId,Ricardo-Hermes,52696361-7264-46f2-9d48-65726d65732e,rev?*%
%TF.SameCoordinates,Original*%
%TF.FileFunction,Copper,L4,Bot*%
%TF.FilePolarity,Positive*%
%FSLAX46Y46*%
G04 Gerber Fmt 4.6, Leading zero omitted, Abs format (unit mm)*
G04 Created by KiCad (PCBNEW 9.0.1) date 2025-04-25 18:34:11*
%MOMM*%
%LPD*%
G01*
G04 APERTURE LIST*
G04 Aperture macros list*
%AMRoundRect*
0 Rectangle with rounded corners*
0 $1 Rounding radius*
0 $2 $3 $4 $5 $6 $7 $8 $9 X,Y pos of 4 corners*
0 Add a 4 corners polygon primitive as box body*
4,1,4,$2,$3,$4,$5,$6,$7,$8,$9,$2,$3,0*
0 Add four circle primitives for the rounded corners*
1,1,$1+$1,$2,$3*
1,1,$1+$1,$4,$5*
1,1,$1+$1,$6,$7*
1,1,$1+$1,$8,$9*
0 Add four rect primitives between the rounded corners*
20,1,$1+$1,$2,$3,$4,$5,0*
20,1,$1+$1,$4,$5,$6,$7,0*
20,1,$1+$1,$6,$7,$8,$9,0*
20,1,$1+$1,$8,$9,$2,$3,0*%
G04 Aperture macros list end*
%TA.AperFunction,ComponentPad*%
%ADD10RoundRect,0.250001X1.399999X-1.099999X1.399999X1.099999X-1.399999X1.099999X-1.399999X-1.099999X0*%
%TD*%
%TA.AperFunction,ComponentPad*%
%ADD11O,3.300000X2.700000*%
%TD*%
%TA.AperFunction,ComponentPad*%
%ADD12R,1.700000X1.700000*%
%TD*%
%TA.AperFunction,ComponentPad*%
%ADD13O,2.000000X0.900000*%
%TD*%
%TA.AperFunction,ComponentPad*%
%ADD14O,1.700000X0.900000*%
%TD*%
%TA.AperFunction,SMDPad,CuDef*%
%ADD15R,2.420000X5.080000*%
%TD*%
%TA.AperFunction,SMDPad,CuDef*%
%ADD16R,0.460000X0.950000*%
%TD*%
%TA.AperFunction,ComponentPad*%
%ADD17C,0.970000*%
%TD*%
%TA.AperFunction,ComponentPad*%
%ADD18C,1.700000*%
%TD*%
%TA.AperFunction,ComponentPad*%
%ADD19C,5.600000*%
%TD*%
%TA.AperFunction,ComponentPad*%
%ADD20RoundRect,0.250000X0.850000X0.600000X-0.850000X0.600000X-0.850000X-0.600000X0.850000X-0.600000X0*%
%TD*%
%TA.AperFunction,ComponentPad*%
%ADD21O,2.200000X1.700000*%
%TD*%
%TA.AperFunction,ComponentPad*%
%ADD22O,1.700000X1.700000*%
%TD*%
%TA.AperFunction,ViaPad*%
%ADD23C,0.600000*%
%TD*%
%TA.AperFunction,ViaPad*%
%ADD24C,0.800000*%
%TD*%
%TA.AperFunction,ViaPad*%
%ADD25C,0.450000*%
%TD*%
%TA.AperFunction,Conductor*%
%ADD26C,0.400000*%
%TD*%
%TA.AperFunction,Conductor*%
%ADD27C,0.250000*%
%TD*%
%TA.AperFunction,Conductor*%
%ADD28C,0.150000*%
%TD*%
%TA.AperFunction,Conductor*%
%ADD29C,0.200000*%
%TD*%
%TA.AperFunction,Conductor*%
%ADD30C,0.300000*%
%TD*%
G04 APERTURE END LIST*
D10*
%TO.P,J1,1,Pin_1*%
%TO.N,GND*%
X122568000Y-112697000D03*
D11*
%TO.P,J1,2,Pin_2*%
X122568000Y-108497000D03*
%TO.P,J1,3,Pin_3*%
%TO.N,RBUS_uC_V*%
X122568000Y-104297000D03*
%TO.P,J1,4,Pin_4*%
%TO.N,+16.8V*%
X128068000Y-112697000D03*
%TO.P,J1,5,Pin_5*%
%TO.N,/CAN+*%
X128068000Y-108497000D03*
%TO.P,J1,6,Pin_6*%
%TO.N,/CAN-*%
X128068000Y-104297000D03*
%TD*%
D12*
%TO.P,3v3,1,Pin_1*%
%TO.N,+3V3*%
X130095800Y-118504600D03*
%TD*%
D13*
%TO.P,J2,S1,SHIELD*%
%TO.N,GND*%
X154824400Y-89169600D03*
D14*
X158994400Y-89169600D03*
D13*
X154824400Y-80529600D03*
D14*
X158994400Y-80529600D03*
%TD*%
D15*
%TO.P,ANT_SMA1,2,Ext*%
%TO.N,GND*%
X141434400Y-133208400D03*
X150194400Y-133208400D03*
D16*
X141434400Y-130218400D03*
X150194400Y-130218400D03*
D17*
X141434400Y-129768400D03*
X150194400Y-129768400D03*
%TD*%
D12*
%TO.P,UART_ESP1,1,Pin_1*%
%TO.N,GND*%
X125015800Y-128029600D03*
D18*
%TO.P,UART_ESP1,2,Pin_2*%
%TO.N,/RXD_ESP*%
X127555800Y-128029600D03*
%TO.P,UART_ESP1,3,Pin_3*%
%TO.N,/TXD_ESP*%
X130095800Y-128029600D03*
%TD*%
D19*
%TO.P,H3,1,1*%
%TO.N,GND*%
X121705000Y-132590000D03*
%TD*%
D20*
%TO.P,UART1,1,Pin_1*%
%TO.N,GND*%
X126633200Y-123951000D03*
D21*
%TO.P,UART1,2,Pin_2*%
%TO.N,/TXD*%
X126633200Y-121451000D03*
%TO.P,UART1,3,Pin_3*%
%TO.N,/RXD*%
X126633200Y-118951000D03*
%TD*%
D19*
%TO.P,H1,1,1*%
%TO.N,GND*%
X121705000Y-74589600D03*
%TD*%
%TO.P,H4,1,1*%
%TO.N,GND*%
X157705400Y-132590000D03*
%TD*%
D12*
%TO.P,ENJUMPER1,1,Pin_1*%
%TO.N,/CHIP_PU*%
X121612200Y-96635200D03*
D22*
%TO.P,ENJUMPER1,2,Pin_2*%
%TO.N,GND*%
X121612200Y-99175200D03*
%TD*%
D12*
%TO.P,BOOTJUMPER1,1,Pin_1*%
%TO.N,/BOOT*%
X129994200Y-96584400D03*
D22*
%TO.P,BOOTJUMPER1,2,Pin_2*%
%TO.N,GND*%
X129994200Y-99124400D03*
%TD*%
D19*
%TO.P,H2,1,1*%
%TO.N,GND*%
X157705400Y-74589600D03*
%TD*%
D23*
%TO.N,GND*%
X146910600Y-124880000D03*
D24*
X119505000Y-110631026D03*
X135760000Y-134790000D03*
D25*
X132331000Y-99734000D03*
D23*
X127219200Y-78254200D03*
X139392200Y-121527200D03*
X144048800Y-133640000D03*
D24*
X153540000Y-134790000D03*
D25*
X132712000Y-94146000D03*
D23*
X145234200Y-117869600D03*
D24*
X154419999Y-119306001D03*
D25*
X133220000Y-99734000D03*
D24*
X126571500Y-72055800D03*
X126514400Y-90082000D03*
D23*
X136090200Y-121730400D03*
X137004600Y-104204400D03*
D24*
X157705000Y-72389600D03*
X159905400Y-114622740D03*
X159905400Y-94664170D03*
X119504000Y-126378600D03*
D23*
X147658800Y-135160000D03*
D25*
X154196491Y-106484075D03*
D23*
X136090200Y-124168800D03*
D24*
X119504000Y-117006000D03*
X159905400Y-90672456D03*
D23*
X146566999Y-122991200D03*
D25*
X154958491Y-107119075D03*
D23*
X141779800Y-124524400D03*
X147418600Y-116142400D03*
D25*
X156101491Y-109405075D03*
D24*
X150365000Y-92622000D03*
D23*
X146566999Y-121841200D03*
D24*
X159261035Y-73033965D03*
X153256500Y-72055800D03*
D25*
X151254000Y-111037000D03*
X149222000Y-108370000D03*
X142364000Y-97575000D03*
D23*
X147418600Y-114516800D03*
X145234200Y-118834800D03*
X146910600Y-128893200D03*
X147658800Y-131360000D03*
X147658800Y-134400000D03*
D24*
X119504000Y-121527200D03*
D23*
X140154200Y-124524400D03*
X146910600Y-127267600D03*
X137969800Y-125946800D03*
D24*
X120149365Y-73033965D03*
X159905400Y-78697314D03*
D25*
X134490000Y-93638000D03*
X138884200Y-92012400D03*
D24*
X159905400Y-98655884D03*
D25*
X135379000Y-93638000D03*
D24*
X121705000Y-72389600D03*
D23*
X144048800Y-131360000D03*
X125828600Y-97321000D03*
D25*
X144015000Y-94400000D03*
X146820600Y-111575000D03*
D24*
X119505000Y-94664170D03*
D23*
X137207800Y-120866800D03*
D25*
X132331000Y-96813000D03*
D23*
X145234200Y-115888400D03*
D25*
X156101491Y-108516075D03*
D24*
X119505000Y-132590000D03*
D25*
X154704491Y-110802075D03*
D23*
X144048800Y-132120000D03*
X144726200Y-128080400D03*
X147418600Y-116955200D03*
X138782600Y-125946800D03*
D24*
X119505000Y-98655884D03*
D23*
X146910600Y-128080400D03*
D24*
X119505000Y-113932600D03*
D25*
X144167400Y-124473600D03*
X144827800Y-124829200D03*
D23*
X147418600Y-115329600D03*
X140967000Y-122340000D03*
D25*
X153413000Y-111926000D03*
D24*
X135467500Y-72074200D03*
X150961599Y-121541201D03*
D23*
X146910600Y-129706000D03*
X136293400Y-125845200D03*
X136090200Y-123356000D03*
X136090200Y-122543200D03*
D25*
X155466491Y-110167075D03*
D23*
X138833400Y-120917600D03*
X144726200Y-127267600D03*
D24*
X159905400Y-102647598D03*
D25*
X150619000Y-110783000D03*
D23*
X140967000Y-124524400D03*
X147658800Y-133640000D03*
D24*
X139507777Y-78679386D03*
X139915000Y-72074200D03*
D23*
X146910600Y-125642000D03*
X144726200Y-128893200D03*
X144726200Y-126454800D03*
X144726200Y-129706000D03*
D25*
X151656491Y-106357075D03*
X154069491Y-111437075D03*
D23*
X144048800Y-132880000D03*
D24*
X139519000Y-77423000D03*
D25*
X135937800Y-94501600D03*
D24*
X159905400Y-106639312D03*
X136141000Y-110402000D03*
D25*
X144472200Y-120206400D03*
D24*
X133220000Y-134790000D03*
X150253800Y-134820000D03*
X131019000Y-72055800D03*
D25*
X133118400Y-97854400D03*
D23*
X141779800Y-122340000D03*
D24*
X120149365Y-134145635D03*
D23*
X147658800Y-132120000D03*
D25*
X145357200Y-110101800D03*
X136064800Y-95238200D03*
D24*
X119505000Y-90672456D03*
X119505000Y-78697314D03*
X159905400Y-82689028D03*
X136559000Y-78613000D03*
D23*
X139392200Y-125337200D03*
D24*
X119505000Y-128597882D03*
X159905400Y-128597882D03*
X130680000Y-134790000D03*
X141358800Y-134820000D03*
X119505000Y-82689028D03*
D23*
X147658800Y-132880000D03*
D24*
X159905400Y-125515000D03*
X159905400Y-118614454D03*
X159905400Y-132590000D03*
D23*
X139392200Y-122340000D03*
D24*
X119505000Y-86680742D03*
D23*
X142592600Y-122340000D03*
D25*
X132331000Y-94908000D03*
X133474000Y-93638000D03*
D23*
X139493800Y-101842200D03*
D24*
X159905400Y-122606168D03*
D25*
X155009291Y-108998675D03*
X155593491Y-107754075D03*
D23*
X139392200Y-124524400D03*
D24*
X148809000Y-72075800D03*
D25*
X136115600Y-98591000D03*
D24*
X121705000Y-134790000D03*
D23*
X144167400Y-130417200D03*
D25*
X134109000Y-99734000D03*
X132331000Y-97702000D03*
D23*
X136090200Y-124981600D03*
D25*
X153434491Y-105976075D03*
X154679091Y-108338275D03*
D24*
X159905400Y-86680742D03*
D25*
X128005200Y-80916200D03*
D24*
X159905400Y-74589600D03*
D23*
X143405400Y-124524400D03*
D25*
X152545491Y-106103075D03*
X148714000Y-108878000D03*
D24*
X119505000Y-106639312D03*
D25*
X133143800Y-97041600D03*
D23*
X143405400Y-122340000D03*
D25*
X132331000Y-98718000D03*
D24*
X157705000Y-134790000D03*
X159261035Y-134145635D03*
D23*
X145234200Y-114923200D03*
D24*
X152510999Y-125889201D03*
D25*
X142364000Y-94400000D03*
D23*
X147520200Y-130468000D03*
D25*
X136141000Y-95949400D03*
X133321600Y-98591000D03*
D23*
X138020600Y-120866800D03*
D24*
X138300000Y-134790000D03*
D23*
X137157000Y-125946800D03*
D25*
X151372200Y-84099000D03*
D23*
X136395000Y-120968400D03*
X147418600Y-113704000D03*
X144048800Y-135160000D03*
D24*
X119505000Y-102647598D03*
D23*
X142592600Y-124524400D03*
D25*
X134998000Y-99734000D03*
X154577491Y-109557475D03*
D23*
X148307600Y-120358800D03*
D25*
X150238000Y-107227000D03*
D24*
X125600000Y-134790000D03*
D25*
X144015000Y-97575000D03*
D24*
X143380000Y-89955000D03*
D25*
X149730000Y-107862000D03*
D23*
X144218200Y-122340000D03*
D25*
X135887000Y-99480000D03*
D24*
X159905400Y-110631026D03*
D25*
X132331000Y-95924000D03*
D24*
X144650000Y-104941000D03*
D23*
X140154200Y-122340000D03*
X144048800Y-134400000D03*
D25*
X145320600Y-111575000D03*
D23*
X146910600Y-126454800D03*
D24*
X119505000Y-74589600D03*
D25*
X151957296Y-111392742D03*
D24*
X144361500Y-72075800D03*
D23*
X144726200Y-125642000D03*
D24*
X133855000Y-110402000D03*
D25*
X152651000Y-111672000D03*
D24*
X141856000Y-105068000D03*
X128140000Y-134790000D03*
D25*
X149857000Y-110529000D03*
X136268000Y-93638000D03*
X150894491Y-106738075D03*
D24*
X143380000Y-108624000D03*
X136586777Y-77409386D03*
D25*
%TO.N,+3V3*%
X126158800Y-85154400D03*
D23*
X156257800Y-121578000D03*
X134388400Y-103975800D03*
X141348000Y-85510000D03*
X136522000Y-91479000D03*
X141348000Y-83351000D03*
X149476000Y-95670000D03*
D25*
X147012200Y-106109400D03*
D23*
X142364000Y-84367000D03*
X137842800Y-100597600D03*
X141348000Y-84367000D03*
D25*
X129994200Y-86780000D03*
D23*
X129460800Y-124676800D03*
X133651800Y-90234400D03*
X157019800Y-114262800D03*
D25*
X132077000Y-83935200D03*
X151427800Y-113226000D03*
D23*
X157019800Y-116853600D03*
X155343400Y-121578000D03*
%TO.N,VBUS*%
X152295000Y-92110000D03*
D25*
X127955033Y-81674116D03*
X133093000Y-81522200D03*
%TO.N,RBUS_uC_V*%
X122526600Y-82716000D03*
X131365800Y-82208000D03*
%TO.N,/Power/LX1*%
X132945444Y-77286610D03*
X130935938Y-77791523D03*
X132966936Y-78440239D03*
X130095478Y-77279386D03*
X133523158Y-78439650D03*
%TO.N,/Power/LX2*%
X130030200Y-76301200D03*
X130910200Y-75726200D03*
X133523178Y-75081023D03*
X132930200Y-75081023D03*
X132930200Y-76227413D03*
%TO.N,/BOOT*%
X135252000Y-91606000D03*
D23*
X139925600Y-97321000D03*
D25*
%TO.N,/CHIP_PU*%
X124203000Y-98489400D03*
X132339932Y-93342132D03*
D23*
X139859999Y-98515744D03*
D25*
%TO.N,Net-(JP1-B)*%
X123009200Y-92698200D03*
X128673400Y-94781000D03*
X125828600Y-94755600D03*
%TO.N,CRX*%
X136903000Y-115101000D03*
X140313200Y-89751800D03*
%TO.N,CSD*%
X138947700Y-89967700D03*
X135887000Y-114847000D03*
D24*
%TO.N,VAA*%
X152307799Y-120428201D03*
D23*
X151139399Y-127438601D03*
D24*
X151901399Y-123069801D03*
D25*
%TO.N,ANT_SEL*%
X136141000Y-115863000D03*
X137372900Y-90043900D03*
%TO.N,CPS*%
X148861599Y-122641201D03*
X149450600Y-97397200D03*
%TO.N,CHL*%
X149450600Y-98737403D03*
X149349000Y-119038000D03*
%TO.N,CTX*%
X149095000Y-120123401D03*
X150365000Y-98108400D03*
D23*
%TO.N,/CAN_RX*%
X147113800Y-95568400D03*
X134109000Y-88862800D03*
%TO.N,/CAN_TX*%
X132077000Y-88862800D03*
X148079000Y-94908000D03*
D25*
%TO.N,SX_BUSY*%
X150365000Y-105322000D03*
X149831600Y-100953200D03*
%TO.N,Net-(U1-U0TXD{slash}PROG{slash}GPIO43)*%
X133423200Y-105322000D03*
X137842800Y-95574397D03*
%TO.N,RF_RST*%
X150390400Y-99441900D03*
X153383600Y-112616400D03*
%TO.N,/TXD*%
X132381800Y-107836600D03*
%TO.N,/RXD*%
X137030000Y-94628600D03*
%TO.N,/RXD_ESP*%
X137842800Y-96203400D03*
%TO.N,/TXD_ESP*%
X133448600Y-107811200D03*
%TO.N,+5V*%
X152744400Y-82899600D03*
X152744400Y-86899600D03*
D24*
X151296000Y-86435800D03*
D25*
%TO.N,Net-(U1-MTDI{slash}JTAG{slash}GPIO41)*%
X137157000Y-93561800D03*
X132305600Y-105296600D03*
D23*
%TO.N,VPP*%
X140988400Y-108298400D03*
X149522800Y-113886400D03*
%TD*%
D26*
%TO.N,VBUS*%
X133093000Y-81522200D02*
X133091000Y-81520200D01*
X152295000Y-92012000D02*
X152295000Y-92110000D01*
X147597200Y-81522200D02*
X150238000Y-84163000D01*
D27*
X128177949Y-81451200D02*
X127955033Y-81674116D01*
D26*
X128108949Y-81520200D02*
X127955033Y-81674116D01*
X150238000Y-89955000D02*
X152295000Y-92012000D01*
X133091000Y-81520200D02*
X128108949Y-81520200D01*
X133093000Y-81522200D02*
X147597200Y-81522200D01*
X150238000Y-84163000D02*
X150238000Y-89955000D01*
%TO.N,RBUS_uC_V*%
X121967800Y-93663400D02*
X121967800Y-83274800D01*
X122964484Y-82278116D02*
X127378000Y-82278116D01*
X122568000Y-104297000D02*
X123288600Y-103576400D01*
X123288600Y-103576400D02*
X123288600Y-94984200D01*
X127378000Y-82278116D02*
X131295684Y-82278116D01*
X131295684Y-82278116D02*
X131365800Y-82208000D01*
X121967800Y-83274800D02*
X122526600Y-82716000D01*
X122526600Y-82716000D02*
X122964484Y-82278116D01*
X123288600Y-94984200D02*
X121967800Y-93663400D01*
D28*
%TO.N,/BOOT*%
X135226600Y-92672800D02*
X135023400Y-92469600D01*
X131040400Y-95538200D02*
X129994200Y-96584400D01*
X134820200Y-92672800D02*
X132280200Y-92672800D01*
X135023400Y-92469600D02*
X134820200Y-92672800D01*
X135252000Y-91606000D02*
X135023400Y-91834600D01*
X139290600Y-97321000D02*
X139062000Y-97092400D01*
X139062000Y-97092400D02*
X139062000Y-93968200D01*
X139925600Y-97321000D02*
X139290600Y-97321000D01*
X132280200Y-92672800D02*
X131040400Y-93912600D01*
X139062000Y-93968200D02*
X137766600Y-92672800D01*
X135023400Y-91834600D02*
X135023400Y-92469600D01*
X137766600Y-92672800D02*
X135226600Y-92672800D01*
X131040400Y-93912600D02*
X131040400Y-95538200D01*
%TO.N,/CHIP_PU*%
X138808000Y-97264078D02*
X138761000Y-97217078D01*
X132401078Y-92977600D02*
X132339932Y-93038746D01*
X138761000Y-97217078D02*
X138761000Y-94092878D01*
X129410000Y-97854400D02*
X130874200Y-97854400D01*
X139859999Y-98515744D02*
X138808000Y-97463745D01*
X124203000Y-98489400D02*
X128775000Y-98489400D01*
X131340400Y-97388200D02*
X131340400Y-94036864D01*
X132339932Y-93038746D02*
X132339932Y-93342132D01*
X138761000Y-94092878D02*
X137645722Y-92977600D01*
X128775000Y-98489400D02*
X129410000Y-97854400D01*
X137645722Y-92977600D02*
X132401078Y-92977600D01*
X132035132Y-93342132D02*
X132339932Y-93342132D01*
X138808000Y-97463745D02*
X138808000Y-97264078D01*
X131340400Y-94036864D02*
X132035132Y-93342132D01*
X130874200Y-97854400D02*
X131340400Y-97388200D01*
D29*
%TO.N,Net-(JP1-B)*%
X128648000Y-94755600D02*
X125828600Y-94755600D01*
X128673400Y-94781000D02*
X128648000Y-94755600D01*
X123009200Y-92698200D02*
X125066600Y-94755600D01*
X125066600Y-94755600D02*
X125828600Y-94755600D01*
D28*
%TO.N,CRX*%
X141398800Y-90672322D02*
X141398800Y-90539200D01*
X135146600Y-113680922D02*
X135146600Y-105032742D01*
X141399800Y-90673322D02*
X141398800Y-90672322D01*
X135782339Y-114316661D02*
X135146600Y-113680922D01*
X141399800Y-98779542D02*
X141399800Y-90673322D01*
X136118661Y-114316661D02*
X135782339Y-114316661D01*
X141398800Y-90539200D02*
X140611400Y-89751800D01*
X135146600Y-105032742D02*
X141399800Y-98779542D01*
X136903000Y-115101000D02*
X136118661Y-114316661D01*
X140611400Y-89751800D02*
X140313200Y-89751800D01*
%TO.N,CSD*%
X141098800Y-98654864D02*
X141098800Y-90798000D01*
X141098800Y-90798000D02*
X140531600Y-90230800D01*
X140531600Y-90230800D02*
X139287000Y-90230800D01*
X139287000Y-90230800D02*
X139023900Y-89967700D01*
X139023900Y-89967700D02*
X138947700Y-89967700D01*
X134845600Y-113805600D02*
X134845600Y-104908064D01*
X134845600Y-104908064D02*
X141098800Y-98654864D01*
X135887000Y-114847000D02*
X134845600Y-113805600D01*
%TO.N,ANT_SEL*%
X135379000Y-115101000D02*
X135379000Y-114764678D01*
X138312700Y-90043900D02*
X137372900Y-90043900D01*
X140797800Y-98530186D02*
X140797800Y-90928800D01*
X140433600Y-90564600D02*
X138833400Y-90564600D01*
X138833400Y-90564600D02*
X138312700Y-90043900D01*
X140797800Y-90928800D02*
X140433600Y-90564600D01*
X134544600Y-104783386D02*
X140797800Y-98530186D01*
X136141000Y-115863000D02*
X135379000Y-115101000D01*
X134544600Y-113930278D02*
X134544600Y-104783386D01*
X135379000Y-114764678D02*
X134544600Y-113930278D01*
%TO.N,CPS*%
X154178800Y-97959800D02*
X157905000Y-101686000D01*
X150997678Y-97959800D02*
X154178800Y-97959800D01*
X157905000Y-111155556D02*
X156588000Y-112472556D01*
X156588000Y-112472556D02*
X156588000Y-112478678D01*
X150130000Y-118936678D02*
X150130000Y-121355800D01*
X148861599Y-122641201D02*
X148861599Y-122573401D01*
X148861599Y-122624201D02*
X148861599Y-122641201D01*
X157905000Y-101686000D02*
X157905000Y-111155556D01*
X149450600Y-97397200D02*
X150435078Y-97397200D01*
X150435078Y-97397200D02*
X150997678Y-97959800D01*
X150130000Y-121355800D02*
X148861599Y-122624201D01*
X156588000Y-112478678D02*
X150130000Y-118936678D01*
%TO.N,CHL*%
X153933244Y-98565600D02*
X157303000Y-101935356D01*
X149450600Y-98737403D02*
X150701197Y-98737403D01*
X149349000Y-118860200D02*
X149349000Y-119038000D01*
X157303000Y-101935356D02*
X157303000Y-110906200D01*
X150701197Y-98737403D02*
X150873000Y-98565600D01*
X157303000Y-110906200D02*
X149349000Y-118860200D01*
X150873000Y-98565600D02*
X153933244Y-98565600D01*
%TO.N,CTX*%
X150873000Y-98260800D02*
X154054122Y-98260800D01*
X156257800Y-112383200D02*
X149829000Y-118812000D01*
X150365000Y-98108400D02*
X150720600Y-98108400D01*
X154054122Y-98260800D02*
X157604000Y-101810678D01*
X157604000Y-101810678D02*
X157604000Y-111030878D01*
X150720600Y-98108400D02*
X150873000Y-98260800D01*
X157604000Y-111030878D02*
X156257800Y-112377078D01*
X149829000Y-118812000D02*
X149829000Y-119389401D01*
X156257800Y-112377078D02*
X156257800Y-112383200D01*
X149829000Y-119389401D02*
X149095000Y-120123401D01*
D29*
%TO.N,/CAN_RX*%
X145089226Y-88146000D02*
X134394000Y-88146000D01*
X147113800Y-95568400D02*
X146961400Y-95568400D01*
X146322400Y-94886600D02*
X146322400Y-89379174D01*
X134394000Y-88146000D02*
X134109000Y-88431000D01*
X146961400Y-95568400D02*
X146301000Y-94908000D01*
X146301000Y-94908000D02*
X146322400Y-94886600D01*
X134109000Y-88431000D02*
X134109000Y-88862800D01*
X146322400Y-89379174D02*
X145089226Y-88146000D01*
%TO.N,/CAN_TX*%
X134236000Y-87796000D02*
X133169200Y-88862800D01*
X146936000Y-94781000D02*
X146672400Y-94517400D01*
X146467375Y-89029174D02*
X145234200Y-87796000D01*
X145234200Y-87796000D02*
X134236000Y-87796000D01*
X146672400Y-94517400D02*
X146672400Y-89234199D01*
X147952000Y-94781000D02*
X146936000Y-94781000D01*
X148079000Y-94908000D02*
X147952000Y-94781000D01*
X146672400Y-89234199D02*
X146467375Y-89029174D01*
X133169200Y-88862800D02*
X132077000Y-88862800D01*
D28*
%TO.N,SX_BUSY*%
X150365000Y-101486600D02*
X150365000Y-105322000D01*
X149831600Y-100953200D02*
X150365000Y-101486600D01*
%TO.N,Net-(U1-U0TXD{slash}PROG{slash}GPIO43)*%
X137958400Y-99523834D02*
X137958400Y-96889200D01*
X138325400Y-95949400D02*
X137950397Y-95574397D01*
X133183200Y-104941000D02*
X133183200Y-105082000D01*
X137958400Y-96889200D02*
X138325400Y-96522200D01*
X133183200Y-105082000D02*
X133423200Y-105322000D01*
X133183200Y-104941000D02*
X133183200Y-104299034D01*
X133183200Y-104299034D02*
X137958400Y-99523834D01*
X137950397Y-95574397D02*
X137842800Y-95574397D01*
X138325400Y-96522200D02*
X138325400Y-95949400D01*
%TO.N,RF_RST*%
X157002000Y-102060034D02*
X157002000Y-110781522D01*
X153808566Y-98866600D02*
X157002000Y-102060034D01*
X150424700Y-99441900D02*
X151000000Y-98866600D01*
X151000000Y-98866600D02*
X153808566Y-98866600D01*
X155167122Y-112616400D02*
X153383600Y-112616400D01*
X150390400Y-99441900D02*
X150424700Y-99441900D01*
X157002000Y-110781522D02*
X155167122Y-112616400D01*
%TO.N,/TXD*%
X132581200Y-108010600D02*
X132581200Y-119950078D01*
X132407200Y-107836600D02*
X132581200Y-108010600D01*
X131080278Y-121451000D02*
X126633200Y-121451000D01*
X132581200Y-119950078D02*
X131080278Y-121451000D01*
X126633200Y-121451000D02*
X126811000Y-121628800D01*
X132381800Y-107836600D02*
X132407200Y-107836600D01*
%TO.N,/RXD*%
X126633200Y-118953600D02*
X126633200Y-118951000D01*
X132280200Y-119825400D02*
X131543600Y-120562000D01*
X137055400Y-94654000D02*
X137055400Y-99149800D01*
X137055400Y-99149800D02*
X131823000Y-104382200D01*
X137030000Y-94628600D02*
X137055400Y-94654000D01*
X131823000Y-104382200D02*
X131823000Y-108166800D01*
X131823000Y-108166800D02*
X132280200Y-108624000D01*
X128244200Y-120562000D02*
X126633200Y-118951000D01*
X132280200Y-108624000D02*
X132280200Y-119825400D01*
X131543600Y-120562000D02*
X128244200Y-120562000D01*
%TO.N,/RXD_ESP*%
X137657400Y-96388800D02*
X137657400Y-99399156D01*
X127555800Y-127699400D02*
X127555800Y-128029600D01*
X128660700Y-126594500D02*
X127555800Y-127699400D01*
X132165900Y-126594500D02*
X128660700Y-126594500D01*
X132882200Y-125878200D02*
X132165900Y-126594500D01*
X137842800Y-96203400D02*
X137657400Y-96388800D01*
X132882200Y-104174356D02*
X132882200Y-125878200D01*
X137657400Y-99399156D02*
X132882200Y-104174356D01*
%TO.N,/TXD_ESP*%
X132102400Y-128029600D02*
X130095800Y-128029600D01*
X133448600Y-107811200D02*
X133183200Y-108076600D01*
X133183200Y-126948800D02*
X132102400Y-128029600D01*
X133183200Y-108076600D02*
X133183200Y-126948800D01*
D30*
%TO.N,+5V*%
X151296000Y-86435800D02*
X151759800Y-86899600D01*
X152744400Y-86899600D02*
X152744400Y-82899600D01*
X151759800Y-86899600D02*
X152744400Y-86899600D01*
D28*
%TO.N,Net-(U1-MTDI{slash}JTAG{slash}GPIO41)*%
X132581200Y-104128200D02*
X132581200Y-105021000D01*
X137356400Y-99274478D02*
X132581200Y-104049678D01*
X137512600Y-94834483D02*
X137356400Y-94990683D01*
X132581200Y-105021000D02*
X132305600Y-105296600D01*
X137512600Y-94367547D02*
X137512600Y-94834483D01*
X132581200Y-104049678D02*
X132581200Y-104128200D01*
X137356400Y-94990683D02*
X137356400Y-99274478D01*
X137113253Y-93605547D02*
X137113253Y-93968200D01*
X137113253Y-93968200D02*
X137512600Y-94367547D01*
X137157000Y-93561800D02*
X137113253Y-93605547D01*
%TD*%
%TA.AperFunction,Conductor*%
%TO.N,GND*%
G36*
X157608243Y-71442869D02*
G01*
X157948213Y-71460687D01*
X157961121Y-71462044D01*
X158294151Y-71514790D01*
X158306834Y-71517485D01*
X158632546Y-71604760D01*
X158644878Y-71608767D01*
X158959680Y-71729609D01*
X158971516Y-71734878D01*
X159271977Y-71887970D01*
X159283191Y-71894446D01*
X159565982Y-72078092D01*
X159576483Y-72085721D01*
X159838529Y-72297922D01*
X159848174Y-72306607D01*
X160086592Y-72545025D01*
X160095277Y-72554670D01*
X160307478Y-72816716D01*
X160315107Y-72827217D01*
X160498750Y-73110002D01*
X160505232Y-73121229D01*
X160658316Y-73421673D01*
X160663595Y-73433530D01*
X160784430Y-73748315D01*
X160788441Y-73760659D01*
X160875712Y-74086359D01*
X160878410Y-74099055D01*
X160931156Y-74432078D01*
X160932513Y-74444987D01*
X160950328Y-74784951D01*
X160950498Y-74791440D01*
X160950316Y-130537592D01*
X160950316Y-132584968D01*
X160950146Y-132591458D01*
X160932327Y-132931426D01*
X160930970Y-132944334D01*
X160878223Y-133277358D01*
X160875525Y-133290054D01*
X160788253Y-133615754D01*
X160784242Y-133628098D01*
X160663407Y-133942882D01*
X160658128Y-133954739D01*
X160505047Y-134255176D01*
X160498557Y-134266416D01*
X160314919Y-134549193D01*
X160307290Y-134559694D01*
X160095088Y-134821741D01*
X160086403Y-134831386D01*
X159847986Y-135069803D01*
X159838341Y-135078488D01*
X159576294Y-135290690D01*
X159565793Y-135298319D01*
X159283016Y-135481957D01*
X159271776Y-135488447D01*
X158971339Y-135641528D01*
X158959482Y-135646807D01*
X158644698Y-135767642D01*
X158632354Y-135771653D01*
X158306654Y-135858925D01*
X158293958Y-135861623D01*
X157960934Y-135914370D01*
X157948026Y-135915727D01*
X157608059Y-135933546D01*
X157601569Y-135933716D01*
X121808231Y-135933716D01*
X121801741Y-135933546D01*
X121461773Y-135915727D01*
X121448865Y-135914370D01*
X121115841Y-135861623D01*
X121103145Y-135858925D01*
X120777445Y-135771653D01*
X120765101Y-135767642D01*
X120450317Y-135646807D01*
X120438460Y-135641528D01*
X120138017Y-135488443D01*
X120126790Y-135481961D01*
X119844006Y-135298319D01*
X119833505Y-135290690D01*
X119571458Y-135078488D01*
X119561813Y-135069803D01*
X119323396Y-134831386D01*
X119314711Y-134821741D01*
X119102509Y-134559694D01*
X119094880Y-134549193D01*
X118911235Y-134266404D01*
X118904759Y-134255188D01*
X118751666Y-133954728D01*
X118746397Y-133942893D01*
X118625555Y-133628092D01*
X118621546Y-133615754D01*
X118534274Y-133290054D01*
X118531577Y-133277368D01*
X118478825Y-132944315D01*
X118477472Y-132931443D01*
X118459654Y-132591476D01*
X118459484Y-132584986D01*
X118459484Y-130632755D01*
X118459505Y-127737760D01*
X118459527Y-124818685D01*
X118479212Y-124751647D01*
X118532016Y-124705892D01*
X118601175Y-124695949D01*
X118664730Y-124724975D01*
X118671208Y-124731006D01*
X118733667Y-124793465D01*
X118874316Y-124895653D01*
X119029219Y-124974580D01*
X119029221Y-124974581D01*
X119194558Y-125028302D01*
X119194559Y-125028302D01*
X119194562Y-125028303D01*
X119366274Y-125055500D01*
X119366275Y-125055500D01*
X119540125Y-125055500D01*
X119540126Y-125055500D01*
X119711838Y-125028303D01*
X119711841Y-125028302D01*
X119711842Y-125028302D01*
X119877178Y-124974581D01*
X119877178Y-124974580D01*
X119877181Y-124974580D01*
X120032084Y-124895653D01*
X120172733Y-124793465D01*
X120295665Y-124670533D01*
X120334202Y-124617491D01*
X129010300Y-124617491D01*
X129010300Y-124736109D01*
X129041001Y-124850686D01*
X129100311Y-124953413D01*
X129184187Y-125037289D01*
X129286914Y-125096599D01*
X129401491Y-125127300D01*
X129401494Y-125127300D01*
X129520106Y-125127300D01*
X129520109Y-125127300D01*
X129634686Y-125096599D01*
X129737413Y-125037289D01*
X129821289Y-124953413D01*
X129880599Y-124850686D01*
X129911300Y-124736109D01*
X129911300Y-124617491D01*
X129880599Y-124502914D01*
X129821289Y-124400187D01*
X129737413Y-124316311D01*
X129634686Y-124257001D01*
X129520109Y-124226300D01*
X129401491Y-124226300D01*
X129286914Y-124257001D01*
X129286912Y-124257001D01*
X129286912Y-124257002D01*
X129184187Y-124316311D01*
X129184184Y-124316313D01*
X129100313Y-124400184D01*
X129100311Y-124400187D01*
X129041001Y-124502914D01*
X129010300Y-124617491D01*
X120334202Y-124617491D01*
X120397853Y-124529884D01*
X120476780Y-124374981D01*
X120530503Y-124209638D01*
X120557700Y-124037926D01*
X120557700Y-123864074D01*
X120530503Y-123692362D01*
X120530502Y-123692358D01*
X120530502Y-123692357D01*
X120476781Y-123527021D01*
X120397852Y-123372115D01*
X120295665Y-123231467D01*
X120172733Y-123108535D01*
X120032084Y-123006347D01*
X120014379Y-122997326D01*
X119877178Y-122927418D01*
X119711841Y-122873697D01*
X119583054Y-122853299D01*
X119540126Y-122846500D01*
X119366274Y-122846500D01*
X119309036Y-122855565D01*
X119194560Y-122873697D01*
X119194557Y-122873697D01*
X119029221Y-122927418D01*
X118874315Y-123006347D01*
X118733668Y-123108534D01*
X118671220Y-123170982D01*
X118609896Y-123204466D01*
X118540205Y-123199481D01*
X118484271Y-123157610D01*
X118459855Y-123092145D01*
X118459539Y-123083323D01*
X118459564Y-119818722D01*
X118479249Y-119751684D01*
X118532053Y-119705929D01*
X118601212Y-119695986D01*
X118664767Y-119725012D01*
X118671245Y-119731043D01*
X118733667Y-119793465D01*
X118874316Y-119895653D01*
X118945979Y-119932167D01*
X119029221Y-119974581D01*
X119194558Y-120028302D01*
X119194559Y-120028302D01*
X119194562Y-120028303D01*
X119366274Y-120055500D01*
X119366275Y-120055500D01*
X119540125Y-120055500D01*
X119540126Y-120055500D01*
X119711838Y-120028303D01*
X119711841Y-120028302D01*
X119711842Y-120028302D01*
X119877178Y-119974581D01*
X119877178Y-119974580D01*
X119877181Y-119974580D01*
X120032084Y-119895653D01*
X120172733Y-119793465D01*
X120295665Y-119670533D01*
X120397853Y-119529884D01*
X120476780Y-119374981D01*
X120505572Y-119286368D01*
X120530502Y-119209642D01*
X120530502Y-119209641D01*
X120530503Y-119209638D01*
X120557700Y-119037926D01*
X120557700Y-118864074D01*
X120530503Y-118692362D01*
X120530502Y-118692358D01*
X120530502Y-118692357D01*
X120476781Y-118527021D01*
X120461396Y-118496827D01*
X120397853Y-118372116D01*
X120295665Y-118231467D01*
X120172733Y-118108535D01*
X120032084Y-118006347D01*
X119877178Y-117927418D01*
X119711841Y-117873697D01*
X119583054Y-117853299D01*
X119540126Y-117846500D01*
X119366274Y-117846500D01*
X119309036Y-117855565D01*
X119194560Y-117873697D01*
X119194557Y-117873697D01*
X119029221Y-117927418D01*
X118874315Y-118006347D01*
X118733668Y-118108534D01*
X118671257Y-118170945D01*
X118609933Y-118204429D01*
X118540242Y-118199444D01*
X118484308Y-118157573D01*
X118459892Y-118092108D01*
X118459576Y-118083286D01*
X118459617Y-112578902D01*
X126267500Y-112578902D01*
X126267500Y-112815097D01*
X126304446Y-113048368D01*
X126377433Y-113272996D01*
X126433041Y-113382131D01*
X126484657Y-113483433D01*
X126623483Y-113674510D01*
X126790490Y-113841517D01*
X126981567Y-113980343D01*
X126993031Y-113986184D01*
X127192003Y-114087566D01*
X127192005Y-114087566D01*
X127192008Y-114087568D01*
X127277774Y-114115435D01*
X127416631Y-114160553D01*
X127649903Y-114197500D01*
X127649908Y-114197500D01*
X128486097Y-114197500D01*
X128719368Y-114160553D01*
X128943992Y-114087568D01*
X129154433Y-113980343D01*
X129345510Y-113841517D01*
X129512517Y-113674510D01*
X129651343Y-113483433D01*
X129758568Y-113272992D01*
X129831553Y-113048368D01*
X129831753Y-113047103D01*
X129868500Y-112815097D01*
X129868500Y-112578902D01*
X129831553Y-112345631D01*
X129758566Y-112121003D01*
X129651342Y-111910566D01*
X129512517Y-111719490D01*
X129345510Y-111552483D01*
X129154433Y-111413657D01*
X128943996Y-111306433D01*
X128719368Y-111233446D01*
X128486097Y-111196500D01*
X128486092Y-111196500D01*
X127649908Y-111196500D01*
X127649903Y-111196500D01*
X127416631Y-111233446D01*
X127192003Y-111306433D01*
X126981566Y-111413657D01*
X126872550Y-111492862D01*
X126790490Y-111552483D01*
X126790488Y-111552485D01*
X126790487Y-111552485D01*
X126623485Y-111719487D01*
X126623485Y-111719488D01*
X126623483Y-111719490D01*
X126563862Y-111801550D01*
X126484657Y-111910566D01*
X126377433Y-112121003D01*
X126304446Y-112345631D01*
X126267500Y-112578902D01*
X118459617Y-112578902D01*
X118459649Y-108378902D01*
X126267500Y-108378902D01*
X126267500Y-108615097D01*
X126304446Y-108848368D01*
X126377433Y-109072996D01*
X126484657Y-109283433D01*
X126623483Y-109474510D01*
X126790490Y-109641517D01*
X126981567Y-109780343D01*
X127080991Y-109831002D01*
X127192003Y-109887566D01*
X127192005Y-109887566D01*
X127192008Y-109887568D01*
X127312412Y-109926689D01*
X127416631Y-109960553D01*
X127649903Y-109997500D01*
X127649908Y-109997500D01*
X128486097Y-109997500D01*
X128719368Y-109960553D01*
X128943992Y-109887568D01*
X129154433Y-109780343D01*
X129345510Y-109641517D01*
X129512517Y-109474510D01*
X129651343Y-109283433D01*
X129758568Y-109072992D01*
X129831553Y-108848368D01*
X129868500Y-108615097D01*
X129868500Y-108378902D01*
X129831553Y-108145631D01*
X129773619Y-107967331D01*
X129758568Y-107921008D01*
X129758566Y-107921005D01*
X129758566Y-107921003D01*
X129651342Y-107710566D01*
X129611020Y-107655068D01*
X129512517Y-107519490D01*
X129345510Y-107352483D01*
X129154433Y-107213657D01*
X128943996Y-107106433D01*
X128719368Y-107033446D01*
X128486097Y-106996500D01*
X128486092Y-106996500D01*
X127649908Y-106996500D01*
X127649903Y-106996500D01*
X127416631Y-107033446D01*
X127192003Y-107106433D01*
X126981566Y-107213657D01*
X126872550Y-107292862D01*
X126790490Y-107352483D01*
X126790488Y-107352485D01*
X126790487Y-107352485D01*
X126623485Y-107519487D01*
X126623485Y-107519488D01*
X126623483Y-107519490D01*
X126591996Y-107562828D01*
X126484657Y-107710566D01*
X126377433Y-107921003D01*
X126304446Y-108145631D01*
X126267500Y-108378902D01*
X118459649Y-108378902D01*
X118459680Y-104178902D01*
X120767500Y-104178902D01*
X120767500Y-104415097D01*
X120804446Y-104648368D01*
X120877433Y-104872996D01*
X120948142Y-105011769D01*
X120984657Y-105083433D01*
X121123483Y-105274510D01*
X121290490Y-105441517D01*
X121481567Y-105580343D01*
X121559948Y-105620280D01*
X121692003Y-105687566D01*
X121692005Y-105687566D01*
X121692008Y-105687568D01*
X121745769Y-105705036D01*
X121916631Y-105760553D01*
X122149903Y-105797500D01*
X122149908Y-105797500D01*
X122986097Y-105797500D01*
X123219368Y-105760553D01*
X123249412Y-105750791D01*
X123443992Y-105687568D01*
X123654433Y-105580343D01*
X123845510Y-105441517D01*
X124012517Y-105274510D01*
X124151343Y-105083433D01*
X124258568Y-104872992D01*
X124331553Y-104648368D01*
X124358916Y-104475605D01*
X124368500Y-104415097D01*
X124368500Y-104178902D01*
X126267500Y-104178902D01*
X126267500Y-104415097D01*
X126304446Y-104648368D01*
X126377433Y-104872996D01*
X126448142Y-105011769D01*
X126484657Y-105083433D01*
X126623483Y-105274510D01*
X126790490Y-105441517D01*
X126981567Y-105580343D01*
X127059948Y-105620280D01*
X127192003Y-105687566D01*
X127192005Y-105687566D01*
X127192008Y-105687568D01*
X127245769Y-105705036D01*
X127416631Y-105760553D01*
X127649903Y-105797500D01*
X127649908Y-105797500D01*
X128486097Y-105797500D01*
X128719368Y-105760553D01*
X128749412Y-105750791D01*
X128943992Y-105687568D01*
X129154433Y-105580343D01*
X129345510Y-105441517D01*
X129512517Y-105274510D01*
X129651343Y-105083433D01*
X129758568Y-104872992D01*
X129831553Y-104648368D01*
X129858916Y-104475605D01*
X129868500Y-104415097D01*
X129868500Y-104178902D01*
X129831553Y-103945631D01*
X129758566Y-103721003D01*
X129668667Y-103544567D01*
X129651343Y-103510567D01*
X129512517Y-103319490D01*
X129345510Y-103152483D01*
X129154433Y-103013657D01*
X128943996Y-102906433D01*
X128719368Y-102833446D01*
X128486097Y-102796500D01*
X128486092Y-102796500D01*
X127649908Y-102796500D01*
X127649903Y-102796500D01*
X127416631Y-102833446D01*
X127192003Y-102906433D01*
X126981566Y-103013657D01*
X126872550Y-103092862D01*
X126790490Y-103152483D01*
X126790488Y-103152485D01*
X126790487Y-103152485D01*
X126623485Y-103319487D01*
X126623485Y-103319488D01*
X126623483Y-103319490D01*
X126593455Y-103360820D01*
X126484657Y-103510566D01*
X126377433Y-103721003D01*
X126304446Y-103945631D01*
X126267500Y-104178902D01*
X124368500Y-104178902D01*
X124331553Y-103945631D01*
X124258566Y-103721003D01*
X124168667Y-103544567D01*
X124151343Y-103510567D01*
X124042542Y-103360817D01*
X124023692Y-103322205D01*
X123643928Y-102001524D01*
X123639100Y-101967259D01*
X123639100Y-98784470D01*
X123658785Y-98717431D01*
X123711589Y-98671676D01*
X123780747Y-98661732D01*
X123844303Y-98690757D01*
X123870485Y-98722466D01*
X123879320Y-98737769D01*
X123954631Y-98813080D01*
X124046869Y-98866334D01*
X124149747Y-98893900D01*
X124149749Y-98893900D01*
X124256251Y-98893900D01*
X124256253Y-98893900D01*
X124359131Y-98866334D01*
X124451369Y-98813080D01*
X124451373Y-98813075D01*
X124457815Y-98808133D01*
X124458455Y-98808967D01*
X124459855Y-98808077D01*
X124464567Y-98801902D01*
X124495698Y-98785272D01*
X124500721Y-98783451D01*
X124593764Y-98749716D01*
X124669308Y-98722326D01*
X124711574Y-98714900D01*
X128715703Y-98714900D01*
X128715711Y-98714901D01*
X128730145Y-98714901D01*
X128819854Y-98714901D01*
X128819855Y-98714901D01*
X128885187Y-98687839D01*
X128902736Y-98680570D01*
X128966170Y-98617136D01*
X128966170Y-98617134D01*
X129467086Y-98116219D01*
X129528409Y-98082734D01*
X129554767Y-98079900D01*
X130814903Y-98079900D01*
X130814911Y-98079901D01*
X130829345Y-98079901D01*
X130919054Y-98079901D01*
X130919055Y-98079901D01*
X130978815Y-98055147D01*
X131001936Y-98045570D01*
X131065370Y-97982136D01*
X131065370Y-97982134D01*
X131531570Y-97515936D01*
X131565900Y-97433055D01*
X131565900Y-97343346D01*
X131565900Y-94181631D01*
X131585585Y-94114592D01*
X131602219Y-94093950D01*
X131773807Y-93922362D01*
X131984345Y-93711823D01*
X131992485Y-93707378D01*
X131998074Y-93699970D01*
X132022664Y-93690900D01*
X132045666Y-93678340D01*
X132056662Y-93678359D01*
X132063627Y-93675791D01*
X132098814Y-93678435D01*
X132103856Y-93679551D01*
X132139055Y-93693232D01*
X132183801Y-93719066D01*
X132286679Y-93746632D01*
X132286681Y-93746632D01*
X132393183Y-93746632D01*
X132393185Y-93746632D01*
X132496063Y-93719066D01*
X132588301Y-93665812D01*
X132663612Y-93590501D01*
X132716866Y-93498263D01*
X132744432Y-93395385D01*
X132744432Y-93327100D01*
X132764117Y-93260061D01*
X132816921Y-93214306D01*
X132868432Y-93203100D01*
X136682245Y-93203100D01*
X136749284Y-93222785D01*
X136795039Y-93275589D01*
X136804983Y-93344747D01*
X136789631Y-93389102D01*
X136780066Y-93405666D01*
X136763671Y-93466856D01*
X136752500Y-93508547D01*
X136752500Y-93615053D01*
X136780066Y-93717931D01*
X136833320Y-93810169D01*
X136833322Y-93810171D01*
X136836489Y-93814298D01*
X136838009Y-93817134D01*
X136839376Y-93818217D01*
X136855436Y-93849644D01*
X136880652Y-93923345D01*
X136881075Y-93924579D01*
X136887752Y-93964720D01*
X136887752Y-94013053D01*
X136887753Y-94013058D01*
X136912025Y-94071658D01*
X136912026Y-94071658D01*
X136923218Y-94098676D01*
X136930688Y-94168146D01*
X136899415Y-94230626D01*
X136870659Y-94253519D01*
X136781631Y-94304920D01*
X136781628Y-94304922D01*
X136706322Y-94380228D01*
X136706320Y-94380231D01*
X136653066Y-94472468D01*
X136642791Y-94510815D01*
X136625500Y-94575347D01*
X136625500Y-94681853D01*
X136653066Y-94784731D01*
X136706320Y-94876969D01*
X136706322Y-94876971D01*
X136724973Y-94895622D01*
X136729152Y-94901794D01*
X136732877Y-94904313D01*
X136751259Y-94934442D01*
X136819867Y-95094468D01*
X136829900Y-95143329D01*
X136829900Y-99005032D01*
X136810215Y-99072071D01*
X136793581Y-99092713D01*
X131631832Y-104254461D01*
X131631829Y-104254466D01*
X131628718Y-104261975D01*
X131628717Y-104261979D01*
X131623250Y-104275179D01*
X131597499Y-104337345D01*
X131597499Y-104427055D01*
X131597500Y-104427057D01*
X131597500Y-104451631D01*
X131597500Y-108111942D01*
X131597499Y-108111956D01*
X131597499Y-108121945D01*
X131597499Y-108211655D01*
X131608864Y-108239093D01*
X131620743Y-108267769D01*
X131620742Y-108267769D01*
X131631829Y-108294534D01*
X131631829Y-108294535D01*
X131631830Y-108294536D01*
X131695264Y-108357970D01*
X131695265Y-108357970D01*
X131712705Y-108375410D01*
X132018381Y-108681086D01*
X132051866Y-108742409D01*
X132054700Y-108768767D01*
X132054700Y-119680633D01*
X132035015Y-119747672D01*
X132018381Y-119768314D01*
X131486514Y-120300181D01*
X131425191Y-120333666D01*
X131398833Y-120336500D01*
X128388967Y-120336500D01*
X128359526Y-120327855D01*
X128329540Y-120321332D01*
X128324524Y-120317577D01*
X128321928Y-120316815D01*
X128301286Y-120300181D01*
X128169707Y-120168602D01*
X128136222Y-120107279D01*
X128135901Y-120105760D01*
X128132717Y-120090189D01*
X127985347Y-119369422D01*
X129095299Y-119369422D01*
X129104031Y-119413317D01*
X129104034Y-119413324D01*
X129137295Y-119463103D01*
X129137296Y-119463104D01*
X129187078Y-119496367D01*
X129187081Y-119496367D01*
X129187082Y-119496368D01*
X129230977Y-119505100D01*
X129230980Y-119505100D01*
X130960622Y-119505100D01*
X131004517Y-119496368D01*
X131004517Y-119496367D01*
X131004522Y-119496367D01*
X131054304Y-119463104D01*
X131087567Y-119413322D01*
X131095194Y-119374981D01*
X131096300Y-119369422D01*
X131096300Y-117639777D01*
X131087568Y-117595882D01*
X131087567Y-117595881D01*
X131087567Y-117595878D01*
X131054304Y-117546096D01*
X131054303Y-117546095D01*
X131004524Y-117512834D01*
X131004517Y-117512831D01*
X130960622Y-117504100D01*
X130960620Y-117504100D01*
X129230980Y-117504100D01*
X129230978Y-117504100D01*
X129187082Y-117512831D01*
X129187075Y-117512834D01*
X129137296Y-117546095D01*
X129137295Y-117546096D01*
X129104034Y-117595875D01*
X129104031Y-117595882D01*
X129095300Y-117639777D01*
X129095300Y-117639780D01*
X129095300Y-119369420D01*
X129095300Y-119369422D01*
X129095299Y-119369422D01*
X127985347Y-119369422D01*
X127959464Y-119242829D01*
X127886213Y-118884567D01*
X127883700Y-118859728D01*
X127883700Y-118852456D01*
X127845252Y-118659170D01*
X127845251Y-118659169D01*
X127845251Y-118659165D01*
X127844471Y-118657282D01*
X127769835Y-118477092D01*
X127769828Y-118477079D01*
X127660339Y-118313218D01*
X127660336Y-118313214D01*
X127520985Y-118173863D01*
X127520981Y-118173860D01*
X127357120Y-118064371D01*
X127357107Y-118064364D01*
X127175039Y-117988950D01*
X127175029Y-117988947D01*
X126981743Y-117950500D01*
X126981741Y-117950500D01*
X126284659Y-117950500D01*
X126284657Y-117950500D01*
X126091370Y-117988947D01*
X126091360Y-117988950D01*
X125909292Y-118064364D01*
X125909279Y-118064371D01*
X125745418Y-118173860D01*
X125745414Y-118173863D01*
X125606063Y-118313214D01*
X125606060Y-118313218D01*
X125496571Y-118477079D01*
X125496564Y-118477092D01*
X125421150Y-118659160D01*
X125421147Y-118659170D01*
X125382700Y-118852456D01*
X125382700Y-118852459D01*
X125382700Y-119049541D01*
X125382700Y-119049543D01*
X125382699Y-119049543D01*
X125421147Y-119242829D01*
X125421150Y-119242839D01*
X125496564Y-119424907D01*
X125496571Y-119424920D01*
X125606060Y-119588781D01*
X125606063Y-119588785D01*
X125745414Y-119728136D01*
X125745418Y-119728139D01*
X125909279Y-119837628D01*
X125909292Y-119837635D01*
X125994450Y-119872908D01*
X126091365Y-119913051D01*
X126224994Y-119939631D01*
X126239054Y-119943298D01*
X127094899Y-120221021D01*
X127152590Y-120260436D01*
X127179812Y-120324784D01*
X127167924Y-120393635D01*
X127120699Y-120445129D01*
X127053132Y-120462917D01*
X127032435Y-120460583D01*
X126981744Y-120450500D01*
X126981741Y-120450500D01*
X126284659Y-120450500D01*
X126284657Y-120450500D01*
X126091370Y-120488947D01*
X126091360Y-120488950D01*
X125909292Y-120564364D01*
X125909279Y-120564371D01*
X125745418Y-120673860D01*
X125745414Y-120673863D01*
X125606063Y-120813214D01*
X125606060Y-120813218D01*
X125496571Y-120977079D01*
X125496564Y-120977092D01*
X125421150Y-121159160D01*
X125421147Y-121159170D01*
X125382700Y-121352456D01*
X125382700Y-121352459D01*
X125382700Y-121549541D01*
X125382700Y-121549543D01*
X125382699Y-121549543D01*
X125421147Y-121742829D01*
X125421150Y-121742839D01*
X125496564Y-121924907D01*
X125496571Y-121924920D01*
X125606060Y-122088781D01*
X125606063Y-122088785D01*
X125745414Y-122228136D01*
X125745418Y-122228139D01*
X125909279Y-122337628D01*
X125909292Y-122337635D01*
X126091360Y-122413049D01*
X126091365Y-122413051D01*
X126091369Y-122413051D01*
X126091370Y-122413052D01*
X126284656Y-122451500D01*
X126284659Y-122451500D01*
X126981743Y-122451500D01*
X127111782Y-122425632D01*
X127175035Y-122413051D01*
X127357114Y-122337632D01*
X127403018Y-122306958D01*
X127429464Y-122294620D01*
X127429206Y-122293978D01*
X127434849Y-122291707D01*
X127434857Y-122291705D01*
X128587619Y-121690551D01*
X128644956Y-121676500D01*
X131035421Y-121676500D01*
X131035423Y-121676501D01*
X131125133Y-121676501D01*
X131187787Y-121650548D01*
X131208014Y-121642170D01*
X131271448Y-121578736D01*
X131271448Y-121578735D01*
X131288886Y-121561297D01*
X131288887Y-121561294D01*
X132445020Y-120405161D01*
X132506342Y-120371678D01*
X132576034Y-120376662D01*
X132631967Y-120418534D01*
X132656384Y-120483998D01*
X132656700Y-120492844D01*
X132656700Y-125733433D01*
X132637015Y-125800472D01*
X132620381Y-125821114D01*
X132108814Y-126332681D01*
X132047491Y-126366166D01*
X132021133Y-126369000D01*
X128719997Y-126369000D01*
X128719989Y-126368999D01*
X128705555Y-126368999D01*
X128615846Y-126368999D01*
X128615844Y-126368999D01*
X128615842Y-126369000D01*
X128567294Y-126389109D01*
X128532965Y-126403328D01*
X128515328Y-126420966D01*
X128469530Y-126466764D01*
X128469529Y-126466765D01*
X127912109Y-127024184D01*
X127850786Y-127057669D01*
X127800237Y-127058120D01*
X127654344Y-127029100D01*
X127654341Y-127029100D01*
X127457259Y-127029100D01*
X127457257Y-127029100D01*
X127263970Y-127067547D01*
X127263960Y-127067550D01*
X127081892Y-127142964D01*
X127081879Y-127142971D01*
X126918018Y-127252460D01*
X126918014Y-127252463D01*
X126778663Y-127391814D01*
X126778660Y-127391818D01*
X126669171Y-127555679D01*
X126669164Y-127555692D01*
X126593750Y-127737760D01*
X126593747Y-127737770D01*
X126555300Y-127931056D01*
X126555300Y-127931059D01*
X126555300Y-128128141D01*
X126555300Y-128128143D01*
X126555299Y-128128143D01*
X126593747Y-128321429D01*
X126593750Y-128321439D01*
X126669164Y-128503507D01*
X126669171Y-128503520D01*
X126778660Y-128667381D01*
X126778663Y-128667385D01*
X126918014Y-128806736D01*
X126918018Y-128806739D01*
X127081879Y-128916228D01*
X127081892Y-128916235D01*
X127263960Y-128991649D01*
X127263965Y-128991651D01*
X127263969Y-128991651D01*
X127263970Y-128991652D01*
X127457256Y-129030100D01*
X127457259Y-129030100D01*
X127654343Y-129030100D01*
X127784382Y-129004232D01*
X127847635Y-128991651D01*
X128029714Y-128916232D01*
X128193582Y-128806739D01*
X128332939Y-128667382D01*
X128442432Y-128503514D01*
X128517851Y-128321435D01*
X128556300Y-128128141D01*
X128556300Y-127931059D01*
X128556300Y-127931056D01*
X128517852Y-127737770D01*
X128517851Y-127737769D01*
X128517851Y-127737765D01*
X128465960Y-127612487D01*
X128442435Y-127555692D01*
X128442428Y-127555679D01*
X128329555Y-127386753D01*
X128331802Y-127385251D01*
X128309025Y-127331721D01*
X128320771Y-127262846D01*
X128344498Y-127229606D01*
X128717786Y-126856319D01*
X128779109Y-126822834D01*
X128805467Y-126820000D01*
X129789484Y-126820000D01*
X129856523Y-126839685D01*
X129902278Y-126892489D01*
X129912222Y-126961647D01*
X129883197Y-127025203D01*
X129824419Y-127062977D01*
X129813676Y-127065617D01*
X129803970Y-127067547D01*
X129803960Y-127067550D01*
X129621892Y-127142964D01*
X129621879Y-127142971D01*
X129458018Y-127252460D01*
X129458014Y-127252463D01*
X129318663Y-127391814D01*
X129318660Y-127391818D01*
X129209171Y-127555679D01*
X129209164Y-127555692D01*
X129133750Y-127737760D01*
X129133747Y-127737770D01*
X129095300Y-127931056D01*
X129095300Y-127931059D01*
X129095300Y-128128141D01*
X129095300Y-128128143D01*
X129095299Y-128128143D01*
X129133747Y-128321429D01*
X129133750Y-128321439D01*
X129209164Y-128503507D01*
X129209171Y-128503520D01*
X129318660Y-128667381D01*
X129318663Y-128667385D01*
X129458014Y-128806736D01*
X129458018Y-128806739D01*
X129621879Y-128916228D01*
X129621892Y-128916235D01*
X129803960Y-128991649D01*
X129803965Y-128991651D01*
X129803969Y-128991651D01*
X129803970Y-128991652D01*
X129997256Y-129030100D01*
X129997259Y-129030100D01*
X130194343Y-129030100D01*
X130324382Y-129004232D01*
X130387635Y-128991651D01*
X130569714Y-128916232D01*
X130733582Y-128806739D01*
X130872939Y-128667382D01*
X130982432Y-128503514D01*
X131053621Y-128331648D01*
X131097462Y-128277244D01*
X131163756Y-128255179D01*
X131168182Y-128255100D01*
X132057543Y-128255100D01*
X132057545Y-128255101D01*
X132147255Y-128255101D01*
X132205860Y-128230825D01*
X132230136Y-128220770D01*
X132293570Y-128157336D01*
X132293570Y-128157335D01*
X132311008Y-128139897D01*
X132311010Y-128139894D01*
X133071612Y-127379292D01*
X150688899Y-127379292D01*
X150688899Y-127497910D01*
X150719600Y-127612487D01*
X150778910Y-127715214D01*
X150862786Y-127799090D01*
X150965513Y-127858400D01*
X151080090Y-127889101D01*
X151080093Y-127889101D01*
X151198705Y-127889101D01*
X151198708Y-127889101D01*
X151313285Y-127858400D01*
X151416012Y-127799090D01*
X151499888Y-127715214D01*
X151559198Y-127612487D01*
X151589899Y-127497910D01*
X151589899Y-127379292D01*
X151559198Y-127264715D01*
X151499888Y-127161988D01*
X151416012Y-127078112D01*
X151313285Y-127018802D01*
X151198708Y-126988101D01*
X151080090Y-126988101D01*
X150965513Y-127018802D01*
X150965511Y-127018802D01*
X150965511Y-127018803D01*
X150862786Y-127078112D01*
X150862783Y-127078114D01*
X150778912Y-127161985D01*
X150778910Y-127161988D01*
X150719600Y-127264715D01*
X150688899Y-127379292D01*
X133071612Y-127379292D01*
X133293493Y-127157411D01*
X133293497Y-127157408D01*
X133310935Y-127139970D01*
X133310936Y-127139970D01*
X133374370Y-127076536D01*
X133391947Y-127034101D01*
X133408701Y-126993655D01*
X133408701Y-126903945D01*
X133408700Y-126903942D01*
X133408700Y-124382200D01*
X136691000Y-124382200D01*
X138781000Y-124382200D01*
X138781000Y-122587948D01*
X148457099Y-122587948D01*
X148457099Y-122694454D01*
X148484665Y-122797332D01*
X148537919Y-122889570D01*
X148613230Y-122964881D01*
X148705468Y-123018135D01*
X148808346Y-123045701D01*
X148808348Y-123045701D01*
X148914850Y-123045701D01*
X148914852Y-123045701D01*
X149017730Y-123018135D01*
X149053772Y-122997326D01*
X151350899Y-122997326D01*
X151350899Y-123142276D01*
X151374798Y-123231467D01*
X151388416Y-123282289D01*
X151460887Y-123407812D01*
X151460889Y-123407814D01*
X151460890Y-123407816D01*
X151563384Y-123510310D01*
X151563385Y-123510311D01*
X151563387Y-123510312D01*
X151688910Y-123582783D01*
X151688911Y-123582783D01*
X151688914Y-123582785D01*
X151828924Y-123620301D01*
X151828927Y-123620301D01*
X151973871Y-123620301D01*
X151973874Y-123620301D01*
X152113884Y-123582785D01*
X152239414Y-123510310D01*
X152341908Y-123407816D01*
X152414383Y-123282286D01*
X152451899Y-123142276D01*
X152451899Y-122997326D01*
X152414383Y-122857316D01*
X152408138Y-122846500D01*
X152341910Y-122731789D01*
X152341905Y-122731783D01*
X152239416Y-122629294D01*
X152239410Y-122629289D01*
X152113887Y-122556818D01*
X152113888Y-122556818D01*
X152102405Y-122553741D01*
X151973874Y-122519301D01*
X151828924Y-122519301D01*
X151700392Y-122553741D01*
X151688910Y-122556818D01*
X151563387Y-122629289D01*
X151563381Y-122629294D01*
X151460892Y-122731783D01*
X151460887Y-122731789D01*
X151388416Y-122857312D01*
X151388415Y-122857316D01*
X151350899Y-122997326D01*
X149053772Y-122997326D01*
X149109968Y-122964881D01*
X149185279Y-122889570D01*
X149238533Y-122797332D01*
X149266099Y-122694454D01*
X149266099Y-122682589D01*
X149268065Y-122673161D01*
X149267078Y-122667034D01*
X149276444Y-122633005D01*
X149340983Y-122485070D01*
X149348124Y-122468700D01*
X149374094Y-122430609D01*
X150240294Y-121564410D01*
X150240297Y-121564408D01*
X150257735Y-121546970D01*
X150257736Y-121546970D01*
X150286015Y-121518691D01*
X154892900Y-121518691D01*
X154892900Y-121637309D01*
X154923601Y-121751886D01*
X154982911Y-121854613D01*
X155066787Y-121938489D01*
X155169514Y-121997799D01*
X155284091Y-122028500D01*
X155284094Y-122028500D01*
X155402706Y-122028500D01*
X155402709Y-122028500D01*
X155517286Y-121997799D01*
X155620013Y-121938489D01*
X155703889Y-121854613D01*
X155703889Y-121854612D01*
X155709636Y-121848866D01*
X155711083Y-121850313D01*
X155758645Y-121815581D01*
X155828391Y-121811422D01*
X155889313Y-121845631D01*
X155895701Y-121853003D01*
X155897310Y-121854612D01*
X155897311Y-121854613D01*
X155981187Y-121938489D01*
X156083914Y-121997799D01*
X156198491Y-122028500D01*
X156198494Y-122028500D01*
X156317106Y-122028500D01*
X156317109Y-122028500D01*
X156431686Y-121997799D01*
X156534413Y-121938489D01*
X156618289Y-121854613D01*
X156677599Y-121751886D01*
X156708300Y-121637309D01*
X156708300Y-121518691D01*
X156677599Y-121404114D01*
X156618289Y-121301387D01*
X156534413Y-121217511D01*
X156431686Y-121158201D01*
X156317109Y-121127500D01*
X156198491Y-121127500D01*
X156083914Y-121158201D01*
X156083912Y-121158201D01*
X156083912Y-121158202D01*
X155981187Y-121217511D01*
X155981184Y-121217513D01*
X155891564Y-121307134D01*
X155890117Y-121305687D01*
X155842542Y-121340423D01*
X155772795Y-121344573D01*
X155711877Y-121310358D01*
X155705494Y-121302992D01*
X155620015Y-121217513D01*
X155620013Y-121217511D01*
X155517286Y-121158201D01*
X155402709Y-121127500D01*
X155284091Y-121127500D01*
X155169514Y-121158201D01*
X155169512Y-121158201D01*
X155169512Y-121158202D01*
X155066787Y-121217511D01*
X155066784Y-121217513D01*
X154982913Y-121301384D01*
X154982911Y-121301387D01*
X154923601Y-121404114D01*
X154892900Y-121518691D01*
X150286015Y-121518691D01*
X150321170Y-121483536D01*
X150342265Y-121432608D01*
X150355501Y-121400655D01*
X150355501Y-121310945D01*
X150355501Y-121300956D01*
X150355500Y-121300942D01*
X150355500Y-120355726D01*
X151757299Y-120355726D01*
X151757299Y-120500676D01*
X151782555Y-120594930D01*
X151794816Y-120640689D01*
X151867287Y-120766212D01*
X151867289Y-120766214D01*
X151867290Y-120766216D01*
X151969784Y-120868710D01*
X151969785Y-120868711D01*
X151969787Y-120868712D01*
X152095310Y-120941183D01*
X152095311Y-120941183D01*
X152095314Y-120941185D01*
X152235324Y-120978701D01*
X152235327Y-120978701D01*
X152380271Y-120978701D01*
X152380274Y-120978701D01*
X152520284Y-120941185D01*
X152645814Y-120868710D01*
X152748308Y-120766216D01*
X152820783Y-120640686D01*
X152858299Y-120500676D01*
X152858299Y-120355726D01*
X152820783Y-120215716D01*
X152798230Y-120176654D01*
X152748310Y-120090189D01*
X152748305Y-120090183D01*
X152645816Y-119987694D01*
X152645810Y-119987689D01*
X152520287Y-119915218D01*
X152520288Y-119915218D01*
X152508805Y-119912141D01*
X152380274Y-119877701D01*
X152235324Y-119877701D01*
X152106792Y-119912141D01*
X152095310Y-119915218D01*
X151969787Y-119987689D01*
X151969781Y-119987694D01*
X151867292Y-120090183D01*
X151867287Y-120090189D01*
X151794816Y-120215712D01*
X151790382Y-120232256D01*
X151757299Y-120355726D01*
X150355500Y-120355726D01*
X150355500Y-119081444D01*
X150375185Y-119014405D01*
X150391814Y-118993768D01*
X152591291Y-116794291D01*
X156569300Y-116794291D01*
X156569300Y-116912909D01*
X156600001Y-117027486D01*
X156659311Y-117130213D01*
X156743187Y-117214089D01*
X156845914Y-117273399D01*
X156960491Y-117304100D01*
X156960494Y-117304100D01*
X157079106Y-117304100D01*
X157079109Y-117304100D01*
X157193686Y-117273399D01*
X157296413Y-117214089D01*
X157380289Y-117130213D01*
X157439599Y-117027486D01*
X157470300Y-116912909D01*
X157470300Y-116794291D01*
X157439599Y-116679714D01*
X157380289Y-116576987D01*
X157296413Y-116493111D01*
X157193686Y-116433801D01*
X157079109Y-116403100D01*
X156960491Y-116403100D01*
X156845914Y-116433801D01*
X156845912Y-116433801D01*
X156845912Y-116433802D01*
X156743187Y-116493111D01*
X156743184Y-116493113D01*
X156659313Y-116576984D01*
X156659311Y-116576987D01*
X156600001Y-116679714D01*
X156569300Y-116794291D01*
X152591291Y-116794291D01*
X155182091Y-114203491D01*
X156569300Y-114203491D01*
X156569300Y-114322109D01*
X156600001Y-114436686D01*
X156659311Y-114539413D01*
X156743187Y-114623289D01*
X156845914Y-114682599D01*
X156960491Y-114713300D01*
X156960494Y-114713300D01*
X157079106Y-114713300D01*
X157079109Y-114713300D01*
X157193686Y-114682599D01*
X157296413Y-114623289D01*
X157380289Y-114539413D01*
X157439599Y-114436686D01*
X157470300Y-114322109D01*
X157470300Y-114203491D01*
X157439599Y-114088914D01*
X157380289Y-113986187D01*
X157296413Y-113902311D01*
X157193686Y-113843001D01*
X157079109Y-113812300D01*
X156960491Y-113812300D01*
X156845914Y-113843001D01*
X156845912Y-113843001D01*
X156845912Y-113843002D01*
X156743187Y-113902311D01*
X156743184Y-113902313D01*
X156659313Y-113986184D01*
X156659311Y-113986187D01*
X156616530Y-114060286D01*
X156600001Y-114088914D01*
X156569300Y-114203491D01*
X155182091Y-114203491D01*
X156715734Y-112669848D01*
X156715736Y-112669848D01*
X156779170Y-112606414D01*
X156782818Y-112597603D01*
X156797616Y-112581917D01*
X156798367Y-112581477D01*
X156800131Y-112579328D01*
X158015294Y-111364166D01*
X158015297Y-111364164D01*
X158032735Y-111346726D01*
X158032736Y-111346726D01*
X158096170Y-111283292D01*
X158096170Y-111283290D01*
X158096172Y-111283289D01*
X158116816Y-111233447D01*
X158130500Y-111200411D01*
X158130500Y-101730857D01*
X158130501Y-101730855D01*
X158130501Y-101641146D01*
X158096170Y-101558265D01*
X158096170Y-101558264D01*
X158032736Y-101494830D01*
X158025671Y-101487765D01*
X158025664Y-101487759D01*
X154392006Y-97854101D01*
X154369970Y-97832065D01*
X154369970Y-97832064D01*
X154306536Y-97768630D01*
X154282056Y-97758490D01*
X154265444Y-97751609D01*
X154265443Y-97751608D01*
X154223657Y-97734299D01*
X154223655Y-97734299D01*
X154133945Y-97734299D01*
X154119511Y-97734299D01*
X154119503Y-97734300D01*
X151142445Y-97734300D01*
X151075406Y-97714615D01*
X151054764Y-97697981D01*
X150648726Y-97291943D01*
X150626248Y-97269465D01*
X150626248Y-97269464D01*
X150562814Y-97206030D01*
X150531994Y-97193264D01*
X150479933Y-97171699D01*
X150390223Y-97171699D01*
X150375789Y-97171699D01*
X150375781Y-97171700D01*
X149959175Y-97171700D01*
X149954230Y-97170831D01*
X149951463Y-97171460D01*
X149916908Y-97164274D01*
X149743296Y-97101326D01*
X149706055Y-97077632D01*
X149705415Y-97078467D01*
X149698971Y-97073522D01*
X149698969Y-97073520D01*
X149606731Y-97020266D01*
X149503853Y-96992700D01*
X149397347Y-96992700D01*
X149294468Y-97020266D01*
X149202231Y-97073520D01*
X149202228Y-97073522D01*
X149126922Y-97148828D01*
X149126920Y-97148831D01*
X149073666Y-97241068D01*
X149066057Y-97269465D01*
X149046100Y-97343947D01*
X149046100Y-97450453D01*
X149073666Y-97553331D01*
X149126920Y-97645569D01*
X149202231Y-97720880D01*
X149294469Y-97774134D01*
X149397347Y-97801700D01*
X149397349Y-97801700D01*
X149503851Y-97801700D01*
X149503853Y-97801700D01*
X149606731Y-97774134D01*
X149698969Y-97720880D01*
X149698973Y-97720875D01*
X149705415Y-97715933D01*
X149706055Y-97716767D01*
X149707455Y-97715877D01*
X149712167Y-97709702D01*
X149743298Y-97693072D01*
X149916908Y-97630126D01*
X149959174Y-97622700D01*
X149979289Y-97622700D01*
X150046328Y-97642385D01*
X150092083Y-97695189D01*
X150102027Y-97764347D01*
X150073002Y-97827903D01*
X150066970Y-97834381D01*
X150041322Y-97860028D01*
X150041320Y-97860031D01*
X149988066Y-97952268D01*
X149988066Y-97952269D01*
X149960500Y-98055147D01*
X149960500Y-98161653D01*
X149987664Y-98263031D01*
X149988067Y-98264533D01*
X149988067Y-98264534D01*
X150012097Y-98306155D01*
X150018533Y-98332685D01*
X150028308Y-98358176D01*
X150026650Y-98366144D01*
X150028570Y-98374055D01*
X150019640Y-98399854D01*
X150014082Y-98426582D01*
X150008379Y-98432390D01*
X150005717Y-98440082D01*
X149984258Y-98456957D01*
X149965132Y-98476438D01*
X149957194Y-98478241D01*
X149950796Y-98483273D01*
X149923619Y-98485867D01*
X149896998Y-98491915D01*
X149885446Y-98489512D01*
X149881243Y-98489914D01*
X149862443Y-98484729D01*
X149743296Y-98441529D01*
X149706055Y-98417835D01*
X149705415Y-98418670D01*
X149698971Y-98413725D01*
X149698969Y-98413723D01*
X149606731Y-98360469D01*
X149503853Y-98332903D01*
X149397347Y-98332903D01*
X149294468Y-98360469D01*
X149202231Y-98413723D01*
X149202228Y-98413725D01*
X149126922Y-98489031D01*
X149126920Y-98489034D01*
X149073666Y-98581271D01*
X149073666Y-98581272D01*
X149046100Y-98684150D01*
X149046100Y-98790656D01*
X149073666Y-98893534D01*
X149126920Y-98985772D01*
X149202231Y-99061083D01*
X149294469Y-99114337D01*
X149397347Y-99141903D01*
X149397349Y-99141903D01*
X149503851Y-99141903D01*
X149503853Y-99141903D01*
X149606731Y-99114337D01*
X149698969Y-99061083D01*
X149698973Y-99061078D01*
X149705415Y-99056136D01*
X149706055Y-99056970D01*
X149707455Y-99056080D01*
X149712167Y-99049905D01*
X149743298Y-99033275D01*
X149916908Y-98970329D01*
X149959174Y-98962903D01*
X149997986Y-98962903D01*
X150065025Y-98982588D01*
X150110780Y-99035392D01*
X150120724Y-99104550D01*
X150091699Y-99168106D01*
X150085667Y-99174584D01*
X150066722Y-99193528D01*
X150066720Y-99193531D01*
X150013466Y-99285768D01*
X150013466Y-99285769D01*
X149985900Y-99388647D01*
X149985900Y-99495153D01*
X150013466Y-99598031D01*
X150066720Y-99690269D01*
X150142031Y-99765580D01*
X150234269Y-99818834D01*
X150337147Y-99846400D01*
X150337149Y-99846400D01*
X150443651Y-99846400D01*
X150443653Y-99846400D01*
X150546531Y-99818834D01*
X150638769Y-99765580D01*
X150714080Y-99690269D01*
X150767334Y-99598031D01*
X150793747Y-99499454D01*
X150804218Y-99472996D01*
X150901441Y-99291558D01*
X150923050Y-99262454D01*
X151057087Y-99128417D01*
X151118410Y-99094934D01*
X151144767Y-99092100D01*
X153663799Y-99092100D01*
X153730838Y-99111785D01*
X153751480Y-99128419D01*
X156740181Y-102117120D01*
X156773666Y-102178443D01*
X156776500Y-102204801D01*
X156776500Y-110636754D01*
X156756815Y-110703793D01*
X156740181Y-110724435D01*
X155110036Y-112354581D01*
X155048713Y-112388066D01*
X155022355Y-112390900D01*
X153892175Y-112390900D01*
X153887230Y-112390031D01*
X153884463Y-112390660D01*
X153849908Y-112383474D01*
X153676296Y-112320526D01*
X153639055Y-112296832D01*
X153638415Y-112297667D01*
X153631971Y-112292722D01*
X153631969Y-112292720D01*
X153539731Y-112239466D01*
X153436853Y-112211900D01*
X153330347Y-112211900D01*
X153227468Y-112239466D01*
X153135231Y-112292720D01*
X153135228Y-112292722D01*
X153059922Y-112368028D01*
X153059920Y-112368031D01*
X153006666Y-112460268D01*
X153006666Y-112460269D01*
X152979100Y-112563147D01*
X152979100Y-112669653D01*
X153006666Y-112772531D01*
X153059920Y-112864769D01*
X153135231Y-112940080D01*
X153227469Y-112993334D01*
X153330347Y-113020900D01*
X153330349Y-113020900D01*
X153436851Y-113020900D01*
X153436853Y-113020900D01*
X153539731Y-112993334D01*
X153631969Y-112940080D01*
X153631973Y-112940075D01*
X153638415Y-112935133D01*
X153639055Y-112935967D01*
X153640455Y-112935077D01*
X153645167Y-112928902D01*
X153676298Y-112912272D01*
X153849908Y-112849326D01*
X153892174Y-112841900D01*
X154749033Y-112841900D01*
X154816072Y-112861585D01*
X154861827Y-112914389D01*
X154871771Y-112983547D01*
X154842746Y-113047103D01*
X154836714Y-113053581D01*
X149415546Y-118474747D01*
X149391066Y-118493750D01*
X149385871Y-118496827D01*
X149385865Y-118496831D01*
X149227037Y-118639299D01*
X149199643Y-118656548D01*
X149199906Y-118657003D01*
X149100634Y-118714317D01*
X149100628Y-118714322D01*
X149025322Y-118789628D01*
X149025320Y-118789631D01*
X148972066Y-118881868D01*
X148972066Y-118881869D01*
X148944500Y-118984747D01*
X148944500Y-119091253D01*
X148972066Y-119194131D01*
X149025320Y-119286369D01*
X149100631Y-119361680D01*
X149192869Y-119414934D01*
X149198020Y-119416314D01*
X149221327Y-119430520D01*
X149246268Y-119441635D01*
X149250731Y-119448442D01*
X149257681Y-119452678D01*
X149269608Y-119477231D01*
X149284580Y-119500064D01*
X149284654Y-119508204D01*
X149288211Y-119515525D01*
X149284970Y-119542629D01*
X149285221Y-119569931D01*
X149280883Y-119576818D01*
X149279917Y-119584900D01*
X149262535Y-119605951D01*
X149247987Y-119629053D01*
X149238121Y-119635522D01*
X149235432Y-119638779D01*
X149218470Y-119648406D01*
X149092753Y-119707218D01*
X149049669Y-119716798D01*
X149049807Y-119717840D01*
X149041747Y-119718901D01*
X148938868Y-119746467D01*
X148846631Y-119799721D01*
X148846628Y-119799723D01*
X148771322Y-119875029D01*
X148771320Y-119875032D01*
X148718066Y-119967269D01*
X148701712Y-120028303D01*
X148690500Y-120070148D01*
X148690500Y-120176654D01*
X148718066Y-120279532D01*
X148771320Y-120371770D01*
X148846631Y-120447081D01*
X148938869Y-120500335D01*
X149041747Y-120527901D01*
X149041749Y-120527901D01*
X149148251Y-120527901D01*
X149148253Y-120527901D01*
X149251131Y-120500335D01*
X149343369Y-120447081D01*
X149418680Y-120371770D01*
X149471934Y-120279532D01*
X149499500Y-120176654D01*
X149499500Y-120176645D01*
X149500561Y-120168594D01*
X149501602Y-120168731D01*
X149501963Y-120167109D01*
X149500929Y-120159418D01*
X149511182Y-120125646D01*
X149575717Y-119987692D01*
X149589432Y-119958372D01*
X149614064Y-119923240D01*
X149692821Y-119844483D01*
X149754143Y-119811001D01*
X149823834Y-119815986D01*
X149879768Y-119857857D01*
X149904184Y-119923322D01*
X149904500Y-119932167D01*
X149904500Y-121211032D01*
X149884815Y-121278071D01*
X149868181Y-121298713D01*
X149051427Y-122115466D01*
X149049058Y-122117174D01*
X149048256Y-122118527D01*
X149019268Y-122138660D01*
X148847539Y-122224655D01*
X148816114Y-122234294D01*
X148816196Y-122234598D01*
X148808347Y-122236701D01*
X148808346Y-122236701D01*
X148750201Y-122252280D01*
X148705467Y-122264267D01*
X148613230Y-122317521D01*
X148613227Y-122317523D01*
X148537921Y-122392829D01*
X148537919Y-122392832D01*
X148484665Y-122485069D01*
X148465440Y-122556818D01*
X148457099Y-122587948D01*
X138781000Y-122587948D01*
X138781000Y-122482200D01*
X136691000Y-122482200D01*
X136691000Y-124382200D01*
X133408700Y-124382200D01*
X133408700Y-108335808D01*
X133428385Y-108268769D01*
X133481189Y-108223014D01*
X133500607Y-108216033D01*
X133501850Y-108215700D01*
X133501853Y-108215700D01*
X133604731Y-108188134D01*
X133696969Y-108134880D01*
X133772280Y-108059569D01*
X133825534Y-107967331D01*
X133853100Y-107864453D01*
X133853100Y-107757947D01*
X133825534Y-107655069D01*
X133772280Y-107562831D01*
X133696969Y-107487520D01*
X133604731Y-107434266D01*
X133501853Y-107406700D01*
X133395347Y-107406700D01*
X133292469Y-107434266D01*
X133292468Y-107434266D01*
X133292466Y-107434267D01*
X133284955Y-107437378D01*
X133284315Y-107435833D01*
X133225789Y-107450026D01*
X133159764Y-107427168D01*
X133116578Y-107372243D01*
X133107700Y-107326167D01*
X133107700Y-105817830D01*
X133127385Y-105750791D01*
X133180189Y-105705036D01*
X133249347Y-105695092D01*
X133263794Y-105698055D01*
X133267064Y-105698931D01*
X133267069Y-105698934D01*
X133369947Y-105726500D01*
X133369950Y-105726500D01*
X133476451Y-105726500D01*
X133476453Y-105726500D01*
X133579331Y-105698934D01*
X133671569Y-105645680D01*
X133746880Y-105570369D01*
X133800134Y-105478131D01*
X133827700Y-105375253D01*
X133827700Y-105268747D01*
X133800134Y-105165869D01*
X133746880Y-105073631D01*
X133671569Y-104998320D01*
X133579331Y-104945066D01*
X133500605Y-104923971D01*
X133440946Y-104887607D01*
X133410417Y-104824760D01*
X133408700Y-104804197D01*
X133408700Y-104443800D01*
X133428385Y-104376761D01*
X133445015Y-104356123D01*
X133749714Y-104051424D01*
X133811034Y-104017941D01*
X133880725Y-104022925D01*
X133936659Y-104064796D01*
X133957167Y-104107013D01*
X133968601Y-104149687D01*
X133992471Y-104191030D01*
X134027911Y-104252413D01*
X134111787Y-104336289D01*
X134214514Y-104395599D01*
X134321716Y-104424323D01*
X134381374Y-104460687D01*
X134411903Y-104523534D01*
X134403608Y-104592909D01*
X134377302Y-104631777D01*
X134353431Y-104655648D01*
X134353430Y-104655651D01*
X134319099Y-104738530D01*
X134319099Y-104842674D01*
X134319100Y-104842683D01*
X134319100Y-113885420D01*
X134319099Y-113885423D01*
X134319099Y-113975133D01*
X134342282Y-114031100D01*
X134347845Y-114044532D01*
X134347846Y-114044533D01*
X134353429Y-114058013D01*
X134434300Y-114138884D01*
X134434306Y-114138889D01*
X135117181Y-114821764D01*
X135131884Y-114848691D01*
X135148477Y-114874510D01*
X135149368Y-114880710D01*
X135150666Y-114883087D01*
X135153500Y-114909445D01*
X135153500Y-115046142D01*
X135153499Y-115046156D01*
X135153499Y-115056145D01*
X135153499Y-115145855D01*
X135174647Y-115196910D01*
X135187830Y-115228736D01*
X135251264Y-115292170D01*
X135251265Y-115292170D01*
X135273810Y-115314715D01*
X135700181Y-115741086D01*
X135733666Y-115802409D01*
X135736500Y-115828767D01*
X135736500Y-115916253D01*
X135764066Y-116019131D01*
X135817320Y-116111369D01*
X135892631Y-116186680D01*
X135984869Y-116239934D01*
X136087747Y-116267500D01*
X136087749Y-116267500D01*
X136194251Y-116267500D01*
X136194253Y-116267500D01*
X136297131Y-116239934D01*
X136389369Y-116186680D01*
X136464680Y-116111369D01*
X136517934Y-116019131D01*
X136545500Y-115916253D01*
X136545500Y-115809747D01*
X136517934Y-115706869D01*
X136464680Y-115614631D01*
X136389369Y-115539320D01*
X136297131Y-115486066D01*
X136194253Y-115458500D01*
X136106767Y-115458500D01*
X136077326Y-115449855D01*
X136047340Y-115443332D01*
X136042324Y-115439577D01*
X136039728Y-115438815D01*
X136019086Y-115422181D01*
X136016472Y-115419567D01*
X135982987Y-115358244D01*
X135987971Y-115288552D01*
X136029843Y-115232619D01*
X136042152Y-115224499D01*
X136043131Y-115223934D01*
X136135369Y-115170680D01*
X136210680Y-115095369D01*
X136263934Y-115003131D01*
X136263934Y-115003130D01*
X136264499Y-115002152D01*
X136282594Y-114984898D01*
X136297576Y-114964886D01*
X136307443Y-114961205D01*
X136315067Y-114953937D01*
X136339615Y-114949206D01*
X136363040Y-114940469D01*
X136373332Y-114942708D01*
X136383674Y-114940715D01*
X136406882Y-114950006D01*
X136431313Y-114955321D01*
X136444137Y-114964921D01*
X136448538Y-114966683D01*
X136459567Y-114976472D01*
X136462181Y-114979086D01*
X136495666Y-115040409D01*
X136498500Y-115066767D01*
X136498500Y-115154253D01*
X136526066Y-115257131D01*
X136579320Y-115349369D01*
X136654631Y-115424680D01*
X136746869Y-115477934D01*
X136849747Y-115505500D01*
X136849749Y-115505500D01*
X136956251Y-115505500D01*
X136956253Y-115505500D01*
X137059131Y-115477934D01*
X137151369Y-115424680D01*
X137226680Y-115349369D01*
X137279934Y-115257131D01*
X137307500Y-115154253D01*
X137307500Y-115047747D01*
X137279934Y-114944869D01*
X137226680Y-114852631D01*
X137151369Y-114777320D01*
X137059131Y-114724066D01*
X136956253Y-114696500D01*
X136868767Y-114696500D01*
X136801728Y-114676815D01*
X136781086Y-114660181D01*
X136327271Y-114206366D01*
X136309831Y-114188925D01*
X136246397Y-114125491D01*
X136246396Y-114125490D01*
X136222118Y-114115433D01*
X136222118Y-114115432D01*
X136163519Y-114091161D01*
X136163517Y-114091160D01*
X136163516Y-114091160D01*
X136073806Y-114091160D01*
X136059372Y-114091160D01*
X136059364Y-114091161D01*
X135927106Y-114091161D01*
X135860067Y-114071476D01*
X135839425Y-114054842D01*
X135611674Y-113827091D01*
X149072300Y-113827091D01*
X149072300Y-113945709D01*
X149103001Y-114060286D01*
X149162311Y-114163013D01*
X149246187Y-114246889D01*
X149348914Y-114306199D01*
X149463491Y-114336900D01*
X149463494Y-114336900D01*
X149582106Y-114336900D01*
X149582109Y-114336900D01*
X149696686Y-114306199D01*
X149799413Y-114246889D01*
X149883289Y-114163013D01*
X149942599Y-114060286D01*
X149973300Y-113945709D01*
X149973300Y-113827091D01*
X149942599Y-113712514D01*
X149883289Y-113609787D01*
X149799413Y-113525911D01*
X149696686Y-113466601D01*
X149582109Y-113435900D01*
X149463491Y-113435900D01*
X149348914Y-113466601D01*
X149348912Y-113466601D01*
X149348912Y-113466602D01*
X149246187Y-113525911D01*
X149246184Y-113525913D01*
X149162313Y-113609784D01*
X149162311Y-113609787D01*
X149103001Y-113712514D01*
X149072300Y-113827091D01*
X135611674Y-113827091D01*
X135408419Y-113623836D01*
X135374934Y-113562513D01*
X135372100Y-113536155D01*
X135372100Y-113172747D01*
X151023300Y-113172747D01*
X151023300Y-113279253D01*
X151050866Y-113382131D01*
X151104120Y-113474369D01*
X151179431Y-113549680D01*
X151271669Y-113602934D01*
X151374547Y-113630500D01*
X151374549Y-113630500D01*
X151481051Y-113630500D01*
X151481053Y-113630500D01*
X151583931Y-113602934D01*
X151676169Y-113549680D01*
X151751480Y-113474369D01*
X151804734Y-113382131D01*
X151832300Y-113279253D01*
X151832300Y-113172747D01*
X151804734Y-113069869D01*
X151751480Y-112977631D01*
X151676169Y-112902320D01*
X151583931Y-112849066D01*
X151481053Y-112821500D01*
X151374547Y-112821500D01*
X151271668Y-112849066D01*
X151179431Y-112902320D01*
X151179428Y-112902322D01*
X151104122Y-112977628D01*
X151104120Y-112977631D01*
X151050866Y-113069868D01*
X151050866Y-113069869D01*
X151023300Y-113172747D01*
X135372100Y-113172747D01*
X135372100Y-108239091D01*
X140537900Y-108239091D01*
X140537900Y-108357709D01*
X140568601Y-108472286D01*
X140627911Y-108575013D01*
X140711787Y-108658889D01*
X140814514Y-108718199D01*
X140929091Y-108748900D01*
X140929094Y-108748900D01*
X141047706Y-108748900D01*
X141047709Y-108748900D01*
X141162286Y-108718199D01*
X141265013Y-108658889D01*
X141348889Y-108575013D01*
X141408199Y-108472286D01*
X141438900Y-108357709D01*
X141438900Y-108239091D01*
X141408199Y-108124514D01*
X141348889Y-108021787D01*
X141265013Y-107937911D01*
X141162286Y-107878601D01*
X141047709Y-107847900D01*
X140929091Y-107847900D01*
X140814514Y-107878601D01*
X140814512Y-107878601D01*
X140814512Y-107878602D01*
X140711787Y-107937911D01*
X140711784Y-107937913D01*
X140627913Y-108021784D01*
X140627911Y-108021787D01*
X140575860Y-108111942D01*
X140568601Y-108124514D01*
X140537900Y-108239091D01*
X135372100Y-108239091D01*
X135372100Y-106056147D01*
X146607700Y-106056147D01*
X146607700Y-106162653D01*
X146635266Y-106265531D01*
X146688520Y-106357769D01*
X146763831Y-106433080D01*
X146856069Y-106486334D01*
X146958947Y-106513900D01*
X146958949Y-106513900D01*
X147065451Y-106513900D01*
X147065453Y-106513900D01*
X147168331Y-106486334D01*
X147260569Y-106433080D01*
X147335880Y-106357769D01*
X147389134Y-106265531D01*
X147416700Y-106162653D01*
X147416700Y-106056147D01*
X147389134Y-105953269D01*
X147335880Y-105861031D01*
X147260569Y-105785720D01*
X147168331Y-105732466D01*
X147065453Y-105704900D01*
X146958947Y-105704900D01*
X146856068Y-105732466D01*
X146763831Y-105785720D01*
X146763828Y-105785722D01*
X146688522Y-105861028D01*
X146688520Y-105861031D01*
X146635266Y-105953268D01*
X146635266Y-105953269D01*
X146607700Y-106056147D01*
X135372100Y-106056147D01*
X135372100Y-105177508D01*
X135391785Y-105110469D01*
X135408414Y-105089832D01*
X139598298Y-100899947D01*
X149427100Y-100899947D01*
X149427100Y-101006453D01*
X149454666Y-101109331D01*
X149507920Y-101201569D01*
X149583231Y-101276880D01*
X149675469Y-101330134D01*
X149778347Y-101357700D01*
X149778349Y-101357700D01*
X149865833Y-101357700D01*
X149895273Y-101366344D01*
X149925260Y-101372868D01*
X149930275Y-101376622D01*
X149932872Y-101377385D01*
X149953514Y-101394019D01*
X150103181Y-101543686D01*
X150136666Y-101605009D01*
X150139500Y-101631367D01*
X150139500Y-104924088D01*
X150119815Y-104991127D01*
X150103182Y-105011769D01*
X150041320Y-105073631D01*
X149988066Y-105165868D01*
X149988066Y-105165869D01*
X149960500Y-105268747D01*
X149960500Y-105375253D01*
X149988066Y-105478131D01*
X150041320Y-105570369D01*
X150116631Y-105645680D01*
X150208869Y-105698934D01*
X150311747Y-105726500D01*
X150311749Y-105726500D01*
X150418251Y-105726500D01*
X150418253Y-105726500D01*
X150521131Y-105698934D01*
X150613369Y-105645680D01*
X150688680Y-105570369D01*
X150741934Y-105478131D01*
X150769500Y-105375253D01*
X150769500Y-105268747D01*
X150741934Y-105165869D01*
X150688680Y-105073631D01*
X150626818Y-105011769D01*
X150593334Y-104950445D01*
X150590500Y-104924088D01*
X150590500Y-101557372D01*
X150590500Y-101531457D01*
X150590501Y-101531455D01*
X150590501Y-101441746D01*
X150556170Y-101358865D01*
X150556170Y-101358864D01*
X150492736Y-101295430D01*
X150485671Y-101288365D01*
X150485664Y-101288359D01*
X150272419Y-101075114D01*
X150238934Y-101013791D01*
X150236100Y-100987433D01*
X150236100Y-100899949D01*
X150236100Y-100899947D01*
X150208534Y-100797069D01*
X150155280Y-100704831D01*
X150079969Y-100629520D01*
X149987731Y-100576266D01*
X149884853Y-100548700D01*
X149778347Y-100548700D01*
X149675468Y-100576266D01*
X149583231Y-100629520D01*
X149583228Y-100629522D01*
X149507922Y-100704828D01*
X149507920Y-100704831D01*
X149454666Y-100797068D01*
X149433996Y-100874212D01*
X149427100Y-100899947D01*
X139598298Y-100899947D01*
X141510094Y-98988151D01*
X141510097Y-98988150D01*
X141527535Y-98970712D01*
X141527536Y-98970712D01*
X141590970Y-98907278D01*
X141590970Y-98907276D01*
X141590972Y-98907275D01*
X141608135Y-98865837D01*
X141625300Y-98824397D01*
X141625300Y-90628467D01*
X141625300Y-90621387D01*
X141624300Y-90611228D01*
X141624300Y-90598497D01*
X141624301Y-90598488D01*
X141624301Y-90494347D01*
X141624301Y-90494346D01*
X141600491Y-90436864D01*
X141589970Y-90411464D01*
X141526536Y-90348030D01*
X141519471Y-90340965D01*
X141519464Y-90340959D01*
X140863760Y-89685255D01*
X140848512Y-89668878D01*
X140844464Y-89665959D01*
X140802570Y-89624065D01*
X140802570Y-89624064D01*
X140739136Y-89560630D01*
X140739135Y-89560629D01*
X140714859Y-89550573D01*
X140684270Y-89537902D01*
X140644453Y-89507352D01*
X140642628Y-89509179D01*
X140616384Y-89482935D01*
X140561569Y-89428120D01*
X140469331Y-89374866D01*
X140366453Y-89347300D01*
X140259947Y-89347300D01*
X140157068Y-89374866D01*
X140064831Y-89428120D01*
X140064828Y-89428122D01*
X139989522Y-89503428D01*
X139989520Y-89503431D01*
X139936266Y-89595668D01*
X139928657Y-89624065D01*
X139908700Y-89698547D01*
X139908700Y-89805053D01*
X139911259Y-89814602D01*
X139920531Y-89849207D01*
X139918868Y-89919057D01*
X139879705Y-89976919D01*
X139815476Y-90004423D01*
X139800756Y-90005300D01*
X139472577Y-90005300D01*
X139459205Y-90001373D01*
X139445297Y-90002262D01*
X139426342Y-89991724D01*
X139405538Y-89985615D01*
X139395167Y-89974391D01*
X139384231Y-89968311D01*
X139363296Y-89939897D01*
X139361526Y-89936596D01*
X139351035Y-89910100D01*
X139324634Y-89811569D01*
X139324290Y-89810974D01*
X139308659Y-89783900D01*
X139271380Y-89719331D01*
X139196069Y-89644020D01*
X139103831Y-89590766D01*
X139000953Y-89563200D01*
X138894447Y-89563200D01*
X138791568Y-89590766D01*
X138699331Y-89644020D01*
X138699328Y-89644022D01*
X138624022Y-89719328D01*
X138624016Y-89719337D01*
X138580806Y-89794177D01*
X138530239Y-89842392D01*
X138461632Y-89855614D01*
X138425969Y-89846737D01*
X138405787Y-89838378D01*
X138357555Y-89818399D01*
X138267845Y-89818399D01*
X138267843Y-89818400D01*
X137881475Y-89818400D01*
X137839208Y-89810974D01*
X137665596Y-89748026D01*
X137628355Y-89724332D01*
X137627715Y-89725167D01*
X137621271Y-89720222D01*
X137621269Y-89720220D01*
X137529031Y-89666966D01*
X137426153Y-89639400D01*
X137319647Y-89639400D01*
X137216768Y-89666966D01*
X137124531Y-89720220D01*
X137124528Y-89720222D01*
X137049222Y-89795528D01*
X137049220Y-89795531D01*
X136995966Y-89887768D01*
X136988357Y-89916165D01*
X136968400Y-89990647D01*
X136968400Y-90097153D01*
X136995966Y-90200031D01*
X137049220Y-90292269D01*
X137124531Y-90367580D01*
X137216769Y-90420834D01*
X137319647Y-90448400D01*
X137319649Y-90448400D01*
X137426151Y-90448400D01*
X137426153Y-90448400D01*
X137529031Y-90420834D01*
X137621269Y-90367580D01*
X137621273Y-90367575D01*
X137627715Y-90362633D01*
X137628355Y-90363467D01*
X137629755Y-90362577D01*
X137634467Y-90356402D01*
X137665598Y-90339772D01*
X137839208Y-90276826D01*
X137881474Y-90269400D01*
X138167933Y-90269400D01*
X138234972Y-90289085D01*
X138255614Y-90305719D01*
X138635159Y-90685264D01*
X138635162Y-90685268D01*
X138642230Y-90692336D01*
X138705664Y-90755770D01*
X138717063Y-90760491D01*
X138727227Y-90764702D01*
X138757885Y-90777401D01*
X138788545Y-90790101D01*
X138788546Y-90790101D01*
X138892689Y-90790101D01*
X138892697Y-90790100D01*
X140288833Y-90790100D01*
X140318273Y-90798744D01*
X140348260Y-90805268D01*
X140353275Y-90809022D01*
X140355872Y-90809785D01*
X140376514Y-90826419D01*
X140535981Y-90985886D01*
X140569466Y-91047209D01*
X140572300Y-91073567D01*
X140572300Y-97077343D01*
X140552615Y-97144382D01*
X140499811Y-97190137D01*
X140430653Y-97200081D01*
X140367097Y-97171056D01*
X140340913Y-97139344D01*
X140318963Y-97101326D01*
X140286089Y-97044387D01*
X140202213Y-96960511D01*
X140099486Y-96901201D01*
X139984909Y-96870500D01*
X139866291Y-96870500D01*
X139866289Y-96870500D01*
X139866283Y-96870501D01*
X139817960Y-96883448D01*
X139813777Y-96884570D01*
X139795084Y-96888207D01*
X139785366Y-96892182D01*
X139777775Y-96894217D01*
X139777773Y-96894216D01*
X139751713Y-96901201D01*
X139730696Y-96913335D01*
X139715664Y-96920708D01*
X139458465Y-97025965D01*
X139388965Y-97033138D01*
X139326619Y-97001598D01*
X139291223Y-96941358D01*
X139287500Y-96911203D01*
X139287500Y-93923346D01*
X139287498Y-93923341D01*
X139253172Y-93840466D01*
X139182671Y-93769965D01*
X139182664Y-93769959D01*
X137980446Y-92567741D01*
X137957770Y-92545065D01*
X137957770Y-92545064D01*
X137894336Y-92481630D01*
X137860556Y-92467638D01*
X137844791Y-92461107D01*
X137844789Y-92461106D01*
X137811457Y-92447299D01*
X137811455Y-92447299D01*
X137721745Y-92447299D01*
X137707311Y-92447299D01*
X137707303Y-92447300D01*
X135372900Y-92447300D01*
X135364214Y-92444749D01*
X135355253Y-92446038D01*
X135331212Y-92435059D01*
X135305861Y-92427615D01*
X135299933Y-92420774D01*
X135291697Y-92417013D01*
X135277407Y-92394778D01*
X135260106Y-92374811D01*
X135257818Y-92364296D01*
X135253923Y-92358235D01*
X135248900Y-92323300D01*
X135248900Y-92120747D01*
X135268585Y-92053708D01*
X135321389Y-92007953D01*
X135340800Y-92000974D01*
X135408131Y-91982934D01*
X135500369Y-91929680D01*
X135575680Y-91854369D01*
X135628934Y-91762131D01*
X135656500Y-91659253D01*
X135656500Y-91552747D01*
X135628934Y-91449869D01*
X135611511Y-91419691D01*
X136071500Y-91419691D01*
X136071500Y-91538309D01*
X136102201Y-91652886D01*
X136161511Y-91755613D01*
X136245387Y-91839489D01*
X136348114Y-91898799D01*
X136462691Y-91929500D01*
X136462694Y-91929500D01*
X136581306Y-91929500D01*
X136581309Y-91929500D01*
X136695886Y-91898799D01*
X136798613Y-91839489D01*
X136882489Y-91755613D01*
X136941799Y-91652886D01*
X136972500Y-91538309D01*
X136972500Y-91419691D01*
X136941799Y-91305114D01*
X136882489Y-91202387D01*
X136798613Y-91118511D01*
X136695886Y-91059201D01*
X136581309Y-91028500D01*
X136462691Y-91028500D01*
X136348114Y-91059201D01*
X136348112Y-91059201D01*
X136348112Y-91059202D01*
X136245387Y-91118511D01*
X136245384Y-91118513D01*
X136161513Y-91202384D01*
X136161511Y-91202387D01*
X136102201Y-91305114D01*
X136071500Y-91419691D01*
X135611511Y-91419691D01*
X135575680Y-91357631D01*
X135500369Y-91282320D01*
X135408131Y-91229066D01*
X135305253Y-91201500D01*
X135198747Y-91201500D01*
X135095868Y-91229066D01*
X135003631Y-91282320D01*
X135003628Y-91282322D01*
X134928322Y-91357628D01*
X134928320Y-91357631D01*
X134875066Y-91449868D01*
X134847500Y-91552747D01*
X134847500Y-91645333D01*
X134845873Y-91653508D01*
X134846790Y-91658586D01*
X134838062Y-91692784D01*
X134832231Y-91706862D01*
X134832230Y-91706865D01*
X134797899Y-91789744D01*
X134797899Y-91893888D01*
X134797900Y-91893897D01*
X134797900Y-91909510D01*
X134796866Y-91925491D01*
X134796695Y-91926803D01*
X134796446Y-91929200D01*
X134796446Y-91929204D01*
X134796607Y-91930310D01*
X134797900Y-91948169D01*
X134797900Y-92323300D01*
X134778215Y-92390339D01*
X134725411Y-92436094D01*
X134673900Y-92447300D01*
X132325057Y-92447300D01*
X132325055Y-92447299D01*
X132235345Y-92447299D01*
X132186244Y-92467638D01*
X132172120Y-92473488D01*
X132172115Y-92473489D01*
X132152465Y-92481628D01*
X130849227Y-93784866D01*
X130848792Y-93785918D01*
X130848790Y-93785923D01*
X130843504Y-93798688D01*
X130814899Y-93867745D01*
X130814899Y-93957455D01*
X130814900Y-93957457D01*
X130814900Y-93982505D01*
X130814900Y-94795724D01*
X130795215Y-94862763D01*
X130749504Y-94905001D01*
X129511040Y-95569177D01*
X129452436Y-95583900D01*
X129129378Y-95583900D01*
X129085482Y-95592631D01*
X129085475Y-95592634D01*
X129035696Y-95625895D01*
X129035695Y-95625896D01*
X129002434Y-95675675D01*
X129002431Y-95675682D01*
X128993700Y-95719577D01*
X128993700Y-95719580D01*
X128993700Y-97449220D01*
X128993700Y-97449222D01*
X128993699Y-97449222D01*
X129002431Y-97493117D01*
X129002434Y-97493124D01*
X129035695Y-97542903D01*
X129035696Y-97542904D01*
X129085478Y-97576167D01*
X129094699Y-97578001D01*
X129156611Y-97610384D01*
X129191187Y-97671098D01*
X129187450Y-97740868D01*
X129158193Y-97787300D01*
X128717914Y-98227581D01*
X128656591Y-98261066D01*
X128630233Y-98263900D01*
X124711575Y-98263900D01*
X124706630Y-98263031D01*
X124703863Y-98263660D01*
X124669308Y-98256474D01*
X124495696Y-98193526D01*
X124458455Y-98169832D01*
X124457815Y-98170667D01*
X124451371Y-98165722D01*
X124451369Y-98165720D01*
X124359131Y-98112466D01*
X124256253Y-98084900D01*
X124149747Y-98084900D01*
X124046868Y-98112466D01*
X123954631Y-98165720D01*
X123954628Y-98165722D01*
X123879322Y-98241028D01*
X123879320Y-98241031D01*
X123870486Y-98256332D01*
X123819917Y-98304546D01*
X123751310Y-98317767D01*
X123686446Y-98291798D01*
X123645919Y-98234883D01*
X123639100Y-98194329D01*
X123639100Y-94938058D01*
X123639100Y-94938056D01*
X123615214Y-94848912D01*
X123615088Y-94848693D01*
X123569073Y-94768994D01*
X123569070Y-94768991D01*
X123569069Y-94768988D01*
X123503812Y-94703731D01*
X122930350Y-94130269D01*
X122354619Y-93554537D01*
X122321134Y-93493214D01*
X122318300Y-93466856D01*
X122318300Y-92644947D01*
X122604700Y-92644947D01*
X122604700Y-92751453D01*
X122632266Y-92854331D01*
X122685520Y-92946569D01*
X122760831Y-93021880D01*
X122853069Y-93075134D01*
X122950282Y-93101182D01*
X122976937Y-93111757D01*
X123159090Y-93209763D01*
X123188018Y-93231279D01*
X124854236Y-94897497D01*
X124924703Y-94967964D01*
X125016772Y-95006100D01*
X125325206Y-95006100D01*
X125325717Y-95006175D01*
X125325972Y-95006102D01*
X125360875Y-95011341D01*
X125427994Y-95031500D01*
X125558984Y-95070842D01*
X125585309Y-95082211D01*
X125672469Y-95132534D01*
X125775347Y-95160100D01*
X125775349Y-95160100D01*
X125881851Y-95160100D01*
X125881853Y-95160100D01*
X125984731Y-95132534D01*
X126071887Y-95082213D01*
X126098213Y-95070843D01*
X126296325Y-95011340D01*
X126331992Y-95006100D01*
X128164738Y-95006100D01*
X128207107Y-95013563D01*
X128380497Y-95076602D01*
X128418005Y-95100488D01*
X128418585Y-95099733D01*
X128425026Y-95104675D01*
X128425031Y-95104680D01*
X128517269Y-95157934D01*
X128620147Y-95185500D01*
X128620149Y-95185500D01*
X128726651Y-95185500D01*
X128726653Y-95185500D01*
X128829531Y-95157934D01*
X128921769Y-95104680D01*
X128997080Y-95029369D01*
X129050334Y-94937131D01*
X129077900Y-94834253D01*
X129077900Y-94727747D01*
X129050334Y-94624869D01*
X128997080Y-94532631D01*
X128921769Y-94457320D01*
X128829531Y-94404066D01*
X128726653Y-94376500D01*
X128620147Y-94376500D01*
X128517269Y-94404066D01*
X128517268Y-94404066D01*
X128465213Y-94434120D01*
X128464811Y-94434279D01*
X128464659Y-94434438D01*
X128431825Y-94447386D01*
X128202559Y-94501754D01*
X128173950Y-94505100D01*
X126331992Y-94505100D01*
X126296322Y-94499859D01*
X126098213Y-94440355D01*
X126071883Y-94428983D01*
X125984733Y-94378667D01*
X125984732Y-94378666D01*
X125984731Y-94378666D01*
X125881853Y-94351100D01*
X125775347Y-94351100D01*
X125672469Y-94378666D01*
X125672468Y-94378666D01*
X125672466Y-94378667D01*
X125672465Y-94378667D01*
X125585322Y-94428980D01*
X125558992Y-94440352D01*
X125360873Y-94499859D01*
X125325203Y-94505100D01*
X125221723Y-94505100D01*
X125154684Y-94485415D01*
X125134042Y-94468781D01*
X123542280Y-92877019D01*
X123520763Y-92848091D01*
X123468767Y-92751452D01*
X123422755Y-92665934D01*
X123412182Y-92639282D01*
X123386134Y-92542069D01*
X123332880Y-92449831D01*
X123257569Y-92374520D01*
X123165331Y-92321266D01*
X123062453Y-92293700D01*
X122955947Y-92293700D01*
X122853068Y-92321266D01*
X122760831Y-92374520D01*
X122760828Y-92374522D01*
X122685522Y-92449828D01*
X122685520Y-92449831D01*
X122632266Y-92542068D01*
X122632266Y-92542069D01*
X122604700Y-92644947D01*
X122318300Y-92644947D01*
X122318300Y-90175091D01*
X133201300Y-90175091D01*
X133201300Y-90293709D01*
X133232001Y-90408286D01*
X133291311Y-90511013D01*
X133375187Y-90594889D01*
X133477914Y-90654199D01*
X133592491Y-90684900D01*
X133592494Y-90684900D01*
X133711106Y-90684900D01*
X133711109Y-90684900D01*
X133825686Y-90654199D01*
X133928413Y-90594889D01*
X134012289Y-90511013D01*
X134071599Y-90408286D01*
X134102300Y-90293709D01*
X134102300Y-90175091D01*
X134071599Y-90060514D01*
X134012289Y-89957787D01*
X133928413Y-89873911D01*
X133825686Y-89814601D01*
X133711109Y-89783900D01*
X133592491Y-89783900D01*
X133477914Y-89814601D01*
X133477912Y-89814601D01*
X133477912Y-89814602D01*
X133375187Y-89873911D01*
X133375184Y-89873913D01*
X133291313Y-89957784D01*
X133291311Y-89957787D01*
X133266842Y-90000169D01*
X133232001Y-90060514D01*
X133201300Y-90175091D01*
X122318300Y-90175091D01*
X122318300Y-88803491D01*
X131626500Y-88803491D01*
X131626500Y-88922109D01*
X131657201Y-89036686D01*
X131716511Y-89139413D01*
X131800387Y-89223289D01*
X131903114Y-89282599D01*
X132017691Y-89313300D01*
X132017694Y-89313300D01*
X132136306Y-89313300D01*
X132136309Y-89313300D01*
X132177793Y-89302184D01*
X132201294Y-89298596D01*
X132229920Y-89288216D01*
X132250886Y-89282599D01*
X132250892Y-89282595D01*
X132251383Y-89282392D01*
X132270388Y-89273543D01*
X132691866Y-89120726D01*
X132734133Y-89113300D01*
X133219026Y-89113300D01*
X133219028Y-89113300D01*
X133311097Y-89075164D01*
X133465563Y-88920697D01*
X133526884Y-88887214D01*
X133596575Y-88892198D01*
X133652509Y-88934069D01*
X133673017Y-88976286D01*
X133689201Y-89036687D01*
X133711416Y-89075164D01*
X133748511Y-89139413D01*
X133832387Y-89223289D01*
X133935114Y-89282599D01*
X134049691Y-89313300D01*
X134049694Y-89313300D01*
X134168306Y-89313300D01*
X134168309Y-89313300D01*
X134282886Y-89282599D01*
X134385613Y-89223289D01*
X134469489Y-89139413D01*
X134528799Y-89036686D01*
X134559500Y-88922109D01*
X134559500Y-88803491D01*
X134558329Y-88799122D01*
X134555157Y-88787281D01*
X134554406Y-88784336D01*
X134551791Y-88773525D01*
X134550600Y-88753116D01*
X134497897Y-88550669D01*
X134497650Y-88549647D01*
X134499288Y-88515758D01*
X134500336Y-88481903D01*
X134500970Y-88480979D01*
X134501025Y-88479859D01*
X134520697Y-88452274D01*
X134539909Y-88424321D01*
X134540944Y-88423886D01*
X134541595Y-88422974D01*
X134573058Y-88410404D01*
X134604332Y-88397275D01*
X134606181Y-88397171D01*
X134606478Y-88397053D01*
X134606886Y-88397132D01*
X134618176Y-88396500D01*
X144934103Y-88396500D01*
X145001142Y-88416185D01*
X145021784Y-88432819D01*
X146035581Y-89446616D01*
X146069066Y-89507939D01*
X146071900Y-89534297D01*
X146071900Y-94781842D01*
X146062461Y-94829294D01*
X146050501Y-94858168D01*
X146050500Y-94858173D01*
X146050500Y-94957829D01*
X146088636Y-95049897D01*
X146420012Y-95381273D01*
X146436603Y-95402953D01*
X146436697Y-95402887D01*
X146438641Y-95405615D01*
X146439880Y-95407234D01*
X146440229Y-95407843D01*
X146440231Y-95407847D01*
X146731156Y-95816098D01*
X146731160Y-95816102D01*
X146734968Y-95820504D01*
X146734671Y-95820760D01*
X146752214Y-95843113D01*
X146753311Y-95845013D01*
X146837187Y-95928889D01*
X146939914Y-95988199D01*
X147054491Y-96018900D01*
X147054494Y-96018900D01*
X147173106Y-96018900D01*
X147173109Y-96018900D01*
X147287686Y-95988199D01*
X147390413Y-95928889D01*
X147474289Y-95845013D01*
X147533599Y-95742286D01*
X147564300Y-95627709D01*
X147564300Y-95610691D01*
X149025500Y-95610691D01*
X149025500Y-95729309D01*
X149056201Y-95843886D01*
X149115511Y-95946613D01*
X149199387Y-96030489D01*
X149302114Y-96089799D01*
X149416691Y-96120500D01*
X149416694Y-96120500D01*
X149535306Y-96120500D01*
X149535309Y-96120500D01*
X149649886Y-96089799D01*
X149752613Y-96030489D01*
X149836489Y-95946613D01*
X149895799Y-95843886D01*
X149926500Y-95729309D01*
X149926500Y-95610691D01*
X149895799Y-95496114D01*
X149836489Y-95393387D01*
X149752613Y-95309511D01*
X149649886Y-95250201D01*
X149535309Y-95219500D01*
X149416691Y-95219500D01*
X149302114Y-95250201D01*
X149302112Y-95250201D01*
X149302112Y-95250202D01*
X149199387Y-95309511D01*
X149199384Y-95309513D01*
X149115513Y-95393384D01*
X149115511Y-95393387D01*
X149056201Y-95496114D01*
X149025500Y-95610691D01*
X147564300Y-95610691D01*
X147564300Y-95509091D01*
X147533599Y-95394514D01*
X147533597Y-95394510D01*
X147511473Y-95356190D01*
X147495000Y-95288290D01*
X147517852Y-95222263D01*
X147572773Y-95179073D01*
X147642327Y-95172431D01*
X147689452Y-95192245D01*
X147814049Y-95278527D01*
X147815216Y-95279328D01*
X147815350Y-95279419D01*
X147830084Y-95285610D01*
X147844033Y-95292533D01*
X147905114Y-95327799D01*
X148019691Y-95358500D01*
X148019694Y-95358500D01*
X148138306Y-95358500D01*
X148138309Y-95358500D01*
X148252886Y-95327799D01*
X148355613Y-95268489D01*
X148439489Y-95184613D01*
X148498799Y-95081886D01*
X148529500Y-94967309D01*
X148529500Y-94848691D01*
X148498799Y-94734114D01*
X148439489Y-94631387D01*
X148355613Y-94547511D01*
X148252886Y-94488201D01*
X148138309Y-94457500D01*
X148019691Y-94457500D01*
X148019688Y-94457500D01*
X148011635Y-94458560D01*
X148011607Y-94458351D01*
X147994733Y-94460862D01*
X147989205Y-94461048D01*
X147502865Y-94525500D01*
X147497897Y-94526577D01*
X147497786Y-94526067D01*
X147467983Y-94530500D01*
X147091123Y-94530500D01*
X147061685Y-94521855D01*
X147031695Y-94515332D01*
X147026679Y-94511577D01*
X147024084Y-94510815D01*
X147003441Y-94494180D01*
X146959218Y-94449956D01*
X146925733Y-94388633D01*
X146922900Y-94362276D01*
X146922900Y-89184372D01*
X146922899Y-89184369D01*
X146884764Y-89092302D01*
X146814297Y-89021835D01*
X146609272Y-88816810D01*
X146609271Y-88816809D01*
X145464004Y-87671544D01*
X145464003Y-87671542D01*
X145376097Y-87583636D01*
X145284029Y-87545500D01*
X145284028Y-87545500D01*
X134285828Y-87545500D01*
X134186172Y-87545500D01*
X134186170Y-87545500D01*
X134094102Y-87583636D01*
X134094101Y-87583637D01*
X133101758Y-88575981D01*
X133040435Y-88609466D01*
X133014077Y-88612300D01*
X132734134Y-88612300D01*
X132691867Y-88604874D01*
X132270390Y-88452056D01*
X132270389Y-88452055D01*
X132260118Y-88448331D01*
X132250886Y-88443001D01*
X132229935Y-88437386D01*
X132224908Y-88435564D01*
X132201308Y-88427008D01*
X132190377Y-88423495D01*
X132188732Y-88423032D01*
X132188733Y-88423032D01*
X132187908Y-88422999D01*
X132160855Y-88418876D01*
X132136314Y-88412300D01*
X132136309Y-88412300D01*
X132017691Y-88412300D01*
X131903114Y-88443001D01*
X131903112Y-88443001D01*
X131903112Y-88443002D01*
X131800387Y-88502311D01*
X131800384Y-88502313D01*
X131716513Y-88586184D01*
X131716511Y-88586187D01*
X131701435Y-88612300D01*
X131657201Y-88688914D01*
X131626500Y-88803491D01*
X122318300Y-88803491D01*
X122318300Y-86726747D01*
X129589700Y-86726747D01*
X129589700Y-86833253D01*
X129617266Y-86936131D01*
X129670520Y-87028369D01*
X129745831Y-87103680D01*
X129838069Y-87156934D01*
X129940947Y-87184500D01*
X129940949Y-87184500D01*
X130047451Y-87184500D01*
X130047453Y-87184500D01*
X130150331Y-87156934D01*
X130242569Y-87103680D01*
X130317880Y-87028369D01*
X130371134Y-86936131D01*
X130398700Y-86833253D01*
X130398700Y-86726747D01*
X130371134Y-86623869D01*
X130317880Y-86531631D01*
X130242569Y-86456320D01*
X130150331Y-86403066D01*
X130047453Y-86375500D01*
X129940947Y-86375500D01*
X129838068Y-86403066D01*
X129745831Y-86456320D01*
X129745828Y-86456322D01*
X129670522Y-86531628D01*
X129670520Y-86531631D01*
X129617266Y-86623868D01*
X129617266Y-86623869D01*
X129589700Y-86726747D01*
X122318300Y-86726747D01*
X122318300Y-85101147D01*
X125754300Y-85101147D01*
X125754300Y-85207653D01*
X125781866Y-85310531D01*
X125835120Y-85402769D01*
X125910431Y-85478080D01*
X126002669Y-85531334D01*
X126105547Y-85558900D01*
X126105549Y-85558900D01*
X126212051Y-85558900D01*
X126212053Y-85558900D01*
X126314931Y-85531334D01*
X126407169Y-85478080D01*
X126434558Y-85450691D01*
X140897500Y-85450691D01*
X140897500Y-85569309D01*
X140928201Y-85683886D01*
X140987511Y-85786613D01*
X141071387Y-85870489D01*
X141174114Y-85929799D01*
X141288691Y-85960500D01*
X141288694Y-85960500D01*
X141407306Y-85960500D01*
X141407309Y-85960500D01*
X141521886Y-85929799D01*
X141624613Y-85870489D01*
X141708489Y-85786613D01*
X141767799Y-85683886D01*
X141798500Y-85569309D01*
X141798500Y-85450691D01*
X141767799Y-85336114D01*
X141708489Y-85233387D01*
X141624613Y-85149511D01*
X141521886Y-85090201D01*
X141407309Y-85059500D01*
X141288691Y-85059500D01*
X141174114Y-85090201D01*
X141174112Y-85090201D01*
X141174112Y-85090202D01*
X141071387Y-85149511D01*
X141071384Y-85149513D01*
X140987513Y-85233384D01*
X140987511Y-85233387D01*
X140928201Y-85336114D01*
X140897500Y-85450691D01*
X126434558Y-85450691D01*
X126482480Y-85402769D01*
X126535734Y-85310531D01*
X126563300Y-85207653D01*
X126563300Y-85101147D01*
X126535734Y-84998269D01*
X126482480Y-84906031D01*
X126407169Y-84830720D01*
X126314931Y-84777466D01*
X126212053Y-84749900D01*
X126105547Y-84749900D01*
X126002668Y-84777466D01*
X125910431Y-84830720D01*
X125910428Y-84830722D01*
X125835122Y-84906028D01*
X125835120Y-84906031D01*
X125781866Y-84998268D01*
X125781866Y-84998269D01*
X125754300Y-85101147D01*
X122318300Y-85101147D01*
X122318300Y-83881947D01*
X131672500Y-83881947D01*
X131672500Y-83988453D01*
X131700066Y-84091331D01*
X131753320Y-84183569D01*
X131828631Y-84258880D01*
X131920869Y-84312134D01*
X132023747Y-84339700D01*
X132023749Y-84339700D01*
X132130251Y-84339700D01*
X132130253Y-84339700D01*
X132233131Y-84312134D01*
X132325369Y-84258880D01*
X132400680Y-84183569D01*
X132453934Y-84091331D01*
X132481500Y-83988453D01*
X132481500Y-83881947D01*
X132453934Y-83779069D01*
X132400680Y-83686831D01*
X132325369Y-83611520D01*
X132233131Y-83558266D01*
X132130253Y-83530700D01*
X132023747Y-83530700D01*
X131920868Y-83558266D01*
X131828631Y-83611520D01*
X131828628Y-83611522D01*
X131753322Y-83686828D01*
X131753320Y-83686831D01*
X131700066Y-83779068D01*
X131693873Y-83802181D01*
X131672500Y-83881947D01*
X122318300Y-83881947D01*
X122318300Y-83471344D01*
X122326943Y-83441907D01*
X122333467Y-83411918D01*
X122337222Y-83406900D01*
X122337985Y-83404305D01*
X122354615Y-83383666D01*
X122435585Y-83302695D01*
X122449720Y-83291691D01*
X140897500Y-83291691D01*
X140897500Y-83410309D01*
X140928201Y-83524886D01*
X140987511Y-83627613D01*
X141071387Y-83711489D01*
X141091998Y-83723389D01*
X141140883Y-83751614D01*
X141189098Y-83802181D01*
X141202320Y-83870788D01*
X141176352Y-83935653D01*
X141140883Y-83966386D01*
X141071393Y-84006507D01*
X141071384Y-84006513D01*
X140987513Y-84090384D01*
X140987511Y-84090387D01*
X140928201Y-84193114D01*
X140897500Y-84307691D01*
X140897500Y-84426309D01*
X140928201Y-84540886D01*
X140987511Y-84643613D01*
X141071387Y-84727489D01*
X141174114Y-84786799D01*
X141288691Y-84817500D01*
X141407309Y-84817500D01*
X141521886Y-84786799D01*
X141624613Y-84727489D01*
X141708489Y-84643613D01*
X141748614Y-84574114D01*
X141799180Y-84525901D01*
X141867788Y-84512679D01*
X141932652Y-84538647D01*
X141963385Y-84574114D01*
X142003511Y-84643613D01*
X142087387Y-84727489D01*
X142190114Y-84786799D01*
X142304691Y-84817500D01*
X142304694Y-84817500D01*
X142423306Y-84817500D01*
X142423309Y-84817500D01*
X142537886Y-84786799D01*
X142640613Y-84727489D01*
X142724489Y-84643613D01*
X142783799Y-84540886D01*
X142814500Y-84426309D01*
X142814500Y-84307691D01*
X142783799Y-84193114D01*
X142724489Y-84090387D01*
X142640613Y-84006511D01*
X142537886Y-83947201D01*
X142423309Y-83916500D01*
X142304691Y-83916500D01*
X142190114Y-83947201D01*
X142190112Y-83947201D01*
X142190112Y-83947202D01*
X142087387Y-84006511D01*
X142087384Y-84006513D01*
X142003513Y-84090384D01*
X142003507Y-84090393D01*
X141963386Y-84159883D01*
X141912819Y-84208098D01*
X141844212Y-84221320D01*
X141779347Y-84195352D01*
X141748614Y-84159883D01*
X141708492Y-84090393D01*
X141708489Y-84090387D01*
X141624613Y-84006511D01*
X141555114Y-83966385D01*
X141506901Y-83915820D01*
X141493679Y-83847212D01*
X141519647Y-83782348D01*
X141555114Y-83751614D01*
X141624613Y-83711489D01*
X141708489Y-83627613D01*
X141767799Y-83524886D01*
X141798500Y-83410309D01*
X141798500Y-83291691D01*
X141767799Y-83177114D01*
X141708489Y-83074387D01*
X141624613Y-82990511D01*
X141521886Y-82931201D01*
X141407309Y-82900500D01*
X141288691Y-82900500D01*
X141174114Y-82931201D01*
X141174112Y-82931201D01*
X141174112Y-82931202D01*
X141071387Y-82990511D01*
X141071384Y-82990513D01*
X140987513Y-83074384D01*
X140987511Y-83074387D01*
X140928201Y-83177114D01*
X140897500Y-83291691D01*
X122449720Y-83291691D01*
X122459759Y-83283876D01*
X122465291Y-83280578D01*
X122649421Y-83114471D01*
X122676065Y-83097645D01*
X122675692Y-83096998D01*
X122701868Y-83081885D01*
X122774969Y-83039680D01*
X122850280Y-82964369D01*
X122903534Y-82872131D01*
X122903534Y-82872128D01*
X122905223Y-82869204D01*
X122905401Y-82868125D01*
X122925072Y-82838821D01*
X123077768Y-82669557D01*
X123137289Y-82632964D01*
X123169839Y-82628616D01*
X127331856Y-82628616D01*
X130923717Y-82628616D01*
X130935286Y-82629157D01*
X130939029Y-82629507D01*
X130959860Y-82631460D01*
X130981046Y-82629271D01*
X130993785Y-82628616D01*
X131341826Y-82628616D01*
X131341828Y-82628616D01*
X131386206Y-82616724D01*
X131418299Y-82612500D01*
X131419051Y-82612500D01*
X131419053Y-82612500D01*
X131521931Y-82584934D01*
X131614169Y-82531680D01*
X131689480Y-82456369D01*
X131742734Y-82364131D01*
X131770300Y-82261253D01*
X131770300Y-82154747D01*
X131742734Y-82051869D01*
X131742731Y-82051864D01*
X131739622Y-82044355D01*
X131742261Y-82043261D01*
X131729052Y-81988791D01*
X131751909Y-81922766D01*
X131806833Y-81879579D01*
X131852911Y-81870700D01*
X132613031Y-81870700D01*
X132644032Y-81874637D01*
X132649602Y-81876076D01*
X132649600Y-81876076D01*
X132687284Y-81878202D01*
X132896722Y-81890022D01*
X132928923Y-81897378D01*
X132929017Y-81897030D01*
X132936868Y-81899133D01*
X132936869Y-81899134D01*
X133039747Y-81926700D01*
X133039749Y-81926700D01*
X133146251Y-81926700D01*
X133146253Y-81926700D01*
X133249131Y-81899134D01*
X133249131Y-81899133D01*
X133256983Y-81897030D01*
X133257176Y-81897751D01*
X133287915Y-81890809D01*
X133535570Y-81878065D01*
X133540956Y-81876775D01*
X133543756Y-81876106D01*
X133572619Y-81872700D01*
X147400656Y-81872700D01*
X147467695Y-81892385D01*
X147488337Y-81909019D01*
X149851181Y-84271863D01*
X149884666Y-84333186D01*
X149887500Y-84359544D01*
X149887500Y-90001145D01*
X149903407Y-90060512D01*
X149911385Y-90090285D01*
X149911387Y-90090290D01*
X149957527Y-90170208D01*
X149957531Y-90170213D01*
X151637906Y-91850587D01*
X151659819Y-91880259D01*
X151751618Y-92053708D01*
X151902083Y-92338004D01*
X151905880Y-92344764D01*
X151906468Y-92345753D01*
X151906469Y-92345754D01*
X151906471Y-92345757D01*
X151907888Y-92347255D01*
X151925180Y-92370452D01*
X151934511Y-92386613D01*
X152018387Y-92470489D01*
X152121114Y-92529799D01*
X152235691Y-92560500D01*
X152235694Y-92560500D01*
X152354306Y-92560500D01*
X152354309Y-92560500D01*
X152468886Y-92529799D01*
X152571613Y-92470489D01*
X152655489Y-92386613D01*
X152714799Y-92283886D01*
X152745500Y-92169309D01*
X152745500Y-92050691D01*
X152714799Y-91936114D01*
X152655489Y-91833387D01*
X152571613Y-91749511D01*
X152571611Y-91749509D01*
X152569793Y-91748114D01*
X152561811Y-91741438D01*
X152181324Y-91395072D01*
X152181321Y-91395070D01*
X152181319Y-91395068D01*
X152179907Y-91394194D01*
X152173741Y-91390381D01*
X152151282Y-91372601D01*
X150624819Y-89846137D01*
X150591334Y-89784814D01*
X150588500Y-89758456D01*
X150588500Y-87666599D01*
X154749900Y-87666599D01*
X154749900Y-87812600D01*
X154787688Y-87953628D01*
X154787689Y-87953631D01*
X154860686Y-88080067D01*
X154860688Y-88080070D01*
X154860689Y-88080071D01*
X154963929Y-88183311D01*
X155090371Y-88256312D01*
X155231399Y-88294100D01*
X155231401Y-88294100D01*
X155377399Y-88294100D01*
X155377401Y-88294100D01*
X155518429Y-88256312D01*
X155644871Y-88183311D01*
X155748111Y-88080071D01*
X155821112Y-87953629D01*
X155858900Y-87812601D01*
X155858900Y-87666599D01*
X155821112Y-87525571D01*
X155748111Y-87399129D01*
X155644871Y-87295889D01*
X155644870Y-87295888D01*
X155644867Y-87295886D01*
X155518431Y-87222889D01*
X155518430Y-87222888D01*
X155518429Y-87222888D01*
X155377401Y-87185100D01*
X155231399Y-87185100D01*
X155090371Y-87222888D01*
X155090368Y-87222889D01*
X154963932Y-87295886D01*
X154963927Y-87295890D01*
X154860690Y-87399127D01*
X154860686Y-87399132D01*
X154787689Y-87525568D01*
X154787688Y-87525571D01*
X154749900Y-87666599D01*
X150588500Y-87666599D01*
X150588500Y-86774147D01*
X150608185Y-86707108D01*
X150660989Y-86661353D01*
X150730147Y-86651409D01*
X150793703Y-86680434D01*
X150819886Y-86712146D01*
X150855491Y-86773815D01*
X150957985Y-86876309D01*
X151083515Y-86948784D01*
X151148717Y-86966254D01*
X151177375Y-86977931D01*
X151179536Y-86979146D01*
X151330267Y-87028369D01*
X151500046Y-87083812D01*
X151549234Y-87114005D01*
X151575289Y-87140060D01*
X151575291Y-87140061D01*
X151575295Y-87140064D01*
X151643804Y-87179617D01*
X151643811Y-87179621D01*
X151720238Y-87200100D01*
X152248892Y-87200100D01*
X152275396Y-87203731D01*
X152275456Y-87203394D01*
X152281453Y-87204449D01*
X152281456Y-87204450D01*
X152521590Y-87246691D01*
X152562106Y-87261428D01*
X152588269Y-87276534D01*
X152691147Y-87304100D01*
X152691149Y-87304100D01*
X152797651Y-87304100D01*
X152797653Y-87304100D01*
X152900531Y-87276534D01*
X152992769Y-87223280D01*
X153068080Y-87147969D01*
X153121334Y-87055731D01*
X153148900Y-86952853D01*
X153148900Y-86846347D01*
X153121334Y-86743469D01*
X153111680Y-86726747D01*
X153106231Y-86717309D01*
X153091492Y-86676790D01*
X153087027Y-86651409D01*
X153049251Y-86436656D01*
X153049250Y-86436655D01*
X153049250Y-86436651D01*
X153048773Y-86434786D01*
X153044900Y-86404039D01*
X153044900Y-83395112D01*
X153048531Y-83368604D01*
X153048195Y-83368545D01*
X153049250Y-83362545D01*
X153049251Y-83362544D01*
X153091492Y-83122406D01*
X153106231Y-83081888D01*
X153121334Y-83055731D01*
X153148900Y-82952853D01*
X153148900Y-82846347D01*
X153121334Y-82743469D01*
X153068080Y-82651231D01*
X152992769Y-82575920D01*
X152900531Y-82522666D01*
X152797653Y-82495100D01*
X152691147Y-82495100D01*
X152588268Y-82522666D01*
X152496031Y-82575920D01*
X152496028Y-82575922D01*
X152420722Y-82651228D01*
X152420720Y-82651231D01*
X152367466Y-82743468D01*
X152339900Y-82846347D01*
X152339900Y-82952852D01*
X152367466Y-83055732D01*
X152382568Y-83081888D01*
X152397306Y-83122406D01*
X152439548Y-83362545D01*
X152440026Y-83364409D01*
X152443900Y-83395161D01*
X152443900Y-86404086D01*
X152441838Y-86426607D01*
X152440374Y-86434528D01*
X152439549Y-86436655D01*
X152430871Y-86485982D01*
X152430767Y-86486550D01*
X152415210Y-86517309D01*
X152399951Y-86548129D01*
X152399480Y-86548410D01*
X152399234Y-86548899D01*
X152369589Y-86566322D01*
X152340018Y-86584043D01*
X152339100Y-86584242D01*
X152338998Y-86584303D01*
X152338849Y-86584297D01*
X152330314Y-86586154D01*
X152314308Y-86588969D01*
X152281454Y-86594749D01*
X152281452Y-86594749D01*
X152281444Y-86594751D01*
X152279570Y-86595231D01*
X152248836Y-86599100D01*
X152071554Y-86599100D01*
X152004515Y-86579415D01*
X151960612Y-86530488D01*
X151816581Y-86241997D01*
X151816580Y-86241995D01*
X151810986Y-86230791D01*
X151808984Y-86223315D01*
X151796197Y-86201167D01*
X151794525Y-86197817D01*
X151773627Y-86155960D01*
X151769041Y-86147450D01*
X151768307Y-86146184D01*
X151768024Y-86145882D01*
X151751125Y-86123101D01*
X151736509Y-86097785D01*
X151634015Y-85995291D01*
X151634012Y-85995289D01*
X151634011Y-85995288D01*
X151508488Y-85922817D01*
X151508489Y-85922817D01*
X151497006Y-85919740D01*
X151368475Y-85885300D01*
X151223525Y-85885300D01*
X151094993Y-85919740D01*
X151083511Y-85922817D01*
X150957988Y-85995288D01*
X150957982Y-85995293D01*
X150855493Y-86097782D01*
X150855491Y-86097785D01*
X150821896Y-86155974D01*
X150819887Y-86159453D01*
X150769319Y-86207668D01*
X150700712Y-86220890D01*
X150635848Y-86194922D01*
X150595320Y-86138008D01*
X150588500Y-86097452D01*
X150588500Y-84116858D01*
X150588500Y-84116856D01*
X150564614Y-84027712D01*
X150518470Y-83947788D01*
X148457281Y-81886599D01*
X154749900Y-81886599D01*
X154749900Y-82032601D01*
X154781737Y-82151417D01*
X154787688Y-82173628D01*
X154787689Y-82173631D01*
X154860686Y-82300067D01*
X154860688Y-82300070D01*
X154860689Y-82300071D01*
X154963929Y-82403311D01*
X155090371Y-82476312D01*
X155231399Y-82514100D01*
X155231401Y-82514100D01*
X155377399Y-82514100D01*
X155377401Y-82514100D01*
X155518429Y-82476312D01*
X155644871Y-82403311D01*
X155748111Y-82300071D01*
X155821112Y-82173629D01*
X155858900Y-82032601D01*
X155858900Y-81886599D01*
X155821112Y-81745571D01*
X155748111Y-81619129D01*
X155644871Y-81515889D01*
X155644870Y-81515888D01*
X155644867Y-81515886D01*
X155518431Y-81442889D01*
X155518430Y-81442888D01*
X155518429Y-81442888D01*
X155377401Y-81405100D01*
X155231399Y-81405100D01*
X155090371Y-81442888D01*
X155090368Y-81442889D01*
X154963932Y-81515886D01*
X154963927Y-81515890D01*
X154860690Y-81619127D01*
X154860686Y-81619132D01*
X154787689Y-81745568D01*
X154787688Y-81745571D01*
X154749900Y-81886599D01*
X148457281Y-81886599D01*
X147812412Y-81241730D01*
X147812411Y-81241729D01*
X147812408Y-81241727D01*
X147732490Y-81195587D01*
X147732489Y-81195586D01*
X147732488Y-81195586D01*
X147725024Y-81193586D01*
X147725020Y-81193584D01*
X147661639Y-81176602D01*
X147643344Y-81171700D01*
X147643343Y-81171700D01*
X133572222Y-81171700D01*
X133541808Y-81167912D01*
X133535571Y-81166334D01*
X133535569Y-81166333D01*
X133287911Y-81153588D01*
X133257174Y-81146650D01*
X133256982Y-81147370D01*
X133249132Y-81145266D01*
X133249131Y-81145266D01*
X133146253Y-81117700D01*
X133039747Y-81117700D01*
X132929020Y-81147369D01*
X132928726Y-81146274D01*
X132899419Y-81152812D01*
X132651260Y-81164348D01*
X132645674Y-81165663D01*
X132642539Y-81166401D01*
X132614129Y-81169700D01*
X128062805Y-81169700D01*
X127973661Y-81193586D01*
X127973658Y-81193587D01*
X127893741Y-81239727D01*
X127893737Y-81239729D01*
X127873459Y-81260007D01*
X127817880Y-81292095D01*
X127798908Y-81297179D01*
X127798904Y-81297180D01*
X127706667Y-81350434D01*
X127706661Y-81350438D01*
X127631355Y-81425744D01*
X127631353Y-81425747D01*
X127578099Y-81517984D01*
X127578099Y-81517985D01*
X127550533Y-81620863D01*
X127550533Y-81727369D01*
X127555410Y-81745571D01*
X127562364Y-81771523D01*
X127560701Y-81841373D01*
X127521538Y-81899235D01*
X127457309Y-81926739D01*
X127442589Y-81927616D01*
X122918340Y-81927616D01*
X122829195Y-81951502D01*
X122749271Y-81997647D01*
X122749267Y-81997650D01*
X122617619Y-82129296D01*
X122593448Y-82148116D01*
X122587911Y-82151417D01*
X122587908Y-82151419D01*
X122403771Y-82317531D01*
X122377133Y-82334357D01*
X122377506Y-82335003D01*
X122278234Y-82392317D01*
X122278228Y-82392322D01*
X122202922Y-82467628D01*
X122202917Y-82467634D01*
X122145603Y-82566906D01*
X122144957Y-82566533D01*
X122128131Y-82593170D01*
X121962024Y-82777303D01*
X121962020Y-82777308D01*
X121957609Y-82784495D01*
X121939615Y-82807302D01*
X121687328Y-83059589D01*
X121652165Y-83120497D01*
X121652163Y-83120499D01*
X121641187Y-83139509D01*
X121617300Y-83228656D01*
X121617300Y-93709544D01*
X121627237Y-93746631D01*
X121627238Y-93746631D01*
X121627238Y-93746632D01*
X121641186Y-93798688D01*
X121641188Y-93798691D01*
X121687327Y-93878608D01*
X121687329Y-93878611D01*
X121687330Y-93878612D01*
X122310880Y-94502162D01*
X122901781Y-95093062D01*
X122935266Y-95154385D01*
X122938100Y-95180743D01*
X122938100Y-101889953D01*
X122918415Y-101956992D01*
X122894070Y-101984720D01*
X122691486Y-102155671D01*
X122691484Y-102155674D01*
X121889106Y-102832760D01*
X121847456Y-102855923D01*
X121692003Y-102906433D01*
X121481566Y-103013657D01*
X121372550Y-103092862D01*
X121290490Y-103152483D01*
X121290488Y-103152485D01*
X121290487Y-103152485D01*
X121123485Y-103319487D01*
X121123485Y-103319488D01*
X121123483Y-103319490D01*
X121093455Y-103360820D01*
X120984657Y-103510566D01*
X120877433Y-103721003D01*
X120804446Y-103945631D01*
X120767500Y-104178902D01*
X118459680Y-104178902D01*
X118459730Y-97500022D01*
X120611699Y-97500022D01*
X120620431Y-97543917D01*
X120620434Y-97543924D01*
X120653695Y-97593703D01*
X120653696Y-97593704D01*
X120703478Y-97626967D01*
X120703481Y-97626967D01*
X120703482Y-97626968D01*
X120747377Y-97635700D01*
X120747380Y-97635700D01*
X122477022Y-97635700D01*
X122520917Y-97626968D01*
X122520917Y-97626967D01*
X122520922Y-97626967D01*
X122570704Y-97593704D01*
X122603967Y-97543922D01*
X122610993Y-97508602D01*
X122612700Y-97500022D01*
X122612700Y-95770377D01*
X122603968Y-95726482D01*
X122603967Y-95726481D01*
X122603967Y-95726478D01*
X122570704Y-95676696D01*
X122570703Y-95676695D01*
X122520924Y-95643434D01*
X122520917Y-95643431D01*
X122477022Y-95634700D01*
X122477020Y-95634700D01*
X120747380Y-95634700D01*
X120747378Y-95634700D01*
X120703482Y-95643431D01*
X120703475Y-95643434D01*
X120653696Y-95676695D01*
X120653695Y-95676696D01*
X120620434Y-95726475D01*
X120620431Y-95726482D01*
X120611700Y-95770377D01*
X120611700Y-95770380D01*
X120611700Y-97500020D01*
X120611700Y-97500022D01*
X120611699Y-97500022D01*
X118459730Y-97500022D01*
X118459888Y-76247947D01*
X129625700Y-76247947D01*
X129625700Y-76354453D01*
X129653266Y-76457331D01*
X129706520Y-76549569D01*
X129781831Y-76624880D01*
X129874069Y-76678134D01*
X129894863Y-76683705D01*
X129954523Y-76720069D01*
X129985053Y-76782915D01*
X129976759Y-76852291D01*
X129932274Y-76906170D01*
X129924771Y-76910866D01*
X129847115Y-76955701D01*
X129847106Y-76955708D01*
X129771800Y-77031014D01*
X129771798Y-77031017D01*
X129718544Y-77123254D01*
X129698730Y-77197201D01*
X129690978Y-77226133D01*
X129690978Y-77332639D01*
X129718544Y-77435517D01*
X129771798Y-77527755D01*
X129847109Y-77603066D01*
X129939347Y-77656320D01*
X130042225Y-77683886D01*
X130042227Y-77683886D01*
X130148729Y-77683886D01*
X130148731Y-77683886D01*
X130251609Y-77656320D01*
X130255611Y-77654009D01*
X130271088Y-77649859D01*
X130282649Y-77642425D01*
X130317576Y-77637392D01*
X130407406Y-77637367D01*
X130474448Y-77657033D01*
X130520218Y-77709824D01*
X130531438Y-77761367D01*
X130531438Y-77844775D01*
X130547892Y-77906183D01*
X130552117Y-77938276D01*
X130552117Y-78539202D01*
X130555670Y-78572253D01*
X130567056Y-78624595D01*
X130567057Y-78624597D01*
X130601480Y-78693367D01*
X130601482Y-78693369D01*
X130601484Y-78693373D01*
X130628735Y-78724822D01*
X130647994Y-78747049D01*
X130652951Y-78752501D01*
X130652954Y-78752502D01*
X130652956Y-78752505D01*
X130721687Y-78794399D01*
X130789808Y-78814401D01*
X130789812Y-78814401D01*
X130789814Y-78814402D01*
X130796891Y-78815419D01*
X130833617Y-78820700D01*
X132807643Y-78820700D01*
X132839735Y-78824924D01*
X132913683Y-78844739D01*
X132913685Y-78844739D01*
X133020187Y-78844739D01*
X133020189Y-78844739D01*
X133094136Y-78824924D01*
X133126229Y-78820700D01*
X133366063Y-78820700D01*
X133398155Y-78824924D01*
X133469905Y-78844150D01*
X133469907Y-78844150D01*
X133576409Y-78844150D01*
X133576411Y-78844150D01*
X133679289Y-78816584D01*
X133679294Y-78816581D01*
X133686799Y-78813473D01*
X133687051Y-78814081D01*
X133698715Y-78809576D01*
X133698280Y-78808341D01*
X133705590Y-78805762D01*
X133705595Y-78805761D01*
X133774373Y-78771333D01*
X133828029Y-78724840D01*
X133833505Y-78719861D01*
X133875399Y-78651130D01*
X133878738Y-78639756D01*
X133890326Y-78612694D01*
X133900092Y-78595781D01*
X133927658Y-78492903D01*
X133927658Y-78386397D01*
X133905924Y-78305287D01*
X133901700Y-78273195D01*
X133901700Y-77197201D01*
X133901700Y-77197200D01*
X133898147Y-77164147D01*
X133886761Y-77111805D01*
X133852333Y-77043027D01*
X133805840Y-76989371D01*
X133805822Y-76989350D01*
X133800865Y-76983898D01*
X133800862Y-76983896D01*
X133800861Y-76983895D01*
X133754618Y-76955708D01*
X133732131Y-76942001D01*
X133664010Y-76921999D01*
X133664002Y-76921997D01*
X133620201Y-76915700D01*
X133620200Y-76915700D01*
X133140381Y-76915700D01*
X133136332Y-76914511D01*
X133108288Y-76911475D01*
X133101575Y-76909676D01*
X132998697Y-76882110D01*
X132892191Y-76882110D01*
X132892189Y-76882110D01*
X132782784Y-76911424D01*
X132767690Y-76911064D01*
X132753294Y-76915622D01*
X132750728Y-76915649D01*
X132573505Y-76915699D01*
X132573453Y-76915700D01*
X130760337Y-76915700D01*
X130759122Y-76915765D01*
X130754157Y-76916030D01*
X130747583Y-76916206D01*
X130308902Y-76916327D01*
X130260074Y-76903256D01*
X130259119Y-76905563D01*
X130251604Y-76902450D01*
X130230812Y-76896879D01*
X130171152Y-76860514D01*
X130140624Y-76797667D01*
X130148919Y-76728291D01*
X130193405Y-76674414D01*
X130200897Y-76669724D01*
X130275810Y-76626473D01*
X130337775Y-76609860D01*
X132775879Y-76609214D01*
X132808001Y-76613438D01*
X132876947Y-76631913D01*
X132876949Y-76631913D01*
X132983451Y-76631913D01*
X132983453Y-76631913D01*
X133041825Y-76616272D01*
X133052631Y-76613377D01*
X133076096Y-76610287D01*
X133079011Y-76609284D01*
X133080660Y-76609686D01*
X133084724Y-76609152D01*
X133618979Y-76609152D01*
X133618980Y-76609152D01*
X133652033Y-76605599D01*
X133704375Y-76594213D01*
X133773153Y-76559785D01*
X133826809Y-76513292D01*
X133832285Y-76508313D01*
X133874179Y-76439582D01*
X133894181Y-76371461D01*
X133900480Y-76327652D01*
X133900480Y-75252105D01*
X133904705Y-75220012D01*
X133927678Y-75134276D01*
X133927678Y-75027770D01*
X133900112Y-74924892D01*
X133895650Y-74917164D01*
X133886100Y-74896414D01*
X133885541Y-74894832D01*
X133885541Y-74894828D01*
X133885539Y-74894824D01*
X133851116Y-74826055D01*
X133851114Y-74826053D01*
X133851113Y-74826050D01*
X133804620Y-74772394D01*
X133799643Y-74766919D01*
X133799642Y-74766918D01*
X133799641Y-74766917D01*
X133761041Y-74743389D01*
X133730912Y-74725024D01*
X133713913Y-74720032D01*
X133686848Y-74708442D01*
X133679309Y-74704089D01*
X133576431Y-74676523D01*
X133469925Y-74676523D01*
X133402841Y-74694498D01*
X133370748Y-74698723D01*
X133082630Y-74698723D01*
X133050537Y-74694498D01*
X133050236Y-74694417D01*
X132983453Y-74676523D01*
X132876947Y-74676523D01*
X132809863Y-74694498D01*
X132777770Y-74698723D01*
X130828408Y-74698723D01*
X130795357Y-74702276D01*
X130743015Y-74713662D01*
X130743013Y-74713663D01*
X130674243Y-74748086D01*
X130674237Y-74748091D01*
X130620561Y-74794600D01*
X130615109Y-74799557D01*
X130615104Y-74799565D01*
X130573212Y-74868291D01*
X130553210Y-74936412D01*
X130553208Y-74936420D01*
X130546911Y-74980221D01*
X130546911Y-75513209D01*
X130533960Y-75561558D01*
X130536377Y-75562559D01*
X130533266Y-75570069D01*
X130505700Y-75672947D01*
X130505700Y-75764782D01*
X130486015Y-75831821D01*
X130433211Y-75877576D01*
X130381733Y-75888782D01*
X130008977Y-75888880D01*
X130005100Y-75888882D01*
X130005099Y-75888882D01*
X129971689Y-75892522D01*
X129918817Y-75904168D01*
X129918814Y-75904169D01*
X129896090Y-75915650D01*
X129880375Y-75921653D01*
X129874071Y-75924264D01*
X129781834Y-75977518D01*
X129781828Y-75977522D01*
X129706522Y-76052828D01*
X129706520Y-76052831D01*
X129653266Y-76145068D01*
X129653266Y-76145069D01*
X129625700Y-76247947D01*
X118459888Y-76247947D01*
X118459899Y-74833076D01*
X118459900Y-74833075D01*
X118459900Y-74791440D01*
X118460070Y-74784956D01*
X118477887Y-74444986D01*
X118479244Y-74432078D01*
X118531991Y-74099044D01*
X118534684Y-74086369D01*
X118621961Y-73760648D01*
X118625965Y-73748326D01*
X118746811Y-73433512D01*
X118752075Y-73421690D01*
X118905174Y-73121214D01*
X118911640Y-73110016D01*
X119095299Y-72827206D01*
X119102914Y-72816725D01*
X119315130Y-72554660D01*
X119323797Y-72545035D01*
X119562235Y-72306597D01*
X119571860Y-72297930D01*
X119833925Y-72085714D01*
X119844406Y-72078099D01*
X120127216Y-71894440D01*
X120138414Y-71887974D01*
X120438890Y-71734875D01*
X120450712Y-71729611D01*
X120765526Y-71608765D01*
X120777848Y-71604761D01*
X121103569Y-71517484D01*
X121116244Y-71514791D01*
X121449280Y-71462043D01*
X121462184Y-71460687D01*
X121802156Y-71442869D01*
X121808646Y-71442700D01*
X121850275Y-71442700D01*
X157560125Y-71442700D01*
X157601754Y-71442700D01*
X157608243Y-71442869D01*
G37*
%TD.AperFunction*%
%TD*%
%TA.AperFunction,Conductor*%
%TO.N,/Power/LX2*%
G36*
X133687101Y-74874225D02*
G01*
X133733594Y-74927881D01*
X133744980Y-74980223D01*
X133744980Y-76327652D01*
X133724978Y-76395773D01*
X133671322Y-76442266D01*
X133618980Y-76453652D01*
X133020211Y-76453652D01*
X133020198Y-76453652D01*
X133020185Y-76453652D01*
X133020101Y-76453652D01*
X132990108Y-76453658D01*
X132990107Y-76453659D01*
X132979462Y-76453661D01*
X130005992Y-76454449D01*
X129997450Y-76451943D01*
X129988646Y-76453254D01*
X129963905Y-76442103D01*
X129937866Y-76434465D01*
X129932035Y-76427739D01*
X129923920Y-76424082D01*
X129909136Y-76401327D01*
X129891359Y-76380822D01*
X129889073Y-76370446D01*
X129885240Y-76364546D01*
X129879961Y-76329078D01*
X129879177Y-76171005D01*
X129898840Y-76102788D01*
X129952265Y-76056029D01*
X130005141Y-76044382D01*
X130702411Y-76044198D01*
X130702411Y-74980223D01*
X130722413Y-74912102D01*
X130776069Y-74865609D01*
X130828411Y-74854223D01*
X132223695Y-74854223D01*
X133618983Y-74854223D01*
X133687101Y-74874225D01*
G37*
%TD.AperFunction*%
%TD*%
%TA.AperFunction,Conductor*%
%TO.N,/Power/LX1*%
G36*
X133083379Y-77071200D02*
G01*
X133135263Y-77071200D01*
X133620200Y-77071200D01*
X133688321Y-77091202D01*
X133734814Y-77144858D01*
X133746200Y-77197200D01*
X133746200Y-78539200D01*
X133726198Y-78607321D01*
X133672542Y-78653814D01*
X133620200Y-78665200D01*
X130833617Y-78665200D01*
X130765496Y-78645198D01*
X130719003Y-78591542D01*
X130707617Y-78539200D01*
X130707617Y-77481786D01*
X130707616Y-77481786D01*
X130361167Y-77481882D01*
X130010860Y-77481978D01*
X130002317Y-77479472D01*
X129993512Y-77480783D01*
X129968772Y-77469632D01*
X129942733Y-77461995D01*
X129936901Y-77455268D01*
X129928786Y-77451611D01*
X129914001Y-77428855D01*
X129896226Y-77408352D01*
X129893940Y-77397977D01*
X129890106Y-77392075D01*
X129884827Y-77356607D01*
X129884043Y-77198534D01*
X129903706Y-77130317D01*
X129957131Y-77083558D01*
X130010002Y-77071911D01*
X130523717Y-77071769D01*
X130755637Y-77071705D01*
X130760337Y-77071200D01*
X132573479Y-77071200D01*
X132573482Y-77071200D01*
X132573496Y-77071200D01*
X132658970Y-77071176D01*
X133082896Y-77071058D01*
X133083379Y-77071200D01*
G37*
%TD.AperFunction*%
%TD*%
%TA.AperFunction,Conductor*%
%TO.N,VBUS*%
G36*
X128095415Y-81368666D02*
G01*
X128260482Y-81533733D01*
X128263909Y-81542006D01*
X128262762Y-81547057D01*
X128147916Y-81786995D01*
X128141254Y-81792978D01*
X128132312Y-81792497D01*
X128130905Y-81791700D01*
X127956310Y-81676136D01*
X127953012Y-81672838D01*
X127866415Y-81542006D01*
X127837447Y-81498241D01*
X127835739Y-81489452D01*
X127840746Y-81482029D01*
X127842148Y-81481234D01*
X128082094Y-81366385D01*
X128091033Y-81365905D01*
X128095415Y-81368666D01*
G37*
%TD.AperFunction*%
%TD*%
%TA.AperFunction,Conductor*%
%TO.N,VBUS*%
G36*
X152076641Y-91510058D02*
G01*
X152454249Y-91853803D01*
X152458060Y-91861905D01*
X152456122Y-91868922D01*
X152297015Y-92108734D01*
X152293734Y-92112015D01*
X152056324Y-92269528D01*
X152047536Y-92271247D01*
X152040107Y-92266247D01*
X152039515Y-92265252D01*
X151957721Y-92110707D01*
X151789585Y-91793023D01*
X151788745Y-91784109D01*
X151791652Y-91779280D01*
X152060495Y-91510437D01*
X152068767Y-91507011D01*
X152076641Y-91510058D01*
G37*
%TD.AperFunction*%
%TD*%
%TA.AperFunction,Conductor*%
%TO.N,VBUS*%
G36*
X128331935Y-81325744D02*
G01*
X128337670Y-81332621D01*
X128338201Y-81336106D01*
X128338201Y-81713259D01*
X128334774Y-81721532D01*
X128332109Y-81723527D01*
X128089392Y-81856086D01*
X128080489Y-81857044D01*
X128074080Y-81852354D01*
X127987312Y-81723527D01*
X127955359Y-81676085D01*
X127953579Y-81671785D01*
X127913136Y-81463718D01*
X127914921Y-81454945D01*
X127921134Y-81450320D01*
X128323017Y-81324937D01*
X128331935Y-81325744D01*
G37*
%TD.AperFunction*%
%TD*%
%TA.AperFunction,Conductor*%
%TO.N,VBUS*%
G36*
X133047517Y-81305027D02*
G01*
X133051102Y-81311342D01*
X133093525Y-81519867D01*
X133093525Y-81524532D01*
X133051123Y-81732957D01*
X133046116Y-81740381D01*
X133038999Y-81742306D01*
X132658364Y-81720823D01*
X132650297Y-81716936D01*
X132647323Y-81709142D01*
X132647323Y-81331368D01*
X132650750Y-81323095D01*
X132658479Y-81319681D01*
X133039094Y-81301988D01*
X133047517Y-81305027D01*
G37*
%TD.AperFunction*%
%TD*%
%TA.AperFunction,Conductor*%
%TO.N,VBUS*%
G36*
X133527579Y-81321628D02*
G01*
X133535664Y-81325476D01*
X133538677Y-81333313D01*
X133538677Y-81711086D01*
X133535250Y-81719359D01*
X133527578Y-81722771D01*
X133146952Y-81742359D01*
X133138514Y-81739361D01*
X133134887Y-81733008D01*
X133092474Y-81524529D01*
X133092474Y-81519868D01*
X133134887Y-81311390D01*
X133139893Y-81303969D01*
X133146950Y-81302040D01*
X133527579Y-81321628D01*
G37*
%TD.AperFunction*%
%TD*%
%TA.AperFunction,Conductor*%
%TO.N,RBUS_uC_V*%
G36*
X123488064Y-102027461D02*
G01*
X123491035Y-102032501D01*
X123890117Y-103420360D01*
X123889110Y-103429258D01*
X123885293Y-103433374D01*
X122579066Y-104290736D01*
X122570269Y-104292411D01*
X122562865Y-104287375D01*
X122562156Y-104286134D01*
X121933728Y-103010192D01*
X121933148Y-103001258D01*
X121936677Y-102996084D01*
X122812710Y-102256843D01*
X123085332Y-102026792D01*
X123092878Y-102024034D01*
X123479791Y-102024034D01*
X123488064Y-102027461D01*
G37*
%TD.AperFunction*%
%TD*%
%TA.AperFunction,Conductor*%
%TO.N,RBUS_uC_V*%
G36*
X131319024Y-81991510D02*
G01*
X131324234Y-81998793D01*
X131324302Y-81999107D01*
X131366800Y-82208000D01*
X131407254Y-82416121D01*
X131405469Y-82424896D01*
X131398001Y-82429838D01*
X131396971Y-82429991D01*
X130943886Y-82476783D01*
X130935305Y-82474224D01*
X130931046Y-82466347D01*
X130930984Y-82465145D01*
X130930984Y-82087410D01*
X130934411Y-82079137D01*
X130940035Y-82076013D01*
X131310192Y-81990043D01*
X131319024Y-81991510D01*
G37*
%TD.AperFunction*%
%TD*%
%TA.AperFunction,Conductor*%
%TO.N,RBUS_uC_V*%
G36*
X122347917Y-82596556D02*
G01*
X122525322Y-82713979D01*
X122528620Y-82717277D01*
X122646043Y-82894682D01*
X122647752Y-82903473D01*
X122644124Y-82909827D01*
X122361132Y-83165117D01*
X122352694Y-83168115D01*
X122345022Y-83164703D01*
X122077896Y-82897577D01*
X122074469Y-82889304D01*
X122077482Y-82881467D01*
X122332773Y-82598474D01*
X122340858Y-82594627D01*
X122347917Y-82596556D01*
G37*
%TD.AperFunction*%
%TD*%
%TA.AperFunction,Conductor*%
%TO.N,RBUS_uC_V*%
G36*
X122708177Y-82267296D02*
G01*
X122975303Y-82534422D01*
X122978730Y-82542695D01*
X122975717Y-82550532D01*
X122720427Y-82833524D01*
X122712341Y-82837372D01*
X122705282Y-82835443D01*
X122527877Y-82718020D01*
X122524579Y-82714722D01*
X122407156Y-82537317D01*
X122405447Y-82528526D01*
X122409073Y-82522174D01*
X122692067Y-82266881D01*
X122700505Y-82263884D01*
X122708177Y-82267296D01*
G37*
%TD.AperFunction*%
%TD*%
%TA.AperFunction,Conductor*%
%TO.N,/BOOT*%
G36*
X131110154Y-94969096D02*
G01*
X131113581Y-94977369D01*
X131113460Y-94979048D01*
X130846137Y-96822681D01*
X130841558Y-96830377D01*
X130832879Y-96832581D01*
X130831249Y-96832224D01*
X129998855Y-96586772D01*
X129991889Y-96581145D01*
X129991883Y-96581134D01*
X129537590Y-95744736D01*
X129536652Y-95735831D01*
X129542287Y-95728871D01*
X129542322Y-95728851D01*
X130962810Y-94967058D01*
X130968340Y-94965669D01*
X131101881Y-94965669D01*
X131110154Y-94969096D01*
G37*
%TD.AperFunction*%
%TD*%
%TA.AperFunction,Conductor*%
%TO.N,/BOOT*%
G36*
X135247196Y-91604066D02*
G01*
X135254664Y-91609008D01*
X135254708Y-91609075D01*
X135370161Y-91782787D01*
X135371887Y-91791574D01*
X135366893Y-91799007D01*
X135366350Y-91799347D01*
X135101147Y-91955371D01*
X135095214Y-91956987D01*
X134962812Y-91956987D01*
X134954539Y-91953560D01*
X134951112Y-91945287D01*
X134951362Y-91942883D01*
X134988296Y-91766999D01*
X135028954Y-91573384D01*
X135034008Y-91565992D01*
X135042636Y-91564304D01*
X135247196Y-91604066D01*
G37*
%TD.AperFunction*%
%TD*%
%TA.AperFunction,Conductor*%
%TO.N,/BOOT*%
G36*
X139862933Y-97032160D02*
G01*
X139869238Y-97038519D01*
X139869878Y-97040630D01*
X139926130Y-97318680D01*
X139926130Y-97323320D01*
X139869878Y-97601369D01*
X139864878Y-97608798D01*
X139856090Y-97610517D01*
X139853979Y-97609877D01*
X139338633Y-97398974D01*
X139332274Y-97392669D01*
X139331364Y-97388146D01*
X139331364Y-97253853D01*
X139334791Y-97245580D01*
X139338633Y-97243025D01*
X139853980Y-97032122D01*
X139862933Y-97032160D01*
G37*
%TD.AperFunction*%
%TD*%
%TA.AperFunction,Conductor*%
%TO.N,/CHIP_PU*%
G36*
X139500086Y-98045559D02*
G01*
X139682667Y-98122097D01*
X140013622Y-98260833D01*
X140019927Y-98267192D01*
X140019889Y-98276146D01*
X140018848Y-98278091D01*
X139862014Y-98514478D01*
X139858733Y-98517759D01*
X139622346Y-98674593D01*
X139613558Y-98676312D01*
X139606129Y-98671312D01*
X139605088Y-98669367D01*
X139389814Y-98155831D01*
X139389776Y-98146877D01*
X139392329Y-98143037D01*
X139487291Y-98048075D01*
X139495563Y-98044649D01*
X139500086Y-98045559D01*
G37*
%TD.AperFunction*%
%TD*%
%TA.AperFunction,Conductor*%
%TO.N,/CHIP_PU*%
G36*
X124259637Y-98273343D02*
G01*
X124640966Y-98411604D01*
X124647575Y-98417644D01*
X124648677Y-98422602D01*
X124648677Y-98556197D01*
X124645250Y-98564470D01*
X124640965Y-98567196D01*
X124259644Y-98705454D01*
X124250698Y-98705053D01*
X124244657Y-98698443D01*
X124244191Y-98696788D01*
X124202474Y-98491729D01*
X124202474Y-98487068D01*
X124244191Y-98282011D01*
X124249198Y-98274588D01*
X124257988Y-98272879D01*
X124259637Y-98273343D01*
G37*
%TD.AperFunction*%
%TD*%
%TA.AperFunction,Conductor*%
%TO.N,/CHIP_PU*%
G36*
X132356353Y-92933196D02*
G01*
X132358132Y-92934656D01*
X132452403Y-93028927D01*
X132455001Y-93032874D01*
X132555424Y-93285210D01*
X132555299Y-93294164D01*
X132548879Y-93300407D01*
X132546864Y-93301006D01*
X132344022Y-93341872D01*
X132335235Y-93340146D01*
X132335168Y-93340102D01*
X132162502Y-93223638D01*
X132157560Y-93216170D01*
X132159311Y-93207445D01*
X132340126Y-92936434D01*
X132347569Y-92931455D01*
X132356353Y-92933196D01*
G37*
%TD.AperFunction*%
%TD*%
%TA.AperFunction,Conductor*%
%TO.N,/CHIP_PU*%
G36*
X132221470Y-93164753D02*
G01*
X132221598Y-93164939D01*
X132337902Y-93337369D01*
X132339687Y-93346144D01*
X132339672Y-93346222D01*
X132298391Y-93551120D01*
X132293397Y-93558553D01*
X132284610Y-93560279D01*
X132284394Y-93560233D01*
X131991882Y-93495517D01*
X131986136Y-93492366D01*
X131892325Y-93398555D01*
X131888898Y-93390282D01*
X131892325Y-93382009D01*
X131893861Y-93380717D01*
X132205172Y-93161908D01*
X132213909Y-93159955D01*
X132221470Y-93164753D01*
G37*
%TD.AperFunction*%
%TD*%
%TA.AperFunction,Conductor*%
%TO.N,Net-(JP1-B)*%
G36*
X128626589Y-94564535D02*
G01*
X128631832Y-94571794D01*
X128631913Y-94572162D01*
X128673925Y-94778668D01*
X128673925Y-94783332D01*
X128632211Y-94988374D01*
X128627204Y-94995798D01*
X128618414Y-94997507D01*
X128616748Y-94997038D01*
X128235425Y-94858400D01*
X128228821Y-94852352D01*
X128227723Y-94847404D01*
X128227723Y-94664849D01*
X128231150Y-94656576D01*
X128236720Y-94653466D01*
X128617750Y-94563110D01*
X128626589Y-94564535D01*
G37*
%TD.AperFunction*%
%TD*%
%TA.AperFunction,Conductor*%
%TO.N,Net-(JP1-B)*%
G36*
X125884770Y-94538610D02*
G01*
X125914312Y-94547483D01*
X126265944Y-94653097D01*
X126272880Y-94658757D01*
X126274277Y-94664301D01*
X126274277Y-94846898D01*
X126270850Y-94855171D01*
X126265943Y-94858103D01*
X125884770Y-94972589D01*
X125875860Y-94971687D01*
X125870199Y-94964750D01*
X125869941Y-94963727D01*
X125828074Y-94757929D01*
X125828074Y-94753268D01*
X125869940Y-94547481D01*
X125874946Y-94540059D01*
X125883736Y-94538350D01*
X125884770Y-94538610D01*
G37*
%TD.AperFunction*%
%TD*%
%TA.AperFunction,Conductor*%
%TO.N,Net-(JP1-B)*%
G36*
X123201806Y-92583569D02*
G01*
X123202353Y-92584483D01*
X123390927Y-92934966D01*
X123391829Y-92943876D01*
X123388897Y-92948783D01*
X123259783Y-93077897D01*
X123251510Y-93081324D01*
X123245966Y-93079927D01*
X122895483Y-92891353D01*
X122889822Y-92884416D01*
X122890724Y-92875506D01*
X122891261Y-92874607D01*
X123007181Y-92699474D01*
X123010474Y-92696181D01*
X123185594Y-92580270D01*
X123194383Y-92578562D01*
X123201806Y-92583569D01*
G37*
%TD.AperFunction*%
%TD*%
%TA.AperFunction,Conductor*%
%TO.N,Net-(JP1-B)*%
G36*
X125781339Y-94539512D02*
G01*
X125787000Y-94546449D01*
X125787260Y-94547483D01*
X125829125Y-94753268D01*
X125829125Y-94757932D01*
X125787260Y-94963716D01*
X125782253Y-94971140D01*
X125773463Y-94972849D01*
X125772429Y-94972589D01*
X125391257Y-94858103D01*
X125384320Y-94852442D01*
X125382923Y-94846898D01*
X125382923Y-94664301D01*
X125386350Y-94656028D01*
X125391254Y-94653097D01*
X125772429Y-94538610D01*
X125781339Y-94539512D01*
G37*
%TD.AperFunction*%
%TD*%
%TA.AperFunction,Conductor*%
%TO.N,CRX*%
G36*
X140447695Y-89571570D02*
G01*
X140447995Y-89571780D01*
X140757562Y-89795006D01*
X140762268Y-89802624D01*
X140760209Y-89811339D01*
X140758992Y-89812769D01*
X140665120Y-89906641D01*
X140659223Y-89909824D01*
X140368617Y-89970087D01*
X140359820Y-89968412D01*
X140354785Y-89961007D01*
X140354771Y-89960942D01*
X140343831Y-89906641D01*
X140313459Y-89755888D01*
X140315185Y-89747103D01*
X140315229Y-89747036D01*
X140431453Y-89574726D01*
X140438919Y-89569785D01*
X140447695Y-89571570D01*
G37*
%TD.AperFunction*%
%TD*%
%TA.AperFunction,Conductor*%
%TO.N,CSD*%
G36*
X139140288Y-89853084D02*
G01*
X139140856Y-89854033D01*
X139301191Y-90153210D01*
X139302579Y-90158737D01*
X139302579Y-90290157D01*
X139299152Y-90298430D01*
X139290879Y-90301857D01*
X139287574Y-90301381D01*
X138914016Y-90191383D01*
X138907048Y-90185758D01*
X138905836Y-90177927D01*
X138910137Y-90155800D01*
X138945766Y-89972502D01*
X138950706Y-89965037D01*
X139124070Y-89849815D01*
X139132855Y-89848090D01*
X139140288Y-89853084D01*
G37*
%TD.AperFunction*%
%TD*%
%TA.AperFunction,Conductor*%
%TO.N,ANT_SEL*%
G36*
X137429537Y-89827843D02*
G01*
X137810866Y-89966104D01*
X137817475Y-89972144D01*
X137818577Y-89977102D01*
X137818577Y-90110697D01*
X137815150Y-90118970D01*
X137810865Y-90121696D01*
X137429544Y-90259954D01*
X137420598Y-90259553D01*
X137414557Y-90252943D01*
X137414091Y-90251288D01*
X137372374Y-90046229D01*
X137372374Y-90041568D01*
X137414091Y-89836511D01*
X137419098Y-89829088D01*
X137427888Y-89827379D01*
X137429537Y-89827843D01*
G37*
%TD.AperFunction*%
%TD*%
%TA.AperFunction,Conductor*%
%TO.N,CPS*%
G36*
X149507237Y-97181143D02*
G01*
X149888566Y-97319404D01*
X149895175Y-97325444D01*
X149896277Y-97330402D01*
X149896277Y-97463997D01*
X149892850Y-97472270D01*
X149888565Y-97474996D01*
X149507244Y-97613254D01*
X149498298Y-97612853D01*
X149492257Y-97606243D01*
X149491791Y-97604588D01*
X149450074Y-97399529D01*
X149450074Y-97394868D01*
X149491791Y-97189811D01*
X149496798Y-97182388D01*
X149505588Y-97180679D01*
X149507237Y-97181143D01*
G37*
%TD.AperFunction*%
%TD*%
%TA.AperFunction,Conductor*%
%TO.N,CPS*%
G36*
X149121174Y-122270494D02*
G01*
X149215632Y-122364952D01*
X149219059Y-122373225D01*
X149218083Y-122377904D01*
X149054248Y-122753440D01*
X149047799Y-122759652D01*
X149038845Y-122759485D01*
X149037066Y-122758517D01*
X148862876Y-122643221D01*
X148859578Y-122639923D01*
X148743881Y-122465127D01*
X148742173Y-122456339D01*
X148747180Y-122448915D01*
X148748392Y-122448212D01*
X149107662Y-122268304D01*
X149116594Y-122267665D01*
X149121174Y-122270494D01*
G37*
%TD.AperFunction*%
%TD*%
%TA.AperFunction,Conductor*%
%TO.N,CHL*%
G36*
X149507237Y-98521346D02*
G01*
X149888566Y-98659607D01*
X149895175Y-98665647D01*
X149896277Y-98670605D01*
X149896277Y-98804200D01*
X149892850Y-98812473D01*
X149888565Y-98815199D01*
X149507244Y-98953457D01*
X149498298Y-98953056D01*
X149492257Y-98946446D01*
X149491791Y-98944791D01*
X149450074Y-98739732D01*
X149450074Y-98735071D01*
X149491791Y-98530014D01*
X149496798Y-98522591D01*
X149505588Y-98520882D01*
X149507237Y-98521346D01*
G37*
%TD.AperFunction*%
%TD*%
%TA.AperFunction,Conductor*%
%TO.N,CHL*%
G36*
X149505779Y-118613027D02*
G01*
X149600125Y-118707373D01*
X149603552Y-118715646D01*
X149603502Y-118716725D01*
X149570870Y-119069013D01*
X149566695Y-119076935D01*
X149558141Y-119079584D01*
X149556980Y-119079418D01*
X149353103Y-119039645D01*
X149345639Y-119034697D01*
X149345587Y-119034619D01*
X149229572Y-118859342D01*
X149227863Y-118850551D01*
X149231515Y-118844175D01*
X149489694Y-118612589D01*
X149498140Y-118609617D01*
X149505779Y-118613027D01*
G37*
%TD.AperFunction*%
%TD*%
%TA.AperFunction,Conductor*%
%TO.N,CTX*%
G36*
X150499426Y-97926683D02*
G01*
X150823993Y-98111469D01*
X150829487Y-98118541D01*
X150828372Y-98127426D01*
X150826477Y-98129910D01*
X150733256Y-98223131D01*
X150728574Y-98225993D01*
X150421367Y-98325054D01*
X150412441Y-98324332D01*
X150406641Y-98317510D01*
X150406309Y-98316242D01*
X150365259Y-98112488D01*
X150366985Y-98103703D01*
X150367029Y-98103637D01*
X150400206Y-98054449D01*
X150483938Y-97930309D01*
X150491405Y-97925367D01*
X150499426Y-97926683D01*
G37*
%TD.AperFunction*%
%TD*%
%TA.AperFunction,Conductor*%
%TO.N,CTX*%
G36*
X149362908Y-119761027D02*
G01*
X149457373Y-119855492D01*
X149460800Y-119863765D01*
X149459698Y-119868723D01*
X149287827Y-120236120D01*
X149281217Y-120242161D01*
X149272271Y-120241760D01*
X149270771Y-120240918D01*
X149096277Y-120125421D01*
X149092979Y-120122123D01*
X148977482Y-119947629D01*
X148975773Y-119938838D01*
X148980780Y-119931415D01*
X148982270Y-119930578D01*
X149349680Y-119758701D01*
X149358623Y-119758301D01*
X149362908Y-119761027D01*
G37*
%TD.AperFunction*%
%TD*%
%TA.AperFunction,Conductor*%
%TO.N,/CAN_RX*%
G36*
X146708827Y-95169541D02*
G01*
X147161234Y-95271660D01*
X147168550Y-95276825D01*
X147170139Y-95285324D01*
X147115447Y-95564311D01*
X147110493Y-95571770D01*
X147110434Y-95571809D01*
X146873788Y-95728815D01*
X146865000Y-95730534D01*
X146857792Y-95725856D01*
X146747988Y-95571770D01*
X146566867Y-95317605D01*
X146564857Y-95308880D01*
X146568121Y-95302545D01*
X146697985Y-95172681D01*
X146706257Y-95169255D01*
X146708827Y-95169541D01*
G37*
%TD.AperFunction*%
%TD*%
%TA.AperFunction,Conductor*%
%TO.N,/CAN_RX*%
G36*
X134161462Y-88254101D02*
G01*
X134163349Y-88255631D01*
X134292320Y-88384602D01*
X134295370Y-88389927D01*
X134400116Y-88792291D01*
X134398884Y-88801161D01*
X134391741Y-88806562D01*
X134391097Y-88806710D01*
X134113079Y-88862545D01*
X134104293Y-88860814D01*
X134104243Y-88860781D01*
X133869121Y-88702563D01*
X133864170Y-88695101D01*
X133865849Y-88686472D01*
X134145274Y-88257517D01*
X134152660Y-88252456D01*
X134161462Y-88254101D01*
G37*
%TD.AperFunction*%
%TD*%
%TA.AperFunction,Conductor*%
%TO.N,/CAN_TX*%
G36*
X148018287Y-94617511D02*
G01*
X148022640Y-94624479D01*
X148079030Y-94903210D01*
X148077311Y-94911998D01*
X148077272Y-94912057D01*
X147918947Y-95147595D01*
X147911488Y-95152549D01*
X147902710Y-95150778D01*
X147902576Y-95150687D01*
X147518166Y-94884489D01*
X147513315Y-94876962D01*
X147513127Y-94874870D01*
X147513127Y-94691252D01*
X147516554Y-94682979D01*
X147523289Y-94679653D01*
X148009635Y-94615200D01*
X148018287Y-94617511D01*
G37*
%TD.AperFunction*%
%TD*%
%TA.AperFunction,Conductor*%
%TO.N,/CAN_TX*%
G36*
X132148282Y-88573189D02*
G01*
X132663525Y-88760004D01*
X132670134Y-88766044D01*
X132671236Y-88771002D01*
X132671236Y-88954597D01*
X132667809Y-88962870D01*
X132663524Y-88965596D01*
X132148290Y-89152408D01*
X132139344Y-89152007D01*
X132133303Y-89145397D01*
X132132837Y-89143739D01*
X132076469Y-88865118D01*
X132076469Y-88860480D01*
X132132835Y-88581867D01*
X132137834Y-88574441D01*
X132146622Y-88572722D01*
X132148282Y-88573189D01*
G37*
%TD.AperFunction*%
%TD*%
%TA.AperFunction,Conductor*%
%TO.N,RF_RST*%
G36*
X150671435Y-99093854D02*
G01*
X150675130Y-99096348D01*
X150769581Y-99190799D01*
X150773008Y-99199072D01*
X150771621Y-99204598D01*
X150583545Y-99555586D01*
X150576617Y-99561260D01*
X150567706Y-99560373D01*
X150566774Y-99559816D01*
X150393780Y-99445312D01*
X150388773Y-99437889D01*
X150388754Y-99437796D01*
X150348354Y-99230701D01*
X150350134Y-99221925D01*
X150355459Y-99217611D01*
X150662483Y-99093770D01*
X150671435Y-99093854D01*
G37*
%TD.AperFunction*%
%TD*%
%TA.AperFunction,Conductor*%
%TO.N,RF_RST*%
G36*
X153440237Y-112400343D02*
G01*
X153821566Y-112538604D01*
X153828175Y-112544644D01*
X153829277Y-112549602D01*
X153829277Y-112683197D01*
X153825850Y-112691470D01*
X153821565Y-112694196D01*
X153440244Y-112832454D01*
X153431298Y-112832053D01*
X153425257Y-112825443D01*
X153424791Y-112823788D01*
X153383074Y-112618729D01*
X153383074Y-112614068D01*
X153424791Y-112409011D01*
X153429798Y-112401588D01*
X153438588Y-112399879D01*
X153440237Y-112400343D01*
G37*
%TD.AperFunction*%
%TD*%
%TA.AperFunction,Conductor*%
%TO.N,/TXD*%
G36*
X127362952Y-120748171D02*
G01*
X128560578Y-121372720D01*
X128566328Y-121379583D01*
X128566867Y-121383093D01*
X128566867Y-121518906D01*
X128563440Y-121527179D01*
X128560577Y-121529280D01*
X127362955Y-122153827D01*
X127354035Y-122154614D01*
X127349369Y-122151822D01*
X126640762Y-121459367D01*
X126637241Y-121451135D01*
X126640572Y-121442823D01*
X126640763Y-121442632D01*
X126712307Y-121372719D01*
X127349370Y-120750176D01*
X127357680Y-120746847D01*
X127362952Y-120748171D01*
G37*
%TD.AperFunction*%
%TD*%
%TA.AperFunction,Conductor*%
%TO.N,/RXD*%
G36*
X137238128Y-94669942D02*
G01*
X137245551Y-94674948D01*
X137247260Y-94683738D01*
X137247004Y-94684761D01*
X137206658Y-94819535D01*
X137203722Y-94824453D01*
X137165229Y-94862947D01*
X137164339Y-94865097D01*
X137130899Y-94945825D01*
X137130899Y-95036895D01*
X137130900Y-95036904D01*
X137130900Y-95062577D01*
X137127473Y-95070850D01*
X137119200Y-95074277D01*
X136988113Y-95074277D01*
X136979840Y-95070850D01*
X136977360Y-95067187D01*
X136890719Y-94865097D01*
X136846734Y-94762503D01*
X136846624Y-94753551D01*
X136850949Y-94748194D01*
X137025935Y-94630337D01*
X137034709Y-94628558D01*
X137238128Y-94669942D01*
G37*
%TD.AperFunction*%
%TD*%
%TA.AperFunction,Conductor*%
%TO.N,/RXD*%
G36*
X127714870Y-118836248D02*
G01*
X127719001Y-118843022D01*
X127997297Y-120204125D01*
X127995597Y-120212917D01*
X127994107Y-120214742D01*
X127897559Y-120311290D01*
X127889286Y-120314717D01*
X127885675Y-120314146D01*
X126282190Y-119793814D01*
X126275378Y-119788001D01*
X126274672Y-119779074D01*
X126275060Y-119778047D01*
X126629791Y-118956549D01*
X126636215Y-118950314D01*
X126639263Y-118949558D01*
X127706276Y-118833734D01*
X127714870Y-118836248D01*
G37*
%TD.AperFunction*%
%TD*%
%TA.AperFunction,Conductor*%
%TO.N,+5V*%
G36*
X151633778Y-86224172D02*
G01*
X151634509Y-86225433D01*
X151894970Y-86747132D01*
X151896202Y-86752358D01*
X151896202Y-87033471D01*
X151892775Y-87041744D01*
X151884502Y-87045171D01*
X151880870Y-87044593D01*
X151227808Y-86831328D01*
X151221007Y-86825502D01*
X151219959Y-86817952D01*
X151232840Y-86752358D01*
X151294061Y-86440580D01*
X151299018Y-86433123D01*
X151617555Y-86220921D01*
X151626339Y-86219187D01*
X151633778Y-86224172D01*
G37*
%TD.AperFunction*%
%TD*%
%TA.AperFunction,Conductor*%
%TO.N,+5V*%
G36*
X152953913Y-82941223D02*
G01*
X152961336Y-82946230D01*
X152963103Y-82954715D01*
X152896102Y-83335604D01*
X152891294Y-83343158D01*
X152884579Y-83345277D01*
X152604221Y-83345277D01*
X152595948Y-83341850D01*
X152592698Y-83335604D01*
X152525696Y-82954713D01*
X152527638Y-82945973D01*
X152534885Y-82941224D01*
X152742070Y-82899074D01*
X152746730Y-82899074D01*
X152953913Y-82941223D01*
G37*
%TD.AperFunction*%
%TD*%
%TA.AperFunction,Conductor*%
%TO.N,+5V*%
G36*
X152892852Y-86457350D02*
G01*
X152896102Y-86463596D01*
X152963103Y-86844484D01*
X152961161Y-86853226D01*
X152953912Y-86857976D01*
X152746732Y-86900125D01*
X152742068Y-86900125D01*
X152534887Y-86857976D01*
X152527463Y-86852969D01*
X152525696Y-86844486D01*
X152592698Y-86463595D01*
X152597506Y-86456042D01*
X152604221Y-86453923D01*
X152884579Y-86453923D01*
X152892852Y-86457350D01*
G37*
%TD.AperFunction*%
%TD*%
%TA.AperFunction,Conductor*%
%TO.N,+5V*%
G36*
X152698026Y-86682838D02*
G01*
X152702776Y-86690087D01*
X152744925Y-86897268D01*
X152744925Y-86901932D01*
X152702776Y-87109112D01*
X152697769Y-87116536D01*
X152689284Y-87118303D01*
X152308396Y-87051301D01*
X152300842Y-87046493D01*
X152298723Y-87039778D01*
X152298723Y-86759421D01*
X152302150Y-86751148D01*
X152308394Y-86747898D01*
X152689286Y-86680896D01*
X152698026Y-86682838D01*
G37*
%TD.AperFunction*%
%TD*%
%TA.AperFunction,Conductor*%
%TO.N,Net-(U1-MTDI{slash}JTAG{slash}GPIO41)*%
G36*
X137160301Y-93563777D02*
G01*
X137160346Y-93563806D01*
X137334925Y-93680674D01*
X137339893Y-93688124D01*
X137338512Y-93696310D01*
X137194818Y-93941644D01*
X137192995Y-93944004D01*
X137101262Y-94035737D01*
X137092989Y-94039164D01*
X137084716Y-94035737D01*
X137081919Y-94031251D01*
X137051705Y-93942941D01*
X136940636Y-93618301D01*
X136941200Y-93609364D01*
X136947919Y-93603444D01*
X136949376Y-93603048D01*
X137151513Y-93562062D01*
X137160301Y-93563777D01*
G37*
%TD.AperFunction*%
%TD*%
M02*
