%TF.GenerationSoftware,KiCad,Pcbnew,9.0.1*%
%TF.CreationDate,2025-04-23T16:25:48+03:00*%
%TF.ProjectId,Ricardo-Hermes,52696361-7264-46f2-9d48-65726d65732e,rev?*%
%TF.SameCoordinates,Original*%
%TF.FileFunction,Legend,Top*%
%TF.FilePolarity,Positive*%
%FSLAX46Y46*%
G04 Gerber Fmt 4.6, Leading zero omitted, Abs format (unit mm)*
G04 Created by KiCad (PCBNEW 9.0.1) date 2025-04-23 16:25:48*
%MOMM*%
%LPD*%
G01*
G04 APERTURE LIST*
G04 Aperture macros list*
%AMRoundRect*
0 Rectangle with rounded corners*
0 $1 Rounding radius*
0 $2 $3 $4 $5 $6 $7 $8 $9 X,Y pos of 4 corners*
0 Add a 4 corners polygon primitive as box body*
4,1,4,$2,$3,$4,$5,$6,$7,$8,$9,$2,$3,0*
0 Add four circle primitives for the rounded corners*
1,1,$1+$1,$2,$3*
1,1,$1+$1,$4,$5*
1,1,$1+$1,$6,$7*
1,1,$1+$1,$8,$9*
0 Add four rect primitives between the rounded corners*
20,1,$1+$1,$2,$3,$4,$5,0*
20,1,$1+$1,$4,$5,$6,$7,0*
20,1,$1+$1,$6,$7,$8,$9,0*
20,1,$1+$1,$8,$9,$2,$3,0*%
%AMRotRect*
0 Rectangle, with rotation*
0 The origin of the aperture is its center*
0 $1 length*
0 $2 width*
0 $3 Rotation angle, in degrees counterclockwise*
0 Add horizontal line*
21,1,$1,$2,0,0,$3*%
%AMFreePoly0*
4,1,23,0.500000,-0.750000,0.000000,-0.750000,0.000000,-0.745722,-0.065263,-0.745722,-0.191342,-0.711940,-0.304381,-0.646677,-0.396677,-0.554381,-0.461940,-0.441342,-0.495722,-0.315263,-0.495722,-0.250000,-0.500000,-0.250000,-0.500000,0.250000,-0.495722,0.250000,-0.495722,0.315263,-0.461940,0.441342,-0.396677,0.554381,-0.304381,0.646677,-0.191342,0.711940,-0.065263,0.745722,0.000000,0.745722,
0.000000,0.750000,0.500000,0.750000,0.500000,-0.750000,0.500000,-0.750000,$1*%
%AMFreePoly1*
4,1,23,0.000000,0.745722,0.065263,0.745722,0.191342,0.711940,0.304381,0.646677,0.396677,0.554381,0.461940,0.441342,0.495722,0.315263,0.495722,0.250000,0.500000,0.250000,0.500000,-0.250000,0.495722,-0.250000,0.495722,-0.315263,0.461940,-0.441342,0.396677,-0.554381,0.304381,-0.646677,0.191342,-0.711940,0.065263,-0.745722,0.000000,-0.745722,0.000000,-0.750000,-0.500000,-0.750000,
-0.500000,0.750000,0.000000,0.750000,0.000000,0.745722,0.000000,0.745722,$1*%
G04 Aperture macros list end*
%ADD10C,0.150000*%
%ADD11C,0.180000*%
%ADD12C,0.200000*%
%ADD13C,0.120000*%
%ADD14C,0.127000*%
%ADD15C,0.000000*%
%ADD16C,0.010000*%
%ADD17RoundRect,0.200000X-0.275000X0.200000X-0.275000X-0.200000X0.275000X-0.200000X0.275000X0.200000X0*%
%ADD18RoundRect,0.200000X0.275000X-0.200000X0.275000X0.200000X-0.275000X0.200000X-0.275000X-0.200000X0*%
%ADD19RoundRect,0.135000X0.185000X-0.135000X0.185000X0.135000X-0.185000X0.135000X-0.185000X-0.135000X0*%
%ADD20RoundRect,0.135000X-0.185000X0.135000X-0.185000X-0.135000X0.185000X-0.135000X0.185000X0.135000X0*%
%ADD21C,1.000000*%
%ADD22RoundRect,0.140000X-0.170000X0.140000X-0.170000X-0.140000X0.170000X-0.140000X0.170000X0.140000X0*%
%ADD23RoundRect,0.135000X-0.135000X-0.185000X0.135000X-0.185000X0.135000X0.185000X-0.135000X0.185000X0*%
%ADD24RoundRect,0.250001X1.399999X-1.099999X1.399999X1.099999X-1.399999X1.099999X-1.399999X-1.099999X0*%
%ADD25O,3.300000X2.700000*%
%ADD26RoundRect,0.140000X0.140000X0.170000X-0.140000X0.170000X-0.140000X-0.170000X0.140000X-0.170000X0*%
%ADD27RoundRect,0.140000X-0.140000X-0.170000X0.140000X-0.170000X0.140000X0.170000X-0.140000X0.170000X0*%
%ADD28RoundRect,0.135000X0.135000X0.185000X-0.135000X0.185000X-0.135000X-0.185000X0.135000X-0.185000X0*%
%ADD29C,1.500000*%
%ADD30RoundRect,0.225000X-0.225000X-0.250000X0.225000X-0.250000X0.225000X0.250000X-0.225000X0.250000X0*%
%ADD31RoundRect,0.147500X-0.172500X0.147500X-0.172500X-0.147500X0.172500X-0.147500X0.172500X0.147500X0*%
%ADD32R,1.700000X1.700000*%
%ADD33RoundRect,0.218750X-0.256250X0.218750X-0.256250X-0.218750X0.256250X-0.218750X0.256250X0.218750X0*%
%ADD34RoundRect,0.042000X-0.943000X-0.258000X0.943000X-0.258000X0.943000X0.258000X-0.943000X0.258000X0*%
%ADD35R,2.150000X2.150000*%
%ADD36RoundRect,0.140000X0.170000X-0.140000X0.170000X0.140000X-0.170000X0.140000X-0.170000X-0.140000X0*%
%ADD37RoundRect,0.175000X-0.175000X-0.325000X0.175000X-0.325000X0.175000X0.325000X-0.175000X0.325000X0*%
%ADD38RoundRect,0.150000X-0.200000X-0.150000X0.200000X-0.150000X0.200000X0.150000X-0.200000X0.150000X0*%
%ADD39O,1.700000X1.700000*%
%ADD40RoundRect,0.147500X0.147500X0.172500X-0.147500X0.172500X-0.147500X-0.172500X0.147500X-0.172500X0*%
%ADD41RoundRect,0.200000X0.200000X0.275000X-0.200000X0.275000X-0.200000X-0.275000X0.200000X-0.275000X0*%
%ADD42C,0.600000*%
%ADD43R,1.160000X0.600000*%
%ADD44R,1.160000X0.300000*%
%ADD45O,2.000000X0.900000*%
%ADD46O,1.700000X0.900000*%
%ADD47R,0.790000X0.260000*%
%ADD48R,0.260000X0.790000*%
%ADD49RoundRect,0.218750X0.218750X0.256250X-0.218750X0.256250X-0.218750X-0.256250X0.218750X-0.256250X0*%
%ADD50RoundRect,0.225000X-0.250000X0.225000X-0.250000X-0.225000X0.250000X-0.225000X0.250000X0.225000X0*%
%ADD51R,0.475000X0.300000*%
%ADD52R,0.304800X0.304800*%
%ADD53R,0.990600X0.838200*%
%ADD54RoundRect,0.140000X-0.021213X0.219203X-0.219203X0.021213X0.021213X-0.219203X0.219203X-0.021213X0*%
%ADD55R,2.290000X5.080000*%
%ADD56R,2.420000X5.080000*%
%ADD57FreePoly0,270.000000*%
%ADD58FreePoly1,270.000000*%
%ADD59R,0.800000X0.900000*%
%ADD60RoundRect,0.140000X0.219203X0.021213X0.021213X0.219203X-0.219203X-0.021213X-0.021213X-0.219203X0*%
%ADD61RotRect,0.900000X0.800000X225.000000*%
%ADD62C,1.700000*%
%ADD63C,5.600000*%
%ADD64RoundRect,0.250000X0.850000X0.600000X-0.850000X0.600000X-0.850000X-0.600000X0.850000X-0.600000X0*%
%ADD65O,2.200000X1.700000*%
%ADD66RoundRect,0.042000X-0.258000X0.943000X-0.258000X-0.943000X0.258000X-0.943000X0.258000X0.943000X0*%
%ADD67RoundRect,0.150000X-0.150000X0.825000X-0.150000X-0.825000X0.150000X-0.825000X0.150000X0.825000X0*%
%ADD68RoundRect,0.147500X-0.147500X-0.172500X0.147500X-0.172500X0.147500X0.172500X-0.147500X0.172500X0*%
%ADD69RoundRect,0.218750X0.381250X-0.218750X0.381250X0.218750X-0.381250X0.218750X-0.381250X-0.218750X0*%
%ADD70RoundRect,0.250000X0.275000X0.250000X-0.275000X0.250000X-0.275000X-0.250000X0.275000X-0.250000X0*%
%ADD71RoundRect,0.250000X0.850000X0.275000X-0.850000X0.275000X-0.850000X-0.275000X0.850000X-0.275000X0*%
%ADD72RoundRect,0.150000X0.150000X-0.587500X0.150000X0.587500X-0.150000X0.587500X-0.150000X-0.587500X0*%
%ADD73RoundRect,0.006600X0.103400X-0.398400X0.103400X0.398400X-0.103400X0.398400X-0.103400X-0.398400X0*%
%ADD74RoundRect,0.022000X0.383000X-0.088000X0.383000X0.088000X-0.383000X0.088000X-0.383000X-0.088000X0*%
%ADD75R,4.000000X4.000000*%
G04 APERTURE END LIST*
D10*
X121409000Y-83986000D02*
X121663000Y-83605000D01*
X121282000Y-83097000D02*
X121409000Y-83097000D01*
X124050600Y-84849600D02*
X123161600Y-84849600D01*
X121409000Y-83097000D02*
X121409000Y-83986000D01*
X121409000Y-83986000D02*
X121155000Y-83605000D01*
X123161600Y-84849600D02*
X123415600Y-84595600D01*
X123161600Y-84849600D02*
X123415600Y-85103600D01*
X121028000Y-83097000D02*
X121282000Y-83097000D01*
D11*
G36*
X132634547Y-129691340D02*
G01*
X132676515Y-129689792D01*
X132715939Y-129685214D01*
X132751683Y-129677958D01*
X132784832Y-129668021D01*
X132814330Y-129655943D01*
X132841222Y-129641518D01*
X132864685Y-129625397D01*
X132885546Y-129607224D01*
X132903299Y-129587605D01*
X132918433Y-129566171D01*
X132930729Y-129543302D01*
X132940332Y-129518793D01*
X132951189Y-129465005D01*
X132952307Y-129439770D01*
X132950730Y-129410381D01*
X132945942Y-129383195D01*
X132938647Y-129360120D01*
X132928511Y-129338792D01*
X132900706Y-129302408D01*
X132860985Y-129271546D01*
X132805767Y-129245073D01*
X132729408Y-129222916D01*
X132712754Y-129219414D01*
X132629613Y-129202463D01*
X132590454Y-129193062D01*
X132558775Y-129181886D01*
X132537970Y-129171205D01*
X132521786Y-129159122D01*
X132511232Y-129147316D01*
X132503908Y-129134310D01*
X132498357Y-129105108D01*
X132499895Y-129088634D01*
X132504407Y-129073401D01*
X132521762Y-129047065D01*
X132550456Y-129026323D01*
X132591188Y-129012753D01*
X132634010Y-129008828D01*
X132662501Y-129010423D01*
X132688699Y-129015336D01*
X132709794Y-129022579D01*
X132728897Y-129032685D01*
X132744723Y-129044708D01*
X132758683Y-129059402D01*
X132778943Y-129093091D01*
X132790675Y-129111153D01*
X132803931Y-129124839D01*
X132816502Y-129133062D01*
X132830737Y-129138506D01*
X132857687Y-129141745D01*
X132874458Y-129140220D01*
X132889395Y-129135801D01*
X132902023Y-129128885D01*
X132912434Y-129119628D01*
X132920287Y-129108462D01*
X132925564Y-129095452D01*
X132928225Y-129075555D01*
X132926729Y-129056484D01*
X132922513Y-129039782D01*
X132922216Y-129038918D01*
X132900233Y-128993402D01*
X132867628Y-128954192D01*
X132824330Y-128921636D01*
X132770121Y-128896659D01*
X132705050Y-128880698D01*
X132634010Y-128875422D01*
X132595989Y-128876966D01*
X132559778Y-128881524D01*
X132525914Y-128888886D01*
X132494177Y-128898977D01*
X132465328Y-128911400D01*
X132438857Y-128926231D01*
X132415567Y-128942854D01*
X132394834Y-128961561D01*
X132377318Y-128981598D01*
X132362488Y-129003418D01*
X132350759Y-129026301D01*
X132341839Y-129050713D01*
X132335929Y-129076150D01*
X132332987Y-129102915D01*
X132332663Y-129115513D01*
X132334228Y-129143649D01*
X132338930Y-129170070D01*
X132346308Y-129193562D01*
X132356533Y-129215496D01*
X132384860Y-129253935D01*
X132424857Y-129286734D01*
X132478789Y-129314282D01*
X132549924Y-129336034D01*
X132567283Y-129339728D01*
X132650960Y-129356092D01*
X132692841Y-129366298D01*
X132726274Y-129378151D01*
X132747222Y-129388966D01*
X132763451Y-129401168D01*
X132773933Y-129413006D01*
X132781252Y-129426105D01*
X132787129Y-129455728D01*
X132787150Y-129457844D01*
X132785612Y-129473598D01*
X132781102Y-129488427D01*
X132763340Y-129515242D01*
X132733500Y-129537441D01*
X132691187Y-129552839D01*
X132638357Y-129558472D01*
X132607950Y-129556894D01*
X132579459Y-129552104D01*
X132555358Y-129544828D01*
X132533431Y-129534721D01*
X132515474Y-129522913D01*
X132499781Y-129508620D01*
X132487281Y-129492873D01*
X132477139Y-129474843D01*
X132475398Y-129470935D01*
X132463221Y-129452542D01*
X132449975Y-129438947D01*
X132437581Y-129430866D01*
X132423862Y-129425690D01*
X132399390Y-129422819D01*
X132382965Y-129424348D01*
X132368145Y-129428796D01*
X132355361Y-129435833D01*
X132344624Y-129445306D01*
X132336259Y-129456871D01*
X132330364Y-129470433D01*
X132326654Y-129495555D01*
X132332361Y-129531128D01*
X132335398Y-129539860D01*
X132357163Y-129580941D01*
X132391007Y-129617670D01*
X132437210Y-129648772D01*
X132495993Y-129672617D01*
X132530215Y-129681268D01*
X132567321Y-129687360D01*
X132634547Y-129691340D01*
G37*
G36*
X133121274Y-129019232D02*
G01*
X133153480Y-129013351D01*
X133180578Y-128996491D01*
X133191181Y-128984511D01*
X133199250Y-128970654D01*
X133204411Y-128955512D01*
X133206527Y-128939173D01*
X133206564Y-128936678D01*
X133200659Y-128905735D01*
X133183660Y-128879633D01*
X133171447Y-128869316D01*
X133157247Y-128861424D01*
X133141480Y-128856284D01*
X133124355Y-128854125D01*
X133121274Y-128854075D01*
X133088822Y-128859971D01*
X133061712Y-128876827D01*
X133051178Y-128888771D01*
X133043170Y-128902620D01*
X133038060Y-128917784D01*
X133035971Y-128934211D01*
X133035936Y-128936678D01*
X133041841Y-128967372D01*
X133058926Y-128993556D01*
X133071201Y-129003939D01*
X133085476Y-129011889D01*
X133101245Y-129017038D01*
X133118367Y-129019188D01*
X133121274Y-129019232D01*
G37*
G36*
X133121274Y-129689728D02*
G01*
X133139385Y-129688187D01*
X133155480Y-129683656D01*
X133168778Y-129676695D01*
X133179977Y-129667268D01*
X133195352Y-129642004D01*
X133201089Y-129607559D01*
X133201093Y-129606587D01*
X133201093Y-129163629D01*
X133199556Y-129144351D01*
X133195054Y-129127295D01*
X133188169Y-129113277D01*
X133178887Y-129101535D01*
X133154459Y-129085702D01*
X133121941Y-129079953D01*
X133121274Y-129079951D01*
X133103122Y-129081490D01*
X133087044Y-129086011D01*
X133073785Y-129092952D01*
X133062637Y-129102338D01*
X133047271Y-129127552D01*
X133041416Y-129162062D01*
X133041407Y-129163629D01*
X133041407Y-129606587D01*
X133042946Y-129625987D01*
X133047470Y-129643090D01*
X133054339Y-129656984D01*
X133063615Y-129668589D01*
X133088037Y-129684131D01*
X133121274Y-129689728D01*
G37*
G36*
X133386620Y-129689728D02*
G01*
X133404703Y-129688174D01*
X133420991Y-129683550D01*
X133434375Y-129676488D01*
X133445727Y-129666830D01*
X133454514Y-129655150D01*
X133461026Y-129641158D01*
X133466438Y-129606587D01*
X133466438Y-129324389D01*
X133467971Y-129302997D01*
X133472446Y-129283327D01*
X133479560Y-129265839D01*
X133489180Y-129250463D01*
X133500855Y-129237663D01*
X133514596Y-129227297D01*
X133529941Y-129219682D01*
X133546964Y-129214802D01*
X133568141Y-129212819D01*
X133588110Y-129214363D01*
X133605979Y-129218918D01*
X133620878Y-129225917D01*
X133633681Y-129235422D01*
X133652294Y-129260924D01*
X133661823Y-129295816D01*
X133662761Y-129312910D01*
X133662761Y-129606587D01*
X133664295Y-129626810D01*
X133668787Y-129644322D01*
X133675520Y-129658208D01*
X133684555Y-129669625D01*
X133708197Y-129684594D01*
X133739355Y-129689728D01*
X133757481Y-129688174D01*
X133773495Y-129683550D01*
X133786284Y-129676589D01*
X133796993Y-129667094D01*
X133811374Y-129641544D01*
X133816438Y-129606587D01*
X133816438Y-129322191D01*
X133817973Y-129300736D01*
X133822463Y-129281117D01*
X133829542Y-129263921D01*
X133839122Y-129248877D01*
X133850716Y-129236471D01*
X133864386Y-129226479D01*
X133879747Y-129219173D01*
X133896840Y-129214565D01*
X133917066Y-129212819D01*
X133937818Y-129214371D01*
X133956167Y-129218984D01*
X133970961Y-129225924D01*
X133983597Y-129235378D01*
X134001821Y-129260775D01*
X134011527Y-129296502D01*
X134012761Y-129317844D01*
X134012761Y-129606587D01*
X134014288Y-129625991D01*
X134018726Y-129642914D01*
X134025507Y-129656758D01*
X134034573Y-129668240D01*
X134058565Y-129683860D01*
X134090646Y-129689719D01*
X134092091Y-129689728D01*
X134110377Y-129688174D01*
X134126810Y-129683550D01*
X134140257Y-129676507D01*
X134151648Y-129666879D01*
X134160452Y-129655246D01*
X134166978Y-129641315D01*
X134172447Y-129606587D01*
X134172447Y-129277934D01*
X134170905Y-129249610D01*
X134166369Y-129223016D01*
X134159086Y-129198602D01*
X134149141Y-129176125D01*
X134136827Y-129155946D01*
X134122159Y-129137902D01*
X134105386Y-129122219D01*
X134086533Y-129108878D01*
X134065709Y-129097997D01*
X134043040Y-129089698D01*
X133992244Y-129081304D01*
X133980521Y-129081026D01*
X133953817Y-129082566D01*
X133928379Y-129087096D01*
X133904372Y-129094492D01*
X133882033Y-129104612D01*
X133861669Y-129117242D01*
X133843348Y-129132295D01*
X133827440Y-129149421D01*
X133813907Y-129168652D01*
X133798413Y-129201340D01*
X133795091Y-129201340D01*
X133787513Y-129178098D01*
X133777374Y-129157147D01*
X133765174Y-129139077D01*
X133750742Y-129123313D01*
X133715998Y-129099217D01*
X133673081Y-129084875D01*
X133631595Y-129081026D01*
X133606842Y-129082562D01*
X133583377Y-129087065D01*
X133561191Y-129094441D01*
X133540624Y-129104502D01*
X133504685Y-129132316D01*
X133477083Y-129169358D01*
X133464240Y-129198067D01*
X133460967Y-129198067D01*
X133460967Y-129161430D01*
X133459442Y-129142092D01*
X133455018Y-129125316D01*
X133448276Y-129111676D01*
X133439284Y-129100436D01*
X133415513Y-129085310D01*
X133383884Y-129079951D01*
X133366072Y-129081509D01*
X133350073Y-129086159D01*
X133337081Y-129093218D01*
X133326110Y-129102889D01*
X133317692Y-129114596D01*
X133311532Y-129128659D01*
X133306752Y-129161430D01*
X133306752Y-129606587D01*
X133308280Y-129625991D01*
X133312726Y-129642914D01*
X133319512Y-129656733D01*
X133328591Y-129668200D01*
X133352641Y-129683809D01*
X133384921Y-129689715D01*
X133386620Y-129689728D01*
G37*
G36*
X134589567Y-129082309D02*
G01*
X134649946Y-129095953D01*
X134702223Y-129119869D01*
X134746442Y-129153447D01*
X134765528Y-129173841D01*
X134782419Y-129196518D01*
X134797213Y-129221767D01*
X134809579Y-129249234D01*
X134819597Y-129279462D01*
X134826905Y-129311861D01*
X134831479Y-129347153D01*
X134833026Y-129384571D01*
X134830103Y-129436545D01*
X134816631Y-129501594D01*
X134793346Y-129556821D01*
X134761050Y-129602732D01*
X134741581Y-129622333D01*
X134720028Y-129639577D01*
X134696086Y-129654624D01*
X134670150Y-129667137D01*
X134641584Y-129677273D01*
X134611093Y-129684633D01*
X134577786Y-129689250D01*
X134542621Y-129690802D01*
X134494906Y-129687881D01*
X134434405Y-129674295D01*
X134382309Y-129650561D01*
X134338378Y-129617236D01*
X134319420Y-129596947D01*
X134302653Y-129574363D01*
X134287934Y-129549113D01*
X134275636Y-129521604D01*
X134265638Y-129491162D01*
X134258346Y-129458473D01*
X134253764Y-129422641D01*
X134252238Y-129385108D01*
X134414100Y-129385108D01*
X134415937Y-129422590D01*
X134426987Y-129476671D01*
X134446020Y-129516963D01*
X134471601Y-129545250D01*
X134486809Y-129555331D01*
X134503541Y-129562657D01*
X134522353Y-129567275D01*
X134542621Y-129568828D01*
X134559183Y-129567789D01*
X134594458Y-129557239D01*
X134610178Y-129547609D01*
X134624278Y-129535183D01*
X134637236Y-129519205D01*
X134648220Y-129500282D01*
X134657601Y-129477069D01*
X134664535Y-129450699D01*
X134669064Y-129419566D01*
X134670604Y-129385108D01*
X134668775Y-129348152D01*
X134657638Y-129294032D01*
X134638428Y-129253464D01*
X134612732Y-129224962D01*
X134597587Y-129214848D01*
X134580968Y-129207494D01*
X134562477Y-129202891D01*
X134542621Y-129201340D01*
X134525872Y-129202432D01*
X134490655Y-129213219D01*
X134474851Y-129223041D01*
X134460650Y-129235684D01*
X134447601Y-129251873D01*
X134436528Y-129270992D01*
X134427114Y-129294238D01*
X134420154Y-129320553D01*
X134415639Y-129351261D01*
X134414100Y-129385108D01*
X134252238Y-129385108D01*
X134252216Y-129384571D01*
X134255119Y-129333868D01*
X134268692Y-129269347D01*
X134292263Y-129214111D01*
X134324985Y-129167947D01*
X134344667Y-129148211D01*
X134366431Y-129130827D01*
X134390490Y-129115695D01*
X134416508Y-129103101D01*
X134444955Y-129092946D01*
X134475255Y-129085567D01*
X134508066Y-129080964D01*
X134542621Y-129079414D01*
X134589567Y-129082309D01*
G37*
G36*
X134994324Y-129689728D02*
G01*
X135012569Y-129688170D01*
X135028982Y-129683521D01*
X135042343Y-129676462D01*
X135053663Y-129666792D01*
X135062375Y-129655126D01*
X135068821Y-129641120D01*
X135074142Y-129606587D01*
X135074142Y-129341877D01*
X135075682Y-129318288D01*
X135080207Y-129296533D01*
X135087345Y-129277319D01*
X135097048Y-129260243D01*
X135108776Y-129245921D01*
X135122672Y-129233971D01*
X135138246Y-129224752D01*
X135155669Y-129218142D01*
X135191183Y-129213357D01*
X135213355Y-129214905D01*
X135232985Y-129219495D01*
X135248975Y-129226427D01*
X135262754Y-129235852D01*
X135283270Y-129261177D01*
X135295603Y-129296667D01*
X135298895Y-129333671D01*
X135298895Y-129606587D01*
X135300420Y-129625996D01*
X135304849Y-129642884D01*
X135311616Y-129656684D01*
X135320650Y-129668117D01*
X135344611Y-129683734D01*
X135376754Y-129689710D01*
X135378762Y-129689728D01*
X135396844Y-129688170D01*
X135413188Y-129683521D01*
X135426593Y-129676432D01*
X135437982Y-129666714D01*
X135446754Y-129655003D01*
X135453252Y-129640942D01*
X135458581Y-129606587D01*
X135458581Y-129300356D01*
X135457027Y-129266824D01*
X135452407Y-129235744D01*
X135445225Y-129208562D01*
X135435376Y-129183765D01*
X135423514Y-129162370D01*
X135409306Y-129143302D01*
X135393294Y-129127073D01*
X135375148Y-129113177D01*
X135332842Y-129092726D01*
X135281540Y-129082212D01*
X135255175Y-129081026D01*
X135225462Y-129082578D01*
X135198157Y-129087194D01*
X135174424Y-129094358D01*
X135152814Y-129104175D01*
X135133756Y-129116256D01*
X135116674Y-129130761D01*
X135088092Y-129167260D01*
X135074680Y-129193671D01*
X135071407Y-129193671D01*
X135071407Y-129160893D01*
X135069876Y-129142536D01*
X135065412Y-129126258D01*
X135058501Y-129112647D01*
X135049212Y-129101227D01*
X135024514Y-129085581D01*
X134991588Y-129079951D01*
X134973743Y-129081489D01*
X134957988Y-129086000D01*
X134945046Y-129092919D01*
X134934230Y-129102264D01*
X134919538Y-129127362D01*
X134914456Y-129160356D01*
X134914456Y-129606587D01*
X134915980Y-129625849D01*
X134920393Y-129642631D01*
X134927166Y-129656442D01*
X134936194Y-129667897D01*
X134960168Y-129683641D01*
X134992157Y-129689707D01*
X134994324Y-129689728D01*
G37*
G36*
X135867674Y-129082038D02*
G01*
X135928621Y-129094997D01*
X135978559Y-129117155D01*
X136017551Y-129146965D01*
X136045837Y-129183436D01*
X136055979Y-129204046D01*
X136063369Y-129226178D01*
X136067935Y-129249998D01*
X136069481Y-129275199D01*
X136069481Y-129609323D01*
X136064829Y-129641128D01*
X136058676Y-129655120D01*
X136050238Y-129666769D01*
X136039159Y-129676449D01*
X136026034Y-129683510D01*
X136009849Y-129688169D01*
X135991860Y-129689728D01*
X135966660Y-129686598D01*
X135941083Y-129673925D01*
X135931250Y-129664037D01*
X135923571Y-129651784D01*
X135918042Y-129636469D01*
X135915266Y-129618604D01*
X135915266Y-129588514D01*
X135911993Y-129588514D01*
X135906227Y-129598553D01*
X135892241Y-129617692D01*
X135875679Y-129634722D01*
X135855830Y-129650278D01*
X135833918Y-129663280D01*
X135809854Y-129673799D01*
X135784502Y-129681425D01*
X135732621Y-129687530D01*
X135725318Y-129687426D01*
X135697854Y-129685105D01*
X135671817Y-129679842D01*
X135625378Y-129661339D01*
X135587652Y-129633639D01*
X135559718Y-129598382D01*
X135542328Y-129556820D01*
X135537834Y-129533966D01*
X135536299Y-129509770D01*
X135536301Y-129508816D01*
X135537313Y-129501026D01*
X135695447Y-129501026D01*
X135700278Y-129526894D01*
X135707127Y-129539396D01*
X135716689Y-129550066D01*
X135729624Y-129559279D01*
X135745148Y-129566127D01*
X135763994Y-129570615D01*
X135785133Y-129572149D01*
X135823798Y-129567305D01*
X135861266Y-129551458D01*
X135889306Y-129527299D01*
X135906588Y-129497414D01*
X135912530Y-129463315D01*
X135912530Y-129420670D01*
X135788943Y-129428290D01*
X135747717Y-129436156D01*
X135718782Y-129451565D01*
X135701575Y-129472949D01*
X135696995Y-129486262D01*
X135695447Y-129501026D01*
X135537313Y-129501026D01*
X135542245Y-129463076D01*
X135549367Y-129442795D01*
X135559194Y-129424136D01*
X135572068Y-129406667D01*
X135587703Y-129390960D01*
X135607214Y-129376273D01*
X135629704Y-129363615D01*
X135657137Y-129352303D01*
X135687871Y-129343403D01*
X135724544Y-129336561D01*
X135764861Y-129332596D01*
X135912530Y-129323852D01*
X135912530Y-129285017D01*
X135912223Y-129276690D01*
X135904115Y-129245142D01*
X135896046Y-129232042D01*
X135885504Y-129220987D01*
X135871847Y-129211618D01*
X135855763Y-129204708D01*
X135836115Y-129200149D01*
X135814100Y-129198604D01*
X135774471Y-129203361D01*
X135757083Y-129209848D01*
X135740774Y-129219480D01*
X135720679Y-129236814D01*
X135700332Y-129260398D01*
X135695042Y-129265969D01*
X135669152Y-129283703D01*
X135653806Y-129288389D01*
X135636927Y-129289951D01*
X135618282Y-129287870D01*
X135592632Y-129275917D01*
X135576106Y-129255555D01*
X135571719Y-129242847D01*
X135570200Y-129228695D01*
X135570213Y-129227144D01*
X135572424Y-129209692D01*
X135578406Y-129192596D01*
X135597732Y-129159566D01*
X135613351Y-129143008D01*
X135632071Y-129128166D01*
X135655305Y-129114278D01*
X135681599Y-129102560D01*
X135712192Y-129092714D01*
X135745579Y-129085493D01*
X135782258Y-129080955D01*
X135821232Y-129079414D01*
X135867674Y-129082038D01*
G37*
G36*
X136410981Y-129690802D02*
G01*
X136448494Y-129689259D01*
X136483735Y-129684708D01*
X136515803Y-129677467D01*
X136545349Y-129667577D01*
X136571324Y-129655617D01*
X136594628Y-129641389D01*
X136614332Y-129625700D01*
X136631295Y-129608103D01*
X136644906Y-129589446D01*
X136655727Y-129569182D01*
X136663479Y-129547933D01*
X136668343Y-129525302D01*
X136670220Y-129498828D01*
X136668635Y-129473641D01*
X136663789Y-129450849D01*
X136656576Y-129432371D01*
X136646548Y-129415607D01*
X136618632Y-129387560D01*
X136576720Y-129363926D01*
X136514072Y-129343668D01*
X136494121Y-129339142D01*
X136397352Y-129318381D01*
X136368188Y-129310501D01*
X136345973Y-129300915D01*
X136332680Y-129291777D01*
X136323404Y-129281379D01*
X136315986Y-129259282D01*
X136315824Y-129254927D01*
X136317353Y-129242157D01*
X136321799Y-129230514D01*
X136339124Y-129210763D01*
X136368292Y-129196747D01*
X136407708Y-129191521D01*
X136430098Y-129193034D01*
X136449888Y-129197372D01*
X136483325Y-129213504D01*
X136513334Y-129240647D01*
X136524749Y-129254389D01*
X136545640Y-129270544D01*
X136574558Y-129278619D01*
X136582733Y-129279009D01*
X136600033Y-129277490D01*
X136614456Y-129273112D01*
X136625408Y-129266618D01*
X136633827Y-129258050D01*
X136643091Y-129235604D01*
X136643989Y-129224299D01*
X136640130Y-129200802D01*
X136624201Y-129167804D01*
X136595088Y-129136539D01*
X136552254Y-129109374D01*
X136525796Y-129098280D01*
X136496653Y-129089508D01*
X136464884Y-129083292D01*
X136430848Y-129079942D01*
X136410444Y-129079414D01*
X136372909Y-129080957D01*
X136337920Y-129085508D01*
X136306540Y-129092690D01*
X136277841Y-129102484D01*
X136252906Y-129114266D01*
X136230704Y-129128267D01*
X136212090Y-129143696D01*
X136196216Y-129160993D01*
X136183574Y-129179422D01*
X136173698Y-129199444D01*
X136166774Y-129220635D01*
X136162723Y-129243221D01*
X136161609Y-129263671D01*
X136163171Y-129287638D01*
X136167854Y-129310041D01*
X136175226Y-129329931D01*
X136185427Y-129348348D01*
X136213993Y-129380403D01*
X136254974Y-129407075D01*
X136311096Y-129428079D01*
X136334435Y-129433761D01*
X136432865Y-129454571D01*
X136463816Y-129462993D01*
X136486157Y-129473084D01*
X136497524Y-129481798D01*
X136505143Y-129491897D01*
X136510525Y-129514605D01*
X136510534Y-129515778D01*
X136509000Y-129528838D01*
X136504510Y-129540585D01*
X136487314Y-129559806D01*
X136458058Y-129573324D01*
X136414840Y-129578695D01*
X136386337Y-129577114D01*
X136361416Y-129572301D01*
X136341984Y-129565297D01*
X136324525Y-129555628D01*
X136294175Y-129528197D01*
X136286857Y-129519100D01*
X136270762Y-129503384D01*
X136254334Y-129492229D01*
X136239652Y-129486162D01*
X136224261Y-129483282D01*
X136217394Y-129483001D01*
X136201848Y-129484525D01*
X136187872Y-129488943D01*
X136175918Y-129495925D01*
X136166129Y-129505283D01*
X136158957Y-129516496D01*
X136154439Y-129529551D01*
X136152865Y-129544257D01*
X136158874Y-129573761D01*
X136179686Y-129608608D01*
X136212788Y-129639234D01*
X136259064Y-129664437D01*
X136319193Y-129682295D01*
X136393163Y-129690515D01*
X136410981Y-129690802D01*
G37*
G36*
X132412530Y-131022200D02*
G01*
X132872977Y-131022200D01*
X132891193Y-131020662D01*
X132907347Y-131016149D01*
X132920514Y-131009264D01*
X132931365Y-130999974D01*
X132939374Y-130988946D01*
X132944855Y-130975945D01*
X132947911Y-130953860D01*
X132946380Y-130937790D01*
X132941915Y-130923636D01*
X132934977Y-130911870D01*
X132925644Y-130902128D01*
X132900183Y-130889073D01*
X132872977Y-130885521D01*
X132527911Y-130885521D01*
X132527911Y-130881125D01*
X132901993Y-130374174D01*
X132920104Y-130344859D01*
X132925294Y-130329352D01*
X132927150Y-130311844D01*
X132925615Y-130294517D01*
X132921125Y-130279013D01*
X132914111Y-130265871D01*
X132904634Y-130254736D01*
X132879012Y-130239091D01*
X132844404Y-130233109D01*
X132842886Y-130233100D01*
X132403200Y-130233100D01*
X132385017Y-130234638D01*
X132368945Y-130239150D01*
X132355910Y-130246018D01*
X132345191Y-130255284D01*
X132337274Y-130266312D01*
X132331865Y-130279318D01*
X132328853Y-130301439D01*
X132330380Y-130317373D01*
X132334815Y-130331427D01*
X132341753Y-130343233D01*
X132351060Y-130353016D01*
X132376433Y-130366203D01*
X132403200Y-130369778D01*
X132729704Y-130369778D01*
X132729704Y-130373637D01*
X132352886Y-130882200D01*
X132339450Y-130903280D01*
X132331633Y-130923246D01*
X132328853Y-130946191D01*
X132330384Y-130962651D01*
X132334849Y-130977453D01*
X132341913Y-130990229D01*
X132351444Y-131001086D01*
X132377427Y-131016505D01*
X132412530Y-131022200D01*
G37*
G36*
X133347088Y-130426038D02*
G01*
X133408034Y-130438997D01*
X133457972Y-130461155D01*
X133496965Y-130490965D01*
X133525250Y-130527436D01*
X133535393Y-130548046D01*
X133542783Y-130570178D01*
X133547349Y-130593998D01*
X133548895Y-130619199D01*
X133548895Y-130953323D01*
X133544242Y-130985128D01*
X133538090Y-130999120D01*
X133529652Y-131010769D01*
X133518573Y-131020449D01*
X133505447Y-131027510D01*
X133489262Y-131032169D01*
X133471274Y-131033728D01*
X133446074Y-131030598D01*
X133420497Y-131017925D01*
X133410664Y-131008037D01*
X133402985Y-130995784D01*
X133397456Y-130980469D01*
X133394680Y-130962604D01*
X133394680Y-130932514D01*
X133391407Y-130932514D01*
X133385641Y-130942553D01*
X133371654Y-130961692D01*
X133355093Y-130978722D01*
X133335243Y-130994278D01*
X133313332Y-131007280D01*
X133289268Y-131017799D01*
X133263916Y-131025425D01*
X133212035Y-131031530D01*
X133204732Y-131031426D01*
X133177268Y-131029105D01*
X133151230Y-131023842D01*
X133104791Y-131005339D01*
X133067066Y-130977639D01*
X133039131Y-130942382D01*
X133021742Y-130900820D01*
X133017248Y-130877966D01*
X133015712Y-130853770D01*
X133015715Y-130852816D01*
X133016727Y-130845026D01*
X133174861Y-130845026D01*
X133179691Y-130870894D01*
X133186541Y-130883396D01*
X133196103Y-130894066D01*
X133209038Y-130903279D01*
X133224561Y-130910127D01*
X133243408Y-130914615D01*
X133264547Y-130916149D01*
X133303212Y-130911305D01*
X133340680Y-130895458D01*
X133368719Y-130871299D01*
X133386001Y-130841414D01*
X133391944Y-130807315D01*
X133391944Y-130764670D01*
X133268357Y-130772290D01*
X133227131Y-130780156D01*
X133198196Y-130795565D01*
X133180989Y-130816949D01*
X133176409Y-130830262D01*
X133174861Y-130845026D01*
X133016727Y-130845026D01*
X133021659Y-130807076D01*
X133028781Y-130786795D01*
X133038608Y-130768136D01*
X133051482Y-130750667D01*
X133067117Y-130734960D01*
X133086627Y-130720273D01*
X133109118Y-130707615D01*
X133136551Y-130696303D01*
X133167285Y-130687403D01*
X133203958Y-130680561D01*
X133244275Y-130676596D01*
X133391944Y-130667852D01*
X133391944Y-130629017D01*
X133391637Y-130620690D01*
X133383529Y-130589142D01*
X133375460Y-130576042D01*
X133364918Y-130564987D01*
X133351261Y-130555618D01*
X133335177Y-130548708D01*
X133315528Y-130544149D01*
X133293514Y-130542604D01*
X133253885Y-130547361D01*
X133236497Y-130553848D01*
X133220188Y-130563480D01*
X133200093Y-130580814D01*
X133179746Y-130604398D01*
X133174455Y-130609969D01*
X133148566Y-130627703D01*
X133133220Y-130632389D01*
X133116340Y-130633951D01*
X133097695Y-130631870D01*
X133072045Y-130619917D01*
X133055520Y-130599555D01*
X133051133Y-130586847D01*
X133049613Y-130572695D01*
X133049627Y-130571144D01*
X133051837Y-130553692D01*
X133057820Y-130536596D01*
X133077145Y-130503566D01*
X133092765Y-130487008D01*
X133111485Y-130472166D01*
X133134719Y-130458278D01*
X133161012Y-130446560D01*
X133191606Y-130436714D01*
X133224993Y-130429493D01*
X133261672Y-130424955D01*
X133300646Y-130423414D01*
X133347088Y-130426038D01*
G37*
G36*
X133735105Y-131033728D02*
G01*
X133753365Y-131032170D01*
X133769785Y-131027521D01*
X133783142Y-131020464D01*
X133794456Y-131010799D01*
X133803162Y-130999137D01*
X133809603Y-130985136D01*
X133814924Y-130950587D01*
X133814924Y-130304712D01*
X133813398Y-130285266D01*
X133808968Y-130268307D01*
X133802189Y-130254401D01*
X133793136Y-130242861D01*
X133769161Y-130227087D01*
X133737150Y-130221053D01*
X133735105Y-130221034D01*
X133717167Y-130222589D01*
X133700936Y-130227222D01*
X133687529Y-130234317D01*
X133676122Y-130244035D01*
X133667282Y-130255780D01*
X133660713Y-130269864D01*
X133655238Y-130304712D01*
X133655238Y-130950587D01*
X133656762Y-130969849D01*
X133661175Y-130986631D01*
X133667947Y-131000442D01*
X133676975Y-131011897D01*
X133700950Y-131027641D01*
X133732938Y-131033707D01*
X133735105Y-131033728D01*
G37*
G36*
X134231051Y-130426038D02*
G01*
X134291998Y-130438997D01*
X134341936Y-130461155D01*
X134380929Y-130490965D01*
X134409214Y-130527436D01*
X134419357Y-130548046D01*
X134426747Y-130570178D01*
X134431313Y-130593998D01*
X134432858Y-130619199D01*
X134432858Y-130953323D01*
X134428206Y-130985128D01*
X134422054Y-130999120D01*
X134413616Y-131010769D01*
X134402537Y-131020449D01*
X134389411Y-131027510D01*
X134373226Y-131032169D01*
X134355238Y-131033728D01*
X134330037Y-131030598D01*
X134304461Y-131017925D01*
X134294627Y-131008037D01*
X134286948Y-130995784D01*
X134281419Y-130980469D01*
X134278643Y-130962604D01*
X134278643Y-130932514D01*
X134275370Y-130932514D01*
X134269605Y-130942553D01*
X134255618Y-130961692D01*
X134239057Y-130978722D01*
X134219207Y-130994278D01*
X134197296Y-131007280D01*
X134173231Y-131017799D01*
X134147879Y-131025425D01*
X134095999Y-131031530D01*
X134088696Y-131031426D01*
X134061231Y-131029105D01*
X134035194Y-131023842D01*
X133988755Y-131005339D01*
X133951029Y-130977639D01*
X133923095Y-130942382D01*
X133905705Y-130900820D01*
X133901211Y-130877966D01*
X133899676Y-130853770D01*
X133899678Y-130852816D01*
X133900690Y-130845026D01*
X134058825Y-130845026D01*
X134063655Y-130870894D01*
X134070504Y-130883396D01*
X134080067Y-130894066D01*
X134093001Y-130903279D01*
X134108525Y-130910127D01*
X134127372Y-130914615D01*
X134148511Y-130916149D01*
X134187176Y-130911305D01*
X134224644Y-130895458D01*
X134252683Y-130871299D01*
X134269965Y-130841414D01*
X134275908Y-130807315D01*
X134275908Y-130764670D01*
X134152321Y-130772290D01*
X134111095Y-130780156D01*
X134082160Y-130795565D01*
X134064952Y-130816949D01*
X134060372Y-130830262D01*
X134058825Y-130845026D01*
X133900690Y-130845026D01*
X133905623Y-130807076D01*
X133912744Y-130786795D01*
X133922571Y-130768136D01*
X133935446Y-130750667D01*
X133951080Y-130734960D01*
X133970591Y-130720273D01*
X133993082Y-130707615D01*
X134020515Y-130696303D01*
X134051249Y-130687403D01*
X134087922Y-130680561D01*
X134128239Y-130676596D01*
X134275908Y-130667852D01*
X134275908Y-130629017D01*
X134275601Y-130620690D01*
X134267492Y-130589142D01*
X134259423Y-130576042D01*
X134248881Y-130564987D01*
X134235225Y-130555618D01*
X134219141Y-130548708D01*
X134199492Y-130544149D01*
X134177478Y-130542604D01*
X134137849Y-130547361D01*
X134120461Y-130553848D01*
X134104151Y-130563480D01*
X134084057Y-130580814D01*
X134063710Y-130604398D01*
X134058419Y-130609969D01*
X134032529Y-130627703D01*
X134017184Y-130632389D01*
X134000304Y-130633951D01*
X133981659Y-130631870D01*
X133956009Y-130619917D01*
X133939483Y-130599555D01*
X133935097Y-130586847D01*
X133933577Y-130572695D01*
X133933591Y-130571144D01*
X133935801Y-130553692D01*
X133941784Y-130536596D01*
X133961109Y-130503566D01*
X133976729Y-130487008D01*
X133995449Y-130472166D01*
X134018683Y-130458278D01*
X134044976Y-130446560D01*
X134075569Y-130436714D01*
X134108957Y-130429493D01*
X134145635Y-130424955D01*
X134184610Y-130423414D01*
X134231051Y-130426038D01*
G37*
G36*
X134578036Y-130872381D02*
G01*
X134579598Y-130901338D01*
X134584276Y-130927376D01*
X134591280Y-130948633D01*
X134600878Y-130967420D01*
X134612316Y-130982882D01*
X134626054Y-130996122D01*
X134660079Y-131015767D01*
X134705040Y-131026807D01*
X134738846Y-131028794D01*
X134744317Y-131028794D01*
X134772535Y-131027234D01*
X134797513Y-131022570D01*
X134816659Y-131015815D01*
X134832528Y-131006628D01*
X134843459Y-130996610D01*
X134851408Y-130984753D01*
X134855899Y-130972212D01*
X134857497Y-130958127D01*
X134857499Y-130957671D01*
X134855948Y-130941734D01*
X134851348Y-130928640D01*
X134844660Y-130919117D01*
X134835617Y-130911591D01*
X134809020Y-130901601D01*
X134796780Y-130899736D01*
X134786424Y-130898613D01*
X134769840Y-130895679D01*
X134756934Y-130889597D01*
X134749079Y-130882202D01*
X134743364Y-130872395D01*
X134737852Y-130843453D01*
X134737722Y-130836819D01*
X134737722Y-130556282D01*
X134794045Y-130556282D01*
X134809934Y-130554753D01*
X134823743Y-130550303D01*
X134834842Y-130543498D01*
X134843706Y-130534385D01*
X134854037Y-130510250D01*
X134855301Y-130496149D01*
X134853768Y-130480687D01*
X134849292Y-130467175D01*
X134842425Y-130456264D01*
X134833192Y-130447507D01*
X134808551Y-130437232D01*
X134794045Y-130435968D01*
X134737722Y-130435968D01*
X134737722Y-130370902D01*
X134736183Y-130351648D01*
X134731658Y-130334603D01*
X134724763Y-130320671D01*
X134715445Y-130309003D01*
X134704216Y-130299987D01*
X134690932Y-130293356D01*
X134657904Y-130287761D01*
X134639765Y-130289299D01*
X134623696Y-130293810D01*
X134610413Y-130300747D01*
X134599248Y-130310119D01*
X134583860Y-130335275D01*
X134578043Y-130369571D01*
X134578036Y-130370902D01*
X134578036Y-130435968D01*
X134547408Y-130435968D01*
X134531328Y-130437501D01*
X134517319Y-130441983D01*
X134506130Y-130448803D01*
X134497183Y-130457966D01*
X134486857Y-130482136D01*
X134485615Y-130496149D01*
X134487145Y-130511603D01*
X134491601Y-130525044D01*
X134498442Y-130535892D01*
X134507617Y-130544588D01*
X134532237Y-130554926D01*
X134547408Y-130556282D01*
X134578036Y-130556282D01*
X134578036Y-130872381D01*
G37*
G36*
X135240620Y-130426309D02*
G01*
X135300999Y-130439953D01*
X135353277Y-130463869D01*
X135397496Y-130497447D01*
X135416581Y-130517841D01*
X135433473Y-130540518D01*
X135448267Y-130565767D01*
X135460632Y-130593234D01*
X135470650Y-130623462D01*
X135477959Y-130655861D01*
X135482533Y-130691153D01*
X135484079Y-130728571D01*
X135481156Y-130780545D01*
X135467685Y-130845594D01*
X135444400Y-130900821D01*
X135412104Y-130946732D01*
X135392635Y-130966333D01*
X135371082Y-130983577D01*
X135347139Y-130998624D01*
X135321203Y-131011137D01*
X135292638Y-131021273D01*
X135262147Y-131028633D01*
X135228840Y-131033250D01*
X135193675Y-131034802D01*
X135145960Y-131031881D01*
X135085459Y-131018295D01*
X135033362Y-130994561D01*
X134989432Y-130961236D01*
X134970474Y-130940947D01*
X134953706Y-130918363D01*
X134938988Y-130893113D01*
X134926690Y-130865604D01*
X134916692Y-130835162D01*
X134909400Y-130802473D01*
X134904818Y-130766641D01*
X134903292Y-130729108D01*
X135065154Y-130729108D01*
X135066991Y-130766590D01*
X135078041Y-130820671D01*
X135097074Y-130860963D01*
X135122655Y-130889250D01*
X135137863Y-130899331D01*
X135154595Y-130906657D01*
X135173407Y-130911275D01*
X135193675Y-130912828D01*
X135210237Y-130911789D01*
X135245512Y-130901239D01*
X135261232Y-130891609D01*
X135275332Y-130879183D01*
X135288290Y-130863205D01*
X135299273Y-130844282D01*
X135308655Y-130821069D01*
X135315588Y-130794699D01*
X135320118Y-130763566D01*
X135321658Y-130729108D01*
X135319829Y-130692152D01*
X135308692Y-130638032D01*
X135289482Y-130597464D01*
X135263786Y-130568962D01*
X135248640Y-130558848D01*
X135232022Y-130551494D01*
X135213531Y-130546891D01*
X135193675Y-130545340D01*
X135176925Y-130546432D01*
X135141708Y-130557219D01*
X135125905Y-130567041D01*
X135111704Y-130579684D01*
X135098655Y-130595873D01*
X135087581Y-130614992D01*
X135078168Y-130638238D01*
X135071207Y-130664553D01*
X135066692Y-130695261D01*
X135065154Y-130729108D01*
X134903292Y-130729108D01*
X134903270Y-130728571D01*
X134906173Y-130677868D01*
X134919745Y-130613347D01*
X134943317Y-130558111D01*
X134976039Y-130511947D01*
X134995721Y-130492211D01*
X135017485Y-130474827D01*
X135041544Y-130459695D01*
X135067562Y-130447101D01*
X135096009Y-130436946D01*
X135126309Y-130429567D01*
X135159120Y-130424964D01*
X135193675Y-130423414D01*
X135240620Y-130426309D01*
G37*
G36*
X135645377Y-131033728D02*
G01*
X135663645Y-131032181D01*
X135679908Y-131027605D01*
X135693208Y-131020625D01*
X135704415Y-131011132D01*
X135719632Y-130985774D01*
X135725196Y-130950587D01*
X135725196Y-130690273D01*
X135726821Y-130662361D01*
X135731942Y-130638108D01*
X135738841Y-130621405D01*
X135748428Y-130607298D01*
X135759382Y-130597005D01*
X135772755Y-130588925D01*
X135807081Y-130579720D01*
X135823626Y-130578703D01*
X135847749Y-130576738D01*
X135868141Y-130571793D01*
X135893089Y-130557943D01*
X135902560Y-130547771D01*
X135909522Y-130535640D01*
X135915955Y-130505226D01*
X135916047Y-130500497D01*
X135914482Y-130480611D01*
X135909781Y-130463871D01*
X135903112Y-130451841D01*
X135894043Y-130442204D01*
X135893089Y-130441439D01*
X135870106Y-130429875D01*
X135843312Y-130426687D01*
X135824433Y-130428232D01*
X135806486Y-130432795D01*
X135774035Y-130450592D01*
X135747142Y-130479700D01*
X135727510Y-130519941D01*
X135721386Y-130542604D01*
X135718113Y-130542604D01*
X135718113Y-130504356D01*
X135716586Y-130485549D01*
X135712152Y-130469034D01*
X135705330Y-130455386D01*
X135696206Y-130444065D01*
X135672174Y-130428911D01*
X135642642Y-130423951D01*
X135625139Y-130425495D01*
X135609435Y-130430051D01*
X135596368Y-130437082D01*
X135585338Y-130446640D01*
X135576737Y-130458295D01*
X135570445Y-130472167D01*
X135565510Y-130504356D01*
X135565510Y-130950587D01*
X135567041Y-130969843D01*
X135571506Y-130986745D01*
X135578336Y-131000614D01*
X135587502Y-131012172D01*
X135611742Y-131027878D01*
X135644147Y-131033721D01*
X135645377Y-131033728D01*
G37*
G36*
X136055315Y-130363232D02*
G01*
X136087520Y-130357351D01*
X136114618Y-130340491D01*
X136125222Y-130328511D01*
X136133290Y-130314654D01*
X136138451Y-130299512D01*
X136140568Y-130283173D01*
X136140604Y-130280678D01*
X136134700Y-130249735D01*
X136117701Y-130223633D01*
X136105488Y-130213316D01*
X136091287Y-130205424D01*
X136075521Y-130200284D01*
X136058395Y-130198125D01*
X136055315Y-130198075D01*
X136022862Y-130203971D01*
X135995753Y-130220827D01*
X135985219Y-130232771D01*
X135977211Y-130246620D01*
X135972101Y-130261784D01*
X135970011Y-130278211D01*
X135969976Y-130280678D01*
X135975881Y-130311372D01*
X135992966Y-130337556D01*
X136005242Y-130347939D01*
X136019517Y-130355889D01*
X136035285Y-130361038D01*
X136052408Y-130363188D01*
X136055315Y-130363232D01*
G37*
G36*
X136055315Y-131033728D02*
G01*
X136073425Y-131032187D01*
X136089521Y-131027656D01*
X136102819Y-131020695D01*
X136114017Y-131011268D01*
X136129392Y-130986004D01*
X136135130Y-130951559D01*
X136135133Y-130950587D01*
X136135133Y-130507629D01*
X136133597Y-130488351D01*
X136129095Y-130471295D01*
X136122210Y-130457277D01*
X136112927Y-130445535D01*
X136088499Y-130429702D01*
X136055981Y-130423953D01*
X136055315Y-130423951D01*
X136037163Y-130425490D01*
X136021084Y-130430011D01*
X136007826Y-130436952D01*
X135996678Y-130446338D01*
X135981311Y-130471552D01*
X135975456Y-130506062D01*
X135975447Y-130507629D01*
X135975447Y-130950587D01*
X135976987Y-130969987D01*
X135981510Y-130987090D01*
X135988380Y-131000984D01*
X135997656Y-131012589D01*
X136022077Y-131028131D01*
X136055315Y-131033728D01*
G37*
G36*
X136449132Y-131033142D02*
G01*
X136477396Y-131031594D01*
X136503427Y-131027013D01*
X136526364Y-131019835D01*
X136547260Y-131010021D01*
X136582525Y-130983276D01*
X136610410Y-130946530D01*
X136624694Y-130916687D01*
X136627966Y-130916687D01*
X136627966Y-130952786D01*
X136629494Y-130972096D01*
X136633936Y-130988848D01*
X136640685Y-131002396D01*
X136649704Y-131013558D01*
X136673556Y-131028504D01*
X136705098Y-131033728D01*
X136723057Y-131032172D01*
X136739111Y-131027531D01*
X136752080Y-131020506D01*
X136762993Y-131010896D01*
X136771358Y-130999255D01*
X136777460Y-130985288D01*
X136782181Y-130952786D01*
X136782181Y-130507629D01*
X136780655Y-130488169D01*
X136776226Y-130471203D01*
X136769449Y-130457300D01*
X136760399Y-130445765D01*
X136736434Y-130430003D01*
X136704420Y-130423970D01*
X136702363Y-130423951D01*
X136684410Y-130425506D01*
X136668167Y-130430141D01*
X136654763Y-130437236D01*
X136643358Y-130446955D01*
X136634525Y-130458699D01*
X136627962Y-130472784D01*
X136622495Y-130507629D01*
X136622495Y-130771753D01*
X136620954Y-130796058D01*
X136616420Y-130818283D01*
X136609346Y-130837558D01*
X136599737Y-130854568D01*
X136588189Y-130868663D01*
X136574504Y-130880354D01*
X136559123Y-130889337D01*
X136541894Y-130895730D01*
X136507115Y-130900273D01*
X136484626Y-130898717D01*
X136464581Y-130894076D01*
X136448306Y-130887094D01*
X136434210Y-130877553D01*
X136413361Y-130852064D01*
X136400949Y-130816539D01*
X136397743Y-130780497D01*
X136397743Y-130507629D01*
X136396217Y-130488182D01*
X136391789Y-130471227D01*
X136385012Y-130457322D01*
X136375962Y-130445785D01*
X136351996Y-130430011D01*
X136319997Y-130423970D01*
X136317925Y-130423951D01*
X136299971Y-130425506D01*
X136283729Y-130430141D01*
X136270325Y-130437236D01*
X136258920Y-130446955D01*
X136250087Y-130458699D01*
X136243524Y-130472784D01*
X136238057Y-130507629D01*
X136238057Y-130813860D01*
X136239600Y-130845105D01*
X136244148Y-130874256D01*
X136251377Y-130900635D01*
X136261245Y-130924858D01*
X136273388Y-130946465D01*
X136287858Y-130965847D01*
X136304398Y-130982798D01*
X136323016Y-130997420D01*
X136366296Y-131019472D01*
X136417620Y-131031357D01*
X136449132Y-131033142D01*
G37*
G36*
X137124561Y-131034802D02*
G01*
X137162074Y-131033259D01*
X137197315Y-131028708D01*
X137229383Y-131021467D01*
X137258929Y-131011577D01*
X137284904Y-130999617D01*
X137308208Y-130985389D01*
X137327911Y-130969700D01*
X137344875Y-130952103D01*
X137358486Y-130933446D01*
X137369307Y-130913182D01*
X137377059Y-130891933D01*
X137381923Y-130869302D01*
X137383800Y-130842828D01*
X137382215Y-130817641D01*
X137377369Y-130794849D01*
X137370156Y-130776371D01*
X137360128Y-130759607D01*
X137332211Y-130731560D01*
X137290300Y-130707926D01*
X137227651Y-130687668D01*
X137207701Y-130683142D01*
X137110932Y-130662381D01*
X137081768Y-130654501D01*
X137059553Y-130644915D01*
X137046260Y-130635777D01*
X137036984Y-130625379D01*
X137029566Y-130603282D01*
X137029404Y-130598927D01*
X137030932Y-130586157D01*
X137035379Y-130574514D01*
X137052704Y-130554763D01*
X137081871Y-130540747D01*
X137121288Y-130535521D01*
X137143678Y-130537034D01*
X137163468Y-130541372D01*
X137196905Y-130557504D01*
X137226914Y-130584647D01*
X137238329Y-130598389D01*
X137259220Y-130614544D01*
X137288138Y-130622619D01*
X137296313Y-130623009D01*
X137313613Y-130621490D01*
X137328036Y-130617112D01*
X137338988Y-130610618D01*
X137347407Y-130602050D01*
X137356671Y-130579604D01*
X137357569Y-130568299D01*
X137353710Y-130544802D01*
X137337781Y-130511804D01*
X137308668Y-130480539D01*
X137265834Y-130453374D01*
X137239376Y-130442280D01*
X137210233Y-130433508D01*
X137178464Y-130427292D01*
X137144428Y-130423942D01*
X137124024Y-130423414D01*
X137086489Y-130424957D01*
X137051500Y-130429508D01*
X137020120Y-130436690D01*
X136991421Y-130446484D01*
X136966486Y-130458266D01*
X136944284Y-130472267D01*
X136925670Y-130487696D01*
X136909796Y-130504993D01*
X136897154Y-130523422D01*
X136887278Y-130543444D01*
X136880354Y-130564635D01*
X136876303Y-130587221D01*
X136875189Y-130607671D01*
X136876751Y-130631638D01*
X136881434Y-130654041D01*
X136888805Y-130673931D01*
X136899007Y-130692348D01*
X136927573Y-130724403D01*
X136968554Y-130751075D01*
X137024676Y-130772079D01*
X137048015Y-130777761D01*
X137146445Y-130798571D01*
X137177396Y-130806993D01*
X137199737Y-130817084D01*
X137211104Y-130825798D01*
X137218723Y-130835897D01*
X137224105Y-130858605D01*
X137224114Y-130859778D01*
X137222580Y-130872838D01*
X137218090Y-130884585D01*
X137200894Y-130903806D01*
X137171638Y-130917324D01*
X137128420Y-130922695D01*
X137099917Y-130921114D01*
X137074996Y-130916301D01*
X137055564Y-130909297D01*
X137038105Y-130899628D01*
X137007755Y-130872197D01*
X137000437Y-130863100D01*
X136984342Y-130847384D01*
X136967914Y-130836229D01*
X136953232Y-130830162D01*
X136937841Y-130827282D01*
X136930974Y-130827001D01*
X136915428Y-130828525D01*
X136901452Y-130832943D01*
X136889498Y-130839925D01*
X136879708Y-130849283D01*
X136872537Y-130860496D01*
X136868019Y-130873551D01*
X136866445Y-130888257D01*
X136872454Y-130917761D01*
X136893266Y-130952608D01*
X136926368Y-130983234D01*
X136972644Y-131008437D01*
X137032773Y-131026295D01*
X137106743Y-131034515D01*
X137124561Y-131034802D01*
G37*
G36*
X132428357Y-132376604D02*
G01*
X132447275Y-132375061D01*
X132463970Y-132370508D01*
X132477527Y-132363594D01*
X132488920Y-132354224D01*
X132504590Y-132329150D01*
X132510910Y-132294537D01*
X132510960Y-132290777D01*
X132510960Y-131652571D01*
X132509418Y-131632356D01*
X132504872Y-131614606D01*
X132498029Y-131600365D01*
X132488779Y-131588464D01*
X132464470Y-131572459D01*
X132431499Y-131566197D01*
X132428357Y-131566158D01*
X132409456Y-131567702D01*
X132392773Y-131572264D01*
X132379249Y-131579184D01*
X132367876Y-131588569D01*
X132352221Y-131613713D01*
X132345860Y-131648537D01*
X132345803Y-131652571D01*
X132345803Y-132290777D01*
X132347346Y-132310791D01*
X132351890Y-132328392D01*
X132358746Y-132342559D01*
X132368016Y-132354408D01*
X132392409Y-132370366D01*
X132425482Y-132376571D01*
X132428357Y-132376604D01*
G37*
G36*
X132993682Y-132379340D02*
G01*
X133032336Y-132377794D01*
X133069367Y-132373224D01*
X133104371Y-132365800D01*
X133137480Y-132355599D01*
X133168158Y-132342906D01*
X133196707Y-132327703D01*
X133222552Y-132310410D01*
X133246070Y-132290878D01*
X133266755Y-132269625D01*
X133284945Y-132246391D01*
X133309732Y-132202703D01*
X133318126Y-132178825D01*
X133322061Y-132155463D01*
X133322335Y-132147456D01*
X133320804Y-132131106D01*
X133316344Y-132116406D01*
X133309302Y-132103775D01*
X133299809Y-132093128D01*
X133274252Y-132078573D01*
X133245203Y-132074183D01*
X133226916Y-132075797D01*
X133211221Y-132080845D01*
X133189296Y-132098212D01*
X133172467Y-132126158D01*
X133159525Y-132151252D01*
X133144611Y-132173249D01*
X133128496Y-132191472D01*
X133110659Y-132206902D01*
X133070628Y-132229250D01*
X133023534Y-132241185D01*
X132991484Y-132243199D01*
X132965371Y-132241650D01*
X132940741Y-132237058D01*
X132918089Y-132229681D01*
X132896994Y-132219536D01*
X132859797Y-132191326D01*
X132829117Y-132152279D01*
X132805599Y-132101707D01*
X132790581Y-132038853D01*
X132785831Y-131970819D01*
X132787375Y-131931897D01*
X132791933Y-131895512D01*
X132799142Y-131862710D01*
X132808986Y-131832551D01*
X132820884Y-131806073D01*
X132835046Y-131782281D01*
X132850747Y-131761998D01*
X132868379Y-131744408D01*
X132887261Y-131730005D01*
X132907807Y-131718322D01*
X132929603Y-131709560D01*
X132952868Y-131703611D01*
X132990946Y-131700149D01*
X133017189Y-131701712D01*
X133042207Y-131706396D01*
X133065082Y-131713876D01*
X133086588Y-131724257D01*
X133106240Y-131737252D01*
X133124363Y-131753030D01*
X133155600Y-131792926D01*
X133170318Y-131821001D01*
X133181313Y-131840580D01*
X133193854Y-131855600D01*
X133205821Y-131864848D01*
X133219325Y-131871181D01*
X133249062Y-131875662D01*
X133266128Y-131874131D01*
X133281326Y-131869667D01*
X133294066Y-131862725D01*
X133304646Y-131853386D01*
X133312745Y-131842046D01*
X133318379Y-131828729D01*
X133321798Y-131804587D01*
X133315545Y-131766766D01*
X133305384Y-131742794D01*
X133290616Y-131715366D01*
X133273433Y-131690006D01*
X133232257Y-131645782D01*
X133182249Y-131610351D01*
X133123620Y-131584230D01*
X133056558Y-131568249D01*
X132989285Y-131563422D01*
X132950487Y-131564975D01*
X132913432Y-131569591D01*
X132878916Y-131577017D01*
X132846211Y-131587260D01*
X132815902Y-131600014D01*
X132787476Y-131615376D01*
X132761270Y-131633088D01*
X132737037Y-131653244D01*
X132694826Y-131700568D01*
X132661046Y-131757404D01*
X132636255Y-131824034D01*
X132621371Y-131900800D01*
X132617401Y-131971357D01*
X132618953Y-132016506D01*
X132623565Y-132059352D01*
X132630920Y-132098745D01*
X132641044Y-132135831D01*
X132653498Y-132169650D01*
X132668458Y-132201165D01*
X132685446Y-132229681D01*
X132704721Y-132255888D01*
X132725882Y-132279383D01*
X132749159Y-132300536D01*
X132801546Y-132335440D01*
X132862042Y-132360570D01*
X132931051Y-132375440D01*
X132993682Y-132379340D01*
G37*
G36*
X133521784Y-132366200D02*
G01*
X133884387Y-132366200D01*
X133902771Y-132364662D01*
X133918992Y-132360149D01*
X133932105Y-132353296D01*
X133942879Y-132344054D01*
X133950826Y-132333067D01*
X133956261Y-132320114D01*
X133959320Y-132297860D01*
X133957792Y-132281926D01*
X133953347Y-132267872D01*
X133946404Y-132256092D01*
X133937080Y-132246324D01*
X133911620Y-132233142D01*
X133884387Y-132229521D01*
X133604387Y-132229521D01*
X133604387Y-131652571D01*
X133602844Y-131632356D01*
X133598299Y-131614606D01*
X133591456Y-131600365D01*
X133582205Y-131588464D01*
X133557896Y-131572459D01*
X133524925Y-131566197D01*
X133521784Y-131566158D01*
X133502882Y-131567702D01*
X133486200Y-131572264D01*
X133472675Y-131579184D01*
X133461303Y-131588569D01*
X133445648Y-131613713D01*
X133439286Y-131648537D01*
X133439230Y-131652571D01*
X133439230Y-132279835D01*
X133440772Y-132300033D01*
X133445317Y-132317770D01*
X133452160Y-132332008D01*
X133461411Y-132343905D01*
X133485723Y-132359907D01*
X133518687Y-132366161D01*
X133521784Y-132366200D01*
G37*
G36*
X134394976Y-131577701D02*
G01*
X134463866Y-131586871D01*
X134521206Y-131605845D01*
X134567967Y-131633456D01*
X134604929Y-131669205D01*
X134619908Y-131690257D01*
X134632356Y-131713242D01*
X134642444Y-131738753D01*
X134649772Y-131766161D01*
X134654396Y-131796472D01*
X134655950Y-131828670D01*
X134655892Y-131834530D01*
X134648743Y-131892302D01*
X134630505Y-131943692D01*
X134602415Y-131987407D01*
X134565486Y-132022582D01*
X134543969Y-132036713D01*
X134520346Y-132048488D01*
X134634114Y-132245348D01*
X134643004Y-132262372D01*
X134649746Y-132282439D01*
X134651602Y-132302257D01*
X134646164Y-132330644D01*
X134639007Y-132343899D01*
X134629235Y-132355312D01*
X134616933Y-132364756D01*
X134602498Y-132371808D01*
X134586263Y-132376206D01*
X134568462Y-132377728D01*
X134546022Y-132375625D01*
X134532576Y-132371162D01*
X134520557Y-132363766D01*
X134502663Y-132344717D01*
X134484247Y-132315348D01*
X134352991Y-132077456D01*
X134212454Y-132077456D01*
X134212454Y-132291852D01*
X134212402Y-132295653D01*
X134206070Y-132330268D01*
X134190390Y-132355347D01*
X134178995Y-132364718D01*
X134165439Y-132371633D01*
X134148754Y-132376184D01*
X134129851Y-132377728D01*
X134126786Y-132377690D01*
X134093887Y-132371384D01*
X134069484Y-132355274D01*
X134060221Y-132343386D01*
X134053360Y-132329191D01*
X134048836Y-132311705D01*
X134047296Y-132291852D01*
X134047296Y-131957728D01*
X134212454Y-131957728D01*
X134354652Y-131957728D01*
X134357820Y-131957704D01*
X134402700Y-131951481D01*
X134437640Y-131935505D01*
X134451737Y-131924135D01*
X134463545Y-131910611D01*
X134473224Y-131894547D01*
X134480319Y-131876396D01*
X134484898Y-131855209D01*
X134486445Y-131831943D01*
X134486421Y-131829057D01*
X134479955Y-131787894D01*
X134463006Y-131754464D01*
X134450776Y-131740614D01*
X134436225Y-131728927D01*
X134418997Y-131719307D01*
X134399569Y-131712220D01*
X134377320Y-131707697D01*
X134352991Y-131706158D01*
X134212454Y-131706158D01*
X134212454Y-131957728D01*
X134047296Y-131957728D01*
X134047296Y-131662927D01*
X134047346Y-131659190D01*
X134053661Y-131624566D01*
X134069327Y-131599483D01*
X134080716Y-131590112D01*
X134094267Y-131583196D01*
X134110949Y-131578643D01*
X134129851Y-131577100D01*
X134370479Y-131577100D01*
X134394976Y-131577701D01*
G37*
G36*
X135051916Y-132366200D02*
G01*
X135488867Y-132366200D01*
X135505702Y-132364676D01*
X135520415Y-132360266D01*
X135532527Y-132353456D01*
X135542377Y-132344372D01*
X135554741Y-132320378D01*
X135557206Y-132300596D01*
X135555668Y-132284444D01*
X135551155Y-132270221D01*
X135544232Y-132258652D01*
X135534880Y-132249184D01*
X135509795Y-132237326D01*
X135488867Y-132234992D01*
X135191379Y-132234992D01*
X135191379Y-132231671D01*
X135362007Y-132067637D01*
X135433806Y-131996996D01*
X135485196Y-131937553D01*
X135504658Y-131908962D01*
X135519378Y-131881049D01*
X135528566Y-131856644D01*
X135534574Y-131831584D01*
X135538057Y-131789249D01*
X135536512Y-131762174D01*
X135531950Y-131736350D01*
X135524504Y-131711938D01*
X135514273Y-131688969D01*
X135485669Y-131647497D01*
X135446440Y-131612606D01*
X135396778Y-131585363D01*
X135337053Y-131567189D01*
X135268017Y-131559675D01*
X135258057Y-131559563D01*
X135223231Y-131561088D01*
X135190400Y-131565507D01*
X135129751Y-131582587D01*
X135077104Y-131609606D01*
X135033856Y-131645046D01*
X135016237Y-131665332D01*
X135001670Y-131686753D01*
X134982991Y-131728579D01*
X134978558Y-131745933D01*
X134976982Y-131764092D01*
X134978523Y-131780527D01*
X134983052Y-131795006D01*
X134989982Y-131806752D01*
X134999357Y-131816403D01*
X135024541Y-131828661D01*
X135047520Y-131831357D01*
X135065636Y-131829779D01*
X135080993Y-131824991D01*
X135103502Y-131808108D01*
X135120793Y-131783241D01*
X135133588Y-131758595D01*
X135148230Y-131737633D01*
X135163134Y-131721839D01*
X135179664Y-131709065D01*
X135196961Y-131699711D01*
X135215828Y-131693098D01*
X135256445Y-131688084D01*
X135278129Y-131689614D01*
X135298239Y-131694071D01*
X135316549Y-131701251D01*
X135332861Y-131710958D01*
X135346848Y-131722879D01*
X135358453Y-131736896D01*
X135367362Y-131752587D01*
X135373550Y-131769942D01*
X135377296Y-131799654D01*
X135375593Y-131823270D01*
X135369922Y-131845899D01*
X135349125Y-131885360D01*
X135305949Y-131937167D01*
X135254784Y-131988356D01*
X135019627Y-132213108D01*
X134997113Y-132236128D01*
X134982812Y-132257228D01*
X134977160Y-132271918D01*
X134974536Y-132287613D01*
X134974247Y-132295662D01*
X134975812Y-132312607D01*
X134980513Y-132327736D01*
X134987578Y-132339753D01*
X134997289Y-132349792D01*
X135009134Y-132357378D01*
X135023442Y-132362738D01*
X135051916Y-132366200D01*
G37*
G36*
X135987603Y-131560116D02*
G01*
X136049317Y-131570934D01*
X136077655Y-131580513D01*
X136104359Y-131592799D01*
X136129568Y-131607858D01*
X136153019Y-131625544D01*
X136175077Y-131646227D01*
X136195203Y-131669512D01*
X136213841Y-131696125D01*
X136230319Y-131725356D01*
X136245017Y-131758239D01*
X136257283Y-131793764D01*
X136267333Y-131833159D01*
X136274649Y-131875204D01*
X136279249Y-131921164D01*
X136280800Y-131969745D01*
X136278883Y-132023894D01*
X136266864Y-132109303D01*
X136245158Y-132182243D01*
X136215132Y-132243175D01*
X136177785Y-132292751D01*
X136133642Y-132331571D01*
X136109041Y-132347061D01*
X136082749Y-132359921D01*
X136054579Y-132370154D01*
X136024782Y-132377579D01*
X135992803Y-132382185D01*
X135959230Y-132383736D01*
X135930104Y-132382583D01*
X135868533Y-132371619D01*
X135840241Y-132361958D01*
X135813590Y-132349589D01*
X135788402Y-132334424D01*
X135764978Y-132316632D01*
X135742918Y-132295807D01*
X135722797Y-132272376D01*
X135704143Y-132245574D01*
X135687657Y-132216154D01*
X135672940Y-132183036D01*
X135660663Y-132147281D01*
X135650599Y-132107621D01*
X135643277Y-132065324D01*
X135638673Y-132019102D01*
X135637122Y-131970282D01*
X135805015Y-131970282D01*
X135806317Y-132016062D01*
X135816391Y-132095366D01*
X135834266Y-132155019D01*
X135857917Y-132198084D01*
X135886313Y-132227477D01*
X135919654Y-132245161D01*
X135938790Y-132249801D01*
X135959230Y-132251357D01*
X135966868Y-132251147D01*
X136004402Y-132243114D01*
X136021638Y-132234567D01*
X136037494Y-132223074D01*
X136052814Y-132207656D01*
X136066493Y-132188999D01*
X136079427Y-132165166D01*
X136090332Y-132137650D01*
X136099804Y-132103725D01*
X136106763Y-132065629D01*
X136111358Y-132020254D01*
X136112907Y-131970282D01*
X136111703Y-131926507D01*
X136101797Y-131847307D01*
X136084033Y-131787697D01*
X136060451Y-131744641D01*
X136032095Y-131715244D01*
X135998779Y-131697554D01*
X135979653Y-131692913D01*
X135959230Y-131691357D01*
X135951393Y-131691581D01*
X135913932Y-131699737D01*
X135896645Y-131708384D01*
X135880705Y-131720000D01*
X135865305Y-131735537D01*
X135851528Y-131754317D01*
X135838543Y-131778165D01*
X135827577Y-131805662D01*
X135818104Y-131839278D01*
X135811134Y-131876966D01*
X135806561Y-131921420D01*
X135805015Y-131970282D01*
X135637122Y-131970282D01*
X135638931Y-131917997D01*
X135650787Y-131832962D01*
X135672382Y-131760308D01*
X135702367Y-131699552D01*
X135739760Y-131650052D01*
X135784044Y-131611241D01*
X135808759Y-131595734D01*
X135835162Y-131582868D01*
X135863475Y-131572620D01*
X135893406Y-131565189D01*
X135925531Y-131560578D01*
X135959230Y-131559026D01*
X135987603Y-131560116D01*
G37*
G36*
X136452502Y-132366200D02*
G01*
X136889453Y-132366200D01*
X136906288Y-132364676D01*
X136921001Y-132360266D01*
X136933113Y-132353456D01*
X136942963Y-132344372D01*
X136955327Y-132320378D01*
X136957792Y-132300596D01*
X136956254Y-132284444D01*
X136951741Y-132270221D01*
X136944818Y-132258652D01*
X136935466Y-132249184D01*
X136910382Y-132237326D01*
X136889453Y-132234992D01*
X136591965Y-132234992D01*
X136591965Y-132231671D01*
X136762593Y-132067637D01*
X136834392Y-131996996D01*
X136885783Y-131937553D01*
X136905245Y-131908962D01*
X136919965Y-131881049D01*
X136929153Y-131856644D01*
X136935160Y-131831584D01*
X136938643Y-131789249D01*
X136937098Y-131762174D01*
X136932537Y-131736350D01*
X136925090Y-131711938D01*
X136914859Y-131688969D01*
X136886255Y-131647497D01*
X136847026Y-131612606D01*
X136797364Y-131585363D01*
X136737639Y-131567189D01*
X136668603Y-131559675D01*
X136658643Y-131559563D01*
X136623817Y-131561088D01*
X136590986Y-131565507D01*
X136530337Y-131582587D01*
X136477690Y-131609606D01*
X136434442Y-131645046D01*
X136416823Y-131665332D01*
X136402256Y-131686753D01*
X136383577Y-131728579D01*
X136379144Y-131745933D01*
X136377569Y-131764092D01*
X136379109Y-131780527D01*
X136383639Y-131795006D01*
X136390568Y-131806752D01*
X136399944Y-131816403D01*
X136425127Y-131828661D01*
X136448106Y-131831357D01*
X136466222Y-131829779D01*
X136481580Y-131824991D01*
X136504089Y-131808108D01*
X136521379Y-131783241D01*
X136534174Y-131758595D01*
X136548816Y-131737633D01*
X136563720Y-131721839D01*
X136580250Y-131709065D01*
X136597548Y-131699711D01*
X136616414Y-131693098D01*
X136657031Y-131688084D01*
X136678715Y-131689614D01*
X136698825Y-131694071D01*
X136717136Y-131701251D01*
X136733447Y-131710958D01*
X136747434Y-131722879D01*
X136759039Y-131736896D01*
X136767948Y-131752587D01*
X136774137Y-131769942D01*
X136777883Y-131799654D01*
X136776179Y-131823270D01*
X136770508Y-131845899D01*
X136749711Y-131885360D01*
X136706535Y-131937167D01*
X136655370Y-131988356D01*
X136420213Y-132213108D01*
X136397699Y-132236128D01*
X136383398Y-132257228D01*
X136377746Y-132271918D01*
X136375122Y-132287613D01*
X136374833Y-132295662D01*
X136376398Y-132312607D01*
X136381099Y-132327736D01*
X136388164Y-132339753D01*
X136397875Y-132349792D01*
X136409720Y-132357378D01*
X136424028Y-132362738D01*
X136452502Y-132366200D01*
G37*
G36*
X137437587Y-131565060D02*
G01*
X137484314Y-131571359D01*
X137520726Y-131587295D01*
X137547359Y-131611490D01*
X137557110Y-131626644D01*
X137564269Y-131643673D01*
X137568811Y-131663078D01*
X137570353Y-131684273D01*
X137570353Y-132089521D01*
X137615196Y-132089521D01*
X137635107Y-132091656D01*
X137648840Y-132096335D01*
X137660349Y-132103415D01*
X137669868Y-132113052D01*
X137676858Y-132124783D01*
X137681449Y-132139324D01*
X137682998Y-132155662D01*
X137680556Y-132175707D01*
X137668449Y-132199611D01*
X137658793Y-132208620D01*
X137646852Y-132215383D01*
X137632155Y-132219792D01*
X137615196Y-132221315D01*
X137570353Y-132221315D01*
X137570353Y-132297323D01*
X137565491Y-132329104D01*
X137559125Y-132343073D01*
X137550436Y-132354735D01*
X137539080Y-132364449D01*
X137525694Y-132371542D01*
X137509489Y-132376173D01*
X137491609Y-132377728D01*
X137459257Y-132372183D01*
X137435163Y-132356898D01*
X137426119Y-132345742D01*
X137419331Y-132332277D01*
X137414925Y-132315992D01*
X137413403Y-132297323D01*
X137413403Y-132221315D01*
X137119188Y-132221315D01*
X137103672Y-132220435D01*
X137068723Y-132210544D01*
X137042450Y-132191186D01*
X137032786Y-132178376D01*
X137025646Y-132163690D01*
X137021167Y-132147082D01*
X137019634Y-132128893D01*
X137021092Y-132107017D01*
X137024742Y-132089521D01*
X137164031Y-132089521D01*
X137164031Y-132093869D01*
X137416675Y-132093869D01*
X137416675Y-131696828D01*
X137413403Y-131696828D01*
X137378007Y-131748101D01*
X137252554Y-131937677D01*
X137164031Y-132089521D01*
X137024742Y-132089521D01*
X137025667Y-132085086D01*
X137036689Y-132055048D01*
X137054072Y-132021133D01*
X137151580Y-131859884D01*
X137272865Y-131676067D01*
X137312577Y-131622465D01*
X137347599Y-131590140D01*
X137365453Y-131579438D01*
X137384163Y-131571896D01*
X137407959Y-131566673D01*
X137434163Y-131565034D01*
X137437587Y-131565060D01*
G37*
G36*
X132428357Y-133710200D02*
G01*
X132803514Y-133710200D01*
X132821914Y-133708662D01*
X132838141Y-133704149D01*
X132851250Y-133697298D01*
X132862016Y-133688061D01*
X132869957Y-133677078D01*
X132875388Y-133664129D01*
X132878448Y-133641860D01*
X132876920Y-133625926D01*
X132872475Y-133611872D01*
X132865531Y-133600092D01*
X132856207Y-133590324D01*
X132830748Y-133577142D01*
X132803514Y-133573521D01*
X132510960Y-133573521D01*
X132510960Y-133374463D01*
X132789299Y-133374463D01*
X132806679Y-133372928D01*
X132821962Y-133368435D01*
X132834285Y-133361597D01*
X132844286Y-133352395D01*
X132851523Y-133341432D01*
X132856217Y-133328537D01*
X132858225Y-133311009D01*
X132856699Y-133295745D01*
X132852273Y-133282329D01*
X132845348Y-133271114D01*
X132836072Y-133261927D01*
X132810789Y-133250010D01*
X132789299Y-133247555D01*
X132510960Y-133247555D01*
X132510960Y-133057778D01*
X132803514Y-133057778D01*
X132821730Y-133056240D01*
X132837885Y-133051727D01*
X132851051Y-133044843D01*
X132861902Y-133035552D01*
X132869911Y-133024524D01*
X132875393Y-133011523D01*
X132878448Y-132989439D01*
X132876917Y-132973356D01*
X132872450Y-132959192D01*
X132865513Y-132947428D01*
X132856179Y-132937689D01*
X132830717Y-132924645D01*
X132803514Y-132921100D01*
X132428357Y-132921100D01*
X132409456Y-132922643D01*
X132392773Y-132927196D01*
X132379223Y-132934112D01*
X132367834Y-132943483D01*
X132352168Y-132968566D01*
X132345853Y-133003190D01*
X132345803Y-133006927D01*
X132345803Y-133623835D01*
X132347346Y-133644033D01*
X132351890Y-133661770D01*
X132358734Y-133676008D01*
X132367985Y-133687905D01*
X132392296Y-133703907D01*
X132425260Y-133710161D01*
X132428357Y-133710200D01*
G37*
G36*
X133057478Y-133721728D02*
G01*
X133075738Y-133720170D01*
X133092157Y-133715521D01*
X133105515Y-133708464D01*
X133116828Y-133698799D01*
X133125534Y-133687137D01*
X133131976Y-133673136D01*
X133137296Y-133638587D01*
X133137296Y-132992712D01*
X133135770Y-132973266D01*
X133131341Y-132956307D01*
X133124562Y-132942401D01*
X133115508Y-132930861D01*
X133091534Y-132915087D01*
X133059522Y-132909053D01*
X133057478Y-132909034D01*
X133039539Y-132910589D01*
X133023308Y-132915222D01*
X133009902Y-132922317D01*
X132998494Y-132932035D01*
X132989654Y-132943780D01*
X132983086Y-132957864D01*
X132977611Y-132992712D01*
X132977611Y-133638587D01*
X132979134Y-133657849D01*
X132983547Y-133674631D01*
X132990320Y-133688442D01*
X132999348Y-133699897D01*
X133023322Y-133715641D01*
X133055311Y-133721707D01*
X133057478Y-133721728D01*
G37*
G36*
X133533054Y-133112370D02*
G01*
X133564640Y-133116256D01*
X133594551Y-133123014D01*
X133622633Y-133132501D01*
X133648838Y-133144601D01*
X133673066Y-133159192D01*
X133695209Y-133176148D01*
X133715206Y-133195393D01*
X133732899Y-133216763D01*
X133748238Y-133240232D01*
X133761042Y-133265590D01*
X133771247Y-133292843D01*
X133778677Y-133321746D01*
X133783239Y-133352312D01*
X133784784Y-133384282D01*
X133782127Y-133407318D01*
X133770213Y-133431715D01*
X133760584Y-133440865D01*
X133748677Y-133447635D01*
X133733243Y-133452199D01*
X133715322Y-133453745D01*
X133380611Y-133453745D01*
X133380611Y-133460828D01*
X133381044Y-133474303D01*
X133389754Y-133519049D01*
X133408335Y-133554892D01*
X133435565Y-133581604D01*
X133452293Y-133591416D01*
X133470887Y-133598622D01*
X133491632Y-133603147D01*
X133514066Y-133604687D01*
X133526001Y-133604397D01*
X133569486Y-133596854D01*
X133589574Y-133588610D01*
X133608677Y-133577123D01*
X133631332Y-133558404D01*
X133654066Y-133534149D01*
X133674228Y-133517985D01*
X133689134Y-133512308D01*
X133706040Y-133510604D01*
X133721852Y-133512228D01*
X133746577Y-133523224D01*
X133762555Y-133542533D01*
X133766863Y-133554948D01*
X133768371Y-133569125D01*
X133768110Y-133574892D01*
X133764674Y-133591299D01*
X133757429Y-133607959D01*
X133736325Y-133638671D01*
X133718702Y-133656654D01*
X133698391Y-133672653D01*
X133674475Y-133687171D01*
X133648019Y-133699344D01*
X133618190Y-133709372D01*
X133586087Y-133716691D01*
X133551288Y-133721257D01*
X133514603Y-133722802D01*
X133467502Y-133720138D01*
X133405905Y-133707050D01*
X133353501Y-133684025D01*
X133309641Y-133651582D01*
X133290738Y-133631724D01*
X133274072Y-133609606D01*
X133259379Y-133584680D01*
X133247136Y-133557503D01*
X133237117Y-133527127D01*
X133229826Y-133494479D01*
X133225213Y-133458309D01*
X133223661Y-133419844D01*
X133226493Y-133368878D01*
X133229159Y-133355852D01*
X133382272Y-133355852D01*
X133631107Y-133355852D01*
X133624650Y-133315992D01*
X133607732Y-133279776D01*
X133582064Y-133252727D01*
X133566278Y-133242842D01*
X133548742Y-133235585D01*
X133529401Y-133231068D01*
X133508594Y-133229530D01*
X133474798Y-133233818D01*
X133456371Y-133240322D01*
X133439582Y-133249558D01*
X133424395Y-133261536D01*
X133411237Y-133275959D01*
X133400161Y-133292864D01*
X133391525Y-133311894D01*
X133385480Y-133332992D01*
X133382272Y-133355852D01*
X133229159Y-133355852D01*
X133239951Y-133303128D01*
X133263302Y-133246944D01*
X133295554Y-133200195D01*
X133336134Y-133162820D01*
X133359534Y-133147672D01*
X133384858Y-133135051D01*
X133412407Y-133124921D01*
X133441780Y-133117550D01*
X133473514Y-133112962D01*
X133506982Y-133111414D01*
X133533054Y-133112370D01*
G37*
G36*
X134133807Y-133722802D02*
G01*
X134197081Y-133716779D01*
X134256791Y-133699041D01*
X134284001Y-133686186D01*
X134308945Y-133670941D01*
X134330821Y-133653924D01*
X134349946Y-133634982D01*
X134365353Y-133615285D01*
X134377739Y-133594147D01*
X134380981Y-133587199D01*
X134388563Y-133566244D01*
X134391359Y-133547602D01*
X134391386Y-133545629D01*
X134389875Y-133530875D01*
X134385553Y-133517788D01*
X134369389Y-133496874D01*
X134344411Y-133484242D01*
X134324121Y-133481637D01*
X134305973Y-133483245D01*
X134290683Y-133488247D01*
X134268247Y-133505791D01*
X134251386Y-133528678D01*
X134236886Y-133549873D01*
X134220010Y-133567771D01*
X134204154Y-133579624D01*
X134186209Y-133588691D01*
X134167643Y-133594352D01*
X134146937Y-133597225D01*
X134136543Y-133597555D01*
X134115920Y-133596003D01*
X134096815Y-133591392D01*
X134079867Y-133584089D01*
X134064490Y-133574051D01*
X134038741Y-133545987D01*
X134019685Y-133506180D01*
X134008690Y-133452924D01*
X134006899Y-133416571D01*
X134008442Y-133383298D01*
X134012992Y-133353076D01*
X134019973Y-133327361D01*
X134029446Y-133304615D01*
X134040564Y-133285996D01*
X134053719Y-133270205D01*
X134068078Y-133257871D01*
X134084137Y-133248270D01*
X134120343Y-133237678D01*
X134137618Y-133236613D01*
X134159325Y-133238190D01*
X134179175Y-133242978D01*
X134196010Y-133250330D01*
X134211541Y-133260561D01*
X134239591Y-133290429D01*
X134252998Y-133311546D01*
X134264513Y-133328547D01*
X134277503Y-133340902D01*
X134289498Y-133347653D01*
X134303223Y-133351678D01*
X134320262Y-133353116D01*
X134336762Y-133351576D01*
X134351808Y-133347043D01*
X134364450Y-133339993D01*
X134374876Y-133330423D01*
X134382250Y-133319288D01*
X134386958Y-133306147D01*
X134388650Y-133290786D01*
X134382980Y-133259984D01*
X134379858Y-133251414D01*
X134358007Y-133211203D01*
X134324400Y-133175222D01*
X134279284Y-133145235D01*
X134223836Y-133123561D01*
X134192909Y-133116570D01*
X134160407Y-133112482D01*
X134132684Y-133111414D01*
X134098463Y-133112963D01*
X134066033Y-133117552D01*
X134036075Y-133124916D01*
X134007994Y-133135036D01*
X133982257Y-133147613D01*
X133958488Y-133162707D01*
X133936913Y-133180103D01*
X133917423Y-133199828D01*
X133884909Y-133246105D01*
X133861430Y-133301575D01*
X133847898Y-133366393D01*
X133845015Y-133417108D01*
X133846563Y-133454879D01*
X133851147Y-133490510D01*
X133858457Y-133523129D01*
X133868487Y-133553562D01*
X133880834Y-133581118D01*
X133895619Y-133606446D01*
X133912454Y-133629106D01*
X133931495Y-133649480D01*
X133975542Y-133682896D01*
X134027629Y-133706603D01*
X134087910Y-133720042D01*
X134133807Y-133722802D01*
G37*
G36*
X134518636Y-133560381D02*
G01*
X134520198Y-133589338D01*
X134524876Y-133615376D01*
X134531880Y-133636633D01*
X134541478Y-133655420D01*
X134552916Y-133670882D01*
X134566654Y-133684122D01*
X134600680Y-133703767D01*
X134645640Y-133714807D01*
X134679446Y-133716794D01*
X134684917Y-133716794D01*
X134713135Y-133715234D01*
X134738114Y-133710570D01*
X134757259Y-133703815D01*
X134773128Y-133694628D01*
X134784059Y-133684610D01*
X134792008Y-133672753D01*
X134796499Y-133660212D01*
X134798098Y-133646127D01*
X134798099Y-133645671D01*
X134796549Y-133629734D01*
X134791948Y-133616640D01*
X134785260Y-133607117D01*
X134776217Y-133599591D01*
X134749620Y-133589601D01*
X134737380Y-133587736D01*
X134727024Y-133586613D01*
X134710440Y-133583679D01*
X134697534Y-133577597D01*
X134689679Y-133570202D01*
X134683964Y-133560395D01*
X134678452Y-133531453D01*
X134678322Y-133524819D01*
X134678322Y-133244282D01*
X134734645Y-133244282D01*
X134750534Y-133242753D01*
X134764343Y-133238303D01*
X134775442Y-133231498D01*
X134784306Y-133222385D01*
X134794638Y-133198250D01*
X134795901Y-133184149D01*
X134794368Y-133168687D01*
X134789892Y-133155175D01*
X134783025Y-133144264D01*
X134773792Y-133135507D01*
X134749151Y-133125232D01*
X134734645Y-133123968D01*
X134678322Y-133123968D01*
X134678322Y-133058902D01*
X134676783Y-133039648D01*
X134672258Y-133022603D01*
X134665363Y-133008671D01*
X134656045Y-132997003D01*
X134644816Y-132987987D01*
X134631532Y-132981356D01*
X134598504Y-132975761D01*
X134580365Y-132977299D01*
X134564296Y-132981810D01*
X134551013Y-132988747D01*
X134539848Y-132998119D01*
X134524460Y-133023275D01*
X134518643Y-133057571D01*
X134518636Y-133058902D01*
X134518636Y-133123968D01*
X134488008Y-133123968D01*
X134471929Y-133125501D01*
X134457919Y-133129983D01*
X134446730Y-133136803D01*
X134437783Y-133145966D01*
X134427457Y-133170136D01*
X134426215Y-133184149D01*
X134427745Y-133199603D01*
X134432201Y-133213044D01*
X134439042Y-133223892D01*
X134448217Y-133232588D01*
X134472837Y-133242926D01*
X134488008Y-133244282D01*
X134518636Y-133244282D01*
X134518636Y-133560381D01*
G37*
G36*
X134953682Y-133721728D02*
G01*
X134971949Y-133720181D01*
X134988212Y-133715605D01*
X135001513Y-133708625D01*
X135012719Y-133699132D01*
X135027936Y-133673774D01*
X135033500Y-133638587D01*
X135033500Y-133378273D01*
X135035125Y-133350361D01*
X135040246Y-133326108D01*
X135047145Y-133309405D01*
X135056732Y-133295298D01*
X135067687Y-133285005D01*
X135081060Y-133276925D01*
X135115385Y-133267720D01*
X135131930Y-133266703D01*
X135156053Y-133264738D01*
X135176446Y-133259793D01*
X135201393Y-133245943D01*
X135210864Y-133235771D01*
X135217826Y-133223640D01*
X135224259Y-133193226D01*
X135224352Y-133188497D01*
X135222787Y-133168611D01*
X135218085Y-133151871D01*
X135211416Y-133139841D01*
X135202347Y-133130204D01*
X135201393Y-133129439D01*
X135178410Y-133117875D01*
X135151616Y-133114687D01*
X135132738Y-133116232D01*
X135114791Y-133120795D01*
X135082339Y-133138592D01*
X135055446Y-133167700D01*
X135035814Y-133207941D01*
X135029690Y-133230604D01*
X135026417Y-133230604D01*
X135026417Y-133192356D01*
X135024890Y-133173549D01*
X135020456Y-133157034D01*
X135013634Y-133143386D01*
X135004510Y-133132065D01*
X134980478Y-133116911D01*
X134950946Y-133111951D01*
X134933443Y-133113495D01*
X134917739Y-133118051D01*
X134904672Y-133125082D01*
X134893642Y-133134640D01*
X134885042Y-133146295D01*
X134878750Y-133160167D01*
X134873814Y-133192356D01*
X134873814Y-133638587D01*
X134875345Y-133657843D01*
X134879810Y-133674745D01*
X134886640Y-133688614D01*
X134895806Y-133700172D01*
X134920047Y-133715878D01*
X134952451Y-133721721D01*
X134953682Y-133721728D01*
G37*
G36*
X135577480Y-133114309D02*
G01*
X135637859Y-133127953D01*
X135690137Y-133151869D01*
X135734355Y-133185447D01*
X135753441Y-133205841D01*
X135770332Y-133228518D01*
X135785126Y-133253767D01*
X135797492Y-133281234D01*
X135807510Y-133311462D01*
X135814819Y-133343861D01*
X135819393Y-133379153D01*
X135820939Y-133416571D01*
X135818016Y-133468545D01*
X135804545Y-133533594D01*
X135781259Y-133588821D01*
X135748963Y-133634732D01*
X135729495Y-133654333D01*
X135707942Y-133671577D01*
X135683999Y-133686624D01*
X135658063Y-133699137D01*
X135629498Y-133709273D01*
X135599007Y-133716633D01*
X135565700Y-133721250D01*
X135530534Y-133722802D01*
X135482820Y-133719881D01*
X135422319Y-133706295D01*
X135370222Y-133682561D01*
X135326291Y-133649236D01*
X135307333Y-133628947D01*
X135290566Y-133606363D01*
X135275847Y-133581113D01*
X135263550Y-133553604D01*
X135253552Y-133523162D01*
X135246259Y-133490473D01*
X135241677Y-133454641D01*
X135240152Y-133417108D01*
X135402014Y-133417108D01*
X135403851Y-133454590D01*
X135414901Y-133508671D01*
X135433934Y-133548963D01*
X135459515Y-133577250D01*
X135474723Y-133587331D01*
X135491455Y-133594657D01*
X135510266Y-133599275D01*
X135530534Y-133600828D01*
X135547096Y-133599789D01*
X135582372Y-133589239D01*
X135598092Y-133579609D01*
X135612192Y-133567183D01*
X135625150Y-133551205D01*
X135636133Y-133532282D01*
X135645515Y-133509069D01*
X135652448Y-133482699D01*
X135656977Y-133451566D01*
X135658518Y-133417108D01*
X135656689Y-133380152D01*
X135645552Y-133326032D01*
X135626342Y-133285464D01*
X135600645Y-133256962D01*
X135585500Y-133246848D01*
X135568882Y-133239494D01*
X135550391Y-133234891D01*
X135530534Y-133233340D01*
X135513785Y-133234432D01*
X135478568Y-133245219D01*
X135462765Y-133255041D01*
X135448564Y-133267684D01*
X135435514Y-133283873D01*
X135424441Y-133302992D01*
X135415028Y-133326238D01*
X135408067Y-133352553D01*
X135403552Y-133383261D01*
X135402014Y-133417108D01*
X135240152Y-133417108D01*
X135240130Y-133416571D01*
X135243033Y-133365868D01*
X135256605Y-133301347D01*
X135280176Y-133246111D01*
X135312898Y-133199947D01*
X135332580Y-133180211D01*
X135354345Y-133162827D01*
X135378403Y-133147695D01*
X135404422Y-133135101D01*
X135432869Y-133124946D01*
X135463169Y-133117567D01*
X135495980Y-133112964D01*
X135530534Y-133111414D01*
X135577480Y-133114309D01*
G37*
G36*
X135982237Y-133721728D02*
G01*
X136000482Y-133720170D01*
X136016896Y-133715521D01*
X136030257Y-133708462D01*
X136041577Y-133698792D01*
X136050288Y-133687126D01*
X136056734Y-133673120D01*
X136062056Y-133638587D01*
X136062056Y-133373877D01*
X136063595Y-133350288D01*
X136068120Y-133328533D01*
X136075258Y-133309319D01*
X136084962Y-133292243D01*
X136096689Y-133277921D01*
X136110586Y-133265971D01*
X136126159Y-133256752D01*
X136143583Y-133250142D01*
X136179097Y-133245357D01*
X136201268Y-133246905D01*
X136220899Y-133251495D01*
X136236889Y-133258427D01*
X136250668Y-133267852D01*
X136271184Y-133293177D01*
X136283516Y-133328667D01*
X136286808Y-133365671D01*
X136286808Y-133638587D01*
X136288334Y-133657996D01*
X136292763Y-133674884D01*
X136299530Y-133688684D01*
X136308564Y-133700117D01*
X136332524Y-133715734D01*
X136364667Y-133721710D01*
X136366675Y-133721728D01*
X136384758Y-133720170D01*
X136401102Y-133715521D01*
X136414506Y-133708432D01*
X136425895Y-133698714D01*
X136434667Y-133687003D01*
X136441165Y-133672942D01*
X136446494Y-133638587D01*
X136446494Y-133332356D01*
X136444941Y-133298824D01*
X136440320Y-133267744D01*
X136433138Y-133240562D01*
X136423289Y-133215765D01*
X136411428Y-133194370D01*
X136397220Y-133175302D01*
X136381208Y-133159073D01*
X136363062Y-133145177D01*
X136320756Y-133124726D01*
X136269453Y-133114212D01*
X136243089Y-133113026D01*
X136213375Y-133114578D01*
X136186071Y-133119194D01*
X136162337Y-133126358D01*
X136140728Y-133136175D01*
X136121670Y-133148256D01*
X136104587Y-133162761D01*
X136076005Y-133199260D01*
X136062593Y-133225671D01*
X136059320Y-133225671D01*
X136059320Y-133192893D01*
X136057789Y-133174536D01*
X136053325Y-133158258D01*
X136046415Y-133144647D01*
X136037125Y-133133227D01*
X136012427Y-133117581D01*
X135979502Y-133111951D01*
X135961657Y-133113489D01*
X135945901Y-133118000D01*
X135932960Y-133124919D01*
X135922144Y-133134264D01*
X135907451Y-133159362D01*
X135902370Y-133192356D01*
X135902370Y-133638587D01*
X135903893Y-133657849D01*
X135908307Y-133674631D01*
X135915079Y-133688442D01*
X135924107Y-133699897D01*
X135948082Y-133715641D01*
X135980070Y-133721707D01*
X135982237Y-133721728D01*
G37*
G36*
X136629774Y-133051232D02*
G01*
X136661979Y-133045351D01*
X136689077Y-133028491D01*
X136699681Y-133016511D01*
X136707749Y-133002654D01*
X136712910Y-132987512D01*
X136715027Y-132971173D01*
X136715063Y-132968678D01*
X136709159Y-132937735D01*
X136692160Y-132911633D01*
X136679947Y-132901316D01*
X136665746Y-132893424D01*
X136649980Y-132888284D01*
X136632855Y-132886125D01*
X136629774Y-132886075D01*
X136597321Y-132891971D01*
X136570212Y-132908827D01*
X136559678Y-132920771D01*
X136551670Y-132934620D01*
X136546560Y-132949784D01*
X136544470Y-132966211D01*
X136544435Y-132968678D01*
X136550340Y-132999372D01*
X136567425Y-133025556D01*
X136579701Y-133035939D01*
X136593976Y-133043889D01*
X136609744Y-133049038D01*
X136626867Y-133051188D01*
X136629774Y-133051232D01*
G37*
G36*
X136629774Y-133721728D02*
G01*
X136647885Y-133720187D01*
X136663980Y-133715656D01*
X136677278Y-133708695D01*
X136688477Y-133699268D01*
X136703851Y-133674004D01*
X136709589Y-133639559D01*
X136709592Y-133638587D01*
X136709592Y-133195629D01*
X136708056Y-133176351D01*
X136703554Y-133159295D01*
X136696669Y-133145277D01*
X136687386Y-133133535D01*
X136662958Y-133117702D01*
X136630440Y-133111953D01*
X136629774Y-133111951D01*
X136611622Y-133113490D01*
X136595543Y-133118011D01*
X136582285Y-133124952D01*
X136571137Y-133134338D01*
X136555770Y-133159552D01*
X136549916Y-133194062D01*
X136549906Y-133195629D01*
X136549906Y-133638587D01*
X136551446Y-133657987D01*
X136555969Y-133675090D01*
X136562839Y-133688984D01*
X136572115Y-133700589D01*
X136596537Y-133716131D01*
X136629774Y-133721728D01*
G37*
G36*
X137082698Y-133722802D02*
G01*
X137145971Y-133716779D01*
X137205682Y-133699041D01*
X137232891Y-133686186D01*
X137257835Y-133670941D01*
X137279712Y-133653924D01*
X137298836Y-133634982D01*
X137314243Y-133615285D01*
X137326629Y-133594147D01*
X137329872Y-133587199D01*
X137337454Y-133566244D01*
X137340249Y-133547602D01*
X137340276Y-133545629D01*
X137338766Y-133530875D01*
X137334443Y-133517788D01*
X137318279Y-133496874D01*
X137293301Y-133484242D01*
X137273012Y-133481637D01*
X137254863Y-133483245D01*
X137239574Y-133488247D01*
X137217138Y-133505791D01*
X137200276Y-133528678D01*
X137185776Y-133549873D01*
X137168900Y-133567771D01*
X137153045Y-133579624D01*
X137135099Y-133588691D01*
X137116533Y-133594352D01*
X137095827Y-133597225D01*
X137085433Y-133597555D01*
X137064811Y-133596003D01*
X137045706Y-133591392D01*
X137028757Y-133584089D01*
X137013381Y-133574051D01*
X136987631Y-133545987D01*
X136968576Y-133506180D01*
X136957581Y-133452924D01*
X136955789Y-133416571D01*
X136957332Y-133383298D01*
X136961882Y-133353076D01*
X136968863Y-133327361D01*
X136978337Y-133304615D01*
X136989454Y-133285996D01*
X137002610Y-133270205D01*
X137016968Y-133257871D01*
X137033027Y-133248270D01*
X137069233Y-133237678D01*
X137086508Y-133236613D01*
X137108216Y-133238190D01*
X137128065Y-133242978D01*
X137144900Y-133250330D01*
X137160431Y-133260561D01*
X137188482Y-133290429D01*
X137201888Y-133311546D01*
X137213403Y-133328547D01*
X137226393Y-133340902D01*
X137238389Y-133347653D01*
X137252114Y-133351678D01*
X137269153Y-133353116D01*
X137285652Y-133351576D01*
X137300699Y-133347043D01*
X137313340Y-133339993D01*
X137323767Y-133330423D01*
X137331141Y-133319288D01*
X137335849Y-133306147D01*
X137337541Y-133290786D01*
X137331871Y-133259984D01*
X137328748Y-133251414D01*
X137306898Y-133211203D01*
X137273291Y-133175222D01*
X137228175Y-133145235D01*
X137172727Y-133123561D01*
X137141799Y-133116570D01*
X137109298Y-133112482D01*
X137081574Y-133111414D01*
X137047354Y-133112963D01*
X137014923Y-133117552D01*
X136984966Y-133124916D01*
X136956884Y-133135036D01*
X136931147Y-133147613D01*
X136907378Y-133162707D01*
X136885803Y-133180103D01*
X136866313Y-133199828D01*
X136833800Y-133246105D01*
X136810321Y-133301575D01*
X136796788Y-133366393D01*
X136793905Y-133417108D01*
X136795453Y-133454879D01*
X136800037Y-133490510D01*
X136807348Y-133523129D01*
X136817377Y-133553562D01*
X136829724Y-133581118D01*
X136844509Y-133606446D01*
X136861344Y-133629106D01*
X136880386Y-133649480D01*
X136924432Y-133682896D01*
X136976520Y-133706603D01*
X137036801Y-133720042D01*
X137082698Y-133722802D01*
G37*
G36*
X137663849Y-133722802D02*
G01*
X137701362Y-133721259D01*
X137736603Y-133716708D01*
X137768672Y-133709467D01*
X137798218Y-133699577D01*
X137824192Y-133687617D01*
X137847496Y-133673389D01*
X137867200Y-133657700D01*
X137884163Y-133640103D01*
X137897774Y-133621446D01*
X137908595Y-133601182D01*
X137916348Y-133579933D01*
X137921211Y-133557302D01*
X137923089Y-133530828D01*
X137921503Y-133505641D01*
X137916657Y-133482849D01*
X137909444Y-133464371D01*
X137899416Y-133447607D01*
X137871500Y-133419560D01*
X137829588Y-133395926D01*
X137766940Y-133375668D01*
X137746989Y-133371142D01*
X137650220Y-133350381D01*
X137621056Y-133342501D01*
X137598841Y-133332915D01*
X137585548Y-133323777D01*
X137576272Y-133313379D01*
X137568854Y-133291282D01*
X137568692Y-133286927D01*
X137570221Y-133274157D01*
X137574667Y-133262514D01*
X137591992Y-133242763D01*
X137621160Y-133228747D01*
X137660576Y-133223521D01*
X137682967Y-133225034D01*
X137702756Y-133229372D01*
X137736194Y-133245504D01*
X137766202Y-133272647D01*
X137777618Y-133286389D01*
X137798508Y-133302544D01*
X137827426Y-133310619D01*
X137835601Y-133311009D01*
X137852902Y-133309490D01*
X137867324Y-133305112D01*
X137878277Y-133298618D01*
X137886696Y-133290050D01*
X137895959Y-133267604D01*
X137896857Y-133256299D01*
X137892998Y-133232802D01*
X137877069Y-133199804D01*
X137847956Y-133168539D01*
X137805123Y-133141374D01*
X137778664Y-133130280D01*
X137749521Y-133121508D01*
X137717752Y-133115292D01*
X137683716Y-133111942D01*
X137663312Y-133111414D01*
X137625777Y-133112957D01*
X137590788Y-133117508D01*
X137559408Y-133124690D01*
X137530709Y-133134484D01*
X137505774Y-133146266D01*
X137483572Y-133160267D01*
X137464958Y-133175696D01*
X137449085Y-133192993D01*
X137436442Y-133211422D01*
X137426566Y-133231444D01*
X137419642Y-133252635D01*
X137415591Y-133275221D01*
X137414477Y-133295671D01*
X137416039Y-133319638D01*
X137420722Y-133342041D01*
X137428094Y-133361931D01*
X137438296Y-133380348D01*
X137466861Y-133412403D01*
X137507842Y-133439075D01*
X137563964Y-133460079D01*
X137587303Y-133465761D01*
X137685733Y-133486571D01*
X137716684Y-133494993D01*
X137739025Y-133505084D01*
X137750392Y-133513798D01*
X137758011Y-133523897D01*
X137763393Y-133546605D01*
X137763403Y-133547778D01*
X137761868Y-133560838D01*
X137757378Y-133572585D01*
X137740183Y-133591806D01*
X137710927Y-133605324D01*
X137667708Y-133610695D01*
X137639205Y-133609114D01*
X137614284Y-133604301D01*
X137594852Y-133597297D01*
X137577393Y-133587628D01*
X137547043Y-133560197D01*
X137539725Y-133551100D01*
X137523630Y-133535384D01*
X137507202Y-133524229D01*
X137492520Y-133518162D01*
X137477129Y-133515282D01*
X137470262Y-133515001D01*
X137454716Y-133516525D01*
X137440740Y-133520943D01*
X137428786Y-133527925D01*
X137418997Y-133537283D01*
X137411825Y-133548496D01*
X137407307Y-133561551D01*
X137405733Y-133576257D01*
X137411742Y-133605761D01*
X137432555Y-133640608D01*
X137465656Y-133671234D01*
X137511932Y-133696437D01*
X137572061Y-133714295D01*
X137646031Y-133722515D01*
X137663849Y-133722802D01*
G37*
D10*
X122294988Y-123619638D02*
X122199750Y-123572019D01*
X122199750Y-123572019D02*
X122056893Y-123572019D01*
X122056893Y-123572019D02*
X121914036Y-123619638D01*
X121914036Y-123619638D02*
X121818798Y-123714876D01*
X121818798Y-123714876D02*
X121771179Y-123810114D01*
X121771179Y-123810114D02*
X121723560Y-124000590D01*
X121723560Y-124000590D02*
X121723560Y-124143447D01*
X121723560Y-124143447D02*
X121771179Y-124333923D01*
X121771179Y-124333923D02*
X121818798Y-124429161D01*
X121818798Y-124429161D02*
X121914036Y-124524400D01*
X121914036Y-124524400D02*
X122056893Y-124572019D01*
X122056893Y-124572019D02*
X122152131Y-124572019D01*
X122152131Y-124572019D02*
X122294988Y-124524400D01*
X122294988Y-124524400D02*
X122342607Y-124476780D01*
X122342607Y-124476780D02*
X122342607Y-124143447D01*
X122342607Y-124143447D02*
X122152131Y-124143447D01*
X122771179Y-124572019D02*
X122771179Y-123572019D01*
X122771179Y-123572019D02*
X123342607Y-124572019D01*
X123342607Y-124572019D02*
X123342607Y-123572019D01*
X123818798Y-124572019D02*
X123818798Y-123572019D01*
X123818798Y-123572019D02*
X124056893Y-123572019D01*
X124056893Y-123572019D02*
X124199750Y-123619638D01*
X124199750Y-123619638D02*
X124294988Y-123714876D01*
X124294988Y-123714876D02*
X124342607Y-123810114D01*
X124342607Y-123810114D02*
X124390226Y-124000590D01*
X124390226Y-124000590D02*
X124390226Y-124143447D01*
X124390226Y-124143447D02*
X124342607Y-124333923D01*
X124342607Y-124333923D02*
X124294988Y-124429161D01*
X124294988Y-124429161D02*
X124199750Y-124524400D01*
X124199750Y-124524400D02*
X124056893Y-124572019D01*
X124056893Y-124572019D02*
X123818798Y-124572019D01*
X123485607Y-119212619D02*
X123152274Y-118736428D01*
X122914179Y-119212619D02*
X122914179Y-118212619D01*
X122914179Y-118212619D02*
X123295131Y-118212619D01*
X123295131Y-118212619D02*
X123390369Y-118260238D01*
X123390369Y-118260238D02*
X123437988Y-118307857D01*
X123437988Y-118307857D02*
X123485607Y-118403095D01*
X123485607Y-118403095D02*
X123485607Y-118545952D01*
X123485607Y-118545952D02*
X123437988Y-118641190D01*
X123437988Y-118641190D02*
X123390369Y-118688809D01*
X123390369Y-118688809D02*
X123295131Y-118736428D01*
X123295131Y-118736428D02*
X122914179Y-118736428D01*
X123818941Y-118212619D02*
X124485607Y-119212619D01*
X124485607Y-118212619D02*
X123818941Y-119212619D01*
X122923722Y-121032019D02*
X123495150Y-121032019D01*
X123209436Y-122032019D02*
X123209436Y-121032019D01*
X123733246Y-121032019D02*
X124399912Y-122032019D01*
X124399912Y-121032019D02*
X123733246Y-122032019D01*
X138430199Y-114405633D02*
X138196866Y-114072300D01*
X138030199Y-114405633D02*
X138030199Y-113705633D01*
X138030199Y-113705633D02*
X138296866Y-113705633D01*
X138296866Y-113705633D02*
X138363533Y-113738966D01*
X138363533Y-113738966D02*
X138396866Y-113772300D01*
X138396866Y-113772300D02*
X138430199Y-113838966D01*
X138430199Y-113838966D02*
X138430199Y-113938966D01*
X138430199Y-113938966D02*
X138396866Y-114005633D01*
X138396866Y-114005633D02*
X138363533Y-114038966D01*
X138363533Y-114038966D02*
X138296866Y-114072300D01*
X138296866Y-114072300D02*
X138030199Y-114072300D01*
X138663533Y-113705633D02*
X139096866Y-113705633D01*
X139096866Y-113705633D02*
X138863533Y-113972300D01*
X138863533Y-113972300D02*
X138963533Y-113972300D01*
X138963533Y-113972300D02*
X139030199Y-114005633D01*
X139030199Y-114005633D02*
X139063533Y-114038966D01*
X139063533Y-114038966D02*
X139096866Y-114105633D01*
X139096866Y-114105633D02*
X139096866Y-114272300D01*
X139096866Y-114272300D02*
X139063533Y-114338966D01*
X139063533Y-114338966D02*
X139030199Y-114372300D01*
X139030199Y-114372300D02*
X138963533Y-114405633D01*
X138963533Y-114405633D02*
X138763533Y-114405633D01*
X138763533Y-114405633D02*
X138696866Y-114372300D01*
X138696866Y-114372300D02*
X138663533Y-114338966D01*
X139763533Y-114405633D02*
X139363533Y-114405633D01*
X139563533Y-114405633D02*
X139563533Y-113705633D01*
X139563533Y-113705633D02*
X139496866Y-113805633D01*
X139496866Y-113805633D02*
X139430200Y-113872300D01*
X139430200Y-113872300D02*
X139363533Y-113905633D01*
X120847066Y-101754219D02*
X120847066Y-102468504D01*
X120847066Y-102468504D02*
X120799447Y-102611361D01*
X120799447Y-102611361D02*
X120704209Y-102706600D01*
X120704209Y-102706600D02*
X120561352Y-102754219D01*
X120561352Y-102754219D02*
X120466114Y-102754219D01*
X121847066Y-102754219D02*
X121275638Y-102754219D01*
X121561352Y-102754219D02*
X121561352Y-101754219D01*
X121561352Y-101754219D02*
X121466114Y-101897076D01*
X121466114Y-101897076D02*
X121370876Y-101992314D01*
X121370876Y-101992314D02*
X121275638Y-102039933D01*
X153773666Y-102982233D02*
X154173666Y-102982233D01*
X153973666Y-103682233D02*
X153973666Y-102982233D01*
X154340333Y-102982233D02*
X154806999Y-103682233D01*
X154806999Y-102982233D02*
X154340333Y-103682233D01*
X155073666Y-103682233D02*
X155073666Y-102982233D01*
X155073666Y-102982233D02*
X155240333Y-102982233D01*
X155240333Y-102982233D02*
X155340333Y-103015566D01*
X155340333Y-103015566D02*
X155407000Y-103082233D01*
X155407000Y-103082233D02*
X155440333Y-103148900D01*
X155440333Y-103148900D02*
X155473666Y-103282233D01*
X155473666Y-103282233D02*
X155473666Y-103382233D01*
X155473666Y-103382233D02*
X155440333Y-103515566D01*
X155440333Y-103515566D02*
X155407000Y-103582233D01*
X155407000Y-103582233D02*
X155340333Y-103648900D01*
X155340333Y-103648900D02*
X155240333Y-103682233D01*
X155240333Y-103682233D02*
X155073666Y-103682233D01*
X155607000Y-103748900D02*
X156140333Y-103748900D01*
X156673666Y-103682233D02*
X156273666Y-103682233D01*
X156473666Y-103682233D02*
X156473666Y-102982233D01*
X156473666Y-102982233D02*
X156406999Y-103082233D01*
X156406999Y-103082233D02*
X156340333Y-103148900D01*
X156340333Y-103148900D02*
X156273666Y-103182233D01*
X156807000Y-103748900D02*
X157340333Y-103748900D01*
X157906999Y-103682233D02*
X157673666Y-103348900D01*
X157506999Y-103682233D02*
X157506999Y-102982233D01*
X157506999Y-102982233D02*
X157773666Y-102982233D01*
X157773666Y-102982233D02*
X157840333Y-103015566D01*
X157840333Y-103015566D02*
X157873666Y-103048900D01*
X157873666Y-103048900D02*
X157906999Y-103115566D01*
X157906999Y-103115566D02*
X157906999Y-103215566D01*
X157906999Y-103215566D02*
X157873666Y-103282233D01*
X157873666Y-103282233D02*
X157840333Y-103315566D01*
X157840333Y-103315566D02*
X157773666Y-103348900D01*
X157773666Y-103348900D02*
X157506999Y-103348900D01*
X158573666Y-103682233D02*
X158173666Y-103682233D01*
X158373666Y-103682233D02*
X158373666Y-102982233D01*
X158373666Y-102982233D02*
X158306999Y-103082233D01*
X158306999Y-103082233D02*
X158240333Y-103148900D01*
X158240333Y-103148900D02*
X158173666Y-103182233D01*
X132947295Y-120345599D02*
X132147295Y-120345599D01*
X132147295Y-120345599D02*
X132147295Y-120040837D01*
X132147295Y-120040837D02*
X132185390Y-119964647D01*
X132185390Y-119964647D02*
X132223485Y-119926552D01*
X132223485Y-119926552D02*
X132299676Y-119888456D01*
X132299676Y-119888456D02*
X132413961Y-119888456D01*
X132413961Y-119888456D02*
X132490152Y-119926552D01*
X132490152Y-119926552D02*
X132528247Y-119964647D01*
X132528247Y-119964647D02*
X132566342Y-120040837D01*
X132566342Y-120040837D02*
X132566342Y-120345599D01*
X132147295Y-119393218D02*
X132147295Y-119240837D01*
X132147295Y-119240837D02*
X132185390Y-119164647D01*
X132185390Y-119164647D02*
X132261580Y-119088456D01*
X132261580Y-119088456D02*
X132413961Y-119050361D01*
X132413961Y-119050361D02*
X132680628Y-119050361D01*
X132680628Y-119050361D02*
X132833009Y-119088456D01*
X132833009Y-119088456D02*
X132909200Y-119164647D01*
X132909200Y-119164647D02*
X132947295Y-119240837D01*
X132947295Y-119240837D02*
X132947295Y-119393218D01*
X132947295Y-119393218D02*
X132909200Y-119469409D01*
X132909200Y-119469409D02*
X132833009Y-119545599D01*
X132833009Y-119545599D02*
X132680628Y-119583695D01*
X132680628Y-119583695D02*
X132413961Y-119583695D01*
X132413961Y-119583695D02*
X132261580Y-119545599D01*
X132261580Y-119545599D02*
X132185390Y-119469409D01*
X132185390Y-119469409D02*
X132147295Y-119393218D01*
X132147295Y-118783695D02*
X132947295Y-118593219D01*
X132947295Y-118593219D02*
X132375866Y-118440838D01*
X132375866Y-118440838D02*
X132947295Y-118288457D01*
X132947295Y-118288457D02*
X132147295Y-118097981D01*
X132528247Y-117793218D02*
X132528247Y-117526552D01*
X132947295Y-117412266D02*
X132947295Y-117793218D01*
X132947295Y-117793218D02*
X132147295Y-117793218D01*
X132147295Y-117793218D02*
X132147295Y-117412266D01*
X132947295Y-116612265D02*
X132566342Y-116878932D01*
X132947295Y-117069408D02*
X132147295Y-117069408D01*
X132147295Y-117069408D02*
X132147295Y-116764646D01*
X132147295Y-116764646D02*
X132185390Y-116688456D01*
X132185390Y-116688456D02*
X132223485Y-116650361D01*
X132223485Y-116650361D02*
X132299676Y-116612265D01*
X132299676Y-116612265D02*
X132413961Y-116612265D01*
X132413961Y-116612265D02*
X132490152Y-116650361D01*
X132490152Y-116650361D02*
X132528247Y-116688456D01*
X132528247Y-116688456D02*
X132566342Y-116764646D01*
X132566342Y-116764646D02*
X132566342Y-117069408D01*
X133023485Y-116459885D02*
X133023485Y-115850361D01*
X132147295Y-115659884D02*
X132794914Y-115659884D01*
X132794914Y-115659884D02*
X132871104Y-115621789D01*
X132871104Y-115621789D02*
X132909200Y-115583694D01*
X132909200Y-115583694D02*
X132947295Y-115507503D01*
X132947295Y-115507503D02*
X132947295Y-115355122D01*
X132947295Y-115355122D02*
X132909200Y-115278932D01*
X132909200Y-115278932D02*
X132871104Y-115240837D01*
X132871104Y-115240837D02*
X132794914Y-115202741D01*
X132794914Y-115202741D02*
X132147295Y-115202741D01*
X132718723Y-114859885D02*
X132718723Y-114478932D01*
X132947295Y-114936075D02*
X132147295Y-114669408D01*
X132147295Y-114669408D02*
X132947295Y-114402742D01*
X132947295Y-113678932D02*
X132566342Y-113945599D01*
X132947295Y-114136075D02*
X132147295Y-114136075D01*
X132147295Y-114136075D02*
X132147295Y-113831313D01*
X132147295Y-113831313D02*
X132185390Y-113755123D01*
X132185390Y-113755123D02*
X132223485Y-113717028D01*
X132223485Y-113717028D02*
X132299676Y-113678932D01*
X132299676Y-113678932D02*
X132413961Y-113678932D01*
X132413961Y-113678932D02*
X132490152Y-113717028D01*
X132490152Y-113717028D02*
X132528247Y-113755123D01*
X132528247Y-113755123D02*
X132566342Y-113831313D01*
X132566342Y-113831313D02*
X132566342Y-114136075D01*
X132147295Y-113450361D02*
X132147295Y-112993218D01*
X132947295Y-113221790D02*
X132147295Y-113221790D01*
X132947295Y-112307504D02*
X132947295Y-112764647D01*
X132947295Y-112536075D02*
X132147295Y-112536075D01*
X132147295Y-112536075D02*
X132261580Y-112612266D01*
X132261580Y-112612266D02*
X132337771Y-112688456D01*
X132337771Y-112688456D02*
X132375866Y-112764647D01*
X148599733Y-88247247D02*
X148333067Y-88247247D01*
X148333067Y-88666295D02*
X148333067Y-87866295D01*
X148333067Y-87866295D02*
X148714019Y-87866295D01*
X149437828Y-88666295D02*
X148980685Y-88666295D01*
X149209257Y-88666295D02*
X149209257Y-87866295D01*
X149209257Y-87866295D02*
X149133066Y-87980580D01*
X149133066Y-87980580D02*
X149056876Y-88056771D01*
X149056876Y-88056771D02*
X148980685Y-88094866D01*
X120552104Y-87382999D02*
X120590200Y-87421095D01*
X120590200Y-87421095D02*
X120628295Y-87535380D01*
X120628295Y-87535380D02*
X120628295Y-87611571D01*
X120628295Y-87611571D02*
X120590200Y-87725857D01*
X120590200Y-87725857D02*
X120514009Y-87802047D01*
X120514009Y-87802047D02*
X120437819Y-87840142D01*
X120437819Y-87840142D02*
X120285438Y-87878238D01*
X120285438Y-87878238D02*
X120171152Y-87878238D01*
X120171152Y-87878238D02*
X120018771Y-87840142D01*
X120018771Y-87840142D02*
X119942580Y-87802047D01*
X119942580Y-87802047D02*
X119866390Y-87725857D01*
X119866390Y-87725857D02*
X119828295Y-87611571D01*
X119828295Y-87611571D02*
X119828295Y-87535380D01*
X119828295Y-87535380D02*
X119866390Y-87421095D01*
X119866390Y-87421095D02*
X119904485Y-87382999D01*
X120628295Y-86582999D02*
X120247342Y-86849666D01*
X120628295Y-87040142D02*
X119828295Y-87040142D01*
X119828295Y-87040142D02*
X119828295Y-86735380D01*
X119828295Y-86735380D02*
X119866390Y-86659190D01*
X119866390Y-86659190D02*
X119904485Y-86621095D01*
X119904485Y-86621095D02*
X119980676Y-86582999D01*
X119980676Y-86582999D02*
X120094961Y-86582999D01*
X120094961Y-86582999D02*
X120171152Y-86621095D01*
X120171152Y-86621095D02*
X120209247Y-86659190D01*
X120209247Y-86659190D02*
X120247342Y-86735380D01*
X120247342Y-86735380D02*
X120247342Y-87040142D01*
X119828295Y-86316333D02*
X120628295Y-85782999D01*
X119828295Y-85782999D02*
X120628295Y-86316333D01*
X120628295Y-85097285D02*
X120628295Y-85478237D01*
X120628295Y-85478237D02*
X119828295Y-85478237D01*
X120209247Y-84830618D02*
X120209247Y-84563952D01*
X120628295Y-84449666D02*
X120628295Y-84830618D01*
X120628295Y-84830618D02*
X119828295Y-84830618D01*
X119828295Y-84830618D02*
X119828295Y-84449666D01*
X120628295Y-84106808D02*
X119828295Y-84106808D01*
X119828295Y-84106808D02*
X119828295Y-83916332D01*
X119828295Y-83916332D02*
X119866390Y-83802046D01*
X119866390Y-83802046D02*
X119942580Y-83725856D01*
X119942580Y-83725856D02*
X120018771Y-83687761D01*
X120018771Y-83687761D02*
X120171152Y-83649665D01*
X120171152Y-83649665D02*
X120285438Y-83649665D01*
X120285438Y-83649665D02*
X120437819Y-83687761D01*
X120437819Y-83687761D02*
X120514009Y-83725856D01*
X120514009Y-83725856D02*
X120590200Y-83802046D01*
X120590200Y-83802046D02*
X120628295Y-83916332D01*
X120628295Y-83916332D02*
X120628295Y-84106808D01*
X120628295Y-82887761D02*
X120628295Y-83344904D01*
X120628295Y-83116332D02*
X119828295Y-83116332D01*
X119828295Y-83116332D02*
X119942580Y-83192523D01*
X119942580Y-83192523D02*
X120018771Y-83268713D01*
X120018771Y-83268713D02*
X120056866Y-83344904D01*
X155508809Y-91854095D02*
X155508809Y-92501714D01*
X155508809Y-92501714D02*
X155546904Y-92577904D01*
X155546904Y-92577904D02*
X155584999Y-92616000D01*
X155584999Y-92616000D02*
X155661190Y-92654095D01*
X155661190Y-92654095D02*
X155813571Y-92654095D01*
X155813571Y-92654095D02*
X155889761Y-92616000D01*
X155889761Y-92616000D02*
X155927856Y-92577904D01*
X155927856Y-92577904D02*
X155965952Y-92501714D01*
X155965952Y-92501714D02*
X155965952Y-91854095D01*
X156308808Y-92616000D02*
X156423094Y-92654095D01*
X156423094Y-92654095D02*
X156613570Y-92654095D01*
X156613570Y-92654095D02*
X156689761Y-92616000D01*
X156689761Y-92616000D02*
X156727856Y-92577904D01*
X156727856Y-92577904D02*
X156765951Y-92501714D01*
X156765951Y-92501714D02*
X156765951Y-92425523D01*
X156765951Y-92425523D02*
X156727856Y-92349333D01*
X156727856Y-92349333D02*
X156689761Y-92311238D01*
X156689761Y-92311238D02*
X156613570Y-92273142D01*
X156613570Y-92273142D02*
X156461189Y-92235047D01*
X156461189Y-92235047D02*
X156384999Y-92196952D01*
X156384999Y-92196952D02*
X156346904Y-92158857D01*
X156346904Y-92158857D02*
X156308808Y-92082666D01*
X156308808Y-92082666D02*
X156308808Y-92006476D01*
X156308808Y-92006476D02*
X156346904Y-91930285D01*
X156346904Y-91930285D02*
X156384999Y-91892190D01*
X156384999Y-91892190D02*
X156461189Y-91854095D01*
X156461189Y-91854095D02*
X156651666Y-91854095D01*
X156651666Y-91854095D02*
X156765951Y-91892190D01*
X157375475Y-92235047D02*
X157489761Y-92273142D01*
X157489761Y-92273142D02*
X157527856Y-92311238D01*
X157527856Y-92311238D02*
X157565952Y-92387428D01*
X157565952Y-92387428D02*
X157565952Y-92501714D01*
X157565952Y-92501714D02*
X157527856Y-92577904D01*
X157527856Y-92577904D02*
X157489761Y-92616000D01*
X157489761Y-92616000D02*
X157413571Y-92654095D01*
X157413571Y-92654095D02*
X157108809Y-92654095D01*
X157108809Y-92654095D02*
X157108809Y-91854095D01*
X157108809Y-91854095D02*
X157375475Y-91854095D01*
X157375475Y-91854095D02*
X157451666Y-91892190D01*
X157451666Y-91892190D02*
X157489761Y-91930285D01*
X157489761Y-91930285D02*
X157527856Y-92006476D01*
X157527856Y-92006476D02*
X157527856Y-92082666D01*
X157527856Y-92082666D02*
X157489761Y-92158857D01*
X157489761Y-92158857D02*
X157451666Y-92196952D01*
X157451666Y-92196952D02*
X157375475Y-92235047D01*
X157375475Y-92235047D02*
X157108809Y-92235047D01*
X158289761Y-92654095D02*
X157908809Y-92654095D01*
X157908809Y-92654095D02*
X157908809Y-91854095D01*
X158556428Y-92235047D02*
X158823094Y-92235047D01*
X158937380Y-92654095D02*
X158556428Y-92654095D01*
X158556428Y-92654095D02*
X158556428Y-91854095D01*
X158556428Y-91854095D02*
X158937380Y-91854095D01*
X159280238Y-92654095D02*
X159280238Y-91854095D01*
X159280238Y-91854095D02*
X159470714Y-91854095D01*
X159470714Y-91854095D02*
X159585000Y-91892190D01*
X159585000Y-91892190D02*
X159661190Y-91968380D01*
X159661190Y-91968380D02*
X159699285Y-92044571D01*
X159699285Y-92044571D02*
X159737381Y-92196952D01*
X159737381Y-92196952D02*
X159737381Y-92311238D01*
X159737381Y-92311238D02*
X159699285Y-92463619D01*
X159699285Y-92463619D02*
X159661190Y-92539809D01*
X159661190Y-92539809D02*
X159585000Y-92616000D01*
X159585000Y-92616000D02*
X159470714Y-92654095D01*
X159470714Y-92654095D02*
X159280238Y-92654095D01*
X160499285Y-92654095D02*
X160042142Y-92654095D01*
X160270714Y-92654095D02*
X160270714Y-91854095D01*
X160270714Y-91854095D02*
X160194523Y-91968380D01*
X160194523Y-91968380D02*
X160118333Y-92044571D01*
X160118333Y-92044571D02*
X160042142Y-92082666D01*
X146411755Y-79076520D02*
X146411755Y-79917527D01*
X146411755Y-79917527D02*
X146461226Y-80016469D01*
X146461226Y-80016469D02*
X146510697Y-80065940D01*
X146510697Y-80065940D02*
X146609639Y-80115410D01*
X146609639Y-80115410D02*
X146807523Y-80115410D01*
X146807523Y-80115410D02*
X146906465Y-80065940D01*
X146906465Y-80065940D02*
X146955936Y-80016469D01*
X146955936Y-80016469D02*
X147005407Y-79917527D01*
X147005407Y-79917527D02*
X147005407Y-79076520D01*
X148044297Y-80115410D02*
X147450645Y-80115410D01*
X147747471Y-80115410D02*
X147747471Y-79076520D01*
X147747471Y-79076520D02*
X147648529Y-79224933D01*
X147648529Y-79224933D02*
X147549587Y-79323875D01*
X147549587Y-79323875D02*
X147450645Y-79373346D01*
X149033716Y-80115410D02*
X148440064Y-80115410D01*
X148736890Y-80115410D02*
X148736890Y-79076520D01*
X148736890Y-79076520D02*
X148637948Y-79224933D01*
X148637948Y-79224933D02*
X148539006Y-79323875D01*
X148539006Y-79323875D02*
X148440064Y-79373346D01*
X151044524Y-85262695D02*
X151044524Y-84462695D01*
X151044524Y-84462695D02*
X151235000Y-84462695D01*
X151235000Y-84462695D02*
X151349286Y-84500790D01*
X151349286Y-84500790D02*
X151425476Y-84576980D01*
X151425476Y-84576980D02*
X151463571Y-84653171D01*
X151463571Y-84653171D02*
X151501667Y-84805552D01*
X151501667Y-84805552D02*
X151501667Y-84919838D01*
X151501667Y-84919838D02*
X151463571Y-85072219D01*
X151463571Y-85072219D02*
X151425476Y-85148409D01*
X151425476Y-85148409D02*
X151349286Y-85224600D01*
X151349286Y-85224600D02*
X151235000Y-85262695D01*
X151235000Y-85262695D02*
X151044524Y-85262695D01*
X151806428Y-84538885D02*
X151844524Y-84500790D01*
X151844524Y-84500790D02*
X151920714Y-84462695D01*
X151920714Y-84462695D02*
X152111190Y-84462695D01*
X152111190Y-84462695D02*
X152187381Y-84500790D01*
X152187381Y-84500790D02*
X152225476Y-84538885D01*
X152225476Y-84538885D02*
X152263571Y-84615076D01*
X152263571Y-84615076D02*
X152263571Y-84691266D01*
X152263571Y-84691266D02*
X152225476Y-84805552D01*
X152225476Y-84805552D02*
X151768333Y-85262695D01*
X151768333Y-85262695D02*
X152263571Y-85262695D01*
X123625456Y-83649895D02*
X124120694Y-83649895D01*
X124120694Y-83649895D02*
X123854028Y-83954657D01*
X123854028Y-83954657D02*
X123968313Y-83954657D01*
X123968313Y-83954657D02*
X124044504Y-83992752D01*
X124044504Y-83992752D02*
X124082599Y-84030847D01*
X124082599Y-84030847D02*
X124120694Y-84107038D01*
X124120694Y-84107038D02*
X124120694Y-84297514D01*
X124120694Y-84297514D02*
X124082599Y-84373704D01*
X124082599Y-84373704D02*
X124044504Y-84411800D01*
X124044504Y-84411800D02*
X123968313Y-84449895D01*
X123968313Y-84449895D02*
X123739742Y-84449895D01*
X123739742Y-84449895D02*
X123663551Y-84411800D01*
X123663551Y-84411800D02*
X123625456Y-84373704D01*
X124349266Y-83649895D02*
X124615933Y-84449895D01*
X124615933Y-84449895D02*
X124882599Y-83649895D01*
X125073075Y-83649895D02*
X125568313Y-83649895D01*
X125568313Y-83649895D02*
X125301647Y-83954657D01*
X125301647Y-83954657D02*
X125415932Y-83954657D01*
X125415932Y-83954657D02*
X125492123Y-83992752D01*
X125492123Y-83992752D02*
X125530218Y-84030847D01*
X125530218Y-84030847D02*
X125568313Y-84107038D01*
X125568313Y-84107038D02*
X125568313Y-84297514D01*
X125568313Y-84297514D02*
X125530218Y-84373704D01*
X125530218Y-84373704D02*
X125492123Y-84411800D01*
X125492123Y-84411800D02*
X125415932Y-84449895D01*
X125415932Y-84449895D02*
X125187361Y-84449895D01*
X125187361Y-84449895D02*
X125111170Y-84411800D01*
X125111170Y-84411800D02*
X125073075Y-84373704D01*
X126292123Y-84449895D02*
X125911171Y-84449895D01*
X125911171Y-84449895D02*
X125911171Y-83649895D01*
X126558790Y-84030847D02*
X126825456Y-84030847D01*
X126939742Y-84449895D02*
X126558790Y-84449895D01*
X126558790Y-84449895D02*
X126558790Y-83649895D01*
X126558790Y-83649895D02*
X126939742Y-83649895D01*
X127282600Y-84449895D02*
X127282600Y-83649895D01*
X127282600Y-83649895D02*
X127473076Y-83649895D01*
X127473076Y-83649895D02*
X127587362Y-83687990D01*
X127587362Y-83687990D02*
X127663552Y-83764180D01*
X127663552Y-83764180D02*
X127701647Y-83840371D01*
X127701647Y-83840371D02*
X127739743Y-83992752D01*
X127739743Y-83992752D02*
X127739743Y-84107038D01*
X127739743Y-84107038D02*
X127701647Y-84259419D01*
X127701647Y-84259419D02*
X127663552Y-84335609D01*
X127663552Y-84335609D02*
X127587362Y-84411800D01*
X127587362Y-84411800D02*
X127473076Y-84449895D01*
X127473076Y-84449895D02*
X127282600Y-84449895D01*
X128501647Y-84449895D02*
X128044504Y-84449895D01*
X128273076Y-84449895D02*
X128273076Y-83649895D01*
X128273076Y-83649895D02*
X128196885Y-83764180D01*
X128196885Y-83764180D02*
X128120695Y-83840371D01*
X128120695Y-83840371D02*
X128044504Y-83878466D01*
X145840666Y-84710819D02*
X145840666Y-85425104D01*
X145840666Y-85425104D02*
X145793047Y-85567961D01*
X145793047Y-85567961D02*
X145697809Y-85663200D01*
X145697809Y-85663200D02*
X145554952Y-85710819D01*
X145554952Y-85710819D02*
X145459714Y-85710819D01*
X146745428Y-85044152D02*
X146745428Y-85710819D01*
X146507333Y-84663200D02*
X146269238Y-85377485D01*
X146269238Y-85377485D02*
X146888285Y-85377485D01*
X132458314Y-104833495D02*
X132724981Y-105633495D01*
X132724981Y-105633495D02*
X132991647Y-104833495D01*
X133715457Y-105557304D02*
X133677361Y-105595400D01*
X133677361Y-105595400D02*
X133563076Y-105633495D01*
X133563076Y-105633495D02*
X133486885Y-105633495D01*
X133486885Y-105633495D02*
X133372599Y-105595400D01*
X133372599Y-105595400D02*
X133296409Y-105519209D01*
X133296409Y-105519209D02*
X133258314Y-105443019D01*
X133258314Y-105443019D02*
X133220218Y-105290638D01*
X133220218Y-105290638D02*
X133220218Y-105176352D01*
X133220218Y-105176352D02*
X133258314Y-105023971D01*
X133258314Y-105023971D02*
X133296409Y-104947780D01*
X133296409Y-104947780D02*
X133372599Y-104871590D01*
X133372599Y-104871590D02*
X133486885Y-104833495D01*
X133486885Y-104833495D02*
X133563076Y-104833495D01*
X133563076Y-104833495D02*
X133677361Y-104871590D01*
X133677361Y-104871590D02*
X133715457Y-104909685D01*
X134515457Y-105557304D02*
X134477361Y-105595400D01*
X134477361Y-105595400D02*
X134363076Y-105633495D01*
X134363076Y-105633495D02*
X134286885Y-105633495D01*
X134286885Y-105633495D02*
X134172599Y-105595400D01*
X134172599Y-105595400D02*
X134096409Y-105519209D01*
X134096409Y-105519209D02*
X134058314Y-105443019D01*
X134058314Y-105443019D02*
X134020218Y-105290638D01*
X134020218Y-105290638D02*
X134020218Y-105176352D01*
X134020218Y-105176352D02*
X134058314Y-105023971D01*
X134058314Y-105023971D02*
X134096409Y-104947780D01*
X134096409Y-104947780D02*
X134172599Y-104871590D01*
X134172599Y-104871590D02*
X134286885Y-104833495D01*
X134286885Y-104833495D02*
X134363076Y-104833495D01*
X134363076Y-104833495D02*
X134477361Y-104871590D01*
X134477361Y-104871590D02*
X134515457Y-104909685D01*
X134667838Y-105709685D02*
X135277361Y-105709685D01*
X135429742Y-105595400D02*
X135544028Y-105633495D01*
X135544028Y-105633495D02*
X135734504Y-105633495D01*
X135734504Y-105633495D02*
X135810695Y-105595400D01*
X135810695Y-105595400D02*
X135848790Y-105557304D01*
X135848790Y-105557304D02*
X135886885Y-105481114D01*
X135886885Y-105481114D02*
X135886885Y-105404923D01*
X135886885Y-105404923D02*
X135848790Y-105328733D01*
X135848790Y-105328733D02*
X135810695Y-105290638D01*
X135810695Y-105290638D02*
X135734504Y-105252542D01*
X135734504Y-105252542D02*
X135582123Y-105214447D01*
X135582123Y-105214447D02*
X135505933Y-105176352D01*
X135505933Y-105176352D02*
X135467838Y-105138257D01*
X135467838Y-105138257D02*
X135429742Y-105062066D01*
X135429742Y-105062066D02*
X135429742Y-104985876D01*
X135429742Y-104985876D02*
X135467838Y-104909685D01*
X135467838Y-104909685D02*
X135505933Y-104871590D01*
X135505933Y-104871590D02*
X135582123Y-104833495D01*
X135582123Y-104833495D02*
X135772600Y-104833495D01*
X135772600Y-104833495D02*
X135886885Y-104871590D01*
X136153552Y-104833495D02*
X136686886Y-105633495D01*
X136686886Y-104833495D02*
X136153552Y-105633495D01*
X137410695Y-105633495D02*
X136953552Y-105633495D01*
X137182124Y-105633495D02*
X137182124Y-104833495D01*
X137182124Y-104833495D02*
X137105933Y-104947780D01*
X137105933Y-104947780D02*
X137029743Y-105023971D01*
X137029743Y-105023971D02*
X136953552Y-105062066D01*
X157296066Y-84304419D02*
X157296066Y-85018704D01*
X157296066Y-85018704D02*
X157248447Y-85161561D01*
X157248447Y-85161561D02*
X157153209Y-85256800D01*
X157153209Y-85256800D02*
X157010352Y-85304419D01*
X157010352Y-85304419D02*
X156915114Y-85304419D01*
X157724638Y-84399657D02*
X157772257Y-84352038D01*
X157772257Y-84352038D02*
X157867495Y-84304419D01*
X157867495Y-84304419D02*
X158105590Y-84304419D01*
X158105590Y-84304419D02*
X158200828Y-84352038D01*
X158200828Y-84352038D02*
X158248447Y-84399657D01*
X158248447Y-84399657D02*
X158296066Y-84494895D01*
X158296066Y-84494895D02*
X158296066Y-84590133D01*
X158296066Y-84590133D02*
X158248447Y-84732990D01*
X158248447Y-84732990D02*
X157677019Y-85304419D01*
X157677019Y-85304419D02*
X158296066Y-85304419D01*
X148263248Y-115036095D02*
X148263248Y-114236095D01*
X149101343Y-114959904D02*
X149063247Y-114998000D01*
X149063247Y-114998000D02*
X148948962Y-115036095D01*
X148948962Y-115036095D02*
X148872771Y-115036095D01*
X148872771Y-115036095D02*
X148758485Y-114998000D01*
X148758485Y-114998000D02*
X148682295Y-114921809D01*
X148682295Y-114921809D02*
X148644200Y-114845619D01*
X148644200Y-114845619D02*
X148606104Y-114693238D01*
X148606104Y-114693238D02*
X148606104Y-114578952D01*
X148606104Y-114578952D02*
X148644200Y-114426571D01*
X148644200Y-114426571D02*
X148682295Y-114350380D01*
X148682295Y-114350380D02*
X148758485Y-114274190D01*
X148758485Y-114274190D02*
X148872771Y-114236095D01*
X148872771Y-114236095D02*
X148948962Y-114236095D01*
X148948962Y-114236095D02*
X149063247Y-114274190D01*
X149063247Y-114274190D02*
X149101343Y-114312285D01*
X149406104Y-114312285D02*
X149444200Y-114274190D01*
X149444200Y-114274190D02*
X149520390Y-114236095D01*
X149520390Y-114236095D02*
X149710866Y-114236095D01*
X149710866Y-114236095D02*
X149787057Y-114274190D01*
X149787057Y-114274190D02*
X149825152Y-114312285D01*
X149825152Y-114312285D02*
X149863247Y-114388476D01*
X149863247Y-114388476D02*
X149863247Y-114464666D01*
X149863247Y-114464666D02*
X149825152Y-114578952D01*
X149825152Y-114578952D02*
X149368009Y-115036095D01*
X149368009Y-115036095D02*
X149863247Y-115036095D01*
D12*
X129359276Y-83088495D02*
X129359276Y-83736114D01*
X129359276Y-83736114D02*
X129397371Y-83812304D01*
X129397371Y-83812304D02*
X129435466Y-83850400D01*
X129435466Y-83850400D02*
X129511657Y-83888495D01*
X129511657Y-83888495D02*
X129664038Y-83888495D01*
X129664038Y-83888495D02*
X129740228Y-83850400D01*
X129740228Y-83850400D02*
X129778323Y-83812304D01*
X129778323Y-83812304D02*
X129816419Y-83736114D01*
X129816419Y-83736114D02*
X129816419Y-83088495D01*
X130121180Y-83088495D02*
X130616418Y-83088495D01*
X130616418Y-83088495D02*
X130349752Y-83393257D01*
X130349752Y-83393257D02*
X130464037Y-83393257D01*
X130464037Y-83393257D02*
X130540228Y-83431352D01*
X130540228Y-83431352D02*
X130578323Y-83469447D01*
X130578323Y-83469447D02*
X130616418Y-83545638D01*
X130616418Y-83545638D02*
X130616418Y-83736114D01*
X130616418Y-83736114D02*
X130578323Y-83812304D01*
X130578323Y-83812304D02*
X130540228Y-83850400D01*
X130540228Y-83850400D02*
X130464037Y-83888495D01*
X130464037Y-83888495D02*
X130235466Y-83888495D01*
X130235466Y-83888495D02*
X130159275Y-83850400D01*
X130159275Y-83850400D02*
X130121180Y-83812304D01*
D10*
X142414924Y-119006695D02*
X142414924Y-119654314D01*
X142414924Y-119654314D02*
X142453019Y-119730504D01*
X142453019Y-119730504D02*
X142491114Y-119768600D01*
X142491114Y-119768600D02*
X142567305Y-119806695D01*
X142567305Y-119806695D02*
X142719686Y-119806695D01*
X142719686Y-119806695D02*
X142795876Y-119768600D01*
X142795876Y-119768600D02*
X142833971Y-119730504D01*
X142833971Y-119730504D02*
X142872067Y-119654314D01*
X142872067Y-119654314D02*
X142872067Y-119006695D01*
X143672066Y-119806695D02*
X143214923Y-119806695D01*
X143443495Y-119806695D02*
X143443495Y-119006695D01*
X143443495Y-119006695D02*
X143367304Y-119120980D01*
X143367304Y-119120980D02*
X143291114Y-119197171D01*
X143291114Y-119197171D02*
X143214923Y-119235266D01*
X143976828Y-119082885D02*
X144014924Y-119044790D01*
X144014924Y-119044790D02*
X144091114Y-119006695D01*
X144091114Y-119006695D02*
X144281590Y-119006695D01*
X144281590Y-119006695D02*
X144357781Y-119044790D01*
X144357781Y-119044790D02*
X144395876Y-119082885D01*
X144395876Y-119082885D02*
X144433971Y-119159076D01*
X144433971Y-119159076D02*
X144433971Y-119235266D01*
X144433971Y-119235266D02*
X144395876Y-119349552D01*
X144395876Y-119349552D02*
X143938733Y-119806695D01*
X143938733Y-119806695D02*
X144433971Y-119806695D01*
X144534999Y-120240019D02*
X144534999Y-120478114D01*
X144296904Y-120382876D02*
X144534999Y-120478114D01*
X144534999Y-120478114D02*
X144773094Y-120382876D01*
X144392142Y-120668590D02*
X144534999Y-120478114D01*
X144534999Y-120478114D02*
X144677856Y-120668590D01*
X144534999Y-120240019D02*
X144534999Y-120478114D01*
X144296904Y-120382876D02*
X144534999Y-120478114D01*
X144534999Y-120478114D02*
X144773094Y-120382876D01*
X144392142Y-120668590D02*
X144534999Y-120478114D01*
X144534999Y-120478114D02*
X144677856Y-120668590D01*
X141532400Y-104015726D02*
X141532400Y-103315726D01*
X141532400Y-103315726D02*
X141699067Y-103315726D01*
X141699067Y-103315726D02*
X141799067Y-103349059D01*
X141799067Y-103349059D02*
X141865734Y-103415726D01*
X141865734Y-103415726D02*
X141899067Y-103482393D01*
X141899067Y-103482393D02*
X141932400Y-103615726D01*
X141932400Y-103615726D02*
X141932400Y-103715726D01*
X141932400Y-103715726D02*
X141899067Y-103849059D01*
X141899067Y-103849059D02*
X141865734Y-103915726D01*
X141865734Y-103915726D02*
X141799067Y-103982393D01*
X141799067Y-103982393D02*
X141699067Y-104015726D01*
X141699067Y-104015726D02*
X141532400Y-104015726D01*
X142232400Y-104015726D02*
X142232400Y-103315726D01*
X142699067Y-103315726D02*
X142832400Y-103315726D01*
X142832400Y-103315726D02*
X142899067Y-103349059D01*
X142899067Y-103349059D02*
X142965733Y-103415726D01*
X142965733Y-103415726D02*
X142999067Y-103549059D01*
X142999067Y-103549059D02*
X142999067Y-103782393D01*
X142999067Y-103782393D02*
X142965733Y-103915726D01*
X142965733Y-103915726D02*
X142899067Y-103982393D01*
X142899067Y-103982393D02*
X142832400Y-104015726D01*
X142832400Y-104015726D02*
X142699067Y-104015726D01*
X142699067Y-104015726D02*
X142632400Y-103982393D01*
X142632400Y-103982393D02*
X142565733Y-103915726D01*
X142565733Y-103915726D02*
X142532400Y-103782393D01*
X142532400Y-103782393D02*
X142532400Y-103549059D01*
X142532400Y-103549059D02*
X142565733Y-103415726D01*
X142565733Y-103415726D02*
X142632400Y-103349059D01*
X142632400Y-103349059D02*
X142699067Y-103315726D01*
X143232400Y-103315726D02*
X143665733Y-103315726D01*
X143665733Y-103315726D02*
X143432400Y-103582393D01*
X143432400Y-103582393D02*
X143532400Y-103582393D01*
X143532400Y-103582393D02*
X143599066Y-103615726D01*
X143599066Y-103615726D02*
X143632400Y-103649059D01*
X143632400Y-103649059D02*
X143665733Y-103715726D01*
X143665733Y-103715726D02*
X143665733Y-103882393D01*
X143665733Y-103882393D02*
X143632400Y-103949059D01*
X143632400Y-103949059D02*
X143599066Y-103982393D01*
X143599066Y-103982393D02*
X143532400Y-104015726D01*
X143532400Y-104015726D02*
X143332400Y-104015726D01*
X143332400Y-104015726D02*
X143265733Y-103982393D01*
X143265733Y-103982393D02*
X143232400Y-103949059D01*
X143799067Y-104082393D02*
X144332400Y-104082393D01*
X144499066Y-104015726D02*
X144499066Y-103315726D01*
X144499066Y-103315726D02*
X144665733Y-103315726D01*
X144665733Y-103315726D02*
X144765733Y-103349059D01*
X144765733Y-103349059D02*
X144832400Y-103415726D01*
X144832400Y-103415726D02*
X144865733Y-103482393D01*
X144865733Y-103482393D02*
X144899066Y-103615726D01*
X144899066Y-103615726D02*
X144899066Y-103715726D01*
X144899066Y-103715726D02*
X144865733Y-103849059D01*
X144865733Y-103849059D02*
X144832400Y-103915726D01*
X144832400Y-103915726D02*
X144765733Y-103982393D01*
X144765733Y-103982393D02*
X144665733Y-104015726D01*
X144665733Y-104015726D02*
X144499066Y-104015726D01*
X145565733Y-104015726D02*
X145165733Y-104015726D01*
X145365733Y-104015726D02*
X145365733Y-103315726D01*
X145365733Y-103315726D02*
X145299066Y-103415726D01*
X145299066Y-103415726D02*
X145232400Y-103482393D01*
X145232400Y-103482393D02*
X145165733Y-103515726D01*
X137084409Y-128020904D02*
X137560599Y-128020904D01*
X136989171Y-128306619D02*
X137322504Y-127306619D01*
X137322504Y-127306619D02*
X137655837Y-128306619D01*
X137989171Y-128306619D02*
X137989171Y-127306619D01*
X137989171Y-127306619D02*
X138560599Y-128306619D01*
X138560599Y-128306619D02*
X138560599Y-127306619D01*
X138893933Y-127306619D02*
X139465361Y-127306619D01*
X139179647Y-128306619D02*
X139179647Y-127306619D01*
X139560600Y-128401857D02*
X140322504Y-128401857D01*
X140512981Y-128259000D02*
X140655838Y-128306619D01*
X140655838Y-128306619D02*
X140893933Y-128306619D01*
X140893933Y-128306619D02*
X140989171Y-128259000D01*
X140989171Y-128259000D02*
X141036790Y-128211380D01*
X141036790Y-128211380D02*
X141084409Y-128116142D01*
X141084409Y-128116142D02*
X141084409Y-128020904D01*
X141084409Y-128020904D02*
X141036790Y-127925666D01*
X141036790Y-127925666D02*
X140989171Y-127878047D01*
X140989171Y-127878047D02*
X140893933Y-127830428D01*
X140893933Y-127830428D02*
X140703457Y-127782809D01*
X140703457Y-127782809D02*
X140608219Y-127735190D01*
X140608219Y-127735190D02*
X140560600Y-127687571D01*
X140560600Y-127687571D02*
X140512981Y-127592333D01*
X140512981Y-127592333D02*
X140512981Y-127497095D01*
X140512981Y-127497095D02*
X140560600Y-127401857D01*
X140560600Y-127401857D02*
X140608219Y-127354238D01*
X140608219Y-127354238D02*
X140703457Y-127306619D01*
X140703457Y-127306619D02*
X140941552Y-127306619D01*
X140941552Y-127306619D02*
X141084409Y-127354238D01*
X141512981Y-128306619D02*
X141512981Y-127306619D01*
X141512981Y-127306619D02*
X141846314Y-128020904D01*
X141846314Y-128020904D02*
X142179647Y-127306619D01*
X142179647Y-127306619D02*
X142179647Y-128306619D01*
X142608219Y-128020904D02*
X143084409Y-128020904D01*
X142512981Y-128306619D02*
X142846314Y-127306619D01*
X142846314Y-127306619D02*
X143179647Y-128306619D01*
X144036790Y-128306619D02*
X143465362Y-128306619D01*
X143751076Y-128306619D02*
X143751076Y-127306619D01*
X143751076Y-127306619D02*
X143655838Y-127449476D01*
X143655838Y-127449476D02*
X143560600Y-127544714D01*
X143560600Y-127544714D02*
X143465362Y-127592333D01*
X138404799Y-111357633D02*
X138171466Y-111024300D01*
X138004799Y-111357633D02*
X138004799Y-110657633D01*
X138004799Y-110657633D02*
X138271466Y-110657633D01*
X138271466Y-110657633D02*
X138338133Y-110690966D01*
X138338133Y-110690966D02*
X138371466Y-110724300D01*
X138371466Y-110724300D02*
X138404799Y-110790966D01*
X138404799Y-110790966D02*
X138404799Y-110890966D01*
X138404799Y-110890966D02*
X138371466Y-110957633D01*
X138371466Y-110957633D02*
X138338133Y-110990966D01*
X138338133Y-110990966D02*
X138271466Y-111024300D01*
X138271466Y-111024300D02*
X138004799Y-111024300D01*
X138638133Y-110657633D02*
X139071466Y-110657633D01*
X139071466Y-110657633D02*
X138838133Y-110924300D01*
X138838133Y-110924300D02*
X138938133Y-110924300D01*
X138938133Y-110924300D02*
X139004799Y-110957633D01*
X139004799Y-110957633D02*
X139038133Y-110990966D01*
X139038133Y-110990966D02*
X139071466Y-111057633D01*
X139071466Y-111057633D02*
X139071466Y-111224300D01*
X139071466Y-111224300D02*
X139038133Y-111290966D01*
X139038133Y-111290966D02*
X139004799Y-111324300D01*
X139004799Y-111324300D02*
X138938133Y-111357633D01*
X138938133Y-111357633D02*
X138738133Y-111357633D01*
X138738133Y-111357633D02*
X138671466Y-111324300D01*
X138671466Y-111324300D02*
X138638133Y-111290966D01*
X139671466Y-110890966D02*
X139671466Y-111357633D01*
X139504800Y-110624300D02*
X139338133Y-111124300D01*
X139338133Y-111124300D02*
X139771466Y-111124300D01*
X119281295Y-92526666D02*
X119852723Y-92526666D01*
X119852723Y-92526666D02*
X119967009Y-92564761D01*
X119967009Y-92564761D02*
X120043200Y-92640952D01*
X120043200Y-92640952D02*
X120081295Y-92755237D01*
X120081295Y-92755237D02*
X120081295Y-92831428D01*
X120081295Y-92145713D02*
X119281295Y-92145713D01*
X119281295Y-92145713D02*
X119281295Y-91840951D01*
X119281295Y-91840951D02*
X119319390Y-91764761D01*
X119319390Y-91764761D02*
X119357485Y-91726666D01*
X119357485Y-91726666D02*
X119433676Y-91688570D01*
X119433676Y-91688570D02*
X119547961Y-91688570D01*
X119547961Y-91688570D02*
X119624152Y-91726666D01*
X119624152Y-91726666D02*
X119662247Y-91764761D01*
X119662247Y-91764761D02*
X119700342Y-91840951D01*
X119700342Y-91840951D02*
X119700342Y-92145713D01*
X120081295Y-90926666D02*
X120081295Y-91383809D01*
X120081295Y-91155237D02*
X119281295Y-91155237D01*
X119281295Y-91155237D02*
X119395580Y-91231428D01*
X119395580Y-91231428D02*
X119471771Y-91307618D01*
X119471771Y-91307618D02*
X119509866Y-91383809D01*
X136572848Y-95930742D02*
X136572848Y-96311695D01*
X136306181Y-95511695D02*
X136572848Y-95930742D01*
X136572848Y-95930742D02*
X136839514Y-95511695D01*
X137525228Y-96311695D02*
X137068085Y-96311695D01*
X137296657Y-96311695D02*
X137296657Y-95511695D01*
X137296657Y-95511695D02*
X137220466Y-95625980D01*
X137220466Y-95625980D02*
X137144276Y-95702171D01*
X137144276Y-95702171D02*
X137068085Y-95740266D01*
X153053448Y-109448142D02*
X153053448Y-109829095D01*
X152786781Y-109029095D02*
X153053448Y-109448142D01*
X153053448Y-109448142D02*
X153320114Y-109029095D01*
X153510590Y-109029095D02*
X154005828Y-109029095D01*
X154005828Y-109029095D02*
X153739162Y-109333857D01*
X153739162Y-109333857D02*
X153853447Y-109333857D01*
X153853447Y-109333857D02*
X153929638Y-109371952D01*
X153929638Y-109371952D02*
X153967733Y-109410047D01*
X153967733Y-109410047D02*
X154005828Y-109486238D01*
X154005828Y-109486238D02*
X154005828Y-109676714D01*
X154005828Y-109676714D02*
X153967733Y-109752904D01*
X153967733Y-109752904D02*
X153929638Y-109791000D01*
X153929638Y-109791000D02*
X153853447Y-109829095D01*
X153853447Y-109829095D02*
X153624876Y-109829095D01*
X153624876Y-109829095D02*
X153548685Y-109791000D01*
X153548685Y-109791000D02*
X153510590Y-109752904D01*
X119599457Y-127083895D02*
X119599457Y-127731514D01*
X119599457Y-127731514D02*
X119637552Y-127807704D01*
X119637552Y-127807704D02*
X119675647Y-127845800D01*
X119675647Y-127845800D02*
X119751838Y-127883895D01*
X119751838Y-127883895D02*
X119904219Y-127883895D01*
X119904219Y-127883895D02*
X119980409Y-127845800D01*
X119980409Y-127845800D02*
X120018504Y-127807704D01*
X120018504Y-127807704D02*
X120056600Y-127731514D01*
X120056600Y-127731514D02*
X120056600Y-127083895D01*
X120399456Y-127655323D02*
X120780409Y-127655323D01*
X120323266Y-127883895D02*
X120589933Y-127083895D01*
X120589933Y-127083895D02*
X120856599Y-127883895D01*
X121580409Y-127883895D02*
X121313742Y-127502942D01*
X121123266Y-127883895D02*
X121123266Y-127083895D01*
X121123266Y-127083895D02*
X121428028Y-127083895D01*
X121428028Y-127083895D02*
X121504218Y-127121990D01*
X121504218Y-127121990D02*
X121542313Y-127160085D01*
X121542313Y-127160085D02*
X121580409Y-127236276D01*
X121580409Y-127236276D02*
X121580409Y-127350561D01*
X121580409Y-127350561D02*
X121542313Y-127426752D01*
X121542313Y-127426752D02*
X121504218Y-127464847D01*
X121504218Y-127464847D02*
X121428028Y-127502942D01*
X121428028Y-127502942D02*
X121123266Y-127502942D01*
X121808980Y-127083895D02*
X122266123Y-127083895D01*
X122037551Y-127883895D02*
X122037551Y-127083895D01*
X122494694Y-127160085D02*
X122532790Y-127121990D01*
X122532790Y-127121990D02*
X122608980Y-127083895D01*
X122608980Y-127083895D02*
X122799456Y-127083895D01*
X122799456Y-127083895D02*
X122875647Y-127121990D01*
X122875647Y-127121990D02*
X122913742Y-127160085D01*
X122913742Y-127160085D02*
X122951837Y-127236276D01*
X122951837Y-127236276D02*
X122951837Y-127312466D01*
X122951837Y-127312466D02*
X122913742Y-127426752D01*
X122913742Y-127426752D02*
X122456599Y-127883895D01*
X122456599Y-127883895D02*
X122951837Y-127883895D01*
X154114133Y-104698233D02*
X153880800Y-104364900D01*
X153714133Y-104698233D02*
X153714133Y-103998233D01*
X153714133Y-103998233D02*
X153980800Y-103998233D01*
X153980800Y-103998233D02*
X154047467Y-104031566D01*
X154047467Y-104031566D02*
X154080800Y-104064900D01*
X154080800Y-104064900D02*
X154114133Y-104131566D01*
X154114133Y-104131566D02*
X154114133Y-104231566D01*
X154114133Y-104231566D02*
X154080800Y-104298233D01*
X154080800Y-104298233D02*
X154047467Y-104331566D01*
X154047467Y-104331566D02*
X153980800Y-104364900D01*
X153980800Y-104364900D02*
X153714133Y-104364900D01*
X154347467Y-103998233D02*
X154814133Y-104698233D01*
X154814133Y-103998233D02*
X154347467Y-104698233D01*
X155080800Y-104698233D02*
X155080800Y-103998233D01*
X155080800Y-103998233D02*
X155247467Y-103998233D01*
X155247467Y-103998233D02*
X155347467Y-104031566D01*
X155347467Y-104031566D02*
X155414134Y-104098233D01*
X155414134Y-104098233D02*
X155447467Y-104164900D01*
X155447467Y-104164900D02*
X155480800Y-104298233D01*
X155480800Y-104298233D02*
X155480800Y-104398233D01*
X155480800Y-104398233D02*
X155447467Y-104531566D01*
X155447467Y-104531566D02*
X155414134Y-104598233D01*
X155414134Y-104598233D02*
X155347467Y-104664900D01*
X155347467Y-104664900D02*
X155247467Y-104698233D01*
X155247467Y-104698233D02*
X155080800Y-104698233D01*
X155614134Y-104764900D02*
X156147467Y-104764900D01*
X156680800Y-104698233D02*
X156280800Y-104698233D01*
X156480800Y-104698233D02*
X156480800Y-103998233D01*
X156480800Y-103998233D02*
X156414133Y-104098233D01*
X156414133Y-104098233D02*
X156347467Y-104164900D01*
X156347467Y-104164900D02*
X156280800Y-104198233D01*
X156814134Y-104764900D02*
X157347467Y-104764900D01*
X157914133Y-104698233D02*
X157680800Y-104364900D01*
X157514133Y-104698233D02*
X157514133Y-103998233D01*
X157514133Y-103998233D02*
X157780800Y-103998233D01*
X157780800Y-103998233D02*
X157847467Y-104031566D01*
X157847467Y-104031566D02*
X157880800Y-104064900D01*
X157880800Y-104064900D02*
X157914133Y-104131566D01*
X157914133Y-104131566D02*
X157914133Y-104231566D01*
X157914133Y-104231566D02*
X157880800Y-104298233D01*
X157880800Y-104298233D02*
X157847467Y-104331566D01*
X157847467Y-104331566D02*
X157780800Y-104364900D01*
X157780800Y-104364900D02*
X157514133Y-104364900D01*
X158580800Y-104698233D02*
X158180800Y-104698233D01*
X158380800Y-104698233D02*
X158380800Y-103998233D01*
X158380800Y-103998233D02*
X158314133Y-104098233D01*
X158314133Y-104098233D02*
X158247467Y-104164900D01*
X158247467Y-104164900D02*
X158180800Y-104198233D01*
X157143666Y-112498419D02*
X157143666Y-113212704D01*
X157143666Y-113212704D02*
X157096047Y-113355561D01*
X157096047Y-113355561D02*
X157000809Y-113450800D01*
X157000809Y-113450800D02*
X156857952Y-113498419D01*
X156857952Y-113498419D02*
X156762714Y-113498419D01*
X157524619Y-112498419D02*
X158143666Y-112498419D01*
X158143666Y-112498419D02*
X157810333Y-112879371D01*
X157810333Y-112879371D02*
X157953190Y-112879371D01*
X157953190Y-112879371D02*
X158048428Y-112926990D01*
X158048428Y-112926990D02*
X158096047Y-112974609D01*
X158096047Y-112974609D02*
X158143666Y-113069847D01*
X158143666Y-113069847D02*
X158143666Y-113307942D01*
X158143666Y-113307942D02*
X158096047Y-113403180D01*
X158096047Y-113403180D02*
X158048428Y-113450800D01*
X158048428Y-113450800D02*
X157953190Y-113498419D01*
X157953190Y-113498419D02*
X157667476Y-113498419D01*
X157667476Y-113498419D02*
X157572238Y-113450800D01*
X157572238Y-113450800D02*
X157524619Y-113403180D01*
X120813019Y-121795228D02*
X121622542Y-121795228D01*
X121622542Y-121795228D02*
X121717780Y-121747609D01*
X121717780Y-121747609D02*
X121765400Y-121699990D01*
X121765400Y-121699990D02*
X121813019Y-121604752D01*
X121813019Y-121604752D02*
X121813019Y-121414276D01*
X121813019Y-121414276D02*
X121765400Y-121319038D01*
X121765400Y-121319038D02*
X121717780Y-121271419D01*
X121717780Y-121271419D02*
X121622542Y-121223800D01*
X121622542Y-121223800D02*
X120813019Y-121223800D01*
X121527304Y-120795228D02*
X121527304Y-120319038D01*
X121813019Y-120890466D02*
X120813019Y-120557133D01*
X120813019Y-120557133D02*
X121813019Y-120223800D01*
X121813019Y-119319038D02*
X121336828Y-119652371D01*
X121813019Y-119890466D02*
X120813019Y-119890466D01*
X120813019Y-119890466D02*
X120813019Y-119509514D01*
X120813019Y-119509514D02*
X120860638Y-119414276D01*
X120860638Y-119414276D02*
X120908257Y-119366657D01*
X120908257Y-119366657D02*
X121003495Y-119319038D01*
X121003495Y-119319038D02*
X121146352Y-119319038D01*
X121146352Y-119319038D02*
X121241590Y-119366657D01*
X121241590Y-119366657D02*
X121289209Y-119414276D01*
X121289209Y-119414276D02*
X121336828Y-119509514D01*
X121336828Y-119509514D02*
X121336828Y-119890466D01*
X120813019Y-119033323D02*
X120813019Y-118461895D01*
X121813019Y-118747609D02*
X120813019Y-118747609D01*
X121813019Y-117604752D02*
X121813019Y-118176180D01*
X121813019Y-117890466D02*
X120813019Y-117890466D01*
X120813019Y-117890466D02*
X120955876Y-117985704D01*
X120955876Y-117985704D02*
X121051114Y-118080942D01*
X121051114Y-118080942D02*
X121098733Y-118176180D01*
X141332441Y-80500906D02*
X141332441Y-81341913D01*
X141332441Y-81341913D02*
X141381912Y-81440855D01*
X141381912Y-81440855D02*
X141431383Y-81490326D01*
X141431383Y-81490326D02*
X141530325Y-81539796D01*
X141530325Y-81539796D02*
X141728209Y-81539796D01*
X141728209Y-81539796D02*
X141827151Y-81490326D01*
X141827151Y-81490326D02*
X141876622Y-81440855D01*
X141876622Y-81440855D02*
X141926093Y-81341913D01*
X141926093Y-81341913D02*
X141926093Y-80500906D01*
X142915512Y-80500906D02*
X142420802Y-80500906D01*
X142420802Y-80500906D02*
X142371331Y-80995616D01*
X142371331Y-80995616D02*
X142420802Y-80946145D01*
X142420802Y-80946145D02*
X142519744Y-80896674D01*
X142519744Y-80896674D02*
X142767099Y-80896674D01*
X142767099Y-80896674D02*
X142866041Y-80946145D01*
X142866041Y-80946145D02*
X142915512Y-80995616D01*
X142915512Y-80995616D02*
X142964983Y-81094558D01*
X142964983Y-81094558D02*
X142964983Y-81341913D01*
X142964983Y-81341913D02*
X142915512Y-81440855D01*
X142915512Y-81440855D02*
X142866041Y-81490326D01*
X142866041Y-81490326D02*
X142767099Y-81539796D01*
X142767099Y-81539796D02*
X142519744Y-81539796D01*
X142519744Y-81539796D02*
X142420802Y-81490326D01*
X142420802Y-81490326D02*
X142371331Y-81440855D01*
X138437181Y-113448765D02*
X138203848Y-113115432D01*
X138037181Y-113448765D02*
X138037181Y-112748765D01*
X138037181Y-112748765D02*
X138303848Y-112748765D01*
X138303848Y-112748765D02*
X138370515Y-112782098D01*
X138370515Y-112782098D02*
X138403848Y-112815432D01*
X138403848Y-112815432D02*
X138437181Y-112882098D01*
X138437181Y-112882098D02*
X138437181Y-112982098D01*
X138437181Y-112982098D02*
X138403848Y-113048765D01*
X138403848Y-113048765D02*
X138370515Y-113082098D01*
X138370515Y-113082098D02*
X138303848Y-113115432D01*
X138303848Y-113115432D02*
X138037181Y-113115432D01*
X138670515Y-112748765D02*
X139103848Y-112748765D01*
X139103848Y-112748765D02*
X138870515Y-113015432D01*
X138870515Y-113015432D02*
X138970515Y-113015432D01*
X138970515Y-113015432D02*
X139037181Y-113048765D01*
X139037181Y-113048765D02*
X139070515Y-113082098D01*
X139070515Y-113082098D02*
X139103848Y-113148765D01*
X139103848Y-113148765D02*
X139103848Y-113315432D01*
X139103848Y-113315432D02*
X139070515Y-113382098D01*
X139070515Y-113382098D02*
X139037181Y-113415432D01*
X139037181Y-113415432D02*
X138970515Y-113448765D01*
X138970515Y-113448765D02*
X138770515Y-113448765D01*
X138770515Y-113448765D02*
X138703848Y-113415432D01*
X138703848Y-113415432D02*
X138670515Y-113382098D01*
X139370515Y-112815432D02*
X139403848Y-112782098D01*
X139403848Y-112782098D02*
X139470515Y-112748765D01*
X139470515Y-112748765D02*
X139637182Y-112748765D01*
X139637182Y-112748765D02*
X139703848Y-112782098D01*
X139703848Y-112782098D02*
X139737182Y-112815432D01*
X139737182Y-112815432D02*
X139770515Y-112882098D01*
X139770515Y-112882098D02*
X139770515Y-112948765D01*
X139770515Y-112948765D02*
X139737182Y-113048765D01*
X139737182Y-113048765D02*
X139337182Y-113448765D01*
X139337182Y-113448765D02*
X139770515Y-113448765D01*
X138404799Y-112424433D02*
X138171466Y-112091100D01*
X138004799Y-112424433D02*
X138004799Y-111724433D01*
X138004799Y-111724433D02*
X138271466Y-111724433D01*
X138271466Y-111724433D02*
X138338133Y-111757766D01*
X138338133Y-111757766D02*
X138371466Y-111791100D01*
X138371466Y-111791100D02*
X138404799Y-111857766D01*
X138404799Y-111857766D02*
X138404799Y-111957766D01*
X138404799Y-111957766D02*
X138371466Y-112024433D01*
X138371466Y-112024433D02*
X138338133Y-112057766D01*
X138338133Y-112057766D02*
X138271466Y-112091100D01*
X138271466Y-112091100D02*
X138004799Y-112091100D01*
X138638133Y-111724433D02*
X139071466Y-111724433D01*
X139071466Y-111724433D02*
X138838133Y-111991100D01*
X138838133Y-111991100D02*
X138938133Y-111991100D01*
X138938133Y-111991100D02*
X139004799Y-112024433D01*
X139004799Y-112024433D02*
X139038133Y-112057766D01*
X139038133Y-112057766D02*
X139071466Y-112124433D01*
X139071466Y-112124433D02*
X139071466Y-112291100D01*
X139071466Y-112291100D02*
X139038133Y-112357766D01*
X139038133Y-112357766D02*
X139004799Y-112391100D01*
X139004799Y-112391100D02*
X138938133Y-112424433D01*
X138938133Y-112424433D02*
X138738133Y-112424433D01*
X138738133Y-112424433D02*
X138671466Y-112391100D01*
X138671466Y-112391100D02*
X138638133Y-112357766D01*
X139304800Y-111724433D02*
X139738133Y-111724433D01*
X139738133Y-111724433D02*
X139504800Y-111991100D01*
X139504800Y-111991100D02*
X139604800Y-111991100D01*
X139604800Y-111991100D02*
X139671466Y-112024433D01*
X139671466Y-112024433D02*
X139704800Y-112057766D01*
X139704800Y-112057766D02*
X139738133Y-112124433D01*
X139738133Y-112124433D02*
X139738133Y-112291100D01*
X139738133Y-112291100D02*
X139704800Y-112357766D01*
X139704800Y-112357766D02*
X139671466Y-112391100D01*
X139671466Y-112391100D02*
X139604800Y-112424433D01*
X139604800Y-112424433D02*
X139404800Y-112424433D01*
X139404800Y-112424433D02*
X139338133Y-112391100D01*
X139338133Y-112391100D02*
X139304800Y-112357766D01*
X131344276Y-76091619D02*
X131862371Y-76091619D01*
X131862371Y-76091619D02*
X131923323Y-76061142D01*
X131923323Y-76061142D02*
X131953800Y-76030666D01*
X131953800Y-76030666D02*
X131984276Y-75969714D01*
X131984276Y-75969714D02*
X131984276Y-75847809D01*
X131984276Y-75847809D02*
X131953800Y-75786857D01*
X131953800Y-75786857D02*
X131923323Y-75756380D01*
X131923323Y-75756380D02*
X131862371Y-75725904D01*
X131862371Y-75725904D02*
X131344276Y-75725904D01*
X131557609Y-75146857D02*
X131984276Y-75146857D01*
X131313800Y-75299238D02*
X131770942Y-75451619D01*
X131770942Y-75451619D02*
X131770942Y-75055428D01*
X125129695Y-89790819D02*
X125129695Y-90600342D01*
X125129695Y-90600342D02*
X125177314Y-90695580D01*
X125177314Y-90695580D02*
X125224933Y-90743200D01*
X125224933Y-90743200D02*
X125320171Y-90790819D01*
X125320171Y-90790819D02*
X125510647Y-90790819D01*
X125510647Y-90790819D02*
X125605885Y-90743200D01*
X125605885Y-90743200D02*
X125653504Y-90695580D01*
X125653504Y-90695580D02*
X125701123Y-90600342D01*
X125701123Y-90600342D02*
X125701123Y-89790819D01*
X126129695Y-89886057D02*
X126177314Y-89838438D01*
X126177314Y-89838438D02*
X126272552Y-89790819D01*
X126272552Y-89790819D02*
X126510647Y-89790819D01*
X126510647Y-89790819D02*
X126605885Y-89838438D01*
X126605885Y-89838438D02*
X126653504Y-89886057D01*
X126653504Y-89886057D02*
X126701123Y-89981295D01*
X126701123Y-89981295D02*
X126701123Y-90076533D01*
X126701123Y-90076533D02*
X126653504Y-90219390D01*
X126653504Y-90219390D02*
X126082076Y-90790819D01*
X126082076Y-90790819D02*
X126701123Y-90790819D01*
X131248533Y-87157780D02*
X131215200Y-87191114D01*
X131215200Y-87191114D02*
X131115200Y-87224447D01*
X131115200Y-87224447D02*
X131048533Y-87224447D01*
X131048533Y-87224447D02*
X130948533Y-87191114D01*
X130948533Y-87191114D02*
X130881867Y-87124447D01*
X130881867Y-87124447D02*
X130848533Y-87057780D01*
X130848533Y-87057780D02*
X130815200Y-86924447D01*
X130815200Y-86924447D02*
X130815200Y-86824447D01*
X130815200Y-86824447D02*
X130848533Y-86691114D01*
X130848533Y-86691114D02*
X130881867Y-86624447D01*
X130881867Y-86624447D02*
X130948533Y-86557780D01*
X130948533Y-86557780D02*
X131048533Y-86524447D01*
X131048533Y-86524447D02*
X131115200Y-86524447D01*
X131115200Y-86524447D02*
X131215200Y-86557780D01*
X131215200Y-86557780D02*
X131248533Y-86591114D01*
X131448533Y-86524447D02*
X131848533Y-86524447D01*
X131648533Y-87224447D02*
X131648533Y-86524447D01*
X132015200Y-86524447D02*
X132481866Y-87224447D01*
X132481866Y-86524447D02*
X132015200Y-87224447D01*
X133081867Y-87224447D02*
X132748533Y-87224447D01*
X132748533Y-87224447D02*
X132748533Y-86524447D01*
X133315200Y-86857780D02*
X133548534Y-86857780D01*
X133648534Y-87224447D02*
X133315200Y-87224447D01*
X133315200Y-87224447D02*
X133315200Y-86524447D01*
X133315200Y-86524447D02*
X133648534Y-86524447D01*
X133948533Y-87224447D02*
X133948533Y-86524447D01*
X133948533Y-86524447D02*
X134115200Y-86524447D01*
X134115200Y-86524447D02*
X134215200Y-86557780D01*
X134215200Y-86557780D02*
X134281867Y-86624447D01*
X134281867Y-86624447D02*
X134315200Y-86691114D01*
X134315200Y-86691114D02*
X134348533Y-86824447D01*
X134348533Y-86824447D02*
X134348533Y-86924447D01*
X134348533Y-86924447D02*
X134315200Y-87057780D01*
X134315200Y-87057780D02*
X134281867Y-87124447D01*
X134281867Y-87124447D02*
X134215200Y-87191114D01*
X134215200Y-87191114D02*
X134115200Y-87224447D01*
X134115200Y-87224447D02*
X133948533Y-87224447D01*
X135015200Y-87224447D02*
X134615200Y-87224447D01*
X134815200Y-87224447D02*
X134815200Y-86524447D01*
X134815200Y-86524447D02*
X134748533Y-86624447D01*
X134748533Y-86624447D02*
X134681867Y-86691114D01*
X134681867Y-86691114D02*
X134615200Y-86724447D01*
X119453366Y-100855999D02*
X119453366Y-100622666D01*
X119820033Y-100522666D02*
X119820033Y-100855999D01*
X119820033Y-100855999D02*
X119120033Y-100855999D01*
X119120033Y-100855999D02*
X119120033Y-100522666D01*
X119820033Y-100222666D02*
X119120033Y-100222666D01*
X119120033Y-100222666D02*
X119820033Y-99822666D01*
X119820033Y-99822666D02*
X119120033Y-99822666D01*
X119120033Y-99289333D02*
X119620033Y-99289333D01*
X119620033Y-99289333D02*
X119720033Y-99322666D01*
X119720033Y-99322666D02*
X119786700Y-99389333D01*
X119786700Y-99389333D02*
X119820033Y-99489333D01*
X119820033Y-99489333D02*
X119820033Y-99556000D01*
X119120033Y-98956000D02*
X119686700Y-98956000D01*
X119686700Y-98956000D02*
X119753366Y-98922667D01*
X119753366Y-98922667D02*
X119786700Y-98889333D01*
X119786700Y-98889333D02*
X119820033Y-98822667D01*
X119820033Y-98822667D02*
X119820033Y-98689333D01*
X119820033Y-98689333D02*
X119786700Y-98622667D01*
X119786700Y-98622667D02*
X119753366Y-98589333D01*
X119753366Y-98589333D02*
X119686700Y-98556000D01*
X119686700Y-98556000D02*
X119120033Y-98556000D01*
X119820033Y-98222667D02*
X119120033Y-98222667D01*
X119120033Y-98222667D02*
X119620033Y-97989334D01*
X119620033Y-97989334D02*
X119120033Y-97756000D01*
X119120033Y-97756000D02*
X119820033Y-97756000D01*
X119820033Y-97422667D02*
X119120033Y-97422667D01*
X119120033Y-97422667D02*
X119120033Y-97156000D01*
X119120033Y-97156000D02*
X119153366Y-97089334D01*
X119153366Y-97089334D02*
X119186700Y-97056000D01*
X119186700Y-97056000D02*
X119253366Y-97022667D01*
X119253366Y-97022667D02*
X119353366Y-97022667D01*
X119353366Y-97022667D02*
X119420033Y-97056000D01*
X119420033Y-97056000D02*
X119453366Y-97089334D01*
X119453366Y-97089334D02*
X119486700Y-97156000D01*
X119486700Y-97156000D02*
X119486700Y-97422667D01*
X119453366Y-96722667D02*
X119453366Y-96489334D01*
X119820033Y-96389334D02*
X119820033Y-96722667D01*
X119820033Y-96722667D02*
X119120033Y-96722667D01*
X119120033Y-96722667D02*
X119120033Y-96389334D01*
X119820033Y-95689334D02*
X119486700Y-95922667D01*
X119820033Y-96089334D02*
X119120033Y-96089334D01*
X119120033Y-96089334D02*
X119120033Y-95822667D01*
X119120033Y-95822667D02*
X119153366Y-95756001D01*
X119153366Y-95756001D02*
X119186700Y-95722667D01*
X119186700Y-95722667D02*
X119253366Y-95689334D01*
X119253366Y-95689334D02*
X119353366Y-95689334D01*
X119353366Y-95689334D02*
X119420033Y-95722667D01*
X119420033Y-95722667D02*
X119453366Y-95756001D01*
X119453366Y-95756001D02*
X119486700Y-95822667D01*
X119486700Y-95822667D02*
X119486700Y-96089334D01*
X119820033Y-95022667D02*
X119820033Y-95422667D01*
X119820033Y-95222667D02*
X119120033Y-95222667D01*
X119120033Y-95222667D02*
X119220033Y-95289334D01*
X119220033Y-95289334D02*
X119286700Y-95356001D01*
X119286700Y-95356001D02*
X119320033Y-95422667D01*
X131975566Y-101263932D02*
X132008900Y-101163932D01*
X132008900Y-101163932D02*
X132042233Y-101130598D01*
X132042233Y-101130598D02*
X132108900Y-101097265D01*
X132108900Y-101097265D02*
X132208900Y-101097265D01*
X132208900Y-101097265D02*
X132275566Y-101130598D01*
X132275566Y-101130598D02*
X132308900Y-101163932D01*
X132308900Y-101163932D02*
X132342233Y-101230598D01*
X132342233Y-101230598D02*
X132342233Y-101497265D01*
X132342233Y-101497265D02*
X131642233Y-101497265D01*
X131642233Y-101497265D02*
X131642233Y-101263932D01*
X131642233Y-101263932D02*
X131675566Y-101197265D01*
X131675566Y-101197265D02*
X131708900Y-101163932D01*
X131708900Y-101163932D02*
X131775566Y-101130598D01*
X131775566Y-101130598D02*
X131842233Y-101130598D01*
X131842233Y-101130598D02*
X131908900Y-101163932D01*
X131908900Y-101163932D02*
X131942233Y-101197265D01*
X131942233Y-101197265D02*
X131975566Y-101263932D01*
X131975566Y-101263932D02*
X131975566Y-101497265D01*
X131642233Y-100663932D02*
X131642233Y-100530598D01*
X131642233Y-100530598D02*
X131675566Y-100463932D01*
X131675566Y-100463932D02*
X131742233Y-100397265D01*
X131742233Y-100397265D02*
X131875566Y-100363932D01*
X131875566Y-100363932D02*
X132108900Y-100363932D01*
X132108900Y-100363932D02*
X132242233Y-100397265D01*
X132242233Y-100397265D02*
X132308900Y-100463932D01*
X132308900Y-100463932D02*
X132342233Y-100530598D01*
X132342233Y-100530598D02*
X132342233Y-100663932D01*
X132342233Y-100663932D02*
X132308900Y-100730598D01*
X132308900Y-100730598D02*
X132242233Y-100797265D01*
X132242233Y-100797265D02*
X132108900Y-100830598D01*
X132108900Y-100830598D02*
X131875566Y-100830598D01*
X131875566Y-100830598D02*
X131742233Y-100797265D01*
X131742233Y-100797265D02*
X131675566Y-100730598D01*
X131675566Y-100730598D02*
X131642233Y-100663932D01*
X131642233Y-99930599D02*
X131642233Y-99797265D01*
X131642233Y-99797265D02*
X131675566Y-99730599D01*
X131675566Y-99730599D02*
X131742233Y-99663932D01*
X131742233Y-99663932D02*
X131875566Y-99630599D01*
X131875566Y-99630599D02*
X132108900Y-99630599D01*
X132108900Y-99630599D02*
X132242233Y-99663932D01*
X132242233Y-99663932D02*
X132308900Y-99730599D01*
X132308900Y-99730599D02*
X132342233Y-99797265D01*
X132342233Y-99797265D02*
X132342233Y-99930599D01*
X132342233Y-99930599D02*
X132308900Y-99997265D01*
X132308900Y-99997265D02*
X132242233Y-100063932D01*
X132242233Y-100063932D02*
X132108900Y-100097265D01*
X132108900Y-100097265D02*
X131875566Y-100097265D01*
X131875566Y-100097265D02*
X131742233Y-100063932D01*
X131742233Y-100063932D02*
X131675566Y-99997265D01*
X131675566Y-99997265D02*
X131642233Y-99930599D01*
X131642233Y-99430599D02*
X131642233Y-99030599D01*
X132342233Y-99230599D02*
X131642233Y-99230599D01*
X131642233Y-98597266D02*
X132142233Y-98597266D01*
X132142233Y-98597266D02*
X132242233Y-98630599D01*
X132242233Y-98630599D02*
X132308900Y-98697266D01*
X132308900Y-98697266D02*
X132342233Y-98797266D01*
X132342233Y-98797266D02*
X132342233Y-98863933D01*
X131642233Y-98263933D02*
X132208900Y-98263933D01*
X132208900Y-98263933D02*
X132275566Y-98230600D01*
X132275566Y-98230600D02*
X132308900Y-98197266D01*
X132308900Y-98197266D02*
X132342233Y-98130600D01*
X132342233Y-98130600D02*
X132342233Y-97997266D01*
X132342233Y-97997266D02*
X132308900Y-97930600D01*
X132308900Y-97930600D02*
X132275566Y-97897266D01*
X132275566Y-97897266D02*
X132208900Y-97863933D01*
X132208900Y-97863933D02*
X131642233Y-97863933D01*
X132342233Y-97530600D02*
X131642233Y-97530600D01*
X131642233Y-97530600D02*
X132142233Y-97297267D01*
X132142233Y-97297267D02*
X131642233Y-97063933D01*
X131642233Y-97063933D02*
X132342233Y-97063933D01*
X132342233Y-96730600D02*
X131642233Y-96730600D01*
X131642233Y-96730600D02*
X131642233Y-96463933D01*
X131642233Y-96463933D02*
X131675566Y-96397267D01*
X131675566Y-96397267D02*
X131708900Y-96363933D01*
X131708900Y-96363933D02*
X131775566Y-96330600D01*
X131775566Y-96330600D02*
X131875566Y-96330600D01*
X131875566Y-96330600D02*
X131942233Y-96363933D01*
X131942233Y-96363933D02*
X131975566Y-96397267D01*
X131975566Y-96397267D02*
X132008900Y-96463933D01*
X132008900Y-96463933D02*
X132008900Y-96730600D01*
X131975566Y-96030600D02*
X131975566Y-95797267D01*
X132342233Y-95697267D02*
X132342233Y-96030600D01*
X132342233Y-96030600D02*
X131642233Y-96030600D01*
X131642233Y-96030600D02*
X131642233Y-95697267D01*
X132342233Y-94997267D02*
X132008900Y-95230600D01*
X132342233Y-95397267D02*
X131642233Y-95397267D01*
X131642233Y-95397267D02*
X131642233Y-95130600D01*
X131642233Y-95130600D02*
X131675566Y-95063934D01*
X131675566Y-95063934D02*
X131708900Y-95030600D01*
X131708900Y-95030600D02*
X131775566Y-94997267D01*
X131775566Y-94997267D02*
X131875566Y-94997267D01*
X131875566Y-94997267D02*
X131942233Y-95030600D01*
X131942233Y-95030600D02*
X131975566Y-95063934D01*
X131975566Y-95063934D02*
X132008900Y-95130600D01*
X132008900Y-95130600D02*
X132008900Y-95397267D01*
X132342233Y-94330600D02*
X132342233Y-94730600D01*
X132342233Y-94530600D02*
X131642233Y-94530600D01*
X131642233Y-94530600D02*
X131742233Y-94597267D01*
X131742233Y-94597267D02*
X131808900Y-94663934D01*
X131808900Y-94663934D02*
X131842233Y-94730600D01*
X135131685Y-119908323D02*
X135512638Y-119908323D01*
X135055495Y-120136895D02*
X135322162Y-119336895D01*
X135322162Y-119336895D02*
X135588828Y-120136895D01*
X135855495Y-120136895D02*
X135855495Y-119336895D01*
X135855495Y-119336895D02*
X136312638Y-120136895D01*
X136312638Y-120136895D02*
X136312638Y-119336895D01*
X136579304Y-119336895D02*
X137036447Y-119336895D01*
X136807875Y-120136895D02*
X136807875Y-119336895D01*
X137112638Y-120213085D02*
X137722161Y-120213085D01*
X137912638Y-119336895D02*
X137912638Y-119984514D01*
X137912638Y-119984514D02*
X137950733Y-120060704D01*
X137950733Y-120060704D02*
X137988828Y-120098800D01*
X137988828Y-120098800D02*
X138065019Y-120136895D01*
X138065019Y-120136895D02*
X138217400Y-120136895D01*
X138217400Y-120136895D02*
X138293590Y-120098800D01*
X138293590Y-120098800D02*
X138331685Y-120060704D01*
X138331685Y-120060704D02*
X138369781Y-119984514D01*
X138369781Y-119984514D02*
X138369781Y-119336895D01*
X139017399Y-119717847D02*
X138750733Y-119717847D01*
X138750733Y-120136895D02*
X138750733Y-119336895D01*
X138750733Y-119336895D02*
X139131685Y-119336895D01*
X139817399Y-120136895D02*
X139436447Y-120136895D01*
X139436447Y-120136895D02*
X139436447Y-119336895D01*
X140503113Y-120136895D02*
X140045970Y-120136895D01*
X140274542Y-120136895D02*
X140274542Y-119336895D01*
X140274542Y-119336895D02*
X140198351Y-119451180D01*
X140198351Y-119451180D02*
X140122161Y-119527371D01*
X140122161Y-119527371D02*
X140045970Y-119565466D01*
X136801476Y-93098695D02*
X136801476Y-93746314D01*
X136801476Y-93746314D02*
X136839571Y-93822504D01*
X136839571Y-93822504D02*
X136877666Y-93860600D01*
X136877666Y-93860600D02*
X136953857Y-93898695D01*
X136953857Y-93898695D02*
X137106238Y-93898695D01*
X137106238Y-93898695D02*
X137182428Y-93860600D01*
X137182428Y-93860600D02*
X137220523Y-93822504D01*
X137220523Y-93822504D02*
X137258619Y-93746314D01*
X137258619Y-93746314D02*
X137258619Y-93098695D01*
X138058618Y-93898695D02*
X137601475Y-93898695D01*
X137830047Y-93898695D02*
X137830047Y-93098695D01*
X137830047Y-93098695D02*
X137753856Y-93212980D01*
X137753856Y-93212980D02*
X137677666Y-93289171D01*
X137677666Y-93289171D02*
X137601475Y-93327266D01*
X130331009Y-122054695D02*
X130788152Y-122054695D01*
X130559580Y-122854695D02*
X130559580Y-122054695D01*
X130978628Y-122054695D02*
X131511962Y-122854695D01*
X131511962Y-122054695D02*
X130978628Y-122854695D01*
X132197676Y-122854695D02*
X131816724Y-122854695D01*
X131816724Y-122854695D02*
X131816724Y-122054695D01*
X132464343Y-122435647D02*
X132731009Y-122435647D01*
X132845295Y-122854695D02*
X132464343Y-122854695D01*
X132464343Y-122854695D02*
X132464343Y-122054695D01*
X132464343Y-122054695D02*
X132845295Y-122054695D01*
X133188153Y-122854695D02*
X133188153Y-122054695D01*
X133188153Y-122054695D02*
X133378629Y-122054695D01*
X133378629Y-122054695D02*
X133492915Y-122092790D01*
X133492915Y-122092790D02*
X133569105Y-122168980D01*
X133569105Y-122168980D02*
X133607200Y-122245171D01*
X133607200Y-122245171D02*
X133645296Y-122397552D01*
X133645296Y-122397552D02*
X133645296Y-122511838D01*
X133645296Y-122511838D02*
X133607200Y-122664219D01*
X133607200Y-122664219D02*
X133569105Y-122740409D01*
X133569105Y-122740409D02*
X133492915Y-122816600D01*
X133492915Y-122816600D02*
X133378629Y-122854695D01*
X133378629Y-122854695D02*
X133188153Y-122854695D01*
X134407200Y-122854695D02*
X133950057Y-122854695D01*
X134178629Y-122854695D02*
X134178629Y-122054695D01*
X134178629Y-122054695D02*
X134102438Y-122168980D01*
X134102438Y-122168980D02*
X134026248Y-122245171D01*
X134026248Y-122245171D02*
X133950057Y-122283266D01*
D13*
%TO.C,R10*%
X124776300Y-95369742D02*
X124776300Y-95844258D01*
X123731300Y-95369742D02*
X123731300Y-95844258D01*
%TO.C,R9*%
X126931700Y-95844258D02*
X126931700Y-95369742D01*
X127976700Y-95844258D02*
X127976700Y-95369742D01*
%TO.C,R29*%
X142695200Y-101464441D02*
X142695200Y-101157159D01*
X143455200Y-101464441D02*
X143455200Y-101157159D01*
%TO.C,R38*%
X146784600Y-103641652D02*
X146784600Y-103948934D01*
X147544600Y-103641652D02*
X147544600Y-103948934D01*
%TO.C,RF_RST1*%
X152335000Y-100953200D02*
G75*
G02*
X150935000Y-100953200I-700000J0D01*
G01*
X150935000Y-100953200D02*
G75*
G02*
X152335000Y-100953200I700000J0D01*
G01*
%TO.C,C64*%
X152570400Y-75823764D02*
X152570400Y-76039436D01*
X153290400Y-75823764D02*
X153290400Y-76039436D01*
%TO.C,R17*%
X139733136Y-81779186D02*
X140040418Y-81779186D01*
X139733136Y-82539186D02*
X140040418Y-82539186D01*
%TO.C,R31*%
X141088759Y-113658800D02*
X141396041Y-113658800D01*
X141088759Y-114418800D02*
X141396041Y-114418800D01*
%TO.C,J1*%
X119968000Y-112897000D02*
X119968000Y-115747000D01*
X119968000Y-115747000D02*
X122818000Y-115747000D01*
X120208000Y-101487000D02*
X130028000Y-101487000D01*
X120208000Y-108497000D02*
X120208000Y-101487000D01*
X120208000Y-108497000D02*
X120208000Y-115507000D01*
X120208000Y-115507000D02*
X130028000Y-115507000D01*
X130028000Y-101487000D02*
X130028000Y-106687000D01*
X130028000Y-106687000D02*
X131428000Y-106687000D01*
X130028000Y-110307000D02*
X131428000Y-110307000D01*
X130028000Y-115507000D02*
X130028000Y-110307000D01*
X131428000Y-106687000D02*
X131428000Y-108497000D01*
X131428000Y-110307000D02*
X131428000Y-108497000D01*
%TO.C,C80*%
X145951636Y-119414600D02*
X145735964Y-119414600D01*
X145951636Y-120134600D02*
X145735964Y-120134600D01*
%TO.C,C6*%
X138778964Y-100390000D02*
X138994636Y-100390000D01*
X138778964Y-101110000D02*
X138994636Y-101110000D01*
%TO.C,R4*%
X122095800Y-87335559D02*
X122095800Y-87642841D01*
X122855800Y-87335559D02*
X122855800Y-87642841D01*
%TO.C,TXD_1_R1*%
X152167641Y-102910000D02*
X151860359Y-102910000D01*
X152167641Y-103670000D02*
X151860359Y-103670000D01*
%TO.C,BBIN_TP1*%
X127032600Y-81750800D02*
G75*
G02*
X125132600Y-81750800I-950000J0D01*
G01*
X125132600Y-81750800D02*
G75*
G02*
X127032600Y-81750800I950000J0D01*
G01*
%TO.C,R30*%
X143711200Y-101464441D02*
X143711200Y-101157159D01*
X144471200Y-101464441D02*
X144471200Y-101157159D01*
%TO.C,D-_TP1*%
X152843000Y-88177000D02*
G75*
G02*
X151443000Y-88177000I-700000J0D01*
G01*
X151443000Y-88177000D02*
G75*
G02*
X152843000Y-88177000I700000J0D01*
G01*
%TO.C,L4*%
X142765220Y-106620000D02*
X143046380Y-106620000D01*
X142765220Y-107640000D02*
X143046380Y-107640000D01*
%TO.C,POWER_UART1*%
X128715800Y-117124600D02*
X128715800Y-119884600D01*
X128825800Y-117124600D02*
X128715800Y-117124600D01*
X128825800Y-117124600D02*
X128825800Y-119884600D01*
X128825800Y-119884600D02*
X128715800Y-119884600D01*
X130095800Y-117124600D02*
X131475800Y-117124600D01*
X131475800Y-117124600D02*
X131475800Y-118504600D01*
%TO.C,R27*%
X151559800Y-76064441D02*
X151559800Y-75757159D01*
X152319800Y-76064441D02*
X152319800Y-75757159D01*
%TO.C,C5*%
X136119236Y-101380600D02*
X135903564Y-101380600D01*
X136119236Y-102100600D02*
X135903564Y-102100600D01*
%TO.C,C13*%
X134541164Y-94300000D02*
X134756836Y-94300000D01*
X134541164Y-95020000D02*
X134756836Y-95020000D01*
%TO.C,F1*%
X149885000Y-88174721D02*
X149885000Y-88500279D01*
X150905000Y-88174721D02*
X150905000Y-88500279D01*
%TO.C,CRXLED1*%
X121079800Y-85405159D02*
X121079800Y-85712441D01*
X121839800Y-85405159D02*
X121839800Y-85712441D01*
%TO.C,USBLED1*%
X154345000Y-92393641D02*
X154345000Y-92086359D01*
X155105000Y-92393641D02*
X155105000Y-92086359D01*
D14*
%TO.C,U11*%
X145659800Y-73404600D02*
X149659800Y-73404600D01*
X145659800Y-78404600D02*
X149659800Y-78404600D01*
D12*
X143494800Y-73399600D02*
G75*
G02*
X143294800Y-73399600I-100000J0D01*
G01*
X143294800Y-73399600D02*
G75*
G02*
X143494800Y-73399600I100000J0D01*
G01*
D13*
%TO.C,C79*%
X146982400Y-118409236D02*
X146982400Y-118193564D01*
X147702400Y-118409236D02*
X147702400Y-118193564D01*
%TO.C,D2*%
X150800400Y-86421000D02*
X152100400Y-86421000D01*
X152100400Y-83301000D02*
X150830400Y-83301000D01*
X150450400Y-83351000D02*
X150210400Y-83021000D01*
X150690400Y-83021000D01*
X150450400Y-83351000D01*
G36*
X150450400Y-83351000D02*
G01*
X150210400Y-83021000D01*
X150690400Y-83021000D01*
X150450400Y-83351000D01*
G37*
%TO.C,C74*%
X151896019Y-123331201D02*
X152177179Y-123331201D01*
X151896019Y-124351201D02*
X152177179Y-124351201D01*
%TO.C,R5*%
X129817400Y-88199159D02*
X129817400Y-88506441D01*
X130577400Y-88199159D02*
X130577400Y-88506441D01*
%TO.C,3V3LED1*%
X122095800Y-85407159D02*
X122095800Y-85714441D01*
X122855800Y-85407159D02*
X122855800Y-85714441D01*
%TO.C,CRX1*%
X141013200Y-88862800D02*
G75*
G02*
X139613200Y-88862800I-700000J0D01*
G01*
X139613200Y-88862800D02*
G75*
G02*
X141013200Y-88862800I700000J0D01*
G01*
%TO.C,J4*%
X136893800Y-86382800D02*
X136893800Y-85052800D01*
X138223800Y-86382800D02*
X136893800Y-86382800D01*
X139493800Y-83722800D02*
X144633800Y-83722800D01*
X139493800Y-86382800D02*
X139493800Y-83722800D01*
X139493800Y-86382800D02*
X144633800Y-86382800D01*
X144633800Y-86382800D02*
X144633800Y-83722800D01*
%TO.C,CSD1*%
X138930400Y-88862800D02*
G75*
G02*
X137530400Y-88862800I-700000J0D01*
G01*
X137530400Y-88862800D02*
G75*
G02*
X138930400Y-88862800I700000J0D01*
G01*
%TO.C,VCC_SX1*%
X135260658Y-106145700D02*
X134786142Y-106145700D01*
X135260658Y-107190700D02*
X134786142Y-107190700D01*
%TO.C,R1*%
X132789200Y-91270559D02*
X132789200Y-91577841D01*
X133549200Y-91270559D02*
X133549200Y-91577841D01*
%TO.C,J2*%
X156084400Y-80379600D02*
X157884400Y-80379600D01*
X156084400Y-89319600D02*
X157884400Y-89319600D01*
X161594400Y-80379600D02*
X160134400Y-80379600D01*
X161594400Y-80379600D02*
X161594400Y-89319600D01*
X161594400Y-89319600D02*
X160134400Y-89319600D01*
D14*
%TO.C,IC2*%
X144020600Y-108727200D02*
X144470600Y-108727200D01*
X144020600Y-109177200D02*
X144020600Y-108727200D01*
X144020600Y-112827200D02*
X144020600Y-112377200D01*
X144020600Y-112827200D02*
X144470600Y-112827200D01*
X147670600Y-108727200D02*
X148120600Y-108727200D01*
X147670600Y-112827200D02*
X148120600Y-112827200D01*
X148120600Y-109177200D02*
X148120600Y-108727200D01*
X148120600Y-112827200D02*
X148120600Y-112377200D01*
D12*
X148040600Y-113247200D02*
G75*
G02*
X147840600Y-113247200I-100000J0D01*
G01*
X147840600Y-113247200D02*
G75*
G02*
X148040600Y-113247200I100000J0D01*
G01*
D13*
%TO.C,C14*%
X134736836Y-98200000D02*
X134521164Y-98200000D01*
X134736836Y-98920000D02*
X134521164Y-98920000D01*
%TO.C,FB_R1*%
X153311878Y-121031201D02*
X152986320Y-121031201D01*
X153311878Y-122051201D02*
X152986320Y-122051201D01*
%TO.C,CANRX1*%
X134809000Y-88862800D02*
G75*
G02*
X133409000Y-88862800I-700000J0D01*
G01*
X133409000Y-88862800D02*
G75*
G02*
X134809000Y-88862800I700000J0D01*
G01*
%TO.C,C25*%
X137078213Y-73417186D02*
X136862541Y-73417186D01*
X137078213Y-74137186D02*
X136862541Y-74137186D01*
%TO.C,R18*%
X121079800Y-87646841D02*
X121079800Y-87339559D01*
X121839800Y-87646841D02*
X121839800Y-87339559D01*
%TO.C,C12*%
X141473000Y-76745820D02*
X141473000Y-77026980D01*
X142493000Y-76745820D02*
X142493000Y-77026980D01*
D12*
%TO.C,U3*%
X128347200Y-80516200D02*
X128822200Y-80516200D01*
X129172200Y-80616200D02*
X129672200Y-80616200D01*
X129172200Y-82716200D02*
X129172200Y-80616200D01*
X129672200Y-80616200D02*
X129672200Y-82716200D01*
X129672200Y-82716200D02*
X129172200Y-82716200D01*
D13*
%TO.C,DIO3*%
X147280400Y-100978600D02*
G75*
G02*
X145880400Y-100978600I-700000J0D01*
G01*
X145880400Y-100978600D02*
G75*
G02*
X147280400Y-100978600I700000J0D01*
G01*
%TO.C,R3*%
X133779800Y-91272559D02*
X133779800Y-91579841D01*
X134539800Y-91272559D02*
X134539800Y-91579841D01*
%TO.C,C9*%
X137435269Y-99215099D02*
X137219597Y-99215099D01*
X137435269Y-99935099D02*
X137219597Y-99935099D01*
%TO.C,C70*%
X148601599Y-124013365D02*
X148601599Y-124229037D01*
X149321599Y-124013365D02*
X149321599Y-124229037D01*
%TO.C,C18*%
X143045400Y-76971964D02*
X143045400Y-77187636D01*
X143765400Y-76971964D02*
X143765400Y-77187636D01*
%TO.C,VAA_TP1*%
X155561599Y-123541201D02*
G75*
G02*
X154161599Y-123541201I-700000J0D01*
G01*
X154161599Y-123541201D02*
G75*
G02*
X155561599Y-123541201I700000J0D01*
G01*
%TO.C,C27*%
X135268564Y-82838600D02*
X135484236Y-82838600D01*
X135268564Y-83558600D02*
X135484236Y-83558600D01*
%TO.C,R13*%
X153245000Y-92393641D02*
X153245000Y-92086359D01*
X154005000Y-92393641D02*
X154005000Y-92086359D01*
%TO.C,R2*%
X129152759Y-123128400D02*
X129460041Y-123128400D01*
X129152759Y-123888400D02*
X129460041Y-123888400D01*
%TO.C,CTX1*%
X152335000Y-98921200D02*
G75*
G02*
X150935000Y-98921200I-700000J0D01*
G01*
X150935000Y-98921200D02*
G75*
G02*
X152335000Y-98921200I700000J0D01*
G01*
D15*
%TO.C,U12*%
G36*
X148471999Y-123606701D02*
G01*
X148217999Y-123606701D01*
X148217999Y-123225701D01*
X148471999Y-123225701D01*
X148471999Y-123606701D01*
G37*
D13*
%TO.C,R12*%
X151788641Y-79669000D02*
X151481359Y-79669000D01*
X151788641Y-80429000D02*
X151481359Y-80429000D01*
%TO.C,C23*%
X130439620Y-73721200D02*
X130720780Y-73721200D01*
X130439620Y-74741200D02*
X130720780Y-74741200D01*
%TO.C,C53*%
X148910600Y-112399364D02*
X148910600Y-112615036D01*
X149630600Y-112399364D02*
X149630600Y-112615036D01*
%TO.C,C78*%
X145954236Y-116468200D02*
X145738564Y-116468200D01*
X145954236Y-117188200D02*
X145738564Y-117188200D01*
%TO.C,C66*%
X149333763Y-121181201D02*
X149549435Y-121181201D01*
X149333763Y-121901201D02*
X149549435Y-121901201D01*
%TO.C,R25*%
X140688600Y-101464441D02*
X140688600Y-101157159D01*
X141448600Y-101464441D02*
X141448600Y-101157159D01*
%TO.C,R6*%
X132840000Y-124019641D02*
X132840000Y-123712359D01*
X133600000Y-124019641D02*
X133600000Y-123712359D01*
%TO.C,C57*%
X144590800Y-107011836D02*
X144590800Y-106796164D01*
X145310800Y-107011836D02*
X145310800Y-106796164D01*
%TO.C,DIO3_D1*%
X145794000Y-103641652D02*
X145794000Y-103948934D01*
X146554000Y-103641652D02*
X146554000Y-103948934D01*
%TO.C,R14*%
X131725841Y-80506200D02*
X131418559Y-80506200D01*
X131725841Y-81266200D02*
X131418559Y-81266200D01*
%TO.C,C68*%
X150333763Y-120181201D02*
X150549435Y-120181201D01*
X150333763Y-120901201D02*
X150549435Y-120901201D01*
%TO.C,C15*%
X124846836Y-85734200D02*
X124631164Y-85734200D01*
X124846836Y-86454200D02*
X124631164Y-86454200D01*
%TO.C,C50*%
X151681704Y-110506979D02*
X151529201Y-110659482D01*
X152190821Y-111016096D02*
X152038318Y-111168599D01*
%TO.C,C20*%
X128098036Y-79586200D02*
X127882364Y-79586200D01*
X128098036Y-80306200D02*
X127882364Y-80306200D01*
%TO.C,ANT_SMA1*%
X145564400Y-128988400D02*
X146064400Y-128988400D01*
X145814400Y-129488400D02*
X145564400Y-128988400D01*
X146064400Y-128988400D02*
X145814400Y-129488400D01*
%TO.C,R34*%
X141086759Y-110661600D02*
X141394041Y-110661600D01*
X141086759Y-111421600D02*
X141394041Y-111421600D01*
%TO.C,C10*%
X137406600Y-91640236D02*
X137406600Y-91424564D01*
X138126600Y-91640236D02*
X138126600Y-91424564D01*
%TO.C,JP1*%
X120815400Y-92722800D02*
X120815400Y-91322800D01*
X121515400Y-90622800D02*
X122115400Y-90622800D01*
X122115400Y-93422800D02*
X121515400Y-93422800D01*
X122815400Y-91322800D02*
X122815400Y-92722800D01*
X120815400Y-91322800D02*
G75*
G02*
X121515400Y-90622800I699999J1D01*
G01*
X121515400Y-93422800D02*
G75*
G02*
X120815400Y-92722800I0J700000D01*
G01*
X122115400Y-90622800D02*
G75*
G02*
X122815400Y-91322800I1J-699999D01*
G01*
X122815400Y-92722800D02*
G75*
G02*
X122115400Y-93422800I-700000J0D01*
G01*
%TO.C,C52*%
X150229600Y-113095364D02*
X150229600Y-113311036D01*
X150949600Y-113095364D02*
X150949600Y-113311036D01*
%TO.C,R26*%
X141704600Y-101464441D02*
X141704600Y-101157159D01*
X142464600Y-101464441D02*
X142464600Y-101157159D01*
%TO.C,Y1*%
X133449000Y-97960000D02*
X135749000Y-97960000D01*
X135749000Y-97960000D02*
X135749000Y-95260000D01*
%TO.C,R16*%
X137873136Y-81779186D02*
X138180418Y-81779186D01*
X137873136Y-82539186D02*
X138180418Y-82539186D01*
%TO.C,R36*%
X149451359Y-102910000D02*
X149758641Y-102910000D01*
X149451359Y-103670000D02*
X149758641Y-103670000D01*
%TO.C,C11*%
X148021964Y-96072000D02*
X148237636Y-96072000D01*
X148021964Y-96792000D02*
X148237636Y-96792000D01*
%TO.C,R15*%
X126750200Y-76792559D02*
X126750200Y-77099841D01*
X127510200Y-76792559D02*
X127510200Y-77099841D01*
%TO.C,CPS1*%
X152335000Y-94806400D02*
G75*
G02*
X150935000Y-94806400I-700000J0D01*
G01*
X150935000Y-94806400D02*
G75*
G02*
X152335000Y-94806400I700000J0D01*
G01*
%TO.C,C61*%
X149433763Y-126281201D02*
X149649435Y-126281201D01*
X149433763Y-127001201D02*
X149649435Y-127001201D01*
%TO.C,3V3_TP1*%
X133027000Y-83935200D02*
G75*
G02*
X131127000Y-83935200I-950000J0D01*
G01*
X131127000Y-83935200D02*
G75*
G02*
X133027000Y-83935200I950000J0D01*
G01*
%TO.C,C51*%
X151781704Y-108397421D02*
X151629201Y-108244918D01*
X152290821Y-107888304D02*
X152138318Y-107735801D01*
%TO.C,Y3*%
X150755955Y-107693316D02*
X148846767Y-109602504D01*
X152382301Y-109319662D02*
X150755955Y-107693316D01*
%TO.C,FB_P1*%
X134932179Y-84542800D02*
X134606621Y-84542800D01*
X134932179Y-85562800D02*
X134606621Y-85562800D01*
%TO.C,UART2*%
X123635800Y-129409600D02*
X123635800Y-128029600D01*
X125015800Y-129409600D02*
X123635800Y-129409600D01*
X126285800Y-126649600D02*
X131475800Y-126649600D01*
X126285800Y-129409600D02*
X126285800Y-126649600D01*
X126285800Y-129409600D02*
X131475800Y-129409600D01*
X131475800Y-129409600D02*
X131475800Y-126649600D01*
%TO.C,RXD_1_R1*%
X152167641Y-103926000D02*
X151860359Y-103926000D01*
X152167641Y-104686000D02*
X151860359Y-104686000D01*
%TO.C,C24*%
X139071164Y-73453000D02*
X139286836Y-73453000D01*
X139071164Y-74173000D02*
X139286836Y-74173000D01*
%TO.C,RBUS_VCC_TP1*%
X124441800Y-81750800D02*
G75*
G02*
X122541800Y-81750800I-950000J0D01*
G01*
X122541800Y-81750800D02*
G75*
G02*
X124441800Y-81750800I950000J0D01*
G01*
%TO.C,BBOUT_TP1*%
X127337400Y-74156200D02*
G75*
G02*
X125437400Y-74156200I-950000J0D01*
G01*
X125437400Y-74156200D02*
G75*
G02*
X127337400Y-74156200I950000J0D01*
G01*
%TO.C,R37*%
X149451359Y-103926000D02*
X149758641Y-103926000D01*
X149451359Y-104686000D02*
X149758641Y-104686000D01*
%TO.C,J3*%
X156756600Y-119327800D02*
X156756600Y-114187800D01*
X159416600Y-114187800D02*
X156756600Y-114187800D01*
X159416600Y-119327800D02*
X156756600Y-119327800D01*
X159416600Y-119327800D02*
X159416600Y-114187800D01*
X159416600Y-120597800D02*
X159416600Y-121927800D01*
X159416600Y-121927800D02*
X158086600Y-121927800D01*
%TO.C,UART1*%
X116143200Y-117121000D02*
X116143200Y-125781000D01*
X116143200Y-125781000D02*
X124823200Y-125781000D01*
X124823200Y-117121000D02*
X116143200Y-117121000D01*
X124823200Y-118801000D02*
X124823200Y-119101000D01*
X124823200Y-119101000D02*
X125273200Y-119101000D01*
X124823200Y-121301000D02*
X124823200Y-121601000D01*
X124823200Y-121601000D02*
X125273200Y-121601000D01*
X124823200Y-123801000D02*
X124823200Y-124101000D01*
X124823200Y-124101000D02*
X125273200Y-124101000D01*
X124823200Y-125781000D02*
X124823200Y-117121000D01*
X125273200Y-118801000D02*
X124823200Y-118801000D01*
X125273200Y-119101000D02*
X125273200Y-118801000D01*
X125273200Y-121301000D02*
X124823200Y-121301000D01*
X125273200Y-121601000D02*
X125273200Y-121301000D01*
X125273200Y-123801000D02*
X124823200Y-123801000D01*
X125273200Y-124101000D02*
X125273200Y-123801000D01*
X126333200Y-125485264D02*
X126933200Y-125485264D01*
X126633200Y-125061000D02*
X126333200Y-125485264D01*
X126933200Y-125485264D02*
X126633200Y-125061000D01*
%TO.C,C7*%
X137064236Y-100288400D02*
X136848564Y-100288400D01*
X137064236Y-101008400D02*
X136848564Y-101008400D01*
D14*
%TO.C,U5*%
X135549000Y-75978000D02*
X135549000Y-79978000D01*
X140549000Y-75978000D02*
X140549000Y-79978000D01*
D12*
X140654000Y-73713000D02*
G75*
G02*
X140454000Y-73713000I-100000J0D01*
G01*
X140454000Y-73713000D02*
G75*
G02*
X140654000Y-73713000I100000J0D01*
G01*
D13*
%TO.C,C2*%
X131818600Y-91529436D02*
X131818600Y-91313764D01*
X132538600Y-91529436D02*
X132538600Y-91313764D01*
%TO.C,R11*%
X151957159Y-89307000D02*
X152264441Y-89307000D01*
X151957159Y-90067000D02*
X152264441Y-90067000D01*
%TO.C,CHL1*%
X152335000Y-96838400D02*
G75*
G02*
X150935000Y-96838400I-700000J0D01*
G01*
X150935000Y-96838400D02*
G75*
G02*
X152335000Y-96838400I700000J0D01*
G01*
%TO.C,C77*%
X145954236Y-113572600D02*
X145738564Y-113572600D01*
X145954236Y-114292600D02*
X145738564Y-114292600D01*
%TO.C,C73*%
X149601599Y-124013365D02*
X149601599Y-124229037D01*
X150321599Y-124013365D02*
X150321599Y-124229037D01*
%TO.C,C26*%
X136071656Y-81789186D02*
X136287328Y-81789186D01*
X136071656Y-82509186D02*
X136287328Y-82509186D01*
%TO.C,R32*%
X141095741Y-112651132D02*
X141403023Y-112651132D01*
X141095741Y-113411132D02*
X141403023Y-113411132D01*
%TO.C,R33*%
X141086759Y-111652200D02*
X141394041Y-111652200D01*
X141086759Y-112412200D02*
X141394041Y-112412200D01*
%TO.C,C4*%
X136093836Y-102396600D02*
X135878164Y-102396600D01*
X136093836Y-103116600D02*
X135878164Y-103116600D01*
D14*
%TO.C,U4*%
X127900200Y-75263274D02*
X127900200Y-75543274D01*
X127900200Y-75263274D02*
X128180200Y-75263274D01*
X127900200Y-78263274D02*
X127900200Y-77983274D01*
X127900200Y-78263274D02*
X128180200Y-78263274D01*
X130900200Y-75263274D02*
X130620200Y-75263274D01*
X130900200Y-75263274D02*
X130900200Y-75543274D01*
X130900200Y-78263274D02*
X130620200Y-78263274D01*
X130900200Y-78263274D02*
X130900200Y-77983274D01*
D12*
X127722200Y-75774274D02*
G75*
G02*
X127522200Y-75774274I-100000J0D01*
G01*
X127522200Y-75774274D02*
G75*
G02*
X127722200Y-75774274I100000J0D01*
G01*
D13*
%TO.C,U2*%
X123268600Y-90336000D02*
X123268600Y-88386000D01*
X123268600Y-90336000D02*
X123268600Y-92286000D01*
X128388600Y-90336000D02*
X128388600Y-88386000D01*
X128388600Y-90336000D02*
X128388600Y-92286000D01*
X128623600Y-87876000D02*
X128293600Y-87636000D01*
X128623600Y-87396000D01*
X128623600Y-87876000D01*
G36*
X128623600Y-87876000D02*
G01*
X128293600Y-87636000D01*
X128623600Y-87396000D01*
X128623600Y-87876000D01*
G37*
%TO.C,C54*%
X145606800Y-106503836D02*
X145606800Y-106288164D01*
X146326800Y-106503836D02*
X146326800Y-106288164D01*
%TO.C,C17*%
X125468600Y-96047364D02*
X125468600Y-96263036D01*
X126188600Y-96047364D02*
X126188600Y-96263036D01*
%TO.C,C21*%
X130627476Y-78791823D02*
X130908636Y-78791823D01*
X130627476Y-79811823D02*
X130908636Y-79811823D01*
%TO.C,C62*%
X151579800Y-77919036D02*
X151579800Y-77703364D01*
X152299800Y-77919036D02*
X152299800Y-77703364D01*
%TO.C,C22*%
X128098036Y-78666200D02*
X127882364Y-78666200D01*
X128098036Y-79386200D02*
X127882364Y-79386200D01*
%TO.C,C71*%
X151796019Y-118731201D02*
X152077179Y-118731201D01*
X151796019Y-119751201D02*
X152077179Y-119751201D01*
%TO.C,DIO1*%
X154240000Y-100953907D02*
G75*
G02*
X152840000Y-100953907I-700000J0D01*
G01*
X152840000Y-100953907D02*
G75*
G02*
X154240000Y-100953907I700000J0D01*
G01*
%TO.C,C8*%
X130366364Y-93887600D02*
X130582036Y-93887600D01*
X130366364Y-94607600D02*
X130582036Y-94607600D01*
%TO.C,C16*%
X126505564Y-85734200D02*
X126721236Y-85734200D01*
X126505564Y-86454200D02*
X126721236Y-86454200D01*
%TO.C,CTXLED1*%
X128801400Y-88201159D02*
X128801400Y-88508441D01*
X129561400Y-88201159D02*
X129561400Y-88508441D01*
%TO.C,ENJUMPER1*%
X120282200Y-95305200D02*
X121612200Y-95305200D01*
X120282200Y-96635200D02*
X120282200Y-95305200D01*
X120282200Y-97905200D02*
X120282200Y-100505200D01*
X120282200Y-97905200D02*
X122942200Y-97905200D01*
X120282200Y-100505200D02*
X122942200Y-100505200D01*
X122942200Y-97905200D02*
X122942200Y-100505200D01*
%TO.C,L3*%
X132588161Y-77158256D02*
X132588161Y-76359012D01*
X133708161Y-77158256D02*
X133708161Y-76359012D01*
%TO.C,BUSY1*%
X150531600Y-100953200D02*
G75*
G02*
X149131600Y-100953200I-700000J0D01*
G01*
X149131600Y-100953200D02*
G75*
G02*
X150531600Y-100953200I700000J0D01*
G01*
%TO.C,C19*%
X143070800Y-74794836D02*
X143070800Y-74579164D01*
X143790800Y-74794836D02*
X143790800Y-74579164D01*
%TO.C,C65*%
X148573763Y-125281201D02*
X148789435Y-125281201D01*
X148573763Y-126001201D02*
X148789435Y-126001201D01*
%TO.C,R8*%
X129065300Y-92339058D02*
X129065300Y-91864542D01*
X130110300Y-92339058D02*
X130110300Y-91864542D01*
%TO.C,BOOTJUMPER1*%
X128664200Y-95254400D02*
X129994200Y-95254400D01*
X128664200Y-96584400D02*
X128664200Y-95254400D01*
X128664200Y-97854400D02*
X128664200Y-100454400D01*
X128664200Y-97854400D02*
X131324200Y-97854400D01*
X128664200Y-100454400D02*
X131324200Y-100454400D01*
X131324200Y-97854400D02*
X131324200Y-100454400D01*
%TO.C,R28*%
X151559800Y-74130041D02*
X151559800Y-73822759D01*
X152319800Y-74130041D02*
X152319800Y-73822759D01*
%TO.C,C3*%
X122052836Y-93938400D02*
X121837164Y-93938400D01*
X122052836Y-94658400D02*
X121837164Y-94658400D01*
%TO.C,ANT_UFL1*%
X136431000Y-124782200D02*
X136431000Y-122082200D01*
X139151000Y-122032200D02*
X139151000Y-122672200D01*
X139151000Y-124192200D02*
X139781000Y-124192200D01*
X139151000Y-124832200D02*
X139151000Y-124192200D01*
%TO.C,ANT_S1*%
X136891800Y-88862800D02*
G75*
G02*
X135491800Y-88862800I-700000J0D01*
G01*
X135491800Y-88862800D02*
G75*
G02*
X136891800Y-88862800I700000J0D01*
G01*
%TO.C,D+_TP1*%
X152760000Y-81954000D02*
G75*
G02*
X151360000Y-81954000I-700000J0D01*
G01*
X151360000Y-81954000D02*
G75*
G02*
X152760000Y-81954000I700000J0D01*
G01*
%TO.C,DIO2*%
X148855200Y-100978600D02*
G75*
G02*
X147455200Y-100978600I-700000J0D01*
G01*
X147455200Y-100978600D02*
G75*
G02*
X148855200Y-100978600I700000J0D01*
G01*
%TO.C,D1*%
X124268600Y-99073600D02*
X124268600Y-98423600D01*
X124268600Y-99073600D02*
X124268600Y-99723600D01*
X127388600Y-99073600D02*
X127388600Y-98423600D01*
X127388600Y-99073600D02*
X127388600Y-99723600D01*
X124318600Y-100236100D02*
X123988600Y-100476100D01*
X123988600Y-99996100D01*
X124318600Y-100236100D01*
G36*
X124318600Y-100236100D02*
G01*
X123988600Y-100476100D01*
X123988600Y-99996100D01*
X124318600Y-100236100D01*
G37*
%TO.C,C58*%
X141048036Y-109081400D02*
X140832364Y-109081400D01*
X141048036Y-109801400D02*
X140832364Y-109801400D01*
%TO.C,R7*%
X129152759Y-121096400D02*
X129460041Y-121096400D01*
X129152759Y-121856400D02*
X129460041Y-121856400D01*
%TO.C,CANTX1*%
X132777000Y-88862800D02*
G75*
G02*
X131377000Y-88862800I-700000J0D01*
G01*
X131377000Y-88862800D02*
G75*
G02*
X132777000Y-88862800I700000J0D01*
G01*
D14*
%TO.C,U1*%
X138950000Y-92460000D02*
X138950000Y-92930000D01*
X138950000Y-92460000D02*
X139420000Y-92460000D01*
X138950000Y-99460000D02*
X138950000Y-98990000D01*
X138950000Y-99460000D02*
X139420000Y-99460000D01*
X145950000Y-92460000D02*
X145480000Y-92460000D01*
X145950000Y-92460000D02*
X145950000Y-92930000D01*
X145950000Y-99460000D02*
X145480000Y-99460000D01*
X145950000Y-99460000D02*
X145950000Y-98990000D01*
D12*
X138720000Y-99750000D02*
G75*
G02*
X138520000Y-99750000I-100000J0D01*
G01*
X138520000Y-99750000D02*
G75*
G02*
X138720000Y-99750000I100000J0D01*
G01*
D13*
%TO.C,C1*%
X137760364Y-102396600D02*
X137976036Y-102396600D01*
X137760364Y-103116600D02*
X137976036Y-103116600D01*
%TO.C,TXLED1*%
X129152759Y-122112400D02*
X129460041Y-122112400D01*
X129152759Y-122872400D02*
X129460041Y-122872400D01*
%TD*%
%LPC*%
D16*
%TO.C,U4*%
X128525200Y-76963274D02*
X127800200Y-76963274D01*
X127800200Y-76563274D01*
X128525200Y-76563274D01*
X128525200Y-76963274D01*
G36*
X128525200Y-76963274D02*
G01*
X127800200Y-76963274D01*
X127800200Y-76563274D01*
X128525200Y-76563274D01*
X128525200Y-76963274D01*
G37*
X128525200Y-77463274D02*
X127800200Y-77463274D01*
X127800200Y-77063274D01*
X128525200Y-77063274D01*
X128525200Y-77463274D01*
G36*
X128525200Y-77463274D02*
G01*
X127800200Y-77463274D01*
X127800200Y-77063274D01*
X128525200Y-77063274D01*
X128525200Y-77463274D01*
G37*
X128850200Y-75888274D02*
X128450200Y-75888274D01*
X128450200Y-75163274D01*
X128850200Y-75163274D01*
X128850200Y-75888274D01*
G36*
X128850200Y-75888274D02*
G01*
X128450200Y-75888274D01*
X128450200Y-75163274D01*
X128850200Y-75163274D01*
X128850200Y-75888274D01*
G37*
X128850200Y-78363274D02*
X128450200Y-78363274D01*
X128450200Y-77638274D01*
X128850200Y-77638274D01*
X128850200Y-78363274D01*
G36*
X128850200Y-78363274D02*
G01*
X128450200Y-78363274D01*
X128450200Y-77638274D01*
X128850200Y-77638274D01*
X128850200Y-78363274D01*
G37*
X129350200Y-75888274D02*
X128950200Y-75888274D01*
X128950200Y-75163274D01*
X129350200Y-75163274D01*
X129350200Y-75888274D01*
G36*
X129350200Y-75888274D02*
G01*
X128950200Y-75888274D01*
X128950200Y-75163274D01*
X129350200Y-75163274D01*
X129350200Y-75888274D01*
G37*
X129350200Y-78363274D02*
X128950200Y-78363274D01*
X128950200Y-77638274D01*
X129350200Y-77638274D01*
X129350200Y-78363274D01*
G36*
X129350200Y-78363274D02*
G01*
X128950200Y-78363274D01*
X128950200Y-77638274D01*
X129350200Y-77638274D01*
X129350200Y-78363274D01*
G37*
X131000200Y-76988274D02*
X130275200Y-76988274D01*
X130275200Y-76538274D01*
X131000200Y-76538274D01*
X131000200Y-76988274D01*
G36*
X131000200Y-76988274D02*
G01*
X130275200Y-76988274D01*
X130275200Y-76538274D01*
X131000200Y-76538274D01*
X131000200Y-76988274D01*
G37*
X128525200Y-76198274D02*
X128525200Y-76463274D01*
X127800200Y-76463274D01*
X127800200Y-76063274D01*
X128390200Y-76063274D01*
X128525200Y-76198274D01*
G36*
X128525200Y-76198274D02*
G01*
X128525200Y-76463274D01*
X127800200Y-76463274D01*
X127800200Y-76063274D01*
X128390200Y-76063274D01*
X128525200Y-76198274D01*
G37*
X130350200Y-75830274D02*
X130249200Y-75888274D01*
X129450200Y-75888274D01*
X129450200Y-75163274D01*
X130350200Y-75163274D01*
X130350200Y-75830274D01*
G36*
X130350200Y-75830274D02*
G01*
X130249200Y-75888274D01*
X129450200Y-75888274D01*
X129450200Y-75163274D01*
X130350200Y-75163274D01*
X130350200Y-75830274D01*
G37*
X130350200Y-77696274D02*
X130350200Y-78363274D01*
X129450200Y-78363274D01*
X129450200Y-77638274D01*
X130249200Y-77638274D01*
X130350200Y-77696274D01*
G36*
X130350200Y-77696274D02*
G01*
X130350200Y-78363274D01*
X129450200Y-78363274D01*
X129450200Y-77638274D01*
X130249200Y-77638274D01*
X130350200Y-77696274D01*
G37*
X131000200Y-76338274D02*
X130275200Y-76338274D01*
X130275200Y-75946274D01*
X130376200Y-75888274D01*
X131000200Y-75888274D01*
X131000200Y-76338274D01*
G36*
X131000200Y-76338274D02*
G01*
X130275200Y-76338274D01*
X130275200Y-75946274D01*
X130376200Y-75888274D01*
X131000200Y-75888274D01*
X131000200Y-76338274D01*
G37*
X131000200Y-77638274D02*
X130376200Y-77638274D01*
X130275200Y-77580274D01*
X130275200Y-77188274D01*
X131000200Y-77188274D01*
X131000200Y-77638274D01*
G36*
X131000200Y-77638274D02*
G01*
X130376200Y-77638274D01*
X130275200Y-77580274D01*
X130275200Y-77188274D01*
X131000200Y-77188274D01*
X131000200Y-77638274D01*
G37*
%TO.C,ANT_UFL1*%
G36*
X138781000Y-124372200D02*
G01*
X136691000Y-124372200D01*
X136691000Y-122492200D01*
X138781000Y-122492200D01*
X138781000Y-124372200D01*
G37*
%TD*%
D17*
%TO.C,R10*%
X124253800Y-94782000D03*
X124253800Y-96432000D03*
%TD*%
D18*
%TO.C,R9*%
X127454200Y-96432000D03*
X127454200Y-94782000D03*
%TD*%
D19*
%TO.C,R29*%
X143075200Y-101820800D03*
X143075200Y-100800800D03*
%TD*%
D20*
%TO.C,R38*%
X147164600Y-103285293D03*
X147164600Y-104305293D03*
%TD*%
D21*
%TO.C,RF_RST1*%
X151635000Y-100953200D03*
%TD*%
D22*
%TO.C,C64*%
X152930400Y-75451600D03*
X152930400Y-76411600D03*
%TD*%
D23*
%TO.C,R17*%
X139376777Y-82159186D03*
X140396777Y-82159186D03*
%TD*%
%TO.C,R31*%
X140732400Y-114038800D03*
X141752400Y-114038800D03*
%TD*%
D24*
%TO.C,J1*%
X122568000Y-112697000D03*
D25*
X122568000Y-108497000D03*
X122568000Y-104297000D03*
X128068000Y-112697000D03*
X128068000Y-108497000D03*
X128068000Y-104297000D03*
%TD*%
D26*
%TO.C,C80*%
X146323800Y-119774600D03*
X145363800Y-119774600D03*
%TD*%
D27*
%TO.C,C6*%
X138406800Y-100750000D03*
X139366800Y-100750000D03*
%TD*%
D20*
%TO.C,R4*%
X122475800Y-86979200D03*
X122475800Y-87999200D03*
%TD*%
D28*
%TO.C,TXD_1_R1*%
X152524000Y-103290000D03*
X151504000Y-103290000D03*
%TD*%
D29*
%TO.C,BBIN_TP1*%
X126082600Y-81750800D03*
%TD*%
D19*
%TO.C,R30*%
X144091200Y-101820800D03*
X144091200Y-100800800D03*
%TD*%
D21*
%TO.C,D-_TP1*%
X152143000Y-88177000D03*
%TD*%
D30*
%TO.C,L4*%
X142130800Y-107130000D03*
X143680800Y-107130000D03*
%TD*%
D31*
%TO.C,L8*%
X146326400Y-117816400D03*
X146326400Y-118786400D03*
%TD*%
D32*
%TO.C,POWER_UART1*%
X130095800Y-118504600D03*
%TD*%
D19*
%TO.C,R27*%
X151939800Y-76420800D03*
X151939800Y-75400800D03*
%TD*%
D26*
%TO.C,C5*%
X136491400Y-101740600D03*
X135531400Y-101740600D03*
%TD*%
D27*
%TO.C,C13*%
X134169000Y-94660000D03*
X135129000Y-94660000D03*
%TD*%
D33*
%TO.C,F1*%
X150395000Y-87550000D03*
X150395000Y-89125000D03*
%TD*%
D20*
%TO.C,CRXLED1*%
X121459800Y-85048800D03*
X121459800Y-86068800D03*
%TD*%
D19*
%TO.C,USBLED1*%
X154725000Y-92750000D03*
X154725000Y-91730000D03*
%TD*%
D34*
%TO.C,U11*%
X145189800Y-73999600D03*
X145189800Y-75269600D03*
X145189800Y-76539600D03*
X145189800Y-77809600D03*
X150129800Y-77809600D03*
X150129800Y-76539600D03*
X150129800Y-75269600D03*
X150129800Y-73999600D03*
D35*
X147659800Y-75904600D03*
%TD*%
D36*
%TO.C,C79*%
X147342400Y-118781400D03*
X147342400Y-117821400D03*
%TD*%
D31*
%TO.C,L7*%
X146331600Y-114893000D03*
X146331600Y-115863000D03*
%TD*%
D37*
%TO.C,D2*%
X150450400Y-84111000D03*
D38*
X150450400Y-85811000D03*
X152450400Y-85811000D03*
X152450400Y-83911000D03*
%TD*%
D30*
%TO.C,C74*%
X151261599Y-123841201D03*
X152811599Y-123841201D03*
%TD*%
D20*
%TO.C,R5*%
X130197400Y-87842800D03*
X130197400Y-88862800D03*
%TD*%
%TO.C,3V3LED1*%
X122475800Y-85050800D03*
X122475800Y-86070800D03*
%TD*%
D21*
%TO.C,CRX1*%
X140313200Y-88862800D03*
%TD*%
D32*
%TO.C,J4*%
X138223800Y-85052800D03*
D39*
X140763800Y-85052800D03*
X143303800Y-85052800D03*
%TD*%
D40*
%TO.C,L2*%
X137390400Y-97549600D03*
X136420400Y-97549600D03*
%TD*%
D21*
%TO.C,CSD1*%
X138230400Y-88862800D03*
%TD*%
D41*
%TO.C,VCC_SX1*%
X135848400Y-106668200D03*
X134198400Y-106668200D03*
%TD*%
D20*
%TO.C,R1*%
X133169200Y-90914200D03*
X133169200Y-91934200D03*
%TD*%
D42*
%TO.C,J2*%
X155304400Y-87739600D03*
X155304400Y-81959600D03*
D43*
X154244400Y-88049600D03*
X154244400Y-87249600D03*
D44*
X154244400Y-86099600D03*
X154244400Y-85099600D03*
X154244400Y-84599600D03*
X154244400Y-83599600D03*
D43*
X154244400Y-82449600D03*
X154244400Y-81649600D03*
X154244400Y-81649600D03*
X154244400Y-82449600D03*
D44*
X154244400Y-83099600D03*
X154244400Y-84099600D03*
X154244400Y-85599600D03*
X154244400Y-86599600D03*
D43*
X154244400Y-87249600D03*
X154244400Y-88049600D03*
D45*
X154824400Y-89169600D03*
D46*
X158994400Y-89169600D03*
D45*
X154824400Y-80529600D03*
D46*
X158994400Y-80529600D03*
%TD*%
D47*
%TO.C,IC2*%
X148040600Y-112027200D03*
X148040600Y-111527200D03*
X148040600Y-111027200D03*
X148040600Y-110527200D03*
X148040600Y-110027200D03*
X148040600Y-109527200D03*
D48*
X147320600Y-108807200D03*
X146820600Y-108807200D03*
X146320600Y-108807200D03*
X145820600Y-108807200D03*
X145320600Y-108807200D03*
X144820600Y-108807200D03*
D47*
X144100600Y-109527200D03*
X144100600Y-110027200D03*
X144100600Y-110527200D03*
X144100600Y-111027200D03*
X144100600Y-111527200D03*
X144100600Y-112027200D03*
D48*
X144820600Y-112747200D03*
X145320600Y-112747200D03*
X145820600Y-112747200D03*
X146320600Y-112747200D03*
X146820600Y-112747200D03*
X147320600Y-112747200D03*
%TD*%
D26*
%TO.C,C14*%
X135109000Y-98560000D03*
X134149000Y-98560000D03*
%TD*%
D49*
%TO.C,FB_R1*%
X153936599Y-121541201D03*
X152361599Y-121541201D03*
%TD*%
D21*
%TO.C,CANRX1*%
X134109000Y-88862800D03*
%TD*%
D26*
%TO.C,C25*%
X137450377Y-73777186D03*
X136490377Y-73777186D03*
%TD*%
D19*
%TO.C,R18*%
X121459800Y-88003200D03*
X121459800Y-86983200D03*
%TD*%
D50*
%TO.C,C12*%
X141983000Y-76111400D03*
X141983000Y-77661400D03*
%TD*%
D51*
%TO.C,U3*%
X128584200Y-80916200D03*
X128584200Y-81416200D03*
X128584200Y-81916200D03*
X128584200Y-82416200D03*
X130260200Y-82416200D03*
X130260200Y-81916200D03*
X130260200Y-81416200D03*
X130260200Y-80916200D03*
%TD*%
D21*
%TO.C,DIO3*%
X146580400Y-100978600D03*
%TD*%
D20*
%TO.C,R3*%
X134159800Y-90916200D03*
X134159800Y-91936200D03*
%TD*%
D26*
%TO.C,C9*%
X137807433Y-99575099D03*
X136847433Y-99575099D03*
%TD*%
D22*
%TO.C,C70*%
X148961599Y-123641201D03*
X148961599Y-124601201D03*
%TD*%
%TO.C,C18*%
X143405400Y-76599800D03*
X143405400Y-77559800D03*
%TD*%
D21*
%TO.C,VAA_TP1*%
X154861599Y-123541201D03*
%TD*%
D27*
%TO.C,C27*%
X134896400Y-83198600D03*
X135856400Y-83198600D03*
%TD*%
D19*
%TO.C,R13*%
X153625000Y-92750000D03*
X153625000Y-91730000D03*
%TD*%
D23*
%TO.C,R2*%
X128796400Y-123508400D03*
X129816400Y-123508400D03*
%TD*%
D21*
%TO.C,CTX1*%
X151635000Y-98921200D03*
%TD*%
D52*
%TO.C,U12*%
X145316999Y-120916200D03*
X145322399Y-121416199D03*
X145322399Y-121916201D03*
X145322399Y-122416200D03*
X145322399Y-122916199D03*
X145322399Y-123416201D03*
X145316999Y-123916200D03*
X145816998Y-123914800D03*
X146316999Y-123914800D03*
X146816999Y-123914800D03*
X147317000Y-123914800D03*
X147816999Y-123916200D03*
X147811599Y-123416201D03*
X147811599Y-122916199D03*
X147811599Y-122416200D03*
X147811599Y-121916201D03*
X147811599Y-121416199D03*
X147816999Y-120916200D03*
X147317000Y-120917600D03*
X146816999Y-120917600D03*
X146316999Y-120917600D03*
X145816998Y-120917600D03*
D53*
X146566999Y-121841200D03*
X146566999Y-122991200D03*
%TD*%
D28*
%TO.C,R12*%
X152145000Y-80049000D03*
X151125000Y-80049000D03*
%TD*%
D30*
%TO.C,C23*%
X129805200Y-74231200D03*
X131355200Y-74231200D03*
%TD*%
D22*
%TO.C,C53*%
X149270600Y-112027200D03*
X149270600Y-112987200D03*
%TD*%
D26*
%TO.C,C78*%
X146326400Y-116828200D03*
X145366400Y-116828200D03*
%TD*%
D27*
%TO.C,C66*%
X148961599Y-121541201D03*
X149921599Y-121541201D03*
%TD*%
D19*
%TO.C,R25*%
X141068600Y-101820800D03*
X141068600Y-100800800D03*
%TD*%
%TO.C,R6*%
X133220000Y-124376000D03*
X133220000Y-123356000D03*
%TD*%
D36*
%TO.C,C57*%
X144950800Y-107384000D03*
X144950800Y-106424000D03*
%TD*%
D20*
%TO.C,DIO3_D1*%
X146174000Y-103285293D03*
X146174000Y-104305293D03*
%TD*%
D28*
%TO.C,R14*%
X132082200Y-80886200D03*
X131062200Y-80886200D03*
%TD*%
D27*
%TO.C,C68*%
X149961599Y-120541201D03*
X150921599Y-120541201D03*
%TD*%
D26*
%TO.C,C15*%
X125219000Y-86094200D03*
X124259000Y-86094200D03*
%TD*%
D54*
%TO.C,C50*%
X152199422Y-110498378D03*
X151520600Y-111177200D03*
%TD*%
D26*
%TO.C,C20*%
X128470200Y-79946200D03*
X127510200Y-79946200D03*
%TD*%
D55*
%TO.C,ANT_SMA1*%
X145814400Y-133208400D03*
D56*
X141434400Y-133208400D03*
X150194400Y-133208400D03*
%TD*%
D23*
%TO.C,R34*%
X140730400Y-111041600D03*
X141750400Y-111041600D03*
%TD*%
D36*
%TO.C,C10*%
X137766600Y-92012400D03*
X137766600Y-91052400D03*
%TD*%
D57*
%TO.C,JP1*%
X121815400Y-91372800D03*
D58*
X121815400Y-92672800D03*
%TD*%
D22*
%TO.C,C52*%
X150589600Y-112723200D03*
X150589600Y-113683200D03*
%TD*%
D19*
%TO.C,R26*%
X142084600Y-101820800D03*
X142084600Y-100800800D03*
%TD*%
D59*
%TO.C,Y1*%
X135149000Y-97310000D03*
X135149000Y-95910000D03*
X134049000Y-95910000D03*
X134049000Y-97310000D03*
%TD*%
D23*
%TO.C,R16*%
X137516777Y-82159186D03*
X138536777Y-82159186D03*
%TD*%
%TO.C,R36*%
X149095000Y-103290000D03*
X150115000Y-103290000D03*
%TD*%
D27*
%TO.C,C11*%
X147649800Y-96432000D03*
X148609800Y-96432000D03*
%TD*%
D20*
%TO.C,R15*%
X127130200Y-76436200D03*
X127130200Y-77456200D03*
%TD*%
D21*
%TO.C,CPS1*%
X151635000Y-94806400D03*
%TD*%
D27*
%TO.C,C61*%
X149061599Y-126641201D03*
X150021599Y-126641201D03*
%TD*%
D29*
%TO.C,3V3_TP1*%
X132077000Y-83935200D03*
%TD*%
D60*
%TO.C,C51*%
X152299422Y-108406022D03*
X151620600Y-107727200D03*
%TD*%
D61*
%TO.C,Y3*%
X150720600Y-108577200D03*
X149730651Y-109567149D03*
X150508468Y-110344966D03*
X151498417Y-109355017D03*
%TD*%
D49*
%TO.C,FB_P1*%
X135556900Y-85052800D03*
X133981900Y-85052800D03*
%TD*%
D32*
%TO.C,UART2*%
X125015800Y-128029600D03*
D62*
X127555800Y-128029600D03*
X130095800Y-128029600D03*
%TD*%
D28*
%TO.C,RXD_1_R1*%
X152524000Y-104306000D03*
X151504000Y-104306000D03*
%TD*%
D63*
%TO.C,H3*%
X121705000Y-132590000D03*
%TD*%
D27*
%TO.C,C24*%
X138699000Y-73813000D03*
X139659000Y-73813000D03*
%TD*%
D29*
%TO.C,RBUS_VCC_TP1*%
X123491800Y-81750800D03*
%TD*%
%TO.C,BBOUT_TP1*%
X126387400Y-74156200D03*
%TD*%
D23*
%TO.C,R37*%
X149095000Y-104306000D03*
X150115000Y-104306000D03*
%TD*%
D32*
%TO.C,J3*%
X158086600Y-120597800D03*
D39*
X158086600Y-118057800D03*
X158086600Y-115517800D03*
%TD*%
D62*
%TO.C,UART1*%
X119453200Y-123951000D03*
X119453200Y-118951000D03*
D64*
X126633200Y-123951000D03*
D65*
X126633200Y-121451000D03*
X126633200Y-118951000D03*
%TD*%
D26*
%TO.C,C7*%
X137436400Y-100648400D03*
X136476400Y-100648400D03*
%TD*%
D66*
%TO.C,U5*%
X139954000Y-75508000D03*
X138684000Y-75508000D03*
X137414000Y-75508000D03*
X136144000Y-75508000D03*
X136144000Y-80448000D03*
X137414000Y-80448000D03*
X138684000Y-80448000D03*
X139954000Y-80448000D03*
D35*
X138049000Y-77978000D03*
%TD*%
D36*
%TO.C,C2*%
X132178600Y-91901600D03*
X132178600Y-90941600D03*
%TD*%
D23*
%TO.C,R11*%
X151600800Y-89687000D03*
X152620800Y-89687000D03*
%TD*%
D21*
%TO.C,CHL1*%
X151635000Y-96838400D03*
%TD*%
D26*
%TO.C,C77*%
X146326400Y-113932600D03*
X145366400Y-113932600D03*
%TD*%
D22*
%TO.C,C73*%
X149961599Y-123641201D03*
X149961599Y-124601201D03*
%TD*%
D27*
%TO.C,C26*%
X135699492Y-82149186D03*
X136659492Y-82149186D03*
%TD*%
D21*
%TO.C,*%
X140988400Y-108298400D03*
%TD*%
D23*
%TO.C,R32*%
X140739382Y-113031132D03*
X141759382Y-113031132D03*
%TD*%
D63*
%TO.C,H1*%
X121705000Y-74589600D03*
%TD*%
D23*
%TO.C,R33*%
X140730400Y-112032200D03*
X141750400Y-112032200D03*
%TD*%
D26*
%TO.C,C4*%
X136466000Y-102756600D03*
X135506000Y-102756600D03*
%TD*%
D67*
%TO.C,U2*%
X127733600Y-87861000D03*
X126463600Y-87861000D03*
X125193600Y-87861000D03*
X123923600Y-87861000D03*
X123923600Y-92811000D03*
X125193600Y-92811000D03*
X126463600Y-92811000D03*
X127733600Y-92811000D03*
%TD*%
D36*
%TO.C,C54*%
X145966800Y-106876000D03*
X145966800Y-105916000D03*
%TD*%
D63*
%TO.C,H4*%
X157705400Y-132590000D03*
%TD*%
D22*
%TO.C,C17*%
X125828600Y-95675200D03*
X125828600Y-96635200D03*
%TD*%
D30*
%TO.C,C21*%
X129993056Y-79301823D03*
X131543056Y-79301823D03*
%TD*%
D68*
%TO.C,L1*%
X137431600Y-101740600D03*
X138401600Y-101740600D03*
%TD*%
D36*
%TO.C,C62*%
X151939800Y-78291200D03*
X151939800Y-77331200D03*
%TD*%
D26*
%TO.C,C22*%
X128470200Y-79026200D03*
X127510200Y-79026200D03*
%TD*%
D30*
%TO.C,C71*%
X151161599Y-119241201D03*
X152711599Y-119241201D03*
%TD*%
D21*
%TO.C,DIO1*%
X153540000Y-100953907D03*
%TD*%
D27*
%TO.C,C8*%
X129994200Y-94247600D03*
X130954200Y-94247600D03*
%TD*%
%TO.C,C16*%
X126133400Y-86094200D03*
X127093400Y-86094200D03*
%TD*%
D20*
%TO.C,CTXLED1*%
X129181400Y-87844800D03*
X129181400Y-88864800D03*
%TD*%
D32*
%TO.C,ENJUMPER1*%
X121612200Y-96635200D03*
D39*
X121612200Y-99175200D03*
%TD*%
D69*
%TO.C,L3*%
X133148161Y-77821134D03*
X133148161Y-75696134D03*
%TD*%
D21*
%TO.C,BUSY1*%
X149831600Y-100953200D03*
%TD*%
D36*
%TO.C,C19*%
X143430800Y-75167000D03*
X143430800Y-74207000D03*
%TD*%
D27*
%TO.C,C65*%
X148201599Y-125641201D03*
X149161599Y-125641201D03*
%TD*%
D18*
%TO.C,R8*%
X129587800Y-92926800D03*
X129587800Y-91276800D03*
%TD*%
D32*
%TO.C,BOOTJUMPER1*%
X129994200Y-96584400D03*
D39*
X129994200Y-99124400D03*
%TD*%
D19*
%TO.C,R28*%
X151939800Y-74486400D03*
X151939800Y-73466400D03*
%TD*%
D26*
%TO.C,C3*%
X122425000Y-94298400D03*
X121465000Y-94298400D03*
%TD*%
D70*
%TO.C,ANT_UFL1*%
X139316000Y-123432200D03*
D71*
X137791000Y-124907200D03*
X137791000Y-121957200D03*
%TD*%
D21*
%TO.C,ANT_S1*%
X136191800Y-88862800D03*
%TD*%
%TO.C,D+_TP1*%
X152060000Y-81954000D03*
%TD*%
%TO.C,DIO2*%
X148155200Y-100978600D03*
%TD*%
D72*
%TO.C,D1*%
X124878600Y-100011100D03*
X126778600Y-100011100D03*
X125828600Y-98136100D03*
%TD*%
D26*
%TO.C,C58*%
X141420200Y-109441400D03*
X140460200Y-109441400D03*
%TD*%
D23*
%TO.C,R7*%
X128796400Y-121476400D03*
X129816400Y-121476400D03*
%TD*%
D21*
%TO.C,CANTX1*%
X132077000Y-88862800D03*
%TD*%
D73*
%TO.C,U1*%
X139850000Y-99405000D03*
X140250000Y-99405000D03*
X140650000Y-99405000D03*
X141050000Y-99405000D03*
X141450000Y-99405000D03*
X141850000Y-99405000D03*
X142250000Y-99405000D03*
X142650000Y-99405000D03*
X143050000Y-99405000D03*
X143450000Y-99405000D03*
X143850000Y-99405000D03*
X144250000Y-99405000D03*
X144650000Y-99405000D03*
X145050000Y-99405000D03*
D74*
X145895000Y-98560000D03*
X145895000Y-98160000D03*
X145895000Y-97760000D03*
X145895000Y-97360000D03*
X145895000Y-96960000D03*
X145895000Y-96560000D03*
X145895000Y-96160000D03*
X145895000Y-95760000D03*
X145895000Y-95360000D03*
X145895000Y-94960000D03*
X145895000Y-94560000D03*
X145895000Y-94160000D03*
X145895000Y-93760000D03*
X145895000Y-93360000D03*
D73*
X145050000Y-92515000D03*
X144650000Y-92515000D03*
X144250000Y-92515000D03*
X143850000Y-92515000D03*
X143450000Y-92515000D03*
X143050000Y-92515000D03*
X142650000Y-92515000D03*
X142250000Y-92515000D03*
X141850000Y-92515000D03*
X141450000Y-92515000D03*
X141050000Y-92515000D03*
X140650000Y-92515000D03*
X140250000Y-92515000D03*
X139850000Y-92515000D03*
D74*
X139005000Y-93360000D03*
X139005000Y-93760000D03*
X139005000Y-94160000D03*
X139005000Y-94560000D03*
X139005000Y-94960000D03*
X139005000Y-95360000D03*
X139005000Y-95760000D03*
X139005000Y-96160000D03*
X139005000Y-96560000D03*
X139005000Y-96960000D03*
X139005000Y-97360000D03*
X139005000Y-97760000D03*
X139005000Y-98160000D03*
X139005000Y-98560000D03*
D75*
X142450000Y-95960000D03*
%TD*%
D27*
%TO.C,C1*%
X137388200Y-102756600D03*
X138348200Y-102756600D03*
%TD*%
D63*
%TO.C,H2*%
X157705400Y-74589600D03*
%TD*%
D23*
%TO.C,TXLED1*%
X128796400Y-122492400D03*
X129816400Y-122492400D03*
%TD*%
%LPD*%
M02*
