M48
; DRILL file {KiCad 9.0.1} date 2025-04-23T16:25:48+0300
; FORMAT={-:-/ absolute / inch / decimal}
; #@! TF.CreationDate,2025-04-23T16:25:48+03:00
; #@! TF.GenerationSoftware,Kicad,Pcbnew,9.0.1
; #@! TF.FileFunction,Plated,1,4,PTH
FMAT,2
INCH
; #@! TA.AperFunction,Plated,PTH,ViaDrill
T1C0.0118
; #@! TA.AperFunction,Plated,PTH,ViaDrill
T2C0.0157
; #@! TA.AperFunction,Plated,PTH,ComponentDrill
T3C0.0181
; #@! TA.AperFunction,Plated,PTH,ComponentDrill
T4C0.0236
; #@! TA.AperFunction,Plated,PTH,ComponentDrill
T5C0.0394
; #@! TA.AperFunction,Plated,PTH,ComponentDrill
T6C0.0472
; #@! TA.AperFunction,Plated,PTH,ComponentDrill
T7C0.0551
; #@! TA.AperFunction,Plated,PTH,ComponentDrill
T8C0.1260
%
G90
G05
T1
X4.8239Y-3.2565
X4.8429Y-3.6495
X4.8899Y-3.8775
X4.9539Y-3.7305
X4.9539Y-3.9505
X4.9669Y-3.3525
X5.0086Y-3.0809
X5.0376Y-3.2155
X5.0396Y-3.1857
X5.0659Y-3.7315
X5.0699Y-4.9065
X5.1179Y-3.4165
X5.1193Y-3.004
X5.1219Y-3.0425
X5.1479Y-4.7825
X5.1539Y-2.9813
X5.155Y-3.0627
X5.1559Y-4.0895
X5.1559Y-4.1995
X5.1719Y-3.2365
X5.1999Y-3.3045
X5.1999Y-3.4985
X5.2099Y-3.7365
X5.2099Y-3.7765
X5.2099Y-3.8115
X5.2099Y-3.8465
X5.2099Y-3.8865
X5.2099Y-3.9265
X5.2102Y-3.6749
X5.2249Y-3.7065
X5.2335Y-2.9559
X5.2335Y-3.0011
X5.2341Y-3.0428
X5.2349Y-3.0882
X5.2399Y-3.2095
X5.2409Y-3.8525
X5.2419Y-3.8205
X5.2449Y-3.9265
X5.2449Y-4.8215
X5.2489Y-3.8815
X5.2549Y-3.6865
X5.2568Y-3.0882
X5.2568Y-2.9559
X5.2619Y-3.5525
X5.2719Y-4.1415
X5.2799Y-3.4985
X5.2799Y-3.9265
X5.2949Y-3.6865
X5.3109Y-4.0675
X5.3149Y-3.9265
X5.3249Y-3.6065
X5.3299Y-3.6865
X5.3499Y-3.9165
X5.3499Y-4.5215
X5.3519Y-3.7205
X5.3569Y-3.7495
X5.3579Y-4.7925
X5.3579Y-4.8245
X5.3579Y-4.8565
X5.3579Y-4.8885
X5.3579Y-4.9205
X5.3599Y-3.7775
X5.3599Y-4.5615
X5.3649Y-3.6865
X5.3659Y-4.9545
X5.3674Y-4.229
X5.3689Y-4.1385
X5.3699Y-4.7625
X5.3769Y-3.8845
X5.3899Y-4.5315
X5.3949Y-3.7255
X5.3979Y-3.6995
X5.3999Y-4.9585
X5.4019Y-4.7585
X5.4084Y-3.545
X5.4129Y-4.0975
X5.4269Y-3.7628
X5.4269Y-3.7875
X5.4319Y-4.9585
X5.4339Y-4.7585
X5.4364Y-2.906
X5.4639Y-4.9585
X5.4659Y-4.7605
X5.4679Y-3.6225
X5.4704Y-3.542
X5.4879Y-4.7845
X5.4879Y-4.8165
X5.4879Y-4.9025
X5.4879Y-4.9345
X5.4889Y-4.0115
X5.5063Y-3.8786
X5.5089Y-3.8315
X5.5179Y-4.8165
X5.5179Y-4.9025
X5.5241Y-3.5335
X5.5499Y-4.8165
X5.5499Y-4.9025
X5.55Y-2.925
X5.5507Y-4.2637
X5.5819Y-4.8165
X5.5819Y-4.9025
X5.6139Y-4.8165
X5.6139Y-4.9025
X5.6459Y-4.8165
X5.6459Y-4.9025
X5.6712Y-5.1717
X5.6712Y-5.2016
X5.6712Y-5.2315
X5.6712Y-5.2614
X5.6712Y-5.2913
X5.6712Y-5.3213
X5.6759Y-4.9005
X5.6759Y-5.1345
X5.6779Y-4.8165
X5.6879Y-4.7325
X5.6979Y-4.9465
X5.6979Y-4.9785
X5.6979Y-5.0105
X5.6979Y-5.0425
X5.6979Y-5.0745
X5.6979Y-5.1065
X5.7019Y-4.9145
X5.7179Y-4.5245
X5.7179Y-4.5625
X5.7179Y-4.6405
X5.7179Y-4.6785
X5.7213Y-4.3927
X5.7227Y-4.3347
X5.7704Y-4.7969
X5.7704Y-4.8422
X5.7803Y-4.3927
X5.7839Y-4.9165
X5.7839Y-4.9465
X5.7839Y-4.9785
X5.7839Y-5.0105
X5.7839Y-5.0425
X5.7839Y-5.0745
X5.7839Y-5.1065
X5.7879Y-4.1775
X5.7919Y-3.7625
X5.8039Y-4.4765
X5.8039Y-4.5085
X5.8039Y-4.5405
X5.8039Y-4.5725
X5.8039Y-4.6045
X5.8079Y-5.1365
X5.8133Y-5.1717
X5.8133Y-5.2016
X5.8133Y-5.2315
X5.8133Y-5.2614
X5.8133Y-5.2913
X5.8133Y-5.3213
X5.8299Y-3.7365
X5.8389Y-4.7385
X5.8499Y-3.3065
X5.8499Y-4.2465
X5.8607Y-4.8284
X5.8699Y-4.7293
X5.8749Y-3.7346
X5.8799Y-4.2215
X5.8799Y-4.6865
X5.8839Y-3.8345
X5.8839Y-3.8873
X5.8867Y-4.4837
X5.8989Y-3.9745
X5.9099Y-4.2065
X5.9199Y-3.8625
X5.9199Y-4.1465
X5.9209Y-3.915
X5.9449Y-4.1965
X5.9504Y-5.0173
X5.9595Y-3.311
X5.9617Y-4.4577
X5.9799Y-4.1915
X5.9959Y-3.6264
X6.0049Y-4.4065
X6.0099Y-4.2115
X6.0099Y-4.3075
X6.0136Y-3.2638
X6.0136Y-3.4212
X6.0249Y-4.3325
X6.0289Y-4.2845
X6.0299Y-4.3815
X6.0387Y-4.4337
X6.0399Y-4.2365
X6.0419Y-4.3105
X6.0599Y-4.3565
X6.0649Y-4.2615
X6.0849Y-4.2915
X6.0849Y-4.3265
T2
X4.7049Y-4.6065
X4.7049Y-4.7845
X4.7049Y-4.9755
X4.7049Y-2.9366
X4.7049Y-3.0983
X4.7049Y-3.2555
X4.7049Y-3.4126
X4.7049Y-3.5698
X4.7049Y-3.7269
X4.7049Y-3.8841
X4.7049Y-4.0412
X4.7049Y-4.1984
X4.7049Y-4.3556
X4.7049Y-4.4855
X4.7049Y-5.0629
X4.7049Y-5.2201
X4.7303Y-2.8754
X4.7303Y-5.2813
X4.7915Y-2.85
X4.7915Y-5.3067
X4.9449Y-5.3067
X4.9809Y-3.5465
X4.9831Y-2.8368
X5.0449Y-5.3067
X5.1449Y-5.3067
X5.1582Y-2.8368
X5.2449Y-5.3067
X5.2699Y-4.3465
X5.3334Y-2.8376
X5.3449Y-5.3067
X5.3599Y-4.3465
X5.3763Y-3.095
X5.3774Y-3.0476
X5.4449Y-5.3067
X5.4924Y-3.0976
X5.4929Y-3.0481
X5.5085Y-2.8376
X5.5119Y-3.6825
X5.5653Y-5.3079
X5.5749Y-3.2095
X5.5849Y-4.1365
X5.6449Y-3.5415
X5.6449Y-4.2765
X5.6835Y-2.8376
X5.6949Y-3.1415
X5.6949Y-4.1315
X5.7049Y-3.6865
X5.7049Y-3.8715
X5.7819Y-3.0405
X5.7849Y-2.9365
X5.8109Y-3.2095
X5.8399Y-3.0415
X5.8419Y-2.9355
X5.8586Y-2.8376
X5.9155Y-5.3079
X5.9199Y-3.6465
X5.9434Y-4.7851
X5.9565Y-3.403
X5.9804Y-4.8453
X5.9964Y-4.7413
X6.0044Y-4.9563
X6.0337Y-2.8368
X6.0449Y-5.3067
X6.0749Y-3.0365
X6.0795Y-4.6971
X6.1199Y-3.7665
X6.2089Y-2.85
X6.2089Y-5.3067
X6.2701Y-2.8754
X6.2701Y-5.2813
X6.2955Y-2.9366
X6.2955Y-3.0983
X6.2955Y-3.2555
X6.2955Y-3.4126
X6.2955Y-3.5698
X6.2955Y-3.7269
X6.2955Y-3.8841
X6.2955Y-4.0412
X6.2955Y-4.1984
X6.2955Y-4.3556
X6.2955Y-4.5127
X6.2955Y-4.6699
X6.2955Y-4.827
X6.2955Y-4.9415
X6.2955Y-5.0629
X6.2955Y-5.2201
T3
X5.5683Y-5.109
X5.9132Y-5.109
T5
X4.7879Y-3.8045
X4.7879Y-3.9045
X4.9219Y-5.0405
X5.0219Y-5.0405
X5.1179Y-3.8025
X5.1179Y-3.9025
X5.1219Y-4.6655
X5.1219Y-5.0405
X5.4419Y-3.3485
X5.5419Y-3.3485
X5.6419Y-3.3485
X6.2239Y-4.5479
X6.2239Y-4.6479
X6.2239Y-4.7479
T6
X4.9856Y-4.6831
X4.9856Y-4.7815
X4.9856Y-4.88
T7
X4.8255Y-4.1062
X4.8255Y-4.2715
X4.8255Y-4.4369
X5.042Y-4.1062
X5.042Y-4.2715
X5.042Y-4.4369
T8
X4.7915Y-2.9366
X4.7915Y-5.2201
X6.2089Y-2.9366
X6.2089Y-5.2201
T4
G00X6.1171Y-3.1705
M15
G01X6.0738Y-3.1705
M16
G05
G00X6.1171Y-3.5106
M15
G01X6.0738Y-3.5106
M16
G05
G00X6.2754Y-3.1705
M15
G01X6.2439Y-3.1705
M16
G05
G00X6.2754Y-3.5106
M15
G01X6.2439Y-3.5106
M16
G05
M30
