%TF.GenerationSoftware,KiCad,Pcbnew,9.0.1*%
%TF.CreationDate,2025-04-23T16:25:48+03:00*%
%TF.ProjectId,Ricardo-Hermes,52696361-7264-46f2-9d48-65726d65732e,rev?*%
%TF.SameCoordinates,Original*%
%TF.FileFunction,Soldermask,Top*%
%TF.FilePolarity,Negative*%
%FSLAX46Y46*%
G04 Gerber Fmt 4.6, Leading zero omitted, Abs format (unit mm)*
G04 Created by KiCad (PCBNEW 9.0.1) date 2025-04-23 16:25:48*
%MOMM*%
%LPD*%
G01*
G04 APERTURE LIST*
G04 Aperture macros list*
%AMRoundRect*
0 Rectangle with rounded corners*
0 $1 Rounding radius*
0 $2 $3 $4 $5 $6 $7 $8 $9 X,Y pos of 4 corners*
0 Add a 4 corners polygon primitive as box body*
4,1,4,$2,$3,$4,$5,$6,$7,$8,$9,$2,$3,0*
0 Add four circle primitives for the rounded corners*
1,1,$1+$1,$2,$3*
1,1,$1+$1,$4,$5*
1,1,$1+$1,$6,$7*
1,1,$1+$1,$8,$9*
0 Add four rect primitives between the rounded corners*
20,1,$1+$1,$2,$3,$4,$5,0*
20,1,$1+$1,$4,$5,$6,$7,0*
20,1,$1+$1,$6,$7,$8,$9,0*
20,1,$1+$1,$8,$9,$2,$3,0*%
%AMRotRect*
0 Rectangle, with rotation*
0 The origin of the aperture is its center*
0 $1 length*
0 $2 width*
0 $3 Rotation angle, in degrees counterclockwise*
0 Add horizontal line*
21,1,$1,$2,0,0,$3*%
%AMFreePoly0*
4,1,23,0.500000,-0.750000,0.000000,-0.750000,0.000000,-0.745722,-0.065263,-0.745722,-0.191342,-0.711940,-0.304381,-0.646677,-0.396677,-0.554381,-0.461940,-0.441342,-0.495722,-0.315263,-0.495722,-0.250000,-0.500000,-0.250000,-0.500000,0.250000,-0.495722,0.250000,-0.495722,0.315263,-0.461940,0.441342,-0.396677,0.554381,-0.304381,0.646677,-0.191342,0.711940,-0.065263,0.745722,0.000000,0.745722,
0.000000,0.750000,0.500000,0.750000,0.500000,-0.750000,0.500000,-0.750000,$1*%
%AMFreePoly1*
4,1,23,0.000000,0.745722,0.065263,0.745722,0.191342,0.711940,0.304381,0.646677,0.396677,0.554381,0.461940,0.441342,0.495722,0.315263,0.495722,0.250000,0.500000,0.250000,0.500000,-0.250000,0.495722,-0.250000,0.495722,-0.315263,0.461940,-0.441342,0.396677,-0.554381,0.304381,-0.646677,0.191342,-0.711940,0.065263,-0.745722,0.000000,-0.745722,0.000000,-0.750000,-0.500000,-0.750000,
-0.500000,0.750000,0.000000,0.750000,0.000000,0.745722,0.000000,0.745722,$1*%
G04 Aperture macros list end*
%ADD10C,0.010000*%
%ADD11RoundRect,0.200000X-0.275000X0.200000X-0.275000X-0.200000X0.275000X-0.200000X0.275000X0.200000X0*%
%ADD12RoundRect,0.200000X0.275000X-0.200000X0.275000X0.200000X-0.275000X0.200000X-0.275000X-0.200000X0*%
%ADD13RoundRect,0.135000X0.185000X-0.135000X0.185000X0.135000X-0.185000X0.135000X-0.185000X-0.135000X0*%
%ADD14RoundRect,0.135000X-0.185000X0.135000X-0.185000X-0.135000X0.185000X-0.135000X0.185000X0.135000X0*%
%ADD15C,1.000000*%
%ADD16RoundRect,0.140000X-0.170000X0.140000X-0.170000X-0.140000X0.170000X-0.140000X0.170000X0.140000X0*%
%ADD17RoundRect,0.135000X-0.135000X-0.185000X0.135000X-0.185000X0.135000X0.185000X-0.135000X0.185000X0*%
%ADD18RoundRect,0.250001X1.399999X-1.099999X1.399999X1.099999X-1.399999X1.099999X-1.399999X-1.099999X0*%
%ADD19O,3.300000X2.700000*%
%ADD20RoundRect,0.140000X0.140000X0.170000X-0.140000X0.170000X-0.140000X-0.170000X0.140000X-0.170000X0*%
%ADD21RoundRect,0.140000X-0.140000X-0.170000X0.140000X-0.170000X0.140000X0.170000X-0.140000X0.170000X0*%
%ADD22RoundRect,0.135000X0.135000X0.185000X-0.135000X0.185000X-0.135000X-0.185000X0.135000X-0.185000X0*%
%ADD23C,1.500000*%
%ADD24RoundRect,0.225000X-0.225000X-0.250000X0.225000X-0.250000X0.225000X0.250000X-0.225000X0.250000X0*%
%ADD25RoundRect,0.147500X-0.172500X0.147500X-0.172500X-0.147500X0.172500X-0.147500X0.172500X0.147500X0*%
%ADD26R,1.700000X1.700000*%
%ADD27RoundRect,0.218750X-0.256250X0.218750X-0.256250X-0.218750X0.256250X-0.218750X0.256250X0.218750X0*%
%ADD28RoundRect,0.042000X-0.943000X-0.258000X0.943000X-0.258000X0.943000X0.258000X-0.943000X0.258000X0*%
%ADD29R,2.150000X2.150000*%
%ADD30RoundRect,0.140000X0.170000X-0.140000X0.170000X0.140000X-0.170000X0.140000X-0.170000X-0.140000X0*%
%ADD31RoundRect,0.175000X-0.175000X-0.325000X0.175000X-0.325000X0.175000X0.325000X-0.175000X0.325000X0*%
%ADD32RoundRect,0.150000X-0.200000X-0.150000X0.200000X-0.150000X0.200000X0.150000X-0.200000X0.150000X0*%
%ADD33O,1.700000X1.700000*%
%ADD34RoundRect,0.147500X0.147500X0.172500X-0.147500X0.172500X-0.147500X-0.172500X0.147500X-0.172500X0*%
%ADD35RoundRect,0.200000X0.200000X0.275000X-0.200000X0.275000X-0.200000X-0.275000X0.200000X-0.275000X0*%
%ADD36R,1.160000X0.600000*%
%ADD37R,1.160000X0.300000*%
%ADD38O,2.000000X0.900000*%
%ADD39O,1.700000X0.900000*%
%ADD40R,0.790000X0.260000*%
%ADD41R,0.260000X0.790000*%
%ADD42RoundRect,0.218750X0.218750X0.256250X-0.218750X0.256250X-0.218750X-0.256250X0.218750X-0.256250X0*%
%ADD43RoundRect,0.225000X-0.250000X0.225000X-0.250000X-0.225000X0.250000X-0.225000X0.250000X0.225000X0*%
%ADD44R,0.475000X0.300000*%
%ADD45R,0.304800X0.304800*%
%ADD46R,0.990600X0.838200*%
%ADD47RoundRect,0.140000X-0.021213X0.219203X-0.219203X0.021213X0.021213X-0.219203X0.219203X-0.021213X0*%
%ADD48R,2.290000X5.080000*%
%ADD49R,2.420000X5.080000*%
%ADD50FreePoly0,270.000000*%
%ADD51FreePoly1,270.000000*%
%ADD52R,0.800000X0.900000*%
%ADD53RoundRect,0.140000X0.219203X0.021213X0.021213X0.219203X-0.219203X-0.021213X-0.021213X-0.219203X0*%
%ADD54RotRect,0.900000X0.800000X225.000000*%
%ADD55C,1.700000*%
%ADD56C,5.600000*%
%ADD57RoundRect,0.250000X0.850000X0.600000X-0.850000X0.600000X-0.850000X-0.600000X0.850000X-0.600000X0*%
%ADD58O,2.200000X1.700000*%
%ADD59RoundRect,0.042000X-0.258000X0.943000X-0.258000X-0.943000X0.258000X-0.943000X0.258000X0.943000X0*%
%ADD60RoundRect,0.150000X-0.150000X0.825000X-0.150000X-0.825000X0.150000X-0.825000X0.150000X0.825000X0*%
%ADD61RoundRect,0.147500X-0.147500X-0.172500X0.147500X-0.172500X0.147500X0.172500X-0.147500X0.172500X0*%
%ADD62RoundRect,0.218750X0.381250X-0.218750X0.381250X0.218750X-0.381250X0.218750X-0.381250X-0.218750X0*%
%ADD63RoundRect,0.250000X0.275000X0.250000X-0.275000X0.250000X-0.275000X-0.250000X0.275000X-0.250000X0*%
%ADD64RoundRect,0.250000X0.850000X0.275000X-0.850000X0.275000X-0.850000X-0.275000X0.850000X-0.275000X0*%
%ADD65RoundRect,0.150000X0.150000X-0.587500X0.150000X0.587500X-0.150000X0.587500X-0.150000X-0.587500X0*%
%ADD66RoundRect,0.006600X0.103400X-0.398400X0.103400X0.398400X-0.103400X0.398400X-0.103400X-0.398400X0*%
%ADD67RoundRect,0.022000X0.383000X-0.088000X0.383000X0.088000X-0.383000X0.088000X-0.383000X-0.088000X0*%
%ADD68R,4.000000X4.000000*%
G04 APERTURE END LIST*
D10*
%TO.C,U4*%
X128525200Y-76963274D02*
X127800200Y-76963274D01*
X127800200Y-76563274D01*
X128525200Y-76563274D01*
X128525200Y-76963274D01*
G36*
X128525200Y-76963274D02*
G01*
X127800200Y-76963274D01*
X127800200Y-76563274D01*
X128525200Y-76563274D01*
X128525200Y-76963274D01*
G37*
X128525200Y-77463274D02*
X127800200Y-77463274D01*
X127800200Y-77063274D01*
X128525200Y-77063274D01*
X128525200Y-77463274D01*
G36*
X128525200Y-77463274D02*
G01*
X127800200Y-77463274D01*
X127800200Y-77063274D01*
X128525200Y-77063274D01*
X128525200Y-77463274D01*
G37*
X128850200Y-75888274D02*
X128450200Y-75888274D01*
X128450200Y-75163274D01*
X128850200Y-75163274D01*
X128850200Y-75888274D01*
G36*
X128850200Y-75888274D02*
G01*
X128450200Y-75888274D01*
X128450200Y-75163274D01*
X128850200Y-75163274D01*
X128850200Y-75888274D01*
G37*
X128850200Y-78363274D02*
X128450200Y-78363274D01*
X128450200Y-77638274D01*
X128850200Y-77638274D01*
X128850200Y-78363274D01*
G36*
X128850200Y-78363274D02*
G01*
X128450200Y-78363274D01*
X128450200Y-77638274D01*
X128850200Y-77638274D01*
X128850200Y-78363274D01*
G37*
X129350200Y-75888274D02*
X128950200Y-75888274D01*
X128950200Y-75163274D01*
X129350200Y-75163274D01*
X129350200Y-75888274D01*
G36*
X129350200Y-75888274D02*
G01*
X128950200Y-75888274D01*
X128950200Y-75163274D01*
X129350200Y-75163274D01*
X129350200Y-75888274D01*
G37*
X129350200Y-78363274D02*
X128950200Y-78363274D01*
X128950200Y-77638274D01*
X129350200Y-77638274D01*
X129350200Y-78363274D01*
G36*
X129350200Y-78363274D02*
G01*
X128950200Y-78363274D01*
X128950200Y-77638274D01*
X129350200Y-77638274D01*
X129350200Y-78363274D01*
G37*
X131000200Y-76988274D02*
X130275200Y-76988274D01*
X130275200Y-76538274D01*
X131000200Y-76538274D01*
X131000200Y-76988274D01*
G36*
X131000200Y-76988274D02*
G01*
X130275200Y-76988274D01*
X130275200Y-76538274D01*
X131000200Y-76538274D01*
X131000200Y-76988274D01*
G37*
X128525200Y-76198274D02*
X128525200Y-76463274D01*
X127800200Y-76463274D01*
X127800200Y-76063274D01*
X128390200Y-76063274D01*
X128525200Y-76198274D01*
G36*
X128525200Y-76198274D02*
G01*
X128525200Y-76463274D01*
X127800200Y-76463274D01*
X127800200Y-76063274D01*
X128390200Y-76063274D01*
X128525200Y-76198274D01*
G37*
X130350200Y-75830274D02*
X130249200Y-75888274D01*
X129450200Y-75888274D01*
X129450200Y-75163274D01*
X130350200Y-75163274D01*
X130350200Y-75830274D01*
G36*
X130350200Y-75830274D02*
G01*
X130249200Y-75888274D01*
X129450200Y-75888274D01*
X129450200Y-75163274D01*
X130350200Y-75163274D01*
X130350200Y-75830274D01*
G37*
X130350200Y-77696274D02*
X130350200Y-78363274D01*
X129450200Y-78363274D01*
X129450200Y-77638274D01*
X130249200Y-77638274D01*
X130350200Y-77696274D01*
G36*
X130350200Y-77696274D02*
G01*
X130350200Y-78363274D01*
X129450200Y-78363274D01*
X129450200Y-77638274D01*
X130249200Y-77638274D01*
X130350200Y-77696274D01*
G37*
X131000200Y-76338274D02*
X130275200Y-76338274D01*
X130275200Y-75946274D01*
X130376200Y-75888274D01*
X131000200Y-75888274D01*
X131000200Y-76338274D01*
G36*
X131000200Y-76338274D02*
G01*
X130275200Y-76338274D01*
X130275200Y-75946274D01*
X130376200Y-75888274D01*
X131000200Y-75888274D01*
X131000200Y-76338274D01*
G37*
X131000200Y-77638274D02*
X130376200Y-77638274D01*
X130275200Y-77580274D01*
X130275200Y-77188274D01*
X131000200Y-77188274D01*
X131000200Y-77638274D01*
G36*
X131000200Y-77638274D02*
G01*
X130376200Y-77638274D01*
X130275200Y-77580274D01*
X130275200Y-77188274D01*
X131000200Y-77188274D01*
X131000200Y-77638274D01*
G37*
%TO.C,ANT_UFL1*%
G36*
X138781000Y-124372200D02*
G01*
X136691000Y-124372200D01*
X136691000Y-122492200D01*
X138781000Y-122492200D01*
X138781000Y-124372200D01*
G37*
%TD*%
D11*
%TO.C,R10*%
X124253800Y-94782000D03*
X124253800Y-96432000D03*
%TD*%
D12*
%TO.C,R9*%
X127454200Y-96432000D03*
X127454200Y-94782000D03*
%TD*%
D13*
%TO.C,R29*%
X143075200Y-101820800D03*
X143075200Y-100800800D03*
%TD*%
D14*
%TO.C,R38*%
X147164600Y-103285293D03*
X147164600Y-104305293D03*
%TD*%
D15*
%TO.C,RF_RST1*%
X151635000Y-100953200D03*
%TD*%
D16*
%TO.C,C64*%
X152930400Y-75451600D03*
X152930400Y-76411600D03*
%TD*%
D17*
%TO.C,R17*%
X139376777Y-82159186D03*
X140396777Y-82159186D03*
%TD*%
%TO.C,R31*%
X140732400Y-114038800D03*
X141752400Y-114038800D03*
%TD*%
D18*
%TO.C,J1*%
X122568000Y-112697000D03*
D19*
X122568000Y-108497000D03*
X122568000Y-104297000D03*
X128068000Y-112697000D03*
X128068000Y-108497000D03*
X128068000Y-104297000D03*
%TD*%
D20*
%TO.C,C80*%
X146323800Y-119774600D03*
X145363800Y-119774600D03*
%TD*%
D21*
%TO.C,C6*%
X138406800Y-100750000D03*
X139366800Y-100750000D03*
%TD*%
D14*
%TO.C,R4*%
X122475800Y-86979200D03*
X122475800Y-87999200D03*
%TD*%
D22*
%TO.C,TXD_1_R1*%
X152524000Y-103290000D03*
X151504000Y-103290000D03*
%TD*%
D23*
%TO.C,BBIN_TP1*%
X126082600Y-81750800D03*
%TD*%
D13*
%TO.C,R30*%
X144091200Y-101820800D03*
X144091200Y-100800800D03*
%TD*%
D15*
%TO.C,D-_TP1*%
X152143000Y-88177000D03*
%TD*%
D24*
%TO.C,L4*%
X142130800Y-107130000D03*
X143680800Y-107130000D03*
%TD*%
D25*
%TO.C,L8*%
X146326400Y-117816400D03*
X146326400Y-118786400D03*
%TD*%
D26*
%TO.C,POWER_UART1*%
X130095800Y-118504600D03*
%TD*%
D13*
%TO.C,R27*%
X151939800Y-76420800D03*
X151939800Y-75400800D03*
%TD*%
D20*
%TO.C,C5*%
X136491400Y-101740600D03*
X135531400Y-101740600D03*
%TD*%
D21*
%TO.C,C13*%
X134169000Y-94660000D03*
X135129000Y-94660000D03*
%TD*%
D27*
%TO.C,F1*%
X150395000Y-87550000D03*
X150395000Y-89125000D03*
%TD*%
D14*
%TO.C,CRXLED1*%
X121459800Y-85048800D03*
X121459800Y-86068800D03*
%TD*%
D13*
%TO.C,USBLED1*%
X154725000Y-92750000D03*
X154725000Y-91730000D03*
%TD*%
D28*
%TO.C,U11*%
X145189800Y-73999600D03*
X145189800Y-75269600D03*
X145189800Y-76539600D03*
X145189800Y-77809600D03*
X150129800Y-77809600D03*
X150129800Y-76539600D03*
X150129800Y-75269600D03*
X150129800Y-73999600D03*
D29*
X147659800Y-75904600D03*
%TD*%
D30*
%TO.C,C79*%
X147342400Y-118781400D03*
X147342400Y-117821400D03*
%TD*%
D25*
%TO.C,L7*%
X146331600Y-114893000D03*
X146331600Y-115863000D03*
%TD*%
D31*
%TO.C,D2*%
X150450400Y-84111000D03*
D32*
X150450400Y-85811000D03*
X152450400Y-85811000D03*
X152450400Y-83911000D03*
%TD*%
D24*
%TO.C,C74*%
X151261599Y-123841201D03*
X152811599Y-123841201D03*
%TD*%
D14*
%TO.C,R5*%
X130197400Y-87842800D03*
X130197400Y-88862800D03*
%TD*%
%TO.C,3V3LED1*%
X122475800Y-85050800D03*
X122475800Y-86070800D03*
%TD*%
D15*
%TO.C,CRX1*%
X140313200Y-88862800D03*
%TD*%
D26*
%TO.C,J4*%
X138223800Y-85052800D03*
D33*
X140763800Y-85052800D03*
X143303800Y-85052800D03*
%TD*%
D34*
%TO.C,L2*%
X137390400Y-97549600D03*
X136420400Y-97549600D03*
%TD*%
D15*
%TO.C,CSD1*%
X138230400Y-88862800D03*
%TD*%
D35*
%TO.C,VCC_SX1*%
X135848400Y-106668200D03*
X134198400Y-106668200D03*
%TD*%
D14*
%TO.C,R1*%
X133169200Y-90914200D03*
X133169200Y-91934200D03*
%TD*%
D36*
%TO.C,J2*%
X154244400Y-88049600D03*
X154244400Y-87249600D03*
D37*
X154244400Y-86099600D03*
X154244400Y-85099600D03*
X154244400Y-84599600D03*
X154244400Y-83599600D03*
D36*
X154244400Y-82449600D03*
X154244400Y-81649600D03*
X154244400Y-81649600D03*
X154244400Y-82449600D03*
D37*
X154244400Y-83099600D03*
X154244400Y-84099600D03*
X154244400Y-85599600D03*
X154244400Y-86599600D03*
D36*
X154244400Y-87249600D03*
X154244400Y-88049600D03*
D38*
X154824400Y-89169600D03*
D39*
X158994400Y-89169600D03*
D38*
X154824400Y-80529600D03*
D39*
X158994400Y-80529600D03*
%TD*%
D40*
%TO.C,IC2*%
X148040600Y-112027200D03*
X148040600Y-111527200D03*
X148040600Y-111027200D03*
X148040600Y-110527200D03*
X148040600Y-110027200D03*
X148040600Y-109527200D03*
D41*
X147320600Y-108807200D03*
X146820600Y-108807200D03*
X146320600Y-108807200D03*
X145820600Y-108807200D03*
X145320600Y-108807200D03*
X144820600Y-108807200D03*
D40*
X144100600Y-109527200D03*
X144100600Y-110027200D03*
X144100600Y-110527200D03*
X144100600Y-111027200D03*
X144100600Y-111527200D03*
X144100600Y-112027200D03*
D41*
X144820600Y-112747200D03*
X145320600Y-112747200D03*
X145820600Y-112747200D03*
X146320600Y-112747200D03*
X146820600Y-112747200D03*
X147320600Y-112747200D03*
%TD*%
D20*
%TO.C,C14*%
X135109000Y-98560000D03*
X134149000Y-98560000D03*
%TD*%
D42*
%TO.C,FB_R1*%
X153936599Y-121541201D03*
X152361599Y-121541201D03*
%TD*%
D15*
%TO.C,CANRX1*%
X134109000Y-88862800D03*
%TD*%
D20*
%TO.C,C25*%
X137450377Y-73777186D03*
X136490377Y-73777186D03*
%TD*%
D13*
%TO.C,R18*%
X121459800Y-88003200D03*
X121459800Y-86983200D03*
%TD*%
D43*
%TO.C,C12*%
X141983000Y-76111400D03*
X141983000Y-77661400D03*
%TD*%
D44*
%TO.C,U3*%
X128584200Y-80916200D03*
X128584200Y-81416200D03*
X128584200Y-81916200D03*
X128584200Y-82416200D03*
X130260200Y-82416200D03*
X130260200Y-81916200D03*
X130260200Y-81416200D03*
X130260200Y-80916200D03*
%TD*%
D15*
%TO.C,DIO3*%
X146580400Y-100978600D03*
%TD*%
D14*
%TO.C,R3*%
X134159800Y-90916200D03*
X134159800Y-91936200D03*
%TD*%
D20*
%TO.C,C9*%
X137807433Y-99575099D03*
X136847433Y-99575099D03*
%TD*%
D16*
%TO.C,C70*%
X148961599Y-123641201D03*
X148961599Y-124601201D03*
%TD*%
%TO.C,C18*%
X143405400Y-76599800D03*
X143405400Y-77559800D03*
%TD*%
D15*
%TO.C,VAA_TP1*%
X154861599Y-123541201D03*
%TD*%
D21*
%TO.C,C27*%
X134896400Y-83198600D03*
X135856400Y-83198600D03*
%TD*%
D13*
%TO.C,R13*%
X153625000Y-92750000D03*
X153625000Y-91730000D03*
%TD*%
D17*
%TO.C,R2*%
X128796400Y-123508400D03*
X129816400Y-123508400D03*
%TD*%
D15*
%TO.C,CTX1*%
X151635000Y-98921200D03*
%TD*%
D45*
%TO.C,U12*%
X145316999Y-120916200D03*
X145322399Y-121416199D03*
X145322399Y-121916201D03*
X145322399Y-122416200D03*
X145322399Y-122916199D03*
X145322399Y-123416201D03*
X145316999Y-123916200D03*
X145816998Y-123914800D03*
X146316999Y-123914800D03*
X146816999Y-123914800D03*
X147317000Y-123914800D03*
X147816999Y-123916200D03*
X147811599Y-123416201D03*
X147811599Y-122916199D03*
X147811599Y-122416200D03*
X147811599Y-121916201D03*
X147811599Y-121416199D03*
X147816999Y-120916200D03*
X147317000Y-120917600D03*
X146816999Y-120917600D03*
X146316999Y-120917600D03*
X145816998Y-120917600D03*
D46*
X146566999Y-121841200D03*
X146566999Y-122991200D03*
%TD*%
D22*
%TO.C,R12*%
X152145000Y-80049000D03*
X151125000Y-80049000D03*
%TD*%
D24*
%TO.C,C23*%
X129805200Y-74231200D03*
X131355200Y-74231200D03*
%TD*%
D16*
%TO.C,C53*%
X149270600Y-112027200D03*
X149270600Y-112987200D03*
%TD*%
D20*
%TO.C,C78*%
X146326400Y-116828200D03*
X145366400Y-116828200D03*
%TD*%
D21*
%TO.C,C66*%
X148961599Y-121541201D03*
X149921599Y-121541201D03*
%TD*%
D13*
%TO.C,R25*%
X141068600Y-101820800D03*
X141068600Y-100800800D03*
%TD*%
%TO.C,R6*%
X133220000Y-124376000D03*
X133220000Y-123356000D03*
%TD*%
D30*
%TO.C,C57*%
X144950800Y-107384000D03*
X144950800Y-106424000D03*
%TD*%
D14*
%TO.C,DIO3_D1*%
X146174000Y-103285293D03*
X146174000Y-104305293D03*
%TD*%
D22*
%TO.C,R14*%
X132082200Y-80886200D03*
X131062200Y-80886200D03*
%TD*%
D21*
%TO.C,C68*%
X149961599Y-120541201D03*
X150921599Y-120541201D03*
%TD*%
D20*
%TO.C,C15*%
X125219000Y-86094200D03*
X124259000Y-86094200D03*
%TD*%
D47*
%TO.C,C50*%
X152199422Y-110498378D03*
X151520600Y-111177200D03*
%TD*%
D20*
%TO.C,C20*%
X128470200Y-79946200D03*
X127510200Y-79946200D03*
%TD*%
D48*
%TO.C,ANT_SMA1*%
X145814400Y-133208400D03*
D49*
X141434400Y-133208400D03*
X150194400Y-133208400D03*
%TD*%
D17*
%TO.C,R34*%
X140730400Y-111041600D03*
X141750400Y-111041600D03*
%TD*%
D30*
%TO.C,C10*%
X137766600Y-92012400D03*
X137766600Y-91052400D03*
%TD*%
D50*
%TO.C,JP1*%
X121815400Y-91372800D03*
D51*
X121815400Y-92672800D03*
%TD*%
D16*
%TO.C,C52*%
X150589600Y-112723200D03*
X150589600Y-113683200D03*
%TD*%
D13*
%TO.C,R26*%
X142084600Y-101820800D03*
X142084600Y-100800800D03*
%TD*%
D52*
%TO.C,Y1*%
X135149000Y-97310000D03*
X135149000Y-95910000D03*
X134049000Y-95910000D03*
X134049000Y-97310000D03*
%TD*%
D17*
%TO.C,R16*%
X137516777Y-82159186D03*
X138536777Y-82159186D03*
%TD*%
%TO.C,R36*%
X149095000Y-103290000D03*
X150115000Y-103290000D03*
%TD*%
D21*
%TO.C,C11*%
X147649800Y-96432000D03*
X148609800Y-96432000D03*
%TD*%
D14*
%TO.C,R15*%
X127130200Y-76436200D03*
X127130200Y-77456200D03*
%TD*%
D15*
%TO.C,CPS1*%
X151635000Y-94806400D03*
%TD*%
D21*
%TO.C,C61*%
X149061599Y-126641201D03*
X150021599Y-126641201D03*
%TD*%
D23*
%TO.C,3V3_TP1*%
X132077000Y-83935200D03*
%TD*%
D53*
%TO.C,C51*%
X152299422Y-108406022D03*
X151620600Y-107727200D03*
%TD*%
D54*
%TO.C,Y3*%
X150720600Y-108577200D03*
X149730651Y-109567149D03*
X150508468Y-110344966D03*
X151498417Y-109355017D03*
%TD*%
D42*
%TO.C,FB_P1*%
X135556900Y-85052800D03*
X133981900Y-85052800D03*
%TD*%
D26*
%TO.C,UART2*%
X125015800Y-128029600D03*
D55*
X127555800Y-128029600D03*
X130095800Y-128029600D03*
%TD*%
D22*
%TO.C,RXD_1_R1*%
X152524000Y-104306000D03*
X151504000Y-104306000D03*
%TD*%
D56*
%TO.C,H3*%
X121705000Y-132590000D03*
%TD*%
D21*
%TO.C,C24*%
X138699000Y-73813000D03*
X139659000Y-73813000D03*
%TD*%
D23*
%TO.C,RBUS_VCC_TP1*%
X123491800Y-81750800D03*
%TD*%
%TO.C,BBOUT_TP1*%
X126387400Y-74156200D03*
%TD*%
D17*
%TO.C,R37*%
X149095000Y-104306000D03*
X150115000Y-104306000D03*
%TD*%
D26*
%TO.C,J3*%
X158086600Y-120597800D03*
D33*
X158086600Y-118057800D03*
X158086600Y-115517800D03*
%TD*%
D57*
%TO.C,UART1*%
X126633200Y-123951000D03*
D58*
X126633200Y-121451000D03*
X126633200Y-118951000D03*
%TD*%
D20*
%TO.C,C7*%
X137436400Y-100648400D03*
X136476400Y-100648400D03*
%TD*%
D59*
%TO.C,U5*%
X139954000Y-75508000D03*
X138684000Y-75508000D03*
X137414000Y-75508000D03*
X136144000Y-75508000D03*
X136144000Y-80448000D03*
X137414000Y-80448000D03*
X138684000Y-80448000D03*
X139954000Y-80448000D03*
D29*
X138049000Y-77978000D03*
%TD*%
D30*
%TO.C,C2*%
X132178600Y-91901600D03*
X132178600Y-90941600D03*
%TD*%
D17*
%TO.C,R11*%
X151600800Y-89687000D03*
X152620800Y-89687000D03*
%TD*%
D15*
%TO.C,CHL1*%
X151635000Y-96838400D03*
%TD*%
D20*
%TO.C,C77*%
X146326400Y-113932600D03*
X145366400Y-113932600D03*
%TD*%
D16*
%TO.C,C73*%
X149961599Y-123641201D03*
X149961599Y-124601201D03*
%TD*%
D21*
%TO.C,C26*%
X135699492Y-82149186D03*
X136659492Y-82149186D03*
%TD*%
D15*
%TO.C,*%
X140988400Y-108298400D03*
%TD*%
D17*
%TO.C,R32*%
X140739382Y-113031132D03*
X141759382Y-113031132D03*
%TD*%
D56*
%TO.C,H1*%
X121705000Y-74589600D03*
%TD*%
D17*
%TO.C,R33*%
X140730400Y-112032200D03*
X141750400Y-112032200D03*
%TD*%
D20*
%TO.C,C4*%
X136466000Y-102756600D03*
X135506000Y-102756600D03*
%TD*%
D60*
%TO.C,U2*%
X127733600Y-87861000D03*
X126463600Y-87861000D03*
X125193600Y-87861000D03*
X123923600Y-87861000D03*
X123923600Y-92811000D03*
X125193600Y-92811000D03*
X126463600Y-92811000D03*
X127733600Y-92811000D03*
%TD*%
D30*
%TO.C,C54*%
X145966800Y-106876000D03*
X145966800Y-105916000D03*
%TD*%
D56*
%TO.C,H4*%
X157705400Y-132590000D03*
%TD*%
D16*
%TO.C,C17*%
X125828600Y-95675200D03*
X125828600Y-96635200D03*
%TD*%
D24*
%TO.C,C21*%
X129993056Y-79301823D03*
X131543056Y-79301823D03*
%TD*%
D61*
%TO.C,L1*%
X137431600Y-101740600D03*
X138401600Y-101740600D03*
%TD*%
D30*
%TO.C,C62*%
X151939800Y-78291200D03*
X151939800Y-77331200D03*
%TD*%
D20*
%TO.C,C22*%
X128470200Y-79026200D03*
X127510200Y-79026200D03*
%TD*%
D24*
%TO.C,C71*%
X151161599Y-119241201D03*
X152711599Y-119241201D03*
%TD*%
D15*
%TO.C,DIO1*%
X153540000Y-100953907D03*
%TD*%
D21*
%TO.C,C8*%
X129994200Y-94247600D03*
X130954200Y-94247600D03*
%TD*%
%TO.C,C16*%
X126133400Y-86094200D03*
X127093400Y-86094200D03*
%TD*%
D14*
%TO.C,CTXLED1*%
X129181400Y-87844800D03*
X129181400Y-88864800D03*
%TD*%
D26*
%TO.C,ENJUMPER1*%
X121612200Y-96635200D03*
D33*
X121612200Y-99175200D03*
%TD*%
D62*
%TO.C,L3*%
X133148161Y-77821134D03*
X133148161Y-75696134D03*
%TD*%
D15*
%TO.C,BUSY1*%
X149831600Y-100953200D03*
%TD*%
D30*
%TO.C,C19*%
X143430800Y-75167000D03*
X143430800Y-74207000D03*
%TD*%
D21*
%TO.C,C65*%
X148201599Y-125641201D03*
X149161599Y-125641201D03*
%TD*%
D12*
%TO.C,R8*%
X129587800Y-92926800D03*
X129587800Y-91276800D03*
%TD*%
D26*
%TO.C,BOOTJUMPER1*%
X129994200Y-96584400D03*
D33*
X129994200Y-99124400D03*
%TD*%
D13*
%TO.C,R28*%
X151939800Y-74486400D03*
X151939800Y-73466400D03*
%TD*%
D20*
%TO.C,C3*%
X122425000Y-94298400D03*
X121465000Y-94298400D03*
%TD*%
D63*
%TO.C,ANT_UFL1*%
X139316000Y-123432200D03*
D64*
X137791000Y-124907200D03*
X137791000Y-121957200D03*
%TD*%
D15*
%TO.C,ANT_S1*%
X136191800Y-88862800D03*
%TD*%
%TO.C,D+_TP1*%
X152060000Y-81954000D03*
%TD*%
%TO.C,DIO2*%
X148155200Y-100978600D03*
%TD*%
D65*
%TO.C,D1*%
X124878600Y-100011100D03*
X126778600Y-100011100D03*
X125828600Y-98136100D03*
%TD*%
D20*
%TO.C,C58*%
X141420200Y-109441400D03*
X140460200Y-109441400D03*
%TD*%
D17*
%TO.C,R7*%
X128796400Y-121476400D03*
X129816400Y-121476400D03*
%TD*%
D15*
%TO.C,CANTX1*%
X132077000Y-88862800D03*
%TD*%
D66*
%TO.C,U1*%
X139850000Y-99405000D03*
X140250000Y-99405000D03*
X140650000Y-99405000D03*
X141050000Y-99405000D03*
X141450000Y-99405000D03*
X141850000Y-99405000D03*
X142250000Y-99405000D03*
X142650000Y-99405000D03*
X143050000Y-99405000D03*
X143450000Y-99405000D03*
X143850000Y-99405000D03*
X144250000Y-99405000D03*
X144650000Y-99405000D03*
X145050000Y-99405000D03*
D67*
X145895000Y-98560000D03*
X145895000Y-98160000D03*
X145895000Y-97760000D03*
X145895000Y-97360000D03*
X145895000Y-96960000D03*
X145895000Y-96560000D03*
X145895000Y-96160000D03*
X145895000Y-95760000D03*
X145895000Y-95360000D03*
X145895000Y-94960000D03*
X145895000Y-94560000D03*
X145895000Y-94160000D03*
X145895000Y-93760000D03*
X145895000Y-93360000D03*
D66*
X145050000Y-92515000D03*
X144650000Y-92515000D03*
X144250000Y-92515000D03*
X143850000Y-92515000D03*
X143450000Y-92515000D03*
X143050000Y-92515000D03*
X142650000Y-92515000D03*
X142250000Y-92515000D03*
X141850000Y-92515000D03*
X141450000Y-92515000D03*
X141050000Y-92515000D03*
X140650000Y-92515000D03*
X140250000Y-92515000D03*
X139850000Y-92515000D03*
D67*
X139005000Y-93360000D03*
X139005000Y-93760000D03*
X139005000Y-94160000D03*
X139005000Y-94560000D03*
X139005000Y-94960000D03*
X139005000Y-95360000D03*
X139005000Y-95760000D03*
X139005000Y-96160000D03*
X139005000Y-96560000D03*
X139005000Y-96960000D03*
X139005000Y-97360000D03*
X139005000Y-97760000D03*
X139005000Y-98160000D03*
X139005000Y-98560000D03*
D68*
X142450000Y-95960000D03*
%TD*%
D21*
%TO.C,C1*%
X137388200Y-102756600D03*
X138348200Y-102756600D03*
%TD*%
D56*
%TO.C,H2*%
X157705400Y-74589600D03*
%TD*%
D17*
%TO.C,TXLED1*%
X128796400Y-122492400D03*
X129816400Y-122492400D03*
%TD*%
M02*
